<svg fill="none" height="17" viewBox="0 0 18 17" width="18" xmlns="http://www.w3.org/2000/svg" xmlns:xlink="http://www.w3.org/1999/xlink"><clipPath id="a"><path d="m0 0h18v17h-18z"/></clipPath><g clip-path="url(#a)" stroke="#000" stroke-linecap="square" stroke-width="1.5"><path clip-rule="evenodd" d="m.666656 14.543c0 .7934.677774 1.4356 1.515154 1.4356h13.63639c.8373 0 1.5151-.6422 1.5151-1.4356v-11.48441h-16.666644z" fill-rule="evenodd"/><path d="m.666656 6.45898h16.666644"/><path d="m10 3.73953v-2.72"/><path d="m7.33331 3.73953v-2.72"/><path d="m13.3333 3.73953v-2.72"/><path d="m4.66666 3.73953v-2.72"/><path d="m4.66165 10.5391h.00945"/><path d="m4.66165 13.2598h.00945"/><path d="m7.32831 10.5391h.00944"/><path d="m7.32831 13.2598h.00944"/><path d="m9.995 10.5391h.0094"/><path d="m9.995 13.2598h.0094"/><path d="m13.3283 10.5391h.0095"/><path d="m13.3283 13.2598h.0095"/></g></svg>