<svg fill="none" height="17" viewBox="0 0 16 17" width="16" xmlns="http://www.w3.org/2000/svg"><path d="m10.3988 10.625h-5.20716l1.40272 1.2377 1.41699.0068-1.06043.0055h2.11156l.01246-.0111-.06211.0004zm.699-.625 2.0272-1.81252v-5.05709c0-.34816-.2842-.63039-.625-.63039h-9.37506c-.34516 0-.62498.27734-.62498.62629v5.12371l1.98332 1.75zm-5.416-8.125 2.13068-1.875 2.13068 1.875h2.55844c.6916 0 1.2484.55953 1.2484 1.24977v2.10023l1.875 1.65v8.7537c0 .6872-.5606 1.2463-1.2522 1.2463h-13.12055c-.696156 0-1.25225-.558-1.25225-1.2463v-8.7537l1.875-1.65v-2.10023c0-.69512.55893-1.24977 1.2484-1.24977h2.55844zm3.33558 0-1.2049-1.0625-1.2049 1.0625h2.40978zm4.73262 4.1733v1.66004l.9375-.83334zm-11.87502 1.66004v-1.66004l-.9375.8267zm4.0625 4.79166-4.375 3.75h12.50002l-4.37502-3.75zm8.86572 3.5782c.1211-.1145.1968-.2762.1968-.4532v-8.125l-5.00002 4.3857zm-13.981423 0 4.803203-4.1925-5-4.38572v8.12502c0 .177.075625.3386.196797.4532zm2.928203-11.7032v.625h8.12502v-.625zm0 1.875v.625h8.12502v-.625zm0 1.875v.625h8.12502v-.625z" fill="#000"/></svg>