<svg height="196pt" preserveAspectRatio="xMidYMid meet" viewBox="0 0 346 196" width="346pt" xmlns="http://www.w3.org/2000/svg"><g transform="matrix(.1 0 0 -.1 0 196)"><path d="m20 1785v-155h165 165v155 155h-165-165zm215 80c44-43 31-112-24-135-60-24-121 14-121 75 0 76 92 114 145 60z"/><path d="m133 1868c-8-9-7-24 3-53 7-22 14-42 14-45 1-3 5 5 11 18 6 15 5 30-1 43-9 16-7 19 9 19 13 0 21-9 26-30 11-50 26-46 23 7-3 47-4 48-39 51-21 2-40-2-46-10z"/><path d="m100 1799c0-15 7-33 16-40 15-12 16-11 9 11-14 46-24 58-25 29z"/><path d="m233 1789c-7-18-11-34-9-37 7-7 27 39 24 55-2 9-8 2-15-18z"/><path d="m167 1768c-10-34-9-38 8-38 16 0 20 27 6 48-6 10-10 8-14-10z"/><path d="m487 1893c-11-11-8-161 3-168 6-4 48-7 93-7l82-1 3 91 3 92h-89c-49 0-92-3-95-7zm109-83c0-9-7-16-16-16s-16 7-16 16 7 16 16 16 16-7 16-16z"/><path d="m101 1488c-1-28 21-39 34-18 3 5 0 7-9 4-9-4-16 2-19 18-4 21-4 20-6-4z"/><path d="m152 1490c0-14 2-19 5-12 2 6 2 18 0 25-3 6-5 1-5-13z"/><path d="m1041 1492c-1-20 2-21 19-12s20 30 4 30c-3 0-2-4 1-10 3-5 2-10-4-10-5 0-12 6-14 13-3 6-6 2-6-11z"/><path d="m1132 1490c0-14 2-19 5-12 2 6 2 18 0 25-3 6-5 1-5-13z"/><path d="m1162 1485c0-16 2-22 5-12 2 9 2 23 0 30-3 6-5-1-5-18z"/><path d="m215 1490c-8-13 3-30 18-30 7 0 6 4-3 10-13 9-13 11 0 20 9 6 10 10 3 10-6 0-15-4-18-10z"/><path d="m260 1486c0-9 5-16 10-16 6 0 10 4 10 9 0 6-4 13-10 16-5 3-10-1-10-9z"/><path d="m1100 1491c0-5 5-13 10-16 6-3 10-2 10 4 0 5-4 13-10 16-5 3-10 2-10-4z"/><path d="m1185 1490c-8-13 3-30 18-30 7 0 6 4-3 10-13 8-12 10 3 10 10 0 15 5 12 10-3 6-10 10-15 10s-12-4-15-10z"/><path d="m1300 1488c0-4 5-8 11-8 5 0 7-6 3-12-4-7-3-9 1-5 15 13 14 34-1 34-8 0-14-4-14-9z"/><path d="m176 1468c3-5 10-6 15-3 13 9 11 12-6 12-8 0-12-4-9-9z"/><path d="m20 1361c0-14 907-15 915-1 4 7-142 10-454 10-282 0-461-4-461-9z"/><path d="m2450 1192c0-41 5-73 13-81 9-10 9-12 0-7s-12-9-10-56l2-63h230 230v135 135l-232 3-233 2zm173-29c-7-2-14-23-15-46l-1-42-7 45-7 45-2-45c-2-25-5-38-8-30s-12 19-19 23c-17 10-18 44-1 50 6 3 26 5 42 5 17 0 24-2 18-5zm-128-82c3-5 2-12-3-15s-9 1-9 9c0 17 3 19 12 6z"/><path d="m350 901c0-10 7-24 15-31 13-11 15-8 15 14 0 40 18 31 23-11l4-38 1 43c2 40 1 42-28 42-23 0-30-5-30-19z"/><path d="m947 914c-4-4-7-19-7-34 0-23 4-26 35-26 34 0 36 2 33 31-2 24-8 31-28 33-14 2-29 0-33-4z"/><path d="m1515 880c-3-5-1-10 4-10 6 0 11 5 11 10 0 6-2 10-4 10-3 0-8-4-11-10z"/><path d="m1538 833c12-2 32-2 45 0 12 2 2 4-23 4s-35-2-22-4z"/><path d="m842 670c0-14 2-19 5-12 2 6 2 18 0 25-3 6-5 1-5-13z"/><path d="m951 664c0-11 3-14 6-6 3 7 2 16-1 19-3 4-6-2-5-13z"/><path d="m1011 664c0-11 3-14 6-6 3 7 2 16-1 19-3 4-6-2-5-13z"/><path d="m1560 676c0-2 8-10 18-17 15-13 16-12 3 4s-21 21-21 13z"/><path d="m340 371c0-13 6-21 16-21 12 0 15-6 11-21s-3-19 4-12c16 16 7 67-13 71-13 2-18-3-18-17z"/><path d="m395 380c-8-14 3-30 21-30 8 0 14 9 14 20 0 21-24 28-35 10z"/><path d="m920 383c0-4 22-6 49-5 49 4 50 4 54-30l5-33-2 35c-1 35-1 35-53 38-29 2-53-1-53-5z"/><path d="m1513 364c-3-8-2-19 3-24s9 1 9 16c0 28-3 30-12 8z"/><path d="m1590 365c10-12 10-18-1-32-13-16-12-17 4-4 21 17 22 37 1 45-14 5-15 4-4-9z"/><path d="m958 333c6-2 18-2 25 0 6 3 1 5-13 5s-19-2-12-5z"/><path d="m1592 145c0-16 2-22 5-12 2 9 2 23 0 30-3 6-5-1-5-18z"/></g></svg>