<svg height="203pt" preserveAspectRatio="xMidYMid meet" viewBox="0 0 358 203" width="358pt" xmlns="http://www.w3.org/2000/svg"><g transform="matrix(.1 0 0 -.1 0 203)"><path d="m20 1060v-950h560 560v950 950h-560-560zm80 909c-13-6-20-13-15-17 6-4 10-11 10-17 1-24 30-85 42-85 7 0 10 7 7 15-4 8-10 15-14 15s-10 16-12 35c-3 29-1 35 15 35 10 0 15-4 12-10-8-13 26-71 37-64 4 3 8 15 7 27 0 21-1 21-8 2-6-15-9-11-14 22-4 23-13 44-19 46-8 3-7 6 4 6 22 1 48-37 48-71 0-58-78-90-120-48-37 37-16 121 29 119 9 0 6-4-9-10zm211-4c7 17 8 18 8 3 1-19 21-26 21-8 0 6 5 10 10 10 6 0 10-9 10-21 0-16-4-19-17-14-10 4-28 7-40 6-18 0-23 5-23 22 1 21 1 21 12 2s11-19 19 0zm150 8c-11-5-11-7 0-14 12-7 12-10 0-21-9-8-11-9-7-1 3 6 2 14-4 18-13 8-3 25 13 24 8 0 7-3-2-6zm201-2c-11-6-10-10 4-15 13-5 15-9 6-18s-15-9-23-1c-14 14-5 43 13 43 10 0 10-2 0-9zm79-6c5 4 6-1 3-9-3-9-10-16-14-16-5 0-15-3-24-6-12-4-16 0-16 16s4 20 15 16c8-3 15 0 16 7 0 9 2 9 6-1 2-6 9-10 14-7zm-331-4c0-11-31-24-39-16-3 3 1 10 9 15 19 12 30 12 30 1zm77-13c-3-8-6-5-6 6-1 11 2 17 5 13 3-3 4-12 1-19zm65 4c-7-2-9-9-6-15 5-9 4-9-6 0-15 13-4 37 13 26 8-5 8-8-1-11zm65-6c1-11-1-15-4-8-3 6-11 12-19 12-9 0-12-5-8-12s3-8-4-4c-20 12-13 34 11 34 16 0 23-7 24-22zm186 7c-3-6-12-9-20-6-12 5-14 3-8-7 5-9 4-11-3-6-21 13-13 34 12 32 14 0 22-6 19-13zm47 9c0-5-6-16-13-26-12-16-13-16-14 4-1 11 2 18 8 15 5-4 9-1 9 4 0 6 2 11 5 11s5-4 5-8zm-599-396c5 3 9 1 9-5 0-5-4-13-10-16-5-3-10 0-10 7 0 9-3 9-10-2-11-18-13-9-3 16 4 11 8 13 11 6 2-7 8-10 13-6zm88-17c-8-5-18-8-24-8-5 0-4 3 3 6 6 2 9 10 6 15-4 7-2 8 4 4 7-4 12-1 13 6 0 10 2 10 6-1 3-7-1-17-8-22zm61 11c-12-8-12-10-1-10 8 0 12-3 8-6-9-9-28 6-22 17 4 5 12 9 18 9 7 0 6-4-3-10zm47-12c-3-8-6-5-6 6-1 11 2 17 5 13 3-3 4-12 1-19zm20 0c-3-8-6-5-6 6-1 11 2 17 5 13 3-3 4-12 1-19zm46 15c-7-2-19-2-25 0-7 3-2 5 12 5s19-2 13-5zm47-4c0-4-7-9-15-13-9-3-15 0-15 8 0 7 7 13 15 13s15-4 15-8zm90 1c0-5-8-10-17-10-15 0-16 2-3 10 19 12 20 12 20 0zm77-12c-3-8-6-5-6 6-1 11 2 17 5 13 3-3 4-12 1-19zm20 0c-3-8-6-5-6 6-1 11 2 17 5 13 3-3 4-12 1-19zm93 11c0-11-29-19-34-10-3 5-3 10-1 13 8 7 35 5 35-3zm-650-290c0-4-8-6-17-2-15 5-14 3 2-10 18-15 21-15 32 0 15 20 43 10 43-16s-17-36-35-21c-12 10-18 10-29 0-11-8-20-9-33-1-16 9-15 10 7 11h24l-22 16c-18 12-20 19-12 29 12 14 40 10 40-6zm147-31c-2-13-4-5-4 17-1 22 1 32 4 23 2-10 2-28 0-40zm-23 9c2-32-9-36-17-6-3 12-10 18-15 15-6-3-8-16-4-28 3-14 2-19-6-14-7 4-12 19-12 34 0 24 4 27 27 26 21 0 27-6 27-27zm136-13c0-27-4-34-20-34-11 0-20 7-20 15 0 9-6 12-15 9-9-4-15 0-15 10 0 22-17 20-23-1-3-12-5-9-6 8-1 25 1 27 49 27h50zm50 25c0-5-6-7-12-3-9 5-8 2 1-10 19-22-2-48-21-27-11 12-9 13 7 7 19-6 19-5 1 8-10 8-15 19-11 25 8 14 35 14 35 0zm-337-246c-7-2-13-12-13-20 0-9 6-13 15-9 8 3 15 1 15-4 0-13-27-13-35 0-9 15 2 40 17 39 10 0 10-2 1-6zm197-29c0-8-7-14-15-14s-15 5-15 10c0 6 5 10 11 10 5 0 7 5 3 12s-3 8 4 4 12-14 12-22zm-145-13c-6-5-25 10-25 20 0 5 6 4 14-3s12-15 11-17zm22 7c-3-8-6-5-6 6-1 11 2 17 5 13 3-3 4-12 1-19zm20 0c-3-8-6-5-6 6-1 11 2 17 5 13 3-3 4-12 1-19zm38 0c6-4 2-8-7-8-10 0-18 7-18 17 0 9 3 12 8 7 4-5 12-12 17-16zm-142-173c4-8 2-17-3-20-6-4-10 3-10 14 0 25 6 27 13 6zm124-17c-3-7-5-2-5 12s2 19 5 13c2-7 2-19 0-25zm-20 0c-3-8-6-5-6 6-1 11 2 17 5 13 3-3 4-12 1-19zm60 0c-3-8-6-5-6 6-1 11 2 17 5 13 3-3 4-12 1-19zm94 5c13-16 12-17-3-4-10 7-18 15-18 17 0 8 8 3 21-13zm-196-184c11-16 1-19-13-3-7 8-8 14-3 14s13-5 16-11zm49 3c-7-4-14-16-17-27-4-15-5-14-6 8-1 20 4 27 17 27 11 0 13-3 6-8zm40 0c-6-4-14-14-17-22-4-10-6-8-6 8-1 15 5 22 17 22 10 0 13-3 6-8zm23-14c-3-8-6-5-6 6-1 11 2 17 5 13 3-3 4-12 1-19zm38 11c11-16 1-19-13-3-7 8-8 14-3 14s13-5 16-11zm43-11c-2-12-9-23-16-24s-8 0-2 3c14 7 13 30-2 36-8 3-5 6 5 6 13 1 18-5 15-21zm-233-9c-4-5-12-9-18-8-9 0-8 2 1 6 6 2 9 10 6 15-4 7-2 8 5 4 6-4 9-12 6-17zm125-161c41 0 80 1 85 2 33 7 55-1 55-20 0-16-7-20-35-20-26 0-35 4-36 18-1 16-2 16-6-1-4-15-14-17-61-15-41 2-60-1-69-12-9-10-12-11-13-2 0 6-9 12-20 12s-20 5-20 10c0 7-6 7-20 0-18-9-20-8-20 16 0 25 2 25 42 19 23-4 76-7 118-7zm180-187c0-5 3-16 6-25 4-12 0-16-15-16-12 0-21 5-21 11 0 5 4 8 9 5 5-4 7 3 4 14s0 20 6 20 11-4 11-9zm68-12c3-12 2-12-6 0-8 11-11 9-15-10-4-22-4-22-6 4-1 30 19 34 27 6zm-382 4c-3-4 6-12 21-18l28-12-36 1c-29 1-35 4-31 19 2 9 9 17 15 17s7-3 3-7zm221-25c-3-7-5-2-5 12s2 19 5 13c2-7 2-19 0-25zm-142-7c-6-5-25 10-25 20 0 5 6 4 14-3s12-15 11-17zm45 14c0-8-7-15-15-15-13 0-14 3-3 15 16 18 18 18 18 0zm40 0c0-8-7-15-15-15s-15 5-15 11c0 5 5 7 10 4 6-3 10-1 10 4 0 6 2 11 5 11s5-7 5-15zm37-7c-3-8-6-5-6 6-1 11 2 17 5 13 3-3 4-12 1-19zm53 1c0-5-4-9-8-9-5 0-9 7-9 15s4 12 9 9c4-3 8-9 8-15zm147-1c-3-8-6-5-6 6-1 11 2 17 5 13 3-3 4-12 1-19zm56 5c-3-7-6-13-8-13s-5 6-8 13c-3 8 1 14 8 14s11-6 8-14zm37 2c0-8-7-15-16-15-14 0-14 3-4 15 7 8 14 15 16 15s4-7 4-15zm35-7c6-4 2-8-7-8-10 0-18 7-18 17 0 9 3 12 8 7 4-5 12-12 17-16zm38 5c-3-7-9-10-14-7-14 8-11 21 5 21 8 0 12-6 9-14z"/><path d="m71 1905c0-11 4-27 9-35 9-13 10-13 9 0 0 8-4 24-9 35l-9 20z"/><path d="m420 1240c0-5 5-10 10-10 6 0 10 5 10 10 0 6-4 10-10 10-5 0-10-4-10-10z"/><path d="m1341 1913c-1-16 3-21 14-17 8 4 15 14 15 23 0 13-2 13-9 2s-9-11-14 0c-3 8-6 5-6-8z"/><path d="m1602 1910c0-14 2-19 5-12 2 6 2 18 0 25-3 6-5 1-5-13z"/><path d="m1386 1913c5-5 12-12 16-18s8-2 8 8c0 9-7 17-17 17-9 0-12-3-7-7z"/><path d="m1471 1907c9-9 16-11 20-5 4 7 9 6 12-1s5-7 3 1c-1 7-13 15-25 16-20 3-21 2-10-11z"/><path d="m1521 1903c0-11 3-13 6-5 2 6 10 9 15 6 7-4 8-2 4 4-11 18-26 14-25-5z"/><path d="m1572 1906c7-8 15-12 17-11 5 6-10 25-20 25-5 0-4-6 3-14z"/><path d="m1620 1911c0-5 7-11 14-14 10-4 13-1 9 9-6 15-23 19-23 5z"/><path d="m1423 1892c1-14 5-18 11-12 7 7 6 14-1 21-9 9-12 7-10-9z"/><path d="m1241 1588c0-18 3-27 6-20 2 6 11 12 19 12s14 9 14 20c0 13-7 20-20 20-16 0-20-6-19-32zm29 12c0-5-4-10-10-10-5 0-10 5-10 10 0 6 5 10 10 10 6 0 10-4 10-10z"/><path d="m1870 1610c0-5-7-10-16-10-21 0-14-34 9-38 13-3 17 3 17 27 0 17-2 31-5 31s-5-4-5-10zm0-30c0-5-4-10-10-10-5 0-10 5-10 10 0 6 5 10 10 10 6 0 10-4 10-10z"/><path d="m1550 1585c0-14 4-25 9-25 4 0 6 11 3 25-2 14-6 25-8 25s-4-11-4-25z"/><path d="m1718 1585c2-14 6-25 8-25s4 11 4 25-4 25-9 25c-4 0-6-11-3-25z"/><path d="m1752 1590c0-14 2-19 5-12 2 6 2 18 0 25-3 6-5 1-5-13z"/><path d="m1302 1588c-18-18-15-28 8-28 13 0 20 7 20 20 0 23-10 26-28 8z"/><path d="m1342 1578c1-16 5-28 9-28 8 0 20 42 14 49-3 2-5-2-5-10 0-12-2-11-10 1-8 11-9 9-8-12z"/><path d="m1381 1578c1-17 2-19 6-5 2 9 8 17 13 17s11-8 13-17c4-14 5-12 6 5 1 16-5 22-19 22s-20-6-19-22z"/><path d="m1432 1580c0-14 2-19 5-12 2 6 2 18 0 25-3 6-5 1-5-13z"/><path d="m1452 1583c2-9 10-18 18-20 13-4 13-3 0 6s-13 11 3 11c9 0 17 5 17 10 0 6-9 10-21 10-14 0-19-5-17-17z"/><path d="m1502 1580c0-14 2-19 5-12 2 6 2 18 0 25-3 6-5 1-5-13z"/><path d="m1527 1580c3-11 7-20 9-20s4 9 4 20-4 20-9 20-7-9-4-20z"/><path d="m1601 1584c0-11 3-14 6-6 3 7 2 16-1 19-3 4-6-2-5-13z"/><path d="m1621 1578c1-17 2-19 6-5 2 9 8 17 13 17s11-8 13-17c4-14 5-12 6 5 1 16-5 22-19 22s-20-6-19-22z"/><path d="m1670 1578c0-11 7-18 18-18 14 0 15 2 2 10-10 6-11 10-2 10 6 0 12 4 12 8 0 5-7 9-15 9s-15-9-15-19z"/><path d="m1772 1580c0-14 2-19 5-12 2 6 2 18 0 25-3 6-5 1-5-13z"/><path d="m1792 1583c4-23 32-23 34 0 1 12 1 13-3 2-2-8-9-15-15-15-5 0-8 7-4 15 3 8 1 15-5 15s-9-8-7-17z"/><path d="m1890 1588c0-4 6-8 13-8 8 0 7-4-3-10-13-8-12-10 3-10 10 0 17 7 17 18 0 10-7 19-15 19s-15-4-15-9z"/><path d="m2302 1218c-7-7-12-21-12-32 0-21 4-21 200-18l200 3v-35-35l-191-1c-105 0-195-3-200-6-14-8-11-128 3-142 17-17 389-17 406 0 7 7 12 22 12 35 0 22-2 23-100 23-67 0-100 4-100 11 0 8-4 8-12 1-7-5-41-10-75-11l-63-1v35 35l173 2 172 3 3 58c2 35-2 64-9 73-15 19-388 21-407 2z"/><path d="m1916 1169c-28-22-36-72-16-108 15-28 61-44 93-32 31 12 30 11 17 47-8 19-7 37 1 62 9 28 9 36-2 43-24 15-65 10-93-12z"/><path d="m2350 1135c0-8 2-15 4-15s6 7 10 15c3 8 1 15-4 15-6 0-10-7-10-15z"/><path d="m2383 1136c-16-19-4-29 13-11 8 7 14 16 14 19 0 10-15 6-27-8z"/><path d="m2471 1134c0-11 3-14 6-6 3 7 2 16-1 19-3 4-6-2-5-13z"/><path d="m2497 1135c-4-8-3-16 1-19s9 4 9 15c2 23-3 25-10 4z"/><path d="m2599 1141c11-7 10-10-5-13s-13-5 8-10c24-4 26-3 17 13-5 11-15 19-22 19-8 0-7-3 2-9z"/><path d="m2640 1144c0-5 9-15 20-22 18-11 20-10 19 10 0 13-3 17-6 10-4-10-8-10-19-1-8 6-14 7-14 3z"/><path d="m1386 1133c6-4 18-28 26-53 20-63 40-62 67 1 12 28 20 53 17 56-10 10-34-17-41-45l-7-27-13 35c-8 25-18 36-36 38-14 2-19-1-13-5z"/><path d="m1516 1123c-16-57-18-93-3-93 14 0 27 39 27 86 0 28-16 32-24 7z"/><path d="m1578 1129c-24-13-23-36 2-51 27-17 25-28-5-28-14 0-25-5-25-11 0-17 62-6 74 14 9 14 7 21-13 36-16 12-20 21-12 25 6 4 16 4 21 1 6-3 10 1 10 9 0 18-26 20-52 5z"/><path d="m1684 1132c-6-4-20-28-31-53l-20-45h49l49 1-6 35c-12 71-17 78-41 62zm16-52c0-5-4-10-10-10-5 0-10 5-10 10 0 6 5 10 10 10 6 0 10-4 10-10z"/><path d="m2308 1123c6-2 18-2 25 0 6 3 1 5-13 5s-19-2-12-5z"/><path d="m2447 1048c9-10 17-18 17-18 1 0 2 8 2 18s-8 18-18 18c-16 0-16-2-1-18z"/><path d="m2480 1050c0-14 5-18 16-13 12 4 13 8 3 13-8 6-6 9 7 13 16 4 16 5-3 6-17 1-23-5-23-19z"/><path d="m2548 1063c7-3 16-2 19 1 4 3-2 6-13 5-11 0-14-3-6-6z"/><path d="m2598 1063c7-3 16-2 19 1 4 3-2 6-13 5-11 0-14-3-6-6z"/><path d="m2635 1060c-3-6 1-7 9-4 18 7 21 14 7 14-6 0-13-4-16-10z"/><path d="m2688 1063c7-3 16-2 19 1 4 3-2 6-13 5-11 0-14-3-6-6z"/><path d="m2540 1046c0-2 7-6 15-10 8-3 15-1 15 4 0 6-7 10-15 10s-15-2-15-4z"/><path d="m2015 990c-3-5-1-10 4-10 6 0 11 5 11 10 0 6-2 10-4 10-3 0-8-4-11-10z"/><path d="m1427 823c-13-12-7-26 6-15 6 5 21 12 32 15 16 4 15 5-6 6-14 0-29-2-32-6z"/><path d="m1912 811c-35-26-27-66 13-66 27 0 30 3 27 30-6 49-14 56-40 36z"/><path d="m1991 778c1-24 3-35 6-25 2 9 13 17 24 17 14 0 19 7 19 25 0 20-5 25-25 25-23 0-25-4-24-42zm39 17c0-8-7-15-15-15s-15 7-15 15 7 15 15 15 15-7 15-15z"/><path d="m2056 791c-4-5 3-7 16-3 14 3 19 2 14-6-4-7-14-12-22-12s-14-7-14-15c0-9 10-15 26-15 22 0 25 4 22 27-3 28-30 43-42 24z"/><path d="m2110 793c0-6 4-23 9-37 7-17 7-26-2-30-7-2-6-5 4-5 15-1 44 67 33 78-3 3-8-5-11-18l-6-23-13 23c-7 13-13 19-14 12z"/><path d="m1548 783c7-3 16-2 19 1 4 3-2 6-13 5-11 0-14-3-6-6z"/></g></svg>