<svg viewBox="0 0 210 100" fill="none" xmlns="http://www.w3.org/2000/svg">
<path d="M129.371 75.8049C129.371 78.7855 126.853 81.2013 123.749 81.2013H32.1674C29.0631 81.2013 26.5459 78.7848 26.5459 75.8049V11.0404C26.5459 8.05977 29.0624 5.64325 32.1674 5.64325H123.749C126.853 5.64325 129.371 8.05977 129.371 11.0404V75.8049Z" fill="#F7F8FB" stroke="#383838" stroke-width="2.3248" stroke-miterlimit="10"/>
<path d="M27.4385 22.5027H129.371" stroke="#383838" stroke-width="2.3248" stroke-miterlimit="10" stroke-linecap="round" stroke-linejoin="round"/>
<path d="M35.3481 15.7673C36.1377 15.7673 36.7777 15.1274 36.7777 14.338C36.7777 13.5487 36.1377 12.9088 35.3481 12.9088C34.5585 12.9088 33.9185 13.5487 33.9185 14.338C33.9185 15.1274 34.5585 15.7673 35.3481 15.7673Z" fill="#383838"/>
<path d="M44.5791 15.7673C45.3686 15.7673 46.0087 15.1274 46.0087 14.338C46.0087 13.5487 45.3686 12.9088 44.5791 12.9088C43.7895 12.9088 43.1494 13.5487 43.1494 14.338C43.1494 15.1274 43.7895 15.7673 44.5791 15.7673Z" fill="#383838"/>
<path d="M53.8081 15.7673C54.5976 15.7673 55.2377 15.1274 55.2377 14.338C55.2377 13.5487 54.5976 12.9088 53.8081 12.9088C53.0185 12.9088 52.3784 13.5487 52.3784 14.338C52.3784 15.1274 53.0185 15.7673 53.8081 15.7673Z" fill="#383838"/>
<path d="M37.4375 34.1031H73.0389" stroke="#383838" stroke-width="2.3248" stroke-miterlimit="10" stroke-linecap="round" stroke-linejoin="round"/>
<path d="M37.4375 45.5912H73.0389" stroke="#383838" stroke-width="2.3248" stroke-miterlimit="10" stroke-linecap="round" stroke-linejoin="round"/>
<path d="M37.4375 57.5964H73.0389" stroke="#383838" stroke-width="2.3248" stroke-miterlimit="10" stroke-linecap="round" stroke-linejoin="round"/>
<path d="M37.4375 69.6017H73.0389" stroke="#383838" stroke-width="2.3248" stroke-miterlimit="10" stroke-linecap="round" stroke-linejoin="round"/>
<path d="M164.089 83.0696C164.089 86.051 161.571 88.466 158.468 88.466H66.8861C63.7819 88.466 61.2646 86.0502 61.2646 83.0696V18.3051C61.2646 15.3245 63.7811 12.908 66.8861 12.908H158.468C161.571 12.908 164.089 15.3245 164.089 18.3051V83.0696Z" fill="#F7F8FB" stroke="#383838" stroke-width="2.3248" stroke-miterlimit="10"/>
<path d="M62.1582 29.769H164.09" stroke="#383838" stroke-width="2.3248" stroke-miterlimit="10" stroke-linecap="round" stroke-linejoin="round"/>
<path d="M70.0678 23.032C70.8574 23.032 71.4975 22.3921 71.4975 21.6027C71.4975 20.8134 70.8574 20.1735 70.0678 20.1735C69.2783 20.1735 68.6382 20.8134 68.6382 21.6027C68.6382 22.3921 69.2783 23.032 70.0678 23.032Z" fill="#383838"/>
<path d="M79.2978 23.032C80.0874 23.032 80.7274 22.3921 80.7274 21.6027C80.7274 20.8134 80.0874 20.1735 79.2978 20.1735C78.5082 20.1735 77.8682 20.8134 77.8682 21.6027C77.8682 22.3921 78.5082 23.032 79.2978 23.032Z" fill="#383838"/>
<path d="M88.5278 23.032C89.3174 23.032 89.9574 22.3921 89.9574 21.6027C89.9574 20.8134 89.3174 20.1735 88.5278 20.1735C87.7382 20.1735 87.0981 20.8134 87.0981 21.6027C87.0981 22.3921 87.7382 23.032 88.5278 23.032Z" fill="#383838"/>
<path d="M152.511 71.2699V75.8193H147.96" stroke="#383838" stroke-width="2.3248" stroke-linecap="round" stroke-linejoin="round"/>
<path d="M139.365 75.8193H126.472" stroke="#383838" stroke-width="2.3248" stroke-linecap="round" stroke-linejoin="round" stroke-dasharray="11.33 11.33"/>
<path d="M122.174 75.8193H117.624V71.2699" stroke="#383838" stroke-width="2.3248" stroke-linecap="round" stroke-linejoin="round"/>
<path d="M117.624 62.6767V49.7866" stroke="#383838" stroke-width="2.3248" stroke-linecap="round" stroke-linejoin="round" stroke-dasharray="11.33 11.33"/>
<path d="M117.624 45.4896V40.9402H122.174" stroke="#383838" stroke-width="2.3248" stroke-linecap="round" stroke-linejoin="round"/>
<path d="M130.77 40.9402H143.663" stroke="#383838" stroke-width="2.3248" stroke-linecap="round" stroke-linejoin="round" stroke-dasharray="11.33 11.33"/>
<path d="M147.96 40.9402H152.511V45.4896" stroke="#383838" stroke-width="2.3248" stroke-linecap="round" stroke-linejoin="round"/>
<path d="M152.511 54.0828V66.9729" stroke="#383838" stroke-width="2.3248" stroke-linecap="round" stroke-linejoin="round" stroke-dasharray="11.33 11.33"/>
<path d="M74.1104 66.9214L85.3685 54.537L95.8522 66.9214" stroke="#383838" stroke-width="2.3248" stroke-miterlimit="10" stroke-linecap="round" stroke-linejoin="round"/>
<path d="M92.7046 63.2037L100.657 56.8792L108.624 66.9213" stroke="#383838" stroke-width="2.3248" stroke-miterlimit="10" stroke-linecap="round" stroke-linejoin="round"/>
<path d="M108.624 40.9402H73.7363V75.8193H108.624V40.9402Z" stroke="#383838" stroke-width="2.3248" stroke-miterlimit="10" stroke-linecap="round" stroke-linejoin="round"/>
<path d="M96.4768 51.5268C97.7712 51.5268 98.8204 50.4778 98.8204 49.1838C98.8204 47.8898 97.7712 46.8408 96.4768 46.8408C95.1825 46.8408 94.1333 47.8898 94.1333 49.1838C94.1333 50.4778 95.1825 51.5268 96.4768 51.5268Z" stroke="#383838" stroke-width="2.3248" stroke-miterlimit="10" stroke-linecap="round" stroke-linejoin="round"/>
<path d="M174.162 59.4777H139.274V94.3568H174.162V59.4777Z" fill="#F7F8FB" stroke="#383838" stroke-width="2.3248" stroke-miterlimit="10" stroke-linecap="round" stroke-linejoin="round"/>
<path d="M164.578 72.7939H163.701C163.625 72.4891 163.488 72.1267 163.288 71.7066C163.087 71.2873 162.864 70.8922 162.619 70.5192C162.363 70.1294 162.085 69.789 161.784 69.4963C161.483 69.2036 161.191 69.0368 160.911 68.9951C160.649 68.961 160.316 68.9352 159.917 68.9178C159.52 68.9019 159.148 68.8928 158.811 68.8928H158.07V83.3145C158.07 83.5943 158.13 83.8506 158.249 84.0834C158.367 84.3162 158.575 84.4966 158.871 84.624C159.023 84.6831 159.343 84.7635 159.831 84.8651C160.318 84.966 160.698 85.0213 160.968 85.0297V85.9312H152.452V85.0297C152.689 85.0137 153.052 84.9796 153.54 84.9281C154.027 84.8765 154.363 84.8136 154.55 84.7377C154.83 84.627 155.034 84.4686 155.166 84.2608C155.298 84.053 155.364 83.7763 155.364 83.4283V68.8928H154.626C154.363 68.8928 154.038 68.8988 153.648 68.9117C153.258 68.9246 152.885 68.9519 152.529 68.9944C152.249 69.0277 151.959 69.1953 151.659 69.4956C151.358 69.7958 151.081 70.1378 150.826 70.5184C150.571 70.8998 150.347 71.3047 150.152 71.7324C149.957 72.1593 149.821 72.5134 149.746 72.7931H148.855V67.9017H164.577L164.578 72.7939Z" fill="#383838"/>
<path d="M169.312 78.9008L175.413 91.2548L176.952 87.3984L182.025 91.6339L183.454 89.5647L178.826 85.4239L182.555 83.5837L169.312 78.9008Z" fill="#F7F8FB" stroke="#383838" stroke-width="2.3248" stroke-miterlimit="10" stroke-linecap="round" stroke-linejoin="round"/>
<path d="M169.312 71.0416V74.9276" stroke="#383838" stroke-width="2.3248" stroke-miterlimit="10" stroke-linecap="round" stroke-linejoin="round"/>
<path d="M161.8 74.9276L165.9 76.9172" stroke="#383838" stroke-width="2.3248" stroke-miterlimit="10" stroke-linecap="round" stroke-linejoin="round"/>
<path d="M165.9 80.7092L162.392 81.9413" stroke="#383838" stroke-width="2.3248" stroke-miterlimit="10" stroke-linecap="round" stroke-linejoin="round"/>
</svg>
