
<!-- Generator: visioncortex VTracer 0.6.4 -->
<svg version="1.1" xmlns="http://www.w3.org/2000/svg" viewBox="0 -20 398 256" preserveAspectRatio="xMidYMid meet">
<path d="M0 0 C1.076 -0.003 1.076 -0.003 2.175 -0.007 C4.591 -0.013 7.008 -0.012 9.425 -0.012 C11.152 -0.015 12.88 -0.018 14.608 -0.022 C19.31 -0.031 24.013 -0.033 28.715 -0.034 C32.637 -0.034 36.558 -0.038 40.48 -0.042 C49.73 -0.05 58.981 -0.052 68.231 -0.052 C77.782 -0.051 87.333 -0.062 96.884 -0.077 C105.076 -0.09 113.268 -0.096 121.46 -0.095 C126.356 -0.095 131.252 -0.098 136.148 -0.108 C140.753 -0.118 145.358 -0.118 149.962 -0.111 C151.654 -0.11 153.345 -0.112 155.037 -0.118 C157.343 -0.126 159.649 -0.121 161.956 -0.114 C163.247 -0.114 164.539 -0.115 165.87 -0.115 C169.73 0.182 171.921 0.897 174.589 3.684 C175.216 4.557 175.216 4.557 175.855 5.446 C176.283 6.02 176.711 6.593 177.152 7.184 C178.339 9.613 178.172 11.461 178.105 14.134 C178.766 14.125 179.427 14.116 180.108 14.107 C187.002 14.018 193.897 13.958 200.792 13.914 C203.363 13.894 205.934 13.867 208.505 13.832 C212.207 13.783 215.907 13.761 219.609 13.743 C220.754 13.722 221.899 13.702 223.079 13.681 C229.598 13.679 233.994 13.891 239.105 18.134 C241.753 23.2 242.475 26.927 242.445 32.721 C242.446 33.444 242.446 34.167 242.447 34.912 C242.445 37.276 242.421 39.64 242.398 42.005 C242.392 43.654 242.388 45.303 242.385 46.952 C242.373 51.274 242.344 55.596 242.311 59.918 C242.28 64.336 242.266 68.753 242.251 73.171 C242.219 81.825 242.168 90.479 242.105 99.134 C243.928 99.116 243.928 99.116 245.788 99.099 C247.373 99.089 248.958 99.08 250.542 99.071 C251.345 99.063 252.147 99.054 252.974 99.046 C255.018 99.037 257.062 99.081 259.105 99.134 C260.105 100.134 260.105 100.134 260.218 103.827 C260.218 105.472 260.212 107.118 260.202 108.763 C260.2 110.059 260.2 110.059 260.198 111.382 C260.193 114.153 260.18 116.925 260.167 119.696 C260.162 121.571 260.158 123.445 260.154 125.319 C260.143 129.924 260.125 134.529 260.105 139.134 C260.79 139.336 261.476 139.539 262.182 139.748 C263.082 140.016 263.982 140.284 264.909 140.559 C265.801 140.824 266.693 141.089 267.612 141.361 C270.173 142.155 272.645 143.068 275.105 144.134 C274.775 145.784 274.445 147.434 274.105 149.134 C273.115 149.134 272.125 149.134 271.105 149.134 C271.909 149.856 272.714 150.577 273.542 151.321 C276.138 154.17 277.105 155.327 277.105 159.134 C275.667 161.446 275.667 161.446 274.105 163.134 C270.951 162.527 268.916 161.492 266.355 159.571 C265.741 159.116 265.128 158.661 264.495 158.192 C264.036 157.843 263.578 157.494 263.105 157.134 C262.775 158.784 262.445 160.434 262.105 162.134 C261.445 162.134 260.785 162.134 260.105 162.134 C260.136 163.34 260.136 163.34 260.167 164.571 C260.105 167.134 260.105 167.134 259.105 168.134 C257.019 168.228 254.929 168.251 252.841 168.247 C251.86 168.247 251.86 168.247 250.86 168.248 C248.69 168.247 246.521 168.239 244.351 168.231 C242.85 168.23 241.349 168.228 239.849 168.227 C235.892 168.223 231.935 168.213 227.977 168.202 C223.942 168.192 219.907 168.188 215.872 168.183 C207.95 168.172 200.027 168.155 192.105 168.134 C192.105 164.504 192.105 160.874 192.105 157.134 C190.405 157.136 188.706 157.138 186.955 157.14 C170.974 157.161 154.993 157.176 139.012 157.186 C130.795 157.191 122.578 157.198 114.361 157.209 C107.201 157.219 100.041 157.226 92.881 157.228 C89.089 157.229 85.296 157.232 81.503 157.239 C77.936 157.246 74.369 157.248 70.802 157.247 C68.862 157.247 66.923 157.253 64.984 157.258 C63.837 157.257 62.69 157.255 61.508 157.254 C60.507 157.255 59.506 157.256 58.475 157.257 C56.105 157.134 56.105 157.134 54.105 156.134 C54.105 155.474 54.105 154.814 54.105 154.134 C53.486 153.866 52.867 153.597 52.23 153.321 C50.105 152.134 50.105 152.134 48.105 149.134 C48.105 147.484 48.105 145.834 48.105 144.134 C29.625 144.134 11.145 144.134 -7.895 144.134 C-7.895 143.474 -7.895 142.814 -7.895 142.134 C-8.792 141.762 -8.792 141.762 -9.708 141.384 C-12.29 139.908 -13.337 138.661 -14.895 136.134 C-15.281 133.662 -15.281 133.662 -15.296 130.84 C-15.309 129.768 -15.322 128.696 -15.335 127.591 C-15.334 126.419 -15.332 125.248 -15.331 124.041 C-15.341 122.803 -15.351 121.565 -15.362 120.29 C-15.385 116.897 -15.395 113.505 -15.397 110.112 C-15.399 107.99 -15.406 105.869 -15.413 103.747 C-15.441 96.341 -15.454 88.935 -15.451 81.529 C-15.449 74.634 -15.481 67.74 -15.528 60.845 C-15.568 54.918 -15.584 48.992 -15.582 43.066 C-15.581 39.529 -15.589 35.993 -15.621 32.457 C-15.656 28.509 -15.642 24.563 -15.624 20.615 C-15.649 18.867 -15.649 18.867 -15.675 17.083 C-15.601 10.687 -14.991 6.923 -10.377 2.324 C-7.024 -0.369 -4.222 0.005 0 0 Z " fill="#4C4C4D" transform="translate(66.89523315429688,42.86628723144531)"/>
<path d="M0 0 C61.05 0 122.1 0 185 0 C185 16.5 185 33 185 50 C179.72 50 174.44 50 169 50 C168.67 47.36 168.34 44.72 168 42 C166.68 41.67 165.36 41.34 164 41 C164 43.97 164 46.94 164 50 C152.615 50.495 152.615 50.495 141 51 C140.67 60.9 140.34 70.8 140 81 C138.02 81 136.04 81 134 81 C134 81.99 134 82.98 134 84 C135.98 84 137.96 84 140 84 C140 90.6 140 97.2 140 104 C122.485 104.139 104.969 104.246 87.454 104.311 C79.321 104.342 71.188 104.384 63.055 104.453 C55.967 104.512 48.879 104.551 41.79 104.565 C38.036 104.572 34.283 104.591 30.53 104.634 C26.34 104.683 22.151 104.684 17.96 104.681 C16.094 104.714 16.094 104.714 14.189 104.747 C4.822 104.679 4.822 104.679 1.725 101.562 C-0.512 96.943 -0.669 93.391 -0.568 88.323 C-0.569 86.865 -0.569 86.865 -0.569 85.377 C-0.566 82.243 -0.528 79.11 -0.488 75.977 C-0.481 74.037 -0.476 72.097 -0.473 70.157 C-0.447 62.98 -0.377 55.802 -0.312 48.625 C-0.209 32.579 -0.106 16.532 0 0 Z " fill="#F1F2F5" transform="translate(119,92)"/>
<path d="M0 0 C19.47 0 38.94 0 59 0 C59 5.61 59 11.22 59 17 C44.81 17 30.62 17 16 17 C16 18.32 16 19.64 16 21 C30.19 21 44.38 21 59 21 C59 26.61 59 32.22 59 38 C44.81 38.33 30.62 38.66 16 39 C16 39.66 16 40.32 16 41 C30.19 41.33 44.38 41.66 59 42 C59 47.94 59 53.88 59 60 C44.81 60 30.62 60 16 60 C16 61.32 16 62.64 16 64 C30.19 64 44.38 64 59 64 C59 69.94 59 75.88 59 82 C44.81 82.33 30.62 82.66 16 83 C16.33 83.99 16.66 84.98 17 86 C30.86 86.33 44.72 86.66 59 87 C59 92.28 59 97.56 59 103 C51.24 103.123 43.481 103.214 35.721 103.275 C33.081 103.3 30.44 103.334 27.8 103.377 C24.007 103.438 20.215 103.466 16.422 103.488 C14.648 103.527 14.648 103.527 12.839 103.566 C11.738 103.567 10.637 103.567 9.503 103.568 C8.535 103.579 7.567 103.59 6.569 103.601 C4 103 4 103 1.684 101.062 C-0.67 96.783 -0.531 93.246 -0.454 88.436 C-0.455 87.48 -0.455 86.523 -0.456 85.538 C-0.453 82.383 -0.422 79.229 -0.391 76.074 C-0.383 73.884 -0.377 71.694 -0.373 69.504 C-0.358 63.745 -0.319 57.986 -0.275 52.228 C-0.227 45.315 -0.208 38.403 -0.185 31.49 C-0.146 20.993 -0.069 10.497 0 0 Z " fill="#F4F5F8" transform="translate(56,79)"/>
<path d="M0 0 C0.711 -0.007 1.423 -0.014 2.155 -0.021 C4.533 -0.039 6.91 -0.029 9.288 -0.019 C10.994 -0.026 12.701 -0.035 14.408 -0.045 C19.04 -0.067 23.672 -0.064 28.305 -0.056 C32.172 -0.05 36.039 -0.058 39.905 -0.065 C49.027 -0.082 58.148 -0.078 67.27 -0.062 C76.682 -0.045 86.094 -0.061 95.505 -0.093 C103.586 -0.12 111.667 -0.127 119.748 -0.118 C124.574 -0.114 129.4 -0.116 134.227 -0.136 C138.764 -0.155 143.301 -0.149 147.839 -0.124 C149.504 -0.119 151.169 -0.123 152.835 -0.135 C155.108 -0.151 157.38 -0.136 159.653 -0.114 C161.561 -0.113 161.561 -0.113 163.508 -0.112 C166.827 0.515 166.827 0.515 171.827 5.515 C171.827 12.775 171.827 20.035 171.827 27.515 C111.107 27.515 50.387 27.515 -12.173 27.515 C-12.173 19.925 -12.173 12.335 -12.173 4.515 C-6.912 0.305 -6.257 0.014 0 0 Z " fill="#F2F3F6" transform="translate(132.17333984375,60.48533630371094)"/>
<path d="M0 0 C0.652 -0.002 1.304 -0.004 1.976 -0.005 C4.141 -0.01 6.306 -0.007 8.471 -0.003 C9.969 -0.004 11.467 -0.005 12.966 -0.006 C16.11 -0.008 19.254 -0.006 22.398 -0.001 C26.437 0.005 30.476 0.001 34.514 -0.005 C37.61 -0.008 40.705 -0.007 43.8 -0.004 C45.289 -0.004 46.779 -0.005 48.269 -0.007 C50.347 -0.009 52.425 -0.006 54.504 0 C56.281 0.001 56.281 0.001 58.095 0.002 C60.752 0.129 60.752 0.129 61.752 1.129 C61.851 3.21 61.88 5.294 61.881 7.377 C61.884 8.355 61.884 8.355 61.887 9.353 C61.891 11.518 61.888 13.683 61.885 15.848 C61.885 17.346 61.886 18.845 61.888 20.343 C61.889 23.487 61.887 26.631 61.882 29.775 C61.877 33.814 61.88 37.853 61.886 41.892 C61.89 44.987 61.888 48.082 61.886 51.177 C61.885 52.667 61.886 54.156 61.888 55.646 C61.891 57.725 61.887 59.803 61.881 61.881 C61.881 63.066 61.88 64.251 61.879 65.472 C61.752 68.129 61.752 68.129 60.752 69.129 C58.671 69.229 56.587 69.257 54.504 69.259 C53.852 69.261 53.2 69.262 52.528 69.264 C50.363 69.269 48.198 69.266 46.033 69.262 C44.535 69.263 43.037 69.264 41.538 69.265 C38.394 69.267 35.25 69.264 32.106 69.26 C28.067 69.254 24.028 69.257 19.989 69.263 C16.894 69.267 13.799 69.266 10.704 69.263 C9.214 69.263 7.725 69.263 6.235 69.266 C4.157 69.268 2.078 69.264 0 69.259 C-1.778 69.258 -1.778 69.258 -3.591 69.256 C-6.248 69.129 -6.248 69.129 -7.248 68.129 C-7.347 66.049 -7.376 63.964 -7.377 61.881 C-7.379 61.229 -7.381 60.577 -7.383 59.906 C-7.387 57.741 -7.384 55.576 -7.381 53.411 C-7.382 51.912 -7.383 50.414 -7.384 48.916 C-7.385 45.772 -7.383 42.627 -7.378 39.483 C-7.373 35.445 -7.376 31.406 -7.382 27.367 C-7.386 24.272 -7.384 21.177 -7.382 18.082 C-7.381 16.592 -7.382 15.102 -7.384 13.613 C-7.387 11.534 -7.383 9.456 -7.377 7.377 C-7.377 6.192 -7.376 5.007 -7.375 3.786 C-7.137 -1.204 -4.388 0.003 0 0 Z " fill="#545454" transform="translate(145.248046875,107.87060546875)"/>
<path d="M0 0 C19.8 0 39.6 0 60 0 C60 10.89 60 21.78 60 33 C57.36 32.67 54.72 32.34 52 32 C52.787 37.379 55.245 41.673 57.723 46.453 C59 50 59 50 59 59 C39.53 59 20.06 59 0 59 C0 39.53 0 20.06 0 0 Z " fill="#F1F2F5" transform="translate(263,147)"/>
<path d="M0 0 C0.719 -0.007 1.437 -0.014 2.178 -0.021 C4.586 -0.039 6.993 -0.029 9.402 -0.019 C11.128 -0.026 12.855 -0.035 14.581 -0.045 C19.271 -0.067 23.961 -0.064 28.651 -0.056 C32.566 -0.05 36.48 -0.058 40.394 -0.065 C49.627 -0.082 58.86 -0.078 68.093 -0.062 C77.622 -0.045 87.15 -0.061 96.678 -0.093 C104.857 -0.12 113.035 -0.127 121.213 -0.118 C126.099 -0.114 130.984 -0.116 135.87 -0.136 C140.464 -0.155 145.058 -0.149 149.652 -0.124 C151.338 -0.119 153.025 -0.123 154.711 -0.135 C157.013 -0.151 159.313 -0.136 161.615 -0.114 C162.903 -0.113 164.191 -0.112 165.518 -0.112 C169.774 0.683 171.288 2.093 173.871 5.515 C173.871 6.835 173.871 8.155 173.871 9.515 C173.278 9.518 172.685 9.521 172.073 9.525 C157.634 9.606 143.195 9.698 128.756 9.802 C121.774 9.852 114.791 9.899 107.809 9.937 C101.072 9.973 94.335 10.02 87.598 10.073 C85.026 10.091 82.454 10.106 79.882 10.118 C76.284 10.135 72.686 10.164 69.087 10.196 C68.02 10.198 66.954 10.2 65.855 10.202 C64.872 10.214 63.889 10.225 62.876 10.236 C62.025 10.242 61.174 10.247 60.298 10.253 C55.595 10.76 53.22 12.166 49.871 15.515 C49.541 19.475 49.211 23.435 48.871 27.515 C29.071 27.515 9.271 27.515 -11.129 27.515 C-11.129 0.024 -11.129 0.024 0 0 Z " fill="#EEEFF2" transform="translate(67.12901306152344,47.48533630371094)"/>
<path d="M0 0 C19.47 0 38.94 0 59 0 C59 12.54 59 25.08 59 38 C56.07 35.07 53.331 32.322 50.688 29.188 C50.176 28.583 49.664 27.978 49.137 27.355 C48.762 26.908 48.386 26.461 48 26 C43.364 26.736 40.742 29.587 37.316 32.602 C35 34 35 34 32.516 34.02 C29.176 32.666 27.536 30.777 25.188 28.062 C24.397 27.167 23.607 26.271 22.793 25.348 C21 23 21 23 21 21 C13.357 23.084 8.639 30.171 4.359 36.398 C3 38 3 38 0 39 C0 26.13 0 13.26 0 0 Z " fill="#F3F4F7" transform="translate(143,113)"/>
<path d="M0 0 C0.66 0 1.32 0 2 0 C2.938 1.391 3.87 2.788 4.769 4.205 C7.042 7.519 9.823 10.382 12.562 13.312 C13.139 13.945 13.716 14.577 14.311 15.229 C14.869 15.83 15.428 16.431 16.004 17.051 C16.507 17.594 17.011 18.137 17.53 18.697 C19.084 20.246 19.084 20.246 22 21 C21.436 17.73 20.5 16.174 18 14 C18.33 13.01 18.66 12.02 19 11 C19.66 11 20.32 11 21 11 C21.248 10.402 21.495 9.804 21.75 9.188 C23.192 6.664 24.525 5.5 27 4 C27.99 4 28.98 4 30 4 C31.938 6.266 31.938 6.266 34 9.25 C35.021 10.712 35.021 10.712 36.062 12.203 C37.022 13.588 37.022 13.588 38 15 C38.99 16.32 39.98 17.64 41 19 C41 23.62 41 28.24 41 33 C21.53 33 2.06 33 -18 33 C-18 20 -18 20 -15.586 16.133 C-14.547 15.098 -13.476 14.094 -12.375 13.125 C-11.27 12.052 -10.166 10.977 -9.062 9.902 C-8.266 9.158 -8.266 9.158 -7.453 8.398 C-5.601 6.616 -3.985 4.688 -2.375 2.688 C-1.591 1.801 -0.808 0.914 0 0 Z " fill="#F3F4F7" transform="translate(161,139)"/>
<path d="M0 0 C9.57 0 19.14 0 29 0 C29 2.97 29 5.94 29 9 C27.624 7.71 26.292 6.373 25 5 C25 4.34 25 3.68 25 3 C22.36 2.67 19.72 2.34 17 2 C17.044 5.933 17.114 9.866 17.208 13.798 C17.25 15.793 17.271 17.788 17.293 19.783 C17.325 21.037 17.357 22.29 17.391 23.582 C17.412 24.739 17.433 25.897 17.454 27.089 C17.759 30.523 17.759 30.523 22 33 C17.38 33 12.76 33 8 33 C8.99 32.34 9.98 31.68 11 31 C11.512 27.996 11.512 27.996 11.512 24.461 C11.547 23.159 11.583 21.857 11.619 20.516 C11.642 19.135 11.665 17.755 11.688 16.375 C11.721 14.987 11.755 13.599 11.791 12.211 C11.874 8.807 11.943 5.404 12 2 C8.536 2.805 8.536 2.805 5 4 C3.482 6.496 3.482 6.496 3 9 C2.01 9 1.02 9 0 9 C0 6.03 0 3.06 0 0 Z " fill="#3D3D3D" transform="translate(278,160)"/>
<path d="M0 0 C1.875 1.25 1.875 1.25 3 3 C3.438 5.438 3.438 5.438 3 8 C1.375 10.312 1.375 10.312 -1 12 C-4.062 12.5 -4.062 12.5 -7 12 C-9.585 9.759 -9.954 8.323 -10.438 4.938 C-10 2 -10 2 -8.375 0.062 C-5.15 -1.38 -3.351 -0.998 0 0 Z " fill="#4D4D4E" transform="translate(186,120)"/>
<path d="M0 0 C10.75 -0.125 10.75 -0.125 13 1 C12.67 2.32 12.34 3.64 12 5 C9.36 5 6.72 5 4 5 C4 7.64 4 10.28 4 13 C2.68 13 1.36 13 0 13 C0 8.71 0 4.42 0 0 Z " fill="#565656" transform="translate(219,108)"/>
<path d="M0 0 C5.61 0 11.22 0 17 0 C15.68 0.33 14.36 0.66 13 1 C13 10.57 13 20.14 13 30 C12.67 30 12.34 30 12 30 C12 20.76 12 11.52 12 2 C9.69 2.66 7.38 3.32 5 4 C3.482 6.496 3.482 6.496 3 9 C2.01 9 1.02 9 0 9 C0 6.03 0 3.06 0 0 Z " fill="#6F6F70" transform="translate(278,160)"/>
<path d="M0 0 C0.99 0.33 1.98 0.66 3 1 C3 3.64 3 6.28 3 9 C5.97 9 8.94 9 12 9 C11.67 10.32 11.34 11.64 11 13 C9.188 13.027 7.375 13.046 5.562 13.062 C4.553 13.074 3.544 13.086 2.504 13.098 C0 13 0 13 -1 12 C-1.099 10.169 -1.13 8.334 -1.125 6.5 C-1.128 5.5 -1.13 4.499 -1.133 3.469 C-1 1 -1 1 0 0 Z " fill="#4C4C4D" transform="translate(220,164)"/>
<path d="M0 0 C3.96 0 7.92 0 12 0 C12 3.96 12 7.92 12 12 C10.68 12 9.36 12 8 12 C8 9.36 8 6.72 8 4 C5.36 4 2.72 4 0 4 C0 2.68 0 1.36 0 0 Z " fill="#4D4D4D" transform="translate(275,109)"/>
<path d="M0 0 C4.565 0.543 7.973 1.795 12 4 C11.67 5.65 11.34 7.3 11 9 C10.01 9.33 9.02 9.66 8 10 C7.67 10.66 7.34 11.32 7 12 C6.34 12 5.68 12 5 12 C4.162 10.378 3.33 8.752 2.5 7.125 C2.036 6.22 1.572 5.315 1.094 4.383 C0 2 0 2 0 0 Z " fill="#DDDEE1" transform="translate(321,185)"/>
<path d="M0 0 C3.96 0 7.92 0 12 0 C12 2.97 12 5.94 12 9 C10.624 7.71 9.292 6.373 8 5 C8 4.34 8 3.68 8 3 C5.36 2.67 2.72 2.34 0 2 C0 1.34 0 0.68 0 0 Z M-1 2 C-0.67 2 -0.34 2 0 2 C0 10.58 0 19.16 0 28 C-0.33 28 -0.66 28 -1 28 C-1 19.42 -1 10.84 -1 2 Z " fill="#4D4D4E" transform="translate(295,160)"/>
<path d="M0 0 C4.565 0.543 7.973 1.795 12 4 C11.67 5.32 11.34 6.64 11 8 C6.493 7.47 3.546 5.804 0 3 C0 2.01 0 1.02 0 0 Z " fill="#505051" transform="translate(300,171)"/>
<path d="M0 0 C-0.33 1.32 -0.66 2.64 -1 4 C-2.32 4 -3.64 4 -5 4 C-5 4.66 -5 5.32 -5 6 C-6.65 6 -8.3 6 -10 6 C-10.33 4.68 -10.66 3.36 -11 2 C-3.571 -1.571 -3.571 -1.571 0 0 Z " fill="#5F5F60" transform="translate(312,182)"/>
<path d="M0 0 C1.32 0.33 2.64 0.66 4 1 C4 4.3 4 7.6 4 11 C2.68 11 1.36 11 0 11 C0 7.37 0 3.74 0 0 Z " fill="#484949" transform="translate(314,164)"/>
<path d="M0 0 C3.3 0 6.6 0 10 0 C9.67 1.32 9.34 2.64 9 4 C6.36 4 3.72 4 1 4 C0.67 2.68 0.34 1.36 0 0 Z " fill="#4F4F50" transform="translate(235,173)"/>
<path d="M0 0 C1.32 0 2.64 0 4 0 C4 2.97 4 5.94 4 9 C2.68 9 1.36 9 0 9 C0 6.03 0 3.06 0 0 Z " fill="#4C4C4C" transform="translate(219,125)"/>
<path d="M0 0 C3.3 0 6.6 0 10 0 C9.67 1.32 9.34 2.64 9 4 C6.36 4 3.72 4 1 4 C0.67 2.68 0.34 1.36 0 0 Z " fill="#4F5050" transform="translate(261,109)"/>
<path d="M0 0 C3.3 0 6.6 0 10 0 C9.67 1.32 9.34 2.64 9 4 C6.36 4 3.72 4 1 4 C0.67 2.68 0.34 1.36 0 0 Z " fill="#4C4C4D" transform="translate(243,109)"/>
<path d="M0 0 C1.32 0 2.64 0 4 0 C4 2.64 4 5.28 4 8 C2.68 8.33 1.36 8.66 0 9 C0 6.03 0 3.06 0 0 Z " fill="#484848" transform="translate(219,143)"/>
<path d="M0 0 C1.65 0.33 3.3 0.66 5 1 C4.67 2.32 4.34 3.64 4 5 C2.35 5 0.7 5 -1 5 C-0.67 3.35 -0.34 1.7 0 0 Z " fill="#828283" transform="translate(85,59)"/>
<path d="M0 0 C1.65 0 3.3 0 5 0 C5 2.64 5 5.28 5 8 C2.201 5.472 0.542 3.796 0 0 Z " fill="#3D3D3D" transform="translate(302,161)"/>
<path d="M0 0 C1.789 1.145 1.789 1.145 3.625 2.812 C4.236 3.355 4.847 3.898 5.477 4.457 C7 6 7 6 8 8 C4.167 7.452 2.599 5.767 0 3 C-0.99 2.34 -1.98 1.68 -3 1 C-2.01 0.67 -1.02 0.34 0 0 Z " fill="#6C6C6D" transform="translate(332,193)"/>
<path d="M0 0 C1.65 0 3.3 0 5 0 C4.691 0.577 4.381 1.155 4.062 1.75 C3.074 3.843 2.483 5.745 2 8 C1.34 8 0.68 8 0 8 C0 5.36 0 2.72 0 0 Z " fill="#464646" transform="translate(279,161)"/>
<path d="M0 0 C1.98 0.495 1.98 0.495 4 1 C4 2.32 4 3.64 4 5 C2.35 4.67 0.7 4.34 -1 4 C-0.67 2.68 -0.34 1.36 0 0 Z " fill="#525252" transform="translate(102,59)"/>
<path d="M0 0 C0.99 0.33 1.98 0.66 3 1 C3 2.32 3 3.64 3 5 C1.35 4.67 -0.3 4.34 -2 4 C-2 3.01 -2 2.02 -2 1 C-1.34 0.67 -0.68 0.34 0 0 Z " fill="#505051" transform="translate(150,72)"/>
<path d="M0 0 C1.65 0 3.3 0 5 0 C5 1.32 5 2.64 5 4 C3.35 4 1.7 4 0 4 C0 2.68 0 1.36 0 0 Z " fill="#4F5050" transform="translate(165,73)"/>
<path d="M0 0 C1.65 0 3.3 0 5 0 C5 1.32 5 2.64 5 4 C3.35 4 1.7 4 0 4 C0 2.68 0 1.36 0 0 Z " fill="#555656" transform="translate(131,73)"/>
<path d="M0 0 C1.32 0 2.64 0 4 0 C4 1.32 4 2.64 4 4 C2.68 4 1.36 4 0 4 C0 2.68 0 1.36 0 0 Z " fill="#454545" transform="translate(68,60)"/>
<path d="M0 0 C1.32 0 2.64 0 4 0 C4 1.32 4 2.64 4 4 C2.68 3.67 1.36 3.34 0 3 C0 2.01 0 1.02 0 0 Z " fill="#CED0D2" transform="translate(180,124)"/>
<path d="M0 0 C0.99 0 1.98 0 3 0 C3 0.99 3 1.98 3 3 C2.01 3 1.02 3 0 3 C0 2.01 0 1.02 0 0 Z " fill="#3A3A3A" transform="translate(85,60)"/>
<path d="M0 0 C0.99 0.99 1.98 1.98 3 3 C1.68 2.67 0.36 2.34 -1 2 C-0.67 1.34 -0.34 0.68 0 0 Z " fill="#565657" transform="translate(337,198)"/>
</svg>