<svg viewBox="0 0 48 39" fill="none" xmlns="http://www.w3.org/2000/svg">
<g clip-path="url(#clip0_45_83)">
<path d="M47.0228 20.0387C46.5121 21.5718 45.6433 22.9581 44.7284 24.2896C43.7521 25.7123 42.6961 27.1101 41.3415 28.1766C39.7249 29.4467 37.755 30.1878 36.073 31.3686C34.5946 32.4083 33.3687 33.7667 31.969 34.912C28.4046 37.8006 23.8714 39.2176 19.297 38.872C17.9684 38.7645 16.6311 38.5005 15.4513 37.8774C15.0462 37.6624 14.6602 37.4128 14.3002 37.1286C12.771 35.943 11.6046 34.2745 10.1953 32.9123C7.43048 30.2416 3.57416 28.5837 1.70312 25.2361C1.55432 24.9645 1.41992 24.6851 1.30184 24.399C0.434 22.3312 0.388879 19.9398 0.998479 17.7712C1.58024 15.6957 2.72456 13.8131 4.15496 12.1917C4.42472 11.8873 4.70408 11.5917 4.99208 11.3046C6.26888 10.0345 7.73384 8.91327 8.70536 7.39935C8.8436 7.18335 8.9732 6.95774 9.09704 6.73118C9.51656 5.96318 9.89 5.16543 10.467 4.51263C11.3482 3.51807 12.6116 2.95839 13.8423 2.46399C16.2337 1.48959 18.699 0.589106 21.2746 0.456626C23.5249 0.336626 25.753 0.822386 27.8497 1.59711C30.8746 2.70879 33.5607 4.31583 36.6865 5.14527C38.3857 5.59839 40.0532 6.17439 41.5614 7.01055C42.9918 7.77951 44.2474 8.83839 45.2458 10.119C46.2375 11.4189 46.9316 12.9213 47.2782 14.5197C47.69 16.3494 47.6026 18.256 47.0238 20.0406L47.0228 20.0387Z" fill="#CBE1FF"/>
<path d="M34.0032 31.8688C33.8035 32.0704 33.5654 32.2307 33.3024 32.3382C31.0656 33.4048 28.5715 33.8109 26.1129 33.5085C25.8211 33.473 25.5091 33.4298 25.2499 33.567C24.9907 33.7043 24.8592 33.9626 24.7075 34.2016C23.8502 35.5523 22.2557 36.2925 20.6678 36.495C19.08 36.6966 17.4768 36.4336 15.8985 36.1696C15.6115 36.7101 14.976 36.9558 14.3798 37.1018L14.2953 37.1229C12.7661 35.9373 11.5997 34.2688 10.1904 32.9066C7.42846 30.2406 3.5731 28.5827 1.70206 25.2352C1.55326 24.9635 1.41886 24.6842 1.30078 24.3981C2.30014 23.1347 3.8611 22.3658 5.73886 22.6643C7.38526 22.9485 8.75326 24.0928 9.32542 25.6624C9.4291 24.5862 10.9449 24.1869 11.8685 24.7379C12.792 25.289 13.2297 26.3718 13.6022 27.3808C15.0221 25.6566 17.5709 25.4099 19.295 26.8298C19.6953 27.159 20.0285 27.5632 20.2761 28.0182C21.9609 26.3862 24.6211 26.3085 26.9174 26.7798C28.6377 27.1322 30.5385 27.975 30.9821 29.6714C31.7846 29.369 32.7264 29.2566 33.4704 29.6848C34.2144 30.113 34.5801 31.2246 34.0051 31.8669L34.0032 31.8688Z" fill="url(#paint0_linear_45_83)"/>
<path d="M26.1486 8.44001C26.1255 8.73857 25.7838 8.88641 25.4958 8.96801C18.6779 10.9216 11.642 12.0083 4.55242 12.2042H4.1521C4.42186 11.8998 4.70122 11.6042 4.98922 11.3171C6.26602 10.047 7.73098 8.92577 8.7025 7.41185C8.84074 7.19585 8.97034 6.97025 9.09418 6.74369C9.54154 6.74369 9.95626 6.79841 9.9841 6.96833C9.7921 5.75105 10.6235 4.60865 11.8398 4.41761C12.5243 4.30913 13.2203 4.52609 13.7233 5.00321C14.1063 4.08545 14.7371 3.15137 15.7057 2.92385C16.5534 2.72705 17.451 3.14369 18.0539 3.77249C18.6567 4.40129 19.0235 5.20673 19.3787 6.00833C20.7025 5.56097 22.298 6.16289 22.9979 7.37249C23.9694 6.69377 25.5083 7.06529 26.0545 8.11361C26.115 8.21153 26.1476 8.32481 26.1486 8.44001Z" fill="url(#paint1_linear_45_83)"/>
<path d="M23.3742 12.8099C23.356 12.9107 23.3483 13.0135 23.3512 13.1162C23.3541 13.2199 23.3963 13.3178 23.4712 13.3898C23.5451 13.4483 23.6392 13.4743 23.7333 13.4637C23.8264 13.4531 23.9157 13.4224 23.9963 13.3754C24.0337 13.3562 24.0673 13.3293 24.0952 13.2976C24.1365 13.2285 24.1528 13.1469 24.1393 13.0672C24.1221 12.8032 24.0904 12.5402 24.0462 12.2791C24.0424 12.2176 24.0232 12.1591 23.9915 12.1072C23.8993 11.9872 23.5432 11.8682 23.4357 12.0275C23.3742 12.1159 23.4069 12.2666 23.4049 12.3607C23.404 12.5114 23.3944 12.6611 23.3752 12.8099H23.3742Z" fill="#176CDF"/>
<path d="M23.3742 12.8099C23.356 12.9107 23.3483 13.0135 23.3512 13.1162C23.3541 13.2199 23.3963 13.3178 23.4712 13.3898C23.5451 13.4483 23.6392 13.4743 23.7333 13.4637C23.8264 13.4531 23.9157 13.4224 23.9963 13.3754C24.0337 13.3562 24.0673 13.3293 24.0952 13.2976C24.1365 13.2285 24.1528 13.1469 24.1393 13.0672C24.1221 12.8032 24.0904 12.5402 24.0462 12.2791C24.0424 12.2176 24.0232 12.1591 23.9915 12.1072C23.8993 11.9872 23.5432 11.8682 23.4357 12.0275C23.3742 12.1159 23.4069 12.2666 23.4049 12.3607C23.404 12.5114 23.3944 12.6611 23.3752 12.8099H23.3742Z" fill="url(#paint2_linear_45_83)"/>
<path d="M15.5877 15.7216C15.5877 15.7216 10.7378 12.6381 11.6095 11.5879C11.6095 11.5879 11.8562 10.9898 13.062 11.1405C14.2687 11.2912 22.0687 14.2691 22.0687 14.2691L15.5877 15.7216Z" fill="#176CDF"/>
<path d="M22.0687 14.2691L19.7349 14.7923L15.5877 15.7226C15.5877 15.7226 10.7378 12.6381 11.6095 11.5869C11.7064 11.4093 11.8687 11.2758 12.0626 11.2163C12.3842 11.1078 12.7279 11.0819 13.062 11.1395C14.2696 11.296 22.0687 14.2682 22.0687 14.2682V14.2691Z" fill="url(#paint3_linear_45_83)"/>
<path d="M22.0686 14.2691L19.7348 14.7923L16.0791 15.2982C16.0791 15.2982 11.3876 12.3098 12.0625 11.2163C12.3841 11.1078 12.7278 11.0819 13.0619 11.1395C14.2695 11.296 22.0686 14.2682 22.0686 14.2682V14.2691Z" fill="url(#paint4_linear_45_83)"/>
<path d="M33.2535 16.0768C33.216 16.312 33.1344 16.5376 33.0144 16.743C33.0144 16.743 25.8932 20.9738 21.72 21.7197C18 22.383 15.0864 22.5731 13.8644 20.1146C13.706 19.7891 13.5821 19.4483 13.4957 19.097C13.4372 18.7312 13.4564 18.3578 13.5533 18.0006C13.8058 16.9821 14.7236 15.5219 17.7879 14.8058C22.7636 13.6442 29.6477 14.5667 29.7965 14.5667C29.9165 14.5667 31.8096 14.8211 32.3952 14.8998L32.5661 14.9229C32.5661 14.9229 33.3648 15.2214 33.2525 16.0768H33.2535Z" fill="#176CDF"/>
<path d="M14.3357 23.1712C15.7344 23.1712 16.8682 21.6411 16.8682 19.7536C16.8682 17.8661 15.7344 16.336 14.3357 16.336C12.9371 16.336 11.8032 17.8661 11.8032 19.7536C11.8032 21.6411 12.9371 23.1712 14.3357 23.1712Z" fill="#176CDF"/>
<path d="M32.401 14.9018C32.4029 15.0899 32.2954 15.2618 32.1264 15.3434C31.4554 15.7024 20.9511 17.3104 18.672 17.9795C16.393 18.6487 14.5594 18.4269 14.5594 18.4269L13.5763 18.1149L13.5581 17.9949C13.8106 16.9763 14.7283 15.5162 17.7927 14.8C22.7683 13.6384 29.6525 14.561 29.8013 14.561C29.9261 14.5677 31.8144 14.8231 32.4 14.9018H32.401Z" fill="url(#paint5_linear_45_83)"/>
<path d="M23.4096 15.7898C25.0304 15.7898 26.3443 15.436 26.3443 14.9997C26.3443 14.5633 25.0304 14.2096 23.4096 14.2096C21.7888 14.2096 20.4749 14.5633 20.4749 14.9997C20.4749 15.436 21.7888 15.7898 23.4096 15.7898Z" fill="url(#paint6_linear_45_83)"/>
<path d="M33.2534 16.0768C33.216 16.312 33.1344 16.5376 33.0144 16.743C33.0144 16.743 25.8931 20.9737 21.72 21.7197C18 22.383 15.0864 22.5731 13.8643 20.1145L13.8538 19.8429C13.8538 19.8429 14.4806 19.7536 16.0896 20.2297C17.6986 20.7069 22.8826 19.9907 25.1482 19.1536C27.4138 18.3165 33.2429 16.0345 33.2429 16.0345L33.2534 16.0768Z" fill="url(#paint7_linear_45_83)"/>
<path d="M37.7472 22.1536L36.4608 22.7181C33.143 23.5706 26.5843 21.6554 23.327 20.5734C23.0054 20.4678 22.8307 20.1222 22.9363 19.8006C23.0016 19.601 23.1648 19.4493 23.3683 19.3984L23.4701 19.3725L30.695 17.5322L37.7712 20.9987C37.8259 21.0246 37.8768 21.0592 37.9219 21.1005C38.1811 21.3395 38.1974 21.7437 37.9584 22.0029C37.8989 22.0672 37.8269 22.119 37.7472 22.1536Z" fill="#176CDF"/>
<path d="M37.7472 22.1536L36.4608 22.7181C33.143 23.5706 26.5843 21.6554 23.327 20.5734C23.0054 20.4678 22.8307 20.1222 22.9363 19.8006C23.0016 19.601 23.1648 19.4493 23.3683 19.3984L23.4701 19.3725L30.695 17.5322L37.7712 20.9987C37.8259 21.0246 37.8768 21.0592 37.9219 21.1005C38.1811 21.3395 38.1974 21.7437 37.9584 22.0029C37.8989 22.0672 37.8269 22.119 37.7472 22.1536Z" fill="url(#paint8_linear_45_83)"/>
<path d="M37.926 21.0966L36.7778 21.5997C33.4648 22.4522 26.9013 20.537 23.6431 19.457C23.5836 19.4368 23.5269 19.408 23.4741 19.3725L30.6991 17.5322L37.7752 20.9987C37.83 21.0237 37.8808 21.0563 37.926 21.0957V21.0966Z" fill="#176CDF"/>
<path d="M37.926 21.0966L36.7778 21.5997C33.4648 22.4522 26.9013 20.537 23.6431 19.457C23.5836 19.4368 23.5269 19.408 23.4741 19.3725L30.6991 17.5322L37.7752 20.9987C37.83 21.0237 37.8808 21.0563 37.926 21.0957V21.0966Z" fill="url(#paint9_linear_45_83)"/>
<path d="M14.3012 24.088C16.0148 24.088 17.4039 22.2132 17.4039 19.9005C17.4039 17.5878 16.0148 15.713 14.3012 15.713C12.5876 15.713 11.1985 17.5878 11.1985 19.9005C11.1985 22.2132 12.5876 24.088 14.3012 24.088Z" fill="url(#paint10_linear_45_83)"/>
<path d="M14.3357 23.1712C15.7344 23.1712 16.8682 21.6411 16.8682 19.7536C16.8682 17.8661 15.7344 16.336 14.3357 16.336C12.9371 16.336 11.8032 17.8661 11.8032 19.7536C11.8032 21.6411 12.9371 23.1712 14.3357 23.1712Z" fill="url(#paint11_linear_45_83)"/>
<path d="M13.536 22.143C14.5174 22.143 15.313 21.0694 15.313 19.7449C15.313 18.4205 14.5174 17.3469 13.536 17.3469C12.5546 17.3469 11.759 18.4205 11.759 19.7449C11.759 21.0694 12.5546 22.143 13.536 22.143Z" fill="url(#paint12_linear_45_83)"/>
<path d="M30.4878 14.657C30.4878 14.657 32.0967 11.7376 32.931 11.6781C33.7652 11.6186 32.9607 15.1639 32.9607 15.1639L30.4868 14.657H30.4878Z" fill="#176CDF"/>
<path d="M32.9598 15.1639L30.8478 14.7309L30.4888 14.657C30.4888 14.657 32.0968 11.7367 32.932 11.6781C33.0213 11.6695 33.1086 11.7117 33.1566 11.7866C33.5915 12.3799 32.9598 15.1639 32.9598 15.1639Z" fill="url(#paint13_linear_45_83)"/>
<path d="M33.3189 15.2416L30.845 14.7357L32.957 15.1686C32.957 15.1686 33.5896 12.3846 33.1528 11.7914C33.1951 11.775 33.2402 11.7645 33.2853 11.7606C34.1205 11.6963 33.3179 15.2416 33.3179 15.2416H33.3189Z" fill="url(#paint14_linear_45_83)"/>
<path d="M32.9597 15.1638L30.8477 14.7309C30.9168 14.6109 32.3174 12.1005 33.1565 11.7866C33.5933 12.3798 32.9606 15.1638 32.9606 15.1638H32.9597Z" fill="url(#paint15_linear_45_83)"/>
<path d="M32.0142 16.6163C32.0142 16.6163 33.579 17.1078 34.5178 16.9753C35.4567 16.8429 33.243 16.0307 33.243 16.0307L32.0142 16.6163Z" fill="#176CDF"/>
<path d="M34.7482 16.8573C34.7482 16.9101 34.6743 16.9504 34.5178 16.9773C33.579 17.1107 32.0142 16.6183 32.0142 16.6183L33.243 16.0298C33.3438 16.072 34.779 16.6029 34.7482 16.8573Z" fill="url(#paint16_linear_45_83)"/>
<path d="M34.7483 16.8573C33.8075 16.9773 32.2744 16.4982 32.2744 16.4982L33.2479 16.0384C33.3439 16.072 34.7791 16.6029 34.7483 16.8573Z" fill="url(#paint17_linear_45_83)"/>
<path d="M19.3413 14.5523C19.3413 14.5523 21.2123 13.1181 21.4571 13.0327C21.7019 12.9472 24.0645 15.7744 24.0645 15.7744C24.0645 15.7744 21.7778 16.6528 19.3413 14.5523Z" fill="#176CDF"/>
<path d="M23.2581 13.8573L22.8059 14.3632C22.779 14.3978 22.7445 14.4256 22.7051 14.4458C22.6753 14.4564 22.6437 14.4612 22.612 14.4612C22.5025 14.465 22.3921 14.4612 22.2837 14.4496C22.131 14.4247 21.9765 14.4093 21.8219 14.4026C21.7864 14.4007 21.7499 14.4064 21.7163 14.4208C21.6942 14.4333 21.6741 14.4487 21.6568 14.4679C21.556 14.5456 21.4945 14.6637 21.4897 14.7904C21.4993 14.8692 21.5358 14.9421 21.5915 14.9988C21.6673 15.0861 21.7643 15.1524 21.8728 15.1927C22.0197 15.2388 22.1723 15.2608 22.3259 15.258C22.4641 15.258 22.6043 15.2676 22.7435 15.2666C22.851 15.2714 22.9576 15.2522 23.0565 15.21C23.1342 15.1639 23.2043 15.1053 23.2619 15.0362C23.3637 14.9277 23.4654 14.8202 23.5595 14.705C23.6238 14.6349 23.6757 14.5543 23.7121 14.466C23.7448 14.3604 23.7563 14.249 23.7448 14.1396C23.7429 14.0407 23.7237 13.9418 23.6901 13.8487C23.6622 13.7853 23.5825 13.649 23.5009 13.6442C23.4193 13.6394 23.308 13.8007 23.2581 13.8573Z" fill="#176CDF"/>
<path d="M23.2581 13.8573L22.8059 14.3632C22.779 14.3978 22.7445 14.4256 22.7051 14.4458C22.6753 14.4564 22.6437 14.4612 22.612 14.4612C22.5025 14.465 22.3921 14.4612 22.2837 14.4496C22.131 14.4247 21.9765 14.4093 21.8219 14.4026C21.7864 14.4007 21.7499 14.4064 21.7163 14.4208C21.6942 14.4333 21.6741 14.4487 21.6568 14.4679C21.556 14.5456 21.4945 14.6637 21.4897 14.7904C21.4993 14.8692 21.5358 14.9421 21.5915 14.9988C21.6673 15.0861 21.7643 15.1524 21.8728 15.1927C22.0197 15.2388 22.1723 15.2608 22.3259 15.258C22.4641 15.258 22.6043 15.2676 22.7435 15.2666C22.851 15.2714 22.9576 15.2522 23.0565 15.21C23.1342 15.1639 23.2043 15.1053 23.2619 15.0362C23.3637 14.9277 23.4654 14.8202 23.5595 14.705C23.6238 14.6349 23.6757 14.5543 23.7121 14.466C23.7448 14.3604 23.7563 14.249 23.7448 14.1396C23.7429 14.0407 23.7237 13.9418 23.6901 13.8487C23.6622 13.7853 23.5825 13.649 23.5009 13.6442C23.4193 13.6394 23.308 13.8007 23.2581 13.8573Z" fill="url(#paint18_linear_45_83)"/>
<path d="M21.1298 14.9402C21.1903 14.9921 21.2652 15.0237 21.3439 15.0333C21.4236 15.041 21.5033 15.041 21.5829 15.0333C21.6108 15.0333 21.6386 15.0285 21.6645 15.018C21.6866 15.0055 21.7049 14.9863 21.7173 14.9642C21.7999 14.8279 21.7567 14.6513 21.6204 14.5687C21.5993 14.5562 21.5772 14.5457 21.5532 14.5389C21.5033 14.5265 21.4514 14.5226 21.4005 14.5255C21.3343 14.5265 21.269 14.5313 21.2037 14.5399C21.15 14.5418 21.0991 14.562 21.0588 14.5975C21.0194 14.658 21.005 14.7319 21.0165 14.8029C21.0233 14.8596 21.0933 14.9066 21.1298 14.9402Z" fill="#176CDF"/>
<path d="M21.1298 14.9402C21.1903 14.9921 21.2652 15.0237 21.3439 15.0333C21.4236 15.041 21.5033 15.041 21.5829 15.0333C21.6108 15.0333 21.6386 15.0285 21.6645 15.018C21.6866 15.0055 21.7049 14.9863 21.7173 14.9642C21.7999 14.8279 21.7567 14.6513 21.6204 14.5687C21.5993 14.5562 21.5772 14.5457 21.5532 14.5389C21.5033 14.5265 21.4514 14.5226 21.4005 14.5255C21.3343 14.5265 21.269 14.5313 21.2037 14.5399C21.15 14.5418 21.0991 14.562 21.0588 14.5975C21.0194 14.658 21.005 14.7319 21.0165 14.8029C21.0233 14.8596 21.0933 14.9066 21.1298 14.9402Z" fill="url(#paint19_linear_45_83)"/>
<path d="M25.4161 13.4781C25.636 13.5309 25.8385 13.6375 26.0545 13.7056C26.2667 13.7901 26.5048 13.7853 26.7131 13.6912C26.8081 13.6202 26.9108 13.5587 27.0184 13.5079C27.1758 13.4589 27.3438 13.528 27.4965 13.5808C27.8219 13.6893 28.202 13.7171 28.4852 13.5232C28.5601 13.4714 28.6321 13.3831 28.6052 13.2976C28.5784 13.2122 28.4939 13.1968 28.4449 13.1373C28.3508 13.025 28.4161 12.856 28.4161 12.7091C28.4161 12.6707 28.4065 12.6256 28.372 12.6112C28.3566 12.6074 28.3403 12.6074 28.324 12.6112C28.2088 12.6189 28.0984 12.665 28.012 12.7418C27.9112 12.833 27.8449 12.9616 27.7259 13.0279C27.5742 13.1123 27.386 13.0672 27.218 13.0279C26.979 12.9712 26.7044 12.9357 26.4932 13.0682C26.4088 13.1421 26.3157 13.2035 26.2149 13.2525C26.0133 13.3139 25.8203 13.1411 25.6168 13.0883C25.3777 13.0269 25.1387 13.1306 24.914 13.2304C24.8036 13.2803 24.5771 13.5098 24.8219 13.528C24.9044 13.5347 25.0024 13.4714 25.0859 13.4599C25.1963 13.4464 25.3076 13.4522 25.4161 13.4781Z" fill="#176CDF"/>
<path d="M28.4882 13.5194C28.4143 13.5741 28.3307 13.6145 28.2415 13.6394C28.1685 13.6586 28.0946 13.6682 28.0187 13.6692C27.9208 13.6721 27.8239 13.6634 27.7279 13.6442C27.676 13.6346 27.6242 13.6221 27.5733 13.6068C27.5503 13.6068 27.5263 13.5933 27.5042 13.5857C27.4418 13.5655 27.3775 13.5415 27.3141 13.5233C27.2671 13.5098 27.2181 13.5012 27.1691 13.4973C27.1192 13.4925 27.0693 13.4973 27.0223 13.5127C26.9512 13.5386 26.8859 13.5761 26.8274 13.6241C26.7919 13.649 26.7554 13.6759 26.717 13.697L26.6959 13.7076C26.6133 13.7469 26.5221 13.7681 26.4309 13.769C26.3867 13.7729 26.3435 13.7729 26.2994 13.769C26.2178 13.7594 26.1381 13.7421 26.0603 13.7172L26.0315 13.7076C25.9874 13.6932 25.9442 13.6769 25.901 13.6596C25.7455 13.5924 25.5861 13.5348 25.4229 13.4887C25.3144 13.4618 25.2021 13.4541 25.0907 13.4676C25.0072 13.4781 24.9093 13.5425 24.8267 13.5357C24.5819 13.5175 24.8085 13.2881 24.9199 13.2381C25.1407 13.1373 25.3864 13.0346 25.6216 13.0961C25.6744 13.1114 25.7263 13.1306 25.7771 13.1537C25.8482 13.1901 25.9211 13.2218 25.996 13.2477C26.0603 13.2717 26.1295 13.2785 26.1967 13.266H26.2207C26.2879 13.241 26.3503 13.2026 26.404 13.1546C26.4347 13.1287 26.4664 13.1037 26.5 13.0817C26.5259 13.0663 26.5519 13.0529 26.5787 13.0413C26.6594 13.0087 26.7448 12.9924 26.8312 12.9914C26.9071 12.9895 26.9829 12.9953 27.0587 13.0077C27.1154 13.0173 27.1701 13.0279 27.2239 13.0413L27.2853 13.0557C27.3477 13.0701 27.4111 13.0797 27.4754 13.0855C27.5416 13.0932 27.6088 13.0865 27.6722 13.0673C27.6933 13.0596 27.7135 13.0509 27.7336 13.0394C27.7855 13.0077 27.8306 12.9674 27.869 12.9194C27.916 12.8609 27.9659 12.8052 28.0197 12.7524C28.0523 12.7236 28.0879 12.6986 28.1263 12.6785C28.1906 12.6449 28.2607 12.6257 28.3327 12.6199C28.348 12.6189 28.3643 12.6199 28.3797 12.6257C28.4123 12.6468 28.4287 12.6852 28.4239 12.7236C28.4239 12.8705 28.3586 13.0394 28.4527 13.1517C28.5007 13.2103 28.5861 13.241 28.613 13.3121C28.6399 13.3831 28.565 13.4724 28.4901 13.5204L28.4882 13.5194Z" fill="url(#paint20_linear_45_83)"/>
<path d="M24.3237 13.4416C24.4744 13.433 24.6251 13.4474 24.771 13.4848C24.9179 13.5232 25.0504 13.6068 25.1474 13.7239C25.2482 13.8583 25.3048 14.0205 25.3096 14.1876C25.3134 14.3546 25.3038 14.5207 25.2808 14.6858C25.2424 15.0746 25.2318 15.4653 25.2501 15.8551C25.2501 15.9482 25.3086 16.4359 25.2434 16.5021C25.2011 16.5444 25.2837 16.5866 25.2251 16.6C24.747 16.72 23.8984 16.6586 23.4482 16.4676C23.3291 16.4282 23.2283 16.3476 23.1621 16.242C23.1006 16.122 23.2658 15.6439 23.2821 15.5152C23.3416 15.1092 23.3858 14.7002 23.4126 14.2912C23.4107 14.105 23.4222 13.9197 23.4472 13.7354C23.475 13.6068 23.5586 13.5703 23.6776 13.5396C23.8888 13.4829 24.1048 13.4503 24.3227 13.4426L24.3237 13.4416Z" fill="#176CDF"/>
<path d="M24.7134 15.5661C24.7048 15.6496 24.6721 15.7293 24.6213 15.7965C24.5771 15.8416 24.5224 15.8743 24.4619 15.8935C24.1777 16.001 23.8542 15.9847 23.5835 16.1181C23.5653 16.1267 23.548 16.1383 23.5336 16.1517C23.4865 16.2112 23.4865 16.2967 23.5336 16.3562C23.6257 16.4916 23.8053 16.528 23.9675 16.553C24.3534 16.6307 24.7489 16.6471 25.1406 16.602C25.1617 16.601 25.1829 16.5923 25.1992 16.5789C25.2126 16.5635 25.2213 16.5444 25.2232 16.5242C25.3115 16.1335 25.2424 15.7264 25.2414 15.329C25.2414 15.0986 25.323 14.5168 25.3067 14.2864C25.3048 14.1549 25.2808 14.0244 25.2366 13.9005C25.2011 13.8093 25.0945 13.6077 25.0312 13.794C24.9198 14.202 24.8401 14.6186 24.7921 15.0381C24.7691 15.2128 24.748 15.3895 24.7144 15.5651L24.7134 15.5661Z" fill="url(#paint21_linear_45_83)"/>
<path d="M23.9599 13.7584C23.8927 13.7479 23.8543 13.6807 23.885 13.5194C23.885 13.5011 23.8936 13.4839 23.8984 13.4656C23.9032 13.4474 23.8984 13.4656 23.8984 13.456C23.9052 13.4311 23.9138 13.4061 23.9224 13.3811C23.9455 13.3207 23.958 13.2573 23.958 13.192C23.9512 13.1459 23.956 13.0979 23.9695 13.0538C23.9858 13.0173 24.0117 12.9856 24.0444 12.9626C24.1173 12.9059 24.3285 12.8013 24.3708 12.9395C24.389 12.9991 24.438 12.9914 24.436 13.0519C24.4322 13.1392 24.4476 13.2266 24.4831 13.3063C24.5282 13.3927 24.124 13.7843 23.9599 13.7584Z" fill="#FFB4A3"/>
<path d="M23.9119 13.4263C23.9119 13.4263 24.2872 13.2842 24.3602 13.0576L23.9599 13.1882C23.9599 13.1882 23.9503 13.3994 23.9119 13.4263Z" fill="url(#paint22_linear_45_83)"/>
<path d="M23.5797 13.2343C23.5451 13.3015 23.5346 13.3783 23.549 13.4532C23.5154 13.4349 23.4731 13.4455 23.452 13.4781C23.4347 13.5108 23.4261 13.5482 23.428 13.5857C23.428 13.6865 23.428 13.8055 23.5173 13.8573C23.5518 13.8746 23.5902 13.8842 23.6296 13.8861C23.8696 13.9063 24.1115 13.8775 24.34 13.8017C24.3861 13.7882 24.4293 13.7681 24.4686 13.7402C24.5262 13.697 24.5675 13.6298 24.6376 13.6202C24.6722 13.6116 24.7096 13.6202 24.7451 13.6097C24.8171 13.5866 24.8555 13.5089 24.8325 13.4378C24.8277 13.4225 24.82 13.4081 24.8094 13.3956C24.7902 13.3802 24.7739 13.362 24.7595 13.3418C24.7499 13.3159 24.7442 13.2881 24.7413 13.2602C24.7211 13.2017 24.6693 13.1594 24.6078 13.1517C24.4408 13.122 24.268 13.2458 24.1029 13.2717C23.9272 13.2765 23.7525 13.2641 23.5797 13.2343Z" fill="#176CDF"/>
<path d="M24.744 13.6039C24.7094 13.6125 24.672 13.6039 24.6374 13.6144C24.601 13.625 24.5674 13.6452 24.5405 13.673C24.5184 13.697 24.4944 13.7191 24.4685 13.7402C24.4531 13.7508 24.4378 13.7604 24.4205 13.768C24.3936 13.7815 24.3667 13.793 24.3379 13.8016C24.2717 13.8247 24.2045 13.8429 24.1363 13.8554C24.0864 13.8669 24.0365 13.8746 23.9856 13.8804C23.903 13.89 23.8195 13.8938 23.737 13.8909H23.6304L23.5786 13.8794C23.5546 13.8756 23.5325 13.8679 23.5114 13.8564C23.425 13.8045 23.4173 13.6845 23.4202 13.5847C23.4192 13.5472 23.4278 13.5098 23.4461 13.4772C23.4662 13.4445 23.5085 13.433 23.5421 13.4522C23.5277 13.3783 23.5382 13.3015 23.5728 13.2343C23.6266 13.2496 23.6822 13.2573 23.7379 13.2554H23.8358C23.9136 13.2554 23.9904 13.2612 24.0413 13.2612C24.0595 13.2621 24.0778 13.2621 24.096 13.2612L24.1344 13.2544C24.193 13.2381 24.2515 13.2189 24.3082 13.1959C24.337 13.1844 24.3648 13.1748 24.3926 13.1652C24.4589 13.1402 24.5309 13.1316 24.601 13.1412C24.6624 13.1488 24.7152 13.1911 24.7344 13.2496C24.7373 13.2775 24.743 13.3044 24.7526 13.3312C24.768 13.3514 24.7853 13.3696 24.8045 13.385C24.8534 13.4436 24.8458 13.53 24.7872 13.5789C24.7738 13.5904 24.7584 13.5981 24.7421 13.6039H24.744Z" fill="url(#paint23_linear_45_83)"/>
<path d="M23.7938 13.4186C23.8024 13.4541 23.7995 13.4916 23.7851 13.5252C23.7611 13.5597 23.7074 13.5674 23.6939 13.6048C23.692 13.6164 23.692 13.6269 23.6939 13.6384C23.7007 13.7229 23.7323 13.8055 23.7391 13.8909H23.6325L23.5787 13.8794C23.5509 13.7911 23.5423 13.697 23.5538 13.6048C23.5547 13.5645 23.5739 13.5261 23.6056 13.5012C23.62 13.4916 23.6363 13.4868 23.6507 13.4772C23.6747 13.4589 23.692 13.432 23.6987 13.4023C23.7093 13.3533 23.7256 13.3063 23.7487 13.2612H23.8466C23.8101 13.3063 23.7909 13.362 23.7928 13.4205L23.7938 13.4186Z" fill="url(#paint24_linear_45_83)"/>
<path d="M24.0577 13.6048C24.0548 13.6154 24.0548 13.6269 24.0577 13.6384C24.074 13.7133 24.1124 13.7814 24.1354 13.8544C24.0855 13.8659 24.0356 13.8736 23.9847 13.8794C23.9463 13.7997 23.9261 13.7133 23.9233 13.6259C23.9175 13.5856 23.93 13.5453 23.9569 13.5146C23.9684 13.503 23.9857 13.4963 23.9972 13.4838C24.0154 13.4598 24.025 13.431 24.0231 13.4013C24.026 13.3562 24.0337 13.312 24.0471 13.2688C24.0653 13.2698 24.0836 13.2698 24.1018 13.2688L24.1402 13.2621C24.1201 13.3072 24.1143 13.3581 24.1249 13.407C24.1316 13.4426 24.1489 13.4819 24.1316 13.5146C24.1143 13.5472 24.0625 13.5645 24.0567 13.6058L24.0577 13.6048Z" fill="url(#paint25_linear_45_83)"/>
<path d="M24.5359 13.673C24.5138 13.697 24.4898 13.7191 24.4639 13.7402C24.4485 13.7508 24.4332 13.7604 24.4159 13.768C24.3631 13.7104 24.3228 13.6432 24.2959 13.5693C24.2777 13.5319 24.2777 13.4877 24.2959 13.4493C24.3045 13.4349 24.3189 13.4234 24.3257 13.4071C24.3362 13.3792 24.3362 13.3476 24.3257 13.3197C24.3161 13.2804 24.3103 13.24 24.3074 13.1997C24.3362 13.1882 24.3641 13.1786 24.3919 13.169C24.39 13.2132 24.4005 13.2573 24.4226 13.2957C24.4409 13.3284 24.4668 13.3591 24.462 13.3946C24.4572 13.4301 24.413 13.4666 24.4188 13.5069C24.4207 13.5184 24.4245 13.529 24.4303 13.5376C24.461 13.5847 24.4956 13.6288 24.533 13.6711L24.5359 13.673Z" fill="url(#paint26_linear_45_83)"/>
<path d="M23.3933 11.753L23.4509 12.8004C23.4624 13.0231 23.6458 13.1978 23.8685 13.1997C24.338 13.1997 24.482 12.93 24.554 12.7216C24.626 12.5133 24.6903 11.9018 24.554 11.7328C24.4176 11.5639 23.6525 11.1482 23.3943 11.753H23.3933Z" fill="#FFB4A3"/>
<path d="M24.1145 12.3962L24.2671 12.3818V12.0986L24.0847 12.1053L24.1145 12.3962Z" fill="#176CDF"/>
<path d="M24.1145 12.3962L24.2671 12.3818V12.0986L24.0847 12.1053L24.1145 12.3962Z" fill="url(#paint27_linear_45_83)"/>
<path d="M24.3726 12.9434C24.3918 13.0125 24.4119 13.0816 24.434 13.1517C24.4417 13.1901 24.4638 13.2247 24.4954 13.2487C24.5377 13.2746 24.5962 13.2592 24.6375 13.2842C24.6615 13.2996 24.6769 13.3274 24.7028 13.3408C24.7354 13.3514 24.77 13.3562 24.8046 13.3543C24.8535 13.3543 24.8958 13.3898 24.9428 13.3984C25.0398 13.4032 25.1271 13.3399 25.153 13.2458C25.1751 13.1536 25.1751 13.0576 25.153 12.9645L25.1425 12.8916C25.1406 12.8733 25.1348 12.8551 25.1242 12.8388C25.1137 12.8272 25.1012 12.8186 25.0868 12.8109C24.817 12.6554 24.7182 12.306 24.4714 12.1178C24.4321 12.088 24.3121 12.0218 24.265 12.0756C24.218 12.1293 24.265 12.2935 24.265 12.352C24.2842 12.5517 24.3198 12.7504 24.3726 12.9434Z" fill="#176CDF"/>
<path d="M24.3726 12.9434C24.3918 13.0125 24.4119 13.0816 24.434 13.1517C24.4417 13.1901 24.4638 13.2247 24.4954 13.2487C24.5377 13.2746 24.5962 13.2592 24.6375 13.2842C24.6615 13.2996 24.6769 13.3274 24.7028 13.3408C24.7354 13.3514 24.77 13.3562 24.8046 13.3543C24.8535 13.3543 24.8958 13.3898 24.9428 13.3984C25.0398 13.4032 25.1271 13.3399 25.153 13.2458C25.1751 13.1536 25.1751 13.0576 25.153 12.9645L25.1425 12.8916C25.1406 12.8733 25.1348 12.8551 25.1242 12.8388C25.1137 12.8272 25.1012 12.8186 25.0868 12.8109C24.817 12.6554 24.7182 12.306 24.4714 12.1178C24.4321 12.088 24.3121 12.0218 24.265 12.0756C24.218 12.1293 24.265 12.2935 24.265 12.352C24.2842 12.5517 24.3198 12.7504 24.3726 12.9434Z" fill="url(#paint28_linear_45_83)"/>
<path d="M24.5637 12.3386C24.5723 12.3203 24.5838 12.3031 24.5982 12.2887C24.6299 12.2647 24.6683 12.2503 24.7086 12.2483C24.7259 12.2426 24.7451 12.2426 24.7624 12.2483C24.7749 12.2551 24.7845 12.2656 24.7912 12.2781C24.8046 12.3203 24.7998 12.3674 24.7777 12.4058C24.7624 12.4403 24.7432 12.4739 24.7211 12.5047C24.7029 12.5354 24.6789 12.5603 24.6491 12.5795C24.6203 12.5997 24.5838 12.6064 24.5502 12.5978C24.5464 12.5987 24.5425 12.5987 24.5387 12.5978C24.5358 12.5939 24.5339 12.5882 24.5329 12.5834C24.5272 12.5411 24.5243 12.4989 24.5262 12.4567C24.5301 12.4144 24.5425 12.3741 24.5646 12.3386H24.5637Z" fill="#FFB4A3"/>
<path d="M28.2424 13.6394C28.1694 13.6586 28.0955 13.6682 28.0196 13.6691C28.0196 13.6653 28.0196 13.6624 28.0196 13.6586C27.988 13.5799 27.9745 13.4954 27.9812 13.4109C27.988 13.3274 27.9841 13.2429 27.9678 13.1594C27.9467 13.0749 27.8958 12.9991 27.8708 12.9203C27.9179 12.8618 27.9678 12.8061 28.0216 12.7533C28.0542 12.7245 28.0897 12.6995 28.1281 12.6794C28.1195 12.6967 28.1128 12.7139 28.107 12.7322C28.0734 12.8282 28.0686 12.9309 28.0916 13.0298C28.108 13.0826 28.1204 13.1354 28.1291 13.1901C28.1348 13.265 28.1089 13.3408 28.1128 13.4176C28.1166 13.4954 28.1521 13.5674 28.2107 13.6183C28.2107 13.6144 28.2251 13.624 28.2433 13.6394H28.2424Z" fill="url(#paint29_linear_45_83)"/>
<path d="M27.7231 13.6394C27.6713 13.6298 27.6194 13.6173 27.5685 13.602V13.5405C27.5753 13.4561 27.5714 13.3716 27.5551 13.2881C27.5349 13.2113 27.4917 13.1421 27.4658 13.0673C27.5321 13.0749 27.5993 13.0682 27.6626 13.049C27.6626 13.0826 27.6684 13.1153 27.6761 13.1479C27.6933 13.1997 27.7058 13.2525 27.7135 13.3073C27.7202 13.3821 27.6933 13.458 27.6972 13.5348C27.6991 13.5713 27.7077 13.6058 27.7231 13.6385V13.6394Z" fill="url(#paint30_linear_45_83)"/>
<path d="M27.3093 13.5194C27.2622 13.5059 27.2133 13.4973 27.1643 13.4935C27.1624 13.4704 27.1585 13.4464 27.1528 13.4243C27.1297 13.3399 27.0798 13.2631 27.0558 13.1853C27.0376 13.1239 27.0357 13.0595 27.0501 12.9971C27.1067 13.0067 27.1614 13.0173 27.2152 13.0307L27.2766 13.0451C27.2584 13.1239 27.2584 13.2055 27.2766 13.2842C27.2929 13.336 27.3054 13.3898 27.3141 13.4435C27.315 13.4695 27.3141 13.4944 27.3102 13.5203L27.3093 13.5194Z" fill="url(#paint31_linear_45_83)"/>
<path d="M26.8234 13.6192C26.7879 13.6442 26.7514 13.6711 26.713 13.6922L26.6919 13.7027V13.6864C26.6986 13.6029 26.6938 13.5184 26.6785 13.4349C26.6554 13.3504 26.6055 13.2736 26.5815 13.1882C26.5661 13.1344 26.5623 13.0787 26.5709 13.0231C26.6516 12.9904 26.737 12.9741 26.8234 12.9731L26.8148 12.9962C26.7831 13.0922 26.7773 13.1939 26.7994 13.2928C26.8157 13.3456 26.8292 13.3984 26.8378 13.4531C26.8378 13.5088 26.8321 13.5645 26.8234 13.6192Z" fill="url(#paint32_linear_45_83)"/>
<path d="M26.4241 13.7306C26.4241 13.7421 26.4241 13.7527 26.4241 13.7642C26.38 13.768 26.3368 13.768 26.2926 13.7642V13.7431C26.3003 13.6586 26.2955 13.5741 26.2792 13.4906C26.259 13.4109 26.212 13.3399 26.187 13.2611H26.211C26.2782 13.2362 26.3406 13.1978 26.3944 13.1498C26.3829 13.2189 26.3848 13.289 26.4001 13.3562C26.4174 13.408 26.4299 13.4608 26.4385 13.5155C26.4491 13.5789 26.4193 13.6538 26.4241 13.7306Z" fill="url(#paint33_linear_45_83)"/>
<path d="M26.0248 13.697C25.9807 13.6826 25.9375 13.6663 25.8943 13.649C25.8943 13.6087 25.8885 13.5683 25.8789 13.529C25.8578 13.4426 25.8069 13.3677 25.7829 13.2823C25.7695 13.2381 25.7656 13.192 25.7695 13.1459C25.8405 13.1824 25.9135 13.2141 25.9884 13.24C25.9845 13.289 25.9893 13.3379 26.0018 13.3859C26.0172 13.4387 26.0296 13.4925 26.0392 13.5463C26.0392 13.5962 26.0344 13.6461 26.0248 13.696V13.697Z" fill="url(#paint34_linear_45_83)"/>
<path d="M24.5357 14.2538C24.4292 14.4554 24.3447 14.6819 24.1623 14.8192C24.0048 14.9248 23.8186 14.9786 23.6295 14.9738C23.4413 14.9795 23.2532 14.9584 23.065 14.9738C23.0084 14.9757 22.9527 14.9891 22.9028 15.0141C22.8365 15.0592 22.7885 15.1255 22.7655 15.2023C22.7165 15.305 22.7165 15.424 22.7655 15.5258C22.8432 15.6458 23.0045 15.6727 23.1552 15.6803C23.5143 15.6957 23.8743 15.6803 24.2314 15.6314C24.3898 15.6199 24.5424 15.5709 24.6788 15.4893C24.7575 15.4269 24.8266 15.3539 24.8842 15.2714C25.0724 15.0323 25.25 14.7635 25.2941 14.4592C25.322 14.2653 25.2941 13.792 25.0637 13.7056C24.8621 13.6259 24.6116 14.1069 24.5367 14.2528L24.5357 14.2538Z" fill="#176CDF"/>
<path d="M24.5357 14.2538C24.4292 14.4554 24.3447 14.6819 24.1623 14.8192C24.0048 14.9248 23.8186 14.9786 23.6295 14.9738C23.4413 14.9795 23.2532 14.9584 23.065 14.9738C23.0084 14.9757 22.9527 14.9891 22.9028 15.0141C22.8365 15.0592 22.7885 15.1255 22.7655 15.2023C22.7165 15.305 22.7165 15.424 22.7655 15.5258C22.8432 15.6458 23.0045 15.6727 23.1552 15.6803C23.5143 15.6957 23.8743 15.6803 24.2314 15.6314C24.3898 15.6199 24.5424 15.5709 24.6788 15.4893C24.7575 15.4269 24.8266 15.3539 24.8842 15.2714C25.0724 15.0323 25.25 14.7635 25.2941 14.4592C25.322 14.2653 25.2941 13.792 25.0637 13.7056C24.8621 13.6259 24.6116 14.1069 24.5367 14.2528L24.5357 14.2538Z" fill="url(#paint35_linear_45_83)"/>
<path d="M21.2747 16.6807C20.6872 16.7075 20.1889 16.2525 20.163 15.664C20.1361 15.0765 20.5912 14.5783 21.1796 14.5523C21.7672 14.5255 22.2654 14.9805 22.2913 15.569C22.2913 15.5853 22.2923 15.6007 22.2923 15.617C22.3048 16.1911 21.8497 16.6672 21.2747 16.6807ZM21.2747 14.7683C20.8052 14.7472 20.4088 15.1101 20.3876 15.5795C20.3665 16.049 20.7294 16.4455 21.1988 16.4666C21.6683 16.4877 22.0648 16.1248 22.0859 15.6554C22.0859 15.6429 22.0859 15.6295 22.0859 15.617C22.0926 15.16 21.7307 14.7818 21.2737 14.7683H21.2747Z" fill="#176CDF"/>
<path d="M21.2747 16.6807C20.6872 16.7075 20.1889 16.2525 20.163 15.664C20.1361 15.0765 20.5912 14.5783 21.1796 14.5523C21.7672 14.5255 22.2654 14.9805 22.2913 15.569C22.2913 15.5853 22.2923 15.6007 22.2923 15.617C22.3048 16.1911 21.8497 16.6672 21.2747 16.6807ZM21.2747 14.7683C20.8052 14.7472 20.4088 15.1101 20.3876 15.5795C20.3665 16.049 20.7294 16.4455 21.1988 16.4666C21.6683 16.4877 22.0648 16.1248 22.0859 15.6554C22.0859 15.6429 22.0859 15.6295 22.0859 15.617C22.0926 15.16 21.7307 14.7818 21.2737 14.7683H21.2747Z" fill="url(#paint36_linear_45_83)"/>
<path d="M21.4274 14.3968C21.3631 14.3661 21.2921 14.3498 21.221 14.3498C21.1701 14.3508 21.1193 14.3565 21.0693 14.3661C20.9858 14.3796 20.9023 14.392 20.8197 14.4132C20.7353 14.4276 20.6565 14.4669 20.5941 14.5255C20.5461 14.5879 20.5135 14.6618 20.4981 14.7396C20.4876 14.7674 20.4847 14.7991 20.4924 14.8279C20.5001 14.8432 20.5097 14.8586 20.5212 14.8711L20.6191 14.9911C20.6287 15.0045 20.6412 15.016 20.6546 15.0256C20.6767 15.0362 20.7007 15.041 20.7247 15.041C20.765 15.0458 20.8053 15.0439 20.8447 15.0343C20.9225 15.0112 20.9781 14.9373 21.0578 14.9229C21.0914 14.922 21.125 14.9172 21.1567 14.9085C21.2018 14.8797 21.2277 14.8279 21.2249 14.7751C21.221 14.7232 21.2258 14.6714 21.2402 14.6205C21.2479 14.5975 21.2681 14.5802 21.293 14.5783C21.3967 14.5639 21.4975 14.6349 21.6031 14.6282C21.6377 14.6282 21.6665 14.5994 21.6665 14.5648C21.6665 14.5456 21.6569 14.5274 21.6415 14.5149C21.5743 14.4698 21.5023 14.4304 21.4284 14.3968H21.4274Z" fill="#176CDF"/>
<path d="M21.4274 14.3968C21.3631 14.3661 21.2921 14.3498 21.221 14.3498C21.1701 14.3508 21.1193 14.3565 21.0693 14.3661C20.9858 14.3796 20.9023 14.392 20.8197 14.4132C20.7353 14.4276 20.6565 14.4669 20.5941 14.5255C20.5461 14.5879 20.5135 14.6618 20.4981 14.7396C20.4876 14.7674 20.4847 14.7991 20.4924 14.8279C20.5001 14.8432 20.5097 14.8586 20.5212 14.8711L20.6191 14.9911C20.6287 15.0045 20.6412 15.016 20.6546 15.0256C20.6767 15.0362 20.7007 15.041 20.7247 15.041C20.765 15.0458 20.8053 15.0439 20.8447 15.0343C20.9225 15.0112 20.9781 14.9373 21.0578 14.9229C21.0914 14.922 21.125 14.9172 21.1567 14.9085C21.2018 14.8797 21.2277 14.8279 21.2249 14.7751C21.221 14.7232 21.2258 14.6714 21.2402 14.6205C21.2479 14.5975 21.2681 14.5802 21.293 14.5783C21.3967 14.5639 21.4975 14.6349 21.6031 14.6282C21.6377 14.6282 21.6665 14.5994 21.6665 14.5648C21.6665 14.5456 21.6569 14.5274 21.6415 14.5149C21.5743 14.4698 21.5023 14.4304 21.4284 14.3968H21.4274Z" fill="url(#paint37_linear_45_83)"/>
<path d="M22.5303 15.0323C22.37 14.9949 22.2433 14.8567 22.0801 14.8403C22.0494 14.8403 22.011 14.8403 21.9985 14.8701C21.9927 14.8874 21.9927 14.9056 21.9985 14.9229C22.0091 14.9632 22.0215 15.0035 22.0369 15.0429C21.9879 15.0458 21.9399 15.0563 21.8939 15.0727C21.8468 15.0899 21.8094 15.1264 21.7911 15.1735C21.7662 15.2455 21.8065 15.3203 21.8247 15.3943C21.8497 15.4951 21.8363 15.6093 21.8996 15.6909C21.9726 15.7629 22.0743 15.7965 22.1761 15.7831C22.3988 15.7792 22.6129 15.6986 22.7819 15.5536C22.8059 15.5335 22.826 15.5104 22.8414 15.4835C22.8798 15.3664 22.874 15.2387 22.8251 15.1245C22.7732 15.0314 22.6244 15.0563 22.5313 15.0333L22.5303 15.0323Z" fill="#176CDF"/>
<path d="M22.5303 15.0323C22.37 14.9949 22.2433 14.8567 22.0801 14.8403C22.0494 14.8403 22.011 14.8403 21.9985 14.8701C21.9927 14.8874 21.9927 14.9056 21.9985 14.9229C22.0091 14.9632 22.0215 15.0035 22.0369 15.0429C21.9879 15.0458 21.9399 15.0563 21.8939 15.0727C21.8468 15.0899 21.8094 15.1264 21.7911 15.1735C21.7662 15.2455 21.8065 15.3203 21.8247 15.3943C21.8497 15.4951 21.8363 15.6093 21.8996 15.6909C21.9726 15.7629 22.0743 15.7965 22.1761 15.7831C22.3988 15.7792 22.6129 15.6986 22.7819 15.5536C22.8059 15.5335 22.826 15.5104 22.8414 15.4835C22.8798 15.3664 22.874 15.2387 22.8251 15.1245C22.7732 15.0314 22.6244 15.0563 22.5313 15.0333L22.5303 15.0323Z" fill="url(#paint38_linear_45_83)"/>
<path d="M22.7014 15.0487C22.6889 15.0487 22.6764 15.0535 22.6668 15.0621C22.6601 15.0698 22.6562 15.0794 22.6553 15.09C22.6553 15.1408 22.6658 15.1917 22.685 15.2397C22.6908 15.2666 22.6937 15.2944 22.6956 15.3223C22.6994 15.3511 22.6994 15.3808 22.6956 15.4096C22.6956 15.4356 22.6812 15.4615 22.6793 15.4884C22.6774 15.5143 22.6802 15.5412 22.6879 15.5661C22.687 15.618 22.7273 15.6602 22.7782 15.6621C22.7839 15.6621 22.7906 15.6621 22.7964 15.6612C22.8175 15.6612 22.8386 15.6554 22.8578 15.6458C22.8694 15.6372 22.879 15.6266 22.8866 15.6132C22.9001 15.5834 22.9068 15.5517 22.9058 15.5191C22.9106 15.3962 22.9049 15.2733 22.8866 15.1524C22.8866 15.1178 22.8751 15.0708 22.8386 15.0564C22.7945 15.0429 22.7474 15.04 22.7023 15.0506L22.7014 15.0487Z" fill="#176CDF"/>
<path d="M22.7014 15.0487C22.6889 15.0487 22.6764 15.0535 22.6668 15.0621C22.6601 15.0698 22.6562 15.0794 22.6553 15.09C22.6553 15.1408 22.6658 15.1917 22.685 15.2397C22.6908 15.2666 22.6937 15.2944 22.6956 15.3223C22.6994 15.3511 22.6994 15.3808 22.6956 15.4096C22.6956 15.4356 22.6812 15.4615 22.6793 15.4884C22.6774 15.5143 22.6802 15.5412 22.6879 15.5661C22.687 15.618 22.7273 15.6602 22.7782 15.6621C22.7839 15.6621 22.7906 15.6621 22.7964 15.6612C22.8175 15.6612 22.8386 15.6554 22.8578 15.6458C22.8694 15.6372 22.879 15.6266 22.8866 15.6132C22.9001 15.5834 22.9068 15.5517 22.9058 15.5191C22.9106 15.3962 22.9049 15.2733 22.8866 15.1524C22.8866 15.1178 22.8751 15.0708 22.8386 15.0564C22.7945 15.0429 22.7474 15.04 22.7023 15.0506L22.7014 15.0487Z" fill="url(#paint39_linear_45_83)"/>
<path d="M19.3499 14.5523C19.3499 14.5523 21.2199 13.1181 21.4647 13.0327C21.7095 12.9472 24.0721 15.7744 24.0721 15.7744C24.0721 15.7744 21.7863 16.6528 19.3499 14.5523Z" fill="url(#paint40_linear_45_83)"/>
<path d="M22.2922 13.7776L19.968 15.0141C19.968 15.0141 20.7725 15.5209 20.9511 15.5661L23.1571 14.6857L22.2931 13.7776H22.2922Z" fill="url(#paint41_linear_45_83)"/>
<path d="M23.8723 11.9651C24.0336 11.9709 24.2313 11.9978 24.2957 12.1418C24.3197 12.2042 24.3302 12.2704 24.3283 12.3367C24.3273 12.5306 24.384 12.7197 24.4925 12.881C24.5664 12.9799 24.6739 13.048 24.7949 13.072C24.8505 13.0826 24.9082 13.0826 24.9638 13.072C25.0195 13.0739 25.0742 13.0547 25.1165 13.0183C25.1568 12.976 25.1712 12.9165 25.1549 12.8608C25.127 12.7735 25.0349 12.7283 24.9801 12.6515C24.9341 12.5517 24.9197 12.4403 24.9379 12.3319C24.9379 12.2119 24.9091 12.0823 24.9168 11.9603C24.9216 11.8595 24.9091 11.7578 24.8793 11.6618C24.8217 11.4679 24.7008 11.2999 24.5347 11.1837C24.2563 10.9898 23.6688 10.912 23.4365 11.2279C23.3529 11.3776 23.3078 11.5447 23.304 11.7155C23.2886 11.8615 23.2896 11.9287 23.4413 11.9546C23.5853 11.9661 23.7293 11.9699 23.8733 11.9651H23.8723Z" fill="#176CDF"/>
<path d="M23.8723 11.9651C24.0336 11.9709 24.2313 11.9978 24.2957 12.1418C24.3197 12.2042 24.3302 12.2704 24.3283 12.3367C24.3273 12.5306 24.384 12.7197 24.4925 12.881C24.5664 12.9799 24.6739 13.048 24.7949 13.072C24.8505 13.0826 24.9082 13.0826 24.9638 13.072C25.0195 13.0739 25.0742 13.0547 25.1165 13.0183C25.1568 12.976 25.1712 12.9165 25.1549 12.8608C25.127 12.7735 25.0349 12.7283 24.9801 12.6515C24.9341 12.5517 24.9197 12.4403 24.9379 12.3319C24.9379 12.2119 24.9091 12.0823 24.9168 11.9603C24.9216 11.8595 24.9091 11.7578 24.8793 11.6618C24.8217 11.4679 24.7008 11.2999 24.5347 11.1837C24.2563 10.9898 23.6688 10.912 23.4365 11.2279C23.3529 11.3776 23.3078 11.5447 23.304 11.7155C23.2886 11.8615 23.2896 11.9287 23.4413 11.9546C23.5853 11.9661 23.7293 11.9699 23.8733 11.9651H23.8723Z" fill="url(#paint42_linear_45_83)"/>
<path d="M23.4481 11.3949C23.3281 11.3949 23.1908 11.4112 23.1284 11.5149C23.0871 11.6023 23.0929 11.705 23.1438 11.7876C23.161 11.8288 23.1889 11.8653 23.2254 11.8912C23.2791 11.92 23.3415 11.9316 23.402 11.9239C23.6545 11.9124 23.907 11.9335 24.1537 11.9872C24.289 12.0208 24.4177 12.0698 24.553 12.1072C24.6865 12.1466 24.8286 12.1533 24.9658 12.1264C25.0206 12.1207 25.0609 12.0717 25.0561 12.016C25.0561 12.0132 25.0561 12.0093 25.0551 12.0064C25.057 11.9296 25.0455 11.8519 25.0206 11.7789C25.01 11.7396 24.9898 11.704 24.963 11.6733C24.9274 11.6388 24.8842 11.6128 24.8362 11.5994C24.7374 11.5639 24.6346 11.537 24.531 11.5178C24.1441 11.4391 23.7505 11.3949 23.3559 11.3853" fill="#176CDF"/>
<path d="M23.4481 11.3949C23.3281 11.3949 23.1908 11.4112 23.1284 11.5149C23.0871 11.6023 23.0929 11.705 23.1438 11.7876C23.161 11.8288 23.1889 11.8653 23.2254 11.8912C23.2791 11.92 23.3415 11.9316 23.402 11.9239C23.6545 11.9124 23.907 11.9335 24.1537 11.9872C24.289 12.0208 24.4177 12.0698 24.553 12.1072C24.6865 12.1466 24.8286 12.1533 24.9658 12.1264C25.0206 12.1207 25.0609 12.0717 25.0561 12.016C25.0561 12.0132 25.0561 12.0093 25.0551 12.0064C25.057 11.9296 25.0455 11.8519 25.0206 11.7789C25.01 11.7396 24.9898 11.704 24.963 11.6733C24.9274 11.6388 24.8842 11.6128 24.8362 11.5994C24.7374 11.5639 24.6346 11.537 24.531 11.5178C24.1441 11.4391 23.7505 11.3949 23.3559 11.3853" fill="url(#paint43_linear_45_83)"/>
<path d="M24.3064 12.1677C24.3045 12.1571 24.3007 12.1475 24.2959 12.1379C24.2258 11.993 24.0338 11.968 23.8725 11.9613C23.7285 11.9651 23.5845 11.9603 23.4405 11.9459C23.2927 11.9219 23.1256 11.8682 23.14 11.7299C23.1516 11.7299 23.3244 11.7136 23.3359 11.7136H23.6479C23.8053 11.7021 23.9628 11.7338 24.1029 11.8058C24.1845 11.8576 24.2479 11.9354 24.2824 12.0256C24.3045 12.0698 24.3122 12.1197 24.3055 12.1687L24.3064 12.1677Z" fill="url(#paint44_linear_45_83)"/>
<path d="M23.4154 12.0121H23.377C23.2683 12.0121 23.1802 12.1003 23.1802 12.2089V12.3021C23.1802 12.4108 23.2683 12.4989 23.377 12.4989H23.4154C23.5241 12.4989 23.6122 12.4108 23.6122 12.3021V12.2089C23.6122 12.1003 23.5241 12.0121 23.4154 12.0121Z" fill="#176CDF"/>
<path d="M23.9089 12.0227H23.8321C23.7091 12.0227 23.6094 12.1224 23.6094 12.2454V12.3126C23.6094 12.4356 23.7091 12.5353 23.8321 12.5353H23.9089C24.0319 12.5353 24.1316 12.4356 24.1316 12.3126V12.2454C24.1316 12.1224 24.0319 12.0227 23.9089 12.0227Z" fill="#176CDF"/>
<path d="M23.377 12.0121H23.3741C23.2744 12.0121 23.1936 12.0929 23.1936 12.1926V12.3184C23.1936 12.4181 23.2744 12.4989 23.3741 12.4989H23.377C23.4766 12.4989 23.5574 12.4181 23.5574 12.3184V12.1926C23.5574 12.0929 23.4766 12.0121 23.377 12.0121Z" fill="url(#paint45_linear_45_83)"/>
<path d="M23.7899 12.0227H23.7592C23.6462 12.0227 23.5547 12.1143 23.5547 12.2272V12.3309C23.5547 12.4438 23.6462 12.5353 23.7592 12.5353H23.7899C23.9028 12.5353 23.9944 12.4438 23.9944 12.3309V12.2272C23.9944 12.1143 23.9028 12.0227 23.7899 12.0227Z" fill="url(#paint46_linear_45_83)"/>
</g>
<defs>
<linearGradient id="paint0_linear_45_83" x1="18.4387" y1="37.6701" x2="17.7312" y2="26.7741" gradientUnits="userSpaceOnUse">
<stop offset="0.02" stop-color="white" stop-opacity="0"/>
<stop offset="0.39" stop-color="white" stop-opacity="0.39"/>
<stop offset="1" stop-color="white"/>
</linearGradient>
<linearGradient id="paint1_linear_45_83" x1="15.6721" y1="11.8509" x2="12.9236" y2="3.53729" gradientUnits="userSpaceOnUse">
<stop offset="0.02" stop-color="white" stop-opacity="0"/>
<stop offset="0.39" stop-color="white" stop-opacity="0.39"/>
<stop offset="1" stop-color="white"/>
</linearGradient>
<linearGradient id="paint2_linear_45_83" x1="23.8283" y1="12.0746" x2="23.6411" y2="13.9447" gradientUnits="userSpaceOnUse">
<stop/>
<stop offset="1" stop-opacity="0"/>
</linearGradient>
<linearGradient id="paint3_linear_45_83" x1="16.9212" y1="12.8147" x2="9.79989" y2="14.3046" gradientUnits="userSpaceOnUse">
<stop stop-color="#231F20" stop-opacity="0"/>
<stop offset="1" stop-color="#231F20"/>
</linearGradient>
<linearGradient id="paint4_linear_45_83" x1="18.9495" y1="17.1347" x2="15.2535" y2="9.05919" gradientUnits="userSpaceOnUse">
<stop stop-color="#231F20" stop-opacity="0"/>
<stop offset="1" stop-color="#231F20"/>
</linearGradient>
<linearGradient id="paint5_linear_45_83" x1="23.5651" y1="21.8023" x2="21.6883" y2="4.63746" gradientUnits="userSpaceOnUse">
<stop offset="0.02" stop-color="white" stop-opacity="0"/>
<stop offset="0.39" stop-color="white" stop-opacity="0.39"/>
<stop offset="1" stop-color="white"/>
</linearGradient>
<linearGradient id="paint6_linear_45_83" x1="24.4435" y1="13.5222" x2="22.3766" y2="16.4771" gradientUnits="userSpaceOnUse">
<stop stop-color="#231F20" stop-opacity="0"/>
<stop offset="1" stop-color="#231F20"/>
</linearGradient>
<linearGradient id="paint7_linear_45_83" x1="27.7181" y1="12.1696" x2="19.1837" y2="24.3673" gradientUnits="userSpaceOnUse">
<stop stop-color="#231F20" stop-opacity="0"/>
<stop offset="1" stop-color="#231F20"/>
</linearGradient>
<linearGradient id="paint8_linear_45_83" x1="22.9056" y1="20.2307" x2="38.1283" y2="20.2307" gradientUnits="userSpaceOnUse">
<stop stop-color="#231F20" stop-opacity="0"/>
<stop offset="1" stop-color="#231F20"/>
</linearGradient>
<linearGradient id="paint9_linear_45_83" x1="25.5525" y1="15.5469" x2="44.3263" y2="32.6435" gradientUnits="userSpaceOnUse">
<stop stop-color="#231F20" stop-opacity="0"/>
<stop offset="1" stop-color="#231F20"/>
</linearGradient>
<linearGradient id="paint10_linear_45_83" x1="10.0542" y1="17.1443" x2="18.8382" y2="22.8438" gradientUnits="userSpaceOnUse">
<stop offset="0.02" stop-color="white" stop-opacity="0"/>
<stop offset="0.39" stop-color="white" stop-opacity="0.39"/>
<stop offset="1" stop-color="white"/>
</linearGradient>
<linearGradient id="paint11_linear_45_83" x1="10.8701" y1="17.5043" x2="18.0384" y2="22.1546" gradientUnits="userSpaceOnUse">
<stop offset="0.02" stop-color="white" stop-opacity="0"/>
<stop offset="0.39" stop-color="white" stop-opacity="0.39"/>
<stop offset="1" stop-color="white"/>
</linearGradient>
<linearGradient id="paint12_linear_45_83" x1="11.1043" y1="18.1657" x2="16.1328" y2="21.4297" gradientUnits="userSpaceOnUse">
<stop offset="0.02" stop-color="white" stop-opacity="0"/>
<stop offset="0.39" stop-color="white" stop-opacity="0.39"/>
<stop offset="1" stop-color="white"/>
</linearGradient>
<linearGradient id="paint13_linear_45_83" x1="30.4129" y1="12.8772" x2="35.7333" y2="14.0397" gradientUnits="userSpaceOnUse">
<stop stop-color="#231F20" stop-opacity="0"/>
<stop offset="1" stop-color="#231F20"/>
</linearGradient>
<linearGradient id="paint14_linear_45_83" x1="31.2117" y1="13.0547" x2="33.6779" y2="13.5933" gradientUnits="userSpaceOnUse">
<stop stop-color="#231F20" stop-opacity="0"/>
<stop offset="1" stop-color="#231F20"/>
</linearGradient>
<linearGradient id="paint15_linear_45_83" x1="30.8304" y1="13.0019" x2="35.3741" y2="13.9955" gradientUnits="userSpaceOnUse">
<stop stop-color="#231F20" stop-opacity="0"/>
<stop offset="1" stop-color="#231F20"/>
</linearGradient>
<linearGradient id="paint16_linear_45_83" x1="34.6676" y1="14.9066" x2="32.4481" y2="18.0813" gradientUnits="userSpaceOnUse">
<stop stop-color="#231F20" stop-opacity="0"/>
<stop offset="1" stop-color="#231F20"/>
</linearGradient>
<linearGradient id="paint17_linear_45_83" x1="34.5775" y1="15.1533" x2="32.7381" y2="17.7837" gradientUnits="userSpaceOnUse">
<stop stop-color="#231F20" stop-opacity="0"/>
<stop offset="1" stop-color="#231F20"/>
</linearGradient>
<linearGradient id="paint18_linear_45_83" x1="22.9921" y1="15.5872" x2="22.6571" y2="14.538" gradientUnits="userSpaceOnUse">
<stop/>
<stop offset="1" stop-opacity="0"/>
</linearGradient>
<linearGradient id="paint19_linear_45_83" x1="21.0127" y1="14.7809" x2="21.7586" y2="14.7809" gradientUnits="userSpaceOnUse">
<stop/>
<stop offset="1" stop-opacity="0"/>
</linearGradient>
<linearGradient id="paint20_linear_45_83" x1="25.3912" y1="13.1949" x2="29.2898" y2="13.1949" gradientUnits="userSpaceOnUse">
<stop/>
<stop offset="1" stop-opacity="0"/>
</linearGradient>
<linearGradient id="paint21_linear_45_83" x1="28.226" y1="18.6487" x2="23.3156" y2="14.1108" gradientUnits="userSpaceOnUse">
<stop/>
<stop offset="1" stop-opacity="0"/>
</linearGradient>
<linearGradient id="paint22_linear_45_83" x1="24.2085" y1="12.6707" x2="24.0904" y2="13.6029" gradientUnits="userSpaceOnUse">
<stop/>
<stop offset="1" stop-opacity="0"/>
</linearGradient>
<linearGradient id="paint23_linear_45_83" x1="24.095" y1="12.7888" x2="24.1747" y2="14.5428" gradientUnits="userSpaceOnUse">
<stop/>
<stop offset="1" stop-opacity="0"/>
</linearGradient>
<linearGradient id="paint24_linear_45_83" x1="23.5547" y1="13.5741" x2="23.8427" y2="13.5741" gradientUnits="userSpaceOnUse">
<stop/>
<stop offset="1" stop-opacity="0"/>
</linearGradient>
<linearGradient id="paint25_linear_45_83" x1="23.9242" y1="13.5702" x2="24.1412" y2="13.5702" gradientUnits="userSpaceOnUse">
<stop/>
<stop offset="1" stop-opacity="0"/>
</linearGradient>
<linearGradient id="paint26_linear_45_83" x1="24.7865" y1="13.6672" x2="23.982" y2="13.2468" gradientUnits="userSpaceOnUse">
<stop/>
<stop offset="1" stop-opacity="0"/>
</linearGradient>
<linearGradient id="paint27_linear_45_83" x1="24.1442" y1="11.8682" x2="24.271" y2="12.904" gradientUnits="userSpaceOnUse">
<stop/>
<stop offset="1" stop-opacity="0"/>
</linearGradient>
<linearGradient id="paint28_linear_45_83" x1="24.0798" y1="12.9194" x2="25.3834" y2="12.473" gradientUnits="userSpaceOnUse">
<stop/>
<stop offset="1" stop-opacity="0"/>
</linearGradient>
<linearGradient id="paint29_linear_45_83" x1="27.5464" y1="13.3322" x2="28.2769" y2="13.1344" gradientUnits="userSpaceOnUse">
<stop/>
<stop offset="1" stop-opacity="0"/>
</linearGradient>
<linearGradient id="paint30_linear_45_83" x1="27.2882" y1="13.4359" x2="27.7557" y2="13.3092" gradientUnits="userSpaceOnUse">
<stop/>
<stop offset="1" stop-opacity="0"/>
</linearGradient>
<linearGradient id="paint31_linear_45_83" x1="26.8533" y1="13.3466" x2="27.3457" y2="13.2131" gradientUnits="userSpaceOnUse">
<stop/>
<stop offset="1" stop-opacity="0"/>
</linearGradient>
<linearGradient id="paint32_linear_45_83" x1="26.3041" y1="13.4493" x2="26.9338" y2="13.2784" gradientUnits="userSpaceOnUse">
<stop/>
<stop offset="1" stop-opacity="0"/>
</linearGradient>
<linearGradient id="paint33_linear_45_83" x1="25.9825" y1="13.5722" x2="26.499" y2="13.4311" gradientUnits="userSpaceOnUse">
<stop/>
<stop offset="1" stop-opacity="0"/>
</linearGradient>
<linearGradient id="paint34_linear_45_83" x1="25.6322" y1="13.4935" x2="26.0469" y2="13.3811" gradientUnits="userSpaceOnUse">
<stop/>
<stop offset="1" stop-opacity="0"/>
</linearGradient>
<linearGradient id="paint35_linear_45_83" x1="24.7949" y1="16.0298" x2="23.7668" y2="14.32" gradientUnits="userSpaceOnUse">
<stop/>
<stop offset="1" stop-opacity="0"/>
</linearGradient>
<linearGradient id="paint36_linear_45_83" x1="21.098" y1="15.9875" x2="21.6644" y2="14.4007" gradientUnits="userSpaceOnUse">
<stop/>
<stop offset="1" stop-opacity="0"/>
</linearGradient>
<linearGradient id="paint37_linear_45_83" x1="20.6124" y1="14.416" x2="21.581" y2="15.0573" gradientUnits="userSpaceOnUse">
<stop/>
<stop offset="1" stop-opacity="0"/>
</linearGradient>
<linearGradient id="paint38_linear_45_83" x1="21.7815" y1="15.3117" x2="22.8663" y2="15.3117" gradientUnits="userSpaceOnUse">
<stop/>
<stop offset="1" stop-opacity="0"/>
</linearGradient>
<linearGradient id="paint39_linear_45_83" x1="22.3721" y1="15.401" x2="23.0806" y2="15.3117" gradientUnits="userSpaceOnUse">
<stop/>
<stop offset="1" stop-opacity="0"/>
</linearGradient>
<linearGradient id="paint40_linear_45_83" x1="23.1083" y1="13.3975" x2="20.9627" y2="16.1085" gradientUnits="userSpaceOnUse">
<stop offset="0.02" stop-color="white" stop-opacity="0"/>
<stop offset="0.39" stop-color="white" stop-opacity="0.39"/>
<stop offset="1" stop-color="white"/>
</linearGradient>
<linearGradient id="paint41_linear_45_83" x1="21.0317" y1="13.0777" x2="21.7767" y2="15.5661" gradientUnits="userSpaceOnUse">
<stop offset="0.02" stop-color="white" stop-opacity="0"/>
<stop offset="0.39" stop-color="white" stop-opacity="0.39"/>
<stop offset="1" stop-color="white"/>
</linearGradient>
<linearGradient id="paint42_linear_45_83" x1="25.4649" y1="11.9507" x2="23.9894" y2="12.0842" gradientUnits="userSpaceOnUse">
<stop/>
<stop offset="1" stop-opacity="0"/>
</linearGradient>
<linearGradient id="paint43_linear_45_83" x1="24.0644" y1="12.3338" x2="24.0865" y2="11.5908" gradientUnits="userSpaceOnUse">
<stop/>
<stop offset="1" stop-opacity="0"/>
</linearGradient>
<linearGradient id="paint44_linear_45_83" x1="23.9464" y1="11.4247" x2="23.5932" y2="12.256" gradientUnits="userSpaceOnUse">
<stop/>
<stop offset="1" stop-opacity="0"/>
</linearGradient>
<linearGradient id="paint45_linear_45_83" x1="23.1254" y1="11.7712" x2="23.8483" y2="13.1728" gradientUnits="userSpaceOnUse">
<stop/>
<stop offset="1" stop-opacity="0"/>
</linearGradient>
<linearGradient id="paint46_linear_45_83" x1="23.4318" y1="11.6137" x2="24.1537" y2="13.0144" gradientUnits="userSpaceOnUse">
<stop/>
<stop offset="1" stop-opacity="0"/>
</linearGradient>
<clipPath id="clip0_45_83">
<rect width="48" height="39" fill="white"/>
</clipPath>
</defs>
</svg>
