<svg viewBox="0 0 42 40" fill="none" xmlns="http://www.w3.org/2000/svg">
<path opacity="0.95" d="M41.3651 29.8036C40.7 32.3143 39.4639 34.5968 37.4557 36.214C34.6305 38.4894 30.8321 39.0241 27.2338 39.4191C21.2443 40.0755 15.0437 40.5529 9.31719 38.6744C7.63004 38.1206 5.9929 37.3577 4.58877 36.2632C3.7737 35.626 3.04663 34.8832 2.42558 34.054C1.31048 32.5706 0.550408 30.8479 0.203377 29.0216C-0.320671 26.1521 0.175374 23.1892 1.6065 20.6503C3.04163 18.1186 5.32784 16.1406 6.66696 13.5565C8.01508 10.9554 8.32111 7.89391 9.75523 5.33901C13.3496 -1.06232 21.1483 -0.176851 27.3268 0.399058C30.9281 0.735758 34.6795 1.27146 37.6317 3.37207C38.4968 3.98718 39.2949 4.75707 39.7009 5.74104C40.107 6.72501 40.084 7.82758 40.116 8.89296C40.262 13.6842 41.6561 18.3598 41.9531 23.1449C42.0901 25.3501 41.9361 27.6618 41.3671 29.8056L41.3651 29.8036Z" fill="#CBE1FF"/>
<path d="M41.365 29.8036C40.7 32.3143 39.4639 34.5968 37.4557 36.214C34.6304 38.4895 30.8321 39.0242 27.2338 39.4192C21.2442 40.0755 15.0437 40.5529 9.31716 38.6744C7.63 38.1206 5.99286 37.3578 4.58873 36.2632C3.77366 35.626 3.04659 34.8833 2.42554 34.0541C2.43454 33.9325 2.44854 33.8119 2.46954 33.6912C3.05259 30.3584 6.83793 31.2298 8.96313 32.1917C12.0224 33.5777 15.5557 32.8269 18.888 32.463C21.3922 32.1917 23.9165 32.1555 26.4277 32.3545C29.2479 32.5776 32.1912 33.0802 34.8295 32.052C36.8526 31.265 38.6638 29.5986 40.828 29.7212C41.009 29.7302 41.189 29.7574 41.365 29.8026V29.8036Z" fill="#176CDF"/>
<path d="M28.0039 28.1412L33.4114 24.8295L28.3149 28.4739L28.0039 28.1412Z" fill="#176CDF"/>
<path d="M19.0689 24.0797C19.0689 24.0797 15.6326 17.5879 15.7196 17.5879C15.8067 17.5879 19.395 23.8455 19.395 23.8455L19.0689 24.0807V24.0797Z" fill="#176CDF"/>
<path d="M24.5845 23.3279L28.3148 19.2955L24.8875 23.6525L24.5845 23.3279Z" fill="#176CDF"/>
<path d="M12.2644 18.5297L18.356 25.2124L18.0339 26.2326L12.2644 18.5297Z" fill="#176CDF"/>
<path d="M21.7304 22.9771C21.6954 22.7419 21.7304 14.3505 21.7304 14.3505L22.4885 22.9299L21.7304 22.9771Z" fill="#176CDF"/>
<path d="M26.6167 26.8014L35.7845 21.2092L26.6167 27.3622V26.8014Z" fill="#176CDF"/>
<path d="M15.7988 28.6467L9.01221 24.7119L15.7008 29.7724L15.7988 28.6467Z" fill="#176CDF"/>
<path d="M30.922 36.4432L29.6699 37.0613L23.4743 37.1909H13.5455C13.5455 37.1909 12.8634 36.7457 12.3803 35.6441C12.3803 35.6441 11.7653 35.019 12.1173 34.2953C12.4534 33.5998 13.0324 34.237 13.0804 34.2953C13.0394 34.236 12.4514 33.3686 12.5454 31.4318C12.5834 30.6509 12.7634 30.0489 13.0264 29.6941C13.4354 29.1383 14.0455 29.1815 14.6335 30.072C14.5755 29.9785 14.2395 29.3915 14.6425 28.8046C15.0306 28.2377 15.5236 28.8136 15.6336 28.9523C15.5406 28.8016 15.1436 28.107 15.4556 27.6568C15.8067 27.1492 16.2687 27.7673 16.2687 27.7673C16.2337 27.4035 16.2337 27.0366 16.2687 26.6728C16.3517 25.9582 16.6637 25.327 17.6778 26.3331C17.6778 26.3331 18.5999 22.1821 22.4663 22.359C26.3326 22.5349 26.1136 25.9622 26.1136 25.9622C26.1136 25.9622 26.3396 25.6285 26.7336 25.8868C26.7706 25.9089 26.8056 25.9351 26.8386 25.9622C27.2987 26.3542 27.1677 28.0025 26.8386 28.5814C26.8756 28.5312 27.4247 27.7945 28.0048 27.6688C28.2028 27.6186 28.4118 27.6638 28.5728 27.7894C29.2919 28.3422 28.6258 30.269 28.5728 30.4087V30.4167C28.5728 30.4167 28.5778 30.4137 28.5798 30.4117C28.6228 30.3845 28.6678 30.3624 28.7148 30.3433C28.9268 30.2599 29.3489 30.1805 29.7819 30.6157C30.397 31.2338 30.0679 31.9846 30.0679 31.9846C30.1579 31.8861 30.276 31.8188 30.406 31.7917C30.57 31.7575 30.739 31.7716 30.895 31.8309C31.164 31.9374 31.4081 32.0982 31.6111 32.3032L31.6491 32.3384C32.7022 33.3525 32.9212 35.4542 30.922 36.4442V36.4432Z" fill="#176CDF"/>
<path d="M30.8482 36.3989C30.8312 36.4311 30.8101 36.4612 30.7861 36.4884C30.5481 36.7547 29.9931 36.9005 29.671 37.0603L23.4755 37.1899C20.2782 37.1899 17.0429 37.3487 13.8516 37.1899C13.0996 37.1527 12.5165 36.5688 12.2295 35.8582C12.0155 35.3295 12.1145 34.623 12.6015 34.3275C12.7775 34.2219 13.0065 34.1556 13.0816 33.9646C13.1316 33.836 13.0946 33.6923 13.0576 33.5596C12.7755 32.5384 12.6075 31.4891 12.5575 30.4318C12.5475 30.2237 12.5435 30.0077 12.6195 29.8127C12.7805 29.4026 13.2556 29.2026 13.6936 29.1805C14.1316 29.1574 14.5677 29.2679 15.0067 29.2699C15.0817 29.275 15.1567 29.2619 15.2247 29.2307C15.3128 29.1704 15.3778 29.082 15.4078 28.9795C15.5458 28.6337 15.6188 28.2618 15.7898 27.9312C15.9608 27.6005 16.2688 27.305 16.6389 27.295C16.6309 26.6417 17.0169 26.0487 17.616 25.7954C17.67 24.8174 18.001 23.8234 18.6931 23.1329C19.3851 22.4424 20.4762 22.1188 21.3783 22.4877C21.6433 22.5962 21.8943 22.76 22.1784 22.7902C22.4794 22.8224 22.7724 22.7028 23.0584 22.6063C23.6195 22.4173 24.2216 22.3158 24.8046 22.4143C25.3877 22.5128 25.9507 22.8344 26.2537 23.344C26.8698 24.3772 26.2667 25.713 26.4648 26.901C26.4748 27.0125 26.5178 27.1191 26.5878 27.2065C26.7278 27.3532 26.9638 27.3321 27.1548 27.3904C27.6519 27.5412 27.7889 28.1834 27.7709 28.7061C27.7529 29.2287 27.6959 29.8217 28.0499 30.2026C28.2499 29.6478 29.069 29.4468 29.498 29.8539C29.9491 30.281 29.8471 31.0097 29.8961 31.6329C29.8961 31.7233 29.9221 31.8118 29.9711 31.8871C30.1511 32.1093 30.4901 31.8811 30.7681 31.8178C31.1172 31.7384 31.4772 31.9736 31.6532 32.2852C31.8292 32.5967 31.8622 32.9686 31.8792 33.3274C31.9042 33.8923 31.8912 34.4833 31.6332 34.9848C31.4982 35.2461 31.3002 35.4592 31.1442 35.7054C31.0272 35.8843 30.9522 36.209 30.8462 36.3989H30.8482Z" fill="#176CDF"/>
<path d="M30.8482 36.3989C30.8312 36.4311 30.8101 36.4612 30.7861 36.4884C30.5481 36.7547 29.9931 36.9005 29.671 37.0603L23.4755 37.1899C20.2782 37.1899 17.0429 37.3487 13.8516 37.1899C13.0996 37.1527 12.5165 36.5688 12.2295 35.8582C12.0155 35.3295 12.1145 34.623 12.6015 34.3275C12.7775 34.2219 13.0065 34.1556 13.0816 33.9646C13.1316 33.836 13.0946 33.6923 13.0576 33.5596C12.7755 32.5384 12.6075 31.4891 12.5575 30.4318C12.5475 30.2237 12.5435 30.0077 12.6195 29.8127C12.7805 29.4026 13.2556 29.2026 13.6936 29.1805C14.1316 29.1574 14.5677 29.2679 15.0067 29.2699C15.0817 29.275 15.1567 29.2619 15.2247 29.2307C15.3128 29.1704 15.3778 29.082 15.4078 28.9795C15.5458 28.6337 15.6188 28.2618 15.7898 27.9312C15.9608 27.6005 16.2688 27.305 16.6389 27.295C16.6309 26.6417 17.0169 26.0487 17.616 25.7954C17.67 24.8174 18.001 23.8234 18.6931 23.1329C19.3851 22.4424 20.4762 22.1188 21.3783 22.4877C21.6433 22.5962 21.8943 22.76 22.1784 22.7902C22.4794 22.8224 22.7724 22.7028 23.0584 22.6063C23.6195 22.4173 24.2216 22.3158 24.8046 22.4143C25.3877 22.5128 25.9507 22.8344 26.2537 23.344C26.8698 24.3772 26.2667 25.713 26.4648 26.901C26.4748 27.0125 26.5178 27.1191 26.5878 27.2065C26.7278 27.3532 26.9638 27.3321 27.1548 27.3904C27.6519 27.5412 27.7889 28.1834 27.7709 28.7061C27.7529 29.2287 27.6959 29.8217 28.0499 30.2026C28.2499 29.6478 29.069 29.4468 29.498 29.8539C29.9491 30.281 29.8471 31.0097 29.8961 31.6329C29.8961 31.7233 29.9221 31.8118 29.9711 31.8871C30.1511 32.1093 30.4901 31.8811 30.7681 31.8178C31.1172 31.7384 31.4772 31.9736 31.6532 32.2852C31.8292 32.5967 31.8622 32.9686 31.8792 33.3274C31.9042 33.8923 31.8912 34.4833 31.6332 34.9848C31.4982 35.2461 31.3002 35.4592 31.1442 35.7054C31.0272 35.8843 30.9522 36.209 30.8462 36.3989H30.8482Z" fill="url(#paint0_linear_57_76)"/>
<path opacity="0.5" d="M19.5851 28.692C18.862 28.4648 18.442 28.8367 18.2029 29.2508C18.2029 29.2508 17.4759 27.9291 16.1868 28.7352C16.1868 28.7352 17.4969 28.5935 17.9849 29.7735C17.9559 29.873 17.9319 29.9735 17.9149 30.076C17.9149 30.076 18.592 29.0779 19.5851 29.49C20.5782 29.9021 20.4051 31.5484 20.4051 31.5484C20.4051 31.5484 20.9912 29.1352 19.5851 28.694V28.692Z" fill="#176CDF"/>
<path d="M18.999 20.9961C18.999 20.9961 19.149 19.9609 18.773 20.0764C18.397 20.192 18.999 20.9961 18.999 20.9961Z" fill="#176CDF"/>
<path d="M28.3799 24.143C28.3799 24.143 28.7149 22.8807 29.1089 23.1792C29.503 23.4777 28.3799 24.143 28.3799 24.143Z" fill="#176CDF"/>
<path d="M12.0343 24.9682C12.0343 24.9682 11.6023 23.8415 11.2152 24.2315C10.8282 24.6214 12.0343 24.9682 12.0343 24.9682Z" fill="#176CDF"/>
<path opacity="0.4" d="M30.954 36.4431L29.7019 37.0612L23.5044 37.1909H13.5745C13.5745 37.1909 12.8924 36.7456 12.4104 35.6441C12.4104 35.6441 11.7953 35.0189 12.1463 34.2953C12.4834 33.5998 13.0624 34.237 13.1094 34.2953C13.0684 34.236 12.4814 33.3686 12.5754 31.4318C12.6134 30.6509 12.7924 30.0488 13.0564 29.694C13.0294 30.5303 13.0924 31.9213 13.6395 32.8681C14.4305 34.235 15.3136 34.3234 15.3136 34.3234C15.3136 34.3234 13.8405 32.9987 15.2146 31.8951C16.5887 30.7916 17.5818 32.6017 17.5238 33.3967C17.5238 33.3967 18.0809 31.1444 20.1021 32.0278V32.1293C20.1021 32.1293 19.049 31.8047 18.6449 32.9243C18.2409 34.043 19.384 35.0441 20.4971 34.9255C21.6102 34.8069 21.9302 33.9073 21.9302 33.9073C21.9302 33.9073 22.3993 35.6933 23.3953 35.4873C24.3904 35.2823 24.2144 33.8571 24.2144 33.8571C24.2144 33.8571 25.5635 35.429 27.2327 34.6048C28.9018 33.7807 28.6398 30.866 27.2327 30.5423C27.2327 30.5423 27.9398 30.1131 28.6038 30.4096H28.6088C28.8888 30.5363 29.1619 30.7926 29.3709 31.267C30.0619 32.8379 28.5728 34.2581 28.5228 34.3063C28.5828 34.2912 30.553 33.7777 30.434 31.7886C30.696 31.7283 31.111 31.7886 31.6771 32.3354C32.7302 33.3535 32.9502 35.4541 30.953 36.4441L30.954 36.4431Z" fill="#176CDF"/>
<path d="M14.5377 31.9293C14.5377 31.9163 14.5447 31.9032 14.5487 31.8891C14.6607 31.5192 14.9998 31.264 15.3438 31.0931C15.6878 30.9232 16.0549 30.8177 16.4279 30.8539C16.9359 30.9021 17.395 31.2248 17.684 31.6479C17.973 32.071 18.107 32.5856 18.148 33.0982C18.2671 32.3102 18.9511 31.7343 19.7432 31.7544C19.8782 31.7494 20.0132 31.7695 20.1412 31.8117C20.2462 31.8559 20.3082 31.9233 20.4363 31.8871C20.5123 31.859 20.5833 31.8178 20.6473 31.7665C20.8293 31.6268 21.0283 31.5112 21.2403 31.4238C21.4543 31.3373 21.6924 31.3283 21.9114 31.3986C21.1873 31.6419 20.6253 32.2238 20.4073 32.9595C20.4023 32.6781 20.4433 32.3967 20.5273 32.1283C20.1742 32.1032 19.8272 32.2298 19.5712 32.4771C18.8651 33.1666 19.3002 34.4712 20.1572 34.8139C20.3672 34.8973 20.6563 34.9395 20.8723 34.8511C21.1733 34.7275 21.3943 34.3224 21.4663 34.0199C21.1383 34.1706 20.7623 34.1706 20.4002 34.1616C21.3723 33.8932 22.2264 33.3053 22.8265 32.4922C22.7445 32.7424 22.6405 32.9857 22.5154 33.2178C22.3884 33.451 22.2004 33.644 21.9714 33.7766C21.9484 33.7847 21.9294 33.8018 21.9184 33.8239C21.9124 33.846 21.9154 33.8701 21.9264 33.8912C22.1524 34.5104 22.5314 35.6702 23.4005 35.4913C24.1146 35.3405 24.3026 34.4892 24.2196 33.8611C24.2946 33.9204 24.4366 33.8048 24.5146 33.7666C24.1676 33.5395 23.8376 33.1907 23.8556 32.7746C24.2746 33.2269 24.8206 33.5405 25.4207 33.6731C25.1937 33.7435 24.9557 33.7716 24.7186 33.7565C24.9287 34.1244 25.2167 34.442 25.5627 34.6852C25.9037 34.9315 26.4648 34.8722 26.8508 34.7606C27.2949 34.631 27.6829 34.5385 27.9869 34.1566C28.1619 33.9184 28.308 33.6591 28.421 33.3847C28.619 32.9465 28.807 32.463 28.693 31.9946C28.598 31.6097 28.313 31.3052 28.0399 31.0187C28.1339 31.5333 28.0119 32.063 27.7019 32.4831C27.8239 32.2047 27.8329 31.8901 27.8209 31.5866C27.8229 31.3685 27.7829 31.1524 27.7029 30.9504C27.6559 30.8458 27.3399 30.6197 27.3919 30.5132C27.4669 30.3513 27.9109 30.5966 28.0079 30.6639C28.0859 30.3584 28.0619 30.0368 27.9389 29.7463C28.1929 29.9674 28.41 30.2579 28.445 30.5946C28.445 30.67 28.458 30.7453 28.483 30.8167C28.515 30.874 28.556 30.9252 28.606 30.9675C28.863 31.2227 29.057 31.5373 29.17 31.8821C29.4311 31.4378 29.5121 30.9102 29.3961 30.4076C29.5631 30.8398 29.6711 31.3202 29.5461 31.7675C29.4811 31.9655 29.3971 32.1555 29.295 32.3374C29.05 32.8218 28.849 33.3284 28.694 33.849C28.645 34.0149 28.49 34.3103 28.762 34.237C28.854 34.2068 28.943 34.1676 29.028 34.1204C29.5481 33.8651 30.0051 33.4631 30.2491 32.9264C30.3241 32.7585 30.3791 32.5826 30.4101 32.4007C30.4191 32.3464 30.4522 31.7916 30.4412 31.7966C30.7032 31.7363 31.1182 31.7966 31.6843 32.3434C32.7374 33.3585 32.9584 35.4561 30.9592 36.4502L29.7071 37.0683L23.5075 37.1889H13.5776C13.5776 37.1889 12.8956 36.7436 12.4135 35.6421C12.4135 35.6421 11.7985 35.0169 12.1495 34.2933C12.4865 33.5977 13.0656 34.235 13.1126 34.2933C13.0716 34.234 12.4845 33.3666 12.5785 31.4298C12.6165 30.6489 12.7956 30.0468 13.0596 29.692C13.0296 30.6117 13.0406 31.8248 13.5246 32.6389C13.7727 33.057 14.1857 33.444 14.5777 33.7254C14.7897 33.8772 15.0168 34.0068 15.2548 34.1134C15.4528 34.2028 15.7698 34.2299 15.9408 34.3465C15.4188 33.9867 14.9968 33.4982 14.7167 32.9274C14.5887 32.667 14.4907 32.3766 14.5127 32.0821C14.5377 31.7765 14.7307 31.474 14.8397 31.1886C14.8518 31.1564 14.8628 31.1132 14.8397 31.0911C14.8167 31.074 14.7867 31.069 14.7597 31.078C14.5417 31.1293 14.3527 31.265 14.2337 31.4559C14.1167 31.6459 14.0397 31.858 14.0077 32.0781C13.9957 31.7353 13.9887 31.3735 14.1577 31.075C14.3157 30.7936 14.6087 30.6137 14.8958 30.471C15.7428 30.0609 16.7359 29.885 17.635 30.1624C16.9719 30.1302 16.2909 30.1021 15.6618 30.3132C15.5118 30.3534 15.3778 30.4358 15.2728 30.5514C15.1778 30.673 15.1528 30.8629 15.2558 30.9785C15.3308 31.066 15.4548 31.0921 15.5698 31.1122" fill="url(#paint1_linear_57_76)"/>
<path d="M33.9215 36.7446C33.7515 37.0502 33.4094 37.2633 33.0584 37.3346C32.6074 37.4261 32.1453 37.3346 31.6953 37.2412C31.5853 37.8452 30.8272 38.0482 30.2152 38.0553C29.5971 38.0633 28.979 38.005 28.373 37.8794C28.269 37.8482 28.16 37.8432 28.053 37.8653C27.9059 37.9095 27.8149 38.0512 27.7179 38.1678C27.2619 38.7297 26.4978 38.9237 25.7798 39.0041C24.5516 39.1347 23.3105 39.0131 22.1314 38.6442C21.8344 38.5518 21.5304 38.4412 21.2213 38.4653C21.0363 38.4885 20.8543 38.5347 20.6793 38.601C18.4381 39.3217 16.0299 39.3247 13.7877 38.6091C13.4246 38.4925 12.9896 38.2201 13.0856 37.8492C12.3826 37.8854 11.6785 37.8583 10.9804 37.7668C10.0303 37.6422 9.65331 37.1477 9.92733 36.231C10.0093 35.8994 10.2524 35.632 10.5744 35.5205C11.4535 35.2179 12.0235 36.3788 11.9805 36.2522C11.9375 36.1255 11.5895 35.0149 11.9805 34.838C12.3625 34.6661 12.7246 36.1597 12.7456 36.2471C12.7456 36.1818 12.7016 35.4431 13.1416 35.4159C13.6037 35.3908 13.8887 36.3225 13.8887 36.3225C13.8887 36.3225 13.8887 35.3124 14.2177 35.4159C14.5467 35.5195 14.6568 36.4743 14.6568 36.4743C14.6568 36.4743 14.9208 35.4159 15.1618 35.6159C15.4028 35.8149 15.4038 36.424 15.4038 36.424C15.4038 36.424 16.6819 33.7475 17.689 34.2018C18.4461 34.5415 18.4011 35.5938 18.3311 36.0984C18.3721 35.9476 18.4451 35.7959 18.5671 35.7677C18.8091 35.7165 18.8311 36.424 18.8311 36.424C18.8311 36.424 18.8531 35.5637 19.3142 35.5647C19.7462 35.5647 19.9332 36.1868 19.9552 36.2632C19.9412 36.1989 19.8632 35.7597 20.1482 35.6652C20.4553 35.5647 20.5873 36.4733 20.6103 36.3969C20.6333 36.3205 20.5663 35.1124 21.3354 34.8059C22.0704 34.5164 22.4035 35.9999 22.4315 36.1346C22.4055 35.9758 22.1004 33.9787 23.0705 33.5183C24.0806 33.0389 23.6416 35.8672 23.6416 35.8672C23.6416 35.8672 24.0176 35.1305 24.4326 35.2199C24.7087 35.2802 24.5336 35.7848 24.3826 36.1205C24.5616 35.7858 24.8717 35.3034 25.1347 35.3868C25.3977 35.4702 25.4177 35.9949 25.3987 36.3084C25.4457 36.018 25.5937 35.5526 26.0498 35.4622C26.7028 35.3315 27.1359 36.4371 27.1619 36.5024C27.1509 36.4461 26.9839 35.5958 27.7199 35.5637C28.363 35.5355 28.609 36.3476 28.67 36.6009C28.678 36.6361 28.684 36.6592 28.685 36.6693C28.685 36.6592 28.68 36.6371 28.677 36.6039C28.651 36.3336 28.62 35.3757 29.4471 35.0591C30.4132 34.6893 30.5892 35.4973 30.5892 35.4973C30.5892 35.4973 30.9062 33.6329 32.3393 34.0621C33.0634 34.2802 34.1505 35.6742 34.0195 36.4532C34.0035 36.5547 33.9695 36.6532 33.9195 36.7436L33.9215 36.7446Z" fill="#176CDF"/>
<path d="M33.9215 36.7446C33.7515 37.0502 33.4094 37.2633 33.0584 37.3346C32.6074 37.4261 32.1453 37.3346 31.6953 37.2412C31.5853 37.8452 30.8272 38.0482 30.2152 38.0553C29.5971 38.0633 28.979 38.005 28.373 37.8794C28.269 37.8482 28.16 37.8432 28.053 37.8653C27.9059 37.9095 27.8149 38.0512 27.7179 38.1678C27.2619 38.7297 26.4978 38.9237 25.7798 39.0041C24.5516 39.1347 23.3105 39.0131 22.1314 38.6442C21.8344 38.5518 21.5304 38.4412 21.2213 38.4653C21.0363 38.4885 20.8543 38.5347 20.6793 38.601C18.4381 39.3217 16.0299 39.3247 13.7877 38.6091C13.4246 38.4925 12.9896 38.2201 13.0856 37.8492C12.3826 37.8854 11.6785 37.8583 10.9804 37.7668C10.0303 37.6422 9.65331 37.1477 9.92733 36.231C10.0093 35.8994 10.2524 35.632 10.5744 35.5205C11.4535 35.2179 12.0235 36.3788 11.9805 36.2522C11.9375 36.1255 11.5895 35.0149 11.9805 34.838C12.3625 34.6661 12.7246 36.1597 12.7456 36.2471C12.7456 36.1818 12.7016 35.4431 13.1416 35.4159C13.6037 35.3908 13.8887 36.3225 13.8887 36.3225C13.8887 36.3225 13.8887 35.3124 14.2177 35.4159C14.5467 35.5195 14.6568 36.4743 14.6568 36.4743C14.6568 36.4743 14.9208 35.4159 15.1618 35.6159C15.4028 35.8149 15.4038 36.424 15.4038 36.424C15.4038 36.424 16.6819 33.7475 17.689 34.2018C18.4461 34.5415 18.4011 35.5938 18.3311 36.0984C18.3721 35.9476 18.4451 35.7959 18.5671 35.7677C18.8091 35.7165 18.8311 36.424 18.8311 36.424C18.8311 36.424 18.8531 35.5637 19.3142 35.5647C19.7462 35.5647 19.9332 36.1868 19.9552 36.2632C19.9412 36.1989 19.8632 35.7597 20.1482 35.6652C20.4553 35.5647 20.5873 36.4733 20.6103 36.3969C20.6333 36.3205 20.5663 35.1124 21.3354 34.8059C22.0704 34.5164 22.4035 35.9999 22.4315 36.1346C22.4055 35.9758 22.1004 33.9787 23.0705 33.5183C24.0806 33.0389 23.6416 35.8672 23.6416 35.8672C23.6416 35.8672 24.0176 35.1305 24.4326 35.2199C24.7087 35.2802 24.5336 35.7848 24.3826 36.1205C24.5616 35.7858 24.8717 35.3034 25.1347 35.3868C25.3977 35.4702 25.4177 35.9949 25.3987 36.3084C25.4457 36.018 25.5937 35.5526 26.0498 35.4622C26.7028 35.3315 27.1359 36.4371 27.1619 36.5024C27.1509 36.4461 26.9839 35.5958 27.7199 35.5637C28.363 35.5355 28.609 36.3476 28.67 36.6009C28.678 36.6361 28.684 36.6592 28.685 36.6693C28.685 36.6592 28.68 36.6371 28.677 36.6039C28.651 36.3336 28.62 35.3757 29.4471 35.0591C30.4132 34.6893 30.5892 35.4973 30.5892 35.4973C30.5892 35.4973 30.9062 33.6329 32.3393 34.0621C33.0634 34.2802 34.1505 35.6742 34.0195 36.4532C34.0035 36.5547 33.9695 36.6532 33.9195 36.7436L33.9215 36.7446Z" fill="url(#paint2_linear_57_76)"/>
<path opacity="0.5" d="M24.1174 26.3602C24.1174 26.3844 24.1234 26.4085 24.1254 26.4316C24.1234 26.4165 24.1204 26.3934 24.1174 26.3602Z" fill="#176CDF"/>
<path opacity="0.5" d="M19.9092 24.8295C19.8212 24.8003 19.9092 23.0696 21.9303 23.36C21.9303 23.36 21.2863 22.4424 20.2602 23.0575C19.2351 23.6736 19.9092 24.8285 19.9092 24.8285V24.8295Z" fill="#176CDF"/>
<path opacity="0.5" d="M23.1094 23.4757C23.4374 23.6455 23.6885 23.935 23.8115 24.2847C23.8115 24.2847 24.3775 23.6405 25.1196 24.0797C25.1196 24.0797 25.0396 23.6415 24.1125 23.8375C24.1155 23.8375 23.6434 23.3571 23.1084 23.4747L23.1094 23.4757Z" fill="#176CDF"/>
<path opacity="0.5" d="M23.9344 27.9613C24.2905 27.2014 25.5886 26.8276 25.5886 26.8276C24.6385 26.4004 23.9894 27.2286 23.9894 27.2286C23.9894 27.2286 24.0154 26.6758 23.1624 26.2999C22.3093 25.924 21.2212 27.2286 21.2212 27.2286C21.2212 27.2286 21.9133 26.5009 22.7873 26.6245C23.4474 26.719 23.7184 27.5874 23.8114 28.0065C23.3484 28.1935 23.0364 28.6347 23.0124 29.1352H23.1124C23.1124 29.1352 23.5944 28.2005 25.2926 28.4065C25.2896 28.4085 24.7625 27.6889 23.9344 27.9603V27.9613Z" fill="#176CDF"/>
<path opacity="0.4" d="M28.5789 30.4096C28.6219 30.3825 28.6669 30.3604 28.7139 30.3413C28.5599 30.5282 28.4459 30.6438 28.4339 30.6569C28.987 29.7503 28.3769 28.1784 28.0049 27.6668C28.2029 27.6165 28.4119 27.6618 28.5729 27.7874C29.292 28.3402 28.6259 30.2669 28.5729 30.4066V30.4147C28.5729 30.4147 28.5779 30.4117 28.5799 30.4096H28.5789Z" fill="#176CDF"/>
<path opacity="0.5" d="M22.6625 31.5464C22.6625 31.5464 23.8656 32.6047 25.7667 31.3353C25.7667 31.3353 24.5246 32.6892 23.4025 32.5444C22.2804 32.3997 22.6615 31.5464 22.6615 31.5464H22.6625Z" fill="#176CDF"/>
<path opacity="0.5" d="M25.7656 32.9244C25.7656 32.9244 26.5637 33.249 27.2048 32.8068C27.8458 32.3646 27.5528 32.0701 27.5528 32.0701C27.5528 32.0701 28.1538 32.8651 27.5318 33.1887C26.9097 33.5134 25.7656 32.9234 25.7656 32.9234V32.9244Z" fill="#176CDF"/>
<path opacity="0.5" d="M14.8707 30.0127C14.8707 30.0127 14.7607 29.5423 15.2117 29.4237C15.6627 29.3051 16.0008 30.482 16.0008 30.482C16.0008 30.482 15.9068 29.2267 15.2117 29.1382C14.5166 29.0488 14.8707 30.0137 14.8707 30.0137V30.0127Z" fill="#176CDF"/>
<path opacity="0.5" d="M13.7286 34.2209C13.7286 34.2209 14.3477 35.3908 16.0008 35.1586C16.0008 35.1586 15.0237 35.5898 14.3467 35.3908C13.6696 35.1918 13.7286 34.2209 13.7286 34.2209Z" fill="#176CDF"/>
<path opacity="0.5" d="M26.9106 35.2803C26.9106 35.2803 27.9227 35.5315 28.4538 34.831C28.4048 35.1918 28.1578 35.4943 27.8157 35.6129C27.2317 35.8089 26.9116 35.2793 26.9116 35.2793L26.9106 35.2803Z" fill="#176CDF"/>
<path opacity="0.5" d="M31.5372 32.9023C31.2742 33.645 30.4531 33.8551 30.4531 33.8551C31.3132 33.0993 31.1042 32.2912 30.8942 31.8289C31.1632 31.9354 31.4072 32.0962 31.6102 32.3012C31.6312 32.5043 31.6062 32.7103 31.5372 32.9023Z" fill="#176CDF"/>
<path d="M15.3907 26.2346C15.3107 25.7159 15.1647 24.1571 14.4216 24.151C13.7266 24.146 14.4216 24.7169 14.9057 25.4757L15.3907 26.2346Z" fill="#176CDF"/>
<path d="M26.4507 24.345C26.4507 24.345 26.8817 22.167 27.5438 22.2997C28.2058 22.4324 27.9908 22.8093 27.5438 23.2756C27.0047 23.8345 26.4507 24.346 26.4507 24.346V24.345Z" fill="#176CDF"/>
<path d="M22.8235 21.2092C22.8235 21.2092 22.5604 19.2372 23.1095 19.2955C23.6585 19.3548 22.8235 21.2092 22.8235 21.2092Z" fill="#176CDF"/>
<path d="M24.1055 26.1079C23.9935 26.9542 23.4884 27.3492 22.0293 27.4226C20.5702 27.496 20.1771 25.533 20.1771 25.533C20.1771 25.533 19.8401 24.6978 20.1771 24.2747C20.1961 24.2506 20.2181 24.2284 20.2421 24.2104C20.5112 24.0114 20.8432 24.5129 20.9612 24.7099C20.9802 24.741 20.9932 24.7652 20.9992 24.7752C20.9942 24.7642 20.9852 24.74 20.9712 24.7039C20.8912 24.4898 20.8342 24.2676 20.8022 24.0415C20.7652 23.748 20.7912 23.4465 21.0062 23.3058C21.4963 22.9842 21.7283 23.741 21.7283 23.741C21.7583 23.3631 21.7663 22.8384 21.7583 22.2203C21.7243 19.6945 21.4162 15.6059 21.2552 13.5937C21.1952 12.857 21.1542 12.3987 21.1542 12.3987L21.7643 11.7183L22.7414 12.8017C22.7414 12.8017 22.7674 12.8992 22.6984 13.8631C22.6484 14.5435 22.5523 15.6551 22.3663 17.4693C21.9153 21.8514 22.7274 24.4486 22.7274 24.4486C22.7274 24.4486 22.8504 23.943 23.3124 24.2003C23.3544 24.2224 23.3934 24.2475 23.4324 24.2757C23.9095 24.6355 23.5364 25.5441 23.4124 25.8094C23.8445 24.9421 24.2135 25.2838 24.1045 26.1069L24.1055 26.1079Z" fill="#176CDF"/>
<path d="M24.1055 26.1089C24.0305 26.6959 23.7614 27.0658 23.1194 27.2608C22.7643 27.3582 22.3983 27.4135 22.0303 27.4236C20.5711 27.499 20.1781 25.534 20.1781 25.534C20.1781 25.534 19.8411 24.6988 20.1781 24.2757C20.1971 24.2505 20.2191 24.2294 20.2441 24.2113C20.3721 24.1159 20.5151 24.1812 20.6422 24.2948C20.7682 24.4174 20.8762 24.5571 20.9632 24.7099L21.0012 24.7762C20.9972 24.7651 20.9872 24.741 20.9732 24.7008C20.8982 24.4998 20.8422 24.2918 20.8072 24.0807C20.8072 24.0666 20.8022 24.0515 20.8012 24.0365C20.7632 23.743 20.7902 23.4415 21.0052 23.3008C21.1842 23.1832 21.3292 23.2093 21.4402 23.2907C21.6332 23.4314 21.7263 23.7349 21.7263 23.7349C21.7403 23.557 21.7493 23.346 21.7553 23.1078C21.7613 22.8414 21.7613 22.5409 21.7553 22.2143C21.7222 19.6885 21.4142 15.5999 21.2522 13.5877C21.1922 12.851 21.1522 12.3927 21.1522 12.3927L21.7613 11.7122L21.9873 11.9585L22.7443 12.7967C22.7443 12.7967 22.7703 12.8932 22.7013 13.8581C22.6513 14.5385 22.5563 15.6501 22.3693 17.4633C21.9183 21.8454 22.7303 24.4425 22.7303 24.4425C22.7303 24.4425 22.8374 24.0033 23.2254 24.1521C23.2564 24.1641 23.2874 24.1782 23.3164 24.1953L23.3274 24.2013C23.3654 24.2234 23.4014 24.2485 23.4354 24.2767C23.9124 24.6365 23.5394 25.5451 23.4154 25.8104C23.6944 25.2516 23.9474 25.1943 24.0625 25.4456C24.0685 25.4586 24.0735 25.4717 24.0775 25.4848C24.1345 25.6878 24.1445 25.8999 24.1065 26.1069L24.1055 26.1089Z" fill="url(#paint3_linear_57_76)"/>
<path d="M24.6485 25.9954C24.5515 26.7251 24.1625 27.12 23.1184 27.2608C22.9534 27.2839 22.7714 27.3 22.5723 27.31C21.1132 27.3854 20.7202 25.4205 20.7202 25.4205C20.7202 25.4205 20.4451 24.74 20.6452 24.2958C20.6642 24.2485 20.6892 24.2033 20.7202 24.1631C20.7382 24.139 20.7612 24.1169 20.7852 24.0988L20.8052 24.0847C21.0712 23.9229 21.3922 24.4073 21.5042 24.5973C21.5232 24.6295 21.5362 24.6526 21.5422 24.6636C21.5372 24.6526 21.5282 24.6275 21.5142 24.5883C21.4322 24.3742 21.3742 24.1511 21.3412 23.9239C21.3122 23.6897 21.3222 23.4505 21.4372 23.2917C21.4662 23.2505 21.5032 23.2153 21.5452 23.1872C21.6072 23.146 21.6783 23.1198 21.7523 23.1118C22.1013 23.0827 22.2673 23.6254 22.2673 23.6254C22.2973 23.2475 21.9803 22.2575 21.9713 21.6394C21.9383 19.1136 21.9563 15.4903 21.7943 13.4792C21.7343 12.7424 21.6933 12.2841 21.6933 12.2841L21.9823 11.9615L22.7393 12.7997C22.7393 12.7997 22.7653 12.8962 22.6963 13.8611C22.6463 14.5415 22.5513 15.6531 22.3643 17.4663C21.9133 21.8484 22.7253 24.4455 22.7253 24.4455C22.7253 24.4455 22.8324 24.0063 23.2204 24.1551C23.2504 24.2727 23.2694 24.333 23.2694 24.333C23.2814 24.2877 23.2994 24.2445 23.3224 24.2043C23.3974 24.0747 23.5524 23.9159 23.8544 24.0847C23.8965 24.1068 23.9365 24.132 23.9745 24.1601C24.3505 24.4415 24.2005 25.0606 24.0585 25.4446C24.0195 25.5501 23.9835 25.6376 23.9535 25.6959C23.9895 25.6235 24.0295 25.5521 24.0735 25.4838C24.4525 24.8978 24.7465 25.2516 24.6475 25.9954H24.6485Z" fill="url(#paint4_linear_57_76)"/>
<path opacity="0.4" d="M22.6985 13.8601C22.3475 13.8179 21.8374 13.651 21.7254 13.052C21.7254 13.052 21.5274 13.453 21.2524 13.5917C21.1924 12.855 21.1514 12.3967 21.1514 12.3967L21.7614 11.7162L22.7385 12.7997C22.7385 12.7997 22.7675 12.8952 22.6975 13.8601H22.6985Z" fill="#176CDF"/>
<path d="M24.1055 26.1079C23.9935 26.9542 23.4884 27.3492 22.0293 27.4225C20.5702 27.4959 20.1771 25.533 20.1771 25.533C20.1771 25.533 19.8401 24.6978 20.1771 24.2746C20.1961 24.2505 20.2181 24.2284 20.2421 24.2103C20.5112 24.2857 20.7402 24.5732 20.8752 25.0596C20.8552 24.945 20.8512 24.7832 20.9612 24.7098L20.9722 24.7038C21.0582 24.6636 21.1562 24.6576 21.2462 24.6867C21.8043 24.8104 21.8583 26.4798 21.8583 26.4798C21.8583 26.4798 21.9723 25.4647 22.4773 25.335C22.9824 25.2054 23.2244 25.9391 23.2244 25.9391C23.2244 25.9391 23.1104 24.8264 23.3104 24.1932C23.3524 24.2153 23.3914 24.2405 23.4304 24.2686C23.9075 24.6284 23.5344 25.537 23.4104 25.8024C23.8445 24.94 24.2135 25.2827 24.1045 26.1049L24.1055 26.1079Z" fill="#176CDF"/>
<path d="M31.2232 10.6147C31.1642 10.9534 31.0332 11.276 30.8391 11.5595C30.6831 11.7967 30.4871 12.0037 30.2601 12.1736C28.726 13.3204 26.1817 12.4329 26.1817 12.4329C26.1817 12.4329 25.7887 13.3294 24.2175 13.5154C22.8904 13.6732 22.0534 12.2811 21.8253 11.8439C21.7833 11.7635 21.7623 11.7153 21.7623 11.7153C21.7623 11.7153 21.7333 11.7625 21.6783 11.8379C21.3223 12.3233 19.8682 13.9857 17.877 11.866C17.877 11.866 16.3058 13.5324 13.8916 12.4329C13.1976 12.1173 12.7695 11.7223 12.5175 11.2992C12.2945 10.9243 12.1835 10.4921 12.1975 10.0559C12.2065 9.42771 12.4235 8.86286 12.5445 8.54425C12.5985 8.40756 12.6805 8.28293 12.7845 8.1794C14.4837 7.55023 17.591 6.9703 22.0774 7.12809C23.3035 7.17131 24.4016 7.24569 25.3797 7.34318C25.5747 7.36328 25.7667 7.38338 25.9537 7.40449C26.5718 7.47585 27.1398 7.55525 27.6559 7.6437C28.2099 7.73717 28.709 7.83969 29.149 7.94623C29.594 8.05276 30.0341 8.18443 30.4651 8.34022C30.7341 8.65782 30.9482 9.01764 31.0982 9.4056C31.2472 9.79054 31.2912 10.2076 31.2252 10.6157L31.2232 10.6147Z" fill="#176CDF"/>
<path d="M31.2232 10.6147C31.1642 10.9534 31.0332 11.276 30.8391 11.5595C30.6831 11.7967 30.4871 12.0037 30.2601 12.1736C28.726 13.3204 26.1817 12.4329 26.1817 12.4329C26.1817 12.4329 25.7887 13.3294 24.2175 13.5154C22.8904 13.6732 22.0534 12.2811 21.8253 11.8439C21.7833 11.7635 21.7623 11.7153 21.7623 11.7153C21.7623 11.7153 21.7333 11.7625 21.6783 11.8379C21.3223 12.3233 19.8682 13.9857 17.877 11.866C17.877 11.866 16.3058 13.5324 13.8916 12.4329C13.1976 12.1173 12.7695 11.7223 12.5175 11.2992C12.2945 10.9243 12.1835 10.4921 12.1975 10.0559C12.2065 9.42771 12.4235 8.86286 12.5445 8.54425C12.5985 8.40756 12.6805 8.28293 12.7845 8.1794C14.4837 7.55023 17.591 6.9703 22.0774 7.12809C23.3035 7.17131 24.4016 7.24569 25.3797 7.34318C25.5747 7.36328 25.7667 7.38338 25.9537 7.40449C26.5718 7.47585 27.1398 7.55525 27.6559 7.6437C28.2099 7.73717 28.709 7.83969 29.149 7.94623C29.594 8.05276 30.0341 8.18443 30.4651 8.34022C30.7341 8.65782 30.9482 9.01764 31.0982 9.4056C31.2472 9.79054 31.2912 10.2076 31.2252 10.6157L31.2232 10.6147Z" fill="url(#paint5_linear_57_76)"/>
<path d="M20.5293 9.70707C19.7102 9.62164 18.9521 9.23368 18.4011 8.61857C18.025 8.19141 17.75 7.62354 17.834 7.05768C17.839 6.99336 17.863 6.93105 17.901 6.87878C17.967 6.8034 18.0781 6.78933 18.1781 6.78028C18.4791 6.75516 18.9461 6.59736 19.1401 6.89486C19.2942 7.13206 19.2452 7.58937 19.3152 7.86275C19.4092 8.22659 19.5612 8.57334 19.7662 8.88793C19.8922 9.07789 20.2763 9.68294 20.5283 9.70807L20.5293 9.70707Z" fill="url(#paint6_linear_57_76)"/>
<path d="M13.5445 9.72917C13.8305 10.2679 14.2186 10.7453 14.6876 11.1343C14.0216 11.1674 13.3995 10.694 13.1145 10.088C12.8294 9.48193 12.8354 8.77435 12.9755 8.11904C12.9825 8.0517 13.0085 7.98738 13.0505 7.93511C13.1065 7.88787 13.1755 7.85672 13.2485 7.84767C13.8575 7.71098 14.4676 7.58133 15.0796 7.45971C15.4417 7.38433 15.8257 7.19035 16.2017 7.26372C16.2828 7.27679 16.3588 7.31297 16.4208 7.36724C16.5238 7.45971 16.4958 7.58334 16.5078 7.714C16.5298 8.0316 16.5748 8.34619 16.6428 8.65676C16.7838 8.32307 17.0778 8.07984 17.3829 7.88586C17.6349 7.72505 17.9239 7.58334 18.2199 7.62153C17.8349 7.78938 17.6369 8.22055 17.7579 8.6246C17.8639 8.9432 18.1499 9.1593 18.3929 9.39147C18.2709 9.3774 18.1499 9.35931 18.0299 9.33518C17.9109 9.3181 17.7959 9.27588 17.6929 9.21256C17.5909 9.12914 17.5069 9.02663 17.4449 8.91004C17.3328 8.74922 17.2478 8.57032 17.1948 8.38137C17.0508 8.47082 16.8758 8.57635 16.7888 8.72912C16.7018 8.88189 16.8368 9.03165 16.9198 9.16332C17.0128 9.31609 17.1228 9.4578 17.2478 9.58545C17.3058 9.64475 17.5619 9.92517 17.6469 9.90808C17.1758 10.0036 16.6758 9.80054 16.3328 9.46182C15.9897 9.12311 15.7847 8.6648 15.6607 8.19744C14.9966 8.3884 14.3556 8.65374 13.7485 8.98642C13.6295 9.05175 13.5045 9.12814 13.4545 9.25478C13.3725 9.46082 13.4785 9.73118 13.6925 9.7734C13.9285 9.82164 14.1726 9.7734 14.4096 9.78546C14.4496 9.78546 14.4896 9.7935 14.5266 9.80958C14.5706 9.83571 14.6096 9.87089 14.6386 9.91411C14.9086 10.2297 15.2817 10.4367 15.6917 10.4971C15.4947 10.28 15.3567 10.0166 15.2897 9.73118C15.2247 9.44373 15.2697 9.1412 15.4157 8.88591C15.1717 9.04874 14.9946 9.29398 14.9176 9.57841L14.0386 9.36031C13.9745 9.34926 13.9145 9.32312 13.8635 9.28493C13.7525 9.18844 13.7795 9.01155 13.8145 8.86883" fill="url(#paint7_linear_57_76)"/>
<path d="M29.13 9.93021C29.4351 9.84478 29.7071 9.67191 29.9131 9.43069C29.3801 10.5735 28.1159 11.3273 26.8628 11.2509C27.5099 11.075 28.0569 10.6418 28.379 10.0508C28.0959 10.1081 27.8079 10.1654 27.5199 10.1443C27.2319 10.1232 26.9378 10.0136 26.7548 9.7885C27.0868 9.889 27.4619 9.78347 27.7319 9.56135C27.9959 9.33018 28.1829 9.02363 28.269 8.68291C28.294 8.6216 28.294 8.55326 28.269 8.49295C28.2409 8.45275 28.2009 8.42059 28.1549 8.4025C27.7119 8.17434 27.2459 7.99343 26.7648 7.86176C26.7208 7.84468 26.6728 7.84468 26.6288 7.86176C26.5878 7.89493 26.5608 7.94217 26.5538 7.99443C26.4158 8.43466 25.9797 8.73015 25.5287 8.81357C25.0777 8.89699 24.6126 8.79749 24.1756 8.66281C24.3106 9.13118 24.0966 9.62969 23.6645 9.85081C24.1006 10.2629 24.7706 10.2599 25.3687 10.2287C24.9186 10.5343 24.3626 10.6388 23.8326 10.5172C23.8086 11.0448 24.1516 11.5192 24.6596 11.6579C24.8646 11.2569 25.2327 10.9654 25.6677 10.8569C25.2377 11.0107 25.0127 11.4861 25.1647 11.9183C25.2327 12.1102 25.3677 12.27 25.5447 12.3685C25.3157 12.4359 25.0687 12.3504 24.9297 12.1544C24.9046 12.1092 24.8716 12.067 24.8346 12.0308C24.7616 11.9916 24.6786 11.9755 24.5966 11.9846C24.2246 11.9735 23.8876 11.7363 23.6635 11.4378C23.4395 11.1393 23.3095 10.7805 23.1825 10.4287L22.6114 11.1443C22.8275 10.7795 22.7585 10.281 23.0225 9.95031C23.1185 9.84679 23.2215 9.75131 23.3325 9.66387C23.7085 9.31511 23.8896 8.80352 23.8186 8.29395C23.6795 8.59648 23.3025 8.69397 22.9715 8.70904C22.4274 8.73216 21.8854 8.6216 21.3923 8.38842C21.9244 8.47989 22.4694 8.45777 22.9925 8.32209C23.2465 8.26781 23.4835 8.15324 23.6855 7.98941C23.8786 7.81654 24.0076 7.55321 23.9656 7.29691C24.9016 7.22153 25.8457 7.14615 26.7778 7.22153C27.6579 7.29289 28.669 7.50295 29.4331 7.97735C30.1041 8.39144 29.6001 9.54426 29.129 9.93021H29.13Z" fill="url(#paint8_linear_57_76)"/>
<path d="M28.473 28.2487C28.385 28.5191 28.169 28.7281 27.8969 28.8055C27.8969 28.8055 27.3709 29.2106 26.0498 28.3653V28.3884C26.0498 28.3945 26.0498 28.4005 26.0498 28.4055V28.4136C26.0498 28.4206 26.0478 28.4286 26.0458 28.4357C25.9928 28.709 25.7247 29.6779 24.5676 29.6779C23.9396 29.6779 23.3225 29.5141 22.7755 29.2015C22.6355 29.1231 22.5024 29.0327 22.3784 28.9292C22.3784 28.9292 22.2524 29.6769 21.1643 29.6769C20.0762 29.6769 20.3473 28.9603 20.3573 28.9292C20.2982 28.9764 18.1521 30.676 16.0359 28.2839C15.6458 27.8427 15.5008 27.1009 15.9038 26.8024C15.9449 26.7713 15.9889 26.7461 16.0359 26.727C16.5979 26.4999 17.27 27.4205 17.27 27.4205C17.27 27.4205 17.102 26.9934 17.663 26.6919C18.087 26.4647 18.2231 26.9461 18.2641 27.1944C18.2271 26.8326 18.1831 25.8446 18.7291 25.532C19.2912 25.2124 19.8262 25.9411 19.9892 26.1943C19.8582 25.9672 19.5482 25.325 20.0872 25.1953C20.6273 25.0656 20.9143 26.1019 20.9893 26.4627C20.9633 26.2657 20.9813 25.8968 21.4764 25.938C22.1534 25.9943 21.7334 27.4215 21.8854 27.4215C22.0374 27.4215 22.0034 26.0968 22.7505 25.8828C23.3975 25.6958 23.7276 26.5501 23.8066 26.7823C23.7356 26.5341 23.5145 25.5732 24.3956 25.5853C25.4057 25.5993 26.0538 26.8406 26.0538 26.8406C26.0428 26.6798 26.0538 26.518 26.0828 26.3602C26.1648 25.9471 26.4388 25.4807 27.3139 25.938C27.4979 26.0335 27.6689 26.1531 27.8219 26.2928C28.273 26.7029 28.517 27.2426 28.546 27.7211C28.558 27.9 28.532 28.0789 28.472 28.2477L28.473 28.2487Z" fill="#176CDF"/>
<path d="M28.473 28.2487C28.385 28.5191 28.169 28.7281 27.8969 28.8055C27.8969 28.8055 27.3709 29.2106 26.0498 28.3653V28.3884C26.0498 28.3945 26.0498 28.4005 26.0498 28.4055V28.4136C26.0498 28.4206 26.0478 28.4286 26.0458 28.4357C25.9928 28.709 25.7247 29.6779 24.5676 29.6779C23.9396 29.6779 23.3225 29.5141 22.7755 29.2015C22.6355 29.1231 22.5024 29.0327 22.3784 28.9292C22.3784 28.9292 22.2524 29.6769 21.1643 29.6769C20.0762 29.6769 20.3473 28.9603 20.3573 28.9292C20.2982 28.9764 18.1521 30.676 16.0359 28.2839C15.6458 27.8427 15.5008 27.1009 15.9038 26.8024C15.9449 26.7713 15.9889 26.7461 16.0359 26.727C16.5979 26.4999 17.27 27.4205 17.27 27.4205C17.27 27.4205 17.102 26.9934 17.663 26.6919C18.087 26.4647 18.2231 26.9461 18.2641 27.1944C18.2271 26.8326 18.1831 25.8446 18.7291 25.532C19.2912 25.2124 19.8262 25.9411 19.9892 26.1943C19.8582 25.9672 19.5482 25.325 20.0872 25.1953C20.6273 25.0656 20.9143 26.1019 20.9893 26.4627C20.9633 26.2657 20.9813 25.8968 21.4764 25.938C22.1534 25.9943 21.7334 27.4215 21.8854 27.4215C22.0374 27.4215 22.0034 26.0968 22.7505 25.8828C23.3975 25.6958 23.7276 26.5501 23.8066 26.7823C23.7356 26.5341 23.5145 25.5732 24.3956 25.5853C25.4057 25.5993 26.0538 26.8406 26.0538 26.8406C26.0428 26.6798 26.0538 26.518 26.0828 26.3602C26.1648 25.9471 26.4388 25.4807 27.3139 25.938C27.4979 26.0335 27.6689 26.1531 27.8219 26.2928C28.273 26.7029 28.517 27.2426 28.546 27.7211C28.558 27.9 28.532 28.0789 28.472 28.2477L28.473 28.2487Z" fill="url(#paint9_linear_57_76)"/>
<path d="M30.0009 6.74815C29.6959 6.64965 29.3749 6.55517 29.0409 6.46472C27.2127 5.97524 24.9615 5.63352 22.3663 5.56919C19.278 5.49381 16.3767 5.87675 14.0415 6.47577C14.2555 5.51793 14.7726 4.20128 16.0247 3.43542C18.1009 2.16399 19.784 3.43542 19.784 3.43542C19.784 3.43542 21.6912 1.28455 24.6095 2.16198C27.5277 3.04042 28.0338 5.91695 28.0338 5.91695C28.3508 5.85564 28.6758 5.85061 28.9938 5.90187C29.3099 5.95916 29.6309 6.09686 29.8289 6.39637C29.9019 6.50492 29.9599 6.62352 30.0009 6.74815Z" fill="#176CDF"/>
<path d="M30.0009 6.74815C29.6959 6.64965 29.3749 6.55517 29.0409 6.46472C27.2127 5.97524 24.9615 5.63352 22.3663 5.56919C19.278 5.49381 16.3767 5.87675 14.0415 6.47577C14.2555 5.51793 14.7726 4.20128 16.0247 3.43542C18.1009 2.16399 19.784 3.43542 19.784 3.43542C19.784 3.43542 21.6912 1.28455 24.6095 2.16198C27.5277 3.04042 28.0338 5.91695 28.0338 5.91695C28.3508 5.85564 28.6758 5.85061 28.9938 5.90187C29.3099 5.95916 29.6309 6.09686 29.8289 6.39637C29.9019 6.50492 29.9599 6.62352 30.0009 6.74815Z" fill="url(#paint10_linear_57_76)"/>
<path d="M19.7842 4.67767C19.7842 4.67767 17.595 3.43741 16.0249 4.90482C16.0249 4.90482 16.2459 3.45349 17.484 3.21227C18.7221 2.97105 19.7842 4.09573 19.7842 4.09573C19.7842 4.09573 21.3034 2.23031 23.4356 2.39514C25.5668 2.55997 26.6339 4.14297 26.6339 4.60832C26.6339 5.27569 25.7718 6.29986 24.6557 5.49681C23.8926 4.94703 24.7517 3.88868 24.7517 3.88868C24.7517 3.88868 24.9587 3.2585 22.9865 3.15598C21.0143 3.05347 19.7842 4.67867 19.7842 4.67867V4.67767Z" fill="url(#paint11_linear_57_76)"/>
<path d="M15.7387 6.39838C15.5037 6.5421 16.6408 4.62241 18.0439 4.90383C19.447 5.18525 20.0271 6.50793 20.0271 6.50793C20.0271 6.50793 18.0919 4.96011 15.7387 6.39838Z" fill="#176CDF"/>
<path d="M28.9939 5.9039C29.3099 5.96119 29.631 6.09888 29.829 6.3984C29.902 6.50694 29.96 6.62454 30 6.74816C29.695 6.64966 29.374 6.55519 29.0399 6.46473C29.0489 6.27678 29.0329 6.08783 28.9929 5.90289L28.9939 5.9039Z" fill="#176CDF"/>
<path d="M34.3195 9.88099C34.2905 10.7192 33.2764 11.2921 32.2683 11.657C31.6143 11.8861 30.9432 12.059 30.2601 12.1736C30.3601 12.0982 30.4552 12.0158 30.5422 11.9253C30.5902 11.8771 30.6362 11.8268 30.6792 11.7746C30.7132 11.7344 30.7462 11.6931 30.7772 11.6489C30.7982 11.6198 30.8182 11.5916 30.8382 11.5615C31.0312 11.278 31.1622 10.9564 31.2212 10.6177C31.2212 10.6177 32.3493 10.4921 32.1833 9.59052C32.1123 9.21262 31.5823 8.75933 30.4612 8.35126C28.912 7.78239 26.2338 7.28488 22.0734 7.13713C17.586 6.97833 14.4797 7.55926 12.7806 8.18844C11.7635 8.56635 11.2514 8.96034 11.2514 9.22468C11.2514 9.92923 12.1935 10.0659 12.1945 10.0659C12.1805 10.5031 12.2915 10.9343 12.5145 11.3092C12.5145 11.3092 11.0604 11.3615 9.92831 10.9906C9.8823 10.9755 9.8363 10.9594 9.79129 10.9434C9.68628 10.9052 9.58327 10.8619 9.48327 10.8127C9.38726 10.7665 9.29425 10.7122 9.20624 10.6529C8.85221 10.4137 8.61719 10.088 8.61719 9.6458C8.61719 8.59248 10.7724 7.32307 14.0387 6.48283C16.3739 5.87878 19.2751 5.50087 22.3634 5.57625C25.4347 5.65163 28.0239 6.11698 29.9981 6.7552C32.7884 7.65274 34.3525 8.90004 34.3195 9.883V9.88099Z" fill="#176CDF"/>
<path opacity="0.4" d="M26.1817 12.4319C26.1817 12.4319 25.7887 13.3284 24.2175 13.5143C22.8904 13.6721 22.0534 12.2801 21.8253 11.8429C21.7833 11.7625 21.7623 11.7142 21.7623 11.7142C21.7623 11.7142 21.7333 11.7615 21.6783 11.8368C21.3223 12.3223 19.8682 13.9847 17.877 11.865C17.877 11.865 16.3058 13.5314 13.8916 12.4319C13.1976 12.1163 12.7695 11.7213 12.5175 11.2981C12.2945 10.9232 12.1835 10.4911 12.1975 10.0548C12.2065 9.42667 12.4235 8.86182 12.5445 8.54321C12.5805 9.38547 12.7555 10.5302 13.3876 11.3001C14.4947 12.653 16.7379 12.3424 17.869 11.3001C17.869 11.3001 18.7151 12.2489 19.7852 12.4278C20.8562 12.6067 22.0784 11.1212 22.0784 11.1212C22.0784 11.1212 22.2574 12.6047 23.7465 12.9274C25.2356 13.25 26.1837 12.4319 26.1837 12.4319H26.1817Z" fill="#176CDF"/>
<path d="M33.5175 10.6689C33.4495 10.8508 33.3404 11.0137 33.1974 11.1453C33.0664 11.2649 32.9154 11.3614 32.7514 11.4288C32.6764 11.4579 32.6064 11.4881 32.5344 11.5182L32.3144 11.5936C32.1703 11.6388 32.0323 11.683 31.8963 11.7142C31.6263 11.7815 31.3763 11.8248 31.1493 11.8579C30.9222 11.8911 30.7182 11.9122 30.5412 11.9273C30.5892 11.879 30.6352 11.8288 30.6782 11.7765C30.8132 11.7564 30.9622 11.7323 31.1223 11.7011C31.3663 11.6549 31.6073 11.5966 31.8443 11.5263C31.9743 11.4901 32.1073 11.4448 32.2434 11.3966L32.4474 11.3212L32.6614 11.2257C32.9454 11.1081 33.1674 10.878 33.2754 10.5885C33.3244 10.4337 33.3365 10.2689 33.3114 10.1081C33.2834 9.93522 33.2264 9.76737 33.1434 9.61259C32.9544 9.27288 32.7014 8.97437 32.3994 8.73214C32.0723 8.46278 31.7183 8.22961 31.3433 8.03563C31.1513 7.9321 30.9482 7.83863 30.7422 7.74817C30.6412 7.70295 30.5312 7.66174 30.4242 7.61651C30.3172 7.57128 30.2102 7.54113 30.1022 7.49891L29.7751 7.38132L29.4371 7.27981L29.0961 7.1793L28.746 7.09387C27.779 6.86672 26.7979 6.70088 25.8088 6.59937C24.7977 6.49082 23.7646 6.42047 22.7295 6.37825C21.6954 6.33705 20.6583 6.31996 19.6362 6.30287L18.8721 6.29182C18.6201 6.29182 18.3731 6.29182 18.1251 6.30287C17.63 6.32901 17.141 6.37122 16.663 6.44358C15.7429 6.57826 14.8328 6.77727 13.9407 7.03859C13.1386 7.26775 12.3506 7.54615 11.5815 7.86979C11.2275 8.02055 10.8874 8.17734 10.5784 8.34117C10.5034 8.38238 10.4234 8.41655 10.3484 8.46278L10.1274 8.59244C9.98935 8.67284 9.85534 8.76129 9.72733 8.85577C9.4803 9.0397 9.27029 9.24373 9.15327 9.47088C9.04226 9.67692 9.02026 9.92014 9.09427 10.1433C9.15828 10.3282 9.25028 10.5021 9.3683 10.6589C9.4073 10.7121 9.4433 10.7604 9.4803 10.8096C9.3843 10.7634 9.29129 10.7091 9.20328 10.6498C9.16828 10.6026 9.13527 10.5513 9.10127 10.4991C9.04227 10.4036 8.99326 10.3021 8.95526 10.1965C8.91225 10.0739 8.89225 9.94427 8.89625 9.81461C8.90325 9.67089 8.93926 9.53017 9.00426 9.40253C9.13627 9.13618 9.36329 8.91406 9.61732 8.71606C9.74933 8.61355 9.88734 8.51907 10.0304 8.43364L10.2504 8.30298C10.3254 8.25875 10.4054 8.21855 10.4854 8.17533C10.8024 8.00145 11.1415 7.84466 11.5005 7.68385C12.2746 7.34815 13.0666 7.05769 13.8737 6.81546C14.7758 6.54208 15.6949 6.33102 16.6259 6.18327C17.11 6.10789 17.603 6.05663 18.1121 6.02447C18.3651 6.01341 18.6211 6.00738 18.8751 6.00537H19.6392C20.6613 6.00537 21.7014 6.01944 22.7425 6.05562C23.7826 6.09181 24.8237 6.15211 25.8448 6.26569C26.8479 6.3682 27.844 6.53605 28.825 6.76822C28.9451 6.79737 29.0631 6.82652 29.1811 6.85667C29.2991 6.88682 29.4161 6.92502 29.5311 6.95919L29.8781 7.06271L30.2162 7.18332C30.3282 7.22453 30.4382 7.2587 30.5512 7.30594C30.6642 7.35318 30.7642 7.39238 30.8702 7.44163C31.0862 7.53811 31.2933 7.63762 31.4933 7.74415C31.8883 7.9512 32.2584 8.20247 32.5984 8.49193C32.9264 8.76431 33.1974 9.09799 33.3975 9.47389C33.4935 9.65782 33.5575 9.85783 33.5845 10.0639C33.6095 10.2679 33.5855 10.4749 33.5165 10.6679L33.5175 10.6689Z" fill="#176CDF"/>
<path d="M32.9183 10.2247C32.8863 10.3996 32.8133 10.5644 32.7043 10.7051C32.6042 10.8358 32.4862 10.9504 32.3522 11.0459C32.1152 11.2137 31.8552 11.3464 31.5812 11.4408C31.3501 11.5213 31.1141 11.5856 30.8741 11.6308L30.7791 11.6479C30.8001 11.6187 30.8201 11.5906 30.8401 11.5605L30.8591 11.5554C31.0941 11.5052 31.3241 11.4368 31.5482 11.3514C31.8112 11.2549 32.0602 11.1222 32.2882 10.9574C32.4112 10.8669 32.5192 10.7584 32.6113 10.6368C32.7063 10.5112 32.7703 10.3634 32.7953 10.2066C32.8183 10.0418 32.7993 9.87393 32.7383 9.71915C32.6723 9.55532 32.5822 9.40255 32.4702 9.26586C32.4132 9.1935 32.3512 9.12314 32.2872 9.05781C32.2552 9.02464 32.2222 8.99047 32.1862 8.9563C32.1502 8.92213 32.1182 8.89398 32.0812 8.86082C31.9322 8.73619 31.7712 8.62462 31.6012 8.52914C31.2401 8.32511 30.8611 8.15525 30.4681 8.02258C29.613 7.74518 28.7389 7.5311 27.8518 7.38436C26.9297 7.22355 25.9717 7.10294 24.9886 7.01148C24.0055 6.92001 23.0104 6.86071 22.0103 6.82453C21.0102 6.78935 20.0111 6.78433 19.028 6.80745C18.0659 6.82353 17.1049 6.90293 16.1528 7.04364C15.2627 7.17329 14.3816 7.36024 13.5145 7.60347C12.7375 7.81855 11.9764 8.08892 11.2383 8.41155C10.9103 8.55527 10.5913 8.71709 10.2802 8.89499C10.1332 8.98143 9.99322 9.06987 9.86321 9.16234C9.7982 9.20857 9.7372 9.25581 9.67619 9.30707C9.61818 9.35431 9.56518 9.40758 9.51617 9.46386C9.42317 9.56939 9.36316 9.69905 9.34216 9.83775C9.32816 9.96841 9.34816 10.1011 9.40016 10.2227C9.49817 10.4408 9.62919 10.6418 9.7882 10.8197C9.8372 10.877 9.88521 10.9313 9.93121 10.9825C9.88521 10.9675 9.8392 10.9514 9.7942 10.9353L9.73319 10.8669C9.56618 10.685 9.42817 10.478 9.32416 10.2539C9.26615 10.1202 9.24215 9.97344 9.25515 9.8287C9.27715 9.67191 9.34216 9.52517 9.44417 9.40456C9.49517 9.34225 9.55218 9.28596 9.61418 9.2337C9.67319 9.18244 9.73919 9.13219 9.8052 9.08294C9.93921 8.98746 10.0822 8.897 10.2302 8.80855C10.5433 8.62663 10.8653 8.4618 11.1953 8.31406C11.9374 7.98439 12.7025 7.70799 13.4835 7.48688C14.3536 7.23762 15.2387 7.04364 16.1338 6.90795C17.0909 6.76121 18.0569 6.67679 19.025 6.65367C20.0121 6.62754 21.0162 6.63357 22.0183 6.66673C23.0204 6.6989 24.0225 6.7592 25.0066 6.84966C25.9907 6.93911 26.9547 7.05871 27.8828 7.22053C28.7789 7.36627 29.661 7.58437 30.5221 7.87283C30.9231 8.00851 31.3101 8.18239 31.6792 8.39145C31.8562 8.49195 32.0232 8.60955 32.1782 8.74222C32.3262 8.87187 32.4622 9.0156 32.5822 9.17139C32.7013 9.32215 32.7963 9.48999 32.8633 9.6699C32.9293 9.8468 32.9483 10.0378 32.9193 10.2247H32.9183Z" fill="#176CDF"/>
<path d="M34.3195 9.88099C34.2905 10.7192 33.2764 11.2921 32.2683 11.657C31.6143 11.8861 30.9432 12.059 30.2601 12.1736C30.3601 12.0982 30.4552 12.0158 30.5422 11.9253C30.5902 11.8771 30.6362 11.8268 30.6792 11.7746C30.7132 11.7344 30.7462 11.6931 30.7772 11.6489C30.7982 11.6198 30.8182 11.5916 30.8382 11.5615C31.0312 11.278 31.1622 10.9564 31.2212 10.6177C31.2212 10.6177 32.3493 10.4921 32.1833 9.59052C32.1123 9.21262 31.5823 8.75933 30.4612 8.35126C28.912 7.78239 26.2338 7.28488 22.0734 7.13713C17.586 6.97833 14.4797 7.55926 12.7806 8.18844C11.7635 8.56635 11.2514 8.96034 11.2514 9.22468C11.2514 9.92923 12.1935 10.0659 12.1945 10.0659C12.1805 10.5031 12.2915 10.9343 12.5145 11.3092C12.5145 11.3092 11.0604 11.3615 9.92831 10.9906C9.8823 10.9755 9.8363 10.9594 9.79129 10.9434C9.68628 10.9052 9.58327 10.8619 9.48327 10.8127C9.38726 10.7665 9.29425 10.7122 9.20624 10.6529C8.85221 10.4137 8.61719 10.088 8.61719 9.6458C8.61719 8.59248 10.7724 7.32307 14.0387 6.48283C16.3739 5.87878 19.2751 5.50087 22.3634 5.57625C25.4347 5.65163 28.0239 6.11698 29.9981 6.7552C32.7884 7.65274 34.3525 8.90004 34.3195 9.883V9.88099Z" fill="url(#paint12_linear_57_76)"/>
<path d="M33.5175 10.6689C33.4495 10.8508 33.3404 11.0137 33.1974 11.1453C33.0664 11.2649 32.9154 11.3614 32.7514 11.4288C32.6764 11.4579 32.6064 11.4881 32.5344 11.5182L32.3144 11.5936C32.1703 11.6388 32.0323 11.683 31.8963 11.7142C31.6263 11.7815 31.3763 11.8248 31.1493 11.8579C30.9222 11.8911 30.7182 11.9122 30.5412 11.9273C30.5892 11.879 30.6352 11.8288 30.6782 11.7765C30.8132 11.7564 30.9622 11.7323 31.1223 11.7011C31.3663 11.6549 31.6073 11.5966 31.8443 11.5263C31.9743 11.4901 32.1073 11.4448 32.2434 11.3966L32.4474 11.3212L32.6614 11.2257C32.9454 11.1081 33.1674 10.878 33.2754 10.5885C33.3244 10.4337 33.3365 10.2689 33.3114 10.1081C33.2834 9.93522 33.2264 9.76737 33.1434 9.61259C32.9544 9.27288 32.7014 8.97437 32.3994 8.73214C32.0723 8.46278 31.7183 8.22961 31.3433 8.03563C31.1513 7.9321 30.9482 7.83863 30.7422 7.74817C30.6412 7.70295 30.5312 7.66174 30.4242 7.61651C30.3172 7.57128 30.2102 7.54113 30.1022 7.49891L29.7751 7.38132L29.4371 7.27981L29.0961 7.1793L28.746 7.09387C27.779 6.86672 26.7979 6.70088 25.8088 6.59937C24.7977 6.49082 23.7646 6.42047 22.7295 6.37825C21.6954 6.33705 20.6583 6.31996 19.6362 6.30287L18.8721 6.29182C18.6201 6.29182 18.3731 6.29182 18.1251 6.30287C17.63 6.32901 17.141 6.37122 16.663 6.44358C15.7429 6.57826 14.8328 6.77727 13.9407 7.03859C13.1386 7.26775 12.3506 7.54615 11.5815 7.86979C11.2275 8.02055 10.8874 8.17734 10.5784 8.34117C10.5034 8.38238 10.4234 8.41655 10.3484 8.46278L10.1274 8.59244C9.98935 8.67284 9.85534 8.76129 9.72733 8.85577C9.4803 9.0397 9.27029 9.24373 9.15327 9.47088C9.04226 9.67692 9.02026 9.92014 9.09427 10.1433C9.15828 10.3282 9.25028 10.5021 9.3683 10.6589C9.4073 10.7121 9.4433 10.7604 9.4803 10.8096C9.3843 10.7634 9.29129 10.7091 9.20328 10.6498C9.16828 10.6026 9.13527 10.5513 9.10127 10.4991C9.04227 10.4036 8.99326 10.3021 8.95526 10.1965C8.91225 10.0739 8.89225 9.94427 8.89625 9.81461C8.90325 9.67089 8.93926 9.53017 9.00426 9.40253C9.13627 9.13618 9.36329 8.91406 9.61732 8.71606C9.74933 8.61355 9.88734 8.51907 10.0304 8.43364L10.2504 8.30298C10.3254 8.25875 10.4054 8.21855 10.4854 8.17533C10.8024 8.00145 11.1415 7.84466 11.5005 7.68385C12.2746 7.34815 13.0666 7.05769 13.8737 6.81546C14.7758 6.54208 15.6949 6.33102 16.6259 6.18327C17.11 6.10789 17.603 6.05663 18.1121 6.02447C18.3651 6.01341 18.6211 6.00738 18.8751 6.00537H19.6392C20.6613 6.00537 21.7014 6.01944 22.7425 6.05562C23.7826 6.09181 24.8237 6.15211 25.8448 6.26569C26.8479 6.3682 27.844 6.53605 28.825 6.76822C28.9451 6.79737 29.0631 6.82652 29.1811 6.85667C29.2991 6.88682 29.4161 6.92502 29.5311 6.95919L29.8781 7.06271L30.2162 7.18332C30.3282 7.22453 30.4382 7.2587 30.5512 7.30594C30.6642 7.35318 30.7642 7.39238 30.8702 7.44163C31.0862 7.53811 31.2933 7.63762 31.4933 7.74415C31.8883 7.9512 32.2584 8.20247 32.5984 8.49193C32.9264 8.76431 33.1974 9.09799 33.3975 9.47389C33.4935 9.65782 33.5575 9.85783 33.5845 10.0639C33.6095 10.2679 33.5855 10.4749 33.5165 10.6679L33.5175 10.6689Z" fill="url(#paint13_linear_57_76)"/>
<path d="M32.9183 10.2247C32.8863 10.3996 32.8133 10.5644 32.7043 10.7051C32.6042 10.8358 32.4862 10.9504 32.3522 11.0459C32.1152 11.2137 31.8552 11.3464 31.5812 11.4408C31.3501 11.5213 31.1141 11.5856 30.8741 11.6308L30.7791 11.6479C30.8001 11.6187 30.8201 11.5906 30.8401 11.5605L30.8591 11.5554C31.0941 11.5052 31.3241 11.4368 31.5482 11.3514C31.8112 11.2549 32.0602 11.1222 32.2882 10.9574C32.4112 10.8669 32.5192 10.7584 32.6113 10.6368C32.7063 10.5112 32.7703 10.3634 32.7953 10.2066C32.8183 10.0418 32.7993 9.87393 32.7383 9.71915C32.6723 9.55532 32.5822 9.40255 32.4702 9.26586C32.4132 9.1935 32.3512 9.12314 32.2872 9.05781C32.2552 9.02464 32.2222 8.99047 32.1862 8.9563C32.1502 8.92213 32.1182 8.89398 32.0812 8.86082C31.9322 8.73619 31.7712 8.62462 31.6012 8.52914C31.2401 8.32511 30.8611 8.15525 30.4681 8.02258C29.613 7.74518 28.7389 7.5311 27.8518 7.38436C26.9297 7.22355 25.9717 7.10294 24.9886 7.01148C24.0055 6.92001 23.0104 6.86071 22.0103 6.82453C21.0102 6.78935 20.0111 6.78433 19.028 6.80745C18.0659 6.82353 17.1049 6.90293 16.1528 7.04364C15.2627 7.17329 14.3816 7.36024 13.5145 7.60347C12.7375 7.81855 11.9764 8.08892 11.2383 8.41155C10.9103 8.55527 10.5913 8.71709 10.2802 8.89499C10.1332 8.98143 9.99322 9.06987 9.86321 9.16234C9.7982 9.20857 9.7372 9.25581 9.67619 9.30707C9.61818 9.35431 9.56518 9.40758 9.51617 9.46386C9.42317 9.56939 9.36316 9.69905 9.34216 9.83775C9.32816 9.96841 9.34816 10.1011 9.40016 10.2227C9.49817 10.4408 9.62919 10.6418 9.7882 10.8197C9.8372 10.877 9.88521 10.9313 9.93121 10.9825C9.88521 10.9675 9.8392 10.9514 9.7942 10.9353L9.73319 10.8669C9.56618 10.685 9.42817 10.478 9.32416 10.2539C9.26615 10.1202 9.24215 9.97344 9.25515 9.8287C9.27715 9.67191 9.34216 9.52517 9.44417 9.40456C9.49517 9.34225 9.55218 9.28596 9.61418 9.2337C9.67319 9.18244 9.73919 9.13219 9.8052 9.08294C9.93921 8.98746 10.0822 8.897 10.2302 8.80855C10.5433 8.62663 10.8653 8.4618 11.1953 8.31406C11.9374 7.98439 12.7025 7.70799 13.4835 7.48688C14.3536 7.23762 15.2387 7.04364 16.1338 6.90795C17.0909 6.76121 18.0569 6.67679 19.025 6.65367C20.0121 6.62754 21.0162 6.63357 22.0183 6.66673C23.0204 6.6989 24.0225 6.7592 25.0066 6.84966C25.9907 6.93911 26.9547 7.05871 27.8828 7.22053C28.7789 7.36627 29.661 7.58437 30.5221 7.87283C30.9231 8.00851 31.3101 8.18239 31.6792 8.39145C31.8562 8.49195 32.0232 8.60955 32.1782 8.74222C32.3262 8.87187 32.4622 9.0156 32.5822 9.17139C32.7013 9.32215 32.7963 9.48999 32.8633 9.6699C32.9293 9.8468 32.9483 10.0378 32.9193 10.2247H32.9183Z" fill="url(#paint14_linear_57_76)"/>
<path opacity="0.4" d="M21.7252 24.1942C21.4242 23.6354 20.8892 24.2385 20.8001 24.0435C20.7631 23.75 20.7891 23.4485 21.0042 23.3078C21.4942 22.9861 21.7262 23.743 21.7262 23.743C21.7562 23.3651 21.7642 22.8404 21.7562 22.2223C22.4393 22.9037 21.7252 24.1953 21.7252 24.1953V24.1942Z" fill="#176CDF"/>
<path opacity="0.4" d="M18.8299 27.096C18.7739 27.0115 18.7179 26.1934 19.335 26.2788C19.952 26.3633 20.21 27.2095 20.21 27.2095C19.996 26.9522 19.694 26.7844 19.363 26.7412C18.8169 26.6768 18.8299 27.096 18.8299 27.096Z" fill="#176CDF"/>
<path opacity="0.4" d="M24.0094 26.9662C23.8124 26.7843 23.5384 26.6396 23.2083 26.7391C22.5043 26.9542 22.8433 27.8276 22.8433 27.8276C22.8433 27.8276 22.8123 26.9813 23.4294 26.925C24.0464 26.8688 24.3555 27.4236 24.3555 27.4236C24.3024 27.3241 24.2414 27.2306 24.1714 27.1421C24.1714 27.1421 24.2394 26.4456 24.7455 26.5582C25.2525 26.6708 25.3645 26.8014 25.3645 26.8014C25.3645 26.8014 24.6145 25.7039 24.0074 26.9652L24.0094 26.9662Z" fill="#176CDF"/>
<path opacity="0.4" d="M27.8119 26.2949C26.9928 26.0677 26.1078 26.2386 26.0728 26.3612C26.1548 25.9481 26.4288 25.4818 27.3039 25.9391C27.4879 26.0346 27.6589 26.1542 27.8119 26.2939V26.2949Z" fill="#176CDF"/>
<path opacity="0.4" d="M26.0327 28.4347C25.9797 28.7081 25.7117 29.677 24.5546 29.677C23.9266 29.677 23.3095 29.5131 22.7625 29.2006C22.8685 29.2589 24.1676 29.5373 24.8196 29.3815C25.4417 29.2327 25.9347 28.893 26.0327 28.4347Z" fill="#176CDF"/>
<path opacity="0.4" d="M28.473 28.2487C28.385 28.5191 28.169 28.7281 27.897 28.8055C27.897 28.8055 27.3709 29.2106 26.0498 28.3653C26.1058 28.3834 27.6389 28.8538 28.473 28.2487Z" fill="#176CDF"/>
<path d="M33.5664 32.2912C33.5394 31.5012 32.5833 30.9615 31.6342 30.6187C31.0182 30.4027 30.3861 30.2398 29.7421 30.1313C29.6751 30.1052 29.7791 30.4529 29.8081 30.4941C29.8281 30.5213 29.8411 31.0982 29.8891 31.3846L30.6522 31.5997C30.6522 31.5997 31.7173 31.7173 31.5542 32.5686C31.4872 32.9254 30.9892 33.3475 29.9321 33.7365C28.473 34.2722 25.9467 34.7406 22.0304 34.8793C17.803 35.03 14.8767 34.4823 13.2766 33.8893C12.3175 33.5345 11.8365 33.1616 11.8365 32.9133C11.8365 32.25 12.5715 32.1475 12.5715 32.1475C12.5665 31.9243 12.5805 31.7012 12.6135 31.4811L12.5845 30.9283C11.9065 30.9283 11.2334 31.0369 10.5894 31.2469L10.4603 31.2911C10.3593 31.3293 10.2623 31.3665 10.1703 31.4148C10.0793 31.459 9.9923 31.5092 9.9083 31.5655C9.57527 31.7927 9.35425 32.0942 9.35425 32.5143C9.35425 33.5063 11.3844 34.7054 14.4617 35.4934C16.6619 36.0592 19.3941 36.419 22.3034 36.3487C25.1967 36.2783 27.6359 35.8401 29.4961 35.2391C32.1233 34.3948 33.5964 33.2159 33.5664 32.2902V32.2912Z" fill="#176CDF"/>
<path d="M33.5664 32.2912C33.5394 31.5012 32.5833 30.9615 31.6342 30.6187C31.0182 30.4027 30.3861 30.2398 29.7421 30.1313C29.6751 30.1052 29.7791 30.4529 29.8081 30.4941C29.8281 30.5213 29.8411 31.0982 29.8891 31.3846L30.6522 31.5997C30.6522 31.5997 31.7173 31.7173 31.5542 32.5686C31.4872 32.9254 30.9892 33.3475 29.9321 33.7365C28.473 34.2722 25.9467 34.7406 22.0304 34.8793C17.803 35.03 14.8767 34.4823 13.2766 33.8893C12.3175 33.5345 11.8365 33.1616 11.8365 32.9133C11.8365 32.25 12.5715 32.1475 12.5715 32.1475C12.5665 31.9243 12.5805 31.7012 12.6135 31.4811L12.5845 30.9283C11.9065 30.9283 11.2334 31.0369 10.5894 31.2469L10.4603 31.2911C10.3593 31.3293 10.2623 31.3665 10.1703 31.4148C10.0793 31.459 9.9923 31.5092 9.9083 31.5655C9.57527 31.7927 9.35425 32.0942 9.35425 32.5143C9.35425 33.5063 11.3844 34.7054 14.4617 35.4934C16.6619 36.0592 19.3941 36.419 22.3034 36.3487C25.1967 36.2783 27.6359 35.8401 29.4961 35.2391C32.1233 34.3948 33.5964 33.2159 33.5664 32.2902V32.2912Z" fill="url(#paint15_linear_57_76)"/>
<path d="M32.8124 31.5504C32.7484 31.3796 32.6454 31.2258 32.5114 31.1012C32.3873 30.9886 32.2453 30.8982 32.0913 30.8338C32.0223 30.8067 31.9543 30.7785 31.8873 30.7504L31.6803 30.675C31.5443 30.6318 31.4153 30.5906 31.2862 30.5615C31.0542 30.5042 30.8192 30.4589 30.5832 30.4258C30.3692 30.3956 29.9301 30.3725 29.7631 30.3574C29.8071 30.4027 29.7771 30.4499 29.8181 30.5011C29.9461 30.5202 30.4072 30.5454 30.5582 30.5765C30.7652 30.6177 30.9962 30.669 31.2392 30.7424C31.3613 30.7765 31.4863 30.8177 31.6153 30.864L31.8073 30.9394L32.0083 31.0288C32.2753 31.1394 32.4844 31.3565 32.5864 31.6288C32.6324 31.7756 32.6444 31.9304 32.6204 32.0821C32.5944 32.246 32.5404 32.4038 32.4624 32.5495C32.2843 32.8701 32.0463 33.1525 31.7613 33.3807C31.4533 33.634 31.1202 33.8541 30.7662 34.037C30.5862 34.1345 30.3952 34.2229 30.2021 34.3074C30.1071 34.3506 30.0041 34.3888 29.9011 34.431C29.7981 34.4732 29.7001 34.5064 29.6001 34.5416L29.2921 34.6521L28.973 34.7476L28.651 34.8421L28.322 34.9225C27.4109 35.1376 26.4868 35.2923 25.5557 35.3878C24.6026 35.4893 23.6296 35.5567 22.6555 35.5959C21.6814 35.6341 20.7003 35.6512 19.7412 35.6642L19.0221 35.6743C18.7851 35.6743 18.5521 35.6703 18.3181 35.6642C17.851 35.6391 17.391 35.5989 16.941 35.5316C16.0739 35.4039 15.2168 35.217 14.3757 34.9697C13.6197 34.7526 12.8776 34.4903 12.1535 34.1848C11.8195 34.04 11.4995 33.8943 11.2084 33.7405C11.1334 33.7023 11.0624 33.6651 10.9914 33.6259C10.9204 33.5867 10.8524 33.5445 10.7834 33.5053C10.6534 33.4289 10.5284 33.3465 10.4074 33.2571C10.1754 33.0842 9.97633 32.8922 9.86632 32.6771C9.76131 32.4822 9.74131 32.253 9.81032 32.0429C9.87032 31.8681 9.95733 31.7042 10.0693 31.5575C10.1053 31.5072 10.1443 31.462 10.1743 31.4168C10.0833 31.461 9.99633 31.5112 9.91233 31.5675C9.88032 31.6118 9.84732 31.66 9.81632 31.7123C9.76031 31.8027 9.71431 31.8992 9.67931 31.9997C9.5893 32.245 9.6063 32.5163 9.72431 32.7485C9.84832 32.9998 10.0623 33.2078 10.3024 33.3948C10.4264 33.4923 10.5564 33.5807 10.6914 33.6611L10.8984 33.7847C10.9694 33.8259 11.0444 33.8601 11.1184 33.9053C11.4195 34.0682 11.7375 34.2169 12.0745 34.3687C12.8036 34.6853 13.5497 34.9577 14.3107 35.1858C15.1598 35.4441 16.0269 35.6431 16.903 35.7808C17.359 35.8562 17.828 35.9004 18.3041 35.9316C18.5421 35.9416 18.7841 35.9466 19.0231 35.9487H19.7422C20.7053 35.9487 21.6854 35.9346 22.6655 35.9014C23.6456 35.8672 24.6266 35.811 25.5877 35.7044C26.5328 35.6049 27.4709 35.4451 28.395 35.225L28.73 35.1416L29.06 35.0451L29.3861 34.9476L29.7041 34.833C29.8091 34.7938 29.9121 34.7576 30.0201 34.7174C30.1281 34.6772 30.2212 34.636 30.3212 34.5898C30.5242 34.4993 30.7192 34.4059 30.9072 34.3034C31.2792 34.1084 31.6283 33.8722 31.9483 33.5988C32.2563 33.3415 32.5124 33.0269 32.7004 32.6721C32.7894 32.4972 32.8474 32.3083 32.8714 32.1133C32.8934 31.9223 32.8714 31.7293 32.8084 31.5484L32.8124 31.5504Z" fill="url(#paint16_linear_57_76)"/>
<path d="M32.2472 31.9655C32.2172 31.8007 32.1482 31.6449 32.0462 31.5123C31.9511 31.3906 31.8401 31.2831 31.7141 31.1936C31.4911 31.0359 31.2461 30.9102 30.9871 30.8218C30.77 30.7454 30.547 30.6861 30.321 30.6429C30.289 30.6378 29.859 30.5946 29.83 30.5896C29.85 30.6157 29.8219 30.6529 29.841 30.6821L30.288 30.7112L30.306 30.7152C30.527 30.7635 30.744 30.8268 30.9551 30.9072C31.2031 30.9987 31.4381 31.1233 31.6531 31.2791C31.7681 31.3645 31.8711 31.466 31.9571 31.5816C32.0461 31.7002 32.1062 31.8399 32.1312 31.9867C32.1522 32.1414 32.1342 32.3002 32.0772 32.446C32.0151 32.6018 31.9301 32.7475 31.8241 32.8772C31.7701 32.9455 31.7131 33.0108 31.6521 33.0731C31.6211 33.1043 31.5901 33.1355 31.5571 33.1686C31.5241 33.2018 31.4931 33.2279 31.4591 33.2581C31.3191 33.3757 31.1681 33.4802 31.0081 33.5697C30.667 33.7586 30.309 33.9154 29.94 34.038C29.1349 34.3003 28.3108 34.5034 27.4757 34.6421C26.6077 34.7928 25.7016 34.9084 24.7785 34.9938C23.8554 35.0803 22.9153 35.1356 21.9732 35.1687C21.0312 35.2019 20.0901 35.2069 19.163 35.1858C18.2569 35.1697 17.3528 35.0954 16.4567 34.9637C15.6197 34.8411 14.7906 34.6642 13.9755 34.435C13.2435 34.233 12.5264 33.9787 11.8303 33.6742C11.5223 33.5385 11.2213 33.3877 10.9283 33.2209C10.7902 33.1395 10.6582 33.0571 10.5352 32.9696C10.4752 32.9254 10.4162 32.8812 10.3592 32.8329C10.3042 32.7877 10.2542 32.7364 10.2092 32.6822C10.1222 32.5827 10.0642 32.461 10.0442 32.3304C10.0322 32.2068 10.0502 32.0821 10.0992 31.9686C10.1912 31.7635 10.3142 31.5736 10.4642 31.4067C10.5112 31.3525 10.5562 31.3022 10.5992 31.256L10.4702 31.3002C10.4522 31.3203 10.4322 31.3424 10.4132 31.3645C10.2552 31.5364 10.1252 31.7314 10.0272 31.9424C9.97217 32.0691 9.95017 32.2068 9.96217 32.3435C9.98217 32.4912 10.0442 32.6289 10.1402 32.7425C10.1882 32.8008 10.2422 32.855 10.3002 32.9033C10.3562 32.9515 10.4172 32.9988 10.4802 33.046C10.6062 33.1355 10.7402 33.2209 10.8792 33.3053C11.1713 33.4742 11.4723 33.6279 11.7803 33.7666C12.4804 34.0782 13.2005 34.3395 13.9365 34.5486C14.7566 34.7838 15.5907 34.9657 16.4337 35.0933C17.3358 35.232 18.2449 35.3114 19.157 35.3326C20.0871 35.3577 21.0322 35.3506 21.9762 35.3205C22.9203 35.2903 23.8634 35.228 24.7875 35.1456C25.7116 35.0622 26.6237 34.9486 27.4937 34.7958C28.3378 34.6592 29.1689 34.4541 29.98 34.1817C30.358 34.0541 30.723 33.8903 31.0701 33.6943C31.2361 33.5988 31.3941 33.4882 31.5401 33.3636C31.6821 33.243 31.8131 33.1083 31.9291 32.9626C32.0411 32.8209 32.1302 32.6621 32.1942 32.4922C32.2562 32.3254 32.2732 32.1445 32.2452 31.9686L32.2472 31.9655Z" fill="url(#paint17_linear_57_76)"/>
<path d="M9.12116 34.435C9.44919 35.9154 9.24517 37.5939 9.97424 38.8784C9.75422 38.8141 9.5362 38.7467 9.31818 38.6744C7.62903 38.1206 5.99188 37.3577 4.58775 36.2632C3.77268 35.626 3.04562 34.8832 2.42456 34.054C2.43356 33.9324 2.44756 33.8118 2.46856 33.6912C3.02761 30.5021 6.51693 31.1624 8.67912 32.068C8.59411 32.8168 8.4301 33.5535 8.19008 34.2671L7.42001 33.6842C6.56993 34.3646 6.42492 35.7707 7.11898 36.613C7.69703 35.8089 8.36909 35.0782 9.12016 34.435H9.12116Z" fill="url(#paint18_linear_57_76)"/>
<path d="M38.9988 34.6682C39.2909 33.5344 39.1338 32.3052 38.3578 31.4549C38.7988 33.3113 37.9587 35.4049 36.3596 36.4351C37.0697 35.5958 36.5096 34.3033 35.8145 33.45C35.4645 33.0188 35.0625 32.5625 34.7834 32.069L34.8305 32.0509C36.8536 31.264 38.6648 29.5975 40.829 29.7202C41.01 29.7292 41.19 29.7573 41.366 29.8026C40.89 31.5936 40.1259 33.2681 38.9988 34.6671V34.6682Z" fill="url(#paint19_linear_57_76)"/>
<defs>
<linearGradient id="paint0_linear_57_76" x1="15.4028" y1="24.4275" x2="27.9313" y2="41.3457" gradientUnits="userSpaceOnUse">
<stop/>
<stop offset="0.13" stop-opacity="0.69"/>
<stop offset="1" stop-opacity="0"/>
</linearGradient>
<linearGradient id="paint1_linear_57_76" x1="22.0944" y1="30.3735" x2="22.4944" y2="40.5286" gradientUnits="userSpaceOnUse">
<stop/>
<stop offset="0.13" stop-opacity="0.69"/>
<stop offset="1" stop-opacity="0"/>
</linearGradient>
<linearGradient id="paint2_linear_57_76" x1="21.7744" y1="32.5515" x2="22.5441" y2="51.3793" gradientUnits="userSpaceOnUse">
<stop/>
<stop offset="0.13" stop-opacity="0.69"/>
<stop offset="1" stop-opacity="0"/>
</linearGradient>
<linearGradient id="paint3_linear_57_76" x1="24.6875" y1="10.5684" x2="21.6094" y2="23.4547" gradientUnits="userSpaceOnUse">
<stop/>
<stop offset="0.13" stop-opacity="0.69"/>
<stop offset="1" stop-opacity="0"/>
</linearGradient>
<linearGradient id="paint4_linear_57_76" x1="25.1216" y1="10.9172" x2="22.1303" y2="23.4458" gradientUnits="userSpaceOnUse">
<stop/>
<stop offset="0.13" stop-opacity="0.69"/>
<stop offset="1" stop-opacity="0"/>
</linearGradient>
<linearGradient id="paint5_linear_57_76" x1="17.5589" y1="19.0332" x2="26.9926" y2="-1.18423" gradientUnits="userSpaceOnUse">
<stop/>
<stop offset="0.13" stop-opacity="0.69"/>
<stop offset="1" stop-opacity="0"/>
</linearGradient>
<linearGradient id="paint6_linear_57_76" x1="17.722" y1="5.71792" x2="20.7746" y2="11.876" gradientUnits="userSpaceOnUse">
<stop/>
<stop offset="0.13" stop-opacity="0.69"/>
<stop offset="1" stop-opacity="0"/>
</linearGradient>
<linearGradient id="paint7_linear_57_76" x1="12.8814" y1="9.19045" x2="18.3929" y2="9.19045" gradientUnits="userSpaceOnUse">
<stop/>
<stop offset="0.13" stop-opacity="0.69"/>
<stop offset="1" stop-opacity="0"/>
</linearGradient>
<linearGradient id="paint8_linear_57_76" x1="25.3167" y1="5.08976" x2="26.1722" y2="14.7056" gradientUnits="userSpaceOnUse">
<stop/>
<stop offset="0.13" stop-opacity="0.69"/>
<stop offset="1" stop-opacity="0"/>
</linearGradient>
<linearGradient id="paint9_linear_57_76" x1="21.0353" y1="19.1528" x2="22.831" y2="33.108" gradientUnits="userSpaceOnUse">
<stop/>
<stop offset="0.13" stop-opacity="0.69"/>
<stop offset="1" stop-opacity="0"/>
</linearGradient>
<linearGradient id="paint10_linear_57_76" x1="21.6562" y1="8.44673" x2="23.6039" y2="-1.24653" gradientUnits="userSpaceOnUse">
<stop/>
<stop offset="0.13" stop-opacity="0.69"/>
<stop offset="1" stop-opacity="0"/>
</linearGradient>
<linearGradient id="paint11_linear_57_76" x1="20.8823" y1="9.098" x2="22.3811" y2="-5.25598" gradientUnits="userSpaceOnUse">
<stop offset="0.02" stop-color="white" stop-opacity="0"/>
<stop offset="0.58" stop-color="white" stop-opacity="0.39"/>
<stop offset="0.68" stop-color="white" stop-opacity="0.68"/>
<stop offset="1" stop-color="white"/>
</linearGradient>
<linearGradient id="paint12_linear_57_76" x1="21.5193" y1="10.3413" x2="21.0194" y2="4.60577" gradientUnits="userSpaceOnUse">
<stop offset="0.02" stop-color="white" stop-opacity="0"/>
<stop offset="0.58" stop-color="white" stop-opacity="0.39"/>
<stop offset="0.68" stop-color="white" stop-opacity="0.68"/>
<stop offset="1" stop-color="white"/>
</linearGradient>
<linearGradient id="paint13_linear_57_76" x1="8.89725" y1="8.96633" x2="33.5955" y2="8.96633" gradientUnits="userSpaceOnUse">
<stop offset="0.02" stop-color="white" stop-opacity="0"/>
<stop offset="0.58" stop-color="white" stop-opacity="0.39"/>
<stop offset="0.68" stop-color="white" stop-opacity="0.68"/>
<stop offset="1" stop-color="white"/>
</linearGradient>
<linearGradient id="paint14_linear_57_76" x1="9.25215" y1="9.14324" x2="32.9313" y2="9.14324" gradientUnits="userSpaceOnUse">
<stop offset="0.02" stop-color="white" stop-opacity="0"/>
<stop offset="0.58" stop-color="white" stop-opacity="0.39"/>
<stop offset="0.68" stop-color="white" stop-opacity="0.68"/>
<stop offset="1" stop-color="white"/>
</linearGradient>
<linearGradient id="paint15_linear_57_76" x1="21.0203" y1="26.9442" x2="22.2606" y2="42.1761" gradientUnits="userSpaceOnUse">
<stop/>
<stop offset="0.13" stop-opacity="0.69"/>
<stop offset="1" stop-opacity="0"/>
</linearGradient>
<linearGradient id="paint16_linear_57_76" x1="9.6233" y1="33.1556" x2="32.8834" y2="33.1556" gradientUnits="userSpaceOnUse">
<stop offset="0.02" stop-color="white" stop-opacity="0"/>
<stop offset="0.58" stop-color="white" stop-opacity="0.39"/>
<stop offset="0.68" stop-color="white" stop-opacity="0.68"/>
<stop offset="1" stop-color="white"/>
</linearGradient>
<linearGradient id="paint17_linear_57_76" x1="9.95817" y1="32.9676" x2="32.2602" y2="32.9676" gradientUnits="userSpaceOnUse">
<stop offset="0.02" stop-color="white" stop-opacity="0"/>
<stop offset="0.58" stop-color="white" stop-opacity="0.39"/>
<stop offset="0.68" stop-color="white" stop-opacity="0.68"/>
<stop offset="1" stop-color="white"/>
</linearGradient>
<linearGradient id="paint18_linear_57_76" x1="5.1248" y1="24.8887" x2="8.2043" y2="57.7348" gradientUnits="userSpaceOnUse">
<stop/>
<stop offset="0.13" stop-opacity="0.69"/>
<stop offset="1" stop-opacity="0"/>
</linearGradient>
<linearGradient id="paint19_linear_57_76" x1="37.2347" y1="21.8796" x2="40.3132" y2="54.7257" gradientUnits="userSpaceOnUse">
<stop/>
<stop offset="0.13" stop-opacity="0.69"/>
<stop offset="1" stop-opacity="0"/>
</linearGradient>
</defs>
</svg>
