<svg viewBox="0 0 210 100" fill="none" xmlns="http://www.w3.org/2000/svg">
<g clip-path="url(#clip0_76_473)">
<path d="M152.812 91.0079C152.812 94.1175 150.191 96.6378 146.958 96.6378H51.5878C48.3548 96.6378 45.7344 94.1175 45.7344 91.0079V23.4416C45.7344 20.332 48.3556 17.8109 51.5878 17.8109H146.957C150.19 17.8109 152.812 20.332 152.812 23.4416V91.0079H152.812Z" fill="#F7F8FB" stroke="#181716" stroke-width="2.3248" stroke-miterlimit="10"/>
<path d="M46.6646 35.4H152.813" stroke="#181716" stroke-width="2.3248" stroke-miterlimit="10" stroke-linecap="round" stroke-linejoin="round"/>
<path d="M54.9017 28.3722C55.7236 28.3722 56.3898 27.7049 56.3898 26.8817C56.3898 26.0585 55.7236 25.3912 54.9017 25.3912C54.0798 25.3912 53.4136 26.0585 53.4136 26.8817C53.4136 27.7049 54.0798 28.3722 54.9017 28.3722Z" fill="#196BDF"/>
<path d="M64.5139 28.3729C65.3362 28.3729 66.0028 27.7052 66.0028 26.8816C66.0028 26.0579 65.3362 25.3903 64.5139 25.3903C63.6915 25.3903 63.0249 26.0579 63.0249 26.8816C63.0249 27.7052 63.6915 28.3729 64.5139 28.3729Z" fill="#196BDF"/>
<path d="M74.1258 28.3721C74.9477 28.3721 75.614 27.7048 75.614 26.8816C75.614 26.0584 74.9477 25.3911 74.1258 25.3911C73.304 25.3911 72.6377 26.0584 72.6377 26.8816C72.6377 27.7048 73.304 28.3721 74.1258 28.3721Z" fill="#196BDF"/>
<path d="M58.5439 73.7997L69.8021 61.4153L80.2858 73.7997" stroke="#383838" stroke-width="2.3248" stroke-miterlimit="10" stroke-linecap="round" stroke-linejoin="round"/>
<path d="M77.1387 70.082L85.0916 63.7575L93.0581 73.7997" stroke="#383838" stroke-width="2.3248" stroke-miterlimit="10" stroke-linecap="round" stroke-linejoin="round"/>
<path d="M93.0576 47.8185H58.1699V82.6977H93.0576V47.8185Z" stroke="#383838" stroke-width="2.3248" stroke-miterlimit="10" stroke-linecap="round" stroke-linejoin="round"/>
<path d="M80.9109 58.4051C82.2052 58.4051 83.2545 57.3561 83.2545 56.0621C83.2545 54.7682 82.2052 53.7192 80.9109 53.7192C79.6166 53.7192 78.5674 54.7682 78.5674 56.0621C78.5674 57.3561 79.6166 58.4051 80.9109 58.4051Z" stroke="#383838" stroke-width="2.3248" stroke-miterlimit="10" stroke-linecap="round" stroke-linejoin="round"/>
<path d="M105.203 54.07H142.278" stroke="#181716" stroke-width="2.3248" stroke-miterlimit="10" stroke-linecap="round" stroke-linejoin="round"/>
<path d="M105.203 66.0553H142.278" stroke="#181716" stroke-width="2.3248" stroke-miterlimit="10" stroke-linecap="round" stroke-linejoin="round"/>
<path d="M105.203 78.0406H122.032" stroke="#181716" stroke-width="2.3248" stroke-miterlimit="10" stroke-linecap="round" stroke-linejoin="round"/>
<path d="M126.797 51.3571C119.663 52.2801 113.839 50.7728 111.072 46.6368C105.647 38.5286 114.023 23.385 129.778 12.8103C145.534 2.23569 162.704 0.235765 168.127 8.34393C173.552 16.4512 165.175 31.5966 149.421 42.1712" stroke="#0D0D0D" stroke-width="2.3248" stroke-miterlimit="10"/>
<path d="M209.75 84.0847L152.472 30.4995L145.479 37.9976L202.757 91.5828L209.75 84.0847Z" fill="white"/>
<path d="M165.328 43.3708L159.167 49.9768" stroke="#196BDF" stroke-width="2.3248" stroke-miterlimit="10"/>
<path d="M168.803 46.6216L162.642 53.2275" stroke="#196BDF" stroke-width="2.3248" stroke-miterlimit="10"/>
<path d="M202.783 91.5483L145.472 37.9983L152.464 30.5005L209.776 84.0513L202.783 91.5483Z" stroke="#181716" stroke-width="2.3248" stroke-miterlimit="10" stroke-linecap="round" stroke-linejoin="round"/>
<path d="M121.611 54.9846L121.552 55.0039C121.175 55.1006 120.923 55.1964 120.831 55.2334L120.79 55.2452C120.79 55.2452 120.797 55.2435 120.809 55.2418C120.798 55.2468 120.792 55.2485 120.792 55.2485L120.833 55.2351C120.928 55.2124 121.19 55.1451 121.552 55.0073L121.611 54.9879C121.603 54.9913 121.593 54.993 121.582 54.9963C121.591 54.9921 121.601 54.9871 121.611 54.9846Z" fill="#196BDF" stroke="#196BDF" stroke-width="2.906" stroke-miterlimit="10" stroke-linecap="round" stroke-linejoin="round"/>
<path d="M121.611 54.9871C123.634 54.4827 128.919 54.0279 132.127 61.688C130.335 53.579 134.915 50.8956 136.858 50.1407" fill="#196BDF"/>
<path d="M121.611 54.9871C123.634 54.4827 128.919 54.0279 132.127 61.688C130.335 53.579 134.915 50.8956 136.858 50.1407" stroke="#196BDF" stroke-width="2.906" stroke-miterlimit="10" stroke-linecap="round" stroke-linejoin="round"/>
<path d="M136.856 50.1373C134.834 50.6417 129.548 51.0965 126.34 43.4348C128.132 51.5454 123.552 54.2288 121.611 54.9837" fill="#196BDF"/>
<path d="M136.856 50.1373C134.834 50.6417 129.548 51.0965 126.34 43.4348C128.132 51.5454 123.552 54.2288 121.611 54.9837" stroke="#196BDF" stroke-width="2.906" stroke-miterlimit="10" stroke-linecap="round" stroke-linejoin="round"/>
<path d="M137.677 49.8759L137.636 49.8876C137.54 49.912 137.277 49.9793 136.915 50.1171L136.856 50.1365C136.867 50.1331 136.874 50.1314 136.886 50.1281C136.876 50.1314 136.867 50.1348 136.858 50.1398L136.915 50.1205C137.292 50.0238 137.545 49.928 137.638 49.8927L137.677 49.8792C137.677 49.8792 137.671 49.8809 137.66 49.8826C137.671 49.8775 137.677 49.8759 137.677 49.8759Z" fill="#196BDF" stroke="#196BDF" stroke-width="2.906" stroke-miterlimit="10" stroke-linecap="round" stroke-linejoin="round"/>
<path d="M14.7207 40.9752L14.6695 40.9777C14.3522 40.9752 14.1306 40.9971 14.0509 41.0072L14.0156 41.0088C14.0156 41.0088 14.0215 41.0088 14.0324 41.0097C14.0215 41.0105 14.0156 41.0114 14.0156 41.0114L14.0509 41.0097C14.1323 41.0114 14.353 41.0131 14.6695 40.9803L14.7207 40.9777C14.7114 40.9777 14.7039 40.9777 14.6955 40.9777C14.7039 40.9769 14.7114 40.9769 14.7207 40.9752Z" stroke="#196BDF" stroke-width="2.3248" stroke-miterlimit="10" stroke-linecap="round" stroke-linejoin="round"/>
<path d="M14.7207 40.9785C16.4271 41.0063 20.7068 41.7603 21.6351 48.5008C21.9221 41.7023 26.1121 40.5464 27.8075 40.3564" stroke="#196BDF" stroke-width="2.3248" stroke-miterlimit="10" stroke-linecap="round" stroke-linejoin="round"/>
<path d="M27.8075 40.3539C26.102 40.3262 21.8206 39.5721 20.8931 32.8317C20.6061 39.6293 16.4161 40.786 14.7207 40.9752" stroke="#196BDF" stroke-width="2.3248" stroke-miterlimit="10" stroke-linecap="round" stroke-linejoin="round"/>
<path d="M28.5117 40.3203L28.4764 40.322C28.395 40.3203 28.1743 40.3186 27.8578 40.3514L27.8066 40.3539C27.815 40.3539 27.8234 40.3539 27.8318 40.3539C27.8234 40.3548 27.815 40.3556 27.8066 40.3565L27.8578 40.3539C28.1759 40.3565 28.3967 40.3346 28.4764 40.3245L28.5117 40.3228C28.5117 40.3228 28.5058 40.3228 28.4949 40.3228C28.5058 40.3212 28.5117 40.3203 28.5117 40.3203Z" stroke="#196BDF" stroke-width="2.3248" stroke-miterlimit="10" stroke-linecap="round" stroke-linejoin="round"/>
<path d="M0.928668 53.5364L0.877469 53.5389C0.560203 53.5364 0.338621 53.5582 0.258884 53.5683L0.223633 53.57C0.223633 53.57 0.229508 53.57 0.24042 53.5708C0.229508 53.5717 0.223633 53.5725 0.223633 53.5725L0.258884 53.5708C0.340299 53.5725 0.561042 53.5742 0.877469 53.5414L0.928668 53.5397C0.919436 53.5397 0.911881 53.5397 0.903488 53.5389C0.911881 53.5381 0.919436 53.5372 0.928668 53.5364Z" stroke="#196BDF" stroke-width="2.3248" stroke-miterlimit="10" stroke-linecap="round" stroke-linejoin="round"/>
<path d="M0.928711 53.5397C2.63506 53.5666 6.9148 54.3215 7.84309 61.0611C8.13014 54.2635 12.3201 53.106 14.0155 52.9168" stroke="#196BDF" stroke-width="2.3248" stroke-miterlimit="10" stroke-linecap="round" stroke-linejoin="round"/>
<path d="M14.0155 52.9143C12.3092 52.8874 8.02858 52.1324 7.10113 45.3929C6.81408 52.1905 2.62415 53.348 0.928711 53.5372" stroke="#196BDF" stroke-width="2.3248" stroke-miterlimit="10" stroke-linecap="round" stroke-linejoin="round"/>
<path d="M14.7197 52.8815L14.6844 52.8832C14.603 52.8815 14.3823 52.8798 14.0658 52.9126L14.0146 52.9143C14.023 52.9151 14.0314 52.9151 14.0398 52.9151C14.0314 52.9159 14.023 52.9168 14.0146 52.9176L14.0658 52.9151C14.384 52.9176 14.6047 52.8966 14.6844 52.8865L14.7197 52.8848C14.7197 52.8848 14.7138 52.884 14.7029 52.884C14.7138 52.8823 14.7197 52.8815 14.7197 52.8815Z" stroke="#196BDF" stroke-width="2.3248" stroke-miterlimit="10" stroke-linecap="round" stroke-linejoin="round"/>
<path d="M18.7963 62.7626L18.7451 62.7643C18.427 62.7626 18.2063 62.7836 18.1266 62.7937L18.0913 62.7954C18.0913 62.7954 18.0972 62.7954 18.1081 62.797C18.098 62.797 18.0913 62.7987 18.0913 62.7987L18.1266 62.797C18.2071 62.7987 18.4287 62.8004 18.7451 62.7676L18.7963 62.7659C18.7871 62.7659 18.7796 62.7659 18.7712 62.7643C18.7796 62.7643 18.7871 62.7626 18.7963 62.7626Z" stroke="#196BDF" stroke-width="2.3248" stroke-miterlimit="10" stroke-linecap="round" stroke-linejoin="round"/>
<path d="M18.7964 62.7659C20.5027 62.792 24.7825 63.5478 25.7108 70.2873C25.9978 63.4897 30.1877 62.3322 31.8832 62.143" stroke="#196BDF" stroke-width="2.3248" stroke-miterlimit="10" stroke-linecap="round" stroke-linejoin="round"/>
<path d="M31.8832 62.1405C30.1768 62.1127 25.8963 61.3586 24.9688 54.6191C24.6818 61.4167 20.4918 62.5742 18.7964 62.7634" stroke="#196BDF" stroke-width="2.3248" stroke-miterlimit="10" stroke-linecap="round" stroke-linejoin="round"/>
<path d="M32.5883 62.1077L32.5531 62.1093C32.4717 62.1077 32.2509 62.106 31.9345 62.1388L31.8833 62.1405C31.8917 62.1405 31.8992 62.1405 31.9076 62.1405C31.8992 62.1421 31.8917 62.1421 31.8833 62.1438L31.9345 62.1405C32.2526 62.1438 32.4734 62.1228 32.5531 62.1127L32.5883 62.111C32.5883 62.111 32.5825 62.1093 32.5715 62.1093C32.5816 62.1077 32.5883 62.1077 32.5883 62.1077Z" stroke="#196BDF" stroke-width="2.3248" stroke-miterlimit="10" stroke-linecap="round" stroke-linejoin="round"/>
</g>
<defs>
<clipPath id="clip0_76_473">
<rect width="210" height="100" fill="white"/>
</clipPath>
</defs>
</svg>
