
<!-- Generator: visioncortex VTracer 0.6.4 -->
<svg version="1.1" xmlns="http://www.w3.org/2000/svg" viewBox="0 0 488 254" preserveAspectRatio="xMidYMid meet">
<path d="M0 0 C3.845 3.219 5.457 6.79 7.688 11.25 C8.631 23.056 4.752 31.803 -0.312 42.25 C-0.972 42.25 -1.632 42.25 -2.312 42.25 C-2.717 43.11 -2.717 43.11 -3.129 43.988 C-4.342 46.306 -5.698 48.333 -7.25 50.438 C-7.754 51.132 -8.258 51.827 -8.777 52.543 C-10.312 54.25 -10.312 54.25 -13.312 55.25 C-11.04 58.375 -8.603 60.947 -5.68 63.445 C-1.329 67.212 2.879 71.112 7.062 75.062 C7.805 75.762 8.547 76.461 9.312 77.181 C14.154 81.757 18.884 86.419 23.566 91.156 C26.802 94.351 30.239 97.289 33.688 100.25 C39.437 105.264 44.947 110.456 50.312 115.875 C54.217 119.819 58.152 123.626 62.371 127.234 C65.837 130.25 69.237 133.334 72.625 136.438 C73.301 137.045 73.977 137.652 74.673 138.277 C75.622 139.151 75.622 139.151 76.59 140.043 C77.162 140.564 77.734 141.085 78.324 141.622 C79.924 143.532 80.477 144.768 80.688 147.25 C78.97 149.315 77.342 151.019 75.375 152.812 C71.198 156.73 71.198 156.73 67.688 161.25 C64.018 160.682 62.443 159.306 59.938 156.625 C56.691 153.253 53.344 150.133 49.801 147.078 C42.902 141.111 36.214 134.906 29.523 128.708 C26.104 125.546 22.659 122.417 19.188 119.312 C15.918 116.379 12.755 113.396 9.688 110.25 C4.938 105.408 0.155 100.699 -4.992 96.281 C-8.108 93.554 -11.147 90.748 -14.188 87.938 C-14.76 87.409 -15.332 86.881 -15.921 86.337 C-18.082 84.336 -20.23 82.333 -22.312 80.25 C-22.318 81.239 -22.324 82.228 -22.33 83.247 C-22.388 92.575 -22.46 101.903 -22.548 111.231 C-22.593 116.027 -22.632 120.822 -22.659 125.618 C-22.685 130.247 -22.725 134.877 -22.776 139.506 C-22.792 141.271 -22.804 143.035 -22.81 144.8 C-22.82 147.275 -22.848 149.75 -22.88 152.225 C-22.879 152.952 -22.877 153.678 -22.876 154.427 C-22.961 159.076 -23.849 162.303 -26.312 166.25 C-28.437 167.437 -28.437 167.437 -30.312 168.25 C-30.643 169.24 -30.972 170.23 -31.312 171.25 C-55.382 171.32 -79.451 171.373 -103.52 171.405 C-114.695 171.421 -125.87 171.442 -137.046 171.476 C-146.783 171.506 -156.521 171.526 -166.259 171.532 C-171.418 171.536 -176.576 171.545 -181.734 171.567 C-186.586 171.587 -191.437 171.594 -196.289 171.589 C-198.073 171.59 -199.857 171.596 -201.64 171.608 C-204.07 171.622 -206.499 171.619 -208.928 171.611 C-209.64 171.62 -210.351 171.628 -211.083 171.637 C-215.874 171.593 -215.874 171.593 -218.108 169.845 C-218.506 169.319 -218.903 168.792 -219.312 168.25 C-220.187 167.627 -221.061 167.004 -221.962 166.362 C-225.685 161.434 -224.993 156.474 -224.928 150.461 C-224.933 149.161 -224.939 147.862 -224.945 146.523 C-224.959 142.964 -224.942 139.407 -224.918 135.849 C-224.898 132.123 -224.904 128.396 -224.906 124.669 C-224.906 118.412 -224.887 112.154 -224.854 105.896 C-224.818 98.666 -224.809 91.436 -224.816 84.205 C-224.822 77.244 -224.811 70.283 -224.792 63.322 C-224.784 60.362 -224.781 57.402 -224.783 54.442 C-224.784 50.308 -224.759 46.174 -224.732 42.039 C-224.735 40.812 -224.738 39.585 -224.741 38.32 C-224.73 37.193 -224.719 36.066 -224.707 34.905 C-224.703 33.928 -224.699 32.951 -224.696 31.944 C-224.076 27.59 -222.452 25.126 -218.984 22.459 C-215.943 21.083 -213.893 20.883 -210.564 20.898 C-209.416 20.896 -208.268 20.894 -207.085 20.891 C-205.209 20.91 -205.209 20.91 -203.296 20.929 C-201.958 20.931 -200.621 20.932 -199.283 20.932 C-196.408 20.934 -193.532 20.944 -190.657 20.962 C-186.105 20.988 -181.553 20.986 -177.001 20.98 C-164.059 20.967 -151.116 20.984 -138.174 21.041 C-131.022 21.071 -123.871 21.077 -116.719 21.056 C-112.199 21.044 -107.681 21.062 -103.161 21.104 C-100.341 21.123 -97.522 21.112 -94.703 21.093 C-92.784 21.089 -90.865 21.119 -88.947 21.151 C-83.041 21.081 -79.24 20.83 -74.696 16.85 C-73.564 15.654 -72.436 14.454 -71.312 13.25 C-69.042 11.576 -66.681 10.117 -64.25 8.688 C-63.291 8.121 -63.291 8.121 -62.313 7.542 C-43.715 -3.151 -20.068 -10.602 0 0 Z " fill="#F2F6F9" transform="translate(359.3125,44.75)"/>
<path d="M0 0 C3.845 3.219 5.457 6.79 7.688 11.25 C8.631 23.056 4.752 31.803 -0.312 42.25 C-0.972 42.25 -1.632 42.25 -2.312 42.25 C-2.717 43.11 -2.717 43.11 -3.129 43.988 C-4.342 46.306 -5.698 48.333 -7.25 50.438 C-7.754 51.132 -8.258 51.827 -8.777 52.543 C-10.312 54.25 -10.312 54.25 -13.312 55.25 C-11.04 58.375 -8.603 60.947 -5.68 63.445 C-1.329 67.212 2.879 71.112 7.062 75.062 C7.805 75.762 8.547 76.461 9.312 77.181 C14.154 81.757 18.884 86.419 23.566 91.156 C26.802 94.351 30.239 97.289 33.688 100.25 C39.437 105.264 44.947 110.456 50.312 115.875 C54.217 119.819 58.152 123.626 62.371 127.234 C65.837 130.25 69.237 133.334 72.625 136.438 C73.301 137.045 73.977 137.652 74.673 138.277 C75.622 139.151 75.622 139.151 76.59 140.043 C77.162 140.564 77.734 141.085 78.324 141.622 C79.924 143.532 80.477 144.768 80.688 147.25 C78.97 149.315 77.342 151.019 75.375 152.812 C71.198 156.73 71.198 156.73 67.688 161.25 C64.018 160.682 62.443 159.306 59.938 156.625 C56.691 153.253 53.344 150.133 49.801 147.078 C42.902 141.111 36.214 134.906 29.523 128.708 C26.104 125.546 22.659 122.417 19.188 119.312 C15.918 116.379 12.755 113.396 9.688 110.25 C4.938 105.408 0.155 100.699 -4.992 96.281 C-8.108 93.554 -11.147 90.748 -14.188 87.938 C-14.76 87.409 -15.332 86.881 -15.921 86.337 C-18.082 84.336 -20.23 82.333 -22.312 80.25 C-22.318 81.239 -22.324 82.228 -22.33 83.247 C-22.388 92.575 -22.46 101.903 -22.548 111.231 C-22.593 116.027 -22.632 120.822 -22.659 125.618 C-22.685 130.247 -22.725 134.877 -22.776 139.506 C-22.792 141.271 -22.804 143.035 -22.81 144.8 C-22.82 147.275 -22.848 149.75 -22.88 152.225 C-22.879 152.952 -22.877 153.678 -22.876 154.427 C-22.961 159.076 -23.849 162.303 -26.312 166.25 C-28.437 167.437 -28.437 167.437 -30.312 168.25 C-30.643 169.24 -30.972 170.23 -31.312 171.25 C-55.382 171.32 -79.451 171.373 -103.52 171.405 C-114.695 171.421 -125.87 171.442 -137.046 171.476 C-146.783 171.506 -156.521 171.526 -166.259 171.532 C-171.418 171.536 -176.576 171.545 -181.734 171.567 C-186.586 171.587 -191.437 171.594 -196.289 171.589 C-198.073 171.59 -199.857 171.596 -201.64 171.608 C-204.07 171.622 -206.499 171.619 -208.928 171.611 C-209.64 171.62 -210.351 171.628 -211.083 171.637 C-215.874 171.593 -215.874 171.593 -218.108 169.845 C-218.506 169.319 -218.903 168.792 -219.312 168.25 C-220.187 167.627 -221.061 167.004 -221.962 166.362 C-225.685 161.434 -224.993 156.474 -224.928 150.461 C-224.933 149.161 -224.939 147.862 -224.945 146.523 C-224.959 142.964 -224.942 139.407 -224.918 135.849 C-224.898 132.123 -224.904 128.396 -224.906 124.669 C-224.906 118.412 -224.887 112.154 -224.854 105.896 C-224.818 98.666 -224.809 91.436 -224.816 84.205 C-224.822 77.244 -224.811 70.283 -224.792 63.322 C-224.784 60.362 -224.781 57.402 -224.783 54.442 C-224.784 50.308 -224.759 46.174 -224.732 42.039 C-224.735 40.812 -224.738 39.585 -224.741 38.32 C-224.73 37.193 -224.719 36.066 -224.707 34.905 C-224.703 33.928 -224.699 32.951 -224.696 31.944 C-224.076 27.59 -222.452 25.126 -218.984 22.459 C-215.943 21.083 -213.893 20.883 -210.564 20.898 C-209.416 20.896 -208.268 20.894 -207.085 20.891 C-205.209 20.91 -205.209 20.91 -203.296 20.929 C-201.958 20.931 -200.621 20.932 -199.283 20.932 C-196.408 20.934 -193.532 20.944 -190.657 20.962 C-186.105 20.988 -181.553 20.986 -177.001 20.98 C-164.059 20.967 -151.116 20.984 -138.174 21.041 C-131.022 21.071 -123.871 21.077 -116.719 21.056 C-112.199 21.044 -107.681 21.062 -103.161 21.104 C-100.341 21.123 -97.522 21.112 -94.703 21.093 C-92.784 21.089 -90.865 21.119 -88.947 21.151 C-83.041 21.081 -79.24 20.83 -74.696 16.85 C-73.564 15.654 -72.436 14.454 -71.312 13.25 C-69.042 11.576 -66.681 10.117 -64.25 8.688 C-63.291 8.121 -63.291 8.121 -62.313 7.542 C-43.715 -3.151 -20.068 -10.602 0 0 Z M-220.312 58.25 C-220.395 75.142 -220.477 92.034 -220.562 109.438 C-220.599 114.769 -220.635 120.101 -220.673 125.594 C-220.686 130.378 -220.686 130.378 -220.694 135.161 C-220.7 137.29 -220.714 139.419 -220.735 141.548 C-220.764 144.775 -220.768 148 -220.767 151.227 C-220.781 152.174 -220.795 153.121 -220.81 154.097 C-220.805 154.969 -220.799 155.84 -220.794 156.738 C-220.797 157.493 -220.801 158.248 -220.805 159.026 C-220.068 162.356 -218.806 163.936 -216.312 166.25 C-213.638 166.754 -211.591 166.928 -208.918 166.885 C-208.171 166.893 -207.423 166.901 -206.654 166.909 C-204.148 166.929 -201.644 166.913 -199.139 166.897 C-197.343 166.904 -195.548 166.913 -193.753 166.924 C-188.874 166.946 -183.997 166.937 -179.119 166.922 C-174.016 166.909 -168.913 166.921 -163.811 166.929 C-155.24 166.938 -146.67 166.926 -138.099 166.902 C-128.189 166.875 -118.28 166.883 -108.369 166.911 C-99.864 166.934 -91.359 166.937 -82.853 166.924 C-77.772 166.916 -72.691 166.915 -67.61 166.931 C-62.832 166.946 -58.054 166.936 -53.276 166.907 C-51.522 166.9 -49.768 166.902 -48.014 166.913 C-45.62 166.927 -43.228 166.91 -40.834 166.885 C-40.139 166.896 -39.445 166.907 -38.729 166.919 C-34.971 166.843 -33.375 166.299 -30.382 163.951 C-27.601 160.322 -27.602 157.203 -27.65 152.807 C-27.639 151.969 -27.629 151.131 -27.618 150.268 C-27.591 147.503 -27.601 144.741 -27.613 141.977 C-27.607 140.05 -27.6 138.123 -27.592 136.197 C-27.58 132.16 -27.586 128.124 -27.606 124.087 C-27.629 118.923 -27.602 113.76 -27.561 108.596 C-27.535 104.617 -27.538 100.638 -27.549 96.659 C-27.55 94.756 -27.542 92.853 -27.525 90.949 C-27.505 88.282 -27.524 85.618 -27.552 82.952 C-27.538 82.171 -27.525 81.391 -27.51 80.587 C-27.622 75.291 -29.066 72.576 -32.697 68.738 C-34.304 67.258 -35.967 65.908 -37.688 64.562 C-38.554 63.799 -39.42 63.036 -40.312 62.25 C-40.312 60.93 -40.312 59.61 -40.312 58.25 C-60.773 58.25 -81.233 58.25 -102.312 58.25 C-104.014 63.353 -103.851 68.829 -102.688 74.062 C-99.741 78.75 -95.517 81.602 -90.312 83.25 C-86.957 83.49 -86.957 83.49 -83.5 83.375 C-82.339 83.357 -81.177 83.339 -79.98 83.32 C-78.66 83.286 -78.66 83.286 -77.312 83.25 C-75.87 80.366 -76.219 77.833 -76.25 74.625 C-76.259 73.436 -76.268 72.248 -76.277 71.023 C-76.289 70.108 -76.301 69.193 -76.312 68.25 C-74.402 68.543 -74.402 68.543 -72.312 69.25 C-71.563 70.976 -70.82 72.707 -70.148 74.465 C-68.806 77.332 -66.982 78.636 -64.312 80.25 C-60.29 81.277 -56.452 81.349 -52.312 81.25 C-52.312 82.24 -52.312 83.23 -52.312 84.25 C-54.813 85.875 -54.813 85.875 -57.312 87.25 C-57.312 87.58 -57.312 87.91 -57.312 88.25 C-53.023 88.58 -48.732 88.91 -44.312 89.25 C-43.982 90.24 -43.653 91.23 -43.312 92.25 C-44.516 92.215 -45.72 92.18 -46.961 92.145 C-48.536 92.116 -50.112 92.089 -51.688 92.062 C-52.879 92.025 -52.879 92.025 -54.094 91.986 C-56.168 91.96 -58.244 92.095 -60.312 92.25 C-62.678 95.799 -62.421 96.826 -61.938 100.938 C-61.827 101.931 -61.716 102.925 -61.602 103.949 C-61.506 104.708 -61.411 105.468 -61.312 106.25 C-62.632 106.25 -63.952 106.25 -65.312 106.25 C-66.84 104.387 -66.84 104.387 -68.25 101.938 C-71.313 96.984 -71.313 96.984 -76.312 94.25 C-79.663 94.033 -82.961 94.074 -86.312 94.25 C-86.643 93.59 -86.972 92.93 -87.312 92.25 C-96.553 92.25 -105.793 92.25 -115.312 92.25 C-114.983 91.26 -114.653 90.27 -114.312 89.25 C-105.733 88.92 -97.153 88.59 -88.312 88.25 C-91.258 86.774 -91.258 86.774 -94.277 85.461 C-99.451 83.269 -101.711 80.83 -104.305 75.859 C-104.804 75.063 -104.804 75.063 -105.312 74.25 C-105.972 74.25 -106.632 74.25 -107.312 74.25 C-107.312 68.97 -107.312 63.69 -107.312 58.25 C-144.602 58.25 -181.892 58.25 -220.312 58.25 Z " fill="#30302F" transform="translate(359.3125,44.75)"/>
<path d="M0 0 C11.034 -0.021 22.069 -0.041 33.438 -0.062 C38.671 -0.076 38.671 -0.076 44.01 -0.09 C46.755 -0.093 49.501 -0.096 52.246 -0.098 C52.964 -0.1 53.682 -0.103 54.422 -0.106 C56.527 -0.113 58.631 -0.114 60.736 -0.114 C61.924 -0.116 63.112 -0.118 64.336 -0.12 C67 0 67 0 68 1 C68.099 3.05 68.128 5.104 68.129 7.156 C68.133 8.474 68.136 9.792 68.139 11.15 C68.137 12.6 68.135 14.05 68.133 15.5 C68.133 16.976 68.134 18.452 68.136 19.928 C68.137 23.025 68.135 26.122 68.13 29.219 C68.125 33.197 68.128 37.175 68.134 41.154 C68.138 44.202 68.136 47.251 68.134 50.3 C68.133 51.767 68.134 53.235 68.136 54.702 C68.139 56.749 68.134 58.796 68.129 60.844 C68.129 62.011 68.128 63.178 68.127 64.381 C68 67 68 67 67 68 C64.914 68.094 62.824 68.117 60.736 68.114 C60.072 68.114 59.408 68.114 58.723 68.114 C56.564 68.113 54.405 68.106 52.246 68.098 C50.93 68.097 49.614 68.096 48.258 68.095 C43.318 68.089 38.378 68.075 33.438 68.062 C22.403 68.042 11.369 68.021 0 68 C0 45.56 0 23.12 0 0 Z " fill="#434343" transform="translate(158,122)"/>
<path d="M0 0 C1.092 -0.005 2.185 -0.011 3.31 -0.017 C5.092 0.005 5.092 0.005 6.911 0.027 C8.17 0.026 9.429 0.026 10.726 0.025 C14.17 0.024 17.613 0.047 21.057 0.075 C24.659 0.1 28.261 0.103 31.864 0.108 C38.681 0.12 45.498 0.153 52.316 0.193 C60.079 0.238 67.842 0.26 75.605 0.28 C91.57 0.322 107.536 0.392 123.501 0.481 C122.554 1.753 121.606 3.024 120.657 4.295 C120.129 5.003 119.601 5.711 119.057 6.44 C116.338 10.008 113.382 13.374 110.455 16.77 C108.404 19.617 107.429 22.116 106.501 25.481 C105.841 25.481 105.181 25.481 104.501 25.481 C104.501 26.471 104.501 27.461 104.501 28.481 C66.551 28.481 28.601 28.481 -10.499 28.481 C-10.499 20.561 -10.499 12.641 -10.499 4.481 C-4.874 -0.019 -4.874 -0.019 0 0 Z " fill="#F1F5F9" transform="translate(149.4986114501953,70.51898193359375)"/>
<path d="M0 0 C3.007 1.34 4.998 2.798 7.25 5.188 C9.772 7.796 12.359 10.214 15.125 12.562 C17.589 14.675 19.737 16.768 21.75 19.312 C23.808 21.771 25.045 22.906 28 24 C28 24.66 28 25.32 28 26 C28.531 26.202 29.062 26.405 29.609 26.613 C33.042 28.605 35.509 31.345 38.25 34.188 C42.444 38.466 46.673 42.58 51.242 46.461 C53.693 48.607 55.941 50.931 58.223 53.254 C60.066 55.065 61.978 56.753 63.938 58.438 C67.466 61.477 70.73 64.71 73.996 68.027 C76.582 70.573 79.315 72.92 82.066 75.285 C84.561 77.498 86.874 79.862 89.207 82.242 C91.131 84.129 93.139 85.875 95.188 87.625 C98.168 90.189 100.677 92.806 103 96 C100.03 98.97 97.06 101.94 94 105 C89.935 102.968 87.12 100.522 83.875 97.438 C82.717 96.352 81.558 95.268 80.398 94.184 C79.826 93.646 79.253 93.108 78.663 92.554 C76.298 90.344 73.903 88.169 71.5 86 C70.747 85.319 69.994 84.639 69.219 83.938 C67.601 82.525 65.925 81.179 64.219 79.875 C63.487 79.256 62.754 78.637 62 78 C62 77.34 62 76.68 62 76 C61.428 75.755 60.856 75.509 60.267 75.257 C57.613 73.785 55.855 72.064 53.734 69.895 C52.522 68.666 52.522 68.666 51.285 67.412 C50.449 66.554 49.612 65.696 48.75 64.812 C43.585 59.538 38.421 54.364 32.813 49.557 C30.148 47.269 27.58 44.884 25 42.5 C19.748 37.664 14.444 32.898 8.98 28.301 C4.788 24.733 1.105 20.998 -2.457 16.801 C-4.206 14.76 -6.062 12.861 -8 11 C-6.636 8.008 -5.051 5.71 -2.875 3.25 C-2.336 2.636 -1.797 2.023 -1.242 1.391 C-0.627 0.702 -0.627 0.702 0 0 Z " fill="#F8F9F9" transform="translate(332,95)"/>
<path d="M0 0 C0.681 0.866 1.361 1.733 2.062 2.625 C2.661 3.367 3.259 4.11 3.875 4.875 C6.509 10.975 5.359 17.231 3.105 23.305 C-0.652 31.664 -6.552 41.963 -13.938 47.625 C-16.692 47.625 -17.838 46.699 -20.031 45.055 C-22.997 41.274 -22.451 37.236 -22.426 32.645 C-22.533 27.466 -23.583 24.566 -26.938 20.625 C-31.424 17.095 -35.485 17.156 -40.957 17.113 C-41.816 17.095 -42.674 17.077 -43.559 17.059 C-46.289 17.005 -49.019 16.971 -51.75 16.938 C-53.606 16.904 -55.462 16.87 -57.318 16.834 C-61.858 16.749 -66.397 16.682 -70.938 16.625 C-67.714 12.391 -64.511 9.794 -59.875 7.25 C-59.185 6.867 -58.496 6.484 -57.785 6.09 C-41.859 -2.454 -16.179 -13.081 0 0 Z " fill="#EFF3F6" transform="translate(357.9375,49.375)"/>
<path d="M0 0 C19.8 0 39.6 0 60 0 C60 12.54 60 25.08 60 38 C56.063 36.688 55.173 34.804 52.812 31.438 C51.739 29.92 51.739 29.92 50.645 28.371 C49.83 27.197 49.83 27.197 49 26 C44.51 26.507 42.254 28.133 38.875 31.062 C34.322 35 34.322 35 31 35 C29.281 33.137 29.281 33.137 27.5 30.688 C25.068 27.357 25.068 27.357 22.281 24.332 C21 23 21 23 21 21 C16.642 22.376 14.542 24.275 11.625 27.75 C7.948 32.109 4.482 35.158 0 39 C0 26.13 0 13.26 0 0 Z " fill="#F0F4F7" transform="translate(162,126)"/>
<path d="M0 0 C1.003 -0.001 2.007 -0.003 3.041 -0.004 C5.162 -0.003 7.282 0.009 9.403 0.03 C12.645 0.058 15.885 0.05 19.127 0.037 C21.189 0.043 23.251 0.052 25.312 0.062 C26.28 0.06 27.248 0.057 28.245 0.054 C33.708 0.13 37.659 0.433 41.723 4.496 C41.986 7.041 42.14 9.507 42.223 12.059 C42.277 12.75 42.331 13.442 42.387 14.154 C42.528 19.587 40.827 22.849 37.175 26.811 C32.046 30.335 25.805 29.459 19.82 29.277 C18.373 29.262 16.926 29.251 15.478 29.243 C11.688 29.213 7.9 29.134 4.11 29.045 C0.236 28.963 -3.639 28.927 -7.514 28.887 C-15.103 28.801 -22.69 28.665 -30.277 28.496 C-28.663 19.063 -20.673 11.334 -14.277 4.496 C-13.795 3.81 -13.314 3.124 -12.817 2.417 C-8.833 -0.596 -4.864 -0.056 0 0 Z " fill="#F2F6F9" transform="translate(289.27734375,70.50390625)"/>
<path d="M0 0 C3.632 1.211 4.436 2.502 6.75 5.5 C7.451 6.396 8.153 7.292 8.875 8.215 C10.244 10.009 11.599 11.813 12.938 13.629 C13.536 14.432 14.134 15.235 14.75 16.062 C15.281 16.796 15.812 17.529 16.359 18.285 C18.215 20.225 19.378 20.63 22 21 C21.505 20.093 21.01 19.185 20.5 18.25 C19 15 19 15 19 11 C20.609 9.262 20.609 9.262 22.75 7.688 C23.446 7.155 24.142 6.623 24.859 6.074 C27 5 27 5 29.012 5.031 C31.833 6.406 33.173 8.325 35.062 10.812 C35.734 11.685 36.406 12.558 37.098 13.457 C37.725 14.296 38.353 15.135 39 16 C39.99 17.32 40.98 18.64 42 20 C42 24.62 42 29.24 42 34 C22.2 34 2.4 34 -18 34 C-18 20 -18 20 -15.812 16.438 C-14.884 15.633 -13.956 14.829 -13 14 C-11.855 12.855 -11.855 12.855 -10.688 11.688 C-9.801 10.801 -8.914 9.914 -8 9 C-5.306 6.024 -2.649 3.017 0 0 Z " fill="#EEF2F5" transform="translate(180,152)"/>
<path d="M0 0 C3.007 1.34 4.998 2.798 7.25 5.188 C9.772 7.796 12.359 10.214 15.125 12.562 C17.589 14.675 19.737 16.768 21.75 19.312 C23.808 21.771 25.045 22.906 28 24 C28 24.66 28 25.32 28 26 C28.639 26.289 29.279 26.578 29.938 26.875 C32 28 32 28 33 30 C32.186 30.706 32.186 30.706 31.355 31.426 C30.64 32.048 29.925 32.671 29.188 33.312 C28.126 34.235 28.126 34.235 27.043 35.176 C25.299 36.733 23.632 38.327 22 40 C21.131 39.192 20.262 38.384 19.367 37.551 C18.203 36.471 17.039 35.392 15.875 34.312 C15.305 33.782 14.735 33.252 14.148 32.705 C11.421 30.179 8.679 27.709 5.797 25.359 C3.391 23.33 1.391 21.34 -0.625 18.938 C-2.984 16.171 -5.375 13.52 -8 11 C-6.636 8.008 -5.051 5.71 -2.875 3.25 C-2.336 2.636 -1.797 2.023 -1.242 1.391 C-0.627 0.702 -0.627 0.702 0 0 Z " fill="#F7F7F8" transform="translate(332,95)"/>
<path d="M0 0 C2.312 0.062 2.312 0.062 5 1 C5.717 2.727 6.429 4.457 7.078 6.211 C8.405 8.786 10.402 10.074 12.949 11.355 C16.603 12.504 20.218 12.309 24 12 C24.495 13.98 24.495 13.98 25 16 C23.35 16.99 21.7 17.98 20 19 C23.96 19.33 27.92 19.66 32 20 C32.495 21.98 32.495 21.98 33 24 C24.585 24.495 24.585 24.495 16 25 C14.678 27.645 14.903 29.678 14.938 32.625 C14.947 33.628 14.956 34.631 14.965 35.664 C14.976 36.435 14.988 37.206 15 38 C13.02 38.495 13.02 38.495 11 39 C10.625 38.385 10.25 37.77 9.863 37.137 C6.077 30.77 6.077 30.77 0 27 C-3.35 26.783 -6.649 26.824 -10 27 C-10.33 25.68 -10.66 24.36 -11 23 C-8.36 21.02 -5.72 19.04 -3 17 C-5.31 16.67 -7.62 16.34 -10 16 C-10 15.67 -10 15.34 -10 15 C-7.03 15 -4.06 15 -1 15 C-1.012 14.085 -1.023 13.17 -1.035 12.227 C-1.044 11.038 -1.053 9.85 -1.062 8.625 C-1.074 7.442 -1.086 6.258 -1.098 5.039 C-1 2 -1 2 0 0 Z " fill="#2572DD" transform="translate(283,113)"/>
<path d="M0 0 C1.938 0.129 1.938 0.129 4 1 C5.125 3.215 5.125 3.215 6 5.938 C7.13 9.715 7.13 9.715 9.922 12.277 C12.581 13.202 15.216 13.62 18 14 C18 15.32 18 16.64 18 18 C17.374 18.159 16.747 18.317 16.102 18.48 C11.054 19.736 11.054 19.736 7.562 23.25 C7.377 24.157 7.191 25.065 7 26 C6.629 27.258 6.257 28.516 5.875 29.812 C5.586 30.864 5.297 31.916 5 33 C3.125 32.773 3.125 32.773 1 32 C-0.125 30.039 -0.125 30.039 -1 27.625 C-2.91 22.883 -2.91 22.883 -7 20 C-10.151 19.28 -10.151 19.28 -13 19 C-13 17.68 -13 16.36 -13 15 C-12.385 14.911 -11.77 14.822 -11.137 14.73 C-8.388 14.121 -6.388 13.514 -4 12 C-2.321 8.434 -1.703 4.856 -1 1 C-0.67 0.67 -0.34 0.34 0 0 Z " fill="#347CE2" transform="translate(97,134)"/>
<path d="M0 0 C1.32 0 2.64 0 4 0 C4.392 1.217 4.784 2.434 5.188 3.688 C6.73 7.761 8.53 10.257 12 13 C15.167 14.336 15.167 14.336 18 15 C17.67 15.99 17.34 16.98 17 18 C15.886 18.474 14.773 18.949 13.625 19.438 C9.947 21.023 8.78 21.534 7 25 C6.195 27.655 5.589 30.283 5 33 C3.094 32.777 3.094 32.777 1 32 C0.094 30.004 0.094 30.004 -0.5 27.562 C-1.294 24.048 -1.294 24.048 -3.891 21.754 C-6.56 20.8 -9.197 20.382 -12 20 C-12 18.35 -12 16.7 -12 15 C-10.742 14.629 -9.484 14.257 -8.188 13.875 C-4.914 12.643 -4.13 12.189 -2.062 9.188 C-1.036 6.108 -0.383 3.22 0 0 Z " fill="#327AE1" transform="translate(89,94)"/>
<path d="M0 0 C23.76 0 47.52 0 72 0 C71.67 1.65 71.34 3.3 71 5 C47.9 5 24.8 5 1 5 C0.67 3.35 0.34 1.7 0 0 Z " fill="#3E3E3D" transform="translate(244,155)"/>
<path d="M0 0 C1.871 0.191 1.871 0.191 4 1 C5.16 3.215 5.16 3.215 6.062 5.938 C7.443 10.218 7.443 10.218 11 13 C13.321 13.708 15.654 14.38 18 15 C17.67 15.99 17.34 16.98 17 18 C15.258 18.668 15.258 18.668 13.125 19.188 C10.532 20.06 9.322 20.493 7.84 22.828 C7.085 24.877 6.494 26.873 6 29 C5.813 29.744 5.626 30.488 5.434 31.254 C5.219 32.118 5.219 32.118 5 33 C3.07 32.805 3.07 32.805 1 32 C0.305 29.82 0.305 29.82 -0.125 27.125 C-0.707 24.379 -0.707 24.379 -2 22 C-5.213 20.23 -8.388 19.529 -12 19 C-12 17.68 -12 16.36 -12 15 C-10.36 14.629 -10.36 14.629 -8.688 14.25 C-5.114 13.296 -5.114 13.296 -3.188 11.438 C-1.41 7.789 -0.722 3.975 0 0 Z " fill="#2D78E1" transform="translate(64,117)"/>
<path d="M0 0 C0.784 0.639 1.567 1.279 2.375 1.938 C4.795 3.981 4.795 3.981 7 5 C7 5.66 7 6.32 7 7 C7.639 7.289 8.279 7.578 8.938 7.875 C11 9 11 9 12 11 C11.457 11.471 10.915 11.941 10.355 12.426 C9.64 13.048 8.925 13.671 8.188 14.312 C7.48 14.927 6.772 15.542 6.043 16.176 C4.308 17.725 2.645 19.355 1 21 C-2.3 18.03 -5.6 15.06 -9 12 C-6 8 -3 4 0 0 Z " fill="#568DDC" transform="translate(353,114)"/>
<path d="M0 0 C11.22 0 22.44 0 34 0 C34.495 1.98 34.495 1.98 35 4 C34 5 34 5 30.857 5.114 C29.466 5.113 28.075 5.108 26.684 5.098 C25.953 5.096 25.221 5.095 24.468 5.093 C22.125 5.088 19.781 5.075 17.438 5.062 C15.852 5.057 14.267 5.053 12.682 5.049 C8.788 5.038 4.894 5.021 1 5 C0.67 3.35 0.34 1.7 0 0 Z " fill="#3F3E3E" transform="translate(244,177)"/>
<path d="M0 0 C2 1.062 2 1.062 3 3 C2.875 6.562 2.875 6.562 2 10 C-1.469 12.313 -2.922 12.425 -7 12 C-8.875 10.875 -8.875 10.875 -10 9 C-10.39 5.882 -10.504 3.89 -8.938 1.125 C-5.893 -0.643 -3.437 -0.368 0 0 Z " fill="#474748" transform="translate(205,133)"/>
<path d="M0 0 C9.57 0 19.14 0 29 0 C28.01 1.485 28.01 1.485 27 3 C24.294 3.341 24.294 3.341 20.898 3.293 C19.081 3.278 19.081 3.278 17.227 3.264 C15.956 3.239 14.685 3.213 13.375 3.188 C12.096 3.174 10.817 3.16 9.5 3.146 C6.333 3.111 3.167 3.062 0 3 C0 2.01 0 1.02 0 0 Z " fill="#181716" transform="translate(245,134)"/>
<path d="M0 0 C4.62 0 9.24 0 14 0 C14.33 1.32 14.66 2.64 15 4 C9.39 4 3.78 4 -2 4 C-1.34 2.68 -0.68 1.36 0 0 Z " fill="#222120" transform="translate(301,133)"/>
<path d="M0 0 C0.99 0.99 1.98 1.98 3 3 C1.439 6.831 -1.068 9.141 -4 12 C-4.99 13.485 -4.99 13.485 -6 15 C-6.99 13.68 -7.98 12.36 -9 11 C-8.434 10.374 -7.868 9.747 -7.285 9.102 C-6.185 7.876 -6.185 7.876 -5.062 6.625 C-4.332 5.813 -3.601 5.001 -2.848 4.164 C-0.97 2.141 -0.97 2.141 0 0 Z " fill="#3A7CD9" transform="translate(353,114)"/>
<path d="M0 0 C1.65 1.32 3.3 2.64 5 4 C4.387 6.962 3.746 8.381 2 11 C1.34 11 0.68 11 0 11 C-1.389 9.039 -2.726 7.038 -4 5 C-2.68 3.35 -1.36 1.7 0 0 Z " fill="#DAE6F5" transform="translate(91,105)"/>
<path d="M0 0 C0.99 0.33 1.98 0.66 3 1 C1.606 5.435 -0.606 7.874 -4 11 C-4.99 10.67 -5.98 10.34 -7 10 C-5.332 6.059 -2.773 3.211 0 0 Z " fill="#F5F7F9" transform="translate(356,119)"/>
<path d="M0 0 C0.66 0.33 1.32 0.66 2 1 C2 1.66 2 2.32 2 3 C2.66 3 3.32 3 4 3 C3.436 6.27 2.5 7.826 0 10 C-1.32 8.68 -2.64 7.36 -4 6 C-2.848 3.532 -1.952 1.952 0 0 Z " fill="#E4ECF6" transform="translate(99,146)"/>
<path d="M0 0 C0 0.66 0 1.32 0 2 C-3.473 3.158 -5.98 3.023 -9.637 2.879 C-10.935 2.831 -12.234 2.782 -13.572 2.732 C-14.944 2.676 -16.316 2.619 -17.688 2.562 C-19.071 2.509 -20.454 2.457 -21.838 2.404 C-25.225 2.274 -28.613 2.139 -32 2 C-32 1.67 -32 1.34 -32 1 C-27.792 0.831 -23.583 0.665 -19.375 0.5 C-18.185 0.452 -16.995 0.405 -15.77 0.355 C-14.616 0.31 -13.462 0.265 -12.273 0.219 C-10.687 0.156 -10.687 0.156 -9.068 0.092 C-6.043 0.001 -3.026 -0.016 0 0 Z " fill="#3C3C3C" transform="translate(277,132)"/>
<path d="M0 0 C1.65 1.65 3.3 3.3 5 5 C3.35 6.65 1.7 8.3 0 10 C-1.32 8.35 -2.64 6.7 -4 5 C-3.34 5 -2.68 5 -2 5 C-1.34 3.35 -0.68 1.7 0 0 Z " fill="#EDF3F8" transform="translate(66,128)"/>
<path d="M0 0 C0.99 0.33 1.98 0.66 3 1 C1.846 3.309 0.591 4.341 -1.375 6 C-1.981 6.516 -2.587 7.031 -3.211 7.562 C-5 9 -5 9 -8 11 C-6.636 8.008 -5.051 5.71 -2.875 3.25 C-2.336 2.636 -1.797 2.023 -1.242 1.391 C-0.627 0.702 -0.627 0.702 0 0 Z " fill="#D3D7DA" transform="translate(180,152)"/>
<path d="M0 0 C0.33 0.66 0.66 1.32 1 2 C2.895 2.465 2.895 2.465 5.062 2.625 C6.362 2.749 7.661 2.873 9 3 C8.67 3.66 8.34 4.32 8 5 C3.71 4.67 -0.58 4.34 -5 4 C-2 1 -2 1 0 0 Z " fill="#D1DDED" transform="translate(307,129)"/>
<path d="M0 0 C0.66 0.33 1.32 0.66 2 1 C0.9 2.295 -0.205 3.586 -1.312 4.875 C-1.927 5.594 -2.542 6.314 -3.176 7.055 C-5 9 -5 9 -8 11 C-6.636 8.008 -5.051 5.71 -2.875 3.25 C-2.336 2.636 -1.797 2.023 -1.242 1.391 C-0.627 0.702 -0.627 0.702 0 0 Z " fill="#D8DBDD" transform="translate(332,95)"/>
<path d="M0 0 C1.65 0 3.3 0 5 0 C5.33 0.99 5.66 1.98 6 3 C5.34 3.66 4.68 4.32 4 5 C1.875 4.625 1.875 4.625 0 4 C0 2.68 0 1.36 0 0 Z " fill="#357CE2" transform="translate(186,83)"/>
<path d="M0 0 C2.475 0.495 2.475 0.495 5 1 C4.67 2.32 4.34 3.64 4 5 C2.68 4.67 1.36 4.34 0 4 C0 2.68 0 1.36 0 0 Z " fill="#2673E0" transform="translate(169,83)"/>
<path d="M0 0 C1.32 0 2.64 0 4 0 C3.67 1.65 3.34 3.3 3 5 C1.68 4.67 0.36 4.34 -1 4 C-0.67 2.68 -0.34 1.36 0 0 Z " fill="#357CE1" transform="translate(152,83)"/>
<path d="M0 0 C1.65 0 3.3 0 5 0 C4.67 1.32 4.34 2.64 4 4 C2.68 4 1.36 4 0 4 C0 2.68 0 1.36 0 0 Z " fill="#A5A7A9" transform="translate(199,137)"/>
<path d="M0 0 C0 3 0 3 -2.5 5.688 C-3.325 6.451 -4.15 7.214 -5 8 C-5 6.68 -5 5.36 -5 4 C-2.5 1.75 -2.5 1.75 0 0 Z " fill="#D3D6D9" transform="translate(204,159)"/>
<path d="M0 0 C0.99 0.33 1.98 0.66 3 1 C0.03 3.475 0.03 3.475 -3 6 C-2.427 3.133 -2.139 2.139 0 0 Z " fill="#D7E3F3" transform="translate(107,153)"/>
<path d="M0 0 C1.98 0 3.96 0 6 0 C6 0.66 6 1.32 6 2 C5.01 2.33 4.02 2.66 3 3 C2.01 2.01 1.02 1.02 0 0 Z " fill="#4C4C4C" transform="translate(271,132)"/>
<path d="M0 0 C0.99 0 1.98 0 3 0 C2.67 0.99 2.34 1.98 2 3 C1.34 3 0.68 3 0 3 C0 2.01 0 1.02 0 0 Z " fill="#ECF0F3" transform="translate(200,137)"/>
</svg>