<svg xmlns="http://www.w3.org/2000/svg" width="156" height="50" fill="none" viewBox="0 0 156 50"><g fill="#1a1a1a" clip-path="url(#a)"><path d="M68.51 21.43 62.509 8.186h-.045V21.43H59.54V5.499h4.793l6.025 13.223h.046V5.5h2.899v15.93zm18.45-6.486c0 .387-.022.933-.022.933h-8.947c.046 1.867 1.37 3.278 3.332 3.278 1.69 0 3.059-1.184 3.652-2.117h.137l1.233 2.435c-.662.956-2.511 2.23-5.022 2.23-3.811 0-6.139-2.685-6.139-6.622 0-3.96 2.648-6.669 5.934-6.669 3.31 0 5.843 2.64 5.843 6.532m-8.9-1.229h6.048c-.114-1.457-1.21-2.8-2.99-2.8-1.826 0-2.853 1.48-3.058 2.8m17.926-5.023v2.503h-3.65v6.665c0 .796.342 1.069.912 1.069s1.186-.319 1.597-.614h.137l.661 2.615c-.547.364-1.71.774-2.851.774-1.71 0-3.193-.933-3.193-3.14v-7.37h-2.053V9.603c1.642-.705 2.623-2.252 3.125-4.094h1.642v3.184zm12.929 12.739-2.488-10.128h-.045l-2.488 10.128h-3.72L97.07 8.685h2.99l1.94 9.992h.045l2.42-9.992h3.857l2.442 9.992h.045l1.94-9.992h2.967l-3.081 12.746zm19.578-6.301c0 3.73-2.281 6.574-6.159 6.574s-6.159-2.82-6.159-6.574c0-3.799 2.714-6.71 6.159-6.71 3.467 0 6.159 2.911 6.159 6.71m-9.581.023c0 2.343 1.277 4.003 3.399 4.003 2.19 0 3.444-1.729 3.444-4.049 0-2.184-1.3-4.185-3.421-4.185-2.099 0-3.422 2.001-3.422 4.23m18.39-5.853-.479 2.731h-.137a2.54 2.54 0 0 0-1.849-.842c-1.484 0-2.191 1.32-2.191 3.414v6.828h-2.739V8.685h2.305l.206 1.685h.068c.502-1.298 1.507-1.958 2.67-1.958.936 0 1.758.41 2.146.888m3.937 5.485 4.428-6.1h3.378l-4.93 6.305 5.021 6.44h-3.492l-4.405-6.053h-.068v6.054h-2.739V4.543h2.762v10.242zM70.303 29.758l-1.414 2.48h-.137c-.867-1.365-2.418-2.798-4.38-2.798-1.596 0-2.418.842-2.418 1.865 0 1.229 1.072 1.706 3.604 2.389 2.966.773 5.475 1.706 5.475 4.89 0 3.071-2.372 4.686-5.725 4.686-3.285 0-5.658-1.615-6.73-3.025l1.369-2.73h.137c.958 1.342 2.783 3.026 5.2 3.026 1.803 0 2.875-.615 2.875-1.888 0-1.547-1.574-1.911-3.992-2.548-3.057-.819-5.11-1.91-5.11-4.777 0-2.48 2.03-4.527 5.247-4.527 3.102 0 5.178 1.706 5.999 2.957m14.357 6.938c0 3.73-2.281 6.574-6.16 6.574-3.877 0-6.158-2.82-6.158-6.574 0-3.799 2.715-6.71 6.159-6.71 3.467 0 6.159 2.911 6.159 6.71m-9.58.023c0 2.343 1.277 4.004 3.398 4.004 2.19 0 3.444-1.73 3.444-4.05 0-2.183-1.3-4.185-3.421-4.185-2.099 0-3.422 2.002-3.422 4.23m11.29 6.278V26.12h2.737v16.878zm13.637 0-.297-1.683h-.068c-.547 1.137-1.848 1.956-3.558 1.956-2.806 0-4.243-1.956-4.243-4.527V30.26h2.737v7.666c0 1.82.547 2.82 2.007 2.82 1.711 0 2.897-1.5 2.897-3.753V30.26h2.737v12.738zm12.147-12.738v2.502h-3.65v6.665c0 .796.343 1.07.913 1.07s1.186-.32 1.596-.615h.137l.662 2.616c-.547.364-1.711.773-2.851.773-1.711 0-3.194-.932-3.194-3.139v-7.37h-2.053v-1.592c1.643-.706 2.623-2.252 3.125-4.095h1.642v3.185zm5.655-3.458c0 1.07-.662 1.797-1.825 1.797-1.186 0-1.848-.728-1.848-1.797s.662-1.797 1.848-1.797c1.163 0 1.825.728 1.825 1.797m-3.205 16.196V30.26h2.737v12.738zm16.994-6.3c0 3.73-2.281 6.573-6.159 6.573s-6.159-2.82-6.159-6.574c0-3.799 2.714-6.71 6.159-6.71 3.467 0 6.159 2.911 6.159 6.71m-9.581.022c0 2.343 1.277 4.004 3.399 4.004 2.19 0 3.444-1.73 3.444-4.05 0-2.183-1.3-4.185-3.421-4.185-2.099 0-3.422 2.002-3.422 4.23m22.077-2.206v8.484h-2.737V35.26c0-1.82-.776-2.775-2.373-2.775-1.893 0-3.125 1.524-3.125 3.958v6.551h-2.737V30.26h2.281l.183 1.683h.068c.821-1.206 2.144-1.956 3.878-1.956 3.102 0 4.562 2.093 4.562 4.527m11.495-2.161-1.209 2.274h-.136c-.913-1.25-2.327-2.206-3.764-2.206-1.255 0-1.893.682-1.893 1.365 0 .637.159 1.046 2.919 1.751 3.011.75 4.494 1.66 4.494 4.004 0 2.274-2.076 3.73-4.813 3.73-2.714 0-4.676-1.274-5.611-2.434l1.231-2.343h.137c.936 1.183 2.418 2.252 4.083 2.252 1.62 0 2.281-.5 2.281-1.296 0-.728-.342-1.092-3.239-1.843-2.828-.705-4.128-1.82-4.128-3.844 0-1.98 1.642-3.776 4.539-3.776 2.646 0 4.448 1.501 5.109 2.366M21.018 3.782c.333-4.403 5.498-5.13 7.185-1.288l3.77 8.142-4.676 5.925c-2.02-3.361-2.232-7.185-2.232-7.185s-.469 8.495-7.509 12.78l-6.89-10.813 5.63-5.636 3.763 12.407zm10.957 16.222 12.441-3.753-5.65-5.615-10.845 6.872c4.297 7.02 12.816 7.496 12.816 7.496s-3.834.203-7.205 2.217l5.941 4.663 8.165-3.759c3.853-1.682 3.124-6.834-1.291-7.166zM30.08 31.886l3.763 12.407 5.63-5.635-6.89-10.815c-7.04 4.286-7.518 12.78-7.518 12.78s-.203-3.823-2.223-7.184l-4.676 5.925 3.77 8.142c1.687 3.842 6.852 3.115 7.186-1.288zm-11.916-1.89L5.723 33.75l5.651 5.615 10.845-6.872c-4.298-7.02-12.817-7.488-12.817-7.488s3.834-.21 7.205-2.226l-5.941-4.662L2.5 21.875c-3.853 1.682-3.124 6.834 1.292 7.166z"/></g><defs><clipPath id="a"><path fill="#fff" d="M0 0h156v50H0z"/></clipPath></defs></svg>