<svg width="20" height="20" viewBox="0 0 20 20" xmlns="http://www.w3.org/2000/svg">
<path d="M10 19.1583L8.975 18.2333C7.20833 16.6166 5.75 15.2208 4.6 14.0458C3.45 12.8708 2.53333 11.8208 1.85 10.8958C1.16667 9.97081 0.6875 9.13331 0.4125 8.38331C0.1375 7.63331 0 6.87498 0 6.10831C0 4.60831 0.504167 3.35415 1.5125 2.34581C2.52083 1.33748 3.76667 0.833313 5.25 0.833313C6.2 0.833313 7.07917 1.05831 7.8875 1.50831C8.69583 1.95831 9.4 2.60831 10 3.45831C10.7 2.55831 11.4417 1.89581 12.225 1.47081C13.0083 1.04581 13.85 0.833313 14.75 0.833313C16.2333 0.833313 17.4792 1.33748 18.4875 2.34581C19.4958 3.35415 20 4.60831 20 6.10831C20 6.87498 19.8625 7.63331 19.5875 8.38331C19.3125 9.13331 18.8333 9.97081 18.15 10.8958C17.4667 11.8208 16.55 12.8708 15.4 14.0458C14.25 15.2208 12.7917 16.6166 11.025 18.2333L10 19.1583ZM10 17.1833C11.6833 15.6333 13.0708 14.3041 14.1625 13.1958C15.2542 12.0875 16.1208 11.1166 16.7625 10.2833C17.4042 9.44998 17.8542 8.70831 18.1125 8.05831C18.3708 7.40831 18.5 6.75831 18.5 6.10831C18.5 5.00831 18.15 4.10415 17.45 3.39581C16.75 2.68748 15.85 2.33331 14.75 2.33331C13.9 2.33331 13.1083 2.59581 12.375 3.12081C11.6417 3.64581 11.05 4.38331 10.6 5.33331H9.375C8.94167 4.39998 8.35833 3.66665 7.625 3.13331C6.89167 2.59998 6.1 2.33331 5.25 2.33331C4.15 2.33331 3.25 2.68748 2.55 3.39581C1.85 4.10415 1.5 5.00831 1.5 6.10831C1.5 6.75831 1.62917 7.41248 1.8875 8.07081C2.14583 8.72915 2.59583 9.47915 3.2375 10.3208C3.87917 11.1625 4.75 12.1333 5.85 13.2333C6.95 14.3333 8.33333 15.65 10 17.1833Z" fill="#9CA2A7"/>
</svg>
