<svg width="20" height="21" viewBox="0 0 20 21" fill="none" xmlns="http://www.w3.org/2000/svg">
<path d="M10 19.6583L8.975 18.7333C7.20833 17.1167 5.75 15.7208 4.6 14.5458C3.45 13.3708 2.53333 12.3208 1.85 11.3958C1.16667 10.4708 0.6875 9.63334 0.4125 8.88334C0.1375 8.13334 0 7.375 0 6.60834C0 5.10834 0.504167 3.85417 1.5125 2.84584C2.52083 1.8375 3.76667 1.33334 5.25 1.33334C6.2 1.33334 7.07917 1.55834 7.8875 2.00834C8.69583 2.45834 9.4 3.10834 10 3.95834C10.7 3.05834 11.4417 2.39584 12.225 1.97084C13.0083 1.54584 13.85 1.33334 14.75 1.33334C16.2333 1.33334 17.4792 1.8375 18.4875 2.84584C19.4958 3.85417 20 5.10834 20 6.60834C20 7.375 19.8625 8.13334 19.5875 8.88334C19.3125 9.63334 18.8333 10.4708 18.15 11.3958C17.4667 12.3208 16.55 13.3708 15.4 14.5458C14.25 15.7208 12.7917 17.1167 11.025 18.7333L10 19.6583Z" fill="#EF4A71"/>
</svg>
