<svg width="20" height="20" viewBox="0 0 20 20" fill="none" xmlns="http://www.w3.org/2000/svg">
<g clip-path="url(#clip0_938_2474)">
<path d="M10 19.1585L8.975 18.2335C7.20833 16.6168 5.75 15.221 4.6 14.046C3.45 12.871 2.53333 11.821 1.85 10.896C1.16667 9.971 0.6875 9.1335 0.4125 8.3835C0.1375 7.6335 0 6.87516 0 6.1085C0 4.6085 0.504167 3.35433 1.5125 2.346C2.52083 1.33766 3.76667 0.833496 5.25 0.833496C6.2 0.833496 7.07917 1.0585 7.8875 1.5085C8.69583 1.9585 9.4 2.6085 10 3.4585C10.7 2.5585 11.4417 1.896 12.225 1.471C13.0083 1.046 13.85 0.833496 14.75 0.833496C16.2333 0.833496 17.4792 1.33766 18.4875 2.346C19.4958 3.35433 20 4.6085 20 6.1085C20 6.87516 19.8625 7.6335 19.5875 8.3835C19.3125 9.1335 18.8333 9.971 18.15 10.896C17.4667 11.821 16.55 12.871 15.4 14.046C14.25 15.221 12.7917 16.6168 11.025 18.2335L10 19.1585Z" fill="#EF4A71"/>
</g>
<defs>
<clipPath id="clip0_938_2474">
<rect width="20" height="20" fill="white"/>
</clipPath>
</defs>
</svg>
