<svg width="19" height="22" viewBox="0 0 19 22" fill="none" xmlns="http://www.w3.org/2000/svg">
<path d="M10.9995 6.41732V0.421649C11.8364 0.738803 12.6064 1.22737 13.259 1.87909L16.4526 5.07446C17.1052 5.72618 17.5938 6.49615 17.9109 7.33303H11.9162C11.4102 7.33303 10.9995 6.92238 10.9995 6.41732ZM18.3106 9.1672H11.9162C10.4001 9.1672 9.16628 7.93342 9.16628 6.41732V0.0219991C9.01871 0.0119162 8.87113 0 8.72172 0H4.58314C2.056 0.000916629 0 2.05691 0 4.58406V17.4169C0 19.944 2.056 22 4.58314 22H13.7494C16.2766 22 18.3326 19.944 18.3326 17.4169V9.61177C18.3326 9.46236 18.3207 9.31478 18.3106 9.1672ZM12.5642 15.4736C12.3855 15.6523 12.1508 15.7422 11.9162 15.7422C11.6815 15.7422 11.4469 15.6523 11.2681 15.4736L10.0829 14.2884V18.3197C10.0829 18.8257 9.67226 19.2364 9.16628 19.2364C8.66031 19.2364 8.24966 18.8257 8.24966 18.3197V14.2884L7.06446 15.4736C6.70605 15.832 6.12674 15.832 5.76834 15.4736C5.40994 15.1152 5.40994 14.5359 5.76834 14.1775L7.24778 12.6981C8.30557 11.6403 10.027 11.6403 11.0857 12.6981L12.5651 14.1775C12.9235 14.5359 12.9235 15.1152 12.5651 15.4736H12.5642Z" fill="white"/>
</svg>
