<svg width="16" height="18" viewBox="0 0 16 18" fill="none" xmlns="http://www.w3.org/2000/svg">
<path d="M0 9.00204C0 12.2475 2.64925 14.8968 5.89474 14.8968H9.75658L9.08882 15.5645C9.00805 15.6431 8.94387 15.7371 8.90008 15.8409C8.85629 15.9447 8.83378 16.0563 8.83388 16.169C8.83409 16.3364 8.88421 16.5 8.97784 16.6389C9.07147 16.7777 9.20437 16.8855 9.35954 16.9484C9.51472 17.0113 9.68513 17.0266 9.84902 16.9922C10.0129 16.9578 10.1628 16.8753 10.2796 16.7553L12.31 14.7249C12.4137 14.6461 12.4977 14.5444 12.5555 14.4277C12.6132 14.311 12.6431 14.1824 12.6428 14.0522C12.6425 13.922 12.6119 13.7936 12.5536 13.6772C12.4953 13.5607 12.4108 13.4594 12.3067 13.3812L10.2796 11.354C10.202 11.2732 10.1091 11.2087 10.0062 11.1642C9.90338 11.1198 9.7927 11.0963 9.68066 11.0951C9.56863 11.094 9.45749 11.1152 9.35376 11.1576C9.25003 11.1999 9.1558 11.2625 9.07657 11.3418C8.99735 11.421 8.93473 11.5152 8.89238 11.619C8.85003 11.7227 8.8288 11.8338 8.82994 11.9459C8.83108 12.0579 8.85457 12.1686 8.89902 12.2714C8.94347 12.3743 9.008 12.4672 9.08882 12.5448L9.75658 13.2126H5.89474C3.55959 13.2126 1.68421 11.3372 1.68421 9.00204C1.68421 8.08213 1.97885 7.24197 2.47944 6.54727C2.54619 6.45771 2.59445 6.35576 2.62141 6.24736C2.64838 6.13896 2.65351 6.02628 2.63652 5.91588C2.61952 5.80548 2.58073 5.69956 2.52241 5.6043C2.46408 5.50903 2.38739 5.42632 2.29679 5.36098C2.2062 5.29564 2.10351 5.24897 1.9947 5.22369C1.8859 5.19842 1.77316 5.19504 1.66303 5.21375C1.55291 5.23247 1.44761 5.2729 1.35326 5.3327C1.25892 5.3925 1.17741 5.47048 1.11349 5.56208C0.417446 6.52801 0 7.71902 0 9.00204ZM3.35691 3.96175C3.35886 4.0897 3.38994 4.21552 3.4478 4.32966C3.50565 4.44379 3.58875 4.54325 3.69079 4.62047L5.72039 6.65007C5.79799 6.73089 5.89093 6.79542 5.99378 6.83987C6.09662 6.88432 6.2073 6.9078 6.31934 6.90894C6.43137 6.91008 6.54251 6.88886 6.64624 6.84651C6.74997 6.80416 6.8442 6.74154 6.92343 6.66231C7.00265 6.58309 7.06527 6.48885 7.10762 6.38513C7.14997 6.2814 7.1712 6.17026 7.17006 6.05823C7.16892 5.94619 7.14543 5.83551 7.10098 5.73267C7.05653 5.62982 6.992 5.53688 6.91118 5.45928L6.24342 4.79152H10.1053C12.4404 4.79152 14.3158 6.6669 14.3158 9.00204C14.3158 9.92196 14.0211 10.7621 13.5206 11.4568C13.4538 11.5464 13.4056 11.6483 13.3786 11.7567C13.3516 11.8651 13.3465 11.9778 13.3635 12.0882C13.3805 12.1986 13.4193 12.3045 13.4776 12.3998C13.5359 12.4951 13.6126 12.5778 13.7032 12.6431C13.7938 12.7084 13.8965 12.7551 14.0053 12.7804C14.1141 12.8057 14.2268 12.809 14.337 12.7903C14.4471 12.7716 14.5524 12.7312 14.6467 12.6714C14.7411 12.6116 14.8226 12.5336 14.8865 12.442C15.5826 11.4761 16 10.2851 16 9.00204C16 5.75656 13.3508 3.10731 10.1053 3.10731H6.24342L6.91118 2.43954C6.992 2.36195 7.05653 2.26901 7.10098 2.16616C7.14543 2.06332 7.16892 1.95263 7.17006 1.8406C7.1712 1.72857 7.14997 1.61743 7.10762 1.5137C7.06527 1.40997 7.00265 1.31574 6.92343 1.23651C6.8442 1.15729 6.74997 1.09467 6.64624 1.05232C6.54251 1.00997 6.43137 0.988743 6.31934 0.989883C6.2073 0.991022 6.09662 1.01451 5.99378 1.05896C5.89093 1.10341 5.79799 1.16793 5.72039 1.24876L3.6875 3.28165C3.5832 3.3614 3.49898 3.46443 3.44158 3.58251C3.38418 3.70059 3.35519 3.83046 3.35691 3.96175Z" fill="white"/>
</svg>
