<svg width="24" height="24" fill="none" xmlns="http://www.w3.org/2000/svg"><path d="M21.337 7.54c-.64-.405-1.483-.607-2.528-.607h-4.45l-3.707 12h4.382a8.393 8.393 0 002.932-.54c.91-.37 1.72-.876 2.461-1.55.708-.64 1.28-1.45 1.753-2.326.472-.877.708-1.854.809-2.933.1-.876 0-1.685-.304-2.36-.236-.74-.674-1.28-1.348-1.685zm-1.652 4.516c-.033.54-.202 1.045-.37 1.55-.203.473-.472.945-.81 1.282-.336.37-.707.674-1.112.876-.438.202-.876.337-1.382.337h-1.247l2.023-6.472H18c.438 0 .775.101 1.045.304.303.202.472.472.607.842.033.371.067.81.033 1.281zM5.899 14.202h-.135c-.472 0-.876-.168-1.112-.472-.54-.707-.304-1.988-.135-2.696.101-.337.944-3.236 2.932-3.472.27-.034.472.034.607.202.202.27.27.775.135 1.517l3.034-.405c.337-1.18.236-2.123-.27-2.797-.775-1.045-2.258-1.146-2.865-1.146-.169 0-.337 0-.506.033-3.202.337-6 3.135-6.606 6.674-.27 1.484.033 2.832.876 3.843.775.944 2.022 1.483 3.404 1.483.236 0 .472-.033.708-.033 2.798-.337 4.45-1.686 5.158-4.113l-3.135-.168c-.135.505-.708 1.45-2.09 1.55z" fill="#548224"/></svg>