<svg width="225" height="40" fill="none" xmlns="http://www.w3.org/2000/svg"><g clip-path="url(#prefix__clip0_3_12)" fill="#6FAC2F"><path d="M136.917 32.169a2.433 2.433 0 00-1.333-.296c-.444 0-.888.11-1.295.296a3.982 3.982 0 00-1.184.886 1.925 1.925 0 00-.741-.886c-.37-.222-.777-.296-1.221-.296-.444 0-.925.11-1.333.296-.444.221-.888.517-1.221.886l.037-.185c.074-.258 0-.517-.148-.738a.67.67 0 00-.629-.259c-.259 0-.518.11-.704.296-.222.221-.333.517-.37.85l-.925 5.54c-.074.296-.037.628.148.924a.682.682 0 00.666.295 1.2 1.2 0 00.778-.295c.222-.259.37-.554.407-.924l.407-2.622c.074-.665.296-1.293.592-1.884a1.519 1.519 0 011.37-.665c.259-.037.481.074.666.258.111.185.185.444.148.665-.037.37-.074.776-.148 1.145l-.518 3.103a1.35 1.35 0 00.111.924.682.682 0 00.666.295c.296 0 .555-.11.777-.295.259-.259.407-.554.407-.924l.407-2.586a5.788 5.788 0 01.482-1.736c.148-.258.37-.443.629-.628a1.37 1.37 0 01.777-.221.735.735 0 01.666.258c.148.185.185.407.185.628 0 .333-.037.665-.111.998l-.518 3.25c-.074.296-.037.628.148.924a.682.682 0 00.666.295c.297 0 .556-.11.778-.295.222-.259.407-.554.407-.924l.592-3.768c.111-.554.148-1.108 0-1.662.074-.406-.185-.702-.518-.923zm-13.954 3.62a3.365 3.365 0 01-.814 1.847c-.37.443-.926.665-1.518.665a1.74 1.74 0 01-.962-.296 1.571 1.571 0 01-.518-.85 4.011 4.011 0 010-1.33c.074-.48.222-.923.444-1.366a2.35 2.35 0 01.814-.887c.333-.184.666-.295 1.036-.295a1.398 1.398 0 011.296.665c.296.59.37 1.219.222 1.847zm1.369-2.845a2.712 2.712 0 00-1.11-.812 4.463 4.463 0 00-1.554-.296c-.556 0-1.111.074-1.629.296a4.349 4.349 0 00-1.37.812c-.407.37-.74.776-.962 1.256a6.028 6.028 0 00-.555 1.626 3.83 3.83 0 000 1.588c.074.443.296.887.592 1.256.296.37.666.628 1.074.813.481.184.999.295 1.554.295s1.11-.073 1.666-.295c.481-.185.962-.444 1.369-.813.407-.37.74-.776 1-1.256.259-.517.444-1.034.518-1.588a3.83 3.83 0 000-1.589c-.111-.48-.296-.923-.593-1.293zm-8.438-.332a2.842 2.842 0 00-.963-.554 4.198 4.198 0 00-1.332-.222c-.741 0-1.518.148-2.184.48-.629.333-1.184.813-1.555 1.404a5.434 5.434 0 00-.814 2.106c-.185 1.182 0 2.105.555 2.807.556.702 1.444 1.034 2.628 1.034.518 0 1.074-.073 1.555-.221a4.672 4.672 0 001.221-.591c.296-.222.555-.48.777-.776.186-.222.297-.48.334-.776a.692.692 0 00-.148-.59.552.552 0 00-.556-.26.754.754 0 00-.555.222c-.185.148-.333.333-.481.518a2.35 2.35 0 01-.888.812 2.059 2.059 0 01-1.037.259c-.259 0-.518-.037-.777-.148-.222-.11-.407-.295-.555-.48-.148-.222-.222-.517-.259-.776a3.014 3.014 0 01.037-.997c.074-.702.37-1.33.814-1.847.407-.407.962-.665 1.518-.628a1.36 1.36 0 01.925.258c.259.222.481.48.592.813.074.148.185.295.296.406.111.074.222.111.37.111a.895.895 0 00.667-.258c.185-.148.333-.37.37-.592.037-.258 0-.517-.111-.738-.037-.296-.222-.554-.444-.776zm-8.662 5.024c-.296 0-.592.11-.814.295a1.14 1.14 0 00-.407.74.911.911 0 00.185.812c.185.184.444.295.703.295.296 0 .556-.11.778-.295.259-.185.407-.48.444-.813.037-.259 0-.517-.185-.739-.148-.221-.444-.332-.704-.295zM216.051 15.73c.555-.296 1.184-.48 1.813-.443a2.825 2.825 0 011.555.332c.37.222.666.554.888.924.222.369.481.701.814 1.034.26.222.593.37.963.332.481 0 .962-.147 1.332-.443a1.87 1.87 0 00.629-1.108c.074-.443-.037-.887-.222-1.256a3.525 3.525 0 00-1.036-1.182c-.555-.407-1.184-.665-1.851-.85a10.532 10.532 0 00-2.665-.332 8.15 8.15 0 00-3.368.628c-.888.37-1.702.923-2.295 1.662-.555.628-.888 1.404-1.036 2.216-.148.776-.037 1.552.407 2.217a4.219 4.219 0 001.777 1.44c.999.444 2.036.776 3.072 1.035.851.185 1.666.48 2.406.887.481.332.666.923.555 1.477-.111.517-.444.96-.925 1.182a3.455 3.455 0 01-1.999.517c-.777.074-1.518-.11-2.184-.48-.518-.406-.962-.923-1.184-1.551a3.864 3.864 0 00-.481-.85c-.26-.222-.556-.332-.889-.295-.444 0-.888.147-1.221.443a1.87 1.87 0 00-.629 1.108 2.697 2.697 0 00.407 1.921c.481.702 1.147 1.293 1.961 1.588a8.673 8.673 0 003.48.628c1.295.037 2.591-.184 3.812-.59a5.857 5.857 0 002.591-1.737 5.3 5.3 0 001.184-2.77c.111-.665.037-1.33-.296-1.921a4.056 4.056 0 00-1.517-1.441 10.973 10.973 0 00-2.776-1.034c-.963-.259-1.74-.444-2.295-.628-.481-.111-.888-.333-1.296-.665-.296-.259-.444-.628-.37-.998.111-.37.445-.776.889-.997zm-8.217-2.254c-.777-.48-1.703-.701-2.628-.665-.999 0-1.999.222-2.887.629a8.387 8.387 0 00-2.554 1.994l.074-.48c.074-.406.074-.813-.074-1.182-.074-.296-.296-.554-.555-.739-.259-.184-.555-.258-.889-.258-.518 0-1.036.184-1.406.554a2.98 2.98 0 00-.74 1.662l-1.814 11.23c-.148.591-.074 1.22.259 1.736.296.407.777.665 1.296.628.555 0 1.11-.184 1.517-.59a2.97 2.97 0 00.851-1.774l.778-4.876c.259-1.589.518-2.66.814-3.25a4.215 4.215 0 011.518-1.7 3.466 3.466 0 011.998-.628c1.037 0 1.703.332 1.962 1.034.259.702.259 1.663.074 2.955l-1.036 6.465a2.367 2.367 0 00.259 1.736c.296.407.814.628 1.295.591.555 0 1.073-.221 1.481-.59.444-.48.74-1.109.814-1.774l1.147-7.24c.111-.702.185-1.404.222-2.106 0-.517-.074-1.034-.259-1.551a3.573 3.573 0 00-1.517-1.81zm-16.064-.665c-.555 0-1.073.222-1.48.592a3.037 3.037 0 00-.815 1.736l-1.813 11.119c-.148.591-.074 1.22.259 1.736.296.407.777.628 1.295.628.555 0 1.111-.221 1.518-.59a2.97 2.97 0 00.851-1.774l1.851-11.23a1.962 1.962 0 00-.296-1.625c-.408-.407-.889-.628-1.37-.591zm.962-5.208c-.518 0-1.036.185-1.443.554-.444.332-.74.813-.814 1.367-.111.48 0 1.034.333 1.404a1.85 1.85 0 001.295.517c.518 0 1.037-.185 1.444-.517.444-.333.74-.85.814-1.404.148-.48 0-1.035-.37-1.404-.37-.332-.814-.517-1.259-.517zm-11.177 13.742c-.223 1.367-.556 2.327-1 2.918a4.596 4.596 0 01-1.628 1.293 5.156 5.156 0 01-2.221.517 2.15 2.15 0 01-1.666-.628 1.724 1.724 0 01-.407-1.514c.074-.517.37-.998.777-1.33a3.266 3.266 0 011.296-.628c.444-.11 1.221-.296 2.332-.517a29.633 29.633 0 002.591-.665l-.074.554zm2.479-7.942c-.888-.407-2.22-.591-3.923-.591a10.89 10.89 0 00-3.923.59 6.63 6.63 0 00-2.517 1.59 3.92 3.92 0 00-1.074 1.994c-.074.37.037.776.297 1.071.555.48 1.406.554 2.035.148.185-.185.481-.554.926-1.071a4.3 4.3 0 011.48-1.22 5.385 5.385 0 012.295-.406c1.147 0 1.851.259 2.147.739.296.48.37 1.22.222 2.253-.852.222-1.629.444-2.369.591-.74.148-1.592.333-2.591.555-.999.221-1.629.332-1.888.369a6.391 6.391 0 00-3.035 1.515 4.755 4.755 0 00-1.48 2.733 3.656 3.656 0 00.259 2.18 3.105 3.105 0 001.48 1.588c.778.407 1.629.628 2.517.591a8.49 8.49 0 003.035-.554 16.653 16.653 0 002.998-1.625c.259.59.556 1.145.963 1.625.259.333.666.554 1.073.554.481 0 .962-.184 1.333-.48.37-.259.666-.665.74-1.108.037-.517 0-1.035-.111-1.515a7.917 7.917 0 010-2.29c.148-.776.259-1.478.37-2.143.111-.665.222-1.403.37-2.327.259-1.44.222-2.586-.037-3.472-.148-.85-.777-1.552-1.592-1.884zm-15.656.073a5.03 5.03 0 00-2.628-.628c-.888 0-1.777.185-2.591.591a9.306 9.306 0 00-2.406 1.737c-.259-.74-.777-1.33-1.443-1.773-.741-.407-1.555-.628-2.406-.591-.925 0-1.814.184-2.628.554a8.966 8.966 0 00-2.48 1.773l.074-.37c.148-.517.037-1.034-.259-1.477-.296-.37-.777-.554-1.221-.554-.519 0-1.037.184-1.444.554-.444.443-.703 1.034-.777 1.662l-1.925 11.12c-.148.812-.074 1.403.259 1.81.296.406.815.664 1.333.627.592 0 1.147-.221 1.554-.628.481-.48.778-1.145.852-1.81l.925-5.245a10.55 10.55 0 011.258-3.768c.556-.887 1.481-1.293 2.739-1.293.63 0 1.074.184 1.296.517.259.406.333.85.296 1.33-.074.776-.148 1.514-.296 2.29l-1.074 6.206c-.148.813-.074 1.44.222 1.847.297.407.815.628 1.333.628.592 0 1.147-.221 1.554-.628.482-.517.815-1.145.889-1.847l.888-5.171c.296-1.663.629-2.808 1.036-3.473.334-.48.778-.923 1.296-1.219a2.792 2.792 0 011.517-.443 1.61 1.61 0 011.333.517c.259.37.407.813.37 1.256-.037.665-.111 1.33-.222 1.995l-1.11 6.538c-.148.813-.037 1.404.259 1.81.296.407.814.665 1.332.628.592 0 1.148-.221 1.555-.628a3.168 3.168 0 00.851-1.847l1.258-7.573c.26-1.514.26-2.622.074-3.324-.259-.665-.777-1.33-1.443-1.7zm-27.131 7.24c-.296 1.552-.814 2.808-1.702 3.695a4.123 4.123 0 01-3.035 1.33 2.98 2.98 0 01-1.925-.591 2.974 2.974 0 01-.999-1.736 6.443 6.443 0 010-2.66c.148-.96.481-1.847.925-2.697a5.224 5.224 0 011.629-1.736c.629-.406 1.369-.591 2.109-.591 1.185 0 2.036.443 2.554 1.33.592.85.704 2.068.444 3.657zm2.776-5.725c-.555-.702-1.332-1.256-2.146-1.625a7.315 7.315 0 00-3.072-.554 9.738 9.738 0 00-3.258.554 8.867 8.867 0 00-2.739 1.588 9.195 9.195 0 00-1.998 2.475 9.961 9.961 0 00-1.111 3.25 8.538 8.538 0 00-.037 3.215c.148.923.556 1.773 1.111 2.512a5.526 5.526 0 002.146 1.625 7.318 7.318 0 003.073.554c1.11 0 2.22-.184 3.294-.554a8.973 8.973 0 002.739-1.625 8.82 8.82 0 001.998-2.512 9.737 9.737 0 001.111-3.214 8.537 8.537 0 00.037-3.214c-.148-.887-.555-1.736-1.148-2.475zm-20.357 5.689a7.569 7.569 0 01-.999 2.77 4.674 4.674 0 01-1.666 1.626 3.985 3.985 0 01-1.961.517c-.63 0-1.259-.185-1.777-.554a2.921 2.921 0 01-1.036-1.662 6.62 6.62 0 010-2.697c.148-.924.481-1.81.925-2.623a5.224 5.224 0 011.629-1.736c.592-.406 1.295-.591 1.998-.591.629 0 1.259.185 1.777.59a3.442 3.442 0 011.073 1.7c.222.887.222 1.81.037 2.66zm4.479-13.631c-.555-.037-1.111.221-1.481.628-.444.517-.703 1.145-.814 1.81l-.999 5.689c-.482-.74-1.148-1.33-1.925-1.773-.851-.407-1.777-.628-2.702-.591a7.122 7.122 0 00-5.034 2.068c-1.443 1.367-2.369 3.251-2.813 5.652-.185 1.072-.259 2.143-.111 3.214.111.924.37 1.81.852 2.586.407.702 1.036 1.293 1.739 1.7a5.33 5.33 0 002.48.59c.666 0 1.332-.11 1.999-.295a6.764 6.764 0 001.813-.85c.63-.443 1.259-.924 1.814-1.44l-.074.369a2.078 2.078 0 00.222 1.625c.296.37.74.591 1.221.591.519 0 1.037-.184 1.407-.554.444-.443.74-1.034.814-1.662l3.072-17.14a2.359 2.359 0 00-.185-1.663 1.35 1.35 0 00-1.295-.554zM111.105 5.166c-.222.037-5.696.738-8.544 1.143l-1.442.185-.074.184s-.148.48-.407 1.218h-.074c-.037 0-7.84.701-10.356 1.144l.37-1.66.703-2.99-3.07.333-18.789 2.03-1.738.184-.185 1.734-.148 1.144c-1.812-3.985-5.844-4.797-7.323-5.129a16.971 16.971 0 00-3.07-.295 18.09 18.09 0 00-3.55.369l.073-.185-3.328.111c-1.85.074-3.773.553-5.548 1.18l.11-.368.149-.48-3.33.37-8.987 1.032-4.216 12.84-8.655-.442-1.664-.074-.518 1.587c-.518 1.512-1.48 2.287-3.144 2.398h-.221c-.666-.037-.666-.148-.74-.221-.148-.185-.333-.775-.333-1.624 0-.738.11-1.66.407-2.804.629-2.325 2.404-5.756 4.512-6.531 0 .332-.037.775-.148 1.439l-.555 2.989 3.033-.406 7.73-1.033 1.184-.148.222-.037.406-1.365c.407-1.402.63-2.694.63-3.911 0-1.919-.519-3.653-1.591-5.055C26.223.627 21.785.295 19.972.295c-.518 0-.998.037-1.48.074-8.839.922-16.458 8.523-18.16 18.08-.147.96-.258 1.882-.258 2.804 0 3.173.999 6.088 2.922 8.376 2.404 2.878 5.992 4.428 10.06 4.428.666 0 1.331-.037 2.034-.111 3.329-.406 6.288-1.44 8.692-2.989l-.777 2.362 3.588-.554 8.247-1.291 1.073-.185.185-.037.444-1.217 2.922-8.007c.998-2.694 2.589-4.243 5.548-5.129-1.924 2.177-3.033 4.944-3.07 7.86v.073c0 1.771.629 3.358 1.775 4.539 1.48 1.476 3.773 2.287 6.436 2.287h.443l-1.294 2.952 4.253-.996 8.396-1.956-.296 2.103 2.811-.295 17.79-1.919 1.627-.184.296-1.623 1.147-10.406-1.184-.147 1.517-.849c-.26 1.218-.37 2.288-.37 3.247-.037 3.727 1.701 5.645 3.255 6.642h-3.958l1.665 10.552.258.037s3.514.406 4.587.406c2.44 0 8.47-.332 11.909-3.948 2.922-3.025 4.623-8.08 6.288-12.988l.222-.627c.998-2.878 3.809-13.246 3.92-13.69l.851-3.172-3.181.369zm1.738 2.546c-.111.442-2.959 10.848-3.92 13.652l-.222.627c-1.664 4.87-3.403 9.889-6.14 12.73-3.18 3.357-9.061 3.763-11.465 3.763-.777 0-3.403-.295-4.254-.369l-1.405-9.261h2.145c1.036 0 2.034 0 2.293-.037l1.295-.11-1.184-.517c-1.627-.775-3.994-2.288-3.994-6.679 0-1.07.148-2.361.517-3.837l.185-.775-4.586 2.657 2.478.332-1.072 9.74-.185 1.108-1.147.147-17.79 1.919-1.96.221.333-2.213-.999.22-8.396 1.956-2.959.702 1.184-2.73-.555.036c-.296.037-.629.037-.961.037-2.552 0-4.66-.775-5.955-2.066-1.036-1.07-1.59-2.436-1.59-4.06v-.036c.037-3.136 1.368-6.088 3.661-8.228l.037-.037.037-.074.296-.627-.666.147c-3.81.812-5.992 2.62-7.138 5.867l-2.922 8.007-.296.849-.887.147-8.174 1.181-2.478.369 1.072-3.247-.85.627c-2.441 1.771-5.548 2.989-9.21 3.432-.666.074-1.331.147-1.96.147-3.92 0-7.286-1.513-9.542-4.206C1.7 27.046.74 24.316.74 21.29c0-.886.074-1.771.222-2.694C2.626 9.298 10.06 1.92 18.567 1.033c.48-.037.924-.074 1.405-.074 1.739 0 5.955.37 8.248 3.469.962 1.291 1.48 2.84 1.48 4.649 0 1.144-.185 2.398-.592 3.726l-.296.96-.999.147-7.73 1.034-2.071.258.407-2.066c.148-.738.185-1.255.185-1.624v-.406l-.037-.369-.37.074c-2.811.664-4.66 4.538-5.4 7.121-.333 1.181-.444 2.177-.444 2.989 0 .96.148 1.623.481 2.03.111.147.48.516 1.295.479h.258c1.85-.11 3.181-1.144 3.736-2.878l.37-1.107 1.146.074 9.173.443 4.29-12.804 8.58-.996 2.294-.258-.148.516-.222.664.629-.221c1.886-.701 4.068-1.291 5.992-1.365l2.293-.074-.148.406.629-.148c.924-.258 2.367-.516 3.994-.516.998 0 1.997.073 2.959.258 1.664.369 6.028 1.254 7.323 6.014l.666-.037.296-2.582.147-1.218 1.221-.148 18.789-2.029 2.108-.221-.48 2.066-.63 2.693.555-.147c1.22-.332 8.359-1.033 10.282-1.18-.444 1.549-1.886 6.53-2.737 9.223-.074.259-.148.48-.222.665l-.11.258-.112.295.592.295c.074-.147.111-.221.148-.369.111-.258.185-.59.333-.996.962-2.878 3.144-9.667 3.551-10.922l1.035-.147c2.848-.406 8.47-1.144 8.507-1.144l2.256-.295-.629 2.214z"/><path d="M66.833 20.11l2.33-1.514-.222-.59-2.182.406-.074.184c-.11.37-.222.738-.333 1.144l-.259.886.74-.517zm.407-1.145l.148-.037-.148.111v-.074zM19.565 21.032c-.628 1.881-2.145 3.69-5.104 3.91-3.92.26-4.179-3.652-3.18-7.416.776-2.767 3.07-7.785 6.99-8.265 1.812-.221 2.071 1.66 1.627 4.17l7.73-1.033c2.515-8.487-4.549-10.295-8.913-9.852-8.396.885-14.795 8.265-16.2 16.272-1.405 8.043 4.253 13.947 12.353 12.95 6.103-.737 11.688-3.91 13.426-10.294l-8.729-.442zM50.264 6.974c-2.885.11-6.547 1.586-9.136 2.878l.703-2.177-8.211.885-7.397 22.028 8.248-1.291 2.922-8.007c1.442-3.985 4.253-6.346 10.06-7.121l2.81-7.195zM59.658 6.9c-4.032-.775-7.323.516-7.323.516l-2.885 6.089s5.696-2.14 8.174-1.034c1.11.517.74 1.218.665 2.14-1.96-.369-5.178-.369-8.321 1.218-3.366 1.697-5.77 4.981-5.807 8.966-.037 5.129 6.694 5.35 10.17 3.874-.443.997-1.22 2.805-1.22 2.805l8.396-1.956s4.623-13.246 4.623-15.091c0-5.904-3.994-7.01-6.472-7.527zm-3.995 17.305c-1.405.184-3.18-.221-2.81-1.993.554-2.546 2.514-3.616 4.66-3.099-.185.553-1.295 3.837-1.85 5.092zM99.306 19.334c-.998 2.952-4.068 1.92-3.883.296.333-3.432 1.664-6.531 2.663-9.52-1.073 0-7.212.96-7.841 1.18-1.073 2.731-3.18 8.561-2.663 10.775 1.073 4.649 3.477 5.866 8.95 5.092-1.257 2.472-4.623 3.394-9.357 3.21 0 0 1.406 5.793 1.369 6.42 3.587.48 9.949 0 12.945-3.136 2.663-2.73 4.327-7.896 6.028-12.804.962-2.804 3.884-13.541 3.884-13.541s-5.585.738-8.507 1.107c-.925 3.542-2.404 7.342-3.588 10.921z"/><path d="M69.718 8.93l-.85 7.526 8.876-1.586-12.242 7.896-1.258 8.523 17.79-1.918 1.406-8.155-10.282 1.771 13.425-7.748 1.924-8.302-18.789 1.992z"/></g><defs><clipPath id="prefix__clip0_3_12"><path fill="#fff" d="M0 0h224.416v40H0z"/></clipPath></defs></svg>