<svg height="310" width="420" xmlns="http://www.w3.org/2000/svg" xmlns:xlink="http://www.w3.org/1999/xlink"><radialGradient id="a" cx="49.998%" cy=".498%" gradientTransform="matrix(0 1 -.55037 0 .503 -.495)" r="141.989%"><stop offset="0" stop-color="#fff"/><stop offset="1" stop-color="#c7cccf"/></radialGradient><linearGradient id="b" x1="50%" x2="50%" y1="6.153%" y2="94.086%"><stop offset="0" stop-color="#e8e8ef"/><stop offset="1" stop-color="#fff"/></linearGradient><g fill="none" fill-rule="evenodd"><g transform="translate(.302 1)"><path d="m207.637 72.51c.13 2.083.781 4.947 2.994 7.42" stroke="#229000" stroke-width="1.302"/><path d="m321.675 308.526h-273.378l71.99-102.842c18.485 1.693 40.746 2.734 64.699 2.864 21.74-.13 42.048-1.041 59.492-2.473z" fill="url(#b)"/><path d="m306.444 107.789h-.13c0 12.107-54.286 25.906-121.328 25.906-67.043 0-121.328-13.8-121.328-25.906h-.13c6.248-60.403 58.19-107.529 121.458-107.789 63.267.26 115.209 47.386 121.458 107.789z" stroke="#fff" stroke-width=".542"/><path d="m306.444 107.789h-.13c0 6.118-14.06 12.758-36.711 17.704-21.87 4.817-51.682 8.202-84.617 8.202-27.078 0-52.072-2.213-72.12-5.728-29.811-5.077-49.208-12.888-49.208-20.178h-.13c6.248-60.403 58.19-107.529 121.458-107.789 63.267.26 115.209 47.386 121.458 107.789" fill="url(#a)"/><path d="m63.528 107.818s-62.096 16.924-63.268 35.149v.52s0 .261.13.651c.13.26.26.782.391 1.302 0 .13.13.39.13.521 2.734 8.201 16.663 34.368 78.76 50.64 3.905 1.041 8.46 1.953 13.798 2.864 21.61 3.645 54.415 5.988 91.387 6.249 36.97-.13 69.776-2.604 91.386-6.249 5.337-.911 10.024-1.823 13.799-2.864 62.226-16.142 76.025-42.439 78.889-50.51 0-.13.13-.39.13-.52.13-.521.26-.912.39-1.302s.13-.651.13-.651v-.52c-1.17-18.226-59.622-34.108-63.267-35.15h-.13" fill="#f0f0f5" fill-rule="nonzero"/><path d="m369.841 143.458c0 .26 0 .39-.13.651v.26c0 .13-.13.391-.13.521v.13c0 .13-.13.26-.13.391-6.9 18.225-86.96 36.45-184.335 36.58-97.506-.129-177.566-18.354-184.466-36.579 0-.13-.13-.26-.13-.39v-.13c0-.13-.13-.391-.13-.521v-.26c0-.261-.13-.391-.13-.522v-.65c0-.26 0-.521.13-.781 0-.26 0-.391.13-.651.26-1.302.911-2.604 1.822-3.906.26-.39.521-.78.911-1.171 1.823-2.344 4.427-4.557 7.55-6.64 1.173-.78 2.344-1.562 3.516-2.343 5.858-3.515 12.888-6.77 19.917-9.633.781-.26 1.562-.651 2.344-.911 1.171-.521 2.343-.912 3.514-1.302.651-.26 1.432-.52 2.083-.781.26-.13.521-.13.781-.26 1.432-.521 2.995-1.042 4.296-1.563 2.083-.65 4.036-1.302 5.858-1.953.521-.13 1.042-.26 1.432-.52 5.468-1.693 8.983-2.734 8.983-2.734h.13-.13c6.119-60.404 58.191-107.53 121.459-107.79 63.267.26 115.34 47.386 121.588 107.789 1.432.39 10.675 2.864 21.74 6.9.78.26 1.562.52 2.343.91l3.124 1.172c.781.26 1.432.521 2.213.912.13 0 .391.13.521.26.781.26 1.562.65 2.343.911 11.977 4.947 23.823 11.326 28.64 18.225.26.26.39.521.52.782.912 1.432 1.433 2.733 1.693 4.165v.911c.13.26.13.391.13.521z" fill="#f0f0f5" opacity=".2"/><path d="m369.841 143.458s0 .26-.13.651c0 .13 0 .13-.13.26 0 .13-.13.391-.13.651 0 .13-.13.26-.13.391-6.9 18.225-86.96 36.45-184.335 36.58-97.376-.129-177.436-18.354-184.336-36.579 0-.13-.13-.26-.13-.39-.13-.26-.13-.391-.13-.651 0-.13 0-.13-.13-.26-.13-.391-.13-.652-.13-.652v-.52c1.301-18.226 63.267-35.149 63.267-35.149h242.915c3.645 1.041 62.096 16.923 63.268 35.149.26.13.26.39.26.52" fill="#fff" fill-opacity=".7"/><path d="m306.313 107.789h.13c3.646 1.041 62.096 16.923 63.268 35.149v.52" fill="#fff" fill-opacity=".7"/><path d="m306.574 107.659c-.13 6.118-33.066 11.716-56.238 15.882 0-3.906-.65-6.9-2.343-16.924-1.172-6.639-3.775-10.935-7.16-16.663 30.853 4.036 65.74 10.415 65.74 17.705zm-180.43 18.095c-29.81-4.166-62.616-10.675-62.616-18.095 0-8.071 33.586-15.101 69.776-19.137-2.213 6.64-4.816 13.018-8.852 19.788-8.201 13.669-.39 12.497 1.692 17.444z" fill="#c0c9c6"/><path d="m179.779 133.695c-27.078 0-32.936-2.604-53.114-5.988-.65-7.29-11.326-4.166-2.213-19.397s10.805-29.16 18.616-47.386c3.905-.65 9.503-8.982 8.592-11.065-.39-1.042-1.432-.52-2.213-1.302 0 0 14.32-11.586 23.692-11.065 9.373.52 13.018 3.645 19.137 4.166 6.118.52 8.722-3.515 15.361-3.515 2.994 0 6.379 2.213 8.982 4.165-.26.391-.52.651-.65 1.042-.912 1.692-2.995 4.556-1.302 8.462 2.994 6.769 6.509 9.373 9.763 10.154.911.26 2.213-.39 3.515-1.693.52 1.302.911 2.734 1.432 4.166 7.81 24.734 16.142 28.9 18.486 42.178 2.343 13.279 2.603 14.32 2.343 21.09-21.87 4.686-37.492 5.858-70.427 5.988z" fill="#c7e097"/><path d="m255.153 127.967c1.041-1.042 1.822-2.474 1.692-4.036 0-4.556-3.385-10.935-11.195-16.533-12.107-8.852-33.066-2.603-27.599 22 .391 1.563 1.432 2.735 2.864 3.255-1.562.13-2.994.13-4.165.26-1.563.13-2.995-.91-3.385-2.473-8.332-33.586 17.965-42.178 33.066-30.592 7.81 6.118 13.408 11.065 14.71 16.012 1.432 5.077-1.432 10.154-5.988 12.107z" fill="#6fac2f"/><path d="m252.159 129.399c2.733-.39 4.686-2.734 4.686-5.468 0-4.556-3.385-10.935-11.195-16.533-12.107-8.722-33.066-2.603-27.599 22 .521 2.084 2.344 3.516 4.427 3.386 4.686-.26 12.627-.782 16.012-1.172 3.124-.39 10.024-1.692 13.669-2.213z" fill="#c7e097"/><path d="m255.153 127.967a5 5 0 0 1 -2.994 1.432c-3.645.52-10.545 1.822-13.54 2.213-3.384.39-11.455.911-16.141 1.172-.521 0-1.042 0-1.563-.26 5.728-.391 13.409-.912 16.924-1.303 3.254-.39 10.284-1.822 14.58-2.473 1.041-.13 1.953-.39 2.734-.781z" fill="#c7e097"/><path d="m132.002 130.961c4.557.65 16.013 1.302 21.09 1.562 1.562.13 2.994-.911 3.384-2.473 8.332-33.587-17.965-42.179-33.065-30.593-7.811 5.989-13.409 11.066-14.71 16.013-1.563 5.988 2.603 11.976 8.721 12.887 4.166.782 11.326 2.213 14.58 2.604z" fill="#6fac2f"/><path d="m131.221 131.352c3.385.39 11.456.91 16.013 1.171 2.082.13 4.035-1.302 4.426-3.384 5.597-24.605-15.492-30.723-27.599-22-7.81 5.597-11.065 11.976-11.195 16.532 0 2.734 1.953 5.077 4.686 5.468 3.776.52 10.675 1.952 13.67 2.213z" fill="#c7e097"/><path d="m209.981 60.924c0 5.598-4.166 10.024-9.373 10.024s-9.373-4.556-9.373-10.024 4.166-10.024 9.373-10.024c5.207-.13 9.373 4.426 9.373 10.024z" fill="#fff"/><path d="m200.738 52.072c4.426 0 8.071 3.905 8.071 8.722s-3.645 8.722-8.071 8.722-8.071-3.905-8.071-8.722 3.645-8.722 8.07-8.722m.001-1.302c-5.206 0-9.372 4.556-9.372 10.024 0 5.598 4.166 10.024 9.373 10.024s9.373-4.557 9.373-10.024c-.131-5.468-4.297-10.024-9.374-10.024z" fill="#91989b" fill-rule="nonzero" opacity=".2"/><path d="m207.378 63.007c0 3.645-2.865 6.64-6.51 6.64s-6.509-2.995-6.509-6.64 2.864-6.64 6.51-6.64c3.644 0 6.508 2.995 6.508 6.64z" fill="#49585c"/><path d="m200.087 61.575c0 .65-.52 1.172-1.172 1.172-.65 0-1.171-.521-1.171-1.172s.52-1.172 1.171-1.172 1.172.521 1.172 1.172m-30.853-10.805c5.208 0 9.373 4.556 9.373 10.024 0 5.467-4.165 10.024-9.373 10.024-5.207 0-9.373-4.557-9.373-10.024 0-5.468 4.296-10.024 9.373-10.024z" fill="#fff"/><path d="m169.234 52.072c4.427 0 8.072 3.905 8.072 8.722s-3.645 8.722-8.072 8.722c-4.426 0-8.07-3.905-8.07-8.722s3.644-8.722 8.07-8.722m0-1.302c-5.207 0-9.373 4.556-9.373 10.024 0 5.467 4.166 10.024 9.373 10.024 5.208 0 9.373-4.557 9.373-10.024 0-5.468-4.165-10.024-9.373-10.024z" fill="#91989b" fill-rule="nonzero" opacity=".2"/><path d="m175.483 63.007c0 3.645-2.864 6.64-6.509 6.64s-6.509-2.995-6.509-6.64 2.864-6.64 6.509-6.64 6.509 2.995 6.509 6.64z" fill="#49585c"/><path d="m168.193 61.575c0 .65-.52 1.172-1.172 1.172-.65 0-1.171-.521-1.171-1.172s.52-1.172 1.171-1.172 1.172.521 1.172 1.172" fill="#fff"/><circle cx="280.798" cy="83.706" fill="#f0f0f5" r="3.385"/><g transform="translate(322.846 57.062)"><circle cx="9.255" cy="9.089" fill="#f0f0f5" r="7.42" transform="matrix(.22981194 -.97323506 .97323506 .22981194 -1.717643 16.00753)"/><path d="m9.243 2.95a6.113 6.113 0 0 1 6.118 6.12 6.111 6.111 0 0 1 -6.118 6.118 6.112 6.112 0 0 1 -6.119-6.119 6.112 6.112 0 0 1 6.119-6.118m0-1.302c-4.036 0-7.42 3.385-7.42 7.42 0 4.036 3.384 7.42 7.42 7.42 4.035 0 7.42-3.384 7.42-7.42 0-4.035-3.254-7.42-7.42-7.42z" fill="#fff" fill-rule="nonzero" opacity=".5"/></g><g transform="translate(386.634 54.676)"><circle cx="16.403" cy="16.142" fill="#f0f0f5" r="16.142"/><path d="m16.403 2.604c7.55 0 13.538 6.118 13.538 13.538s-6.118 13.539-13.538 13.539-13.539-6.118-13.539-13.539c0-7.42 5.988-13.538 13.539-13.538m0-2.604c-8.983 0-16.143 7.29-16.143 16.142 0 8.983 7.29 16.143 16.143 16.143 8.982 0 16.142-7.29 16.142-16.143 0-8.852-7.29-16.142-16.142-16.142z" fill="#fff" fill-rule="nonzero" opacity=".5"/></g><path d="m178.343 95.178c0-.13 0 0 0 0zm30.202-7.941h-.26c-1.303 0-2.604.65-3.255 1.692-.651-1.041-1.953-1.692-3.255-1.692s-2.603.65-3.254 1.692c-.651-1.041-1.953-1.692-3.255-1.692-2.083 0-3.775 1.562-3.905 3.645-.651-.65-1.562-1.041-2.604-1.041-1.692 0-3.124 1.041-3.645 2.603-.65-.78-1.692-1.302-2.864-1.302-2.213 0-3.905 1.693-3.905 3.906-.13-8.852 3.515-14.71 11.195-15.492 10.284-1.17 16.143 3.776 19.007 7.681z" fill="#484848"/><path d="m211.018 91.793c-1.692-.13-3.515-.13-5.337-.13h-1.172c-1.692 0-3.515.13-5.337.26l-1.172.13c-1.823.13-3.645.391-5.468.652l-.78.13c-1.823.26-3.776.65-5.859.911-.39 0-.65.13-1.041.26-2.083.39-4.296.781-6.51 1.302v-.13c0-2.213 1.693-3.905 3.906-3.905 1.172 0 2.213.52 2.864 1.301.52-1.432 1.953-2.603 3.645-2.603 1.042 0 1.953.39 2.604 1.041.13-1.953 1.822-3.645 3.905-3.645 1.302 0 2.604.651 3.255 1.692.65-1.171 1.952-1.822 3.254-1.822s2.604.65 3.255 1.692c.65-1.041 1.952-1.692 3.254-1.692h.26c1.823 2.473 2.474 4.556 2.474 4.556z" fill="#fff"/><path d="m190.974 90.085c-.52-3.646 3.515-4.817 6.118-4.036 1.953-1.823 5.208-1.041 6.119 1.172s1.302 7.81-3.255 8.852c-4.556.911-8.331-2.474-8.982-5.988z" fill="#e91e63"/><path d="m148.666 124.973c-13.149 0-14.841 11.195-14.841 12.237 0 1.952 6.249 2.994 14.45 2.994s15.1-1.042 15.1-2.994c0-1.042-2.342-12.237-14.71-12.237z" fill="#e91e63" fill-rule="nonzero"/><path d="m133.565 116.641c18.095-2.603 18.876 14.06 16.402 16.663-1.692 1.693-4.426.39-6.248-3.515-1.823-3.905-4.296-2.343-4.296-2.343 2.473 7.16 3.124 9.633-1.693 10.935-2.864.781-6.118-9.112-6.118-9.112s3.775 7.03-1.823 8.722c-4.816 1.432-8.591-8.332-7.94-13.148.65-3.776 5.988-7.42 11.716-8.202" fill="#6fac2f"/><path d="m184.986 5.207c29.16.13 57.149 10.805 78.628 30.072 21.35 19.136 34.758 45.042 37.622 73.03l.39 3.516 3.516.91c1.692.391 17.053 4.557 31.894 10.806 22.39 9.373 26.687 16.142 27.468 18.746v1.171c-.52 1.172-2.864 5.208-15.231 10.415-9.634 4.165-23.172 8.07-39.184 11.325-35.149 7.29-79.54 11.326-124.973 11.456-45.433-.13-89.954-4.166-125.103-11.456-39.314-8.201-52.723-17.444-54.415-21.74v-1.171c1.171-4.036 9.112-11.066 28.77-19.137 13.408-5.598 26.947-9.503 29.94-10.414h4.687v-6.509c3.255-27.338 16.533-52.463 37.492-71.209 21.35-19.006 49.338-29.68 78.499-29.81m0-5.208c-63.268.26-115.34 47.386-121.458 107.789h.13-.13s-62.096 16.923-63.268 35.149v.52s0 .26.13.651c0 .13 0 .13.13.26 0 .13.13.391.13.651 0 .13.131.26.131.391 6.9 18.225 86.96 36.45 184.335 36.58 97.374-.13 177.435-18.355 184.335-36.58 0-.13.13-.26.13-.39 0-.26.13-.391.13-.651 0-.13.13-.13.13-.26.13-.391.13-.652.13-.652v-.52c-1.301-18.226-59.622-34.108-63.267-35.149-6.379-60.403-58.45-107.529-121.718-107.789z" fill="#fff" fill-rule="nonzero" opacity=".2"/><path d="m152.961 44.13c-6.248-4.556-8.201-8.462-8.982-15.36-.13-1.432-2.213-1.823-2.864-.39-2.213 5.335-5.078 8.72-5.468 16.791-.52 13.019 6.12 21.611 9.373 20.829 3.255-.78 6.64-3.384 9.764-10.154 1.692-3.905.911-7.68 0-9.373-.39-.91-1.042-1.692-1.823-2.343z" fill="#c7e097"/><path d="m139.813 61.835c1.823 2.864 3.906 4.296 5.337 4.035 3.255-.78 6.64-3.384 9.764-10.154 1.692-3.905.911-7.68 0-9.373a4.592 4.592 0 0 0 -1.953-2.213c-.65-.39-1.171-.911-1.822-1.302.78 1.693 1.562 5.468-.13 9.243-2.995 6.77-6.51 9.373-9.764 10.154-.26 0-.781-.13-1.432-.39zm-3.254-7.941h.39c3.255-.781 6.64-3.385 9.764-10.154.65-1.563 1.041-3.125 1.041-4.557-1.562-2.083-2.864-5.988-3.385-8.852-1.432-1.041-2.212-.52-3.254-1.561-2.213 5.076-4.948 8.46-5.208 16.27-.26 3.255.13 6.25.65 8.853z" fill="#6fac2f"/><path d="m136.559 39.183c2.603-1.041 5.207-3.515 7.68-8.592-.13-.65-.26-1.301-.26-1.952-.13-1.562-2.213-1.823-2.864-.39-1.432 3.905-3.385 6.769-4.556 10.934z" fill="#c7e097"/><path d="m214.667 43.61c-.912 1.692-1.693 5.468 0 9.373 2.994 6.77 6.509 9.373 9.763 10.154 3.255.781 9.764-7.81 9.373-20.829-.26-8.07-3.254-11.456-5.467-16.793-.521-1.432-2.604-1.172-2.864.39-.782 6.9-2.734 10.936-8.983 15.362-.78.65-1.432 1.432-1.822 2.343z" fill="#c7e097"/><path d="m229.767 59.101c-1.822 2.864-3.905 4.296-5.337 4.036-3.254-.781-6.64-3.385-9.763-10.154-1.693-3.905-.912-7.68 0-9.373a4.595 4.595 0 0 1 1.952-2.213c.651-.39 1.172-.911 1.823-1.302-.781 1.693-1.562 5.468.13 9.243 2.994 6.77 6.509 9.373 9.764 10.154.26 0 .78-.13 1.431-.39zm3.255-7.941h-.39c-3.255-.78-6.64-3.384-9.764-10.154-.65-1.562-1.041-3.124-1.041-4.556 1.562-2.083 2.863-5.988 3.384-8.852 1.432-1.042 2.213-.52 3.255-1.562 2.213 5.077 4.947 8.461 5.207 16.272.26 3.255-.13 6.249-.651 8.852z" fill="#6fac2f"/><path d="m233.022 36.45c-2.604-1.041-5.207-3.515-7.68-8.592.13-.65.26-1.302.26-1.952.13-1.563 2.213-1.823 2.864-.391 1.432 3.905 3.384 6.77 4.556 10.935z" fill="#c7e097"/><path d="m230.419 127.707c-.13.26-.26.65-.26.91l-2.865-.26c1.562-1.692 3.125-.65 3.125-.65z" fill="#fff"/><path d="m236.407 116.902c5.728.78 11.065 4.426 11.586 8.331.78 4.817-3.125 14.58-7.941 13.148-3.906-1.952-2.213-7.03-2.213-7.03s-2.474 8.202-5.728 7.42c-4.947-1.431-4.166-3.774-1.692-10.934 0 0-2.474-1.432-4.296 2.343-1.823 3.905-4.557 5.077-6.25 3.515-2.472-2.734-1.561-19.397 16.534-16.793" fill="#6fac2f"/></g><g fill="#f0f0f5"><path d="m137.121 155.393-3.385 5.728-26.947-2.343 16.663-4.556z"/><path d="m116.943 159.82-10.154-1.042 23.302-16.793 7.42.521zm11.196 13.278-12.237-1.042 20.177-20.308 8.853.521zm104.925-17.705 3.384 5.728 26.947-2.343-16.663-4.556z"/><path d="m253.241 159.82 10.154-1.042-23.302-16.793-7.42.521zm-11.195 13.278 12.237-1.042-20.178-20.308-8.852.521zm-26.296-10.284-13.15-16.404c-1.171-1.562-2.994-2.473-4.816-2.473h-25.514c-1.823 0-3.646.91-4.817 2.473l-13.148 16.403c-3.776 4.816-.781 12.367 4.816 12.367h51.682c5.858.13 8.852-7.55 4.947-12.367zm-13.93 6.9h-33.196c-3.645 0-5.597-5.338-3.124-8.723l8.462-11.586c.78-1.041 1.953-1.692 3.124-1.692h16.403c1.171 0 2.343.65 3.124 1.692l8.462 11.586c2.213 3.385.39 8.722-3.255 8.722z"/></g></g></svg>