<svg version="1.1" id="prefix__prefix__Layer_1" xmlns="http://www.w3.org/2000/svg" x="0" y="0" viewBox="0 0 102 102" xml:space="preserve"><style>@keyframes breathing{0%,100%{-webkit-transform:scale(.95);-ms-transform:scale(.95);transform:scale(.95)}50%{-webkit-transform:scale(1);-ms-transform:scale(1);transform:scale(1)}}@-webkit-keyframes breathing{0%,100%{-webkit-transform:scale(.95);-ms-transform:scale(.95);transform:scale(.95)}50%{-webkit-transform:scale(1);-ms-transform:scale(1);transform:scale(1)}}.prefix__prefix__st0{fill:#6fac2f;-webkit-animation:breathing .5s ease-out infinite normal;animation:breathing 1s ease-out infinite normal}</style><path class="prefix__prefix__st0" d="M79.8 43.1c-.3-.9-.8-1.6-1.4-2.1-.7-.5-1.6-.7-2.7-.7h-2.9l-6.6 21.3h1.3c1.6 0 3.1-.4 4.5-1.1 1.5-.7 2.8-1.8 3.9-3.1 1.2-1.3 2.1-2.9 2.9-4.7.8-1.8 1.2-3.7 1.4-5.6.1-1.5 0-2.9-.4-4zM67.7 60.5l5.9-19h2.1c.9 0 1.6.2 2.1.5s.8.8 1 1.5c.3.9.4 2.1.2 3.6-.2 1.8-.6 3.6-1.3 5.3-.7 1.7-1.6 3.1-2.7 4.4-1 1.2-2.2 2.1-3.5 2.8-1.3.6-2.5.9-3.8.9z"/><path class="prefix__prefix__st0" d="M99.5 34.1c-1.4-3.7-3.9-6.7-7.3-8.9-3.3-2.1-7.6-3.2-12.8-3.2H58l-.2.8-.6 1.8-4.4 14.3c.4-4.1-.5-7.6-2.6-10.5C45.8 22.6 38.1 22 35 22c-.8 0-1.7 0-2.5.1C17.4 23.7 4.3 36.8 1.4 53.2.1 60.5 1.8 67.4 6 72.4c4.1 4.9 10.2 7.6 17.2 7.6 1.1 0 2.3-.1 3.5-.2 5.7-.7 10.8-2.4 14.9-5.1l-.2.6-1 3.3L40 80h23.7c4.8 0 9.4-.9 13.6-2.5 4.3-1.7 8.1-4.1 11.5-7.2 3.3-3.1 6.1-6.7 8.2-10.9 2.1-4.1 3.4-8.7 3.8-13.6.5-4.3 0-8.2-1.3-11.7zm.2 11.6c-.5 4.8-1.7 9.2-3.7 13.2s-4.7 7.6-7.9 10.5c-3.2 3-7 5.3-11.1 7-4.1 1.6-8.6 2.5-13.2 2.5H41.6l1-3.3 1.2-3.9c-4.4 3.7-10.3 6.1-17.2 7-1.1.1-2.2.2-3.3.2-6.7 0-12.5-2.6-16.4-7.2-4-4.8-5.6-11.3-4.4-18.3C5.3 37.5 18 24.8 32.7 23.2c.8-.1 1.6-.1 2.4-.1 2.9 0 10.1.6 14.1 6 2.7 3.7 3.2 8.5 1.5 14.4l-.5 1.6-1.6.2-13.3 1.8-3.4.5.6-3.4c.5-2.7.2-3.9.1-4.2h-.1c-2.2.3-4.3 1.8-6.3 4.6-1.5 2.1-2.8 5.1-3.6 7.8-1 3.9-1 7.3.1 8.7.3.4.9.9 2.3.9h.4c4.1-.3 5.8-2.9 6.6-5l.6-1.8 1.9.1 14.2.7 9.6-30.9.6-1.8h20.6c4.9 0 9 1 12.2 3 3.2 2.1 5.5 4.9 6.8 8.3 1.2 3.2 1.6 7 1.2 11.1zm-67.7 3l3.4-.5 13.3-1.8 1.6-.2h.1l-2.6 8.5-13.2-.7-1.9-.1h-.9l-.3.8-.6 1.8c-.9 2.6-2.7 4-5.6 4.2H25c-1.1 0-1.3-.3-1.4-.4-.7-.9-1-3.7.1-7.7.7-2.6 2-5.4 3.4-7.5 1.4-2 2.9-3.3 4.4-3.9 0 .6-.1 1.4-.3 2.6l-.6 3.4-.3 1.5H32z"/><path class="prefix__prefix__st0" d="M90 28.6c-2.7-1.7-6.2-2.6-10.6-2.6H60.9L45.5 76h18.3c4.3 0 8.4-.8 12.2-2.3 3.8-1.5 7.2-3.7 10.2-6.4 3-2.7 5.4-6 7.3-9.7 1.9-3.7 3-7.8 3.4-12.2.4-3.6 0-7-1.2-9.9-1.1-2.9-3-5.2-5.7-6.9zm-7 18.9c-.2 2.3-.8 4.4-1.6 6.5-.9 2-2 3.9-3.4 5.4-1.4 1.6-3 2.8-4.7 3.7-1.8.9-3.7 1.4-5.8 1.4h-5.2l8.4-27h5c1.8 0 3.3.4 4.4 1.3 1.2.8 2 2 2.5 3.5.4 1.4.6 3.2.4 5.2zM25.6 64.7H25c-2 0-3.6-.7-4.6-2-2.3-3-1.3-8.3-.6-11.2.4-1.4 4-13.5 12.3-14.5 1.1-.1 2 .2 2.6.9.9 1.1 1.1 3.2.6 6.3L48 42.5c1.4-4.9 1-8.8-1.1-11.7C43.7 26.5 37.5 26 35 26c-.7 0-1.4 0-2.1.1-13.4 1.4-25 13.1-27.6 27.8-1.1 6.2.2 11.8 3.7 16 3.3 4 8.4 6.2 14.2 6.2 1 0 2-.1 3-.2 11.6-1.4 18.6-7 21.5-17.2L34.6 58c-.9 2.4-3.2 6.3-9 6.7z"/></svg>