<?xml version="1.0" encoding="UTF-8"?>
<svg version="1.1" xmlns="http://www.w3.org/2000/svg" viewBox="0 0 54 48" width="24" height="24">
<path d="M0 0 C3.63 0 7.26 0 11 0 C11 3.3 11 6.6 11 10 C8.36 10 5.72 10 3 10 C3 13.96 3 17.92 3 22 C-1.62 22 -6.24 22 -11 22 C-11.09765625 12.72265625 -11.09765625 12.72265625 -11 10 C-10 9 -10 9 -7.71484375 8.90234375 C-6.34005859 8.91974609 -6.34005859 8.91974609 -4.9375 8.9375 C-4.01839844 8.94652344 -3.09929688 8.95554687 -2.15234375 8.96484375 C-1.44207031 8.97644531 -0.73179688 8.98804688 0 9 C0 6.03 0 3.06 0 0 Z " fill="#D71820" transform="translate(29,24)"/>
<path d="M0 0 C3.63 0 7.26 0 11 0 C11 3.63 11 7.26 11 11 C7.37 11 3.74 11 0 11 C0 7.37 0 3.74 0 0 Z " fill="#D71920" transform="translate(8,22)"/>
<path d="M0 0 C2.31 0 4.62 0 7 0 C7 1.98 7 3.96 7 6 C4.69 6 2.38 6 0 6 C0 4.02 0 2.04 0 0 Z " fill="#D71820" transform="translate(0,8)"/>
<path d="M0 0 C1.65 0 3.3 0 5 0 C5 1.65 5 3.3 5 5 C3.02 5 1.04 5 -1 5 C-0.67 3.35 -0.34 1.7 0 0 Z " fill="#D71920" transform="translate(42,9)"/>
<path d="M0 0 C1.32 0 2.64 0 4 0 C4 1.32 4 2.64 4 4 C2.68 4 1.36 4 0 4 C0 2.68 0 1.36 0 0 Z " fill="#D71920" transform="translate(50,0)"/>
</svg>
