<svg xmlns="http://www.w3.org/2000/svg" xmlns:xlink="http://www.w3.org/1999/xlink" width="184" height="48" viewBox="0 0 184 48">
    <defs>
        <path id="d40umei9ea" d="M0 0L120.283 0 120.283 47.843 0 47.843z"/>
        <path id="2grsd9vi5c" d="M0 47.843L183.871 47.843 183.871 0 0 0z"/>
    </defs>
    <g fill="none" fill-rule="evenodd">
        <g>
            <g>
                <g>
                    <g transform="translate(-260 -5353) translate(156 5337) translate(104 16) translate(0 .136)">
                        <g transform="translate(63.588)">
                            <mask id="9uv2pfmeeb" fill="#fff">
                                <use xlink:href="#d40umei9ea"/>
                            </mask>
                            <path fill="#010100" d="M117.977 40.62c0-.341-.094-.606-.284-.795-.19-.19-.457-.284-.803-.284-.176 0-.33.03-.462.089-.133.059-.243.14-.33.24-.089.103-.154.22-.196.356-.043.135-.064.275-.064.422 0 .322.094.576.284.763.19.187.452.28.789.28.18 0 .336-.028.47-.085.132-.057.242-.135.33-.234.087-.1.154-.214.199-.344.045-.13.067-.267.067-.409zm.42 5.052c0-.213-.086-.377-.256-.49-.17-.114-.405-.175-.704-.185l-1.272-.035c-.123.09-.222.176-.295.259-.073.082-.133.162-.178.237-.045.076-.074.15-.089.22-.014.071-.02.145-.02.22 0 .237.119.417.358.54.24.123.577.184 1.013.184.27 0 .498-.027.683-.081.184-.055.333-.127.447-.217.114-.09.195-.19.242-.302.047-.11.07-.227.07-.35zm1.876-6.55c0 .227-.026.395-.078.504-.052.109-.116.163-.192.163h-.746c.104.114.179.243.224.387.045.144.068.294.068.45 0 .37-.062.697-.186.983-.123.287-.3.528-.53.724-.23.196-.506.345-.83.447-.325.102-.687.153-1.085.153-.204 0-.398-.025-.583-.075-.184-.05-.327-.107-.426-.174-.057.062-.108.135-.153.22-.045.085-.068.18-.068.284 0 .137.061.25.182.337.12.088.29.136.508.146l1.543.056c.36.015.68.066.963.153.281.087.519.21.71.369.192.158.339.349.441.571.102.222.153.475.153.76 0 .311-.069.606-.206.883-.138.276-.344.516-.619.72-.274.203-.62.364-1.034.482-.415.118-.899.178-1.453.178-.54 0-1.001-.043-1.383-.128-.381-.085-.694-.203-.938-.355-.244-.151-.422-.332-.533-.543-.111-.21-.167-.44-.167-.691 0-.157.02-.305.06-.447.04-.142.1-.278.178-.408.078-.13.174-.255.288-.373.113-.118.244-.232.39-.34-.203-.11-.36-.257-.472-.444-.111-.187-.167-.391-.167-.614 0-.279.064-.533.192-.763.128-.229.293-.436.497-.62-.166-.166-.298-.365-.398-.596-.1-.232-.149-.52-.149-.866 0-.37.065-.7.195-.99.13-.291.312-.537.544-.738.232-.201.51-.355.832-.461.322-.107.678-.16 1.066-.16.2 0 .39.012.572.036.183.023.352.056.509.099h2.011c.081 0 .146.052.196.156.05.104.074.28.074.525zm-7.869 5.89c0 .047-.014.088-.042.124-.029.035-.076.065-.142.088-.067.024-.158.042-.274.054-.116.011-.26.017-.43.017-.176 0-.321-.006-.437-.017-.117-.012-.208-.03-.274-.054-.066-.023-.114-.053-.142-.088-.029-.036-.043-.077-.043-.124V41.4c0-.307-.022-.549-.067-.724-.045-.175-.11-.325-.196-.45-.085-.126-.195-.223-.33-.291-.135-.069-.293-.103-.473-.103-.227 0-.457.082-.69.248-.232.166-.473.407-.725.724v4.207c0 .048-.014.09-.042.125-.029.035-.077.065-.146.088-.069.024-.16.042-.273.054-.114.011-.259.017-.434.017-.176 0-.32-.006-.434-.017-.113-.012-.205-.03-.273-.054-.07-.023-.118-.053-.146-.088-.028-.036-.043-.077-.043-.125v-6.329c0-.047.012-.089.036-.124.023-.035.066-.065.128-.089.061-.023.14-.041.238-.053.097-.012.219-.018.366-.018.151 0 .277.006.377.018.1.012.176.03.23.053.055.024.094.054.118.089.023.035.036.077.036.124v.731c.35-.378.706-.662 1.07-.851.362-.19.74-.284 1.133-.284.431 0 .795.07 1.091.213.296.142.535.334.718.578.182.244.314.529.394.855.08.326.121.719.121 1.178v3.91zm-7.974-8.472c0 .36-.074.608-.22.745-.147.137-.42.205-.818.205-.403 0-.674-.066-.814-.198-.14-.133-.21-.372-.21-.717 0-.36.073-.609.218-.748.144-.14.418-.21.82-.21.399 0 .669.068.81.202.143.135.214.375.214.72zm-.675 1.901c.199 0 .337.043.416.128.078.085.117.208.117.369v6.074c0 .047-.015.088-.043.124-.028.035-.076.065-.142.089-.067.023-.158.04-.274.053-.116.012-.26.018-.43.018-.175 0-.32-.006-.437-.018-.116-.012-.207-.03-.274-.053-.066-.024-.113-.054-.142-.089-.028-.036-.042-.077-.042-.124v-5.123h-2.85v2.973c0 .345.054.604.163.777.109.172.303.259.583.259.095 0 .18-.009.256-.025.076-.017.143-.036.202-.057.06-.021.11-.04.15-.057.04-.016.077-.025.11-.025.028 0 .055.009.082.025.025.017.046.05.06.1.014.05.027.117.039.202s.018.194.018.326c0 .208-.012.366-.036.472-.023.106-.057.185-.1.234-.042.05-.106.093-.191.128-.085.036-.184.066-.295.092-.111.026-.232.046-.362.06-.13.015-.262.022-.395.022-.355 0-.664-.045-.924-.135-.26-.09-.476-.228-.647-.415-.17-.187-.296-.422-.377-.706-.08-.284-.12-.62-.12-1.008V39.89h-.761c-.09 0-.159-.056-.206-.167-.048-.111-.071-.297-.071-.557 0-.137.006-.253.017-.348.012-.094.03-.169.054-.224.024-.054.053-.093.088-.117.036-.023.077-.035.125-.035h.753v-1.412c0-.047.014-.09.04-.128.025-.038.073-.07.142-.096.068-.025.16-.044.277-.056.116-.012.26-.018.43-.018.175 0 .32.006.437.018.116.012.207.03.274.056.066.027.113.058.142.096.028.038.042.08.042.128v1.412h4.102zm-7.77 4.783c0 .36-.067.676-.202.95-.135.275-.326.504-.573.689-.246.184-.537.323-.874.415-.336.092-.701.138-1.095.138-.236 0-.463-.018-.678-.053-.216-.036-.41-.08-.58-.135-.17-.054-.312-.11-.426-.167-.114-.056-.197-.11-.249-.16-.052-.049-.092-.127-.12-.233-.029-.107-.043-.264-.043-.472 0-.137.005-.247.014-.33.01-.083.024-.15.043-.199.018-.05.042-.083.07-.1.03-.016.065-.024.107-.024.053 0 .13.03.231.088.102.06.229.125.38.196.152.07.328.137.53.198.201.062.43.093.686.093.161 0 .304-.017.43-.05.125-.033.234-.08.327-.142.092-.061.162-.14.21-.234.047-.095.07-.203.07-.327 0-.142-.043-.263-.13-.365-.089-.102-.205-.19-.35-.266-.144-.076-.307-.147-.49-.213-.182-.066-.37-.14-.56-.22-.193-.08-.38-.173-.562-.277-.183-.104-.347-.231-.49-.383-.146-.151-.261-.333-.35-.546-.087-.213-.131-.469-.131-.767 0-.302.06-.58.178-.833s.289-.47.512-.65c.222-.18.493-.319.814-.418.32-.1.678-.15 1.076-.15.2 0 .393.015.58.043.187.029.356.064.508.107.152.042.28.088.384.138.104.05.179.092.224.128.045.035.077.07.096.106.019.036.033.078.042.128.01.05.018.111.025.185.007.073.01.164.01.273 0 .128-.003.232-.01.312-.007.08-.019.144-.035.192-.017.047-.04.079-.068.095-.028.017-.062.025-.1.025-.042 0-.109-.025-.198-.074-.09-.05-.203-.103-.338-.16-.135-.057-.292-.11-.47-.16-.177-.05-.38-.074-.607-.074-.161 0-.3.016-.42.05-.118.033-.215.08-.29.141-.077.062-.133.134-.171.217-.038.082-.057.171-.057.266 0 .146.045.27.135.369.09.1.208.187.355.262.147.076.314.147.501.213.187.067.377.139.569.217.192.078.381.169.569.273.187.104.354.232.5.383.147.152.266.333.356.543.09.21.135.46.135.749zm-7.981-1.37c0-.312-.025-.6-.075-.862-.05-.262-.134-.49-.252-.685-.119-.194-.276-.345-.473-.454-.197-.109-.444-.163-.743-.163-.265 0-.497.049-.696.146-.2.096-.363.238-.49.425-.129.187-.225.412-.289.674-.063.263-.095.562-.095.898 0 .312.025.6.078.862.052.263.136.49.252.685.116.194.274.344.473.45.199.107.445.16.739.16.27 0 .505-.048.703-.146.2-.096.363-.237.491-.422.128-.184.223-.408.284-.67.062-.263.093-.562.093-.898zm1.84-.07c0 .538-.07 1.03-.213 1.475-.142.445-.357.828-.646 1.15-.29.321-.652.57-1.088.745-.436.175-.945.262-1.528.262-.564 0-1.054-.078-1.471-.234-.417-.156-.763-.383-1.038-.681-.275-.298-.479-.665-.612-1.1-.132-.435-.199-.932-.199-1.49 0-.54.073-1.032.217-1.48.145-.447.362-.83.65-1.149.29-.32.651-.566 1.085-.742.433-.175.942-.262 1.524-.262.57 0 1.062.077 1.479.23.417.154.761.38 1.034.678.272.298.475.665.608 1.1.132.435.199.934.199 1.497zm-8.707 3.214c0 .047-.015.09-.046.127-.031.038-.082.069-.153.093-.07.023-.166.042-.284.056-.119.015-.268.022-.448.022-.185 0-.338-.008-.458-.022-.121-.014-.216-.033-.285-.056-.068-.024-.118-.055-.15-.093-.03-.037-.045-.08-.045-.127v-3.712h-3.44v3.712c0 .047-.015.09-.043.127-.029.038-.078.069-.15.093-.07.023-.165.042-.284.056-.118.015-.27.022-.455.022-.18 0-.33-.008-.451-.022-.12-.014-.217-.033-.288-.056-.071-.024-.122-.055-.153-.093-.03-.037-.046-.08-.046-.127v-8.671c0-.048.015-.09.046-.128.031-.038.082-.069.153-.093.071-.023.167-.042.288-.056.12-.014.271-.021.451-.021.185 0 .337.007.455.02.119.015.214.034.284.057.072.024.121.055.15.093.028.038.043.08.043.128v3.37h3.44v-3.37c0-.048.015-.09.046-.128.031-.038.08-.069.15-.093.068-.023.163-.042.284-.056.12-.014.273-.021.458-.021.18 0 .33.007.448.02.118.015.213.034.284.057.071.024.122.055.153.093.03.038.046.08.046.128v8.67zm-14.812-4.215c-.256-.322-.502-.568-.736-.738-.235-.17-.48-.256-.736-.256-.232 0-.432.058-.6.174-.169.116-.304.271-.406.465-.102.194-.177.41-.227.65-.05.238-.075.483-.075.734 0 .265.022.522.064.773.043.25.113.474.21.67.097.197.226.354.387.472.161.119.365.178.612.178.123 0 .242-.018.359-.053.116-.036.234-.094.355-.174.12-.08.245-.186.373-.316s.268-.29.42-.479v-2.1zm1.776 4.229c0 .052-.011.095-.035.13-.024.036-.064.066-.121.09-.057.023-.134.04-.231.05-.097.009-.217.014-.359.014-.152 0-.275-.005-.37-.015-.094-.01-.172-.026-.23-.05-.06-.023-.102-.053-.128-.088-.027-.035-.04-.079-.04-.131v-.703c-.327.35-.669.622-1.027.816-.358.194-.754.291-1.19.291-.484 0-.892-.093-1.227-.28-.334-.187-.606-.439-.817-.756-.21-.317-.364-.687-.458-1.11-.095-.424-.142-.87-.142-1.338 0-.563.06-1.069.18-1.518.122-.45.298-.833.53-1.15.232-.317.522-.56.868-.73.345-.171.743-.256 1.194-.256.355 0 .677.072.966.216.29.145.576.356.86.635v-3.427c0-.047.013-.09.04-.128.026-.038.073-.07.142-.095.068-.026.16-.047.273-.06.114-.015.259-.022.434-.022s.32.007.434.021c.113.014.203.035.27.06.066.026.113.058.142.096.028.038.042.08.042.128v9.31zm-8.21 0c0 .047-.012.088-.035.124-.024.035-.066.065-.125.088-.059.024-.137.042-.234.054-.097.011-.22.017-.366.017-.157 0-.284-.006-.38-.017-.098-.012-.175-.03-.232-.054-.056-.023-.097-.053-.12-.088-.024-.036-.036-.077-.036-.124v-.731c-.35.378-.707.662-1.07.851-.362.19-.738.284-1.126.284-.436 0-.802-.07-1.099-.213-.296-.142-.535-.336-.718-.582-.182-.246-.312-.53-.39-.855-.079-.324-.118-.727-.118-1.21v-3.874c0-.047.013-.089.04-.124.025-.035.073-.065.142-.089.068-.023.16-.041.277-.053.116-.012.26-.018.43-.018.175 0 .32.006.433.018.114.012.205.03.274.053.069.024.117.054.146.089.028.035.042.077.042.124v3.576c0 .332.022.585.064.76.043.175.108.325.196.45.087.126.199.222.334.291.135.069.293.103.472.103.228 0 .456-.083.686-.248.23-.166.475-.407.736-.724v-4.208c0-.047.013-.088.04-.124.025-.035.073-.065.141-.088.07-.024.16-.042.274-.054.114-.011.258-.017.434-.017.175 0 .32.005.433.017.114.012.204.03.27.054.066.023.114.053.143.088.028.036.042.077.042.124v6.33zm-9.667-3.158c0-.312-.025-.6-.075-.862-.05-.262-.134-.49-.252-.685-.119-.194-.276-.345-.473-.454-.197-.109-.444-.163-.743-.163-.265 0-.497.049-.696.146-.2.096-.363.238-.49.425-.129.187-.225.412-.289.674-.064.263-.095.562-.095.898 0 .312.025.6.078.862.052.263.136.49.252.685.116.194.274.344.473.45.199.107.445.16.739.16.27 0 .505-.048.703-.146.2-.096.363-.237.49-.422.129-.184.224-.408.285-.67.062-.263.093-.562.093-.898zm1.84-.07c0 .538-.07 1.03-.212 1.475-.143.445-.358.828-.647 1.15-.29.321-.652.57-1.088.745-.436.175-.945.262-1.528.262-.564 0-1.055-.078-1.471-.234-.417-.156-.763-.383-1.038-.681-.275-.298-.479-.665-.612-1.1-.132-.435-.199-.932-.199-1.49 0-.54.073-1.032.217-1.48.145-.447.362-.83.65-1.149.29-.32.651-.566 1.085-.742.433-.175.942-.262 1.524-.262.57 0 1.062.077 1.479.23.417.154.761.38 1.034.678.272.298.475.665.608 1.1.132.435.199.934.199 1.497zm-8.593 3.228c0 .047-.014.088-.043.124-.028.035-.077.065-.145.088-.07.024-.16.042-.274.054-.114.011-.259.017-.434.017s-.32-.006-.433-.017c-.114-.012-.206-.03-.274-.054-.07-.023-.117-.053-.146-.088-.028-.036-.043-.077-.043-.124V35.68c0-.047.015-.09.043-.128.029-.038.077-.07.146-.096.068-.026.16-.046.274-.06.113-.014.258-.021.433-.021s.32.007.434.021c.113.014.205.034.273.06.069.026.118.058.146.096.029.038.043.08.043.128v9.33zm-3.29-1.15c0 .119-.004.219-.011.302-.007.083-.018.154-.032.213-.014.059-.033.11-.057.152-.024.043-.061.091-.113.146-.053.054-.153.124-.302.209-.15.085-.332.167-.548.245-.216.078-.462.143-.739.195-.277.052-.577.078-.9.078-.63 0-1.198-.097-1.705-.291-.507-.194-.938-.484-1.294-.87-.355-.385-.628-.866-.817-1.443-.19-.577-.284-1.249-.284-2.015 0-.78.104-1.474.312-2.08.209-.605.5-1.113.874-1.525.375-.411.824-.724 1.347-.936.524-.213 1.101-.32 1.731-.32.256 0 .503.021.74.064.236.043.455.098.657.167.201.068.382.148.543.238.161.09.274.166.338.23s.108.117.132.16c.023.042.042.097.057.163.014.066.025.144.032.234.007.09.01.201.01.334 0 .141-.005.262-.014.361-.01.1-.026.18-.05.242-.023.061-.052.106-.085.134-.033.029-.071.043-.114.043-.071 0-.16-.041-.27-.124-.109-.083-.25-.175-.423-.277-.173-.102-.379-.194-.618-.277-.24-.082-.525-.124-.857-.124-.365 0-.69.075-.977.224-.287.149-.53.362-.732.639-.202.276-.354.61-.459 1.003-.104.393-.156.835-.156 1.327 0 .54.056 1.007.167 1.402.111.395.27.72.476.975.206.256.455.446.747.571.291.126.62.188.984.188.332 0 .618-.038.86-.117.242-.078.45-.164.622-.258.173-.095.315-.18.427-.256.11-.076.197-.113.259-.113.047 0 .085.01.114.028.028.019.052.057.07.114.02.056.034.135.044.237.009.102.014.238.014.408zM28.275 36.86c0 .137-.004.256-.014.358-.01.102-.022.196-.039.284-.017.088-.04.17-.067.248-.029.078-.062.162-.1.252l-3.028 7.004c-.028.061-.065.11-.11.149-.045.037-.108.067-.189.088-.08.021-.183.036-.309.043-.125.007-.28.01-.465.01-.251 0-.45-.008-.597-.025-.147-.016-.255-.042-.324-.078-.069-.035-.105-.08-.11-.134-.005-.055.012-.122.05-.203l3.255-7.166h-3.867c-.099 0-.174-.065-.223-.195-.05-.13-.075-.337-.075-.621 0-.142.007-.264.021-.366.014-.101.034-.185.06-.252.026-.066.057-.113.093-.142.035-.028.077-.042.124-.042h5.466c.086 0 .157.008.214.025.056.016.101.053.135.11.033.057.058.137.074.241.017.104.025.241.025.412zM16.625 47.09c-.024.061-.055.11-.093.149-.038.038-.091.068-.16.092-.068.024-.154.042-.256.053-.101.012-.23.018-.387.018-.194 0-.353-.01-.476-.028-.123-.02-.217-.048-.28-.085-.065-.038-.101-.087-.111-.146-.01-.06 0-.129.028-.21l4.251-11.913c.019-.061.047-.112.085-.152.038-.04.09-.072.157-.096.066-.024.152-.041.26-.053.106-.012.235-.018.386-.018.2 0 .36.01.48.028.121.02.212.048.274.086.061.037.097.086.107.145.009.06.002.129-.022.21l-4.243 11.92zm-5.245-9.452h-.014l-2.424 4.222h2.438V37.64zm2.893 4.974c0 .242-.025.425-.075.55-.05.126-.117.188-.202.188h-.817v1.66c0 .048-.015.09-.043.125-.028.035-.078.065-.15.089-.07.023-.163.04-.276.053-.114.012-.262.017-.441.017-.171 0-.314-.006-.43-.017-.117-.012-.209-.03-.277-.054-.07-.023-.117-.053-.143-.088-.026-.036-.039-.077-.039-.124v-1.66H7.862c-.067 0-.126-.01-.178-.026-.052-.016-.096-.054-.131-.113-.036-.06-.062-.144-.079-.256-.016-.11-.025-.259-.025-.443 0-.151.004-.283.011-.394.007-.111.019-.212.036-.301.016-.09.04-.175.07-.256.032-.08.07-.165.118-.255l2.857-5.031c.024-.043.064-.08.121-.11.057-.031.136-.057.238-.078.102-.022.231-.037.388-.046.156-.01.346-.015.568-.015.242 0 .448.006.619.018.17.012.306.031.408.057.102.026.177.058.224.096.048.038.072.082.072.135v5.527h.817c.076 0 .14.058.195.174.055.116.082.309.082.578zm-8.06 1.88c0 .138-.007.255-.019.352-.011.097-.03.176-.053.238-.024.061-.055.105-.093.131-.037.026-.08.039-.128.039H.632c-.104 0-.194-.01-.27-.028-.076-.02-.138-.056-.185-.11-.047-.055-.082-.134-.103-.238-.021-.104-.032-.239-.032-.405 0-.156.007-.29.021-.4.015-.111.04-.21.079-.299.037-.087.086-.172.145-.255.06-.083.136-.174.231-.273l1.592-1.703c.318-.331.574-.633.768-.905.194-.272.346-.52.455-.745.109-.224.183-.431.224-.62.04-.19.06-.37.06-.54 0-.156-.025-.304-.074-.444-.05-.139-.124-.26-.22-.365-.098-.104-.22-.186-.367-.245s-.32-.088-.519-.088c-.28 0-.527.035-.743.106-.215.071-.405.15-.568.238-.164.087-.3.168-.409.241-.109.073-.194.11-.256.11-.042 0-.08-.014-.11-.042-.03-.029-.056-.076-.075-.142-.019-.067-.034-.155-.046-.267-.012-.11-.018-.247-.018-.408 0-.108.004-.2.01-.273.008-.073.019-.137.033-.191.014-.055.033-.102.057-.142.023-.04.065-.089.124-.146.06-.056.168-.128.327-.216.159-.087.354-.173.587-.255.232-.083.488-.153.767-.21.28-.056.571-.085.874-.085.479 0 .897.06 1.255.181.358.12.655.289.892.504.237.215.413.47.53.766.116.296.174.614.174.955 0 .298-.029.59-.086.88-.057.288-.175.599-.355.932-.18.334-.434.703-.76 1.107-.327.405-.761.874-1.301 1.409l-1.074 1.1h3.626c.047 0 .09.014.131.042.04.029.075.072.103.132.029.059.05.137.064.234.015.097.022.211.022.344zM71.846 3.11c-.22 1.06-.448 2.155-.68 3.231l-.178.825h5.166l.225-1.121c.203-1.023.407-2.045.616-3.067l.168-.819h-5.118l-.199.951zm48.342 8.835c-.3-1.996-1.675-3.245-3.677-3.341-.102-.005-.204-.008-.305-.008-.99 0-1.996.238-2.988.706-2.317 1.095-3.89 2.91-5.429 4.83-.077.095-.152.19-.226.288.293-1.48.594-3.004.894-4.569l.155-.81h-5.14l-.11.548c-.613 3.045-1.235 6.17-1.837 9.193-.706 3.545-1.437 7.21-2.158 10.778l-.165.816h5.16l.111-.546c.1-.494.198-.99.295-1.488.166-.847.338-1.722.522-2.574.076-.352.117-.708.157-1.053.078-.66.15-1.284.45-1.722 1.85-2.71 3.87-5.56 6.423-8.005.566-.542 1.263-1.118 2.147-1.283.046-.008.09-.013.132-.013.08 0 .322 0 .419.365.09.34.047.718-.045 1.182-.394 2.005-.804 4.039-1.2 6.006-.21 1.042-.42 2.084-.628 3.127-.346 1.728-.686 3.436-1.031 5.19l-.16.814h5.155l.109-.55c.84-4.247 1.685-8.452 2.502-12.519l.073-.365c.323-1.601.656-3.256.395-4.998zm-36.32 6.842c.69-2.516 1.979-4.249 4.005-5.41.44-.254.92-.402 1.465-.454.075-.007.15-.01.222-.01.555 0 1 .204 1.251.575.259.38.282.887.067 1.43-.488 1.23-1.443 2.16-2.921 2.843-1.324.613-2.763.88-4.09 1.026zm10.215 5.243c-2.322 1.394-4.628 2.206-7.05 2.482-1.141.13-2.174-.207-2.831-.926-.568-.62-.861-1.498-.858-2.558.305-.037.61-.074.916-.115 3.181-.429 5.768-1.364 7.908-2.858 2.088-1.458 3.311-3.215 3.738-5.373.34-1.71.069-3.19-.782-4.28-.844-1.081-2.2-1.7-3.92-1.787-1.694-.088-3.321.241-4.829.975-5.077 2.47-8.673 8.83-8.186 14.48.385 4.465 2.945 6.825 7.402 6.825h.055c2.88-.012 5.7-.79 9.143-2.52l.299-.15 1.076-5.431-1.682.999-.4.237zm-36.28-10.97l-.083.419c-.232 1.181-.452 2.297-.683 3.429-.008.017-.031.06-.103.157-1.858 2.511-3.71 4.94-5.925 7.053-.616.588-1.298 1.186-2.115 1.583-.293.143-.567.218-.792.218-.607 0-.737-.626-.74-1.152-.008-2.264.65-4.57 2.072-7.255 1.08-2.037 2.475-3.452 4.266-4.327.721-.353 1.426-.524 2.155-.524.639 0 1.28.131 1.947.4zM60.296.553c-.43 2.215-.866 4.383-1.287 6.48l-.371 1.848c-.854-.19-1.7-.286-2.522-.286-2.57 0-5.013.933-7.264 2.774-2.692 2.202-4.647 5.167-5.976 9.064-.635 1.86-1.21 4.073-.675 6.39.61 2.634 2.171 4.084 4.395 4.084.64 0 1.332-.124 2.059-.368.82-.276 1.606-.683 2.402-1.245 1.578-1.112 2.988-2.49 4.357-4.27-.3 1.51-.606 3.052-.91 4.534l-.17.82h5.161l.11-.548c1.554-7.702 3.133-15.63 4.66-23.296L65.566 0h-5.162l-.107.552zm10.15 9.039c-1.42 7.191-2.816 14.13-3.996 19.968l-.165.817h5.16l.11-.548c1.271-6.316 2.626-13.06 3.994-19.973l.162-.814h-5.156l-.108.55zm-35.934 6.971c-.004.15-.007.299-.007.447-.005 3.079-1.01 5.77-2.991 8-1.004 1.13-2.22 1.704-3.615 1.704-1.245 0-2.066-.582-2.44-1.727-.618-1.889-.508-3.957.345-6.511.607-1.818 1.564-3.324 2.844-4.476.711-.64 1.505-1.029 2.358-1.156.24-.036.471-.054.69-.054 2.082 0 2.674 1.591 2.805 2.926.026.266.019.549.01.847zm.677-7.602c-1.055-.28-2.097-.421-3.099-.421-2.094 0-3.992.606-5.641 1.801-2.465 1.787-4.266 3.966-5.355 6.479-1.069 2.467-1.453 5.261-1.142 8.305.28 2.744 1.997 4.746 4.71 5.492.702.193 1.47.283 2.417.283h.13c2.718-.003 4.862-.684 6.556-2.084 4.408-3.642 6.432-8.36 6.015-14.02-.22-2.992-1.894-5.119-4.591-5.835zm-14.374.08h-5.183l-.2.327c-2.153 3.516-4.35 7.072-6.474 10.511l-2.243 3.633-.434-3.42c-.453-3.574-.881-6.95-1.32-10.453l-.074-.597H0l.097.768c.874 6.874 1.747 13.636 2.566 19.972l.077.595H7.5l.2-.32c4.522-7.201 8.601-13.735 12.47-19.975l.646-1.04z" mask="url(#9uv2pfmeeb)"/>
                        </g>
                        <mask id="t3zazd450d" fill="#fff">
                            <use xlink:href="#2grsd9vi5c"/>
                        </mask>
                        <path fill="#D71920" d="M0 13.79h6.34V7.863H0v5.926zM50.501 3.292h3.522V0h-3.522v3.292zm-8.7 10.496h4.782v-4.47h-4.782v4.47zm-22.823 8.647H8.089v10.178h10.889V22.435zm10.686 10.85h10.058v-9.402H29.664v9.401zM18.876 45.383h12.527V33.676H18.876v11.708z" mask="url(#t3zazd450d)"/>
                    </g>
                </g>
            </g>
        </g>
    </g>
</svg>
