<svg height="506.667" viewBox="0 0 380 380" width="506.667" xmlns="http://www.w3.org/2000/svg"><path d="m70.5 112c-4.2 1.7-6.8 5.8-6.8 10.2.1 2.9 7.7 25.1 23.7 69.6 13 35.9 24.2 66.5 25.1 68.1 2.5 4.9 6.2 7.1 11.7 7.1 9 0 9.5-1 24.3-44 27.8-81 26.2-76.7 27.3-74 .5 1.4 9.4 27.2 19.8 57.5 21 61.2 20.6 60.5 29 60.5 5.6 0 9-1.6 11.3-5.4 1.1-1.7 8.7-22 17.1-45.1 8.3-23.1 19-52.6 23.7-65.5s8.8-25.4 9.1-27.7c.6-5.3-1.5-8.9-6.6-11-4.5-1.9-10.4-.4-12.8 3.1-.8 1.3-7.6 20.3-15 42.2-7.5 22-16.4 48.2-19.9 58.4s-6.6 17.8-6.9 17-6.7-20.2-14.1-43c-7.5-22.8-15.9-48.4-18.7-56.8-2.9-8.9-6-16.5-7.4-18.2-4.6-5.4-15.6-4.8-19.2 1.1-.7 1.1-10.1 28-20.8 59.7-10.7 31.6-19.6 57.7-19.8 57.9s-9-25.4-19.6-56.9-20.1-58.7-21.2-60.5c-2.6-4.4-8.5-6.3-13.3-4.3zm224 123.5c-12 4.3-15.1 18.1-6.1 27.1 4.6 4.6 9.1 6.1 15.3 4.9 4.9-.9 10.8-6.8 12.2-12.3 3.5-12.7-9-24.2-21.4-19.7z" fill="#fff"/></svg>