<svg viewBox="89.066 236.947 160.711 30.062" xmlns="http://www.w3.org/2000/svg"><path d="m95.140397 265.397737-5.900826-17.5414c-.057852-.2479-.173554-.5578-.173554-.8677 0-.74384.578512-1.48764 1.44628-1.48764.75207 0 1.21488.49586 1.44628 1.30165l4.91736 15.55789 4.91738-15.61988c.2314-.7438.6942-1.23966 1.4463-1.23966h.1735c.8099 0 1.2727.49586 1.5041 1.23966l4.8017 15.61988 4.9752-15.68186c.1736-.61983.5785-1.17768 1.3884-1.17768s1.4463.68181 1.4463 1.42562c0 .30992-.1157.61982-.1735.86772l-5.9587 17.6034c-.2893.9297-.9256 1.4256-1.562 1.4256h-.1157c-.7521 0-1.3306-.4959-1.562-1.4256l-4.8595-15.124-4.8595 15.124c-.28926.9297-.80992 1.4256-1.56198 1.4256h-.05785c-.75207 0-1.38843-.4959-1.67769-1.4256zm33.95882 1.5495c-5.3223 0-9.6611-4.4009-9.6611-10.7852v-.062c0-6.0124 3.9339-10.78508 9.314-10.78508 5.7273 0 9.0248 5.02068 9.0248 10.53718 0 .8678-.6363 1.4256-1.3306 1.4256h-14.0578c.4049 4.5248 3.3554 7.0042 6.8264 7.0042 2.3719 0 4.1653-.9918 5.6116-2.4174.2314-.1859.4628-.3719.8099-.3719.6942 0 1.2727.6198 1.2727 1.3017 0 .3719-.1735.7438-.4628.9917-1.8512 1.9215-4.0496 3.1612-7.3471 3.1612zm5.7273-12.0248c-.2893-3.781-2.314-7.0662-6.1901-7.0662-3.3554 0-5.9008 3.0372-6.3058 7.0662zm6.7102-16.42581c0-.867772.6364-1.54959 1.4463-1.54959s1.4463.681818 1.4463 1.54959v11.34301c1.5619-2.4794 3.876-4.6488 7.4049-4.6488 4.6281 0 9.2562 3.9669 9.2562 10.7851v.062c0 6.8182-4.5702 10.7851-9.2562 10.7851-3.5868 0-5.9008-2.1074-7.4049-4.4008v2.6033c0 .8678-.5785 1.5496-1.4463 1.5496-.8099 0-1.4463-.7438-1.4463-1.5496zm16.6033 17.66531v-.062c0-4.8967-3.124-8.0579-6.8264-8.0579-3.5868 0-7 3.2852-7 7.9959v.062c0 4.8347 3.4132 8.0578 7 8.0578 3.7603 0 6.8264-2.9752 6.8264-7.9958zm11.7444.0001v-.062c0-5.8884 4.2809-10.84709 9.9504-10.84709 3.2396 0 5.3801 1.30165 7.1156 3.03719.2315.1859.4629.6198.4629 1.0537 0 .8678-.6364 1.4876-1.3885 1.4876-.3471 0-.6942-.1859-.9256-.3719-1.3884-1.3636-2.9504-2.4793-5.2644-2.4793-3.9339 0-6.9422 3.595-6.9422 8.0578v.062c0 4.5248 3.0661 8.0579 7.1157 8.0579 2.1984 0 3.9917-1.1157 5.3802-2.5414.1735-.1859.4628-.3719.8099-.3719.6942 0 1.3306.6819 1.3306 1.4257 0 .3719-.1736.7438-.3471.9917-1.8513 1.9835-4.0496 3.3471-7.2893 3.3471-5.7273-.062-10.0082-5.0207-10.0082-10.8471zm20.1316 0v-.062c0-5.8884 4.281-10.84709 10.124-10.84709 5.785 0 10.066 4.89669 10.066 10.78509v.062c0 5.8884-4.339 10.8471-10.182 10.8471-5.785 0-10.008-4.8967-10.008-10.7851zm17.24 0v-.062c0-4.4628-3.124-8.1198-7.174-8.1198-4.223 0-7.115 3.657-7.115 8.0578v.062c0 4.4628 3.066 8.0579 7.173 8.0579 4.165 0 7.116-3.5951 7.116-7.9959zm6.653-9.1114c0-.86772.636-1.54954 1.446-1.54954s1.446.68182 1.446 1.54954v2.1075c1.273-2.0455 3.009-3.96696 6.248-3.96696 3.124 0 5.149 1.79756 6.248 4.15286 1.389-2.2934 3.471-4.15286 6.827-4.15286 4.454 0 7.173 3.22316 7.173 8.36776v11.5909c0 .8678-.636 1.5496-1.446 1.5496s-1.446-.6818-1.446-1.5496v-10.7851c0-4.0289-1.852-6.2603-5.033-6.2603-2.951 0-5.323 2.3553-5.323 6.4462v10.7232c0 .8678-.636 1.5496-1.446 1.5496s-1.446-.6818-1.446-1.5496v-11.0331c0-3.9049-1.909-6.1983-4.975-6.1983-3.067 0-5.381 2.7273-5.381 6.5702v10.5992c0 .8678-.578 1.5496-1.446 1.5496-.81 0-1.446-.6818-1.446-1.5496zm-48.3636 19.7102c1.1821 0 2.1405-1.0268 2.1405-2.2934s-.9584-2.2933-2.1405-2.2933c-1.1822 0-2.1405 1.0267-2.1405 2.2933s.9583 2.2934 2.1405 2.2934zm79.8926-19.2145c0-.4339.116-.80579.289-1.11571.174-.30991.463-.61983.81-.86776.347-.18595.694-.30992 1.099-.30992s.753.12397 1.042.30992.578.49586.81.86776c.173.3719.289.74381.289 1.17771 0 .3719-.116.8058-.289 1.1157-.174.3099-.463.6198-.752.8678-.347.1859-.695.3099-1.1.3099s-.752-.124-1.099-.3099c-.347-.186-.578-.4959-.752-.8678-.231-.4339-.347-.8058-.347-1.1777zm.347 0c0 .3719.058.6818.232.9917.173.3099.405.5579.694.7438.289.186.578.248.925.248.348 0 .637-.062.926-.248.289-.1859.521-.4339.694-.7438.174-.3099.232-.6198.232-.9917s-.058-.68182-.232-.99174c-.173-.30992-.405-.55785-.694-.7438s-.578-.24793-.926-.24793c-.347 0-.636.06198-.925.24793s-.521.43388-.694.7438c-.174.30992-.232.61984-.232.99174zm2.661-.5579c0 .186-.057.31-.115.4339-.058.124-.174.248-.347.248l.694 1.1776h-.463l-.579-1.0537h-.405v1.0537h-.404v-2.72722h.752c.289 0 .52.06198.694.18595.173.12396.173.3719.173.68177zm-1.215.4339h.29c.173 0 .289-.062.347-.1239.116-.062.116-.186.116-.31 0-.12392-.058-.24789-.116-.30987-.058-.06199-.232-.12397-.405-.12397h-.289v.86774z"/></svg>