<svg viewBox="223.626 223.58 52.749 52.841" xmlns="http://www.w3.org/2000/svg">
  <path fill="#1C5CBA" d="M 228.84 228.804 L 240.653 228.804 L 240.653 240.627 L 228.84 240.627 L 228.84 228.804 Z M 244.088 228.804 L 255.911 228.804 L 255.911 240.627 L 244.088 240.627 L 244.088 228.804 Z M 259.338 228.804 L 271.161 228.804 L 271.161 240.627 L 259.338 240.627 L 259.338 228.804 Z M 228.84 244.09 L 240.653 244.09 L 240.653 255.913 L 228.84 255.913 L 228.84 244.09 Z M 244.088 244.09 L 255.911 244.09 L 255.911 255.913 L 244.088 255.913 L 244.088 244.09 Z M 259.338 244.09 L 271.161 244.09 L 271.161 255.913 L 259.338 255.913 L 259.338 244.09 Z M 228.84 259.377 L 240.653 259.377 L 240.653 271.198 L 228.84 271.198 L 228.84 259.377 Z M 244.088 259.377 L 255.911 259.377 L 255.911 271.198 L 244.088 271.198 L 244.088 259.377 Z M 259.338 259.377 L 271.161 259.377 L 271.161 271.198 L 259.338 271.198 L 259.338 259.377 Z" style=""/>
</svg>