<svg viewBox="286.707 87.344 58.03 58.13" xmlns="http://www.w3.org/2000/svg">
  <path fill="#fff" d="M 289.348 89.989 L 304.073 89.989 L 304.073 104.724 L 289.348 104.724 L 289.348 89.989 Z M 308.355 89.989 L 323.09 89.989 L 323.09 104.724 L 308.355 104.724 L 308.355 89.989 Z M 327.362 89.989 L 342.097 89.989 L 342.097 104.724 L 327.362 104.724 L 327.362 89.989 Z M 289.348 109.042 L 304.073 109.042 L 304.073 123.777 L 289.348 123.777 L 289.348 109.042 Z M 308.355 109.042 L 323.09 109.042 L 323.09 123.777 L 308.355 123.777 L 308.355 109.042 Z M 327.362 109.042 L 342.097 109.042 L 342.097 123.777 L 327.362 123.777 L 327.362 109.042 Z M 289.348 128.095 L 304.073 128.095 L 304.073 142.83 L 289.348 142.83 L 289.348 128.095 Z M 308.355 128.095 L 323.09 128.095 L 323.09 142.83 L 308.355 142.83 L 308.355 128.095 Z M 327.362 128.095 L 342.097 128.095 L 342.097 142.83 L 327.362 142.83 L 327.362 128.095 Z" />
</svg>