<svg fill="none" height="130" viewBox="0 0 237 130" width="237" xmlns="http://www.w3.org/2000/svg"><path d="m139.922 75.11c-.207 1.93-.333 3.9833.563 5.71.897 1.7267 3.137 2.8967 4.837 1.9567.96-.5267 1.51-1.5567 2-2.5334 2.793-5.47 4.417-11.51 7.21-16.98 2.3-4.5133 5.837-8.7366 5.543-13.7933-.098-2.3577-.893-4.6335-2.283-6.54-1.233-1.63-4.017-3.24-5.86-1.3333-1.843 1.9066-3 4.2233-4.16 6.57-2.685 5.4296-4.749 11.1446-6.153 17.0366-.774 3.2632-1.341 6.572-1.697 9.9067z" fill="#fff" stroke="#36444d" stroke-miterlimit="10"/><path clip-rule="evenodd" d="m160.052 50.5436c-.113-2.6196-.996-5.1475-2.54-7.2667-1.373-1.8133-2.173-6.37-4.227-4.25-2.053 2.12-5.626 7.4667-6.92 10.08-1.7 3.4402-3.176 6.9864-4.42 10.6167l13.39 6.4933c2.514-4.93 5.034-10.1567 4.717-15.6733z" fill="#004d77" fill-rule="evenodd"/><path d="m140.332 74.7333c1.36-1.6667 3.7-2.2334 5.827-2 2.126.2333 4.106 1.1666 6.043 2.0833 3.544 1.6822 7.088 3.37 10.63 5.0633l10.97 5.2367c.57.27 1.197.6067 1.38 1.21s-.233 1.3533-.82 1.69c-.612.2952-1.284.4425-1.963.43-8.29.4137-16.572-.9595-24.284-4.0267-2.216-.88-5.36-1.85-7.15-3.48-1.71-1.55-2.143-4.3666-.633-6.2066z" fill="#f6b690"/><g clip-rule="evenodd"><path d="m163.299 87.0666c4.073-.5966 23.416-.5966 27.493 0 5.07.74 4.307 7.05 3.667 10.8234-.697 4.117-1.55 8.54-4.577 11.417-2.953 2.813-22.72 2.813-25.667 0-3.026-2.877-3.88-7.3-4.576-11.417-.647-3.7734-1.41-10.0834 3.66-10.8234z" fill="#4687c7" fill-rule="evenodd"/><path d="m234.279 104.363c2.126 2.334 3.513 6.197 1.666 8.634-1.563 2.067-45.236-2-51.693-2-4.59-5.85-4.41-14.7335 7.333-20.7202 2.517-1.28 5.28.0667 8 .64 7.947 1.68 29.407 7.62 34.694 13.4462z" fill="#4687c7" fill-rule="evenodd"/><path d="m139.842 62.6802c-3.154-.2766-6.637.95-8.174 3.72-1.256 2.2667-1 5.1301.07 7.4934s2.814 4.3333 4.54 6.2633c24.974 27.8971 25.377 29.1601 29.554 30.2801 7.113 1.91 15.706-.03 9.396-16.3668-1.016-2.6333-27.546-30.71-35.386-31.39z" fill="#4687c7" fill-rule="evenodd"/></g><path d="m162.065 119.73c-1.666-.97-4.96-5.853-8.816-11.496l5.92-1.97c2.373 8.433 4.64 14.483 2.896 13.466z" fill="#fff" stroke="#36444d" stroke-miterlimit="10" stroke-width="1.51"/><path clip-rule="evenodd" d="m133.518 63.1434c4.43-2.1366 8.797-1.58 12.334 4.1534 4.77 7.73 11.17 26.5966 14.666 38.9732l-8.333 3.777c-5.277-12.0369-15.667-27.6469-19.7-34.7402-2.267-3.9767-2.463-10.4767 1.033-12.1634z" fill="#4687c7" fill-rule="evenodd"/><path d="m185.085 112.657 2.614 5.94c-5.387.353-9.817-1.287-11.644-2.044-1.826-.756 2.917-.956 9.03-3.896z" fill="#fff" stroke="#36444d" stroke-miterlimit="10" stroke-width="1.51"/><path clip-rule="evenodd" d="m226.735 104.264c6.737 0 10.064 3.463 10.064 5.903 0 4.147-2.564 8.583-8.94 8.583-8.114 0-28.437-.276-40.904.574l-2.86-7.454c9.197-4.456 32.787-7.606 42.64-7.606z" fill="#4687c7" fill-rule="evenodd"/><path clip-rule="evenodd" d="m173.485 117.314c.244-.154 2.1-2.89 3.31-3.374.703-.283 1.667-.73 2.407-.36.853.417.89 1.604 1.397 2.334.386.538.899.973 1.493 1.266l1.18-1.58c4.17 1.924.856 6.774 5.04 8.77 1 .48 2.113.817 2.98 1.527.866.71 1.413 2 .836 2.963-.223.354-.559.622-.953.764l-13.476-6.537s-.081-2.73.303-3.037c-.457.187-1.53.667-2 .694z" fill="#004d77" fill-rule="evenodd"/><path clip-rule="evenodd" d="m152.948 120.087c-.043-1.117.424-2.04.9-2.3.477-.26 1.227-2.127 2.217-4.863.453-1.25 2.98-1.6 4.24.553.41.7.79 1.153 1.25 1.137.383 0 .817-.667 1.187-.24.333.39.413 1.42.496 2.153.144 1.263.27 2.533.407 3.803.03.28.06.574.07.86h-10.537c-.138-.352-.216-.725-.23-1.103z" fill="#004d77" fill-rule="evenodd"/><path d="m213.509 81.0036c.587-.8855.868-1.9394.8-3 .031-.9675-.012-1.9359-.13-2.8967-.361-3.3315-.931-6.6369-1.707-9.8966-1.406-5.8922-3.471-11.6072-6.157-17.0367-1.163-2.3333-2.713-3.9366-4.55-5.8333-1.836-1.8967-4.12.3033-5.353 1.9333-1.41 1.8667-1.357 3.47-1.493 5.8067-.29 5.0567 1.17 9.2333 3.473 13.7433 1.847 3.6245 3.695 7.2467 5.547 10.8667-.817.3333-1.617.7066-2.407 1.0833-3.556 1.6822-7.099 3.37-10.63 5.0633l-10.98 5.2367c-.57.2733-1.197.61-1.38 1.2133-.183.6034.233 1.3534.817 1.6901.612.294 1.284.4402 1.963.4266 8.29.411 16.572-.961 24.287-4.0233 1.813-.72 4.24-1.51 6.046-2.6667.666-.3335 1.239-.8271 1.667-1.4367 0-.02.03-.0433.047-.0666.016-.0234.096-.1367.14-.2067z" fill="#fff" stroke="#36444d" stroke-miterlimit="10"/><path clip-rule="evenodd" d="m194.019 50.5432c.11-2.6235.992-5.156 2.536-7.28 1.374-1.8133 2.177-6.37 4.23-4.25 2.054 2.12 5.627 7.4667 6.92 10.08 1.699 3.4408 3.175 6.987 4.42 10.6167l-13.39 6.4933c-2.513-4.9166-5.036-10.1433-4.716-15.66z" fill="#004d77" fill-rule="evenodd"/><path clip-rule="evenodd" d="m152.739 39.6303c1.306-1.58 3.27-2.4433 5.193-3.1466 5.667-2.0734 18.623-7.5 19.113-7.49s13.457 5.4166 19.11 7.49c1.927.7033 3.89 1.5666 5.194 3.1466 1.743 2.1067 1.97 5.1367 1.333 7.7967s-2 5.0767-3.184 7.5367c-1.479 3.0726-2.706 6.2609-3.666 9.5333-1.746 5.9184-2.621 12.0595-2.597 18.23 0 1.89 1 5.0833.43 6.8667-.727 2.2366-4.587 2.7433-6.537 3-3.34.428-6.711.5719-10.076.43-3.368.1434-6.743.0006-10.087-.4267-1.946-.2533-5.806-.76-6.536-3-.58-1.7833.423-4.9767.433-6.8667.023-6.1722-.855-12.3147-2.607-18.2333-.959-3.2729-2.185-6.4614-3.666-9.5333-1.194-2.46-2.56-4.8767-3.184-7.5367-.623-2.66-.406-5.69 1.334-7.7967z" fill="#004d77" fill-rule="evenodd"/><g fill="#fff" stroke="#36444d" stroke-miterlimit="10"><path d="m172.782 28.3335c.526-1.6967.81-4.8667 1.86-6 .63-.6667 3.913-.6667 4.543 0 1.05 1.13 1.333 4.3 1.86 6 .59 1.9 1.103 4.18.487 6.06-.155.5515-.443 1.0565-.839 1.4704-.395.4139-.887.724-1.431.9029-.774.22-3.924.22-4.697 0-.544-.1795-1.036-.4897-1.432-.9035s-.685-.9185-.841-1.4698c-.617-1.88-.1-4.16.49-6.06z"/><path d="m169.955 14.0469c1.057-3.0834 12.86-3.0834 13.917 0 .821 2.5166.988 5.2012.483 7.8-.425 2.3478-1.389 4.5649-2.816 6.4766-.944 1.25-2.17 3.09-3.54 3.71h-2.17c-1.37-.62-2.597-2.46-3.54-3.71-1.428-1.9117-2.392-4.1288-2.817-6.4766-.505-2.5988-.338-5.2834.483-7.8z"/><path d="m185.689 21.6502c.322-.5169.476-1.1216.44-1.73-.08-.6033-.577-1.1733-1.144-1.1033-.177.0348-.343.1101-.486.22-.143.1098-.258.2513-.337.4133-.162.3355-.274.6925-.333 1.06l-.42 1.9133c-.12.5367-.19 1.2167.236 1.5267.767.57 1.734-1.7267 2.044-2.3z"/><path d="m168.229 21.65c-.321-.5141-.475-1.115-.44-1.72.08-.6034.576-1.1734 1.143-1.1034.177.0348.343.1101.486.22s.258.2514.337.4134c.162.3354.274.6924.334 1.06.14.6366.28 1.2766.423 1.9133.117.5367.187 1.2167-.24 1.5267-.767.56-1.733-1.7367-2.043-2.31z"/></g><path clip-rule="evenodd" d="m170.308 22.2201c-.146-.7266-.466-1.4133-.606-2.1433s-.404-1.57.126-2.09c.484 2.2367 1.431 4.4433 2.164 6.6133.123.4794.351.9256.667 1.3067.463.399 1.038.6468 1.646.71.667.1167 2.393-.6233 2.593-.6133s1.94.73 2.597.6133c.609-.0632 1.183-.311 1.647-.71.316-.3811.543-.8273.666-1.3067.734-2.1682 1.343-4.3762 1.827-6.6133.534.52.607 1.36.464 2.09-.144.73-.464 1.4167-.607 2.1433 0 .06-.024.1167-.034.1734-.087.4842-.036.9833.147 1.44.111.1692.185.3601.217.56-.019.2258-.06.4492-.123.6667-.195.9905-.479 1.9613-.85 2.8999-.372.9388-.825 1.8434-1.354 2.7034-.267.4289-.55.8466-.85 1.2533-.127.17-.717 1.13-.917 1.13l-2.303.6667h-1.076l-2.307-.6667c-.197 0-.787-.96-.913-1.13-.3-.4067-.584-.8244-.85-1.2533-.531-.8593-.984-1.764-1.354-2.7034-.371-.9386-.656-1.9094-.85-2.8999-.063-.2175-.105-.4409-.123-.6667.032-.1999.105-.3908.216-.56.184-.4566.234-.9562.144-1.44.002-.0578.001-.1157-.004-.1734z" fill="#fbb11e" fill-rule="evenodd"/><path clip-rule="evenodd" d="m165.355 7.66322c.701-.93036 1.688-1.6042 2.81-1.91748 1.122-.31327 2.316-.24856 3.397.18415.89.39 1.693 1.03666 2.64 1.23333 1.103.23333 2.227-.18333 3.28-.60666 1.053-.42334 2.16-.87334 3.273-.70334 1.114.17 2.2 1.20334 2.057 2.39667.763-.28071 1.594-.31696 2.378-.10371s1.483.66541 1.999 1.29371c.521.67351.845 1.47841.937 2.32521.091.8469-.055 1.7024-.421 2.4715-.453.9133-1.213 1.64-1.543 2.6133-.38 1.11.057 3.7733-1.267 4.2833-1.02.3934-1.59-7.7266-4.453-7.93-.751.7896-1.739 1.3123-2.814 1.4886-1.076.1763-2.179-.0034-3.143-.5119-.716-.4-1.473-1-2.243-.7433-.513.1733-1.143.42-1.477.88-.796 1.1033-.593 5.1766-.773 6.8033-1.357-1.4433-1.713-3.53-1.587-5.4067-.5.0169-.998-.0706-1.463-.2566-1.353-.5534-2.363.0566-2.643-1.46-.28-1.5167.146-5.13005 1.056-6.33338z" fill="#fbb11e" fill-rule="evenodd"/><path d="m159.489 90.287h35.796c.808.0011 1.586-.3017 2.181-.8483.595-.5465.962-1.2968 1.029-2.1017l1.86-22.1234c.037-.444-.019-.8909-.163-1.3124-.145-.4214-.375-.8084-.677-1.1363-.301-.328-.668-.5898-1.076-.769-.408-.1793-.848-.272-1.294-.2723h-39.516c-.446.0003-.887.093-1.295.2723-.408.1792-.774.441-1.076.769-.301.3279-.532.7149-.676 1.1363-.145.4215-.2.8684-.163 1.3124l1.86 22.1234c.066.8049.434 1.5552 1.029 2.1017.594.5466 1.373.8494 2.181.8483z" fill="#ededee"/><path d="m200.275 66.1603c-.171-.701-.572-1.3242-1.14-1.7696-.568-.4455-1.268-.6875-1.99-.6871h-39.516c-.722-.0004-1.423.2416-1.99.6871-.568.4454-.969 1.0686-1.14 1.7696l-.08-.9467c-.037-.444.018-.8909.163-1.3124.144-.4214.375-.8084.676-1.1363.302-.328.668-.5898 1.076-.769.408-.1793.849-.272 1.295-.2723h39.516c.446.0003.886.093 1.294.2723.408.1792.775.441 1.076.769.302.3279.532.7149.677 1.1363.144.4215.2.8684.163 1.3124z" fill="#004d77" opacity=".15"/><path d="m74.6918 12.3669c1.98-2.40335 4.2333-4.71668 7.1167-5.89668 2.8833-1.18 6.52-.96333 8.72 1.23667 1.2566 1.25333 1.9166 2.98331 3.04 4.35671 1.2788 1.5444 3.0833 2.5618 5.0667 2.8566 3.6668.5234 7.1428-1.4766 10.4898-3.05 3.347-1.5733 7.493-2.71998 10.583-.6666 3.31 2.1866 3.694 6.9066 3 10.8133-.5 2.82-1.593 5.8467-4.12 7.1933-2.526 1.3467-5.54.6034-8.226-.25-2.687-.8533-5.597-1.8166-8.26-.88-3.6069 1.2667-5.2502 5.44-8.3102 7.7367-1.0825.8132-2.3307 1.3783-3.656 1.6552s-2.6953.2588-4.0129-.0529c-1.3175-.3117-2.5504-.9095-3.6111-1.751-1.0607-.8414-1.9233-1.9059-2.5267-3.118-.7566-1.5233-1.0833-3.2333-1.8233-4.7666-.74-1.5334-2.0833-2.9667-3.7833-3.0567-2.3634-.1233-4.0934 2.2833-6.3867 2.8766-1.0857.242-2.2224.077-3.1945-.4637-.9721-.5408-1.7118-1.4195-2.0788-2.4696-.86-2.7666 1.62-5.3733 4.0333-6.3766 1.3333-.56 2.49-.5167 3.7633-1.44 1.6567-1.2167 2.8934-2.9234 4.1767-4.4867z" fill="#fbb11e"/><path d="m36.3919 68.5436c.5859.0256 1.1476.2411 1.6004.6138.4527.3728.772.8828.9096 1.4529l5.8366 23.87-17.3333-.61-13.3967-.59c-.4033-1.18-.8866-2.46-1.29-3.64l-4.15664-18.9233c-.08822-.4036-.08257-.822.01654-1.223s.28902-.7739.55508-1.0899c.26605-.316.60114-.5666.97942-.7326.3783-.1659.7896-.2428 1.2023-.2245z" fill="#4687c7"/><path d="m55.7618 43.6366c.4888-.2661.9558-.5704 1.3967-.91-.4535.315-.9292.5968-1.4233.8433.0066.0267.02.0467.0266.0667z" fill="#6951a2"/><path d="m67.8119 22.7102c-1.611-1.9214-3.8586-3.2001-6.3334-3.6033-.8766-.1467-1.77-.17-2.6466-.3534-.4573-.0958-.8992-.254-1.3134-.47-1.3852-.4181-2.8265-.6205-4.2733-.5999-.3792.3585-.7344.7416-1.0633 1.1466-.2308-.3072-.4202-.6434-.5634-1-2.8533.4934-5.2033 2.24-5.2766 6.0333.2537.7222.6806 1.3711 1.2433 1.89.3606.3098.7678.5606 1.2066.7434 1.08.4733 2.3334.6166 3.5134.7633 1.6749.2087 3.323.5942 4.9167 1.15.6138.1649 1.1977.4259 1.73.7734.1433.1066 1.85 1.2466 1.8466 1.2633-.0033.0166 0-.06.0167-.09.3779-.2168.789-.37 1.2167-.4533.4961-.1302 1.0215-.0915 1.4933.1099.3013.1801.5444.443.7005.7574.156.3145.2183.6671.1795 1.016-.0882.6954-.4186 1.3375-.9333 1.8133-.5214.4669-1.0926.8749-1.7034 1.2167l-.6966.4133c.1336.3851.2963.7595.4866 1.12 1.0816 2.0805 2.8109 3.7525 4.9267 4.7633.2794.1289.5667.2403.86.3334.27-4 2.7567-7.7734 2.86-11.84.0587-2.5121-.7911-4.961-2.3933-6.8967z" fill="#fbb11e"/><path d="m68.9219 77.8267c.1266 1.7733.24 3.54.3666 5.3133.09 1.2067.13 2.5367-.5966 3.5034-.6434.8566-1.7534 1.2033-2.79 1.5066-2.6667.7833-5.3334 1.5433-8 2.2933.3308-.2044.6502-.427.9566-.6666 2.1067-1.71 3.8567-3.8133 5.5367-5.9467 1.9899-2.5191 3.4728-5.4 4.3667-8.4833.04.8266.0966 1.6466.16 2.48z" fill="#004d77"/><path d="m63.5185 30.0167c-.4717-.2015-.9971-.2402-1.4933-.11-.4277.0833-.8387.2365-1.2167.4533 0 .0333 0 .0667-.0166.09-2.06-.94-3.5967-2.8533-5.8734-2.7667l-.1666.12c-.7967-.2651-1.619-.4461-2.4534-.54-1.1866-.1466-2.4333-.29-3.5133-.7633.1575 1.4536.0109 2.924-.4304 4.3179-.4413 1.3938-1.1676 2.6807-2.1329 3.7788.58.83 1.3933.5333 1.55 1.8266.2149 1.4141.2149 2.8526 0 4.2667-.2667 1.45-.48 3.1333 1.0566 3.9333 2.355.3995 4.776.0363 6.91-1.0366.4942-.2465.9698-.5283 1.4234-.8434-.4403.3389-.9061.6431-1.3934.91.36.86.7034 1.7245 1.03 2.5934.5534 1.48 1.06 3 1.5234 4.5066.8384 2.815 1.5117 5.6766 2.0166 8.57 2.3589-3.5221 5.1923-6.702 8.42-9.45-.9515-.9568-1.5498-2.2085-1.6966-3.55-.17-1.71-.3734-3.45-.58-5.19-2.1158-1.0108-3.8451-2.6828-4.9267-4.7633-.1903-.3605-.353-.7349-.4867-1.12l.6967-.4133c.6108-.3418 1.182-.7498 1.7033-1.2167.5147-.4759.8452-1.1179.9334-1.8133.0418-.3519-.0194-.7083-.1762-1.0261-.1568-.3177-.4024-.5831-.7072-.7639z" fill="#fff" stroke="#36444d" stroke-miterlimit="10" stroke-width=".85"/><path d="m48.5885 58.537c-.61 2.0833-.6666 4.38-.9566 6.47-.0534.3967-.0934.8-.1167 1.2067.0233-.4067.0633-.81.1167-1.2067.2966-2.09.3333-4.3867.9566-6.47.108-.3785.2382-.7502.39-1.1133-.1518.3631-.282.7348-.39 1.1133zm28.9667-2.81c-1.8633-1.5567-4.1567-2.5267-6.2167-3.82-.9462-.5671-1.8137-1.2564-2.58-2.05-3.2277 2.7479-6.0611 5.9279-8.42 9.45-.5049-2.8935-1.1782-5.755-2.0166-8.57-.8544.3899-1.7485.6861-2.6667.8833-.4833.3334-1 .6467-1.5433.9667.5333-.3333 1.06-.6367 1.5433-.9667-3.3333.72-6.98.22-10.19-1.0466-.8831-.352-1.7466-.7515-2.5867-1.1967-1.203-.6387-2.3692-1.3442-3.4933-2.1133.7833.5333-1.0933 5.4433-1.3333 6.1966-.3734 1.1667-.73 2.9134-1.52 3.82 4.0166 1.9534 8.8233 3.5767 11.79 7.1434 1.0082 1.165 1.6464 2.604 1.8333 4.1333.1367 1.48-.6033 2.8767-.37 4.3333.1433.8867.6367 1.6667 1.07 2.4467 1.3976 2.5425 2.2464 5.3498 2.4915 8.2407.2452 2.8909-.1187 5.8011-1.0682 8.5426 1.2334.13 4.6234-1.0733 5.6134-1.69.3309-.2044.6502-.427.9566-.6666 2.1067-1.71 3.8567-3.8134 5.5367-5.9467 1.9899-2.5191 3.4728-5.4 4.3667-8.4833.05.8333.1066 1.6666.17 2.4866 3.5917-1.7313 7.3954-2.9832 11.3133-3.7233-.12-1.7867-.2533-3.5833-.4833-5.3767-.5556-4.2777-1.2011-8.5322-1.9367-12.7633-.0833-.07-.17-.1567-.2633-.23z" fill="#004d77"/><path d="m68.8752 107.334c2.5766-.034 5.25-.637 7.2-2.334 2.09-1.816 3.0366-4.59 3.62-7.303.6963-3.2638.9808-6.602.8466-9.9366.3226-2.1179.3819-4.2676.1767-6.4-.2333-2.42-.3333-4.8434-.4833-7.2634-.12-1.7866-.2534-3.5833-.4834-5.3766-.5555-4.2778-1.2011-8.5323-1.9366-12.7634.0833.4834 1.5533 1.6167 1.9033 2.0734.7283.9771 1.3612 2.0219 1.89 3.12 1.02 2.0633 1.4333 4 1.85 6.22.7745 4.1431 1.1905 8.3454 1.2433 12.56.09 6.1766-.2733 12.3766.3667 18.5333.44 4.2363 1.58 8.4733 1.2167 12.7603-.2734 3.206-3.12 6.736-5.25 9.05-1.4367 1.556-.7967-2.334-.7967-2.84-.0247-2.059-.7782-4.042-2.1267-5.597-1.5633-1.713-3.89-2.503-6.1566-2.953-2-.397-4.1-.834-6.1334-1.064.86-.49 2.0134-.466 3.0534-.486z" fill="#004d77"/><path d="m63.0485 107.44c-.96-.31-1.9166-.753-2.7966-1.053-.7467-.257-1.4934-.514-2.22-.814-1.524-.623-2.965-1.432-4.29-2.41-1.2367-.91-1.3334-2.56-1.59-3.9996 1.9433-.1366 3.88-.3 5.8166-.51 2.1178-.2222 4.2289-.4889 6.3334-.8 5.79-.86 13.0966-.9233 15.5166-7.3133.33-.9033.5711-1.8366.72-2.7867.1342 3.3346-.1503 6.6729-.8466 9.9367-.5834 2.7129-1.53 5.4869-3.62 7.3029-1.95 1.69-4.6234 2.294-7.2 2.334-.53.383-3.36.513-4.12.466-.5803-.046-1.1526-.164-1.7034-.353z" fill="#004d77"/><path d="m32.7252 42.2635c-4.7134-3.6667-9.6067-7.1767-13.8734-11.3801-3.4066-3.36-8.1433-6.9166-8.6966-12.0866-.22003-2.0267.1666-4.11.51-6.1033.42-2.43-.08-4.38671-1.21337-6.55005-.60666-1.16-3-5.13333-4.54-5.14333-.25663-.002582-.51204.03567-.75666.11333-.33333.12-.63001.43667-.54001.70667-.44333 0-.95333.03333-1.23666.33333-.0972.1015-.1611.23025-.18314.36905-.02204.13879-.00117.28101.05981.40762.13584.24043.30785.45853.51.64667.97776.95764 1.72938 2.12151 2.2 3.40667.03341.0605.04718.12989.03942.19857-.00777.06868-.03668.13324-.08276.18476-.20666.18-.52 0-.65-.21334l-1.69999-2.38c-.17714-.28001-.40292-.5261-.66667-.72666-.06631-.05127-.14295-.08756-.22463-.10636-.08168-.01881-.16646-.01969-.24851-.00258-.08206.0171-.15943.05179-.22679.10167s-.12311.11377-.16341.18727c-.199996.42666.38334 1 .36 1.45333-.05771.37664-.09554.75605-.11333 1.13667.04334.76333.60667 1.38 1.01667 2.04333.81666 1.33338 1 2.92998 1.03667 4.49668.03 1.5167-.05334 3.0667.24 4.55-.0263.696.13365 1.3864.46333 2l-.19001.1033c7.55664 15.56 20.16004 26 33.23004 36.52 1.5173-2.8526 2.3074-6.0356 2.3-9.2666-2.29-1.55-4.4634-3.3134-6.66-5z" fill="#fff" stroke="#36444d" stroke-miterlimit="10" stroke-width=".85"/><path d="m68.9218 77.8267c.1267 1.7734.24 3.54.3667 5.3134.09 1.2066.13 2.5366-.5967 3.5033-.6433.8567-1.7533 1.2033-2.79 1.5067-2.6666.7833-5.3333 1.5433-8 2.2933-2.2366.6267-4.4766 1.24-6.7166 1.8567h-.0467c-2.1367.5866-4.4033 1.5533-6.59 1.7333-.1 0-.2033.02-.3033.0233-1.3534.11-2.72.2167-4.0867.23-.6667-.44-1.0533-1.2266-1.6233-1.7533-.8967-.8267-2-1.1533-3.2434-1.4267-1.5233-.3333-3.05-.6666-4.6133-.86-.76-.0933-3.6667-.9233-3.95.28-.2567 1.06 3.1233 1.4 3.8933 1.5534.1834.0366.3967.0933.45.2566.08.2334-.2233.44-.4833.52-1.3067.3834-2.8733.09-4.1333-.1566-.8311-.1697-1.6523-.3844-2.46-.6434-.92-.29-2.1334-.9166-1.8067.65.1033.4934 1.6667.8734 1.58 1.1767-.0331.1878-.0274.3804.0166.566.044.1855.1255.3602.2394.5131.114.1529.2579.281.4231.3763s.3481.1559.5376.1779c-.0808.1949-.1141.4062-.0973.6164.0168.2103.0832.4136.1938.5932s.2623.3304.4425.44c.1803.1096.3839.1749.5943.1904.001.2466.0705.4881.2005.6976.1301.2094.3156.3788.5362.4891.1189.0638.2426.1184.37.1633-.0334.07-.07.14-.1067.2067.36.0333.7233.0567 1.0833.0867.4234.09.8567.1566 1.2534.2533.9738.2301 1.9631.3894 2.96.4767 1.2.1066 2.3333.3529 3.5566.2133 1.0734-.1233 2.1434-.27 3.2167-.4133 1.0333 0 2.0633.02 3.0967 0 3.2933-.0234 6.5933-.1467 9.8766-.3767 1.9434-.1367 3.88-.3 5.8167-.51 2.1178-.2222 4.2289-.4889 6.3333-.8 5.79-.86 13.0967-.9233 15.5167-7.3133.3299-.9033.5711-1.8366.72-2.7867.3225-2.1179.3819-4.2675.1767-6.4-.2334-2.42-.3334-4.8433-.4834-7.2633-3.9213.747-7.7273 2.0067-11.32 3.7466z" fill="#fff" stroke="#36444d" stroke-miterlimit="10" stroke-width=".85"/></svg>