<svg fill="none" height="166" viewBox="0 0 241 166" width="241" xmlns="http://www.w3.org/2000/svg" xmlns:xlink="http://www.w3.org/1999/xlink"><linearGradient id="a" gradientUnits="userSpaceOnUse" x1=".023193" x2="240.973" y1="66.2322" y2="66.2322"><stop offset="0" stop-color="#fff"/><stop offset="1" stop-color="#51c7ea"/></linearGradient><linearGradient id="b" gradientUnits="userSpaceOnUse" x1="28.1273" x2="127.795" y1="120.115" y2="120.115"><stop offset="0" stop-color="#dbf0f8"/><stop offset="1" stop-color="#a4dbf7"/></linearGradient><clipPath id="c"><path d="m0 0h241v166h-241z"/></clipPath><g clip-path="url(#c)"><path d="m154.869 143.257 67.317-7.181-14.975 29.924z" fill="#004c76" opacity=".12"/><path d="m175.184.0234375c-23.28 0-43.738 12.1170625-55.433 30.4021625-7.57-5.222-16.74-8.2828-26.6262-8.2828-25.9738 0-47.0312 21.1003-47.0312 47.127 0 2.6325.2253 5.2086.6394 7.7217-4.7541-3.1372-10.4425-4.9697-16.5616-4.9697-16.6511 0-30.1482066 13.5246-30.1482066 30.2092 0 14.677 10.4458066 26.904 24.2941066 29.636h.0166c1.8884.371 3.8398.571 5.8408.571s3.9491-.2 5.8408-.571h139.1755c36.333 0 65.789-29.516 65.789-65.9236 0-36.4075-29.459-65.9199625-65.796-65.9199625z" fill="url(#a)" opacity=".38" stroke="#fff" stroke-miterlimit="10" stroke-width=".14"/><path d="m100.582 92.7271c-9.6305 0-18.0919 5.0128-22.9288 12.5749-3.1308-2.161-6.9242-3.426-11.0124-3.426-10.744 0-19.4539 8.728-19.4539 19.494 0 1.089.0928 2.154.2651 3.193-1.968-1.298-4.3202-2.055-6.8513-2.055-6.8877 0-12.4701 5.594-12.4701 12.496 0 6.072 4.3201 11.128 10.0483 12.26h.0066c.7819.152 1.5903.235 2.4152.235s1.6333-.083 2.4152-.235h57.5701c15.031 0 27.213-12.21 27.213-27.269 0-15.058-12.186-27.2679-27.213-27.2679z" fill="url(#b)" opacity=".29"/><path d="m79.7305 52.4585h127.1595" stroke="#004c76" stroke-miterlimit="10" stroke-width="2.05"/><path d="m79.7305 77.5327h127.1595" stroke="#004c76" stroke-miterlimit="10" stroke-width="2.05"/><g fill="#4472b7"><path d="m108.06 30.8237h-20.5904c-1.2625 0-2.286 1.0256-2.286 2.2906v.0034c0 1.265 1.0235 2.2906 2.286 2.2906h20.5904c1.262 0 2.286-1.0256 2.286-2.2906v-.0034c0-1.265-1.024-2.2906-2.286-2.2906z"/><path d="m105.29 44.5776h-17.8204c-1.2625 0-2.286 1.0256-2.286 2.2907v.0033c0 1.265 1.0235 2.2906 2.286 2.2906h17.8204c1.263 0 2.286-1.0256 2.286-2.2906v-.0033c0-1.2651-1.023-2.2907-2.286-2.2907z"/><path d="m127.683 37.6992h-40.2134c-1.2625 0-2.286 1.0256-2.286 2.2906v.0034c0 1.265 1.0235 2.2906 2.286 2.2906h40.2134c1.262 0 2.286-1.0256 2.286-2.2906v-.0034c0-1.265-1.024-2.2906-2.286-2.2906z"/></g><path d="m108.06 55.8516h-20.5904c-1.2625 0-2.286 1.0255-2.286 2.2906v.0033c0 1.2651 1.0235 2.2906 2.286 2.2906h20.5904c1.262 0 2.286-1.0255 2.286-2.2906v-.0033c0-1.2651-1.024-2.2906-2.286-2.2906z" fill="#68cbe2"/><path d="m116.756 69.605h-29.2864c-1.2625 0-2.286 1.0255-2.286 2.2906v.0033c0 1.2651 1.0235 2.2906 2.286 2.2906h29.2864c1.263 0 2.286-1.0255 2.286-2.2906v-.0033c0-1.2651-1.023-2.2906-2.286-2.2906z" fill="#68cbe2"/><path d="m119.331 62.7266h-31.8614c-1.2625 0-2.286 1.0255-2.286 2.2906v.0033c0 1.2651 1.0235 2.2906 2.286 2.2906h31.8614c1.262 0 2.286-1.0255 2.286-2.2906v-.0033c0-1.2651-1.024-2.2906-2.286-2.2906z" fill="#68cbe2"/><g fill="#4472b7"><path d="m103.726 80.8789h-16.2564c-1.2625 0-2.286 1.0255-2.286 2.2906v.0033c0 1.2651 1.0235 2.2907 2.286 2.2907h16.2564c1.263 0 2.286-1.0256 2.286-2.2907v-.0033c0-1.2651-1.023-2.2906-2.286-2.2906z"/><path d="m116.756 94.6323h-29.2864c-1.2625 0-2.286 1.0256-2.286 2.2906v.0034c0 1.265 1.0235 2.2906 2.286 2.2906h29.2864c1.263 0 2.286-1.0256 2.286-2.2906v-.0034c0-1.265-1.023-2.2906-2.286-2.2906z"/><path d="m127.683 87.7539h-40.2134c-1.2625 0-2.286 1.0255-2.286 2.2906v.0033c0 1.2651 1.0235 2.2907 2.286 2.2907h40.2134c1.262 0 2.286-1.0256 2.286-2.2907v-.0033c0-1.2651-1.024-2.2906-2.286-2.2906z"/><path d="m183.278 35.4087h-15.518c-2.527 0-4.575 2.0526-4.575 4.5845 0 2.532 2.048 4.5846 4.575 4.5846h15.518c2.527 0 4.575-2.0526 4.575-4.5846 0-2.5319-2.048-4.5845-4.575-4.5845z"/></g><path d="m174.031 37.3936h-5.463c-1.431 0-2.591 1.1622-2.591 2.596v.0033c0 1.4338 1.16 2.596 2.591 2.596h5.463c1.431 0 2.591-1.1622 2.591-2.596v-.0033c0-1.4338-1.16-2.596-2.591-2.596z" fill="#68cbe2"/><path d="m183.278 60.436h-15.518c-2.527 0-4.575 2.0526-4.575 4.5846s2.048 4.5845 4.575 4.5845h15.518c2.527 0 4.575-2.0525 4.575-4.5845s-2.048-4.5846-4.575-4.5846z" fill="#4472b7"/><path d="m183.278 85.4634h-15.518c-2.527 0-4.575 2.0526-4.575 4.5845 0 2.532 2.048 4.5846 4.575 4.5846h15.518c2.527 0 4.575-2.0526 4.575-4.5846 0-2.5319-2.048-4.5845-4.575-4.5845z" fill="#4472b7"/><path d="m174.031 87.4487h-5.463c-1.431 0-2.591 1.1623-2.591 2.5961v.0033c0 1.4337 1.16 2.596 2.591 2.596h5.463c1.431 0 2.591-1.1623 2.591-2.596v-.0033c0-1.4338-1.16-2.5961-2.591-2.5961z" fill="#68cbe2"/><path d="m184.534 70.8731s.437-3.2965-.656-5.1589c-1.09-1.8623-2.131-2.2806-2.131-2.2806l-1.103.9793s-.288.7005 1.961 5.7299c2.25 5.0294 1.929.727 1.929.727" fill="#fff"/><path d="m184.534 70.8731s.437-3.2965-.656-5.1589c-1.09-1.8623-2.131-2.2806-2.131-2.2806l-1.103.9793s-.288.7005 1.961 5.7299c2.25 5.0294 1.929.727 1.929.727" stroke="#35444c" stroke-miterlimit="10" stroke-width="1.05"/><path d="m197.805 137.318c0-.13.116.232.172.352.11.222.219.448.342.664.344.597.719 1.198 1.136 1.746 1.425 1.862 3.124 3.22 5.148 4.392.521.299 1.051.574 1.594.826.119.053.451.253.586.146.196-.152.06-.657.027-.839-.162-.877-.321-1.75-.59-2.603-.437-1.378-.669-3.23-1.666-4.336-1.027-1.138-2.77-1.44-4.188-1.832-.401-.11-1.123-.501-1.54-.309-.554.259-.955 1.338-1.114 1.912" fill="#004c76"/><path d="m174.555 136.893c-.08 0 .152-.04.222-.077.145-.076.288-.152.434-.232.241-.129.977-.793 1.272-.597.275.182.371.71.48.995.328.874.646 1.767.885 2.67.52 1.978.782 4.182.609 6.227-.059.707-.049 1.747-.523 2.334-.626.774-2.246 1.122-3.177 1.145-1.72.047-1.584-1.54-1.365-2.815.348-2.025.513-4.103.699-6.148.103-1.145.013-2.44.49-3.512" fill="#004c76"/><path d="m178.58 98.4038 12.165 3.7012s2.638 4.721-2.683 14.561c0 0-2.203 8.07-1.786 11.506l15.356 7.589s-.083 4.807-3.767 6.058c0 0-7.441-6.251-15.753-8.336 0 0-2.813-1.988-3.247-8.126s-.384-9.481-.384-9.481l-4.42 7.522s-.947.853.212 3.811c1.16 2.958 5.145 11.888 5.145 11.888s-2.766 2.616-6.009 2.566l-6.911-14.998s-1.017-2.962.397-6.553c1.415-3.589 6.802-15.743 11.688-21.7082z" fill="#68cbe2"/><path d="m178.477 115.879-.344-1.773-5.407 9.169s-.736 1.252.533 4.03l5.248 12.519.908-.727s-5.579-13.392-5.579-13.598-.388-.793.222-2.098c.609-1.304 4.419-7.522 4.419-7.522z" fill="#004c76"/><path d="m182.191 62.4214h-5.463c-1.431 0-2.591 1.1623-2.591 2.596v.0033c0 1.4338 1.16 2.5961 2.591 2.5961h5.463c1.431 0 2.591-1.1623 2.591-2.5961v-.0033c0-1.4337-1.16-2.596-2.591-2.596z" fill="#68cbe2"/><path d="m187.343 68.3836s-.819-3.2234-2.525-4.5414c-1.706-1.3212-2.826-1.3212-2.826-1.3212l-.659 1.3212s.199 1.9155 4.151 5.7465c3.956 3.831 1.855-1.2017 1.855-1.2017" fill="#fff"/><path d="m187.343 68.3836s-.819-3.2234-2.525-4.5414c-1.706-1.3212-2.826-1.3212-2.826-1.3212l-.659 1.3212s.199 1.9155 4.151 5.7465c3.956 3.831 1.855-1.2017 1.855-1.2017" stroke="#35444c" stroke-miterlimit="10" stroke-width="1.05"/><path d="m198.928 67.2612s-1.749 2.8417-2.746 3.4758.252 1.6765.252 1.6765l-.637 1.6665s-.646.956 2.734 2.5628c0 0-.063 1.537-.921 2.7521-.862 1.2183 2.435 1.8823 2.435 1.8823s5.585.1759 5.284 0c-.302-.176-3.489-13.2392-3.489-13.2392z" fill="#fff" stroke="#35444c" stroke-miterlimit="10" stroke-width="1.1"/><path d="m202.719 81.254s-3.983-.1029-5.159-1.4607c0 0 .669-1.0722.795-1.9121h-4.386s-4.824-6.3407-6.609-10.5335c0 0-1.892.1128-2.879 1.1253-.988 1.0126-2.651.2391-2.651.2391l.278 10.4571s.285 1.1453 3.472 2.1844c1.683.5511 3.479 1.7761 3.479 1.7761s-2.77 1.8624-1.895 5.3979l-8.66 10.1915s2.452 3.4429 11.986 4.2229c0 0 10.84-14.4908 16.3-16.5457 0 0 1.084-3.6816-4.075-5.1423zm-18.013-10.1019c2.935 3.2732 3.608 6.2378 3.608 6.2378-3.615.7369-3.608-6.2378-3.608-6.2378z" fill="#004c75"/><path d="m205.415 64.7086s-4.065-2.7786-6.281 0c-2.22 2.7786 2.773 5.2086 2.773 5.2086s.881 4.7771 0 8.4853c-.882 3.7081 2.329 6.4801 4.436 9.9227 2.127 3.4724 1.385 7.3631 1.385 7.3631s.069 6.0417 7.626 2.3604c6.858-3.3397 2.22-10.8357-.692-12.9204-2.912-2.0848-4.085-6.0685-3.326-9.863.831-4.1662-5.918-10.5567-5.918-10.5567z" fill="#fab01a"/></g></svg>