<svg fill="none" height="103" viewBox="0 0 281 103" width="281" xmlns="http://www.w3.org/2000/svg" xmlns:xlink="http://www.w3.org/1999/xlink"><linearGradient id="a"><stop offset="0" stop-color="#fff"/><stop offset="1" stop-color="#51c7ea"/></linearGradient><linearGradient id="b" gradientUnits="userSpaceOnUse" x1="183.23" x2="104.935" xlink:href="#a" y1="53.9267" y2="49.4753"/><linearGradient id="c" gradientUnits="userSpaceOnUse" x1="162.46" x2="216.836" xlink:href="#a" y1="-1.30967" y2="55.3074"/><linearGradient id="d" gradientUnits="userSpaceOnUse" x1="291.906" x2="250.466" xlink:href="#a" y1="87.4987" y2="87.2372"/><linearGradient id="e" gradientUnits="userSpaceOnUse" x1="1.00282" x2="58.0354" xlink:href="#a" y1="84.3873" y2="84.3873"/><linearGradient id="f" gradientUnits="userSpaceOnUse" x1="71.941" x2="137.057" xlink:href="#a" y1="91.5967" y2="91.5967"/><linearGradient id="g" gradientUnits="userSpaceOnUse" x1="209.028" x2="163.173" xlink:href="#a" y1="90.5289" y2="90.1764"/><path d="m173.619 59.4791s25.074-16.7625-3.582-33.6784c-28.656-16.91585-31.712 11.87-31.712 11.87s2.494 19.4874-20.999 13.725c-23.4904-5.7625-7.795 24.7839-7.795 24.7839s6.688 13.3534 31.076-.7137c24.388-14.0641 33.009-15.9898 33.009-15.9898z" fill="url(#b)" opacity=".38" stroke="#fff" stroke-miterlimit="10" stroke-width=".13"/><path d="m173.331 1.06721s-29.754-4.84531-20.282 27.09599c9.47 31.9414 31.285 12.9583 31.285 12.9583s11.427-15.9663 24.706 4.2879c13.276 20.2512 22.563-12.8226 22.563-12.8226s4.186-14.3383-23.231-20.6906-35.038-10.82899-35.038-10.82899z" fill="url(#c)" opacity=".38" stroke="#fff" stroke-miterlimit="10" stroke-width=".13"/><g fill="#004c76"><path d="m34.7719 28.8338c-.262 0 .4857-.1976.7389-.2743.5769-.1769 1.1745-.2919 1.7602-.4335 1.8221-.4364 3.7061-.7225 5.5517-1.041 5.5576-.9614 11.1504-1.7281 16.7109-2.6748 16.8493-2.8665 34.1283-4.9898 51.2394-4.4295 4.168.1357 8.345.2861 12.446 1.0823 1.168.2271 3.538.2183 3.673 1.8697.112 1.3389-2.893.4748-3.476.4129-3.712-.407-7.406-.6193-11.133-.8523-1.589-.1003-3.155-.4541-4.748-.4895-7.6885-.177-15.3861.9584-22.9953 1.8697-12.7636 1.5246-25.4447 3.3059-38.0934 5.6121-.8978.1622-1.7897.3273-2.6816.5131-2.09.4306-9.0575 3.3324-9.0575-.8611" opacity=".15"/><path d="m204.954 24.9251c-.241 0 .477.062.715.0944.545.0708 1.093.1475 1.637.2065 1.781.1946 3.562.3804 5.343.5691 4.96.5279 9.884 1.2416 14.806 2.0437 15.051 2.4537 30.47 3.5094 45.685 4.1169 1.072.0413 2.143.0679 3.215.0973.93.0266 1.86.059 2.793.0767 1.722.0325 8.239 1.2888 8.419-1.5571.038-.6193-3.956-.4423-4.38-.4482-5.034-.0649-9.87-.407-14.871-.9231-7.686-.7933-15.437-1.0204-23.137-1.6485-7.25-.5928-14.421-1.6043-21.633-2.5392-4.939-.6399-9.867-1.3536-14.821-1.8726-1.466-.1534-3.815-.985-5.257-.5869-.342.0944-.324 2.1764-.121 2.492.177.2742 1.169.171 1.419.1828" opacity=".15"/><path d="m182.353 25.0738c-.126 0 .392.0413.424.0443.294.0236.586.0589.88.0855.833.0708 1.663.1504 2.496.2241.745.0678 1.493.1327 2.237.1917 2.388.1917 4.878.8611 6.373-1.3005.189-.2713.76-.9083.716-1.2622-.039-.3038-.969-.2006-1.154-.1976-1.378.0088-2.755.0649-4.133.1002-1.678.0413-3.353.0531-5.031.0531-2.219 0-3.199-.3037-2.887 1.8727" opacity=".15"/><path d="m164.915 26.035c0 .41.024.8228.038 1.2327.012.2832.021.5692.042.8523.011.1445.429 1.6191.7.7638.209-.6606.074-1.7488.012-2.4447-.021-.2301-.418-1.3684-.659-.6665" opacity=".15"/><path d="m165.059 22.5696c-.318 0 .283-.4718.289-.7313.006-.233.165-3.0818-.662-2.8547-.118.0324-.018.7667-.015.8582.026.7874-.189 2.0761.176 2.8075" opacity=".15"/></g><path d="m183.481 20.3976c-.121-2.1351-.445-4.7096-2.432-5.9217-1.734-1.0587-3.885-.7963-5.819-.7963-2.717 0-5.481-.1651-8.184-.4394 1.16.8405 1.343 3.244 1.49 4.3794.603 4.6772.745 9.7172-.418 14.3148-.386 1.5246-1.366 3.3973-2.679 3.3118.209.0413.586.0413.642.0442.839.059 1.684.0708 2.525.1062 2.438.1002 4.896.2447 7.336.1445 1.015-.0413 2.281.0501 3.179-.5102 4.307-2.6955 4.616-10.074 4.36-14.6303z" fill="#062938" opacity=".36"/><path d="m168.533 17.6203c-.147-1.1354-.33-3.5389-1.49-4.3794-.185-.1356-.394-.2329-.632-.2742-1.599-.2831-2.629 1.8815-3.138 3.0464-1.646 3.763-1.107 8.5994-.789 12.5748.085 1.0676.197 2.1322.341 3.1938.036.2595.006.9762.218 1.1856l.23.289c.191.3951.4.7697.691 1.1.524.5986 1.019.8611 1.475.8906 1.31.0826 2.29-1.7872 2.679-3.3118 1.163-4.5976 1.021-9.6376.418-14.3148z" fill="#004c76" opacity=".15"/><path d="m182.962 28.6354c-.091 0 .745-.0089.839-.0148.212-.0176.424-.0471.636-.0766.639-.0856 1.278-.1858 1.911-.3126 2.79-.5604 3.093-.926 5.292-2.4507.209-.1445 1.552-.926 1.463-1.2504-.065-.2418-.918-.2035-1.08-.2123-1.195-.0826-2.393-.0767-3.591-.0767-.827 0-3.945-.2861-4.575.1356-.321.2124-.379.5427-.4.87-.068.9909-.327 2.2796-.327 3.2705" fill="#004c76"/><g opacity=".19"><path d="m250.831 91.4799c-.427 0 .853.0383 1.277.0531.821.0265 1.64.0413 2.461.0737 2.643.1062 5.284.2271 7.927.3509 7.718.3657 15.425.7933 23.152 1.0499.25.0089.5.0177.747.0295.233.0089.465.0177.698.0295 1.64.0708 3.238-.0177 4.863-.0177.126 0 .179-.0442.2-.1799.138-.8523-1.177-10.3512-1.401-10.5547-1.21-1.1148-5.157.1474-6.526.3303-6.052.8021-12.048 1.8225-18 3.185-3.256.7461-6.544 1.386-9.788 2.1941-.303.0767-5.522.6665-5.696 1.0174" fill="url(#d)"/><path d="m250.831 91.4799c-.427 0 .853.0383 1.277.0531.821.0265 1.64.0413 2.461.0737 2.643.1062 5.284.2271 7.927.3509 7.718.3657 15.425.7933 23.152 1.0499.25.0089.5.0177.747.0295.233.0089.465.0177.698.0295 1.64.0708 3.238-.0177 4.863-.0177.126 0 .179-.0442.2-.1799.138-.8523-1.177-10.3512-1.401-10.5547-1.21-1.1148-5.157.1474-6.526.3303-6.052.8021-12.048 1.8225-18 3.185-3.256.7461-6.544 1.386-9.788 2.1941-.303.0767-5.522.6665-5.696 1.0174" stroke="#fff" stroke-miterlimit="10" stroke-width=".24"/></g><path d="m246.624 84.9494c-.05-.0502.353.4866.439.6252.276.4512.518.926.756 1.4008.436.8729 1.351 3.5536 2.017 4.1257.276.2359 1.521.525 1.831.233.541-.5102.621-1.8668.621-2.548 0-1.8609.736-4.866-.866-6.3081-2.228-2.0112-4.724-1.271-4.848 1.8285" fill="#004c76"/><g opacity=".19"><path d="m5.60075 74.9297c-.03532.0708.87425.1121.9243.115 1.43648.0737 2.87297.1298 4.30945.2182 3.8532.233 7.7123.5132 11.5537.8759 3.0849.289 6.1551.6635 9.2253 1.0853 3.603.4954 21.5149 2.5745 24.1995 5.6504.9596 1.1 1.0244 3.878 1.3158 5.2287.259 1.2061 1.2569 3.6598.7741 4.8836-.518 1.3094-4.3418.6636-5.3132.6665-5.743.0207-11.4801.1976-17.2231.1888-8.7131-.0148-17.4321-.0089-26.13931-.407-.47687-.0207-8.0037-.3215-8.17148-.6459-.521025-1.0085 2.767-12.5659 3.18793-14.1054" fill="url(#e)"/><path d="m5.60075 74.9297c-.03532.0708.87425.1121.9243.115 1.43648.0737 2.87297.1298 4.30945.2182 3.8532.233 7.7123.5132 11.5537.8759 3.0849.289 6.1551.6635 9.2253 1.0853 3.603.4954 21.5149 2.5745 24.1995 5.6504.9596 1.1 1.0244 3.878 1.3158 5.2287.259 1.2061 1.2569 3.6598.7741 4.8836-.518 1.3094-4.3418.6636-5.3132.6665-5.743.0207-11.4801.1976-17.2231.1888-8.7131-.0148-17.4321-.0089-26.13931-.407-.47687-.0207-8.0037-.3215-8.17148-.6459-.521025-1.0085 2.767-12.5659 3.18793-14.1054" stroke="#fff" stroke-miterlimit="10" stroke-width=".24"/></g><g opacity=".19"><path d="m89.9383 81.1895c-.3562 0 .9655.1622 1.7721.2978.939.1563 1.8839.2713 2.8258.3981 2.8701.3923 5.7398.7963 8.6128 1.1738 9.049 1.1884 18.254 1.4627 27.223 3.2174 1.798.3509 6.847 3.9665 6.682 5.8156-.136 1.5187-5.26 1.3713-6.161 1.4421-6.697.5219-13.399.8788-20.073 1.6868-9.496 1.1502-18.933 2.8901-28.3291 4.6713-1.9722.3746-8.7925 2.5746-10.5411 2.0206-.1265-.039 1.8751-2.0088 2.0547-2.1945 1.2687-1.3153 2.4491-2.6749 3.3969-4.2438 1.7986-2.9756 5.6429-12.0056 9.0899-12.8579" fill="url(#f)"/><path d="m89.9383 81.1895c-.3562 0 .9655.1622 1.7721.2978.939.1563 1.8839.2713 2.8258.3981 2.8701.3923 5.7398.7963 8.6128 1.1738 9.049 1.1884 18.254 1.4627 27.223 3.2174 1.798.3509 6.847 3.9665 6.682 5.8156-.136 1.5187-5.26 1.3713-6.161 1.4421-6.697.5219-13.399.8788-20.073 1.6868-9.496 1.1502-18.933 2.8901-28.3291 4.6713-1.9722.3746-8.7925 2.5746-10.5411 2.0206-.1265-.039 1.8751-2.0088 2.0547-2.1945 1.2687-1.3153 2.4491-2.6749 3.3969-4.2438 1.7986-2.9756 5.6429-12.0056 9.0899-12.8579" stroke="#fff" stroke-miterlimit="10" stroke-width=".24"/></g><path d="m134.625 87.4307c-.203 0 .08-.1032.133-.1179.524-.1445 1.121-.1386 1.66-.1327.833.0118 5.072.6193 4.289 2.2943-.901 1.9228-7.209 1.8226-8.849 1.1502-3.6-1.4716-.309-2.9225 1.572-3.2676" fill="#004c76"/><path d="m114.62 56.8047c-.182 0 .436.1858 1.148.3804.775.2124 1.519.5279 2.232.8965 2.14 1.103 4.133 2.6365 5.928 4.229 5.552 4.9249 7.668 11.3038 10.482 17.948.333.7874 2.744 5.8598 2.082 6.6915-.627.7874-1.831 1.0823-2.691 1.5128-.839.4188-3.279 2.0496-4.274 1.6839-1.016-.3715-1.916-2.4241-2.464-3.2587-1.931-2.9431-3.488-6.1576-5.657-8.9445-4.207-5.4027-10.421-8.1424-17.235-7.355-6.2968.7284-11.2479 5.214-16.4817 8.2663-5.2838 3.0817-11.5625 4.9809-17.2201 7.2576-1.8427.7432-3.7178 1.3536-5.5782 2.0467-3.2027 1.1973-6.0697 2.5126-8.0743-1.0794-2.976-5.3348-.2267-6.1635 4.0003-8.4284 2.8259-1.5129 5.8578-2.8931 8.5395-4.6536 4.4802-2.9373 8.8809-6.2668 13.0284-9.6494 2.9348-2.3946 6.2552-5.5354 10.0407-6.4997 4.9158-1.2504 9.9204-.0856 14.8884.0088 1.834.0354 6.509-.9732 7.563-.811" fill="#4585c5"/><g fill="#004c76"><path d="m57.6409 85.5965c-.2767.2772-.1943 2.0673-.2649 2.4654-.2973 1.7045-.8036 3.5654-2.09 4.807-1.5719 1.5158-2.0311-1.1738-2.1429-2.2856-.2032-1.9965-.2149-4.2289.7447-6.0603 1.2981-2.4772 2.7817-2.3416 3.5029.3539"/><path d="m122.813 21.71c-.627 0-1.64.8228-2.238 1.0469-1.524.5722-3.067.8435-4.698.7137-2.884-.23-5.392-1.5453-8.145-2.2206-2.849-.699-6.175-.6164-8.9188.463-2.4314.9584-4.5008 2.5303-6.3199 4.3823-5.8931 6.0013-7.6004 12.7665-7.8889 20.8764-.0501 1.3743.0235 2.7132.053 4.0845.05 2.3593 0 4.1523 1.772 5.9276 1.8692 1.8727 5.4987 2.0054 7.8359 2.1234 5.2367.2624 10.4527.2211 15.6807-.2832 1.869-.1798 3.671-.6664 5.502-1.0498.58-.1209 1.527-.3274 1.71-.9968.268-.9703-1.013-1.8963-1.616-2.4448-1.531-1.389-2.967-3.415-3.977-5.2198-1.849-3.303-.283-7.1545.627-10.4751.98-3.5684 3.768-6.1193 6.947-7.9212 1.095-.6193 2.266-1.0499 3.412-1.5571.291-.1298.983-.2772 1.162-.5662.165-.2625-.029-1.1944-.038-1.4893-.009-.3834-.029-.7638-.044-1.1443-.047-1.0675-.183-2.1321-.23-3.1997-.009-.1917.139-.9201.021-1.0676-.021-.0265-.468.0207-.506.0325"/><path d="m112.274 24.3004c-.064-.0619.513.2802.595.3392.427.3008.836.634 1.254.9437 1.23.9083 2.511 1.6633 4.006 2.0319 2.087.5161 4.289-.2448 6.329-.6695 1.098-.227 2.084-.5898 3.191-.2093 1.027.3539 3.017 1.8844 2.517 3.2144-.33.8759-1.543 1.4687-2.235 2.0261-2.599 2.0908-5.557 3.1702-8.642 4.3174-1.195.4453-2.502 1.1236-3.815 1.0381-1.695-.1121-3.45-.9732-4.939-1.7311-1.893-.9644-3.848-2.144-5.325-3.6864-.206-.2153-1.266-1.2002-1.178-1.5217"/><path d="m138.785 19.4757c-.121 0 .241-.0236.362-.0295.247-.0177.494-.0177.742-.0206.794-.0118 1.589-.0265 2.384-.0383 1.407-.0207 2.802-.1298 4.206-.2242.418-.0295 1.19-.2713 1.587-.0648.436.23.683.8906.877 1.3064.162.3421.533.9496.453 1.3536-.082.4217-.827.5072-1.142.5633-1.16.2035-2.375.1887-3.547.3037-1.26.1239-2.511.3126-3.765.4807-.326.0443-1.083.3156-1.371.0649-.295-.2566-.298-.7314-.348-1.0882-.115-.811-.179-1.6308-.273-2.4448" opacity=".15"/><path d="m139.85 27.7601c0-.0797.68-.1151.742-.121.868-.0855 1.737-.1504 2.602-.2506 1.581-.1799 3.212-.3244 4.801-.2124.418.0295 1.281-.0088 1.59.3628.321.3863.291 1.1501.362 1.6161.05.345.25.926.138 1.271-.079.2418-.597.2743-.795.2979-.868.1032-1.751.1238-2.622.1445-1.787.0413-3.574.0648-5.361.0648-.388 0-1.398.2065-1.716-.0943-.191-.1799-.129-.5574-.123-.7845.014-.6665.017-1.6957.27-2.3327" opacity=".15"/></g><path d="m139.759 16.9964c-.312-1.2799-.804-2.6984-1.86-3.5654-.769-.6311-1.84-.6636-2.788-.7284-1.575-.1062-3.153-.174-4.733-.118-1.181.0442-2.355.1533-3.533.23-.368.0236-.733.0443-1.101.062-.005 0-.011 0-.02 0 .509.0914.957.4954 1.219 1.1176.762 1.8196.856 4.0049 1.042 5.9483.379 4.0019.482 8.0598.041 12.0617-.074.6724-.171 1.3359-.362 1.9847-.127.4247-.298.8258-.51 1.218-.197.3657-.432.696-.703.923.798-.0501 1.695.0738 2.449.1003 1.743.0619 3.479.0973 5.219.2212 1.133.0796 2.573.3568 3.665-.0442.471-.174.798-.5722.971-1.0352.427-1.1471.724-2.4123.978-3.6067 1.039-4.8718 1.209-9.9088.023-14.7719z" fill="#062938" opacity=".36"/><path d="m108.795 34.5918s-.065.1533-.079.1887c-.053.1209-.1.2389-.151.3598-.138.3303-.288.6577-.429.988-.459 1.0587-.866 2.1321-1.278 3.2115-.403 1.0528-.877 2.1204-1.092 3.2322-.45 2.3474-.412 4.7096-1.007 7.0512-.212.8346-.58 1.6662-.556 2.5421 0 .0619.012.7107.088.7314.159.0412.092-.3185.15-.4719.133-.3332.315-.637.504-.9378.589-.9525 1.207-1.8903 1.787-2.8458 1.828-3.0287 2.799-6.0633 3.255-9.5757.118-.9024.362-1.7812.495-2.6836.026-.1858.209-.6783.106-.8552-.218-.3746-1.372-.6783-1.799-.8228" fill="#67cbe4"/><path d="m110.817 14.1855c.053 0-.112.9939-.123 1.0647-.109.7638-.192 1.5187-.124 2.2914.074.8552.474 2.2029-.165 2.9432-.285.3303-.848.4807-1.254.5898-1.454.3892-3.067.0088-4.492-.3274-.73-.171-1.398-.1622-1.842-.8582" fill="#fff"/><path d="m110.817 14.1855c.053 0-.112.9939-.123 1.0647-.109.7638-.192 1.5187-.124 2.2914.074.8552.474 2.2029-.165 2.9432-.285.3303-.848.4807-1.254.5898-1.454.3892-3.067.0088-4.492-.3274-.73-.171-1.398-.1622-1.842-.8582" stroke="#35444c" stroke-miterlimit="10" stroke-width="1.18"/><path d="m128.329 26.9694c-.083.0413.683-.4718.859-.6193.46-.3863.686-1.3241 1.29-1.507.936-.286-.53 1.4923-.03 1.5188 1.025.0531 1.731-.9555 2.488-1.4598.25-.1681.806-.5544.977-.0737.68 1.9022-1.604 2.7839-2.788 3.5182-.356.2212-.883 1.047-1.342.9939-.197-.0236-.483-.4306-.609-.5515-.462-.4394-1.434-1.0027-.907-1.7193" fill="#fff"/><path d="m128.329 26.9694c-.083.0413.683-.4718.859-.6193.46-.3863.686-1.3241 1.29-1.507.936-.286-.53 1.4923-.03 1.5188 1.025.0531 1.731-.9555 2.488-1.4598.25-.1681.806-.5544.977-.0737.68 1.9022-1.604 2.7839-2.788 3.5182-.356.2212-.883 1.047-1.342.9939-.197-.0236-.483-.4306-.609-.5515-.462-.4394-1.434-1.0027-.907-1.7193" stroke="#35444c" stroke-miterlimit="10"/><path d="m127.985 19.9416c-.186-1.9434-.28-4.1287-1.043-5.9482-.261-.6223-.709-1.0263-1.218-1.1177-.421-.0767-.883.0619-1.319.4689-.927.867-1.439 2.3268-1.825 3.5035-1.048 3.1967-.901 6.4732-.718 9.785.073 1.3506-.012 2.9874.421 4.2879l.179.7461c.401 1.4008.813 2.7869 1.79 3.9075.177.2035.377.3982.595.5574.633.463 1.165.3657 1.604 0 .271-.2271.506-.5574.703-.923.209-.3893.383-.7904.51-1.218.191-.6488.285-1.3153.362-1.9847.444-4.0019.341-8.0598-.041-12.0617z" fill="#004c76" opacity=".15"/><g opacity=".19"><path d="m199.982 85.3622c-1.986-.4984-12.304 1.3506-14.862 1.6161-3.138.3244-6.279.6222-9.402 1.0734-2.084.3008-4.303.3716-6.352.8435-1.092.2506-2.072 1.0675-3.156 1.4067-.547.171-2.764.5632-2.967 1.2769-.047.1681 2.894.6429 3.029.6635 1.601.2596 3.2.5132 4.81.7167 8.813 1.1118 17.671 2.0378 26.543 2.5214 2.684.1475 5.375.2065 8.062.1681.277-.0029 2.184.1799 2.299-.23.174-.6193-1.692-2.082-2.046-2.43-2.281-2.2443-4.009-4.114-5.092-7.1279" fill="url(#g)"/><path d="m199.982 85.3622c-1.986-.4984-12.304 1.3506-14.862 1.6161-3.138.3244-6.279.6222-9.402 1.0734-2.084.3008-4.303.3716-6.352.8435-1.092.2506-2.072 1.0675-3.156 1.4067-.547.171-2.764.5632-2.967 1.2769-.047.1681 2.894.6429 3.029.6635 1.601.2596 3.2.5132 4.81.7167 8.813 1.1118 17.671 2.0378 26.543 2.5214 2.684.1475 5.375.2065 8.062.1681.277-.0029 2.184.1799 2.299-.23.174-.6193-1.692-2.082-2.046-2.43-2.281-2.2443-4.009-4.114-5.092-7.1279" stroke="#fff" stroke-miterlimit="10" stroke-width=".24"/></g><path d="m169.101 86.8266c0 .4748-1.557.9761-1.854 1.0882-1.566.5957-4.757.581-5.181 2.6571-.236 1.1501 2.652 1.0528 3.255 1.0882 1.672.1003 5.108.3922 6.473-.8552.333-.3038.383-.87.433-1.2858.221-1.796-.859-1.9906-2.381-2.7102-.215-.1003-.724-.4925-.957-.4925" fill="#004c76"/><path d="m232.412 74.2156c-3.073-1.9434-5.557-4.4118-8.242-6.8124-1.725-1.5423-3.703-2.8517-5.163-4.6683-.783-.9732-1.439-2.0821-1.931-3.2322-.165-.3834-.268-1.4893-.55-1.7724-.08-.0796-.936.1651-1.037.1799-.921.118-1.854.1681-2.784.1445-3.533-.0855-7.183-.7048-10.677-1.2239-2.334-.348-4.659-.7343-6.979-1.1589-.954-.174-2.361-.6665-3.341-.4601-.606.1268-1.372.578-1.902.8995" fill="#67cbe4"/><path d="m189.032 56.4453c0 .1298-1.554.9319-1.689 1.0263-1.584 1.1088-3.074 2.3563-4.425 3.7424-5.289 5.4292-9.993 11.7048-12.802 18.7944-.626 1.5836-1.159 3.2115-1.822 4.7804-.123.292-.762 1.3389-.482 1.7341.444.6222 1.586.8493 2.24 1.1265 2.575 1.0823 3.032.9938 4.489-1.3684.338-.5514.689-1.097 1.027-1.6485 1.298-2.1145 2.691-4.2496 4.307-6.137 5.23-6.1075 14.311-11.2419 22.586-10.7759 8.76.4925 14.232 7.8445 20.794 12.5011 3.285 2.3298 7.494 3.592 11.309 4.745 2.823.8523 5.552 1.1295 8.469 1.2357 2.422.0885 3.347.9879 4.448-1.3448.223-.4748 1.401-3.8927.977-4.3174" fill="#67cbe4"/><path d="m196.759 32.7081c0-.1032-.129.1592-.194.2359-.136.1622-.283.3155-.436.463-.48.4542-1.054.8228-1.595 1.1973-1.537 1.0617-3.406 1.7872-5.24 2.1057-4.721.8168-9.216-1.0529-13.137-3.5271-1.042-.6577-3.117-1.336-3.535-2.6424-.321-1.0027 1.095-2.3003 1.645-2.9786.224-.2742.436-.7549.804-.8493 1.218-.3126 3.023.5603 4.233.7874 2.113.3981 4.312.1416 6.311-.6311 3.709-1.4332 6.328-4.748 10.235-5.8067 5.551-1.5011 10.508 2.0791 14.314 5.618 1.405 1.3064 2.835 2.5627 3.824 4.2319 1.169 1.9729 2.258 4.3823 2.711 6.6354.221 1.1.174 2.2472.318 3.359.136 1.0498.453 2.0614.556 3.1171.201 2.0467.154 4.1553.192 6.2108.041 2.0083-.1 3.8308-.715 5.7477-.239.7461-.41 1.5247-.957 2.1204-.818.8906-1.778.8877-2.873 1.0882-1.601.292-3.17.7166-4.778.9968-2.831.4984-5.619 1.2209-8.424 1.8579-.536.1209-1.125.118-1.646.2861-.082.0265-.815.3627-.853.3185-.042-.0472.285-.5633.315-.6223.318-.6311.574-1.2828.765-1.9641.536-1.8962.577-3.7364.709-5.6887.156-2.2944-.194-4.5622-.412-6.8389-.468-4.8984-1.26-9.6789-2.178-14.5035" fill="#4585c5"/><path d="m173.178 29.8392c0 .0502-1.61-.5662-1.746-.6281-.762-.351-4.047-1.4451-2.955-2.9403.542-.7402 2.57.0649 3.309.0915.894.0324-.872-1.4893.129-1.3448.771.1121 1.157.9997 1.578 1.5512.374.4925 1.089.9673 1.316 1.5453.259.6665-.963 1.6014-1.505 1.8196" fill="#fff"/><path d="m173.178 29.8392c0 .0502-1.61-.5662-1.746-.6281-.762-.351-4.047-1.4451-2.955-2.9403.542-.7402 2.57.0649 3.309.0915.894.0324-.872-1.4893.129-1.3448.771.1121 1.157.9997 1.578 1.5512.374.4925 1.089.9673 1.316 1.5453.259.6665-.963 1.6014-1.505 1.8196" stroke="#35444c" stroke-miterlimit="10"/><path d="m193.215 35.1284c-.041 0 .071 1.274.077 1.3536.058.9142.079 1.8284.135 2.7397.159 2.6542-.071 5.214-.668 7.8091-.636 2.7692-1.778 5.158-3.38 7.4995-1.086 1.5896-4.886 3.5035-2.207 5.2641.359.2359.771.4129 1.174.5603.586.2094 1.21.3745 1.828.4542 2.623.3421 4.068-2.3032 4.863-4.4 2.075-5.4647 1.351-10.6786 1.26-16.3556-.029-1.8195.003-3.6421-.029-5.4616-.006-.3126.15-1.622-.259-1.8285-.248-.1238-1.887 1.9081-2.347 2.2443" fill="#4585c5"/><path d="m202.367 62.0495c-.224 0-.274.8169-.253.9408.156 1.0145 1.33 1.1885 1.948.463.524-.6164.103-1.7547-.686-1.8963-.403-.0707-.756.1799-1.024.4513" fill="#fff"/><path d="m200.963 45.4075s-.342.1858-.371.2153c-.197.1917-.283.4276-.286.6989-.003.2507.103.4719.248.6724.108.1534.262.2566.435.3244.683.2654 1.481-.2861 1.519-1.0233.027-.4778-.33-1.0646-.854-1.0528-.159.0029-.356.0354-.503.0914" fill="#fff"/><path d="m199.968 37.421c-.345 0-.524.5957-.512.8464.026.637.809 1.0528 1.383.7815 1.163-.5515.371-2.2679-.739-1.7105" fill="#fff"/><path d="m193.922 14.51c.023 0 .041.5927.041.6252.023.6547.017 1.3123.026 1.967.018 1.1354-.012 2.2649-.012 3.4003 0 .5426.051 1.1914.442 1.6072.397.4217 1.16.4748 1.699.4365.418-.0295.824-.1593 1.218-.292.654-.2153 1.36-.4748 1.911-.8994.75-.5751.874-1.8462.889-2.7102.008-.5899-.056-1.2033-.236-1.7636-.168-.522-.374-1.0734-.677-1.5335-.683-1.0381-2.022-1.4273-3.194-1.4775-.692-.0295-1.377.0708-1.937.4837" fill="#fff"/><path d="m193.922 14.51c.023 0 .041.5927.041.6252.023.6547.017 1.3123.026 1.967.018 1.1354-.012 2.2649-.012 3.4003 0 .5426.051 1.1914.442 1.6072.397.4217 1.16.4748 1.699.4365.418-.0295.824-.1593 1.218-.292.654-.2153 1.36-.4748 1.911-.8994.75-.5751.874-1.8462.889-2.7102.008-.5899-.056-1.2033-.236-1.7636-.168-.522-.374-1.0734-.677-1.5335-.683-1.0381-2.022-1.4273-3.194-1.4775-.692-.0295-1.377.0708-1.937.4837" stroke="#35444c" stroke-miterlimit="10"/><path d="m195.055 10.9876c-1.51 0-4.548 2.7869-3.223 4.3175 1.077 1.2445 2.019-.0944 3.084-.3628.583-.1445 1.066.4276 1.569.6164.622.233 1.84-.0885 2.308.4306.395.4364.171 1.4715.142 1.9876-.104 1.799.164 2.8872 2.063 3.418.386.1091.901.3037 1.307.1976.524-.1386.621-.7904.565-1.2445-.156-1.2593-.618-2.4271-.677-3.7159-.053-1.153.362-2.7632-.262-3.8013-.547-.9083-1.79-.7609-2.69-.9349-1.605-.3096-2.108-1.3182-3.971-.9672" fill="#fab01d"/><path d="m193.442 21.0365c-.059 0-.033-.2448-.027-.2772.033-.2242.106-.4778.309-.6016.362-.2212.898-.1563 1.298-.2949.571-.1947 1.063-.5486 1.596-.8169.194-.0974.624-.3185.774-.0443.185.3421-.015.9054-.165 1.2209-.444.9231-1.41 1.8697-2.44 2.085-.598.1239-1.357-.6753-1.357-1.274" fill="#fab01d"/><path d="m108.215 14.5032c0-.2035-.138.3126-.238.4777-.268.4424-.554.7402-1.072.8228-.347.056-.759.0619-1.065-.1356-.442-.2861-.754-1.221-1.375-.4159-.986 1.277 1.33 1.51.936 2.7663-.156.4954-.412.9584-.624 1.4303-.091.2005-.147.4836-.362.5868-.474.2271-1.045.0148-1.525-.0973-.315-.0737-.695-.0944-.915-.3627-.76-.9172-.798-2.5421-.792-3.6598.009-1.5984.359-3.4504 1.519-4.636.232-.2359.65-.6458 1.03-.5603.312.0708.5.3569.857.2654.471-.1238.871-.4659 1.312-.6635 1.051-.47481 2.347-.75202 3.477-.44827 1.61.43057 4.015 2.80747 1.925 4.22897-.983.6694-1.905.1209-2.902.3421" fill="#fab01d"/><path d="m223.699 51.1895 7.024 11.5279 3.382-8.9711z" fill="#004c76" opacity=".15"/><path d="m104.312 0 3.161 6.53808 3.035-6.013146z" fill="#004c76" opacity=".15"/><path d="m26.0087 70.219s29.2301 9.8469 54.0478-13.4065" stroke="#004c76" stroke-miterlimit="10" stroke-width="1.47"/></svg>