<svg fill="none" height="172" viewBox="0 0 197 172" width="197" xmlns="http://www.w3.org/2000/svg" xmlns:xlink="http://www.w3.org/1999/xlink"><linearGradient id="a"><stop offset="0" stop-color="#fff"/><stop offset="1" stop-color="#51c7ea"/></linearGradient><linearGradient id="b" gradientUnits="userSpaceOnUse" x1="6.94887" x2="197" xlink:href="#a" y1="100.514" y2="100.514"/><linearGradient id="c" gradientUnits="userSpaceOnUse" x1="106.063" x2="69.601" xlink:href="#a" y1="109.872" y2="24.6036"/><radialGradient id="d" cx="0" cy="0" gradientTransform="matrix(64.7152 0 0 64.6337 92.1058 86.436)" gradientUnits="userSpaceOnUse" r="1"><stop offset="0" stop-color="#e5e6e6"/><stop offset="1" stop-color="#fff"/></radialGradient><linearGradient id="e" gradientUnits="userSpaceOnUse" x1="73.8774" x2="142.508" y1="66.9457" y2="66.9457"><stop offset="0" stop-color="#ddf1f9"/><stop offset="1" stop-color="#a4dcf7"/></linearGradient><clipPath id="f"><path d="m0 0h197v172h-197z"/></clipPath><g clip-path="url(#f)"><path d="m181.055 45.9912c-3.775-3.4982-8.211-6.2962-13.292-8.1614-14.649-5.3742-28.72 2.4354-42.248 8.3339-10.134 4.4168-20.945 6.803-31.7705 6.3525-11.2693-.4681-20.4312-4.7653-30.5764-10.0303-21.7878-11.3008-45.2883 2.3475-53.31912 27.9616-4.62679 14.7569-3.71764 32.0545 2.78732 45.8505 4.9968 10.59 13.3659 18.227 22.6618 23.151 8.651 4.582 18.183 5.944 27.1688 9.217 9.2888 3.382 17.7918 8.7 26.8728 12.695 15.5363 6.831 31.3943 4.251 43.3823-9.679 6.036-7.014 9.866-16.492 19.402-16.935 10.864-.507 25.28-.771 33.089-11.142 17.245-22.908 15.332-59.5663-4.155-77.6138z" fill="url(#b)" opacity=".31"/><path d="m152.543 11.8956c-4.722-1.2635-9.775-1.5662-15.057-.7039-15.223 2.4847-24.938 16.5482-34.889 28.6197-7.4534 9.0414-16.2841 16.594-26.2072 21.5986-10.3249 5.2087-20.2022 5.9196-31.3304 6.2504-23.8952.7145-39.89338 24.7484-37.42669 51.8266 1.4201 15.602 8.78489 30.721 19.86739 39.892 8.5065 7.039 18.9336 9.732 29.1703 9.517 9.5249-.201 18.6235-3.738 27.9511-5.279 9.6447-1.594 19.3145-1.06 29.0045-2.003 16.576-1.612 29.879-11.86 35.401-30.397 2.78-9.333 2.639-19.782 11.057-24.945 9.592-5.885 22.472-13.3317 25.576-26.5717 6.854-29.2462-8.742-61.2974-33.12-67.8118z" fill="url(#c)" opacity=".31"/><path d="m158.663 138.191c1.558-3.756-.228-8.063-3.989-9.619-3.762-1.556-8.074.228-9.632 3.984-1.558 3.757.228 8.064 3.989 9.62 3.762 1.556 8.074-.228 9.632-3.985z" fill="#004c76" opacity=".15"/><path d="m12.2245 45.4855c4.9958-2.0179 7.8082-6.7096 6.2818-10.4793-1.5265-3.7696-6.8139-5.1896-11.8097-3.1717-4.99581 2.0179-7.80827 6.7097-6.281787 10.4793 1.526477 3.7696 6.813847 5.1896 11.809687 3.1717z" fill="#004c76" opacity=".15"/><path d="m92.691 17.3674c2.658-6.4091-.3893-13.75671-6.8064-16.411422-6.4172-2.654718-13.774.388772-16.4321 6.797822-2.6581 6.409.3893 13.7567 6.8064 16.4114s13.774-.3888 16.4321-6.7978z" fill="#004c76" opacity=".15"/><path d="m45.644 120.916c0 1.017.8246 1.84 1.843 1.84h79.751v-81.1642h-81.594z" fill="url(#d)" stroke="#67cbe4" stroke-miterlimit="10" stroke-width="2.63"/><path d="m125.607 38.0195h-78.3314c-.9021 0-1.6316.7285-1.6316 1.6295v1.9392h81.594v-1.9392c0-.901-.729-1.6295-1.631-1.6295z" fill="#67cbe4" stroke="#67cbe4" stroke-miterlimit="10" stroke-width="2.63"/><path d="m54.2246 129.485c0 1.018.8246 1.841 1.843 1.841h77.9084c1.018 0 1.843-.823 1.843-1.841v-79.3268h-81.5944v79.3238z" fill="#fff" stroke="#67cbe4" stroke-miterlimit="10" stroke-width="2.63"/><path d="m134.187 46.5898h-78.3309c-.9021 0-1.6315.7286-1.6315 1.6295v1.9392h81.5944v-1.9392c0-.9009-.729-1.6295-1.632-1.6295z" fill="#67cbe4" stroke="#67cbe4" stroke-miterlimit="10" stroke-width="2.63"/><path d="m142.508 54.9023h-68.6306v24.0868h68.6306z" fill="url(#e)" stroke="#67cbe4" stroke-miterlimit="10" stroke-width="2.63"/><path d="m95.0205 78.986h37.5785l-18.789-16.1364z" stroke="#67cbe4" stroke-miterlimit="10" stroke-width="2.63"/><path d="m85.453 58.9636c-1.2685.725-1.709 2.3404-.9831 3.6109.7259 1.267 2.3434 1.7069 3.6155.9819 1.2685-.725 1.709-2.3404.9831-3.6109-.7259-1.267-2.3433-1.7069-3.6155-.9819z" fill="#fbd119"/><path d="m110.804 78.9854h31.704v-7.1725l-12.122-11.6527z" stroke="#67cbe4" stroke-miterlimit="10" stroke-width="2.63"/><path d="m91.4508 84.8486h-16.6959c-.4846 0-.8775.3924-.8775.8764v18.667c0 .484.3929.876.8775.876h16.6959c.4846 0 .8774-.392.8774-.876v-18.667c0-.484-.3928-.8764-.8774-.8764z" fill="#67cbe4"/><path d="m85.5343 87.2773h-9.1902c-.1868 0-.3382.1513-.3382.3379v1.7527c0 .1866.1514.3378.3382.3378h9.1902c.1868 0 .3383-.1512.3383-.3378v-1.7527c0-.1866-.1515-.3379-.3383-.3379z" fill="#fff"/><path d="m85.048 92.6016h-8.5805c-.255 0-.4616.2064-.4616.461v.0493c0 .2546.2066.461.4616.461h8.5805c.255 0 .4616-.2064.4616-.461v-.0493c0-.2546-.2066-.461-.4616-.461z" fill="#fff"/><path d="m89.7416 92.6016h-2.2482c-.255 0-.4617.2064-.4617.461v.0493c0 .2546.2067.461.4617.461h2.2482c.2549 0 .4616-.2064.4616-.461v-.0493c0-.2546-.2067-.461-.4616-.461z" fill="#fff"/><path d="m80.7842 95.3428h-4.3167c-.255 0-.4616.2064-.4616.461v.0493c0 .2546.2066.461.4616.461h4.3167c.2549 0 .4616-.2064.4616-.461v-.0493c0-.2546-.2067-.461-.4616-.461z" fill="#fff"/><path d="m89.7382 95.3428h-7.0759c-.2549 0-.4616.2064-.4616.461v.0493c0 .2546.2067.461.4616.461h7.0759c.2549 0 .4616-.2064.4616-.461v-.0493c0-.2546-.2067-.461-.4616-.461z" fill="#fff"/><path d="m77.4753 98.0879h-1.0078c-.255 0-.4616.2064-.4616.461v.0493c0 .2546.2066.461.4616.461h1.0078c.2549 0 .4616-.2064.4616-.461v-.0493c0-.2546-.2067-.461-.4616-.461z" fill="#fff"/><path d="m89.7385 98.0879h-6.4522c-.2549 0-.4616.2064-.4616.461v.0493c0 .2546.2067.461.4616.461h6.4522c.2549 0 .4616-.2064.4616-.461v-.0493c0-.2546-.2067-.461-.4616-.461z" fill="#fff"/><path d="m81.556 98.0879h-2.2482c-.2549 0-.4616.2064-.4616.461v.0493c0 .2546.2067.461.4616.461h2.2482c.255 0 .4616-.2064.4616-.461v-.0493c0-.2546-.2066-.461-.4616-.461z" fill="#fff"/><path d="m89.7418 100.83h-13.2743c-.255 0-.4616.206-.4616.461v.049c0 .255.2066.461.4616.461h13.2743c.2549 0 .4616-.206.4616-.461v-.049c0-.255-.2067-.461-.4616-.461z" fill="#fff"/><path d="m116.541 84.8486h-16.6963c-.4846 0-.8774.3924-.8774.8764v18.667c0 .484.3928.876.8774.876h16.6963c.484 0 .877-.392.877-.876v-18.667c0-.484-.393-.8764-.877-.8764z" fill="#67cbe4"/><g fill="#fff"><path d="m110.624 87.2773h-9.19c-.187 0-.338.1513-.338.3379v1.7527c0 .1866.151.3378.338.3378h9.19c.187 0 .338-.1512.338-.3378v-1.7527c0-.1866-.151-.3379-.338-.3379z"/><path d="m102.988 92.6016h-1.431c-.255 0-.461.2064-.461.461v.0493c0 .2546.206.461.461.461h1.431c.255 0 .462-.2064.462-.461v-.0493c0-.2546-.207-.461-.462-.461z"/><path d="m114.831 92.6016h-9.968c-.255 0-.462.2064-.462.461v.0493c0 .2546.207.461.462.461h9.968c.255 0 .462-.2064.462-.461v-.0493c0-.2546-.207-.461-.462-.461z"/><path d="m110.166 95.3428h-8.609c-.255 0-.461.2064-.461.461v.0493c0 .2546.206.461.461.461h8.609c.255 0 .462-.2064.462-.461v-.0493c0-.2546-.207-.461-.462-.461z"/><path d="m114.831 95.3428h-2.787c-.255 0-.461.2064-.461.461v.0493c0 .2546.206.461.461.461h2.787c.255 0 .462-.2064.462-.461v-.0493c0-.2546-.207-.461-.462-.461z"/><path d="m102.565 98.0879h-1.008c-.255 0-.461.2064-.461.461v.0493c0 .2546.206.461.461.461h1.008c.255 0 .462-.2064.462-.461v-.0493c0-.2546-.207-.461-.462-.461z"/><path d="m114.828 98.0879h-.733c-.255 0-.462.2064-.462.461v.0493c0 .2546.207.461.462.461h.733c.255 0 .462-.2064.462-.461v-.0493c0-.2546-.207-.461-.462-.461z"/><path d="m112.365 98.0879h-7.967c-.255 0-.462.2064-.462.461v.0493c0 .2546.207.461.462.461h7.967c.255 0 .462-.2064.462-.461v-.0493c0-.2546-.207-.461-.462-.461z"/><path d="m106.251 100.83h-4.694c-.255 0-.461.206-.461.461v.049c0 .255.206.461.461.461h4.694c.255 0 .462-.206.462-.461v-.049c0-.255-.207-.461-.462-.461z"/><path d="m114.832 100.83h-6.125c-.255 0-.461.206-.461.461v.049c0 .255.206.461.461.461h6.125c.255 0 .461-.206.461-.461v-.049c0-.255-.206-.461-.461-.461z"/></g><path d="m141.63 84.8486h-16.696c-.485 0-.877.3924-.877.8764v18.667c0 .484.392.876.877.876h16.696c.485 0 .877-.392.877-.876v-18.667c0-.484-.392-.8764-.877-.8764z" fill="#67cbe4"/><path d="m135.714 87.2773h-9.191c-.186 0-.338.1513-.338.3379v1.7527c0 .1866.152.3378.338.3378h9.191c.186 0 .338-.1512.338-.3378v-1.7527c0-.1866-.152-.3379-.338-.3379z" fill="#fff"/><path d="m128.077 92.6016h-1.43c-.255 0-.462.2064-.462.461v.0493c0 .2546.207.461.462.461h1.43c.255 0 .462-.2064.462-.461v-.0493c0-.2546-.207-.461-.462-.461z" fill="#fff"/><path d="m139.921 92.6016h-9.969c-.255 0-.462.2064-.462.461v.0493c0 .2546.207.461.462.461h9.969c.255 0 .461-.2064.461-.461v-.0493c0-.2546-.206-.461-.461-.461z" fill="#fff"/><path d="m135.255 95.3428h-8.608c-.255 0-.462.2064-.462.461v.0493c0 .2546.207.461.462.461h8.608c.255 0 .462-.2064.462-.461v-.0493c0-.2546-.207-.461-.462-.461z" fill="#fff"/><path d="m139.921 95.3428h-2.788c-.254 0-.461.2064-.461.461v.0493c0 .2546.207.461.461.461h2.788c.255 0 .461-.2064.461-.461v-.0493c0-.2546-.206-.461-.461-.461z" fill="#fff"/><path d="m127.655 98.0879h-1.008c-.255 0-.462.2064-.462.461v.0493c0 .2546.207.461.462.461h1.008c.254 0 .461-.2064.461-.461v-.0493c0-.2546-.207-.461-.461-.461z" fill="#fff"/><path d="m139.917 98.0879h-.733c-.255 0-.461.2064-.461.461v.0493c0 .2546.206.461.461.461h.733c.255 0 .462-.2064.462-.461v-.0493c0-.2546-.207-.461-.462-.461z" fill="#fff"/><path d="m137.454 98.0879h-7.967c-.255 0-.462.2064-.462.461v.0493c0 .2546.207.461.462.461h7.967c.255 0 .462-.2064.462-.461v-.0493c0-.2546-.207-.461-.462-.461z" fill="#fff"/><path d="m131.34 100.83h-4.693c-.255 0-.462.206-.462.461v.049c0 .255.207.461.462.461h4.693c.255 0 .462-.206.462-.461v-.049c0-.255-.207-.461-.462-.461z" fill="#fff"/><path d="m139.921 100.83h-6.124c-.255 0-.462.206-.462.461v.049c0 .255.207.461.462.461h6.124c.255 0 .462-.206.462-.461v-.049c0-.255-.207-.461-.462-.461z" fill="#fff"/><path d="m70.6706 90.0225c-.2502-.1654-.5849-.0985-.7505.1478l-3.0693 4.5893c-.1233.183-.1233.4188 0 .6019l3.0693 4.5892c.1057.1553.2748.2393.451.2393.1022 0 .2079-.028.2995-.091.2502-.1658.3172-.5037.148-.7501l-2.8684-4.2866 2.8684-4.2866c.1657-.2499.0987-.5842-.148-.7497z" fill="#4687c7"/><path d="m146.465 90.1699c-.166-.2499-.504-.3168-.751-.1478-.25.1654-.317.5032-.148.7496l2.869 4.2866-2.869 4.2867c-.165.2498-.099.5842.148.75.092.063.197.091.3.091.176 0 .345-.084.451-.2392l3.069-4.5893c.123-.183.123-.4188 0-.6018l-3.069-4.5893z" fill="#4687c7"/><path d="m73.5742 113.424v-1.616c0-1.122.9162-2.037 2.0403-2.037h65.1595c1.124 0 2.04.915 2.04 2.037v1.616z" fill="#67cbe4"/><path d="m140.774 110.073c.958 0 1.733.774 1.733 1.731v1.313h-68.6299v-1.313c0-.957.7752-1.731 1.7337-1.731h65.1592m0-.609h-65.1557c-1.2932 0-2.3433 1.049-2.3433 2.34v1.922h69.846v-1.922c0-1.291-1.05-2.34-2.343-2.34z" fill="#67cbe4"/><path d="m75.5225 126.561c-1.0747 0-1.9522-.873-1.9522-1.95v-11.797h69.2397v11.797c0 1.074-.874 1.95-1.952 1.95z" fill="#fff"/><path d="m142.507 113.121v11.494c0 .908-.736 1.643-1.645 1.643h-65.3357c-.9092 0-1.6457-.735-1.6457-1.643v-11.494h68.6304m.609-.609h-69.849v12.099c0 1.243 1.0113 2.253 2.2553 2.253h65.3357c1.244 0 2.255-1.01 2.255-2.253v-12.099z" fill="#67cbe4"/><path d="m178.017 37.0165-3.185-1.8266c4.866-8.6683 1.846-19.6558-6.805-24.6217-8.651-4.96236-19.673-2.03422-24.723 6.532l-3.186-1.8266c-.384-.2182-.87-.088-1.092.2957l-3.147 5.4726c-.218.3836-.088.8693.296 1.091l3.017 1.7316 2.459-4.2655c.18-.3097.568-.4576.895-.3097.374.1689.515.6194.314.9678l-2.474 4.2901 2.555 1.4676.817-1.4148c.18-.3097.568-.4575.896-.3097.373.169.514.6194.313.9679l-.831 1.4394 2.551 1.4641 2.452-4.2515c.18-.3097.568-.4575.892-.3097.373.169.514.6194.314.9679l-2.467 4.276 2.555 1.4676.81-1.4042c.18-.3097.567-.4575.895-.3097.374.1689.515.6194.314.9678l-.825 1.4289 2.551 1.464 2.446-4.2408c.18-.3097.567-.4575.895-.3097.374.1689.515.6194.314.9678l-2.46 4.2655 2.555 1.4676.803-1.3937c.18-.3097.568-.4575.892-.3097.373.1689.514.6194.313.9678l-.817 1.4184 2.551 1.464 2.442-4.2303c.18-.3097.567-.4575.895-.3097.374.1689.515.6194.314.9678l-2.453 4.2515 2.555 1.4676.793-1.3761c.18-.3097.567-.4575.891-.3097.374.1689.515.6194.314.9678l-.807 1.4007 2.551 1.4641 2.449-4.2444c.201-.3484.659-.454.994-.2147.293.2077.36.6159.18.9256l-2.432 4.2163 3.729 2.1398c.384.2182.87.0879 1.092-.2957l3.147-5.4726c.218-.3837.088-.8693-.296-1.0911zm-8.718-5.0011-20.466-11.7407c3.291-5.5149 10.42-7.3907 16.016-4.1811 5.595 3.2097 7.562 10.3048 4.45 15.9218z" fill="#4585c5"/><path d="m172.541 36.5552c-.328-.1901-.75-.0774-.937.2534l-2.449 4.2444 1.191.6827 2.449-4.2408c.19-.3273.077-.7497-.254-.9362z" fill="#fff"/><path d="m167.157 37.2486c-.328-.1901-.751-.0775-.937.2533l-.807 1.4008 1.191.6827.807-1.4007c.19-.3273.077-.7496-.254-.9361z" fill="#fff"/><path d="m165.06 32.2476c-.328-.1901-.751-.0775-.937.2534l-2.456 4.2549 1.191.6828 2.452-4.2514c.19-.3273.078-.7497-.254-.9362z" fill="#fff"/><path d="m159.679 32.9341c-.328-.19-.75-.0774-.937.2534l-.818 1.4183 1.191.6828.818-1.4183c.19-.3273.077-.7497-.254-.9362z" fill="#fff"/><path d="m157.575 27.9361c-.327-.1901-.75-.0775-.937.2533l-2.463 4.2656 1.191.6827 2.46-4.2655c.19-.3273.077-.7496-.254-.9361z" fill="#fff"/><path d="m152.195 28.6265c-.328-.1901-.751-.0774-.938.2534l-.824 1.4289 1.191.6827.824-1.4289c.191-.3273.078-.7496-.253-.9361z" fill="#fff"/><path d="m150.091 23.6284c-.328-.19-.751-.0774-.938.2534l-2.47 4.2796 1.191.6828 2.467-4.2761c.19-.3273.077-.7496-.254-.9361z" fill="#fff"/><path d="m144.71 24.315c-.328-.1901-.751-.0775-.937.2534l-.832 1.4429 1.191.6828.832-1.4395c.19-.3273.077-.7496-.254-.9361z" fill="#fff"/><path d="m142.606 19.3179c-.328-.1901-.751-.0774-.937.2534l-2.478 4.2901 1.191.6828 2.474-4.2902c.19-.3273.078-.7496-.254-.9361z" fill="#fff"/><path d="m20.3459 51.5642-.0942 67.3718c-.0004.301.2438.546.5455.546l10.9732.016c.3016 0 .5465-.244.5469-.545l.0942-67.372c.0005-.3013-.2438-.5458-.5454-.5463l-10.9732-.0153c-.3017-.0004-.5466.2435-.547.5448z" fill="#67cbe4"/><path d="m20.3459 51.5642-.0942 67.3718c-.0004.301.2438.546.5455.546l10.9732.016c.3016 0 .5465-.244.5469-.545l.0942-67.372c.0005-.3013-.2438-.5458-.5454-.5463l-10.9732-.0153c-.3017-.0004-.5466.2435-.547.5448z" fill="#4585c5" stroke="#4585c5" stroke-linejoin="round" stroke-width="1.73"/><g fill="#fff"><path d="m25.6078 53.3115c-.4722 0-.8563.3836-.8563.8552s.3841.8553.8563.8553h6.8045v-1.707h-6.8045z"/><path d="m28.8109 57.4609c-.4722 0-.8563.3836-.8563.8552s.3841.8553.8563.8553h3.5943v-1.7105z"/><path d="m28.804 61.6064c-.4721 0-.8562.3837-.8562.8553s.3841.8552.8562.8552h3.5944v-1.7105z"/><path d="m25.5868 65.749c-.4722 0-.8563.3836-.8563.8552s.3841.8552.8563.8552h6.8045v-1.7069h-6.8045z"/><path d="m28.7899 69.8984c-.4722 0-.8563.3836-.8563.8552s.3841.8553.8563.8553h3.5943v-1.7105z"/><path d="m28.786 74.0439c-.4722 0-.8563.3837-.8563.8553s.3841.8552.8563.8552h3.5943v-1.7105z"/><path d="m25.5687 78.1836c-.4722 0-.8563.3836-.8563.8552s.3841.8552.8563.8552h6.8045v-1.7069h-6.8045z"/><path d="m28.7723 82.332c-.4722 0-.8563.3836-.8563.8552s.3841.8553.8563.8553h3.5943v-1.7105z"/><path d="m28.765 86.4785c-.4722 0-.8563.3836-.8563.8552s.3841.8552.8563.8552h3.5943v-1.7104z"/><path d="m25.5511 90.6211c-.4722 0-.8563.3836-.8563.8552s.3841.8552.8563.8552h6.8045v-1.7069h-6.8045z"/><path d="m28.7508 94.7705c-.4722 0-.8563.3836-.8563.8552s.3841.8552.8563.8552h3.5943v-1.7104z"/><path d="m28.7474 98.916c-.4722 0-.8563.3836-.8563.8552 0 .4718.3841.8548.8563.8548h3.5943v-1.71z"/><path d="m25.5301 103.059c-.4722 0-.8563.383-.8563.855 0 .471.3841.855.8563.855h6.8045v-1.707h-6.8045z"/><path d="m28.7332 107.208c-.4721 0-.8562.384-.8562.855 0 .472.3841.855.8562.855h3.5944v-1.71z"/><path d="m28.7264 111.354c-.4722 0-.8563.383-.8563.855 0 .471.3841.855.8563.855h3.5943v-1.71z"/><path d="m25.5125 115.492c-.4722 0-.8563.384-.8563.855 0 .472.3841.856.8563.856h6.8046v-1.707h-6.8046z"/></g><path d="m167.001 121.612c.367 2.362 2.425 4.801 7.112 4.048 5.211-1.408 6.187-5.209 5.317-7.638l-12.425 3.594z" fill="#005285"/><path d="m178.849 116.932-13.109-42.7504-11.308 3.266 12.446 42.9434z" fill="#f9aa1c"/><path d="m165.43 74.3434-8.214-9.6784-2.876 12.8846z" fill="#fad4c8"/><path d="m160.338 68.3463-3.122-3.6813-1.096 4.899z" fill="#005285"/><path d="m163.455 75.0027-.454.1311 12.403 42.8032.453-.131z" fill="#fff"/><path d="m157.912 76.6062-.454.1311 12.402 42.8027.454-.131z" fill="#fff"/><path d="m179.205 116.361-12.948 3.743.493 1.7 12.947-3.742z" fill="#f9aa1c"/><path d="m82.7256 133.04c13.5632 18.924 33.2224 19.913 42.8744 15.637 6.738-2.985 9.081-11.829 5.508-18.27-7.132-12.86-27.44-12.765-38.2408-2.773-3.8657 3.579-6.9878 8.513-6.6107 13.764.1973 2.781 1.3602 5.41 2.8014 7.796 9.8491 16.312 37.1691 26.68 55.2431 20.599 18.074-6.082 32.201-23.626 30.164-41.427" stroke="#004c76" stroke-miterlimit="10" stroke-width="2.54"/></g></svg>