<svg fill="none" height="183" viewBox="0 0 183 183" width="183" xmlns="http://www.w3.org/2000/svg" xmlns:xlink="http://www.w3.org/1999/xlink"><linearGradient id="a"><stop offset="0" stop-color="#fff"/><stop offset="1" stop-color="#51c7ea"/></linearGradient><linearGradient id="b" gradientUnits="userSpaceOnUse" x1="91.1743" x2="91.1743" xlink:href="#a" y1="153.665" y2="-29.3352"/><linearGradient id="c" gradientUnits="userSpaceOnUse" x1="84.2525" x2="84.2525" xlink:href="#a" y1="139.236" y2="-18.7869"/><linearGradient id="d"><stop offset="0" stop-color="#d5eef5"/><stop offset="1" stop-color="#fff"/></linearGradient><linearGradient id="e" gradientUnits="userSpaceOnUse" x1="34.5297" x2="34.5297" xlink:href="#d" y1="158.431" y2="164.779"/><linearGradient id="f" gradientUnits="userSpaceOnUse" x1="116.173" x2="116.173" xlink:href="#d" y1="154.865" y2="161.765"/><linearGradient id="g" gradientUnits="userSpaceOnUse" x1="161.885" x2="161.885" xlink:href="#d" y1="144.619" y2="152.072"/><clipPath id="h"><path d="m0 0h183v183h-183z"/></clipPath><g clip-path="url(#h)"><path d="m91.5 183c50.534 0 91.5-40.966 91.5-91.5 0-50.5341-40.966-91.5-91.5-91.5-50.5341 0-91.5 40.9659-91.5 91.5 0 50.534 40.9659 91.5 91.5 91.5z" fill="url(#b)" opacity=".3"/><path d="m91.5027 170.516c43.6373 0 79.0133-35.375 79.0133-79.0128 0-43.6377-35.376-79.013-79.0133-79.013-43.6376 0-79.013 35.3753-79.013 79.013 0 43.6378 35.3754 79.0128 79.013 79.0128z" fill="url(#c)" opacity=".3"/><path d="m34.3641 164.782c9.2227 0 16.6991-1.421 16.6991-3.174s-7.4764-3.174-16.6991-3.174c-9.2226 0-16.6991 1.421-16.6991 3.174s7.4765 3.174 16.6991 3.174z" fill="url(#e)" opacity=".6"/><path d="m116.204 161.746c4.878 0 8.832-1.545 8.832-3.45 0-1.906-3.954-3.45-8.832-3.45s-8.833 1.544-8.833 3.45c0 1.905 3.955 3.45 8.833 3.45z" fill="url(#f)" opacity=".6"/><path d="m162.023 152.085c10.366 0 18.769-1.668 18.769-3.726s-8.403-3.726-18.769-3.726-18.77 1.668-18.77 3.726 8.404 3.726 18.77 3.726z" fill="url(#g)" opacity=".6"/><path d="m139.138 39.8047h-96.4186c-1.2195 0-2.2082.9886-2.2082 2.2081v103.0402c0 1.22.9887 2.208 2.2082 2.208h96.4186c1.22 0 2.208-.988 2.208-2.208v-103.0402c0-1.2195-.988-2.2081-2.208-2.2081z" fill="#edf7f9"/><path d="m79.2392 52.748h-31.7034c-1.2195 0-2.2082.9887-2.2082 2.2082v30.1991c0 1.2196.9887 2.2082 2.2082 2.2082h31.7034c1.2195 0 2.2082-.9886 2.2082-2.2082v-30.1991c0-1.2195-.9887-2.2082-2.2082-2.2082z" fill="#d5eef5"/><path d="m134.322 52.748h-45.8497c-1.2195 0-2.2081.9887-2.2081 2.2082v85.2808c0 1.22.9886 2.209 2.2081 2.209h45.8497c1.219 0 2.208-.989 2.208-2.209v-85.2808c0-1.2195-.989-2.2082-2.208-2.2082z" fill="#d5eef5"/><path d="m47.7345 92.1797h31.3032c1.3304 0 2.4069 1.0792 2.4069 2.4069v29.7984c0 1.331-1.0792 2.407-2.4069 2.407h-31.3032c-1.3304 0-2.4069-1.079-2.4069-2.407v-29.7984c0-1.3304 1.0793-2.4069 2.4069-2.4069z" fill="#d5eef5"/><g fill="#9bd9ea"><path d="m50.7459 142.444c2.9924 0 5.4182-2.426 5.4182-5.418 0-2.993-2.4258-5.419-5.4182-5.419s-5.4183 2.426-5.4183 5.419c0 2.992 2.4259 5.418 5.4183 5.418z"/><path d="m58.8718 131.607h21.3721c.4996 0 .9026.403.9026.903s-.403.903-.9026.903h-21.3721c-.4996 0-.9026-.403-.9026-.903s.403-.903.9026-.903z"/><path d="m58.8718 137.627h21.3721c.4996 0 .9026.406.9026.903 0 .499-.403.902-.9026.902h-21.3721c-.4996 0-.9026-.403-.9026-.902 0-.5.403-.903.9026-.903z"/><path d="m58.8718 134.619h14.4468c.4996 0 .9026.403.9026.903 0 .499-.403.902-.9026.902h-14.4468c-.4996 0-.9026-.403-.9026-.902 0-.5.403-.903.9026-.903z"/><path d="m58.8718 140.639h14.4468c.4996 0 .9026.403.9026.902 0 .5-.403.903-.9026.903h-14.4468c-.4996 0-.9026-.403-.9026-.903 0-.499.403-.902.9026-.902z"/><path d="m104.023 57.5645h27.994c.5 0 .903.4029.903.9025s-.403.9026-.903.9026h-27.994c-.499 0-.902-.4057-.902-.9026 0-.4996.403-.9025.902-.9025z"/><path d="m104.023 63.584h27.994c.5 0 .903.403.903.9026s-.403.9025-.903.9025h-27.994c-.499 0-.902-.4057-.902-.9025 0-.4996.403-.9026.902-.9026z"/><path d="m104.023 60.5723h27.994c.5 0 .903.403.903.9025 0 .4996-.403.9026-.903.9026h-27.994c-.499 0-.902-.403-.902-.9026 0-.4995.403-.9025.902-.9025z"/><path d="m104.023 66.5938h27.994c.5 0 .903.4029.903.9025s-.403.9026-.903.9026h-27.994c-.499 0-.902-.4057-.902-.9026 0-.4996.403-.9025.902-.9025z"/><path d="m99.8829 57.5645h-9.1803c-.4574 0-.8281.3707-.8281.828v9.1804c0 .4573.3707.828.8281.828h9.1803c.4571 0 .8281-.3707.8281-.828v-9.1804c0-.4573-.371-.828-.8281-.828z"/><path d="m104.023 90.9746h27.994c.5 0 .903.403.903.9026s-.403.9026-.903.9026h-27.994c-.499 0-.902-.4058-.902-.9026 0-.4996.403-.9026.902-.9026z"/><path d="m104.023 96.9941h27.994c.5 0 .903.403.903.9026s-.403.9026-.903.9026h-27.994c-.499 0-.902-.4057-.902-.9026 0-.4996.403-.9026.902-.9026z"/><path d="m104.023 93.9863h27.994c.5 0 .903.403.903.9026s-.403.9026-.903.9026h-27.994c-.499 0-.902-.4058-.902-.9026 0-.4996.403-.9026.902-.9026z"/><path d="m104.023 100.006h27.994c.5 0 .903.403.903.902 0 .5-.403.903-.903.903h-27.994c-.499 0-.902-.406-.902-.903 0-.499.403-.902.902-.902z"/><path d="m99.8829 90.9746h-9.1803c-.4574 0-.8281.3707-.8281.8281v9.1803c0 .457.3707.828.8281.828h9.1803c.4571 0 .8281-.371.8281-.828v-9.1803c0-.4574-.371-.8281-.8281-.8281z"/><path d="m104.023 108.131h27.994c.5 0 .903.403.903.902 0 .5-.403.903-.903.903h-27.994c-.499 0-.902-.403-.902-.903 0-.499.403-.902.902-.902z"/><path d="m104.023 114.15h27.994c.5 0 .903.403.903.903s-.403.903-.903.903h-27.994c-.499 0-.902-.403-.902-.903s.403-.903.902-.903z"/><path d="m104.023 111.143h27.994c.5 0 .903.403.903.902 0 .5-.403.903-.903.903h-27.994c-.499 0-.902-.403-.902-.903 0-.499.403-.902.902-.902z"/><path d="m104.023 117.162h27.994c.5 0 .903.403.903.903 0 .499-.403.902-.903.902h-27.994c-.499 0-.902-.403-.902-.902 0-.5.403-.903.902-.903z"/><path d="m99.8829 108.131h-9.1803c-.4574 0-.8281.371-.8281.828v9.18c0 .458.3707.828.8281.828h9.1803c.4571 0 .8281-.37.8281-.828v-9.18c0-.457-.371-.828-.8281-.828z"/><path d="m104.023 124.988h27.994c.5 0 .903.403.903.903 0 .499-.403.902-.903.902h-27.994c-.499 0-.902-.403-.902-.902 0-.5.403-.903.902-.903z"/><path d="m104.023 131.008h27.994c.5 0 .903.403.903.902 0 .5-.403.903-.903.903h-27.994c-.499 0-.902-.403-.902-.903 0-.499.403-.902.902-.902z"/><path d="m104.023 128h27.994c.5 0 .903.403.903.903 0 .499-.403.902-.903.902h-27.994c-.499 0-.902-.406-.902-.902 0-.5.403-.903.902-.903z"/><path d="m104.023 134.02h27.994c.5 0 .903.403.903.902 0 .5-.403.903-.903.903h-27.994c-.499 0-.902-.403-.902-.903 0-.499.403-.902.902-.902z"/><path d="m99.8829 124.988h-9.1803c-.4574 0-.8281.371-.8281.828v9.181c0 .457.3707.828.8281.828h9.1803c.4571 0 .8281-.371.8281-.828v-9.181c0-.457-.371-.828-.8281-.828z"/></g><path d="m42.9181 39.8047h96.0189c1.33 0 2.406 1.0792 2.406 2.4069v5.7191h-100.8318v-5.7191c0-1.3304 1.0793-2.4069 2.4069-2.4069z" fill="#5d93b4"/><path d="m44.4251 45.2194c.6647 0 1.2035-.5388 1.2035-1.2035 0-.6646-.5388-1.2034-1.2035-1.2034-.6646 0-1.2034.5388-1.2034 1.2034 0 .6647.5388 1.2035 1.2034 1.2035z" fill="#edf7f9"/><path d="m48.0355 45.2194c.6646 0 1.2034-.5388 1.2034-1.2035 0-.6646-.5388-1.2034-1.2034-1.2034-.6647 0-1.2035.5388-1.2035 1.2034 0 .6647.5388 1.2035 1.2035 1.2035z" fill="#edf7f9"/><path d="m51.6488 45.2194c.6646 0 1.2034-.5388 1.2034-1.2035 0-.6646-.5388-1.2034-1.2034-1.2034-.6647 0-1.2035.5388-1.2035 1.2034 0 .6647.5388 1.2035 1.2035 1.2035z" fill="#edf7f9"/><path d="m63.3213 117.084v.03c.0551.133.0193.047 0-.013" fill="#c5cfd5"/><path d="m67.9752 104.443 10.4142 17.009h-20.8284z" fill="#9bd9ea"/><path d="m57.2353 108.998 9.208 12.454h-18.416z" fill="#92d2e1"/><path d="m53.305 104.52c1.9116 0 3.4613-1.549 3.4613-3.461 0-1.9117-1.5497-3.4613-3.4613-3.4613s-3.4612 1.5496-3.4612 3.4613c0 1.912 1.5496 3.461 3.4612 3.461z" fill="#9bd9ea"/><path d="m45.3276 67.1934h12.0399v20.1658h-9.633c-1.3304 0-2.4069-1.0792-2.4069-2.4068z" fill="#9bd9ea"/><path d="m24.4966 161.214v-8.518h-.6018c-.4085 0-.7425-.331-.7425-.739v-1.005c0-.411.334-.743.7425-.743h.6018v-8.517h-.6018c-.4112 0-.7425-.334-.7425-.743v-1.01c0-.411.334-.743.7425-.743h.6018v-8.518h-.6018c-.4085 0-.7425-.331-.7425-.739v-1.011c0-.408.334-.739.7425-.739h.6018v-8.532h-.6018c-.4085 0-.7425-.331-.7425-.74v-1.01c0-.408.334-.74.7425-.74h.6018v-8.518h-.6018c-.4112 0-.7425-.334-.7425-.742v-1.008c0-.411.334-.742.7425-.742h.6018v-6.02c0-.4112.3339-.7425.7424-.7425h1.0075c.4085 0 .7397.3313.7397.7395v.003 6.02h15.17v-6.02c0-.4085.3285-.7425.737-.7425h.0027 1.0102c.4086 0 .7398.3313.7398.7395v6.023h.4002c.4113 0 .7425.334.7425.742v1.024c0 .412-.334.743-.7425.743h-.4002v8.518h.4002c.4085 0 .7425.331.7425.74v1.01c0 .408-.334.74-.7425.74h-.4002v8.52h.4002c.4085 0 .7425.331.7425.74v1.01c0 .409-.334.74-.7425.74h-.4002v8.518h.4002c.4113 0 .7425.334.7425.742v1.008c0 .411-.334.742-.7425.742h-.4002v8.518h.4002c.4085 0 .7425.331.7425.74v1.01c0 .409-.334.74-.7425.74h-.4002v8.521h.4002m-2.8927 0v-8.524h-15.1699v8.521l15.1699.005zm0-11.011v-8.518h-15.1699v8.518zm0-11.013v-8.518h-15.1699v8.518zm0-11.013v-8.537h-15.1699v8.52zm0-11.01v-8.521h-15.1699v8.518h15.1699z" fill="#f2b13b"/><path d="m167.088 70.8066h-45.85c-1.219 0-2.208.9887-2.208 2.2082v13.6436c0 1.2195.989 2.2081 2.208 2.2081h45.85c1.219 0 2.208-.9886 2.208-2.2081v-13.6436c0-1.2195-.989-2.2082-2.208-2.2082z" fill="#d5eef5"/><g fill="#9bd9ea"><path d="m136.789 74.4199h27.994c.5 0 .903.403.903.9026s-.403.9026-.903.9026h-27.994c-.499 0-.902-.403-.902-.9026s.405-.9026.902-.9026z"/><path d="m136.789 80.4395h27.994c.5 0 .903.4029.903.9025s-.403.9026-.903.9026h-27.994c-.499 0-.902-.403-.902-.9026s.403-.9025.902-.9025z"/><path d="m136.789 77.4277h27.994c.5 0 .903.403.903.9026s-.403.9026-.903.9026h-27.994c-.499 0-.902-.403-.902-.9026s.405-.9026.902-.9026z"/><path d="m136.789 83.4492h27.994c.5 0 .903.403.903.9026s-.403.9026-.903.9026h-27.994c-.499 0-.902-.403-.902-.9026s.405-.9026.902-.9026z"/><path d="m132.652 74.4199h-9.18c-.458 0-.828.3708-.828.8281v9.1803c0 .4574.37.8281.828.8281h9.18c.457 0 .828-.3707.828-.8281v-9.1803c0-.4573-.371-.8281-.828-.8281z"/></g><path d="m57.6986 80.4121h-.3616v.5024h.3616c.0993 0 .1821.08.1877.1794l.022 1.4712c0 .0993-.08.1821-.1794.1877l-4.2507.0579c-.3781.0055-.679.3147-.6734.6928v.0028 1.0544h.5023v-1.0544c0-.1021.0801-.1849.1794-.1877l4.2479-.0607c.3754-.0028.6791-.3119.6735-.6873 0 0 0-.0028 0-.0055l-.011-1.4767c-.0083-.3782-.3174-.679-.6956-.6763z" fill="#3575d3"/><path d="m49.2195 79.9375h-.3285c-.1794.0028-.3229.1518-.3202.3312v1.0848c.0028.1794.1491.3202.3285.3202h.3285l-.0249-1.7307h.0138z" fill="#3575d3"/><path d="m57.1219 79.827h-.3201l.0276 1.7334h.3174c.1794-.0028.3229-.1518.3229-.3312v-1.0848c-.0027-.1794-.1518-.3229-.3312-.3201-.0055 0-.011 0-.0166 0z" fill="#3575d3"/><path d="m56.9785 81.5606c0 .1794-.1435.3257-.3229.3284l-7.2427.1022c-.1767.0027-.3257-.138-.3285-.3147 0 0 0 0 0-.0028l-.0248-1.7333c0-.1795.1407-.3257.3201-.3285l7.2428-.1021c.1794 0 .3257.1435.3284.3229l.0276 1.7306z" fill="#b7e7f2"/><path d="m49.5119 81.6673-.0248-1.7334c0-.1794.1435-.3257.3229-.3284h-.4278c-.1794.0027-.3202.149-.3202.3284l.0249 1.7334c0 .1767.1462.3202.3257.3202h.0027.4278c-.1794.0028-.3284-.1408-.3312-.3202z" fill="#000" opacity=".1"/><path d="m56.1215 79.5299-6.2485.0873.0333 2.3846 6.2485-.0873z" fill="#e8f8fb"/><path d="m53.4701 85.0028v-.5299c0-.0607-.0497-.1077-.1104-.1077h-.5631c-.0607 0-.1076.0497-.1076.1104v.53h.7811z" fill="#4351b5"/><path d="m53.1113 84.3672h-.323c-.0607 0-.1076.0497-.1076.1104v.53h.3229v-.53c0-.0607.0469-.1104.1077-.1104z" fill="#000" opacity=".1"/><path d="m53.6081 85.6343v-.6017c0-.0579-.0469-.1049-.1048-.1049 0 0-.0028 0-.0056 0h-.8197c-.0608 0-.1077.0497-.1077.1077v.6017l1.0378-.0055z" fill="#ff994d"/><path d="m52.9759 84.911h-.3009c-.0607 0-.1076.0496-.1076.1076v.6017h.3257v-.6017c0-.0524.0331-.0994.0828-.1104z" fill="#000" opacity=".1"/><path d="m53.7736 88.1495c0 .0608-.0469.1104-.1077.1104h-1.0792c-.0607 0-.1104-.0469-.1104-.1076l-.0359-2.6443c0-.0579.0442-.1076.1022-.1076h.0055 1.0847c.0607 0 .1077.0469.1104.1049l.0359 2.6442h-.0027z" fill="#ff8828"/><path d="m52.8079 88.1632-.0387-2.6387c0-.0608.0469-.1104.1077-.1104h-.3313c-.0579 0-.1076.0441-.1076.1021v.0055l.0359 2.6443c0 .0607.0497.1076.1104.1076h.3312c-.0607 0-.1076-.0497-.1076-.1104z" fill="#000" opacity=".1"/><path d="m53.7464 86.0848h-.3423c-.08 0-.1463.0662-.1463.1463v.0055c0 .0828.069.1463.1491.1463h.3422v-.3009z" fill="#ff675f"/><path d="m53.7518 86.6309h-.3395c-.0828 0-.1518.069-.149.1545 0 .0828.069.1491.1545.1463h.3423z" fill="#ff675f"/><path d="m53.763 87.1719h-.3423c-.08 0-.1463.0662-.1463.1463v.0027c0 .0828.0663.1518.1491.1518h.3422v-.3008z" fill="#ff675f"/><path d="m36.5584 133.72c.0745-.042-.1932.786-.2236.883-.1546.524-.3008 1.049-.4858 1.568-.5575 1.67-2.1446 3.96.6017 4.093.53.025.6018-.903.6929-1.256.218-.853 1.2503-3.665 1.0074-4.436-.1877-.601-1.2807-.356-1.5402-.855" fill="#fff"/><path d="m36.5584 133.72c.0745-.042-.1932.786-.2236.883-.1546.524-.3008 1.049-.4858 1.568-.5575 1.67-2.1446 3.96.6017 4.093.53.025.6018-.903.6929-1.256.218-.853 1.2503-3.665 1.0074-4.436-.1877-.601-1.2807-.356-1.5402-.855" stroke="#35434c" stroke-miterlimit="10" stroke-width="1.47"/><path d="m28.2339 143.189c.0552-.069.1325.798.1463.903.0662.541.1269 1.087.1739 1.631.1518 1.756-.403 4.488 2.1805 3.519.4968-.187.1987-1.065.1408-1.427-.138-.866-.3009-3.861-.8308-4.471-.4113-.486-1.3166.177-1.7555-.174" fill="#fff"/><path d="m28.2339 143.189c.0552-.069.1325.798.1463.903.0662.541.1269 1.087.1739 1.631.1518 1.756-.403 4.488 2.1805 3.519.4968-.187.1987-1.065.1408-1.427-.138-.866-.3009-3.861-.8308-4.471-.4113-.486-1.3166.177-1.7555-.174" stroke="#35434c" stroke-miterlimit="10" stroke-width="1.47"/><path d="m38.9405 128.806c.0552-.085.1518-.138.254-.132l.1435-.185.8391-1.173c.0359-.083.0745-.171.1131-.257.0277-.074.0911-.13.1684-.143l.0552-.075c.0773-.193.1601-.386.254-.574.0414-.094.1352-.149.2373-.144l.4361-1.156c.0552-.177.1105-.359.1684-.536.0221-.069.069-.127.1297-.165.0194-.34.0221-.685.0221-1.027-.0027-.083.0331-.163.0966-.218-.011-.033-.0165-.066-.0193-.099v-.025c-.7673-2.661-1.5015-5.33-2.2081-8.01-.4003-1.527-.8557-3.061-1.1704-4.604-.0745-.367.0001-1.306-.356-1.552-.5079-.342-1.5319.194-2.0287.34-1.601.466-3.5358 1.137-5.2085 1.283l-.1463-.193.0911.207c.1408.334.276.668.4195.999.3009.732.6018 1.466.9026 2.198.9385 2.252 1.9239 4.488 2.8044 6.759 1.1841 3.039 2.4344 6.02 3.7262 9.007.0745-.182.1684-.359.276-.528z" fill="#4379a5"/><path d="m40.8257 123.259c.0579.729.1463 1.452.2677 2.173.0662.24.3147.38.5576.314.229-.077.3615-.32.3008-.555-.0276-.168-.0552-.334-.0773-.502l-.0193-.141c0-.022-.0221-.14 0-.038-.0055-.083-.0166-.163-.0331-.243-.0387-.334-.0718-.671-.0994-1.008-.0055-.248-.2042-.447-.4526-.452-.2485 0-.45.201-.4527.452h.0055z" fill="#4379a5"/><path d="m41.3692 123.087.3892 2.107c0-.776-.1352-1.543-.3947-2.272 1.3774 4.852-1.6312 9.368-3.4999 13.66l-2.5117.121c1.1841-3.312 3.0886-7.093 2.3268-10.684l3.6903-2.929z" fill="#4379a5"/><path d="m40.9362 123.209.3864 2.092c.0939.508.9026.384.9026-.116-.0083-.814-.1463-1.62-.4085-2.39-.1877-.544-1.0268-.329-.8695.237 1.3056 4.748-1.634 9.156-3.4585 13.324l.392-.224-2.5118.121.4361.572c1.2559-3.489 3.0997-7.116 2.3241-10.925l-.1132.439 3.6904-2.929c.4582-.361-.1877-.996-.6376-.637l-3.6904 2.928c-.1159.113-.1601.282-.1159.439.7342 3.613-1.1372 7.152-2.3241 10.445-.0662.243.0801.491.3202.557.0359.011.0745.014.1132.017l2.5117-.122c.1601 0 .3092-.085.3892-.226 1.9322-4.414 4.9325-8.993 3.5496-14.013l-.8694.237c.2401.693.3671 1.419.3753 2.153l.8861-.122-.3865-2.106c-.1214-.557-.9909-.317-.886.252z" fill="#4379a5"/><path d="m26.8509 111.493c-.4913 1.126-.2346 3.094-.3202 4.303-.2705 3.803-.2677 7.607-.3257 11.416-.0469 3.268-.1739 6.539.0442 9.807.0635.955.1435 1.907.2677 2.857.0939.728.2015 1.457.3202 2.183.1325.817.7204 6.042 1.5043 6.564.4085.27 1.1455-.13 1.5347-.257.3008-.097 1.024-.179 1.2282-.444.3147-.412-.0552-1.822-.0745-2.297-.0883-2.045.2264-4.057.2457-6.094.0579-5.292-.5465-10.702.138-15.954.276-2.106 1.6837-9.423.9909-11.331-.3892-1.065-4.4881-1.187-5.5977-.748" fill="#4686c6"/><path d="m26.1858 99.7808c-.3368-.4803-.864-1.0903-1.0654-1.6423-.3699-.8778-.6708-1.7859-.9026-2.7105-.2043-.9799.069-2.1226.3008-3.0969l-.0303-.0635 1.3994.0579c.1601-.0027.3202.0249.4692.0773l.0635.047c-.5852 2.4317-.2153 4.9959 1.0351 7.1626h-.0138c-.3865.1022-.7812.1794-1.1759.2319" fill="#fff"/><path d="m26.3292 99.6932c-.4113-.4941-.7618-1.0323-1.0516-1.6064-.2678-.668-.53-1.3497-.7342-2.037-.2264-.7398-.2816-1.5237-.1629-2.2882.0497-.3506.127-.6956.2043-1.0406.0441-.196.1297-.3644.0414-.552l-.1298.2263.9771.0386c.2705 0 .657-.0386.8778.127l-.069-.1711c-.588 2.4731-.2126 5.0759 1.0516 7.2813l.1711-.2235c-.1325-.047-.3533.0607-.4885.0883-.2595.0579-.5245.1021-.7894.138-.1905.0248-.1077.3146.08.3008.2015-.022.403-.0552.6017-.0966.1684-.0634.3423-.1076.5217-.1269.127.0441.2319-.1132.1711-.2236-1.2255-2.1336-1.5898-4.6537-1.024-7.0468.0166-.0662-.011-.1352-.069-.1711-.2291-.1214-.4913-.1766-.748-.1546l-1.2587-.0496c-.0828 0-.149.069-.149.1518 0 .0248.0083.0524.0193.0745.0304.0607-.0552.2429-.0717.3202-.0387.1711-.0773.3422-.1105.5134-.0717.3422-.1242.6845-.1573 1.0323-.0469.6983.0414 1.3994.265 2.0618.207.6735.4609 1.3525.7342 2.0039.2871.5631.6348 1.0931 1.0378 1.5816.1104.157.3727 0 .2622-.1518h-.011z" fill="#35434c"/><path d="m33.8394 98.3281c-.0248.0276.1325.1656.1518.185.2181.2456.4196.5023.6017.7728.5355.7401 1.0323 1.5041 1.5043 2.2851 1.2035 1.971 2.5311 4.03 3.4144 6.183.2042.505.3836 1.021.5327 1.549.0331.113.1711.383.0828.496-.1739.224-.806.241-1.0572.301-1.0267.238-2.0508.497-3.0638.787-.9522.268-2.1363.8-3.1383.795-.6955 0-.2291-1.289-.1877-1.607.0221-.157.0442-.3.0663-.469.3202-2.362.7204-4.736.944-7.107.0828-.903.1242-1.827.1435-2.7383 0-.3589-.0359-.7066-.0442-1.0627 0-.0663.0911-.3312.1656-.1656" fill="#004c76"/><path d="m32.0401 85.3999c1.0489.4582 2.4648-.9191 3.0859-1.5843.2208-.2346.4968-.7425.8363-.8308.1049-.0276 1.4381 1.3387 1.427 1.4518-.1076.5383-.1877 1.082-.2401 1.6286 0 .4361.3395 1.4739.1297 1.8548s-1.3.345-1.6616.3671c-1.4877.0883-3.8367-.7922-3.5689-2.6829" fill="#fff"/><path d="m32.0401 85.3999c1.0489.4582 2.4648-.9191 3.0859-1.5843.2208-.2346.4968-.7425.8363-.8308.1049-.0276 1.4381 1.3387 1.427 1.4518-.1076.5383-.1877 1.082-.2401 1.6286 0 .4361.3395 1.4739.1297 1.8548s-1.3.345-1.6616.3671c-1.4877.0883-3.8367-.7922-3.5689-2.6829" stroke="#35434c" stroke-miterlimit="10" stroke-width="1.47"/><path d="m44.6707 76.4442c-.0718.0221-.1049.4195-.1159.4747-.1049.5576-.1657 1.1207-.1877 1.6893-.0111.414.0331.828.1325 1.231.0634.2457.2511.5852.1959.8418-.0911.4555-.6265.7784-.9219 1.0958-.7369.7784-1.8051 2.7271-3.13 1.9957-1.4767-.8115-1.6506-2.7547-1.9101-4.2148-.1021-.5493-.1628-1.1041-.1877-1.6617-.022-.5575.0194-1.1123.116-1.6616.1297-.737.3754-1.5816.9026-2.1336 1.3883-1.4353 2.7712.4775 3.8283 1.289.4003.3008 1.1317.4444 1.2531 1.0102" fill="#fff"/><path d="m44.6707 76.4442c-.0718.0221-.1049.4195-.1159.4747-.1049.5576-.1657 1.1207-.1877 1.6893-.0111.414.0331.828.1325 1.231.0634.2457.2511.5852.1959.8418-.0911.4555-.6265.7784-.9219 1.0958-.7369.7784-1.8051 2.7271-3.13 1.9957-1.4767-.8115-1.6506-2.7547-1.9101-4.2148-.1021-.5493-.1628-1.1041-.1877-1.6617-.022-.5575.0194-1.1123.116-1.6616.1297-.737.3754-1.5816.9026-2.1336 1.3883-1.4353 2.7712.4775 3.8283 1.289.4003.3008 1.1317.4444 1.2531 1.0102" stroke="#35434c" stroke-miterlimit="10"/><path d="m40.2735 74.5109c-.0249.047.2263.1988.3367.2761.4334.3008.8502.6403 1.2863.9439.6707.472 1.3745.8999 2.106 1.2725.1932.0994.5244.3947.7535.3367.2291-.0579.3699-.4609.4665-.6017.5051-.8253.3008-1.8576.0386-2.7491-.2015-.6597-.5768-1.2532-1.0875-1.7196-.6017-.5603-1.2393-1.2035-2.0508-1.4408-1.91-.5548-3.6462-.0801-5.2885.9246-.5769.3036-1.0958.7039-1.5402 1.1786-1.2034 1.4326-1.9238 3.3343-2.7602 4.9849-.3119.6486-.679 1.2697-1.0958 1.8548-.5437.7343-1.4132 1.3167-.7093 2.2165.8363 1.0709 2.0563 1.8824 3.2349 2.5228.8005.4416 1.6396.8087 2.5035 1.0985 1.0406.3423 2.1309.5051 3.2239.4803.4858 0 1.0295-.069 1.2642-.5603.2346-.4913 0-1.2035-.1546-1.7086-.3782-1.2697-1.0627-2.382-1.4795-3.6268-.5796-1.7307.1877-3.8257.9192-5.399" fill="#fbb11f"/><path d="m38.9682 94.2679c.2733.737.6128 1.4491 1.0103 2.1253.5686.9661 1.3276 1.9073 2.393 2.2496 1.4326.4554 3.1108-.1574 4.132-1.2559 2.4069-2.5725 3.914-5.283 5.6446-8.4572l.3754-.1353c.8363-.1518 1.2228-.4857 1.8052-1.1868.3588-.4251.621-1.0737.276-1.5043-.2291-.2484-.5714-.3644-.9026-.3009-.323.0662-.6349.1849-.9192.3561l-.9357.494.1132-.2732c.1794-.4361.2208-.9192.1159-1.3773-.3781.1242-.4885.6017-.5658.9853-.2429 1.2366-.3699 2.4069-1.1179 3.4171l-1.2034 1.8052c.6017-.9026-2.4069 3.7897-5.0401 5.5562-.1546.1215-.3395.1988-.5327.2264-.3285-.0304-.6266-.2126-.806-.4913-.7425-.8888-1.2641-1.9377-1.5291-3.0638l-2.3213.8363z" fill="#fff"/><path d="m38.8273 94.3109c.6349 1.6782 1.6479 3.8836 3.511 4.4798.8667.2512 1.7941.1932 2.6222-.1629.8556-.3864 1.6064-.9716 2.186-1.7113 1.3553-1.5871 2.5559-3.3012 3.58-5.1174.2705-.4637.5327-.9301.7921-1.3966l.3837-.6928c.0662-.1159.1297-.2346.1932-.3533.0387-.1049.0856-.2043.1408-.3009.2208-.1849.6762-.1794.9357-.3008.3285-.1381.6238-.3451.8694-.6018.5328-.5299 1.3884-1.6174.5769-2.2937-.8087-.6762-2.0701.2429-2.8209.6376l.207.2043c.2678-.5493.3533-1.1676.2457-1.7665-.0221-.0801-.1049-.127-.1877-.1049-.6486.2705-.6763 1.1234-.7894 1.7223-.1767.9551-.3892 1.8825-.944 2.694-.4195.6182-.8281 1.2393-1.2393 1.8603-.1077.1601.1545.3009.2594.1518.0194-.0276.1104-.1352.0552-.0828l-.2346-.1794c-.5299.8253-1.1206 1.612-1.7637 2.3545-.5327.6624-1.1013 1.2945-1.7003 1.899-.3009.3008-.6238.6017-.9578.8777s-.9026.8336-1.3497.6321c-.2871-.1767-.53-.4196-.7039-.7094-.1904-.2484-.3671-.5079-.5244-.7756-.3229-.5879-.5631-1.2172-.7204-1.8686-.0221-.0773-.1049-.1243-.1822-.1049l-2.3378.8391c-.1795.0662-.1022.3588.08.3008l2.3351-.8391-.1822-.1049c.2733 1.1704.8226 2.2579 1.6009 3.1715.3009.345.6956.6017 1.1621.4306.3919-.1905.7508-.4416 1.0627-.7425 1.3745-1.2172 2.6-2.5891 3.6544-4.0906.2788-.3505.5383-.7176.7784-1.0958.0414-.0718.0166-.1628-.0552-.2042-.0607-.0332-.1352-.0249-.1822.0248-.0386.0442-.0717.0939-.0993.1435l.2594.1518c.3975-.6017.7922-1.2034 1.2035-1.7886.4029-.5989.6928-1.2724.8501-1.979.0994-.4085.1684-.8253.2456-1.2366.0691-.3643.1105-.966.5079-1.1316l-.1822-.1049c.0911.5216.0139 1.0599-.2152 1.5346-.0414.0718-.0138.1629.0579.2043.0469.0248.1021.0248.1463 0 .5465-.2871 2.5145-1.5761 2.6801-.2705.0635.4913-.3008.9274-.6182 1.2614-.2319.2732-.5134.5023-.8309.6707-.287.1077-.5796.2015-.8777.276-.3229.116-.3643.3009-.5355.6017-.4333.795-.8722 1.5927-1.3331 2.3766-.8805 1.5484-1.888 3.0251-3.0114 4.4107-.5575.6735-1.1261 1.3967-1.8714 1.8659-.7149.4637-1.5567.6928-2.4069.6569-2.1888-.1462-3.3563-2.6221-4.0271-4.4107-.0745-.1546-.3671-.0883-.2926.0938z" fill="#35434c"/><path d="m25.2832 94.3635c.2871.1352.5907.2373.9026.3008.265-.1766.2401-.6017.3008-.9025.3009-1.5043.4306-2.636 1.1317-3.5386.2208-.3036.4692-.5852.7397-.8419.0608-.0552.2319-.2235.3285-.1352s0 .4609-.0442.5796c-.1711.5603-.4223 1.0958-.6017 1.6506-.5327 1.4546-.8694 2.9727-1.0047 4.5157-.0303.4582-.1932 1.1344-.0386 1.5843.1214.3533 1.2945.1298 1.5595.127 1.5346 0 3.0803 0 4.6122.0718.2319 0 1.2752.2704 1.4326.0276.2401-.3644.1766-1.1648.2318-1.5872.1022-1.0543.3036-2.0949.6017-3.1107.1325-.4085.3589-1.2421.8336-1.4077.4748-.1656.8391.6763.9964.9578.4803.8584.9247 1.7389 1.3608 2.6167.1491.3008.323.9025.6017 1.1206.1932.1435.4969-.1408.6542-.2319.5934-.3422 1.2062-.6431 1.8383-.9025.1463-.0608.69-.1794.7204-.3837.0303-.2042-.2595-.541-.3423-.7038-.3616-.6928-.7231-1.3857-1.0626-2.0895-.3396-.7038-.6818-1.358-1.0627-2.0177-.2595-.4471-.5465-.8777-.8364-1.3056-.2898-.4278-.6955-1.4463-1.2034-1.7002-.2236-.1132-1.0765.2263-1.3166.2677-.8777.1822-1.7914.1187-2.6332-.1904-.7673-.3313-1.0654-1.1179-1.1234-1.8963 0-.1325.1242-1.0323.0276-1.0765-.3119-.1021-.6348-.1656-.9605-.1876-2.7989-.4527-4.5543 1.8244-6.1111 3.8311-.4968.7204-.8777 1.5126-1.1317 2.3489-.2705.9881-.472 1.9928-.6017 3.0086" fill="#4686c6"/><path d="m31.637 84.4893c.2291.1104.4775.1766.7314.1959.3119.0359.6183.1215.9026.2567l1.8521.8529c.5603.2319 1.1068.4969 1.6368.7922.4968.3091.8832.7673 1.1068 1.3083.1546.3561.6735.047.5189-.3008-.2208-.5189-.5713-.9744-1.0185-1.3222-.5382-.3615-1.1123-.6652-1.7168-.9025l-1.9073-.8778c-.2871-.149-.5907-.2677-.9026-.3533-.3064-.0193-.61-.0773-.9026-.1739-.345-.1739-.6514.345-.3008.5189v.0083z" fill="#4686c6"/><path d="m32.6057 86.3325c.6239.6211 1.2946 1.1924 2.0067 1.7086.276.1987.6183-.2457.3643-.4748-.6017-.5244-1.1786-1.0682-1.7278-1.6313l-.3644.472 1.8052 1.3691c.2732.2042.6183-.2457.3643-.472l-1.5843-1.4353-.4251.4278c.5024.4003 1.0213.7784 1.5623 1.1345.2815.1849.6348-.2595.3671-.472l-1.7224-1.3636c-.3008-.2373-.7204.1601-.425.4251.5189.4692 1.0654.9081 1.6368 1.3166.2787.1988.6017-.2374.3643-.472l-1.554-1.5291-.4278.4251c.5079.4305 1.0351.8363 1.576 1.2255.2761.2015.6018-.2402.3644-.472l-1.6948-1.5954-.3671.472 1.6561 1.2724c.2733.2098.6018-.2401.3644-.4747-.4637-.4582-.944-.9026-1.4353-1.3304-.3009-.254-.7121.1601-.4278.4278.4996.461 1.0185.9026 1.554 1.3056.2704.207.6238-.2484.3671-.472l-1.2587-1.0958-.4251.4251c.5107.4112 1.0434.7894 1.5982 1.1372.1435.0828.3284.0331.4113-.1105.0662-.1159.0469-.2649-.047-.3615-.3616-.3616-.7369-.7094-1.1261-1.0406-.3009-.2457-.7121.1628-.4278.4278.5575.5106 1.1537.9716 1.7885 1.3828.1436.0829.3285.0359.4113-.1076.069-.1187.0497-.2677-.0469-.3643-.4748-.4527-.9882-.864-1.5319-1.2311-.3257-.2208-.6017.3009-.3009.5217.6514.472 1.3415.8888 2.0646 1.2476.2871.1435.6487-.2429.3672-.472-.4886-.3919-.9882-.7673-1.5043-1.1206-.2761-.1932-.6238.2484-.3644.472.5217.4471 1.1151.8032 1.7555 1.0571.2788.1104.5106-.3008.3008-.5023-.3284-.2843-.6817-.5383-1.0571-.7619l-.3009.5217c.5134.265 1.0351.5079 1.5651.737.1462.0773.3284.0193.4057-.1297.0718-.1381.0248-.3092-.1049-.392l-.7784-.5658-.3008.5217.8198.5768c.3201.2236.6182-.3008.3008-.5216l-.4554-.3257c-.3202-.2264-.6017.3008-.3009.5216l.9633.7094.3009-.5217-1.1068-.6321c-.1408-.0883-.3257-.0441-.4141.0966-.0773.1215-.0552.2816.0497.3782.2319.2208.483.4223.748.6017l.3009-.5217-1.634-.8253c-.2871-.1435-.6487.2457-.3671.472l1.2393.9909.3726-.4747c-.3864-.2263-.7977-.4113-1.2228-.5521-.1628-.0414-.3284.0553-.3726.2181-.0248.0994 0 .207.0718.2843l.8529.6928.3643-.472c-.4996-.3091-1.024-.5796-1.565-.806-.2815-.1159-.5051.3009-.3009.5024.3892.3478.7977.6735 1.2256.9716l.3008-.5217-1.2669-.621c-.2871-.1408-.6486.2456-.3643.472l.955.7673.3643-.472c-.2456-.1739-.5051-.3257-.7756-.4554-.1435-.0828-.3285-.0332-.4113.1104-.069.1187-.0496.2677.047.3643.1987.2153.4278.403.6762.5548.3009.1739.6266-.2429.3671-.472-.2291-.2042-.4858-.3726-.7646-.5023-.3505-.1601-.6569.3588-.3008.5216.2318.1049.4471.2402.6403.4058l.3644-.472c-.207-.127-.392-.2788-.5576-.4582l-.3643.472c.2705.1297.5299.2815.7756.4554.276.1932.6321-.2594.3643-.472l-.955-.7673-.3643.472 1.2697.6293c.1462.0773.3284.0193.4057-.1297.0718-.138.0248-.3091-.1049-.392-.3864-.2677-.7563-.5603-1.1041-.8749l-.3008.5023c.4941.2098.9688.4582 1.4215.7425.287.1767.6348-.2539.3671-.472l-.8529-.6928-.3009.5051c.3782.127.7398.2899 1.0848.4913.2815.1657.6376-.2539.3643-.472l-1.2393-.9936-.3643.472 1.634.828c.1463.0773.3284.0194.4057-.1297.0718-.138.0249-.3091-.1049-.3919-.2235-.1546-.4361-.3257-.6293-.519l-.3367.461 1.1068.6321c.3423.1959.6017-.3009.3009-.5217l-.9633-.7094-.3009.5217.4554.3257.3009-.5217-.8198-.5768c-.3202-.2236-.6017.3008-.3008.5216l.7783.5659.3009-.5217c-.53-.2236-1.0516-.4692-1.565-.737-.1463-.08-.3285-.0248-.4085.1215-.0773.1407-.0304.3146.1076.4002.3312.1932.6431.4168.9357.6652l.3009-.5024c-.5438-.2152-1.0461-.5216-1.4878-.9025l-.3643.472c.472.3257.9302.6652 1.3746 1.0267l.3643-.4719c-.7204-.3616-1.4104-.7784-2.0646-1.2532l-.3009.5217c.5024.3368.9744.7177 1.4105 1.1344l.3643-.4719c-.5906-.3809-1.1482-.8115-1.6644-1.2891l-.4278.4279c.392.3312.7646.6762 1.1289 1.0378l.3644-.472c-.5134-.3174-1.0047-.6652-1.4767-1.0406-.3009-.2373-.7232.1656-.4251.4251l1.2559 1.0958.3643-.472c-.494-.3781-.9716-.7894-1.4297-1.2034l-.4279.4278c.4941.4278.9716.8722 1.4381 1.3304l.3643-.472-1.6561-1.2724c-.2705-.2098-.6017.2401-.3643.4719l1.6947 1.5982.3644-.4748c-.4996-.356-.9799-.7342-1.4519-1.1289-.3008-.2456-.7066.1518-.4278.4251l1.5705 1.5347.3671-.472c-.5244-.3782-1.0268-.7839-1.5043-1.22l-.425.425 1.7196 1.3636.3643-.472c-.4968-.323-.9799-.6708-1.4408-1.0406-.3009-.2374-.7177.1628-.4251.4278l1.5844 1.4325.3643-.4719-1.8051-1.3691c-.2788-.207-.6018.2374-.3672.472.5604.5631 1.1372 1.1068 1.7279 1.634l.3671-.472c-.6707-.483-1.3028-1.0212-1.8907-1.6036-.1187-.116-.3091-.116-.4251 0-.1159.1187-.1159.3091 0 .425l-.0469-.0055z" fill="#4686c6"/><path d="m37.4362 75.0993c-.1049-.058-.3864.0938-.472.1352-.4775.2457-.8446.6625-1.024 1.1676-.6901 1.761.6514 4.1044 2.7077 3.6296 1.554-.3616 2.7077-2.8816 1.6092-4.2313-.4775-.5935-1.209-.9275-1.9708-.9026-.2429.0524-.4803.1214-.7121.2042" fill="#004c76"/><path d="m42.4927 77.4185c-1.0102-.4389-2.1502 1.4049-1.0737 1.9404.8446.4223 2.2495-.5079 1.6589-1.4684-.1657-.2043-.4003-.3423-.6597-.392" fill="#fff"/><path d="m38.4961 75.2705c-.0441.0414.0911-.2015.1022-.2291.069-.1436.1352-.3009.207-.4306.2291-.4665.4278-.9468.6459-1.4215.3864-.8363.7369-1.692 1.1123-2.5338.1049-.2319.3009-.7729.6017-.8336.3699-.0773 1.0682.4692 1.3387.6873.2705.218.1077.4637 0 .701-.2567.5217-.5299 1.0296-.7839 1.5513-.3864.7949-.8115 1.5622-1.2034 2.3544-.1132.2263-.2512.7867-.53.8777-.1545.0497-.3422-.08-.4692-.1462-.3009-.1601-.6321-.3009-.9357-.4444" fill="#004c76"/><path d="m49.7521 89.5457c0-.0193-.0497-.1711-.0221-.1738.0994 0 .2457.4029.2733.4637.2567.563.4858 1.1427.7728 1.6892.0911.1684.2347.5714.4858.3864.2512-.1849 0-.5796-.0745-.7756-.2346-.6376-.472-1.6368-.9026-2.1805-.1325-.1712-.6017.2097-.5548.4278" fill="#fbb11f"/><path d="m37.5576 140.541v.025c.022-.022.0496-.036.08-.044.3009-.08.6017-.193.9026-.301.3008-.618.1794-1.615-.1822-2.018-.5437-.601-1.8962-.259-2.5725-.168-.345.044-1.162.05-1.4049.362-.2871.364-.3726 1.865.0828 2.081.5575.262 1.4463.146 2.048.16.0967.005.9689.003 1.0489-.094z" fill="#4686c6"/><path d="m31.7529 151.683v.024c.0249-.019.0552-.03.0828-.038.3009-.05.6017-.135.9026-.213.3505-.601.3257-1.592 0-2.026-.4885-.646-1.8631-.427-2.5476-.4-.3506 0-1.1621-.055-1.4326.235-.3008.336-.541 1.824-.1049 2.078.5328.301 1.4326.276 2.026.34.1187.011.9882.091 1.071 0z" fill="#4686c6"/><path d="m28.0074 97.1457c.0331-.0745-.0966.1353-.1546.196-.1159.1242-.2429.2346-.3671.3533-.3754.3588-.7618.7066-1.1041 1.1013-1.093 1.2557-1.888 2.8957-1.6092 4.5987.1712 1.049.679 2.004.9744 3.008.2263.867.3284 1.761.3008 2.656v2.183c0 .177-.1076.66 0 .814.2181.287 1.4188.122 1.7113.124 1.1207 0 2.2468 0 3.3647.069.4389.031 1.1041.279 1.5319.185.3009-.066.3837-.463.4748-.701.3119-.825.5796-1.664.8059-2.517.7867-2.898 1.002-5.923.6349-8.904-.0773-.6683-.1877-1.3335-.2761-1.9987-.0303-.2346 0-.6293-.1628-.8225-.2539-.3147-1.162-.2816-1.5043-.3147-.9992-.1021-2.0039-.1463-3.0086-.1297-.4692.0579-.944.0938-1.4187.1049" fill="#004c76"/><path d="m34.7008 138.329c-.3313.5-.726 1.289-.2126 1.805.4527.392 1.0351.605 1.634.602 1.347 0 2.5891-.56 3.8698-.87.6017-.14 1.2366-.375 1.4105-1.035.0828-.273.0221-.571-.1629-.789-.2401-.226-.6321-.174-.9274-.138-.6956.055-1.3967.036-2.0895-.061-.5658-.047-1.2807 0-1.4214.69-.3396 1.604 2.9865.668 3.6572.486.5658-.157.3257-.985-.2374-.869l-1.6865.334c-.5713.11-.3284.979.2374.869l1.6865-.334-.2374-.869c-.5217.146-1.0516.256-1.5898.328-.2291.03-.461.055-.6929.069-.1076-.008-.2152-.008-.3229-.003l.0635.193c-.0138.034.0138.028.0911-.013.2346.047.5051.027.7452.055.2402.027.5051.055.7618.069.2733.022.5466.022.8198 0 .2291-.061.4692-.075.7039-.039l-.2705-.207c.1407.246-1.2035.519-1.336.552-.552.155-1.0792.384-1.6395.497s-1.2035.276-1.7279.166c-.1325-.028-.6569-.155-.6983-.301.0331-.111.08-.218.1325-.32.0635-.136.138-.265.2208-.387.3229-.486-.4582-.935-.7784-.455v-.025z" fill="#4686c6"/><path d="m29.0757 149.445c-.3367.422-.8308 1.101-.5327 1.661.2622.494.9744.795 1.5043.884.6763.077 1.358.052 2.026-.072.6762-.1 1.3387-.301 2.0177-.409.5852-.091 1.2034-.196 1.5043-.761.1546-.26.1684-.577.0386-.851-.1739-.32-.5768-.334-.9025-.331-.6542 0-1.3084-.069-1.9487-.204-.5769-.108-1.4105-.237-1.6561.48-.5521 1.626 2.923.969 3.613.842.4969-.091.3892-.938-.1159-.889l-1.7085.182c-.2457.006-.4444.205-.4527.453 0 .249.2015.45.4527.453l1.7085-.182-.1214-.886c-.4803.088-.9633.143-1.4519.168h-1.013c-.0276.005-.0579.005-.0883 0v.237c.0221-.143.345-.033.4637 0l.6348.125c.4417.093.8916.146 1.3415.149h.4361c.1297.035.1435 0 .0442-.103-.1104-.234-.0304-.063-.1049-.013-.0635.055-.1325.102-.2043.143-.403.116-.817.193-1.2338.227-.4278.08-.8446.201-1.2724.3-.4306.067-.8667.1-1.3028.105-.4003.042-.8032-.041-1.1538-.237-.0828-.039-.1573-.088-.2263-.146-.0607-.075-.0359.049 0-.08.0745-.207.1877-.398.3312-.564.1684-.179.1684-.458 0-.637-.1766-.174-.4609-.174-.6376 0z" fill="#4686c6"/><path d="m156.003 82.0214c0 .3147.364.828.475 1.1261.215.5797.301 1.2366.588 1.8052.601 1.2531 1.683 2.1447 2.597 3.1466.168.1877.384.6873.624.7563.425.1242 2.213-1.1758 2.528-1.5705.116-.127.133-.3147.044-.4638-.392-.8142-1.17-1.4049-1.617-2.1943-.696-1.2283-.602-2.9837-1.852-3.8449-.105-.0718-.213-.1325-.329-.185l-.11-.0386c-1.055-.3423-3.312.955-2.871 1.5926" fill="#fff"/><path d="m156.003 82.0214c0 .3147.364.828.475 1.1261.215.5797.301 1.2366.588 1.8052.601 1.2531 1.683 2.1447 2.597 3.1466.168.1877.384.6873.624.7563.425.1242 2.213-1.1758 2.528-1.5705.116-.127.133-.3147.044-.4638-.392-.8142-1.17-1.4049-1.617-2.1943-.696-1.2283-.602-2.9837-1.852-3.8449-.105-.0718-.213-.1325-.329-.185l-.11-.0386c-1.055-.3423-3.312.955-2.871 1.5926" stroke="#35444c" stroke-miterlimit="10" stroke-width=".5"/><path d="m175.045 146.026c-.03.467-.187.765-.543.743-.37-.009-.718-.171-.958-.453h-.094c0 .063-.047-.124-.075-.179-.049-.108-.105-.213-.162-.321-.936.091-1.427.326-3.009.922-.522.196-1.94.886-.301.964 1.052.049 2.106-.031 3.149 0 .588 0 1.786.265 2.319-.069.326-.185-.16-1.047-.323-1.607z" fill="#004c76"/><path d="m153.546 146.318.02.028s0 .025-.025 0c-.022-.033-.042-.066-.061-.102-.787.179-4.298.946-4.433 1.035-.121.124-.199.284-.215.458-.072.544 1.289.455 1.661.486 1.027.08 2.341.389 3.393.102.505-.171 1.002-.373 1.485-.602h-.031c.205-.074-.096-1.562-.262-1.772-.232.547-.662.825-1.529.37z" fill="#004c76"/><path d="m173.45 146.332h.094c.24.279.588.444.958.453.358.022.513-.276.543-.743-.035-.102-.052-.212-.044-.323.003-.038.02-.074.042-.105-.094-1.476-.955-3.886-1.074-4.319-1.204-4.303-2.007-8.775-2.884-13.153-.461-2.315-1.099-4.592-1.552-6.922-.439-2.255-.601-4.657-1.316-6.851-.218.094-.447.155-.682.185-.124.014-.248.014-.373 0-.552 1.56-1.692 4.055-2.453 6.042-.644 1.684-1.287 3.368-1.924 5.051.902 2.465 5.247 10.439 5.793 11.53 1.035 2.056 2.195 4.049 3.255 6.091.419.809.877 1.596 1.291 2.407.028.058.058.111.083.166.058.105.111.21.163.32.028.055.074.24.074.177z" fill="#4479a4"/><path d="m167.165 114.548c-.323-.027-.621-.188-.82-.444-.11-.144.072-.403.323-.704-1.584.403-3.966.828-4.643.806-1.026-.036-3.668-.226-5.084-.925-.337 1.022-.643 4.132-.728 4.665-.829 5.076-1.298 10.235-1.833 15.352-.301 2.871-.461 5.719-.602 8.59-.055.971-.141 1.943-.226 2.915-.064.414-.094.83-.091 1.25 0 .041 0 .083.013.121.014.039 0 0 .023 0v-.033c.529.743.974.663 1.338.246.505-.572.856-1.783 1.06-2.305.42-1.06.85-2.106 1.239-3.182 1.855-5.098 3.746-10.188 5.67-15.264.637-1.687 1.278-3.37 1.924-5.051.739-1.979 1.882-4.475 2.431-6.034z" fill="#4585c5"/><path d="m168.89 95.1743c-.485-3.0555-1.54-4.4052-3.751-6.5913-.472-.4665-1.728-2.0508-2.291-2.3324l-.124-.069c-.077.0663-.149.1353-.215.2071-.196.2208-.4.4333-.602.6541-.538.6128-1.187 1.1151-1.91 1.485-.226.058-.444.1463-.646.2622-1.424 1.1869-1.504 11.769-1.49 12.178.124 2.826-.39 5.611-1.058 8.349-.132.541-.927 2.863-.67 3.313.201.292.483.524.808.662 1.414.698 4.058.889 5.085.925.673.022 3.058-.403 4.642-.806.122-.141.254-.301.376-.453.273-.342.499-.695.419-.977-.455-1.562-.555-3.147-.902-4.728-.467-2.128-1.171-4.215-1.709-6.34-.223-.87-.301-2.1643-.753-2.9537l-.083-.218c.135.1104.276.2098.425.3008.096.0359.199.0608.301.0773.428.0663.866.0663 1.294 0 .787-.1076 1.551-.3422 2.264-.6928.154-.0717.552-.4333.806-.5603.024-.0662.041-.138.044-.2098.016-.4858-.182-1.0268-.254-1.4822z" fill="#67cbe4"/><path d="m155.031 81.6081c0-.0414.351.345.378.392.232.3257.467.7701.856.9329.624.2622 1.024-.8418 1.562-.276.417.4471.726.9854.903 1.5705.571 1.9239-1.858.2098-1.99.6652-.155.53 1.504 2.7271 2.197 2.7105 2.948-.0966-.991-5.6473-.72-5.9399.193-.1739.433-.287.69-.3284 1.054-.196.75 1.5677.852 2.106.103.3533.285.679.53.955.092.1159.227.3009.392.3009 1.378-.0304 3.357-4.3446 3.009-5.5673-.262-.9633-1.203-1.1759-1.979-1.6092-.456-.2595-.789-.6845-1.234-.9523-1.22-.7287-2.876-.2346-3.715.8308-.395.5052-.558 1.129-1.01 1.5954-.677.6984-2.462.5245-2.07 1.946.234.8446 1.062.3698 1.531.8611" fill="#fab01d"/><path d="m169.315 102.88c.105-1.877.406-3.7649.121-5.6474 0-.0662-.027-.4305-.143-.4416-.055 0-.108.0193-.157.0442-.26.1269-.657.4885-.809.5603-.712.3505-1.477.5851-2.264.6928-.427.0662-.866.0662-1.294 0-.102-.0166-.204-.0442-.301-.0773-.149-.0883-.29-.1904-.425-.3008l.08.218c.453.7894.533 2.0838.754 2.9538.538 2.106 1.242 4.214 1.708 6.34.345 1.584.447 3.166.903 4.728.08.281-.144.635-.414.977-.125.155-.26.301-.379.453-.251.301-.433.56-.322.704.198.256.496.419.822.444.124.014.249.014.37 0 .235-.028.464-.091.679-.185 1.071-.489.571-1.684.654-3.094.16-2.78.262-5.576.417-8.369z" fill="#fff" stroke="#35444c" stroke-miterlimit="10" stroke-width=".5"/><path d="m110.344 145.055h11.739l-.478 11.998s-3.914 1.085-10.734 0c0-4.275-.527-11.998-.527-11.998z" fill="#f2b13b"/><path d="m116.234 144.406c3.312 0 6.02.301 6.02.638s-2.691.637-6.02.637-6.001-.187-6.001-.538c0-.35 2.689-.737 6.001-.737z" fill="#b6842d"/><path d="m112.535 145.644-.797-2.242-.663.177.431 2.341v.024c.083.282.381.445.662.359.273-.08.434-.359.367-.635zm-.458.353c-.121.014-.232-.072-.246-.193-.011-.097.042-.188.13-.227.116-.033.235.036.268.149v.003c.03.116-.039.235-.155.268z" fill="#ff8828"/><path d="m111.738 143.402-.331.089.56 2.089c.122-.011.229.077.24.199.008.094-.044.182-.13.221l.089.323c.284-.078.452-.37.375-.652v-.025l-.803-2.241z" fill="#e57a24"/><path d="m112.831 142.721-3.042.814-.936-2.597c-.057-.141.009-.304.15-.362h.022l2.989-.803c.149-.03.295.064.328.213v.003.019l.492 2.713z" fill="#4a99ce"/><path d="m112.337 139.984v-.05-.014c-.061-.097-.174-.141-.285-.113l-.513.141c.149-.033.295.06.326.207v.005.022l.353 1.941c.036.207-.097.408-.301.458l-2.247.602.144.394 3.044-.814-.488-2.71v-.02l-.036-.049z" fill="#4a99ce"/><path d="m113.052 143.184-3.227.864c-.091.022-.182-.03-.207-.121l-.097-.365c-.022-.088.028-.182.116-.207l3.235-.864c.091-.022.182.031.207.122l.1.364c.022.091-.031.182-.122.207h-.008z" fill="#ff8828"/><path d="m112.958 142.84-3.227.864c-.091.022-.182-.031-.207-.122l.094.345c.025.091.116.144.207.122l3.227-.864c.091-.025.143-.119.121-.207l-.093-.345c.022.091-.031.182-.122.207z" fill="#e57a24"/><path d="m109.491 141.895c.036.13.168.21.301.174.13-.033.21-.166.177-.298 0 0 0-.003 0-.006l-.089-.331c-.036-.132.044-.265.174-.301.133-.033.265.044.301.174l.025.097c.033.129.166.21.295.176h.006c.132-.035.21-.171.174-.3l-.091-.334c-.031-.13.046-.263.173-.301.133-.031.265.047.301.176l.028.094c.033.13.166.21.295.177h.006c.13-.036.21-.169.176-.301l-.234-.875-2.385.638.364 1.341z" fill="#b7e7f2"/><path d="m110.689 141.578c.13-.036.21-.168.174-.301l-.091-.334c-.031-.129.047-.262.174-.301.132-.033.265.045.3.174l.028.097c.044.13.185.199.315.154.118-.041.187-.162.163-.284l-.235-.875-1.204.323.373 1.35z" fill="#e8f8fb"/><path d="m125.721 139.635-.35-.094-.13.486.35.094c.097.027.152.127.13.223l-.384 1.424c-.024.097-.124.152-.22.127l-4.116-1.098c-.364-.097-.74.119-.839.48l-.27 1.021.485.13.274-1.018c.024-.097.124-.155.22-.13h.003l4.107 1.101c.365.097.74-.121.837-.486l.383-1.424c.097-.361-.116-.734-.474-.836z" fill="#3575d3"/><path d="m117.689 136.867-.32-.083c-.174-.044-.348.058-.398.229l-.278 1.049c-.047.174.055.35.229.397l.32.083.447-1.673z" fill="#3575d3"/><path d="m125.329 138.912-.301-.08-.447 1.673.301.08c.168.049.345-.05.395-.218 0-.003 0-.006 0-.011l.284-1.044c.047-.174-.058-.353-.232-.4z" fill="#3575d3"/><path d="m124.716 140.546c-.049.174-.226.276-.4.229l-6.991-1.863c-.174-.047-.276-.224-.232-.398l.447-1.672c.047-.174.224-.276.397-.232l6.995 1.874c.174.047.278.226.232.4l-.45 1.662z" fill="#b7e7f2"/><path d="m117.504 138.61.447-1.672c.047-.171.224-.276.398-.229l-.411-.111c-.174-.044-.351.058-.398.232l-.453 1.673c-.044.174.058.35.232.397l.409.108c-.171-.05-.271-.227-.227-.398z" fill="#000" opacity=".1"/><path d="m118.423 136.728-.618 2.303 6.036 1.619.618-2.304z" fill="#e8f8fb"/><path d="m120.4 142.899.135-.511c.017-.058-.017-.118-.072-.135l-.544-.143c-.058-.017-.116.019-.132.077l-.138.51.756.202z" fill="#4351b5"/><path d="m120.231 142.189-.301-.082c-.058-.014-.116.019-.132.077l-.138.511.301.082.138-.513c.013-.055.071-.091.127-.077h.005z" fill="#000" opacity=".1"/><path d="m120.366 143.533.158-.602c.016-.058-.017-.119-.072-.135l-.795-.213c-.058-.014-.116.022-.133.077l-.16.588 1.005.285z" fill="#ff994d"/><path d="m119.964 142.68-.301-.083c-.058-.014-.116.022-.133.077l-.16.588.301.083.157-.602c.022-.052.08-.08.136-.063z" fill="#000" opacity=".1"/><path d="m119.836 146.009c-.013.058-.074.093-.132.077l-1.046-.279c-.055-.014-.091-.072-.077-.127 0 0 0-.003 0-.005l.684-2.554c.017-.058.075-.091.133-.077l1.046.279c.058.016.094.077.077.135l-.682 2.553h-.003z" fill="#ff8828"/><path d="m118.895 145.76.687-2.55c.014-.058.075-.094.133-.078l-.323-.088c-.058-.014-.116.022-.132.077l-.666 2.553c-.016.056.014.114.072.133h.006l.323.088c-.064-.008-.105-.066-.097-.129 0 0 0-.003 0-.006z" fill="#000" opacity=".1"/><path d="m120.372 144.029-.331-.088c-.08-.022-.163.025-.183.105-.022.08.025.163.105.188l.332.088z" fill="#ff675f"/><path d="m120.231 144.542-.331-.091c-.08-.022-.163.025-.182.105-.022.08.025.163.105.187l.331.089z" fill="#ff675f"/><path d="m120.099 145.067-.329-.091c-.08-.022-.166.028-.188.108s.028.162.108.182l.331.088.075-.29z" fill="#ff675f"/><path d="m122.238 146.369v-1.336s-4.378 1.264-12.01.108v1.228s6.257 1.364 12.01 0z" fill="#ffd080"/><path d="m110.604 149.143h2.246l.205 8.211-2.184-.301z" fill="#f4bd59"/><path d="m114.945 146.435c.569 1.25 1.468 4.554 5.043 8.314.902.938 3.152 1.151 3.188-.737s-1.223-5.526-1.223-5.526l-.044 1.024c.513 1.452.806 2.975.864 4.515 0 .826-1.159 1.505-2.459.459-1.165-1.135-3.313-4.063-4.914-8.273-.179-.259-.59-.027-.452.227z" fill="#3575d3"/></g></svg>