<svg fill="none" height="141" viewBox="0 0 247 141" width="247" xmlns="http://www.w3.org/2000/svg" xmlns:xlink="http://www.w3.org/1999/xlink"><linearGradient id="a" gradientUnits="userSpaceOnUse" x1="285.181" x2="23.3553" y1="113.167" y2="113.167"><stop offset="0" stop-color="#fff" stop-opacity="0"/><stop offset=".48" stop-color="#51c7ea"/></linearGradient><linearGradient id="b" gradientUnits="userSpaceOnUse" x1="270.259" x2="38.5961" y1="76.006" y2="76.006"><stop offset="0" stop-color="#fff"/><stop offset="1" stop-color="#51c7ea"/></linearGradient><clipPath id="c"><path d="m0 0h247v141h-247z"/></clipPath><g clip-path="url(#c)"><path d="m84.0333 92.6396c24.6817 0 101.9297 15.7164 137.5727 15.9214 27.265.155 37.831 16.831 4.917 16.122-18.479-.396-14.265-.719-34.605-2.518-31.796-2.816-54.798-.48-86.441 5.665-43.8572 8.518-87.3114 8.063-100.19744-3.339-16.46146-14.567 4.41204-31.8514 78.75374-31.8514z" fill="url(#a)" opacity=".25"/><path d="m64.9568 11.0117c66.3542 0 80.2872 43.9934 140.7862 53.5429 36.448 5.7551 43.568 43.2224 6.896 50.9814-19.197 4.061-47.584 1.14-67.568.768-23.978-.446-42.615 17.845-66.5899 23.566-23.9781 5.721-50.1715-11.393-60.6284-25.926-26.95557-37.4579-10.63969-102.9323 47.1041-102.9323z" fill="url(#b)" opacity=".38"/><path d="m152.795 115.415c13.788 0 24.963 2.212 24.963 4.941 0 2.728-11.175 4.94-24.963 4.94s-24.963-2.212-24.963-4.94c0-2.729 11.175-4.941 24.963-4.941z" fill="#95d2e5" opacity=".8"/><path d="m54.7976 97.7621c-2.1688.3098-4.5173 2.8399-5.5398 5.3459-.2293-1.418-.4152-2.843-.5763-4.2742 1.2734-1.6819 3.9535-1.75 5.1433-3.8346 1.2548-2.193-.7189-4.0422-2.8009-2.4749-1.0039.7558-1.952 2.8435-2.5283 4.5285-.1053-1.0191-.2541-2.4377-.3563-3.4599-.0898-.8859-.189-1.7717-.3005-2.6483 1.5491-1.4094 5.3012-2.0165 5.1649-4.9715-.096-2.0722-2.3578-3.1036-3.6746-1.1615-.6631.9788-1.3571 2.5523-1.7785 4.0948-.2509-1.6323-.5515-3.2492-.9171-4.8475 1.6421-1.8554 6.1037-2.2209 6.4353-5.2099.2695-2.4378-2.7669-2.4347-4.2324-.9881-1.4407 1.4217-1.9055 3.5961-2.3423 5.5909-.2851-1.1894-.6042-2.3696-.9667-3.5404 1.1712-1.7346 4.0031-3.2802 4.1642-5.7799.1549-2.4315-2.1844-4.6524-3.9814-1.8554-.945 1.4651-1.0565 3.4909-.9326 5.4051-.4617-1.2793-.9667-2.5399-1.5182-3.782.1952-.7868.4864-1.7842.9481-2.8063.5267-1.1647 1.4005-2.351 1.041-3.6426-.6196-2.2271-2.1471-.7496-2.6645.8765-.3718 1.174-.3037 2.5493-.1054 3.8843-.6599-1.3722-1.7103-3.4413-2.4694-4.7577.3347-2.4594 5.2672-7.9822 1.0597-7.5052-1.9954.2261-2.0728 4.2497-1.6979 6.5821-.44-.7124-1.512-2.3448-1.5895-2.4563.3378-2.0226 2.615-8.4871-.2912-8.2888-2.3021.158-1.5926 3.9245-1.0689 5.7489.065.2323.1425.5699.2416.9323-.7529-1.0562-1.5398-2.1063-2.3671-3.1346.316-.6969.6816-1.8213.8056-2.859.0898-.7279.1859-3.8687-1.5089-2.4749-.6445.5297-.5577 2.7444-.1859 4.256-.6042-.7125-1.2301-1.4063-1.8745-2.0784-3.8203-5.3463-2.4694-13.2417-6.8257-11.7054-5.168 1.8244-2.8504 5.9317-1.2765 7.341 1.354 1.2111 3.9101 2.9519 6.8319 3.9462.663.7558 3.2749 4.1723 3.6064 4.6245-2.5964-2.2363-7.8109-6.6286-9.0223-3.4784-1.0752 2.7939 6.7543 3.3731 9.58 4.2497.9729 1.3567 3.2347 4.9002 3.4547 5.2719-1.1619-.9169-2.2649-2.4129-3.6994-2.9302-1.2704-.4584-4.0868-.5266-3.7986 1.1863.4121 2.4315 3.9721 2.1032 5.7722 2.2271 1.2951.0898 1.9055.5575 2.2339.3903 1.0442 1.8213 1.9984 3.6953 2.8629 5.6126-1.7537-2.1713-6.5716-6.6286-7.9597-3.5063-1.7908 4.0205 5.4531 2.8001 8.1921 4.0236.8644 1.9607 1.6359 3.9647 2.2989 6.0153.0062.0247.0155.0495.0217.0712-1.1928-1.7594-2.2029-3.5776-4.1642-4.7329-1.7784-1.0501-4.6847-1.2173-4.1424 1.9328.3965 2.2952 4.4988 1.9948 6.5375 2.7722.9078.3469 1.6173.8828 2.0913 1.078.5732 1.9204 1.0287 3.8687 1.4036 5.8356-3.7397-2.2271-7.6281-9.915-9.8218-5.6994-1.9333 3.7139 5.9241 3.0325 9.9488 6.387.3223 1.7966.5732 3.6117.7839 5.4423-.6351-1.4032-1.6111-2.6236-2.5375-3.844-.6972-.9199-4.031-3.3762-4.9419-.9292-.8985 2.4129 3.4764 3.528 4.8241 4.0143 1.2735.4553 2.0945 1.1616 2.7947 2.0474.0341.3377.4183 4.5161.6197 6.269-1.3385-2.8432-10.1347-12.6467-11.845-6.1265-1.0968 4.1785 7.4206 3.6055 9.5429 4.6462 1.4408.7032 2.0233 1.4433 2.392 2.2613.127 1.016.2695 2.026.4461 3.026-2.1007-2.503-7.0611-7.1613-8.4492-2.757-1.6421 5.207 4.8644 2.763 6.2463 3.256 1.2053.427 2.5097.607 2.7482 2.143.2851 1.171.6259 2.323 1.0442 3.445.3005.802 1.5646.278 1.323-.539-.4741-1.596-.8428-3.206-1.1433-4.829 1.7196-1.478 5.9736-2.24 7.0828-3.522 1.543-1.7842.5794-3.6644-1.8032-3.3268z" fill="#004c76" opacity=".12"/><path d="m46.6301 86.4807c-.8055-4.1723-2.8349-23.5129.2417-35.9709.7746 20.4185 8.347 17.6555 12.6568 41.0755 1.3044 7.0839-.9234 19.6937-4.849 21.0067-3.7211 1.246-5.4592-3.577-6.5096-5.067-2.8474-4.048-11.3244-34.6112-10.522-37.8853 4.2231 4.5657 8.3191 15.983 8.9852 16.841z" fill="#4382c3"/><path d="m36.6939 83.783c-9.7877-8.3105-12.9573-14.936-15.4825-17.5379 3.5228 19.8486 21.7907 52.3599 32.0834 44.7489 7.3802-5.457-3.0829-15.7349-16.6009-27.211z" fill="#004c76"/><path d="m55.3985 111.679c-.0434 1.27 17.5831 2.457 25.4126-11.03 6.0976-10.5033 10.0201-11.5254 13.3818-13.4459-23.1446.1487-38.6797 21.1499-38.7944 24.4729z" fill="#15cefb"/><path d="m71.0608 69.845c-1.8745 2.0412-2.1193 4.9002-3.529 6.9135-1.5151 2.1651-3.7614 3.0758-4.3439 6.3312-.2727 1.5209-.0651 2.8466-.3997 4.2126-.4152 1.6974-1.3571 3.1904-1.639 5.0241-.1952 1.2824.0279 2.5678-.1085 3.7975-.3842 3.4537-6.6428 8.3231-2.6986 12.0741-.6476 2.871-.2634 3.977 1.2269 4.228 3.1851.545 3.5259-2.735 4.4059-4.439 1.0162-1.967 3.5538-2.995 4.1765-5.804.3223-1.45-.2819-3.3024.062-4.6157.2603-.9819 1.2672-1.4031 1.9179-2.1744 1.67-1.9793 2.079-4.4851 2.2835-6.9817.1208-1.4744-.6972-3.9524-.3347-5.2378.6941-2.4687 3.3493-2.7506 3.0767-6.4861-.0837-1.1337-.8366-2.5926-.6538-3.7108.1704-1.0408 1.0349-1.781 1.5616-2.7506 1.4593-2.6948.6971-5.8263 1.0689-8.7503-2.3733 2.5833-3.749 5.8418-6.0696 8.3694z" fill="#68cbe2"/><path d="m222.008 82.2848c7.601-6.4551 10.064-11.6 12.025-13.6227-2.736 15.4161-16.923 40.6669-24.917 34.7569-5.732-4.2375 2.395-12.2228 12.892-21.1342z" fill="#004c76" opacity=".12"/><path d="m206.477 83.1891c-.034-3.302 1.112-18.3588 5.196-27.4498-2.256 15.7103 3.916 14.6541 3.944 33.1491.009 5.594-3.452 14.9176-6.634 15.3756-3.018.434-3.674-3.494-4.266-4.7792-1.611-3.4908-3.83-28.0259-2.761-30.414 2.59 4.0763 4.13 13.3718 4.518 14.1213z" fill="#4382c3"/><path d="m207.481 103.948c.034.988-13.658 1.908-19.74-8.5678-4.737-8.1587-7.783-8.9517-10.392-10.4447 17.977.1147 30.042 16.4255 30.132 19.0095z" fill="#004c76"/><path d="m199.914 80.2712c1.069 1.1616 1.209 2.794 2.011 3.94.865 1.2328 2.144 1.7532 2.476 3.6086.155.8673.037 1.6231.226 2.4005.235.9664.774 1.8182.932 2.8621.112.731-.015 1.4651.062 2.1651.22 1.9669 3.787 4.7454 1.54 6.8825.369 1.636.152 2.267-.7 2.41-1.816.31-2.011-1.558-2.51-2.531-.579-1.121-2.026-1.706-2.379-3.3078-.183-.827.161-1.8802-.034-2.6297-.149-.5607-.722-.7992-1.094-1.239-.951-1.1275-1.187-2.5555-1.301-3.9803-.068-.8394.396-2.2518.192-2.9859-.397-1.4063-1.909-1.5674-1.754-3.6984.047-.6474.477-1.4775.372-2.1156-.096-.5916-.589-1.016-.889-1.5673-.831-1.5364-.397-3.3205-.607-4.987 1.354 1.4713 2.137 3.3298 3.46 4.7702z" fill="#68cbe2"/><path d="m208.398 94.7084c1.76.0805 3.836 1.9297 4.849 3.8626.074-1.1523.114-2.3108.136-3.4692-1.149-1.2483-3.3-1.0996-4.415-2.6793-1.171-1.6634.266-3.2926 2.054-2.1992.861.5296 1.782 2.1279 2.373 3.4351.007-.824.016-1.9731.019-2.8002.003-.7186.016-1.4341.04-2.1465-1.347-1.0129-4.402-1.2111-4.52-3.59-.081-1.6695 1.651-2.67 2.857-1.2111.607.7341 1.282 1.9421 1.738 3.144.077-1.3289.195-2.6453.362-3.9555-1.459-1.3629-5.059-1.3133-5.555-3.6829-.403-1.9328 2.032-2.162 3.315-1.1151 1.264 1.0315 1.803 2.7351 2.305 4.2993.137-.9757.304-1.9452.502-2.9116-1.072-1.301-3.461-2.3231-3.777-4.3117-.31-1.9359 1.395-3.8935 3.049-1.7934.868 1.1027 1.112 2.7164 1.162 4.259.273-1.0594.582-2.1094.926-3.1471-.217-.6164-.526-1.3938-.976-2.1775-.511-.8921-1.301-1.7748-1.112-2.8373.325-1.8306 1.664-.765 2.2.4987.387.9138.437 2.0196.381 3.1037.421-1.1523 1.106-2.8899 1.614-4.0019-.458-1.9452-4.833-5.9936-1.422-5.9317 1.614.0279 1.986 3.2462 1.862 5.1449.298-.604 1.032-1.9948 1.085-2.0908-.425-1.5952-2.745-6.6007-.403-6.6657 1.859-.0496 1.577 3.0231 1.298 4.5254-.034.1889-.071.4677-.121.765.524-.9044 1.072-1.8058 1.658-2.6917-.307-.5358-.685-1.4062-.865-2.227-.127-.5762-.443-3.0851 1.02-2.097.557.3748.657 2.1558.474 3.3979.43-.6164.877-1.2204 1.341-1.8089 2.653-4.5781.964-10.8009 4.574-9.8995 4.278 1.0655 2.738 4.5346 1.586 5.7829-.992 1.0749-2.909 2.6639-5.174 3.686-.471.6567-2.306 3.5962-2.538 3.9803 1.909-1.9917 5.751-5.9069 6.962-3.4785 1.075 2.1558-5.152 3.2183-7.352 4.1382-.676 1.1616-2.216 4.1754-2.364 4.4914.861-.824 1.629-2.1063 2.739-2.6298.982-.4646 3.234-.7341 3.135.6598-.142 1.9793-3.021 1.9885-4.455 2.2271-1.032.1703-1.484.5916-1.76.4832-.697 1.5394-1.32 3.1129-1.865 4.7174 1.239-1.874 4.759-5.8139 6.11-3.4196 1.741 3.0851-4.155 2.6607-6.256 3.8502-.542 1.6354-1.007 3.3019-1.382 4.9962-.003.0217-.009.0402-.012.0588.821-1.5022 1.49-3.0355 2.974-4.1103 1.345-.9788 3.659-1.335 3.467 1.2297-.142 1.8709-3.451 1.9421-5.025 2.7227-.7.3469-1.227.8301-1.593 1.0221-.313 1.5828-.53 3.178-.675 4.7856 2.825-2.0691 5.354-8.5273 7.433-5.3183 1.834 2.828-4.515 2.8837-7.483 5.879-.121 1.4651-.183 2.9395-.211 4.4201.403-1.174 1.091-2.224 1.739-3.2741.486-.7898 2.971-3.0138 3.888-1.1244.905 1.8647-2.516 3.0944-3.557 3.5838-.985.4615-1.589 1.0903-2.082 1.8523 0 .2726.009 3.6519-.019 5.0706.856-2.3789 7.151-10.9093 9.023-5.8171 1.199 3.2648-5.67 3.4568-7.291 4.4511-1.099.6752-1.508 1.3133-1.744 1.9948-.022.8239-.062 1.6447-.124 2.4593 1.494-2.1651 5.109-6.2785 6.559-2.8558 1.714 4.0481-3.687 2.5864-4.756 3.0851-.932.4367-1.964.6783-2.035 1.927-.14.96-.322 1.908-.573 2.84-.18.666-1.234.344-1.1-.328.257-1.314.43-2.633.548-3.9589-1.49-1.0501-4.957-1.3381-5.946-2.2798-1.372-1.3102-.743-2.893 1.19-2.8032z" fill="#15cefb"/><path d="m144.321 102.554c0 1.115-.905 2.022-2.02 2.022h-22.875v-4.042h22.875c1.115 0 2.02.905 2.02 2.02z" fill="#fff"/><path d="m107.971 82.3496h23.086l.744 7.6941c.111 1.1647-.304 2.32-1.131 3.1502l-7.328 7.3411h-22.376l7.303-8.7969-.295-9.3885z" fill="#d7dbe0"/><path d="m131.379 85.7228h-23.302l-.106-3.3732h23.083z" fill="#999" opacity=".4"/><path d="m105.777 90.3349-.814-7.9853h4.058l.744 7.6941c.112 1.1647-.304 2.32-1.131 3.1502l-7.346 7.3411h18.974c1.116 0 2.02.904 2.02 2.019 0 1.116-.904 2.023-2.02 2.023h-19.272c-1.8307 0-3.4387-1.261-3.8384-3.122-.2881-1.335.22-2.7198 1.1867-3.6831l7.4357-7.437z" fill="#afafaf"/><path d="m60.8822 2.5h104.1048c3.504 0 6.429 2.67931 6.732 6.17016l5.797 66.40984c.344 3.9492-2.767 7.341-6.732 7.341h-104.1048c-3.5042 0-6.4259-2.6794-6.7327-6.1671l-5.797-66.40979c-.3439-3.94928 2.7669-7.34411 6.7327-7.34411z" fill="#afafaf"/><path d="m64.1604 2.49316h104.1016c3.262 0 6.032 2.3293 6.624 5.48563.046.22611.081.45223.102.69383l5.807 66.40668c.34 3.9524-2.774 7.3379-6.739 7.3379h-104.1017c-3.5104 0-6.4321-2.67-6.7389-6.167l-5.7939-66.40674c-.3408-3.95237 2.7731-7.3503 6.7389-7.3503z" fill="#d7dbe0"/><path d="m64.1571 6.54509h104.1079c1.419 0 2.577 1.06553 2.698 2.47488l5.803 66.40983c.084 1.0376-.402 1.7469-.709 2.0722-.298.3283-.964.8766-1.999.8766h-104.1101c-1.419 0-2.5778-1.0656-2.6987-2.4749l-5.8031-66.40672c-.0837-1.03765.4027-1.74697.7095-2.07531.3005-.32833.9636-.87968 1.9984-.87968z" fill="#16325b"/><path d="m64.1571 6.54509h104.1079c1.419 0 2.577 1.06553 2.698 2.47488l.347 3.92453h-109.5634l-.3005-3.44752c-.0837-1.03765.4027-1.74697.7095-2.07531.3005-.32833.9636-.87968 1.9984-.87968z" fill="#15cefb"/><path d="m146.734 11.4112h-61.4553l-.3471-3.336h61.4554z" fill="#8ce9ff"/><path d="m64.8914 8.71288c-.0992-.08983-.2479-.08983-.3254 0-.0805.08982-.0619.23541.0372.32523l2.5716 2.29519c.0992.0899.2448.0899.3254 0 .0774-.0898.0619-.2354-.0372-.3252z" fill="#fff"/><path d="m66.8713 8.71288-2.0295 2.29522c-.0774.0898-.0619.2354.0403.3252.0992.0899.2448.0899.3253 0l2.0295-2.29519c.0805-.08982.0619-.23541-.0372-.32523-.0992-.08983-.2479-.08983-.3253 0z" fill="#fff"/><path d="m70.4345 8.47754c-.8583 0-1.4748.69383-1.3757 1.54876.0961.8549.8706 1.5487 1.7227 1.5487.8551 0 1.4717-.6938 1.3756-1.5487-.0929-.85493-.8675-1.54876-1.7226-1.54876zm.3067 2.74436c-.6599 0-1.2579-.5359-1.3323-1.1956-.0743-.65979.4028-1.19565 1.0658-1.19565.6631 0 1.2611.53586 1.3323 1.19565.0744.6597-.4027 1.1956-1.0658 1.1956z" fill="#fff"/><path d="m76.6746 10.9736h-2.7916c-.0961 0-.1674.0775-.1581.1735.0124.096.0992.1765.1952.1765h2.7916c.0961 0 .1674-.0774.155-.1765-.0093-.096-.0961-.1735-.1921-.1735z" fill="#fff"/><path d="m165.151 10.875h2.791c.096 0 .183.0805.189.1766.009.096-.062.1765-.158.1765h-2.791c-.097 0-.183-.0774-.189-.1765-.01-.0961.061-.1766.158-.1766z" fill="#fff"/><path d="m165.061 9.84961h2.791c.096 0 .183.08053.189.17659.01.096-.062.1765-.158.1765h-2.791c-.096 0-.183-.0805-.189-.1765-.01-.09606.062-.17659.158-.17659z" fill="#fff"/><path d="m164.971 8.82129h2.792c.096 0 .182.07744.189.17655.009.09603-.062.17656-.161.17656h-2.792c-.096 0-.183-.08053-.189-.17656-.009-.09602.062-.17655.161-.17655z" fill="#fff"/><path clip-rule="evenodd" d="m186.75 53.4874c1.168.1239 2.001 1.1925 1.837 2.3571-.155 1.1058-1.156 1.8895-2.268 1.778-2.479-.2478-6.345-.858-8.756-2.0041l.437-2.5647c1.18.2044 4.895.0217 8.75.4368z" fill="#68cbe3" fill-rule="evenodd"/><path clip-rule="evenodd" d="m170.186 45.5889c-.137-.2508-.062-.5668.213-.6969-.158-.2664.078-.4553.317-.4832-.258-.4243-.437-.7929-.062-.8983.182-.0526.821 1.0935 1.106 1.4806.483.6567.827.1332 1.155.7341.357.6474.23 1.1647.205 1.7563-.019.3965.207.6288.378.9292.734 1.2824 3.2 3.2152 5.242 5.0737.7.635-.062 2.2581-.774 2.224-1.8-.0898-4.865-5.0706-6.082-6.6813-.93-1.2297-1.33-2.0443-1.683-2.4934-.331-.4182-.365-.7372-.015-.9478z" fill="#fcb21d" fill-rule="evenodd"/><path clip-rule="evenodd" d="m170.186 45.5889c-.136-.2508-.062-.5668.214-.6969-.158-.2664.077-.4553.316-.4832-.257-.4243-.437-.7929-.062-.8983.183-.0526.821 1.0935 1.106 1.4806.201.2726.524 1.27-.291 1.8028-.508.3314-1.134-.0899-1.264-.2571-.332-.4182-.366-.7372-.016-.9479z" fill="#f0bf97" fill-rule="evenodd"/><path clip-rule="evenodd" d="m173.727 48.2093c.734 1.2824 3.476 3.3608 5.521 5.2193.7.638-.449 2.4532-1.162 2.416-1.784-.0898-5.174-4.8259-6.41-6.4768.545-.1642 1.524-.9602 1.918-1.3629.046.065.093.1332.133.2044z" fill="#68cbe3" fill-rule="evenodd"/><path clip-rule="evenodd" d="m172.82 50.2162c1.462 1.2018 3.956 3.3701 5.316 4.3767 1.596 1.1802 3.009.8828 4.824 1.1182 1.918.2478 3.371 1.3288 5.147 1.1957-.477.7031-1.14.7805-1.791.7155-2.308-.2323-5.816-.7744-8.236-1.7749-1.468-.0743-4.015-3.2833-5.561-5.3431-.149-.1983.108-.4461.301-.2881z" fill="#2ba2cb" fill-rule="evenodd"/><path clip-rule="evenodd" d="m172.451 43.7334c.195.6845.356.9726.489 1.2266l.202 1.4558-.666-.4522c-.115-.2695-.211-.6846-.109-1.1027-.282-.4677-.232-.8859.081-1.1275z" fill="#fcb21d" fill-rule="evenodd"/><path d="m187.146 50.3621c-.555-.923.812-1.5797 1.831-1.9885.601-.2416 1.215-.4523 1.834-.6381.115-.0341.257-.062.344.0217.105.1022.044.2787-.025.4088-.471.8735-.275 3.9307.081 5.148.025.0806-4.251.7155-4.251.7155s.871-2.5337.186-3.6674z" fill="#fcb21d"/><path d="m188.466 48.7514c.517-.1982 1.816-.858 2.345-1.0159.115-.0341.258-.062.344.0217.106.1022.044.2787-.024.4088-.471.8735-.276 3.9307.08 5.148.016.0558-2.039.381-3.296.5731.579-.8797.948-3.813.548-5.1326z" fill="#fcb21d"/><path d="m185.417 46.1492c.738-.4367 1.469-1.6231 1.738-2.289.698-1.7222 3.26-1.0129 4.121.8208.443.9447.384 2.0567.087 3.0572-.378 1.27-1.193 2.4749-2.411 2.9922-.39.1641-2.326.5142-2.782.2385-.635-.3841-.613-3.1316-.92-3.8811-.263-.6474-.016-.8302.167-.9386z" fill="#fcb21d"/><path d="m190.068 48.7077c.985-1.2019 1.307-2.6732.768-4.163-.18-.4987-.458-.9138-.805-1.239.511.3128.966.7836 1.245 1.3752.443.9448.384 2.0568.087 3.0572-.378 1.27-1.193 2.4749-2.411 2.9922-.365.1549-2.085.4708-2.677.285.245-.0124.493-.0403.747-.0991 1.159-.2788 2.302-1.2948 3.049-2.2054z" fill="#fff" opacity=".2"/><path d="m189.299 42.1535c4.158-.7434 5.063 2.1434 4.976 4.3303-.087 2.2456-2.386 4.1661-3.315 4.4572-.124.0372-1.85.1177-2.807-1.9793-.192-.4212-.304-.8394-.093-.9571.756-.4243 1.047-1.6571.731-1.97-.486-.4801-.716.3314-1.035.0867-.282-.2168-.666-1.7376-.241-2.5523.316-.6071 1.007-1.2761 1.784-1.4124z" fill="#292969"/><path d="m191.595 47.3413c-.037-.3531-.279-1.1027-.353-1.4496-.322-1.5209 1.038-2.7506 2.308-1.9824.753.4553 1.339 3.0603-.279 5.1201-.601.7651-1.859 1.9328-2.534 1.9328-.703 0 1.007-2.1961.858-3.6178z" fill="#fff" opacity=".1"/><path d="m194.442 43.3428c1.268 0 2.293 1.0252 2.293 2.2921s-1.025 2.2921-2.293 2.2921c-1.267 0-1.713-1.0252-1.713-2.2921s.446-2.2921 1.713-2.2921z" fill="#292969"/><path d="m174.313 108.996c1.122-.402 2.615-1.229 3.089-1.663.307-.285.381-.722.4-1.155.341.158.731.223 1.121.22.4 0 .797-.078 1.128-.205.031.644.022 1.289.099 1.924.041.313.115.647-.043.914-.208.356-.707.396-1.116.402-.932.013-1.868.068-2.797.174-.8.083-1.63.204-2.395-.056-.155-.05-.335-.174-.282-.332.22-.034.499-.114.799-.226z" fill="#3d6acc"/><path d="m174.313 108.996c.025-.003.043-.012.071-.021.341.065.697.102 1.06.08 1.555-.08 3.08-1.14 3.479-2.654.4 0 .797-.078 1.128-.205.031.645.022 1.289.099 1.924.041.313.115.647-.043.914-.208.356-.707.396-1.116.402-.932.013-1.868.068-2.797.174-.8.083-1.63.204-2.395-.056-.155-.05-.335-.174-.282-.331.22-.035.499-.115.799-.227z" fill="#3d6acc"/><path d="m173.303 109.114c.164-.071 1.633-.601 2.466-.895.313-.108.555.319.555.57 1.899-.006 3.547-1.292 3.808-1.1.483.357.855 1.475-.096 1.912-.124.055-.422.093-1.432.096-.905.003-1.797.523-2.358.526-.966.003-2.686.009-2.946.009-.316 0-.527-.892.003-1.118z" fill="#004c76"/><path d="m173.699 109.575c1.218.189 2.603-.086 3.814-.275 1.175-.186 2.045-.533 2.993-1.1.208.477.189 1.1-.471 1.4-.124.056-.421.093-1.431.096-.905.003-1.797.524-2.358.527-.967.003-2.686.009-2.946.009-.279 0-.474-.697-.149-1.013.105.18.285.316.548.36z" fill="#68cbe3"/><path d="m178.393 109.657 2.191-.638-.462 1.189-1.852.009s.173-.334.127-.557z" fill="#68cbe3"/><path d="m179.279 106.03v-.007c.034.016.062.041.096.056-.034-.018-.062-.034-.096-.052z" fill="#d0aecf"/><path d="m189.126 107.349c.53-.48.372-1.419.409-2.026.043-.709 2.153-.111 2.169-.003.133.935.052 1.893.164 2.831.037.307.108.644-.05.911-.21.356-.703.393-1.118.399-.933.01-1.868.062-2.798.158-.802.084-1.633.199-2.395-.062-.152-.052-.332-.179-.279-.331 1.032-.152 3.287-1.323 3.898-1.874z" fill="#3d6acc"/><path d="m190.774 105.224c-.028-.068-.065-.133-.099-.202.52.078 1.022.245 1.029.298.133.935.052 1.892.164 2.831.037.307.108.644-.05.911-.21.356-.703.393-1.118.399-.868.009-1.732.059-2.594.143 1.711-.79 3.502-2.358 2.668-4.38z" fill="#3d6acc"/><path d="m185.021 109.114c.164-.068 1.632-.594 2.469-.882.313-.109.555.319.555.57 1.896 0 3.553-1.28 3.811-1.084.48.356.848 1.48-.106 1.908-.124.055-.424.089-1.434.089-.902 0-1.797.515-2.358.515-.967 0-2.686 0-2.947 0-.316 0-.523-.896.01-1.119z" fill="#004c76"/><path d="m185.522 109.527c.508.139 1.069.133 1.574-.003.357-.096 2.47-.353 3.142-.387.821-.044 1.497-.44 1.89-1.097.301.486.375 1.251-.378 1.589-.124.056-.424.09-1.435.09-.901 0-1.797.514-2.357.514h-2.947c-.276 0-.471-.691-.152-1.01.196.13.416.236.663.304z" fill="#68cbe3"/><path d="m191.698 85.828c-.27 4.5874.564 5.8512.777 8.4933.214 2.6793-.418 12.8177-.418 12.8177s-1.552.446-2.826 0l-4.269-33.7938 7.721-.7124s-.719 8.6079-.988 13.1952z" fill="#afe3e8"/><path d="m192.475 75.179c-.232 2.9055-.601 7.6384-.777 10.6461-.27 4.5873.564 5.8511.777 8.4932.214 2.6793-.418 12.8177-.418 12.8177s-.651.186-1.453.198c.282-3.773.926-7.298-.589-10.4541-.48-1.0036-.666-3.9152-.666-5.1139 0-2.4129.641-6.5233-.347-9.9367-.198-.6845-.322-3.0634-.397-5.1697h.047c1.651 0 2.925-.5854 3.826-1.4867z" fill="#fff"/><path d="m189.507 73.506c.127.4646.034 1.0872-.164 1.6355-.505 1.4062-5.184 14.1833-5.128 15.3139.22 4.2342-2.268 8.0472-4.121 16.8256-.722.251-2.138.455-2.853-.322.3-4.681 3.913-30.1108 4.344-33.1866.049-.0341 5.732.6009 7.922-.2695z" fill="#afe3e8"/><path d="m180.138 98.28c.582-1.4558 2.023-4.5564 2.342-6.1454.378-1.8678.214-7.31.567-9.0756.242-1.2018.335-2.4625.883-3.5187.313-.6009.75-1.0253 1.115-1.5549.059 0 .115.0093.174.0093 1.481 0 2.652-.474 3.529-1.2174-1.391 3.8471-4.583 12.743-4.533 13.6785.22 4.2342-2.268 8.0472-4.121 16.8252-.412.146-1.001.381-1.524.22.455-1.384.536-3.41.756-4.696.282-1.632.198-2.9887.815-4.5281z" fill="#fff"/><path d="m181.997 59.7134c0-1.2111 2.633-4.8816 4.192-5.8511 1.558-.9726 2.119-1.5395 4.102-1.1864 2.153.3841 1.726 3.5435 1.726 9.7602 0 .4894.998 11.1416 1.149 12.0429-1.732 1.2111-10.091 1.0749-12.052.4089 0-5.4144 1.369-9.1902 1.369-11.7456 0-.889-.486-1.5457-.486-3.4289z" fill="#68cbe3"/><path d="m190.291 52.6758c2.243.6226 1.726 3.5435 1.726 9.7601 0 .4894.997 11.1416 1.149 12.043-.743.5203-2.612.8053-4.657.9106 0-2.4563 1.736-3.3576 1.736-5.5104 0-1.3319-1.605-2.7381-1.503-3.7944.189-1.9886.666-6.9941-.229-9.9614-.286-.9417 1.087-3.6396 1.781-3.4475z" fill="#2ba2cb"/><path d="m192.299 109.047-.468 1.186h-1.853s.174-.334.127-.557z" fill="#68cbe3"/><path d="m66.3728 17.4014h20.7124c.5732 0 1.0751.4677 1.1154 1.0438.0403.573-.3966 1.0408-.9698 1.0408h-20.7124c-.5732 0-1.0752-.4709-1.1154-1.0408-.0403-.573.3966-1.0438.9698-1.0438z" fill="#3575d3"/><path d="m66.5215 22.8252h4.2168c.4462 0 .8366.3655.8706.8115.031.4461-.3098.8116-.756.8116h-4.2168c-.4462 0-.8366-.3655-.8675-.8116-.031-.446.3098-.8115.756-.8115z" fill="#3575d3"/><g fill="#15cefb"><path d="m67.2498 27.8896h15.343c.2788 0 .5205.2262.5391.5049.0186.2757-.1921.5049-.4679.5049h-15.343c-.2788 0-.5205-.2261-.5391-.5049-.0186-.2787.1921-.5049.471-.5049z"/><path d="m67.5346 32h15.343c.2757 0 .5205.2292.5391.5049s-.1921.5049-.4709.5049h-15.343c-.2789 0-.5206-.2292-.5392-.5049-.0185-.2757.1921-.5049.471-.5049z"/><path d="m67.823 36.1133h15.343c.2789 0 .5205.2261.5391.5049.0186.2756-.1921.5049-.4678.5049h-15.343c-.2789 0-.5206-.2262-.5392-.5049-.0185-.2788.1921-.5049.471-.5049z"/><path d="m68.1108 40.2236h15.343c.2788 0 .5205.2292.5391.5049.0186.2788-.1921.5049-.471.5049h-15.343c-.2788 0-.5205-.2261-.5391-.5049-.0186-.2757.1921-.5049.471-.5049z"/><path d="m68.3988 44.334h5.1588c.2788 0 .5205.2261.5391.5049.0186.2787-.1921.5049-.4709.5049h-5.1588c-.2757 0-.5205-.2262-.5391-.5049-.0186-.2757.1921-.5049.4709-.5049z"/><path d="m77.4031 44.334h1.2021c.2758 0 .5206.2261.5391.5049.0186.2787-.1921.5049-.4678.5049h-1.2022c-.2788 0-.5205-.2262-.5391-.5049-.0186-.2757.1921-.5049.471-.5049z"/><path d="m68.684 48.4443h15.343c.2789 0 .5205.2262.5391.5049.0186.2757-.1921.5049-.4709.5049h-15.343c-.2758 0-.5206-.2261-.5391-.5049-.0186-.2787.1921-.5049.4678-.5049z"/></g><path d="m71.5872 71.5518h4.6568c.3873 0 .725.3159.7529.7031s-.2664.7031-.6537.7031h-4.6569c-.3872 0-.725-.3159-.7528-.7031-.0279-.3872.2695-.7031.6568-.7031z" fill="#fab01d"/><path d="m71.3519 68.1934h4.6568c.3873 0 .725.3159.7529.7031s-.2665.7031-.6538.7031h-4.6568c-.3873 0-.725-.3159-.7529-.7031s.2665-.7031.6538-.7031z" fill="#fab01d"/><path d="m71.1165 64.8359h4.6568c.3873 0 .725.316.7529.7032.0279.3871-.2664.7031-.6537.7031h-4.6568c-.3873 0-.725-.316-.7529-.7031-.0279-.3872.2664-.7032.6537-.7032z" fill="#fab01d"/><path d="m70.8841 61.4785h4.6568c.3873 0 .725.316.7529.7031.0279.3872-.2665.7032-.6537.7032h-4.6569c-.3872 0-.725-.3191-.7529-.7032-.0278-.3871.2665-.7031.6538-.7031z" fill="#fab01d"/><path d="m80.5848 61.4785h3.0178c.3873 0 .725.316.7529.7031.0278.3872-.2696.7032-.6538.7032h-3.0178c-.3873 0-.725-.3191-.7529-.7032-.0279-.3871.2665-.7031.6538-.7031z" fill="#fab01d"/><path d="m81.1023 68.9033h3.0178c.3873 0 .725.316.7529.7031.0248.3872-.2664.7032-.6537.7032h-3.0178c-.3873 0-.725-.316-.7529-.7032-.0279-.3871.2696-.7031.6537-.7031z" fill="#fab01d"/><path d="m63.9932 54.0965c2.2711-1.2761 12.003-3.0045 13.2392-3.1842 1.6546-.2416 1.9427 2.5368 1.4377 3.1254-.66.7681-2.4043 1.7438-5.4097 2.5058-2.3176.5885-6.804 2.5771-8.316.9293-.976-1.0625-3.402-1.9979-.9512-3.3763z" fill="#2ba2cb"/><path clip-rule="evenodd" d="m84.0859 44.0204c.316-.7465.9729-1.4899 1.5306-1.9979.3315-.3004.9357-.796 1.2455-1.0624.2541-.2199.598.3531.2851.6876.2107.0682.4337.57.2416.7837.2262.1703.2882.6195.1178.8239.2788.254.2448.6133-.1332.9324-.4028.3407-.787.8394-1.856 1.7872-.1766.158-.4616.542-.6196.6938-.2696-.3965-1.3044-1.4806-1.6545-1.7717.1828-.1797.6754-.4832.8396-.8704z" fill="#e8d7b9" fill-rule="evenodd"/><path clip-rule="evenodd" d="m86.5831 42.1407c.0124.5761.3997 1.6943.8645 1.9762v.0093c-.1921.1518-.3749.3407-.6166.5885-.3222.3283-.8149.3996-1.2301.2013-.1363-.065-.3253-.1239-.5793-.161-.378-.0558-.5206-.5514-.3285-.9076.4493-.8332 1.8838-2.0288 1.89-1.7067z" fill="#f0bf97" fill-rule="evenodd"/><path d="m78.1679 49.4171c1.4563-1.1678 5.4005-5.1759 5.4005-5.1759s.9821.9262 2.1223 2.382c0 0-4.7497 5.3214-6.5034 7.1211-2.6553 2.7226-4.2075-.3098-3.8543-1.4713.3253-1.0687 1.9116-2.1156 2.8349-2.8528z" fill="#2ba2cb"/><path d="m70.2858 54.9209c2.1224-.5296 3.0612-2.1465 5.0069-1.5952 1.7382-1.3505 4.0589-1.8646 6.4849-4.0855.7994-.731 2.2029-3.1223 3.0395-3.6767.2695.3097.5639.6628.8737 1.0562 0 0-4.7498 5.3215-6.5034 7.1211-.2479.254-.4927.4615-.7281.635-.8676.7372-3.1542 1.6169-5.1991 2.1682-3.9225 1.0624-6.017 2.1311-7.4298.9014-.883-.7682 1.0565-1.6789 4.4554-2.5245z" fill="#1d6a9e"/><path d="m54.2828 112.462c.0217-.139 2.7358-.911 2.7916.003.0496.781-.158 1.986.5267 2.605.7839.71 3.687 2.215 5.0131 2.41.0682.198-.1611.362-.3594.427-.9822.332-2.0511.186-3.0828.081-1.196-.124-2.3951-.192-3.5972-.204-.5329-.007-1.1681-.056-1.4407-.515-.2014-.343-.1085-.774-.062-1.17.1456-1.208.0403-2.438.2107-3.64z" fill="#69cce5"/><path d="m54.2829 112.462c.0093-.068.6569-.285 1.323-.384-.0433.084-.0898.167-.127.257-1.072 2.599 1.23 4.615 3.4299 5.635-1.1092-.109-2.2246-.174-3.3369-.183-.533-.006-1.1681-.056-1.4408-.514-.2014-.344-.1084-.775-.0619-1.171.1456-1.208.0402-2.438.2106-3.64z" fill="#69cce5"/><path d="m54.0908 115.548c.3346-.251 2.4631 1.393 4.9046 1.393 0-.325.3068-.873.7127-.734 1.072.372 2.962 1.047 3.1758 1.134.6847.288.4151 1.437.0123 1.437-.3346 0-2.5468 0-3.7892 0-.7219 0-1.8714-.663-3.0333-.663-1.2982 0-1.6824-.043-1.8435-.117-1.227-.552-.7529-1.995-.1332-2.454z" fill="#346790"/><path d="m56.1698 117.368c.8644.044 3.5817.375 4.0402.499.6507.173 1.3726.183 2.0264.006.3191-.087.601-.22.8551-.39.409.409.1611 1.301-.1952 1.301h-3.7893c-.7219 0-1.8714-.663-3.0332-.663-1.2982 0-1.6824-.043-1.8436-.118-.9697-.436-.8737-1.418-.4864-2.044.5081.846 1.3788 1.354 2.4322 1.409z" fill="#143549"/><path d="m56.5013 118.781h-2.3826l-.6011-1.527 2.8195.811c-.062.289.1642.716.1642.716z" fill="#143549"/><path d="m75.7859 111.812c.3811.681.7219 1.858 1.6049 2.119 1.0132.3 4.2819.396 5.5646 0 .1457.148.0093.396-.1363.542-.7405.724-1.7691 1.059-2.742 1.409-1.1309.406-2.2432.867-3.3307 1.375-.4834.226-1.0752.459-1.5213.161-.3316-.22-.4338-.65-.5639-1.028-.3935-1.149-1.0225-2.212-1.3881-3.37-.0434-.133 2.0697-2.004 2.5159-1.205z" fill="#69cce5"/><path d="m74.2922 112.097c0 .096-.0062.189 0 .288.1611 2.806 3.1107 3.627 5.5367 3.587-1.0472.384-2.079.808-3.0859 1.282-.4834.226-1.0751.458-1.5213.161-.3315-.22-.4338-.65-.5639-1.028-.3935-1.149-1.0225-2.212-1.3881-3.37-.0217-.065.4679-.539 1.0256-.92z" fill="#69cce5"/><path d="m79.4573 115.008c-.1394-.291-.1023-.92.3222-.969 1.1278-.131 3.1232-.341 3.3524-.354.7405-.037 1.0008 1.116.6352 1.292-.3036.146-2.2959 1.103-3.4175 1.645-.6506.313-1.9736.214-3.0209.718-1.1711.564-1.5336.691-1.7103.694-1.3477.034-1.5429-1.471-1.1866-2.156.1921-.368 2.8257.189 5.0255-.87z" fill="#346790"/><path d="m77.0963 116.619c.7993-.335 3.3896-1.217 3.8543-1.304.6631-.124 1.3168-.428 1.828-.874.251-.216.4462-.458.6011-.721.5484.192.7095 1.099.3873 1.254l-3.4175 1.645c-.6506.313-1.9736.214-3.0209.719-1.1711.563-1.5336.69-1.7102.693-1.0628.028-1.4036-.898-1.3261-1.629.8241.539 1.828.623 2.804.217z" fill="#143549"/><path d="m78.007 117.747-2.1471 1.034-1.2022-1.115 2.8908-.492c.0681.285.4585.573.4585.573z" fill="#143549"/><path d="m68.1388 73.7725c1.9675 7.3688 7.2595 33.5455 9.0286 39.1425-.6785 1.317-2.3423 2.026-3.9008 1.753-1.0875-1.97-11.0859-30.8721-13.0037-38.0273-.0713-.2664 5.7908-2.6452 7.8759-2.8651z" fill="#004c76"/><path d="m63.6304 75.0977c.9388 3.37.0248 7.4803 2.299 10.1937 1.4128 1.6882 1.4624 4.225 1.4562 6.483-.0031 1.7191.4152 3.6117 1.3292 5.0985.9698 1.5766 1.9148 2.5864 2.1534 4.5441.2323 1.905 1.0286 4.581 1.4128 6.474.6878 3.367 2.9217 2.948 4.1859 6.099-.8242.7-1.89.17-3.0271-.028-1.0875-1.97-11.2625-30.1635-13.1804-37.3187-.0372-.1394 1.5492-.858 3.3679-1.5425z" fill="#69cce5"/><path d="m55.1753 75.8196c1.6328-.3315 8.8674-1.2576 9.6575.3686 1.1929 2.4501-6.1688 35.6518-6.8721 38.3098-1.4191.613-3.2657.226-4.0588-.202.2292-6.935 1.3787-12.427 1.577-18.4389.2355-7.1273-.4864-14.5612-.3067-20.0375z" fill="#004c76"/><path d="m55.1749 75.8198c.533-.1084 1.701-.3934 3.0581-.6753-.5329.8085-.4988 5.3927-.474 5.8233.1766 3.1842-1.0597 6.5666-.9698 7.2883.505 4.0329-.3068 6.6565-.2851 7.8552.0248 1.3474.6197 3.8378.2851 6.9227-.1766 1.633-1.1867 4.826-1.6669 6.489-.2696.93.4554 4.018.3222 5.176-.5701-.102-1.0937-.275-1.5368-.399.2293-6.936 1.3788-12.427 1.5771-18.4396.2354-7.1273-.4865-14.5612-.3068-20.0375z" fill="#69cce5"/><path d="m60.5975 52.1924c2.2772 0 7.7396.2044 8.1176 4.1289.1518 1.6014.8397 19.7774.6259 20.273-.4307.985-14.6025.8611-14.7822.1424-.2076-.8332-.7188-13.0248-1.0287-16.7728-.2881-3.466 1.2765-7.7715 7.0674-7.7715z" fill="#2ba2cb"/><path d="m67.0792 67.1527c.3191 1.6416-1.9613 1.7748-2.6925 1.5239-.9574-.3314-2.6057-1.5797-4.3563-4.1382-3.089-4.5192-3.8512-5.7582-3.8512-5.7582l4.3129-2.8652s6.2679 9.596 6.584 11.2346z" fill="#2ba2cb"/><path d="m66.7353 68.2899c-.6228.5483-1.8467.5576-2.3486.3872-.9574-.3314-2.6057-1.5797-4.3563-4.1382-3.089-4.5192-3.8512-5.7582-3.8512-5.7582l.4245-2.4594c.8334 3.4196 6.1285 9.6455 10.1285 11.9686z" fill="#1d6a9e"/><path d="m60.5975 52.1915c.536.0248 1.2207.1518 1.9581.3408-3.7366 1.2823-7.6591 2.3169-7.2284 6.421.1301 1.2483 1.9891 5.3834 2.0511 6.576.1084 2.0598-1.4438 2.0567-.5794 3.2461 1.1464 1.5797 1.4438 1.0531 1.9086 2.1961.5732 1.4125-2.0976 1.8027-1.4222 3.4816.7498 1.8677 2.3951 1.3907 3.1046 2.8311-3.0488-.0372-5.7536-.2323-5.8311-.5483-.2076-.8332-.7188-13.0249-1.0287-16.7728-.2881-3.4661 1.5616-8.0348 7.0674-7.7716z" fill="#1d6a9e"/><path d="m61.6817 49.6052c.1177 1.0903 1.6297 1.4899 1.6297 2.7722 0 1.0749-4.6568 1.4651-4.7157-.0805-.0557-1.5456-.189-4.4356-.189-4.4356s3.1573.6567 3.275 1.747z" fill="#69cce5"/><path d="m59.1165 42.6921c.4926-.5606 1.2176-.8858 1.955-.9943.7374-.1115 1.4934-.0278 2.2246.1208.5423.1116 1.0163.3717 1.2611.8673 2.1502 4.3551.8768 2.7537 1.103 4.8228.0867.8023.1704 1.6417-.1332 2.3882-.4896 1.2018-1.9582 2.1775-3.1944 1.7748-2.8071-.9137-3.9752-3.6674-3.969-3.9431.0248-.8704-.093-1.7377-.062-2.608.0341-.8704.2355-1.7749.8118-2.4254z" fill="#69cce5"/><path d="m63.3777 52.3128s-.0225 0-.0354-.0032c.0129 0 .0225 0 .0354.0032z" fill="#e8d7b9"/><path d="m63.1328 52.2754s-.0102 0-.0137 0c.0035 0 .0069 0 .0103.0034z" fill="#e8d7b9"/><path d="m60.3247 41.8898c.6413-.1115 2.5096.158 2.931 2.0041.0248.1115.1549 1.0283.1735 1.1119.093.4987 1.0627 1.4404 1.1526 2.0599.1735 1.1398-.3842 3.3452-1.1402 4.101-.285.2912-.6042.4584-.9419.5452-.0558-.0124-.1115-.0248-.1673-.0403-2.804-.9137-3.9752-3.6705-3.9659-3.9431.0248-.8704-.0929-1.7408-.0619-2.608.034-.8704.2385-1.7718.8117-2.4285.3253-.3655.725-.7155 1.2084-.7991z" fill="#69cce5"/><path d="m60.9659 40.9384c2.6429-.3624 3.7025 1.3691 4.4213 1.5425-1.9581 1.4435-5.0441.7032-4.9914 1.1895.3315 3.1284-.7715 3.2616-.9419 3.7975-.2169.6814-1.0193 1.431-1.2269 1.5022-2.0139-5.0612-.3904-7.6012 2.7389-8.0317z" fill="#fcb21d"/><path d="m59.6865 41.2707c.3873-.158.8149-.2664 1.2796-.3315 2.0604-.2818 3.1572.7063 3.8823 1.239-.0372.0279-2.5593 1.0408-5.007.5916-.7777-.1424-.8861-1.1987-.1518-1.496z" fill="#fcb21d"/><path d="m59.9374 45.6441c1.0906.3624 2.2122 1.843.7002 2.5244-.4586.2075-1.0287.1456-1.4315-.158-.2974-.223-.4957-.5544-.6165-.9044-.1549-.443-.1673-1.0005.1797-1.3196.3036-.2787.7777-.2756 1.1712-.1455z" fill="#69cce5"/><path d="m60.4952 46.644s-.3532.1518-.4802.3252c-.1302.1797-.2479.6381-.2479.6381s-1.0937-.7806-.5856-1.2297c.5082-.4491 1.3106.2664 1.3106.2664z" fill="#69cce5"/><path d="m62.4719 48.4966c.0186-.4863.3656-1.0005 1.0318-1.1925.5639-.1611 1.9147-.4585 2.1502-.2045.5515.5978.2231 1.1213.3904 1.5457.3687.9478.7901 1.4651.663 2.1124-.3718 1.8926-2.8907 3.3081-5.1122 1.9886-2.1627-1.2854-1.2053-3.9462-1.0689-4.6803.3129-1.6912-1.1712-3.051-1.1712-3.051l.7374-1.0345s1.2238 4.2342 2.3795 4.5192z" fill="#fcb21d"/><path d="m61.7188 48.2242c-.3997.3004-1.1247-2.5028-1.0875-2.6422.3036.8085.7095 1.7377 1.1463 2.3324-.034.1022.0217.2478-.0588.3098z" fill="#fcb21d"/><path d="m66.041 50.7732c.1053-.5328-.1023-1.3753-.3935-1.524-.1394-.0712-1.7382-.0093-1.7723-.4956-.0309-.4367.8986-.2075 1.3633-.7496.1952-.2261.0434-.6319-.1983-.9943.2913-.0216.5267 0 .6135.0899.5515.5978.2231 1.1212.3904 1.5456.3687.9478.7901 1.4651.663 2.1125-.3563 1.8151-2.6862 3.1842-4.8365 2.1279 1.9117.4554 3.8543-.5079 4.1673-2.1155z" fill="#fff" opacity=".3"/><path clip-rule="evenodd" d="m64.2378 50.9959c.2416-.3067.7807-.1177.7838.412.2324-.1085.691.0743.6972.4057.3253-.034.7312.2943.7467.6009.4368-.0062.6909.3253.6227.8921-.0712.6071 0 1.3319-.158 2.9736-.0248.2726.1023 2.8249.0899 3.0758-.5422-.1239-2.2959-.412-2.8226-.3841.0124-.2943.1518-2.7537-.0155-3.2121-.3222-.8797-.3532-2.0257-.2851-2.8961.0434-.5142.0806-1.5426.3409-1.8709z" fill="#69cce5" fill-rule="evenodd"/><path clip-rule="evenodd" d="m64.2378 50.9959c.2417-.3067.7808-.1177.7839.412.1766-.0837.474.0123.6135.2044-.3161.0681-.4524.3841-.3811.6536.2013.7557-.2789 2.7102-.4183 4.0143-.0992.9385-.2107 1.8089-.1704 2.7134-.1952-.0186-.3625-.0248-.471-.0217.0124-.2943.1518-2.7537-.0155-3.2121-.3222-.8797-.3563-2.0257-.285-2.8961.0434-.5142.0805-1.5426.3408-1.8709z" fill="#69cce5" fill-rule="evenodd"/><path clip-rule="evenodd" d="m64.3991 50.86 1.7877-.7464c.1673-.0682.3625.0093.4307.1765.0681.1673-.2045.508-.3718.5761l-1.5926.601c-.1704.0681-.3625-.0093-.4337-.1766-.0713-.1673.0093-.3624.1766-.4306z" fill="#69cce5" fill-rule="evenodd"/><path clip-rule="evenodd" d="m87.3485 43.4232c.0868-.1084.2479-.1239.3532-.0372.1085.0867.124.2478.0372.3531 0 0-.8086 1.0315-1.1402 1.0562-.0867.0062-.2292-.1208-.1394-.2292l.8892-1.146z" fill="#e8d7b9" fill-rule="evenodd"/><path clip-rule="evenodd" d="m88.1476 39.7773c.1394-.1363.3315.0434.3346.1673 0 .4615-1.3323 1.7036-1.3323 1.7036-.1394.1332-.3594.1301-.4957-.0062-.1333-.1394-.1302-.3593.0062-.4956z" fill="#e8d7b9" fill-rule="evenodd"/><path clip-rule="evenodd" d="m86.89 41.9178c.1456-.127.3687-.1115.4957.0371.1271.1487.1085.3686-.0371.4956 0 0-1.3571 1.2173-1.8157 1.174-.1239-.0124-.285-.2199-.1363-.3469l1.4965-1.3567z" fill="#e8d7b9" fill-rule="evenodd"/><path clip-rule="evenodd" d="m87.0264 42.6794c.1332-.1147.3346-.0992.4493.034.1146.1332.0991.3346-.0341.4492 0 0-1.2363 1.1089-1.6545 1.0717-.1116-.0124-.2603-.2014-.1271-.316l1.3633-1.2389z" fill="#e8d7b9" fill-rule="evenodd"/><path d="m67.0482 58.0651s.4152 4.2869.5546 6.1454c.0899 1.1801-.127 2.4315-.474 3.5652-.3966 1.2885-3.8854 1.9886-3.7087-1.8089.1177-2.509.6909-8.0163.6909-8.0163 1.8404-.1611 2.9341.1177 2.9341.1177z" fill="#2ba2cb"/><path d="m64.0085 57.9783c.4182-.0372.7962-.0496 1.1309-.0496-.1488.2168-.2541.4615-.2913.7372-.4059 2.8899-1.7134 6.291.1363 8.9548.3347.4832.7529.7868 1.2053.9509-1.1464.5018-3.0023.2137-2.8722-2.5771.1178-2.5089.691-8.0162.691-8.0162z" fill="#1d6a9e"/><path d="m174.911 78.1278-45.242-2.0134-4.338-58.9449 44.148-1.273z" fill="#8ce9ff"/><path d="m129.324 76.5294-43.7761-1.7717-5.0162-74.292856 44.2263 16.695356z" fill="#8ce9ff"/><path d="m167.651 17.2409 5.199 59.5427h-43.033l-5.199-59.5427c12.97-8.14016 30.788 0 43.033 0z" fill="#fff"/><path d="m172.553 73.3635.291 3.4227h-43.027l-.303-3.4227c12.976-8.137 30.791 0 43.039 0z" fill="#fff"/><path d="m172.553 76.7865h-42.736-.303c10.909-12.0522 30.181-3.0138 43.039 0z" fill="#e1f8f9"/><path d="m129.455 76.5324-38.7821-3.1192-4.9976-72.2423 38.9557 16.0015z" fill="#fff"/><path d="m129.455 76.5321-34.0943-3.0819-5.1463-72.833989 34.4166 16.555989z" fill="#e1f8f9"/><path d="m129.817 76.7832-29.211-3.2895-5.3106-73.4937 29.3356 17.1724z" fill="#f5fcfc"/><path d="m90.6728 73.4132-3.3896-.0278-4.8892-71.81803 3.2812-.39647z" fill="#e1f8f9"/><path d="m85.5482 74.7577-1.8032-.0186-4.9574-74.060531 1.7444-.213725z" fill="#68cce5"/><g clip-rule="evenodd" fill-rule="evenodd"><g fill="#d7dbe0"><path d="m129.436 20.9109c1.887-.1239 3.771-.223 5.655-.2973-.047-.4956-.093-.9912-.139-1.4837-1.881.0774-3.765.1765-5.649.3035.044.4925.09.9881.133 1.4806z"/><path d="m129.669 23.5004c2.85-.1796 5.701-.3066 8.545-.3779-.046-.4956-.096-.9912-.142-1.4868-2.842.0713-5.686.2014-8.536.3841.043.4925.09.985.133 1.4775z"/><path d="m137.263 20.5394c2.695-.0774 5.388-.1053 8.074-.0805-.05-.4987-.099-.9974-.152-1.4961-2.683-.0217-5.372.0093-8.065.0867.047.4956.093.9912.143 1.4868z"/><path d="m146.53 20.4746c1.466.0217 2.928.0588 4.391.1115-.053-.4987-.106-1.0005-.155-1.4992-1.463-.0526-2.922-.0867-4.388-.1084.05.4987.103.9974.152 1.4961z"/><path d="m152.308 20.6419c1.779.0775 3.557.1766 5.333.2974-.056-.5018-.109-1.0036-.165-1.5054-1.772-.1208-3.547-.2199-5.326-.2943.053.5018.106 1.0005.158 1.5023z"/><path d="m145.656 21.5832c.05.4987.103.9974.152 1.493 3.129.0402 6.253.1486 9.369.3221-.052-.5018-.108-1.0005-.161-1.5023-3.113-.1734-6.234-.2788-9.36-.3159z"/><path d="m129.904 26.0867c1.893-.1177 3.787-.2106 5.677-.2788-.047-.4956-.093-.9912-.143-1.4837-1.887.0713-3.777.1642-5.67.2819.047.4925.09.985.133 1.4806z"/><path d="m130.143 28.6767c5.701-.3376 11.386-.4553 17.056-.3562-.053-.4987-.102-.9974-.155-1.4961-5.664-.096-11.343.0279-17.038.3717.047.4925.09.985.137 1.4775z"/><path d="m137.762 25.7403c3.482-.0867 6.959-.0929 10.426-.0124-.05-.4987-.102-.9974-.155-1.4961-3.467-.0743-6.94-.0681-10.417.0217.05.4956.096.9912.146 1.4868z"/><path d="m149.854 25.7746c1.872.0588 3.74.1424 5.608.2509-.052-.5018-.108-1.0005-.164-1.5023-1.865-.1053-3.733-.189-5.602-.2478.053.4987.106 1.0005.158 1.4992z"/><path d="m157.374 26.146c2.281.1549 4.561.3469 6.838.5761-.058-.5018-.114-1.0067-.173-1.5084-2.274-.2262-4.552-.4182-6.832-.5731.056.5018.108 1.0036.164 1.5054z"/><path d="m148.866 28.3603c3.22.0868 6.436.2478 9.645.4832-.055-.5017-.111-1.0035-.167-1.5053-3.207-.2292-6.416-.3872-9.633-.4739.053.4987.106.9973.155 1.4991z"/><path d="m139.686 23.0952c1.404-.0247 2.804-.034 4.204-.0309-.049-.4987-.099-.9974-.148-1.493-1.398 0-2.798.0093-4.199.0341.047.4956.097.9942.146 1.4898z"/><path d="m132.054 48.7853c1.924-.0868 3.845-.1518 5.766-.1921-.049-.4956-.099-.9912-.151-1.4868-1.918.0403-3.839.1085-5.76.1952.049.4956.096.9881.145 1.4806z"/><path d="m132.309 51.3776c2.906-.127 5.812-.1982 8.712-.2168-.052-.4956-.102-.9912-.155-1.4899-2.897.0217-5.8.096-8.703.2261.05.4925.096.9881.146 1.4806z"/><path d="m140.036 48.5591c2.748-.0279 5.497-.0062 8.239.0619-.053-.4987-.109-.9973-.162-1.496-2.738-.0682-5.48-.0868-8.229-.0558.05.4956.103.9912.152 1.4868z"/><path d="m149.492 48.6582c1.494.0465 2.99.1115 4.483.1889-.055-.5018-.111-1.0004-.167-1.5022-1.49-.0744-2.984-.1363-4.477-.1828.056.4987.108.9974.161 1.4961z"/><path d="m155.388 48.9212c1.816.1084 3.631.2354 5.444.3872-.059-.5018-.118-1.0036-.174-1.5085-1.812-.1486-3.625-.2756-5.437-.381.055.5018.111 1.0036.167 1.5023z"/><path d="m148.767 51.248c3.192.093 6.38.2509 9.565.4801-.059-.5017-.115-1.0035-.174-1.5053-3.182-.2261-6.367-.381-9.555-.4708.053.4986.108.9973.161 1.496z"/><path d="m132.563 53.9638c1.93-.0805 3.86-.1363 5.784-.1704-.049-.4956-.102-.9912-.151-1.4868-1.924.0372-3.852.093-5.782.1766.05.4925.099.9881.146 1.4806z"/><path d="m132.823 56.5567c5.809-.2292 11.61-.2447 17.391-.0434-.056-.4987-.111-1.0005-.164-1.4992-5.775-.1951-11.569-.1734-17.376.0589.05.4925.099.9881.149 1.4806z"/><path d="m140.575 53.7657c3.551-.0248 7.098.034 10.636.1703-.055-.4987-.108-1.0005-.164-1.4992-3.535-.1362-7.079-.1889-10.627-.161.053.4956.102.9912.155 1.4899z"/><path d="m152.91 54.0138c1.908.0899 3.817.2045 5.722.3469-.059-.5017-.117-1.0035-.173-1.5053-1.906-.1394-3.811-.2509-5.72-.3408.056.5018.112 1.0005.168 1.4992z"/><path d="m160.584 54.5093c2.33.192 4.657.4212 6.984.6845-.062-.5049-.124-1.0098-.183-1.5115-2.324-.2633-4.647-.4894-6.974-.6784.059.5018.117 1.0036.176 1.5085z"/><path d="m151.915 56.5783c3.284.1425 6.565.3593 9.84.6412-.059-.5018-.118-1.0036-.176-1.5085-3.272-.2819-6.55-.4925-9.831-.6319.055.4987.111 1.0005.167 1.4992z"/><path d="m142.521 51.1579c1.431 0 2.86.0154 4.288.0433-.053-.4987-.105-.9974-.161-1.493-1.429-.0278-2.854-.0402-4.285-.0402.052.4956.105.9943.155 1.4899z"/><path d="m133.108 59.403c1.937-.0743 3.873-.1239 5.806-.1486-.052-.4956-.102-.9912-.154-1.4868-1.934.0279-3.867.0805-5.801.1549.05.4924.1.988.149 1.4805z"/><path d="m133.368 61.9992c2.928-.1053 5.853-.1548 8.775-.1548-.053-.4956-.105-.9943-.158-1.4899-2.919 0-5.84.0557-8.765.1642.049.4925.099.9881.148 1.4805z"/><path d="m141.148 59.2362c2.77-.0093 5.534.031 8.298.1208-.056-.4987-.112-.9974-.165-1.4961-2.76-.0867-5.524-.1239-8.291-.1115.053.4956.106.9943.158 1.4899z"/><path d="m150.673 59.3976c1.505.0558 3.011.1301 4.514.2168-.059-.5018-.115-1.0004-.17-1.5022-1.503-.0868-3.006-.1549-4.512-.2138.056.4987.112.9974.168 1.4992z"/><path d="m156.615 59.7034c1.828.1178 3.659.2571 5.487.4213-.058-.5018-.117-1.0067-.179-1.5085-1.825-.161-3.65-.2973-5.478-.415.059.5018.114 1.0005.173 1.5022z"/><path d="m149.948 61.9834c3.216.1146 6.429.2942 9.635.542-.058-.5017-.117-1.0035-.176-1.5053-3.204-.2447-6.414-.4213-9.627-.5328.056.4987.112.9974.168 1.4992z"/><path d="m133.635 64.5855c1.945-.0651 3.885-.1084 5.828-.127-.053-.4956-.106-.9912-.158-1.4868-1.94.0217-3.879.065-5.822.1363.049.4925.102.9881.152 1.4806z"/><path d="m133.898 67.1778c5.853-.1858 11.693-.161 17.515.0775-.056-.4987-.112-.9974-.17-1.4992-5.819-.2323-11.653-.254-17.5-.0619.05.4925.102.988.152 1.4805z"/><path d="m141.542 62.9561c.052.4956.105.9912.158 1.4899 3.575 0 7.148.0837 10.714.2447-.056-.5018-.112-1.0005-.171-1.4992-3.563-.1579-7.132-.2385-10.704-.2354z"/><path d="m154.124 64.7746c1.924.1053 3.845.2323 5.766.3841-.059-.5018-.118-1.0036-.177-1.5054-1.917-.1518-3.838-.2757-5.759-.3779.055.5018.114 1.0005.17 1.4992z"/><path d="m161.858 65.3229c2.348.2076 4.694.4492 7.036.7279-.062-.5049-.124-1.0097-.186-1.5146-2.342-.2757-4.681-.5173-7.027-.7217.059.5017.118 1.0066.18 1.5084z"/><path d="m153.129 67.3361c3.309.1673 6.615.3996 9.915.7062-.062-.5018-.121-1.0067-.183-1.5085-3.296-.3004-6.599-.5327-9.902-.6969.056.4987.115 1.0005.17 1.4992z"/><path d="m143.655 61.8502c1.44.0124 2.878.0341 4.319.0744-.056-.4987-.112-.9974-.164-1.4961-1.438-.0372-2.876-.0589-4.316-.0681.052.4955.108.9942.161 1.4898z"/><path d="m135.952 33.6167c1.667-.0527 3.334-.0898 4.998-.1053-.05-.4956-.099-.9943-.149-1.4899-1.664.0186-3.328.0557-4.991.1084.046.4956.096.9912.142 1.4868z"/><path d="m143.447 32.0098c.05.4987.103.9943.152 1.4929 5.022.0186 10.033.2107 15.03.57-.056-.5018-.111-1.0036-.167-1.5054-4.995-.3593-9.999-.5451-15.015-.5575z"/><path d="m130.865 36.4357c3.244-.1735 6.482-.2819 9.713-.3159-.049-.4956-.099-.9943-.148-1.4899-3.229.0402-6.464.1487-9.704.3283.046.4925.093.9881.139 1.4806z"/><path d="m131.113 39.0283c3.615-.1889 7.225-.2911 10.828-.3097-.049-.4987-.102-.9943-.152-1.493-3.6.0217-7.206.127-10.816.319.047.4925.093.985.14 1.4806z"/><path d="m131.36 41.6212c2.51-.127 5.02-.2138 7.526-.2571-.049-.4987-.099-.9974-.152-1.493-2.503.0465-5.007.1363-7.516.2664.049.4956.096.9912.142 1.4868z"/><path d="m143.983 37.2285c.053.4987.103.9943.155 1.493 2.699.0186 5.398.0836 8.09.2013-.056-.5018-.108-1.0005-.164-1.5022-2.689-.1146-5.385-.1766-8.081-.1921z"/><path d="m140.426 39.8431c.05.4987.103.9974.152 1.4961 4.663-.0403 9.317.0619 13.958.3097-.056-.5018-.111-1.0067-.167-1.5085-4.638-.2447-9.286-.3407-13.943-.2973z"/><path d="m155.906 41.7264c1.264.0774 2.525.1642 3.789.2633-.059-.5049-.115-1.0098-.174-1.5147-1.261-.0991-2.522-.1827-3.783-.2602.056.5018.112 1.0067.168 1.5085z"/><path d="m137.517 43.9899c2.339-.0526 4.678-.0681 7.011-.0495-.052-.4987-.105-.9943-.154-1.493-2.334-.0186-4.667 0-7.006.0558.05.4956.099.9911.149 1.4867z"/><path d="m145.492 42.46c.053.4987.106.9942.158 1.4929 4.236.062 8.462.2416 12.682.5421-.056-.5018-.115-1.0036-.171-1.5054-4.213-.2973-8.436-.4739-12.666-.5296z"/><path d="m159.81 44.6069c1.341.1053 2.68.2231 4.018.3531-.059-.5048-.118-1.0066-.176-1.5084-1.336-.1301-2.674-.2447-4.013-.35.059.5018.115 1.0035.171 1.5053z"/><path d="m99.7759 9.53135c1.2671.59785 2.5311 1.21735 3.7991 1.85845-.041-.635-.081-1.2699-.121-1.90491-1.264-.66286-2.529-1.30094-3.7958-1.92044.0403.65667.0775 1.31023.1177 1.9638z"/><path d="m99.9835 12.9635c1.9145.8487 3.8265 1.75 5.7385 2.6979-.041-.6226-.081-1.2483-.124-1.8709-1.909-.9788-3.821-1.9081-5.7323-2.7846.0403.6535.0775 1.304.1178 1.9576z"/><path d="m105.034 12.1362c1.809.9261 3.618 1.8956 5.425 2.9023-.044-.6009-.084-1.2018-.127-1.8027-1.807-1.0315-3.613-2.0288-5.422-2.9829.04.6288.08 1.2576.12 1.8833z"/><path d="m111.261 15.4819c.986.5421 1.968 1.0996 2.953 1.6634-.043-.5824-.087-1.1647-.13-1.747-.982-.5792-1.964-1.1492-2.95-1.7098.044.5978.084 1.1925.127 1.7903z"/><path d="m115.147 17.6809c1.196.6845 2.392 1.3814 3.585 2.0908-.044-.5607-.09-1.1182-.134-1.6789-1.193-.7279-2.389-1.4434-3.581-2.1465.043.5792.086 1.1553.13 1.7346z"/><path d="m110.694 16.4639c.044.5978.084 1.1956.127 1.7934 2.104 1.0934 4.202 2.2333 6.299 3.4134-.043-.5668-.09-1.1337-.133-1.7005-2.094-1.2111-4.192-2.382-6.293-3.5063z"/><path d="m100.191 16.3764c1.27.5296 2.541 1.081 3.808 1.6571-.04-.6319-.081-1.2637-.121-1.8956-1.267-.5947-2.534-1.1647-3.805-1.716.041.6535.078 1.304.118 1.9545z"/><path d="m100.399 19.7899c3.823 1.4744 7.64 3.1471 11.445 4.9932-.043-.5917-.087-1.1833-.13-1.7749-3.805-1.9049-7.619-3.6333-11.436-5.1635.04.6505.08 1.2979.121 1.9483z"/><path d="m105.464 18.7031c2.337 1.0686 4.673 2.2023 7.003 3.3979-.044-.5885-.087-1.177-.13-1.7687-2.33-1.2297-4.663-2.4005-7-3.5032.044.6257.084 1.2514.124 1.874z"/><path d="m113.585 22.668c1.258.6381 2.513 1.2948 3.768 1.9638-.044-.5637-.09-1.1274-.133-1.6943-1.255-.6876-2.51-1.3629-3.765-2.0195.043.5854.087 1.1677.13 1.75z"/><path d="m118.639 25.3164c1.533.8115 3.064 1.6416 4.598 2.4934-.047-.5358-.093-1.0717-.14-1.6076-1.53-.8704-3.061-1.7253-4.592-2.5616.044.5607.09 1.1182.137 1.6758z"/><path d="m112.966 25.3189c2.162 1.0253 4.322 2.097 6.478 3.2152-.046-.5544-.09-1.1089-.136-1.6633-2.153-1.1461-4.313-2.2519-6.473-3.3112.044.5854.087 1.1708.131 1.7593z"/><path d="m106.707 16.1474c.942.4677 1.884.9478 2.823 1.4372-.044-.604-.084-1.2111-.127-1.8151-.939-.5018-1.881-.9974-2.82-1.4775.04.6195.084 1.239.124 1.8554z"/><path d="m102.057 45.9704c1.285.2292 2.571.4801 3.857.7558-.043-.6164-.084-1.2297-.127-1.8461-1.283-.2943-2.569-.5638-3.854-.8147.043.6381.083 1.2731.124 1.9081z"/><path d="m102.276 49.3032c1.943.2912 3.886.635 5.825 1.0284-.043-.604-.087-1.208-.13-1.812-1.94-.4244-3.879-.7992-5.819-1.1182.041.6319.084 1.2668.124 1.9018z"/><path d="m107.395 47.048c1.84.4027 3.678.8519 5.512 1.3382-.044-.5793-.09-1.1616-.133-1.7408-1.835-.5142-3.672-.9881-5.509-1.4218.043.6071.086 1.2142.127 1.8244z"/><path d="m113.725 48.5995c1 .2633 2.001.5389 2.999.8239-.047-.5606-.09-1.1244-.137-1.685-.997-.3005-1.998-.5885-2.996-.8673.044.5761.09 1.1522.134 1.7284z"/><path d="m117.672 49.693c1.218.3469 2.432.7031 3.647 1.0748-.047-.539-.093-1.0748-.14-1.6138-1.214-.3903-2.429-.7682-3.643-1.1306.046.5576.089 1.1151.136 1.6696z"/><path d="m113.282 51.462c2.134.4925 4.269 1.0314 6.401 1.6168-.047-.5451-.093-1.0903-.14-1.6354-2.128-.6164-4.263-1.1895-6.395-1.7129.044.5792.09 1.1553.134 1.7315z"/><path d="m102.496 52.6172c1.289.1579 2.578.3407 3.867.5482-.043-.6102-.087-1.2235-.127-1.8368-1.286-.223-2.575-.4274-3.863-.604.043.6319.083 1.2638.123 1.8957z"/><path d="m102.716 55.9287c3.88.3593 7.756.9261 11.622 1.6726-.046-.5699-.09-1.1429-.136-1.7129-3.864-.8053-7.737-1.431-11.613-1.8523.044.6288.084 1.2607.127 1.8895z"/><path d="m107.847 53.4067c2.373.3903 4.747.8549 7.114 1.3784-.047-.5668-.09-1.1368-.137-1.7036-2.367-.5606-4.737-1.0593-7.107-1.4868.043.604.087 1.208.13 1.8151z"/><path d="m116.098 55.0366c1.277.2819 2.553.5761 3.83.8921-.047-.5421-.093-1.0873-.14-1.6293-1.276-.3314-2.55-.6505-3.826-.9478.046.5637.09 1.1243.136 1.6881z"/><path d="m121.232 56.2474c1.558.3779 3.117.7775 4.672 1.1987-.049-.5142-.096-1.0283-.145-1.5425-1.556-.443-3.111-.8642-4.67-1.2669.047.539.093 1.0748.143 1.6107z"/><path d="m115.475 57.8143c2.197.4088 4.391.8673 6.581 1.3721-.046-.5327-.096-1.0624-.142-1.5952-2.191-.5358-4.381-1.0283-6.578-1.4682.046.5638.09 1.1306.136 1.6944z"/><path d="m109.105 50.5358c.958.1982 1.912.4058 2.869.6226-.043-.5854-.086-1.1678-.133-1.7532-.954-.2323-1.912-.4553-2.866-.6659.043.6009.087 1.1987.13 1.7965z"/><path d="m102.961 59.5553c1.292.0836 2.587.1952 3.876.3252-.043-.6071-.087-1.2173-.13-1.8244-1.289-.1517-2.581-.2818-3.873-.3872.043.6288.084 1.2576.127 1.8833z"/><path d="m103.184 62.8448c1.955.0744 3.907.2045 5.856.3841-.043-.5947-.09-1.1925-.133-1.7872-1.949-.2106-3.901-.3686-5.853-.4739.044.6257.087 1.2544.127 1.877z"/><path d="m108.328 60.0389c1.849.2044 3.696.4491 5.542.7341-.046-.573-.089-1.143-.136-1.716-1.843-.3129-3.69-.5854-5.54-.8177.044.6009.087 1.2018.13 1.7996z"/><path d="m114.692 60.8999c1.006.1549 2.01.319 3.017.4956-.046-.5514-.093-1.1058-.139-1.6572-1.004-.192-2.011-.3716-3.015-.542.047.5668.09 1.1368.137 1.7036z"/><path d="m118.663 61.5626c1.224.2137 2.445.4398 3.669.6845-.047-.5297-.096-1.0593-.143-1.589-1.22-.2602-2.441-.5049-3.665-.7372.046.5483.093 1.0965.139 1.6448z"/><path d="m114.252 63.7899c2.147.2571 4.294.5668 6.438.9199-.047-.5358-.093-1.0717-.143-1.6107-2.144-.3871-4.288-.7279-6.432-1.019.047.5699.09 1.1398.137 1.7098z"/><path d="m103.407 66.1189c1.299.0155 2.594.0558 3.889.1177-.044-.604-.087-1.208-.13-1.812-1.296-.0805-2.591-.1425-3.886-.1766.044.6226.087 1.2483.127 1.8709z"/><path d="m103.63 69.3871 11.756.6908-.137-1.6882-11.746-.8672z"/><path d="m108.656 64.5234c.043.5948.087 1.1926.133 1.7904 2.386.1301 4.771.3314 7.154.6009-.046-.5607-.093-1.1182-.136-1.6788-2.38-.3036-4.762-.5421-7.148-.7094z"/><path d="m117.083 67.0393c1.286.1425 2.569.3005 3.852.477-.047-.5358-.097-1.0686-.143-1.6045-1.283-.1951-2.565-.3717-3.848-.5358.046.5544.093 1.1089.139 1.6633z"/><path d="m122.248 67.6922c1.568.2106 3.136.4429 4.7.6969-.049-.5049-.099-1.0098-.145-1.5146-1.565-.2757-3.13-.5328-4.698-.7651.047.5296.097 1.0562.143 1.5859z"/><path d="m116.485 70.1988 6.72.4492-.145-1.5674-6.714-.5513z"/><path d="m110.047 63.3216c.96.0929 1.924.192 2.884.3066-.046-.5761-.089-1.1523-.136-1.7284-.96-.1301-1.921-.2447-2.881-.35.043.5916.089 1.1801.133 1.7718z"/><path d="m100.919 26.4528c1.119.4088 2.234.8301 3.35 1.2699-.041-.6102-.084-1.2204-.127-1.8337-1.116-.4553-2.231-.8982-3.347-1.3226.041.6288.084 1.2576.124 1.8833z"/><path d="m105.92 26.626c.043.6009.087 1.2049.127 1.8058 3.368 1.3319 6.73 2.7908 10.085 4.355-.046-.5513-.09-1.1027-.136-1.654-3.353-1.6138-6.714-3.1223-10.079-4.5037z"/><path d="m101.031 29.9621c2.172.666 4.341 1.397 6.51 2.1899-.044-.6102-.084-1.2235-.127-1.8337-2.166-.827-4.335-1.589-6.504-2.289.04.6443.081 1.2885.121 1.9328z"/><path d="m101.244 33.3417c2.42.6752 4.84 1.431 7.254 2.2642-.044-.6071-.087-1.2111-.127-1.8182-2.414-.8673-4.831-1.6602-7.247-2.3727.04.6443.08 1.2855.12 1.9298z"/><path d="m101.458 36.709c1.68.4244 3.359.889 5.038 1.3908-.043-.6164-.083-1.2359-.127-1.8523-1.676-.5297-3.355-1.0191-5.035-1.4682.041.6443.084 1.2854.124 1.9297z"/><path d="m109.839 34.3174c.044.5978.087 1.1956.13 1.7934 1.81.6257 3.616 1.2886 5.423 1.9855-.044-.5699-.09-1.143-.134-1.7129-1.803-.7248-3.609-1.4125-5.419-2.066z"/><path d="m107.503 36.6035c.044.6133.087 1.2235.127 1.8368 3.124.9324 6.241 1.9824 9.354 3.1285-.046-.5638-.089-1.1275-.136-1.6944-3.111-1.1987-6.225-2.2921-9.345-3.2709z"/><path d="m117.904 41.9034c.846.3067 1.695.6226 2.541.9417-.046-.5483-.093-1.0934-.139-1.6417-.846-.3314-1.692-.6598-2.538-.9788.047.5607.09 1.1182.136 1.6788z"/><path d="m105.626 41.0234c1.564.4026 3.132.8394 4.694 1.3071-.044-.5947-.087-1.1894-.131-1.7842-1.561-.4894-3.126-.9509-4.69-1.3783.043.6195.083 1.239.127 1.8554z"/><path d="m110.942 40.7822c.044.5916.087 1.1802.131 1.7718 2.834.8332 5.669 1.7531 8.495 2.7505-.046-.5482-.093-1.0965-.136-1.6447-2.826-1.0408-5.655-2.0041-8.49-2.8776z"/><path d="m120.56 45.6478c.898.3098 1.797.6288 2.692.9509-.046-.5296-.096-1.0593-.142-1.589-.896-.3376-1.794-.669-2.69-.9911.047.542.093 1.0872.14 1.6292z"/></g><path d="m188.717 55.1228c.526.985.182 2.2054-.781 2.7722-2.147 1.2607-5.63 3.051-8.251 3.5466l-1.162-2.3262c1.075-.5327 3.966-2.8682 7.321-4.8104 1.017-.5885 2.321-.2168 2.876.8209z" fill="#68cbe3"/><path d="m167.149 55.9811c.778.2478.353-.5761.973-.2849.672.3128 1.23.7403 1.596 1.493.173.3562 6.295 1.5518 9.044 1.8461.942.1022 1.286 1.8615.688 2.2549-1.509.9912-7.88-1.5394-9.813-2.1249-1.475-.446-2.28-.8641-2.829-1.019-.514-.1425-.731-.381-.573-.7558-.26-.1208-.384-.4213-.242-.6907-.285-.1208-.282-.4492-.108-.6133-.459-.189-.846-.3748-.607-.6815.117-.1518 1.409.4275 1.868.573z" fill="#fcb21d"/><path d="m179.75 58.6881c.942.0991 1.084 2.2426.486 2.6359-1.496.9819-8.641-1.273-10.614-1.877.343-.4554.663-1.6727.743-2.2302.078.0279 6.637 1.177 9.382 1.4713z" fill="#68cbe3"/><path d="m170.062 58.5768c2.305 1.3195 6.472 2.1899 8.976 1.5704.201-.0495 1.047-.319 1.254-.3965.078-.0309.158-.0619.236-.096 2.649-1.0531 5.915-2.3138 7.736-4.4572.05-.0589.775-1.0625.825-1.1213.083.1022-.434.923-.369 1.0438.527.985.183 2.2054-.781 2.7723-1.998 1.1739-5.152 2.8063-7.696 3.4258-1.497.985-8.641-1.27-10.615-1.8771.146-.1921.285-.5266.406-.8859.009.0062.022.0124.031.0186z" fill="#2ba2cb"/><path d="m168.088 55.2586 1.106 1.1709-.889-.0868c-.251-.1486-.573-.4305-.737-.827-.502-.2137-.71-.5761-.602-.9571.561.4398.862.573 1.122.7031z" fill="#fcb21d"/><path d="m153.892 92.122c3.092.8425 4.728 5.5104 6.153 8.267 0 0-.957 1.986-4.505 2.237 0 0-3.653-5.8237-3.675-7.3012-.021-1.4744 1.404-3.3731 2.027-3.2028z" fill="#2ba2cb"/><path d="m153.892 92.122c.18.0496.353.1115.523.1859-.102.1549-.164.3531-.161.6009.05 3.1346 2.11 6.2724 4.542 8.7322-.697.452-1.738.876-3.256.985 0 0-3.653-5.8237-3.675-7.3012-.021-1.4744 1.404-3.3731 2.027-3.2028z" fill="#346790"/><path d="m155.19 92.7015c.957.6505.081 11.5695.982 13.2755 1.432 2.707 3.182 5.975 3.182 5.975-3.743 2.206-18.125 2.196-18.125 2.196s-.787-2.583-1.397-6.86c-.71-4.963-.952-15.7666-.676-15.841 6.048-1.589 14.361.1177 16.037 1.2514z" fill="#2ba2cb"/><path d="m145.096 84.9756 4.774 2.9674c-.093.2075-.353 2.0474 0 2.9302.301.7558.595 1.9018-1.09 2.2673-1.571.3377-4.484-1.1058-4.096-2.4036.678-2.2643.418-5.7582.418-5.7582z" fill="#fcb21d"/><path d="m145.096 84.9756 4.774 2.9674c-.093.2075-.353 2.0474 0 2.9302.05.1208.096.2509.133.3872-.018 0-.83-.0961-1.663-.6784-.853-.5947-1.804-.2757-2.467.5483-.248.3066-.353.7124-.347 1.1212-.616-.446-1.004-.9911-.846-1.5177.679-2.2643.419-5.7582.419-5.7582z" fill="#fcb21d"/><path d="m139.931 91.2606c1.859-.2726 5.09 2.6793 5.254 7.3565.044 1.242.4 2.8309 1.444 4.7859.586 1.096 2.971 2.001 3.997 2.357 1.026.359 1.165.811.57 1.124s-5.304 1.081-4.722 1.803c.617.768 6.349 2.035 5.305 4.51-.505 1.195-9.209.337-10.814-.016-.529-.972-.588-3.314-.935-4.791-.716-3.048-.481-9.5778-.921-13.0563-.241-2.3324-1.214-3.7758.825-4.0731z" fill="#68cbe2"/><path d="m159.205 116.623c.263.025 3.991-.238 5.481-.062 1.49.174 2.095.208 2.974 1.196.88.988.58 2.676.118 3.872-.461 1.195-1.1 1.211-2.255.886-1.159-.329-2.423-1.246-3.594-1.363-1.172-.118-1.463.093-2.287-.149-.821-.238-.982.034-.895-.564.086-.601.458-3.816.458-3.816z" fill="#fff"/><path d="m159.205 116.623c.263.025 3.991-.238 5.481-.062 1.49.174 2.095.208 2.974 1.196.478.536.608 1.276.552 2.035-.892.229-1.633.167-2.553-.034-.762-.164-1.574-.465-2.364-.316-.84.158-1.859.815-2.169 1.673-.57.003-.889.062-1.484-.112-.821-.238-.982.034-.895-.564.086-.601.458-3.816.458-3.816z" fill="#f0fcfc"/><path d="m165.891 117.122c-.502-.328-1.4-.586-1.202-.561 1.491.174 2.095.208 2.975 1.196s.579 2.676.117 3.872c-.418 1.081-.979 1.198-1.942.969 1.561-1.307 2.032-4.166.052-5.476z" fill="#004c76"/><path d="m139.187 116.731c.858-.136 3.703-.111 5.884-.427 0 0 2.314 3.28 2.37 3.357.056.078-1.735 1.057-2.469 1.633-.738.576-3.675 1.573-4.49 1.418-.815-.151-2.317-3.385-2.621-4.547-.304-1.164.474-1.298 1.329-1.434z" fill="#fff"/><path d="m139.187 116.731c.858-.136 3.702-.111 5.884-.427 0 0 2.02 2.865 2.329 3.302-1.01.015-1.973-.515-3.008-.35-.517.083-1.128.762-2.631.582-.914-.108-.74 1.419.05 2.187.164.158.338.279.517.381-.777.229-1.502.368-1.849.306-.815-.151-2.318-3.385-2.621-4.547-.304-1.161.474-1.294 1.329-1.431z" fill="#f0fcfc"/><path d="m166.52 109.341c2.089.437 2.897 2.035 2.894 3.81 0 1.059-.938 2.209-2.113 2.565-1.174.356-19.371 4.51-19.888 4.637-.517.124-2.689-5.161-2.689-5.161.656-.232 17.846-6.678 21.793-5.848z" fill="#4382c3"/><path d="m161.009 114.318c3.808.124 5.056-.393 8.319-2.125.056.307.083.629.083.954 0 1.06-.938 2.209-2.113 2.565-1.174.356-19.371 4.51-19.888 4.637-.517.124-2.689-5.16-2.689-5.16.241-.087 5.403-1.902 8.641-2.996 2.569 1.258 4.796 2.032 7.644 2.125z" fill="#004c76"/><path d="m154.988 79.5898s.824.6908.93 1.6882c.102.9912-1.023 2.5771-1.023 2.5771s-1.059-2.701-.907-3.4754c.031-.1549 1-.7868 1-.7868z" fill="#005384"/><path d="m150.059 91.4743-.149-.3996s.93-.0867 1.081 1.0594c.261 1.9359-.706 3.3545-.706 3.3545-.161-1.0283-1.667-2.3695-1.667-2.3695 1.336-.5731 1.441-1.6448 1.441-1.6448z" fill="#fff"/><path d="m143.422 83.3339c.496-.8921 1.351-.1487 1.351-.1487s.183-2.2736 1.807-3.7604c1.623-1.4867 3.256-.858 6.165 0 2.913.858 2.349 1.778 2.349 1.778s-.099 2.3634-.546 4.8104c-.182.9974-1.304 2.3664-2.503 3.847-1.162 1.4311-2.798.6319-4.911-.6133-2.116-1.2421-1.992-2.4718-1.983-2.701 0 0-.359.1642-1.032-.319-.669-.4832-1.227-1.7749-.74-2.8063.015-.031.031-.062.046-.0898z" fill="#fcb21d"/><path d="m143.422 83.3343c.496-.8921 1.351-.1487 1.351-.1487s.183-2.2735 1.807-3.7603c.371-.3407 2.249.2911 2.011 1.2637-.267 1.0873-1.15 1.8275-1.32 2.8621-.199 1.1894-.509 3.3948.207 4.3953 1.038 1.4465 2.835 2.5988 4.623 1.843-.019.0248-.04.0496-.059.0712-1.162 1.4311-2.798.6319-4.911-.6132-2.116-1.2421-1.992-2.4718-1.983-2.701 0 0-.359.1641-1.031-.3191-.67-.4832-1.227-1.7748-.741-2.8063.015-.031.031-.0619.046-.0898z" fill="#fcb21d"/><path d="m155.304 79.097c.366.7713.735 3.2957-1.357 3.8656-2.302.6288-6.361-2.2828-7.259-.5978-.734 1.3784.145 2.2922-.515 2.8342-.347.285-.786.1828-.954-.1951-.059-.1332.022-1.1554-.449-1.8213-.028-.0403-.397-.2912-.728-.2912 0 0-.456-1.6355.192-3.1563 2.218-5.21 9.509-3.9028 11.067-.6443z" fill="#4675b9"/><path d="m148.962 76.2814c-1.484 1.0439.415 3.4785-1.059 4.6741-1.308 1.0624-1.903 1.3877-1.875 2.193.016.5297.217 1.7873.254 1.9452-.028.0372-.065.0713-.102.1053-.347.285-.787.1828-.954-.1951-.059-.1332.021-1.1554-.45-1.8213-.028-.0403-.396-.2912-.728-.2912 0 0-.455-1.6354.192-3.1563.939-2.2054 2.789-3.24 4.725-3.4568z" fill="#005384"/><path d="m138.787 109.778c2.089-1.224 5.856.272 10.045 1.598 3.281 1.038 12.378 4.157 12.378 4.157s.914 3.866-1.58 6.223c0 0-12.564-3.017-20.647-6.477-.598-.257-1.475-.61-1.742-1.927-.266-1.316.388-2.893 1.543-3.571z" fill="#4382c3"/><path d="m138.499 109.981c-.3.741-.304 1.627.149 2.649.61 1.381 2.094 2.112 3.56 1.908.635-.09 1.084-.555 1.667-.66 1.01-.186 1.444.301 2.209.939 1.159.963 2.085 1.852 3.616 2.168.855.176 1.648-.025 2.491.043 1.072.09 1.852.691 2.872.988 2.209.641 4.279.124 6.308-.635-.028 1.317-.366 3.073-1.738 4.371 0 0-12.564-3.017-20.647-6.477-.598-.257-1.475-.61-1.742-1.927-.245-1.201.288-2.614 1.258-3.367z" fill="#004c76"/><path d="m144.659 84.025c.096.288.139.3933.046.6473-.096.2509-.161.127-.183.3686-.018.2416.239.1332.313.3903.075.2571.019.4367-.254.5018-.272.065-.579-.1797-.812-.7124-.229-.5328-.306-1.2328-.071-1.5488.279-.3717.827-.0402.958.3532z" fill="#f89c24"/><path d="m139.038 116.756c-.682.545 1.196 5.148 2.723 5.805-.548.133-1.022.201-1.282.151-.815-.151-2.318-3.385-2.622-4.547-.285-1.096.385-1.279 1.181-1.409z" fill="#004c76"/><path d="m141.3 94.1904c.366 2.6019-3.514 9.3576-3.514 9.3576s9.54-2.24 10.491-2.336c1.54-.154 3.331-1.4833 3.914-1.4337.161.0124 1.338.4827 1.403.5297.065.046 2.005 1.642 1.834 2.001-.058.127-.483-.025-.601-.096-.344-.208-1.103-.973-1.428-1.128-.527-.247-1.456-.35-1.456-.35s.904.428 1.177.617c.483.331 1.339 1.168 1.683 1.632.127.174.161.322.074.363-.124.055-.344-.022-.573-.124-.397-.177-.899-.772-1.01-.868-.112-.096-1.035-.563-1.035-.563s.982 1.034 1.162 1.291c.22.313.815 1.208.595 1.31-.115.056-.298-.105-.518-.272-.483-.372-.768-.929-.979-1.053-.208-.127-.911-.545-1.103-.589 0 0 .446.384.564.645.093.204.353.823.353.823s.124.93-.155.862c-.303-.078-.508-.989-.508-.989s-.183-.114-.347-.371c0 0-1.125.39-2.132.412-1.01.025-1.487-.378-1.487-.378-.08.319-10.968 3.577-12.052 3.807-1.11.235-1.968-.508-2.055-.899-.424-1.936 1.999-7.8331 3.585-11.9342 1.46-3.7696 4.013-.9788 4.115-.2633z" fill="#fcb21d"/><path d="m141.3 94.1908c.316 2.2363-2.506 7.5392-3.303 8.9862-.43.04-.96-.01-1.611-.316-1.375-.651-3.188 1.471-1.143 2.763 1.369.864 3.526.13 12.307-2.767.821-.269 1.719.341 2.305.332.303-.003.982-.381 1.363-.139.645.408.744.861.973 1.573.022.062.059.102.102.124-.028.04-.062.068-.111.056-.304-.078-.508-.988-.508-.988s-.183-.115-.348-.372c0 0-1.124.39-2.131.412-1.01.025-1.487-.378-1.487-.378-.081.319-10.969 3.578-12.053 3.807-1.109.235-1.967-.508-2.054-.898-.425-1.936 1.998-7.834 3.585-11.9351 1.459-3.7696 4.012-.9788 4.114-.2632z" fill="#fcb21d"/><path d="m140.308 91.3161c2.854.5638 3.133 4.1414-1.809 11.4609 0 0-3.046-.211-4.672-1.744 0 0 3.287-10.3518 6.481-9.7169z" fill="#68cbe2"/><path d="m139.695 91.3254c-.115.1424-.202.3128-.245.5172-.505 2.4037-.059 5.0768 1.28 7.2326-.574 1.1058-1.308 2.3358-2.228 3.6988 0 0-3.046-.211-4.672-1.744 0 0 2.875-9.0635 5.865-9.7077z" fill="#68cbe2"/><path d="m144.9 89.6035-.148.8394s1.933 2.8931 3.866 2.6762c0 0-1.549 1.3258-1.973 2.4347 0 0-2.364-2.1466-2.64-4.1228-.195-1.3938.892-1.8275.892-1.8275z" fill="#fff"/></g><path d="m154.765 108.736v.003c0 .419-.34.759-.759.759h-17.843c-.418 0-.759-.34-.759-.759v-.003h19.358z" fill="#004c76"/><path d="m156.692 93.0104c.168-.6133.735-1.0314 1.37-1.0159l10.946-.0062v17.3207l-15.117.189c-.926 0-.979-.715-.92-.963l3.718-15.5277z" fill="#143549"/><path d="m157.479 92.3106c.053-.1921.23-.3252.428-.3252h19.324c.295 0 .509.2787.428.5637l-3.625 15.3419c-.263.951-1.128 1.607-2.113 1.607h-17.995c-.295 0-.508-.278-.428-.563z" fill="#346790"/></g></svg>