<svg fill="none" viewBox="0 0 224 230" xmlns="http://www.w3.org/2000/svg" xmlns:xlink="http://www.w3.org/1999/xlink"><linearGradient id="a" gradientUnits="userSpaceOnUse" x1="120.5" x2="120.5" y1="22.34" y2="158.34"><stop offset="0" stop-color="#fffffa"/><stop offset="1" stop-color="#e0eef2"/></linearGradient><path d="m224 0h-224v162.77h224z" fill="#69cbe4" opacity=".15"/><path d="m31 22.34h179v136h-179z" fill="url(#a)" fill-opacity=".5"/><g fill="#6acbdf" opacity=".27"><path d="m72.5 22.34h6.76l-.44 81.6h-6.76l.45-81.6zm91.2 0h-6.75v136.4h6.76v-136.39zm-43.97 0h-3.25v82.8h3.25z"/><path d="m162.24 88.52h-87.59v4.22h87.59z"/></g><path d="m179.16 101.14s8.8 1.06 14.63 8.91 5.07 11.51 5.07 11.51-1.88-1.91-5.38-2.07c-2.52-.11-1.56-3.3-2.5-4.15s-3.02-.68-3.82-2.05c-.8-1.36.09-1.25-1.15-2.9-1.1-1.46-2.6-.22-3.42-2.5-.43-1.22-.8-4.63-3.44-6.75zm33.83 5.15a15.47 15.47 0 0 0 -9.68 5.89c-3.84 5.18-3.86 8.32-3.86 8.32s2.27-1.8 4.07-2.09c1.65-.25 1.04-2.18 1.66-2.74.62-.57 2-.45 2.52-1.35.53-.9-.05-.83.76-1.92.72-.97 1.72-.15 2.26-1.65.29-.8.53-3.06 2.27-4.47z" fill="#55a6b9"/><path d="m206.9 119.96h-16.7v2.92h16.7z" fill="#005384"/><path d="m205.43 126a6.88 6.88 0 0 1 -13.77 0v-4.58h13.78v4.58z" fill="#005384"/><path d="m191.65 122.88h5.68l-5.68 1.8z" fill="#3d5363" opacity=".1"/><path d="m211.32 131.68h-27.67v12.3h27.67z" fill="#f7a91b"/><path d="m191.77 135.31c0-.94.84-1.7 1.88-1.7 1.05 0 1.9.76 1.9 1.7h-1.76v2.12a.37.37 0 0 0 .74 0h.28a.65.65 0 0 1 -1.3.02v-2.14h-1.75zm-2.53-.26v-1.43h2.07v1.43c0 .52-.38.96-.9 1.03v1.71h.68v.29h-1.63v-.29h.67v-1.71c-.51-.07-.9-.5-.9-1.03zm-1.02 2.75h-2.76v.28h2.76v-.29zm-.67-4.19.61.62h-.47v3.14h-.29v-3.14h-.47l.61-.62zm-2.04.62.62-.61.61.61h-.47v3.14h-.29v-3.14z" fill="#005384"/><path d="m217.16 144h-30.75v27.52h30.75v-27.53z" fill="#f7a91b"/><path d="m204.75 144h-30.75v27.52h30.75v-27.53z" fill="#fcbf5b"/><path d="m209.29 144v7.88l.4.4.47-.42.47.42.47-.42.48.42.47-.42.48.42.47-.42v-7.86z" fill="#f7991c"/><path d="m186.74 164.96h-9.37v4.28h9.37z" fill="#fff"/><path d="m183 165.53h-5.12v.6h5.12z" fill="#005384"/><path d="m211.32 141.78h-27.67v2.2h27.67z" fill="#373737" opacity=".1"/><path d="m141.72 111.2v1.12a3.7 3.7 0 0 0 7.4 0v-1.11h-7.4z" fill="#469bd5"/><path d="m139.75 115.2c1.28.7 3.34 1.15 5.67 1.15 2.34 0 4.4-.46 5.68-1.15zm7.33-.05-.03-.4s2.01-.14 2.61-.99a1 1 0 0 0 .1-1.1c-.43-.73-1.83-.47-2.11-.41l-.09-.4c.46-.1 1.99-.34 2.54.6.28.49.23 1.1-.1 1.55-.72 1-2.83 1.15-2.92 1.15z" fill="#469bd5"/><path d="m145.92 102.91c.38.2.67.52.83.9.09.22.12.45.09.68a1.1 1.1 0 0 1 -.3.64 1.6 1.6 0 0 1 -.55.34c-.19.07-.36.14-.54.23-.16.08-.3.2-.4.35a.7.7 0 0 0 -.06.48c.03.16.1.3.2.43.11.14.22.27.35.38a4 4 0 0 1 .8.91c.12.21.18.44.2.68 0 .22-.05.45-.13.66-.15.38-.39.7-.69.99l-.05-.03c.12-.36.22-.72.28-1.08.02-.16.02-.33 0-.48a1.37 1.37 0 0 0 -.17-.4c-.2-.3-.43-.58-.67-.85a2.35 2.35 0 0 1 -.34-.53c-.1-.21-.13-.44-.1-.67.01-.22.1-.43.22-.6.14-.16.3-.3.47-.4.3-.2.57-.44.8-.73.07-.12.12-.25.15-.4.02-.15.02-.3 0-.45a3.68 3.68 0 0 0 -.42-1l.04-.05z" fill="#cfcbc7"/><path d="m114.46 178.6c.38-.25 1-.22 1.24.16.1.18.13.38.1.58a6.49 6.49 0 0 1 -1.14 3.66c-.34.53-.8.97-1.33 1.3-.53.29-1.41.33-1.85-.08-.28-.3-.42-.68-.4-1.08.03-.4.12-.79.27-1.15.2-.6.5-1.17.9-1.67.37-.42.86-.72 1.4-.85.48-.14.4-.6.81-.88z" fill="#005384"/><path d="m110.58 180.43c-.07.56-.38 1.04-.6 1.56s-.36 1.13-.1 1.62c.19.31.48.55.82.67s.7.2 1.05.22c.34.05.69.06 1.03.01.34-.04.65-.22.86-.5.3-.43.2-1.03.12-1.55-.14-1-.13-2.02.03-3.01l-3.2.98z" fill="#005384"/><path d="m113.72 182.07c-.97.86-2.54.6-3.76-.02-.2.5-.33 1.09-.08 1.56.19.31.48.55.82.67s.7.2 1.05.22c.34.05.69.06 1.03.01.34-.04.66-.22.87-.5.3-.43.2-1.03.11-1.55z" fill="#005384"/><path d="m113.24 146.4c-.7 2.18-.88 4.55-1.04 6.85l-1.92 27.52 3.77.13c.08 0 5.04-15.8 5.64-17.26 2.13-5.2 3.1-10.56 4.27-16.06a44.4 44.4 0 0 0 -10.72-1.18z" fill="#4675b9"/><path d="m104.52 178.6c-.38-.25-1-.22-1.24.16a.98.98 0 0 0 -.1.58 6.48 6.48 0 0 0 1.14 3.66c.34.53.8.97 1.33 1.3.53.29 1.41.33 1.85-.08.28-.3.42-.68.4-1.08-.03-.4-.12-.79-.27-1.15a5.3 5.3 0 0 0 -.9-1.67 2.75 2.75 0 0 0 -1.4-.85c-.49-.14-.4-.6-.81-.88z" fill="#005384"/><path d="m108.4 180.43c.06.56.37 1.04.6 1.56.22.52.35 1.13.1 1.62-.19.31-.48.55-.82.67-.35.12-.7.2-1.06.22a3.6 3.6 0 0 1 -1.02.01 1.3 1.3 0 0 1 -.87-.5c-.3-.43-.2-1.03-.12-1.55a9.5 9.5 0 0 0 -.03-3.01l3.21.98z" fill="#005384"/><path d="m105.26 182.07c.97.86 2.54.6 3.76-.02.2.5.33 1.09.08 1.56-.19.31-.48.55-.82.67s-.7.2-1.06.22a3.6 3.6 0 0 1 -1.02.01 1.3 1.3 0 0 1 -.86-.5c-.3-.43-.2-1.03-.12-1.55z" fill="#005384"/><path d="m105.74 146.4c.7 2.18.88 4.55 1.04 6.85l1.92 27.52-3.76.13c-.09 0-5.04-15.8-5.64-17.26-2.14-5.2-3.11-10.56-4.27-16.06a44.4 44.4 0 0 1 10.72-1.18z" fill="#4675b9"/><path d="m70.5 114.44c-.25 2.3-2.65 3.6-4.94 4a5.31 5.31 0 0 1 -4.7-1.52c-5.2.51-9.14.19-14.38.1-1.7-.04-3.82-.13-5-1.43-.88-1-.89-2.55-.54-3.86a7.2 7.2 0 0 1 2.14-3.34c3.1-2.9 5.64-3.45 9.82-3.08 2.54.27 4.94 1.3 6.88 2.96.66.6 1.62.72 2.4.3.76-.4 1.61-.6 2.48-.6 3.11 0 6.2 3.3 5.84 6.47z" fill="#68cbe3"/><path d="m44.29 107.55a12.97 12.97 0 0 1 9.18-1.24c1.72.37 3.41.92 4.85 1.94.76.54 1.41 1.24 2.36 1.4.99.17 1.86-.26 2.72-.7a5.9 5.9 0 0 1 2.92-.68 4.9 4.9 0 0 0 -1.66-.3c-.86 0-1.71.2-2.47.6a2.1 2.1 0 0 1 -2.4-.3 12.72 12.72 0 0 0 -6.89-2.96c-4.02-.36-6.52.14-9.46 2.77.27-.19.56-.37.85-.53z" fill="#005384"/><path d="m63.78 109.61a10.74 10.74 0 0 0 -2.24-2.5 5.47 5.47 0 0 0 .43 4.38l1.8-1.88zm3.56.08c.64-.8 1.41-1.5 2.28-2.06a3.8 3.8 0 0 1 -.34 3.7z" fill="#68cbe3"/><path d="m66.55 114.5-.07-.01a1.69 1.69 0 0 1 -.69-.57.08.08 0 0 1 .04-.12c.03-.02.08 0 .1.03a1.6 1.6 0 0 0 .58.5c.1 0 .2-.02.27-.1.14-.1.27-.22.38-.35a.09.09 0 0 1 .1-.02c.04.03.05.08.03.11-.12.15-.26.29-.41.4-.1.07-.2.12-.33.13z" fill="#3a3942"/><path d="m66.55 115.09h-.01c-.05 0-.08-.05-.07-.1.02-.18.02-.36-.02-.54a.09.09 0 0 1 .06-.1c.04 0 .09.02.1.07.03.2.04.4.01.6 0 .04-.04.07-.08.07zm2.23-1.87a.63.63 0 0 1 -.56-.34c-.02-.04 0-.09.04-.1.03-.03.08-.01.1.03.09.15.25.24.42.25.17 0 .34-.1.42-.25a.08.08 0 0 1 .14.07.64.64 0 0 1 -.56.34zm-4.52 0a.63.63 0 0 1 -.56-.34c-.02-.04 0-.09.04-.1.04-.03.09-.01.1.03.09.15.25.24.42.25.18 0 .34-.1.42-.25.02-.05.07-.06.1-.05.05.02.07.07.05.11v.01a.64.64 0 0 1 -.56.34z" fill="#3a3942"/><path d="m53.71 114.8c-.65-.33-1.42-.26-2.15-.18.4-.05.74-1.02.82-1.32.11-.55.08-1.12-.1-1.66-.28-1.09-1.29-1.81-2.37-2.08a3.9 3.9 0 0 0 -4.09 1.48 5.41 5.41 0 0 1 2.1-.96c.92-.21 1.98-.22 2.7.38.67.59.95 1.5.74 2.36-.22.85-.71 1.6-1.4 2.13 1.14-.37 2.4-.2 3.4.46.34.22.66.64.45.99a.86.86 0 0 1 -.63.3 27.6 27.6 0 0 1 -3.84.39c1.26.31 2.58.35 3.86.11a1.7 1.7 0 0 0 1.18-.6c.41-.6-.01-1.48-.67-1.8z" fill="#005384"/><path d="m118.34 118.34h-15.4l2.44-13.37h10.53z" fill="#bbbdbe"/><path d="m115.91 104.97h-10.53l-.88 4.8h12.28z" fill="#919396"/><path d="m86.01 73.6h48.54a3 3 0 0 1 3 2.99v28.03c0 2-1.62 3.6-3.62 3.6h-47.3c-2 0-3.6-1.6-3.6-3.6v-28.03a3 3 0 0 1 2.99-3z" fill="#d0d2d3"/><path d="m137.08 76.27v28.66a2.84 2.84 0 0 1 -2.84 2.84h-47.92a2.84 2.84 0 0 1 -2.84-2.83v-28.67c0-1.22 1-2.22 2.22-2.22h49.17c1.22 0 2.22 1 2.22 2.22z" fill="#005384"/><path d="m83.02 101.72h54.52v2.9c0 2-1.62 3.6-3.61 3.6h-47.3c-2 0-3.61-1.6-3.61-3.6z" fill="#d0d2d3"/><path d="m171.77 119.57-18.14 59.58 1.93.59 18.14-59.58z" fill="#005384"/><path d="m174.28 119.61-1.93.59 18.14 59.57 1.93-.58zm-121.79-.03-18.15 59.57 1.93.59 18.14-59.58z" fill="#005384"/><path d="m54.98 119.6-1.92.59 18.14 59.57 1.93-.58z" fill="#005384"/><path d="m186.51 116.24h-145.56v7.15h145.55v-7.15z" fill="#f7a91b"/><path d="m187.45 163.35h-28.26v2.01h28.26v-2zm-119.38 0h-28.17v2.01h28.17v-2z" fill="#005384"/><path d="m173.56 67.81-9.5 4.5.26.55 9.5-4.5z" fill="#4675b9"/><path d="m165.85 73.86-1.45.77a6.63 6.63 0 0 1 -3.44 6.98l-2 1.11-5.24-9.84-1.02-1.9 2-1.11a6.68 6.68 0 0 1 8.07 1.4l1.33-.7a1.87 1.87 0 0 1 2.66 2.19c-.14.47-.47.87-.9 1.1z" fill="#a6a7aa"/><path d="m161.22 70.7a8.03 8.03 0 0 0 -5.43.77l-1.83 1-.47-.88 1.55-.85a6.67 6.67 0 0 1 6.18-.04z" fill="#dcdcdb"/><path d="m173.9 115.68-.54-.27 12.6-24.68-14.66-21.53.5-.34 14.76 21.67c.07.09.07.2.03.3l-12.69 24.84z" fill="#4675b9"/><path d="m187.11 90.68a1 1 0 1 1 -2 0 1 1 0 0 1 2 0zm-14.44-21.59a1 1 0 1 1 -2 0 1 1 0 0 1 2 0zm8.47 44.81h-14.27v2.44h14.27v-2.43z" fill="#4675b9"/><path d="m43.2 133.33a6.16 6.16 0 0 1 -3.32-1 8.04 8.04 0 0 1 -3.26-4.7c-.41-1.5-.5-3.2-.3-5.33.54-5.75 4.52-11.02 6.2-13.02a1.3 1.3 0 0 1 2 1.67c-4.58 5.45-5.45 9.92-5.6 11.6-.18 1.8-.1 3.2.22 4.4a5.44 5.44 0 0 0 2.16 3.2c1.02.66 2.38.75 3.3.21.87-.5 1.33-1.72.95-2.54a1.3 1.3 0 0 1 .65-1.73 1.3 1.3 0 0 1 1.72.64 4.73 4.73 0 0 1 -2.01 5.89c-.82.47-1.76.71-2.7.7z" fill="#68cbe3"/><path d="m162.79 101.16a.12.12 0 0 0 -.05-.08l-.06-.03a.99.99 0 0 0 -.16-.03h-.02c-.28-.01-.56.06-.8.22-.47.29-.87.7-1.16 1.17a20.54 20.54 0 0 0 -.3-2.01l-.13-.6.2-.16a3.08 3.08 0 0 0 1.13-1.63c.08-.31.08-.67-.33-.65-.46.03-.8.52-1.03.88l-.02.02-.22.4a26.89 26.89 0 0 0 -.65-2.1c0-.04-.03-.07-.04-.1l.03-.03c.12-.1.26-.18.37-.29.1-.1.18-.2.25-.32l.1-.18a3.53 3.53 0 0 0 .28-1.73c-.04-.24-.16-.43-.42-.4-.5.05-.69.8-.82 1.2-.08.25-.13.5-.18.75a15 15 0 0 0 -1.44-2.56c.44-.26.64-.97.57-1.48a1.88 1.88 0 0 0 -.19-.6c-.1-.2-.22-.38-.37-.55-.3-.33-.68-.6-1.09-.8a.12.12 0 0 0 -.17.04.12.12 0 0 0 -.01.09c.1.76.26 1.52.45 2.27a9.73 9.73 0 0 0 -1.07-1.05 3.43 3.43 0 0 0 -1.14-1.53 2.41 2.41 0 0 0 -1.95-.4.12.12 0 0 0 -.08.15v.01a1.84 1.84 0 0 0 .5.66l.21.18a10.78 10.78 0 0 0 1.37.84c.17.09.35.16.53.24.17.09.33.15.5.23.16.08.31.2.45.32.27.27.52.55.76.85a2.55 2.55 0 0 0 -1.32-.37c-.45.02-.87.22-1.16.57a.1.1 0 0 0 -.01.16l.02.02c.44.2.9.34 1.36.43.54.1 1.12.13 1.57-.2l.03.04.02.01c.6.87 1.1 1.8 1.51 2.76a4.48 4.48 0 0 0 -1.46-.87 2.8 2.8 0 0 0 -1-.12.14.14 0 0 0 -.13.15c.05.3.2.55.43.73l.1.08a3.2 3.2 0 0 0 1.01.47c.44.1.93.12 1.28.42.55.49.43 1.48.74 2.12l.02.03-.03-.04c-.4-.72-1-1.3-1.75-1.63a1.94 1.94 0 0 0 -.58-.16.14.14 0 0 0 -.15.1c-.08.65.28 1.18.79 1.62l.17.15c.2.15.4.3.6.42l.24.15a16.1 16.1 0 0 0 .74.41c.04.02.09.04.12.07h.08l.02.01a40.14 40.14 0 0 1 .41 2.48l-.04-.07-.11-.16a3.11 3.11 0 0 0 -.79-.76c-.2-.13-.43-.24-.66-.3a1.53 1.53 0 0 0 -.5-.04.1.1 0 0 0 -.1.1v.07l.28.4c.34.54.8 1 1.33 1.34a1.36 1.36 0 0 0 .25.12 1 1 0 0 0 .16.06h.01a5.07 5.07 0 0 0 .27.08c.04.15.07.3.05.47l.02.46v.78l.02.55v.66l-.01.3v.09a14.28 14.28 0 0 1 -.2 1.96 4.84 4.84 0 0 1 -.12.52h.43c.02-.64.07-1.27.11-1.91l.02-.23.01-.35.02-.37v-.12a19.5 19.5 0 0 0 -.03-.9v-.05c0-.13 0-.28-.02-.42v-.1l-.02-.56-.02-.5-.02-.4a3.04 3.04 0 0 0 .78-.3c.11-.05.22-.12.33-.2l.12-.09c.09-.06.16-.14.23-.21l.1-.1c.22-.3.41-.6.59-.92a.14.14 0 0 0 .01-.13z" fill="#4675b9"/><path d="m172.8 96.54c-.38-.5-1.2-.61-1.9-.63-.4 0-.8.06-1.19.17-.36.09-.68.24-1.05.3s-.74.15-1.1.25c.75-.48 1.6-1.06 1.52-1.78 0-.07-.1-.1-.19-.07a4.2 4.2 0 0 0 -1.53.84c-.45.4-.68.87-.52 1.25l-.04.01-.02.02a7.07 7.07 0 0 0 -2.54 1.77l.26-.6c.3-.6.52-1.21.7-1.85.01-.08-.06-.1-.16-.08-.37.13-.7.37-.94.69-.21.28-.36.6-.44.94-.13.53.1 1-.04 1.52-.12.35-.32.67-.56.95a4.5 4.5 0 0 0 -.55.78c.14-.43.25-.88.3-1.33.1-.45.1-.91.04-1.36a.09.09 0 0 0 -.1-.07l-.04.02a2.43 2.43 0 0 0 -1 1.78c-.06.39-.06.78 0 1.16a5.49 5.49 0 0 0 .16.74l.03.12c0 .02.02.04.04.05v.02l-.2.44c-.09.17-.16.35-.23.53-.17.4-.33.81-.47 1.22l-.02.05v-.03a5.6 5.6 0 0 0 -.13-1.05l-.04-.14-.04-.13a1.63 1.63 0 0 0 -.24-.5.9.9 0 0 0 -.25-.24l-.03-.01-.04.01a.17.17 0 0 0 -.08.12l-.05.47-.01.24v.41l.06.48a2.43 2.43 0 0 0 .25.73l.02.05.03.05c.06.1.14.18.22.26l.02.02a.4.4 0 0 0 .07.05l-.06.21-.07.27a11.3 11.3 0 0 0 -.19.78l-.01.08-.11.59c-.05.23-.08.46-.11.7l-.07.62-.05.57h.19c.05-.63.12-1.27.23-1.9l.1-.55.01-.04.09-.37v-.05c.08-.32.16-.64.26-.95.19.03.39.02.58-.01a2.98 2.98 0 0 0 .72-.21c.28-.14.52-.33.8-.5a.12.12 0 0 0 .04-.17l-.02-.02a.96.96 0 0 0 -.9-.22 1.93 1.93 0 0 0 -.61.22c-.15.08-.29.17-.42.28a15.22 15.22 0 0 1 .52-1.36c.12-.29.25-.58.39-.86l.04-.1h.05c.35-.02.71-.08 1.06-.19.13-.04.26-.1.4-.17.18-.08.35-.2.48-.36a.25.25 0 0 0 -.04-.34c-.23-.26-.7-.17-1.03-.07l-.26.1-.13.05.08-.14c.34-.58.72-1.15 1.14-1.68.13.02.24.09.37.11.16.03.32.04.48.02a7.45 7.45 0 0 0 1.29-.26c.15-.06.26-.15.21-.34a.57.57 0 0 0 -.41-.35 2.46 2.46 0 0 0 -1.27.06 6.78 6.78 0 0 1 2.3-1.55c.08.19.23.35.41.45.19.11.39.2.6.25.63.12 1.29.05 1.88-.19.05 0 .09-.06.08-.1a.08.08 0 0 0 -.04-.07 3.61 3.61 0 0 0 -1.75-.72c.46-.11.93-.2 1.4-.25 1.08.32 2.17.62 3.33.21a.07.07 0 0 0 .05-.1v-.03z" fill="#68cbe3"/><path d="m161.42 102.1a.9.9 0 0 0 -.86.45 2.62 2.62 0 0 0 -.46 1v.04l-.16-.51-.02-.07a25.79 25.79 0 0 0 -.67-1.87l.1-.16c.25-.32.4-.7.47-1.09l.02-.18v-.07c.02-.24 0-.74-.24-.87a.26.26 0 0 0 -.12-.03h-.08c-.27.06-.4.38-.48.68l-.06.25-.05.22c0 .07-.02.14-.03.2a12.63 12.63 0 0 0 -1.19-1.92c.06-.13.15-.22.2-.36.05-.16.08-.33.07-.5 0-.05 0-.12-.02-.18a3.5 3.5 0 0 0 -.21-.77l-.04-.11a2.3 2.3 0 0 0 -.28-.49c-.16-.2-.35-.33-.55-.24a.32.32 0 0 0 -.18.27.93.93 0 0 0 0 .25c.04.23.08.45.14.67.06.21.12.45.2.68a6.88 6.88 0 0 0 -2.39-1.6.72.72 0 0 0 -.03-.62 1.65 1.65 0 0 0 -.48-.59c-.35-.25-.77-.4-1.2-.44s-.86 0-1.28.1c-.11.02-.13.12-.05.16.58.36 1.19.74 1.8 1.06-.49-.08-.98-.1-1.47-.08-.57-.2-1.16-.3-1.77-.27-.6.02-1.2.2-1.72.54a.08.08 0 0 0 -.03.11l.01.03c.51.38 1.35.3 2.04.22a9.9 9.9 0 0 0 1.16-.25c.34-.11.7-.17 1.06-.18.37.02.74.07 1.1.15-.42.01-.84.15-1.19.4-.3.2-.47.54-.47.9 0 .06.05.1.11.1h.02c.42-.1.84-.24 1.24-.4.43-.18.86-.4 1-.78l.04.02h.03c.95.39 1.8.98 2.49 1.73-.2-.1-.4-.17-.6-.23a2.11 2.11 0 0 0 -1.67.07.1.1 0 0 0 -.03.13v.02c.17.2.38.34.62.42.25.08.51.14.77.17.45.05.94-.12 1.4.13.3.22.54.5.69.85.14.35.32.69.52 1.01-.3-.41-.67-.75-1.1-1a1.97 1.97 0 0 0 -1.2-.3.08.08 0 0 0 -.08.1v.01c.18.53.55.98 1.04 1.26.44.29.9.55 1.38.77l.18.09.03.02.11.05h.06l.02.01c.22.56.42 1.13.61 1.7l.2.63a3.65 3.65 0 0 0 -.54-.58l-.12-.1c-.23-.2-.5-.34-.8-.42a.95.95 0 0 0 -.18-.02c-.07 0-.14 0-.21.02-.06.01-.08.12-.03.18l.08.1a8.42 8.42 0 0 0 .66.8c.16.17.34.33.53.47.25.2.54.31.85.36l.09.35.03.12.17.68.05.25.07.3.09.43v.04l.07.3.04.23c.1.55.2 1.1.26 1.66l.04.26h.2l-.03-.23-.06-.4-.2-1.29-.11-.58-.09-.42v-.04l-.1-.4-.07-.32-.1-.41-.03-.12-.01-.05-.02-.08-.12-.45a.91.91 0 0 0 .16-.08c.08-.04.15-.1.22-.15a1.98 1.98 0 0 0 .43-.46c.08-.12.15-.25.2-.39a4 4 0 0 0 .12-.35l.13-.5a.17.17 0 0 0 -.12-.2l-.02-.03z" fill="#68cbe3"/><path d="m160.75 104.65-.06.01a.9.9 0 0 0 -.23.08l-.04.01h-.01a1.7 1.7 0 0 0 -.49.38c-.2.22-.38.46-.51.73-.18-.43-.38-.85-.6-1.26a4.44 4.44 0 0 0 .47-.57 1.76 1.76 0 0 0 .26-.7.33.33 0 0 0 0-.14c0-.13-.05-.23-.2-.2l-.03.01a.23.23 0 0 0 -.06.03c-.22.12-.4.3-.5.53a2.85 2.85 0 0 0 -.24.51c-.2-.34-.43-.68-.67-1l.24-.29v-.01c.07-.1.12-.2.16-.3l.03-.06c.06-.22.1-.45.09-.67v-.12c-.02-.2-.09-.48-.28-.46a.25.25 0 0 0 -.12.03c-.31.18-.36.7-.41.96a4.1 4.1 0 0 0 -.06.49c-.32-.4-.71-.76-1.15-1.03.2-.34.22-.76.05-1.1-.28-.45-.8-.68-1.32-.57a.1.1 0 0 0 -.07.13v.02c.22.42.46.83.73 1.22-.25-.09-.5-.16-.76-.21-.49-.55-1.19-.9-1.83-.5a.13.13 0 0 0 -.03.13c.17.4.56.67 1 .7.2.04.41.03.62-.02.19-.05.39-.06.58-.03.19.06.37.12.55.2-.27.02-.52.14-.72.32-.23.22-.38.5-.44.82-.01.07.01.11.05.1a2.66 2.66 0 0 0 1.46-1.06h.03c.46.3.86.67 1.19 1.1a1.78 1.78 0 0 0 -.4-.08c-.42-.06-.85.05-1.2.3a.15.15 0 0 0 -.07.14c.05.27.4.25.79.22.33-.03.78-.25 1.1-.17.42.11.43.7.72.94a1.91 1.91 0 0 0 -1.76-.32c-.04.02-.1.06-.1.1 0 .37.29.53.67.62.43.08.85.13 1.29.12h.12l.05-.01h.02c.2.38.4.78.56 1.18a1.8 1.8 0 0 0 -1.63-.17c-.06.02-.08.09-.05.11.54.38 1.19.55 1.84.47l.1.3a13.12 13.12 0 0 1 .57 2.4h.2l-.03-.27-.06-.31a9.67 9.67 0 0 0 -.3-1.3 9.93 9.93 0 0 0 -.31-.94 3.4 3.4 0 0 0 .88-.65.5.5 0 0 0 .06-.08l.09-.13.12-.23.02-.03.14-.34c.03-.06-.02-.1-.1-.1v.02zm10.7-4.46c-.34-.46-.94-.47-1.44-.41-.28.04-.56.13-.81.27a5.15 5.15 0 0 1 -1.46.62c.48-.45.97-1.08.79-1.78a.1.1 0 0 0 -.13-.07l-.02.01c-.38.21-.7.5-.96.86a1.2 1.2 0 0 0 -.19 1.18l-.03.02h-.01c-.68.3-1.31.7-1.89 1.16.08-.15.14-.3.2-.46.22-.48.35-1 .4-1.52a.1.1 0 0 0 -.1-.1h-.03c-.27.06-.5.22-.67.44-.16.21-.26.46-.31.71-.1.42.1.9-.01 1.28-.1.25-.27.47-.5.62-.2.17-.4.37-.53.61.3-.68.44-1.42.37-2.16v-.08a.1.1 0 0 0 -.12-.08 1.2 1.2 0 0 0 -.63.48.92.92 0 0 0 -.13.21 2 2 0 0 0 -.17.53 3.57 3.57 0 0 0 .13 1.54l.01.03.03.1.04.04v.02c-.33.48-.63.97-.9 1.48a3.81 3.81 0 0 0 -.13-.96 1.68 1.68 0 0 0 -.47-.8.1.1 0 0 0 -.14.03l-.01.02-.04.2a3.2 3.2 0 0 0 -.02 1c.05.4.24.76.53 1.03l-.14.29a25.22 25.22 0 0 0 -.83 1.84l-.14.36-.11.27h.21l.1-.24c.22-.55.46-1.1.71-1.64l.27-.57.14-.28c.31.12.65.18 1 .18a4.2 4.2 0 0 0 1.01-.2c.07 0 .08-.08.03-.13-.37-.44-1.26-.5-1.82-.27.28-.53.6-1.03.94-1.52.44.12.9.15 1.35.1.21-.04.65-.09.39-.42a1.19 1.19 0 0 0 -.92-.33l-.35.01.5-.6c.2-.18.36-.38.57-.55.11.06.2.15.32.2.13.07.26.12.4.15.23.05.45.08.68.1.2 0 .66.09.55-.28-.1-.35-.58-.51-.87-.58a1.86 1.86 0 0 0 -.53-.05c.26-.2.53-.39.81-.57.3-.17.58-.32.89-.46.18.35.5.6.86.73.47.13.97.03 1.35-.26a.1.1 0 0 0 .02-.15l-.02-.01a3 3 0 0 0 -1.39-.63c.32-.11.64-.21.97-.3.83.24 1.64.4 2.39-.13a.1.1 0 0 0 0-.13h.01z" fill="#68cbe3"/><path d="m162.22 92.47c.83-.74 1.6-1.48 1.9-2.6a.1.1 0 0 0 -.06-.1h-.01c-.62 0-1.19.6-1.55 1.19a4 4 0 0 0 -.46 1.07c-.08.35-.17.69-.29 1.02l-.39 1c.04-.42 0-.85-.09-1.27a1.2 1.2 0 0 0 -.6-.87c-.06-.03-.13.03-.16.11a4.11 4.11 0 0 0 -.1 1.62c.09.54.32.99.72 1.11l-.02.04v.02c-.3.95-.53 1.91-.7 2.9-.04-.24-.1-.47-.14-.63a5.23 5.23 0 0 0 -.7-1.67c-.05-.06-.13-.03-.16.03-.17.3-.24.64-.21.98v.13a2.78 2.78 0 0 0 .3.92c.18.27.42.5.58.78a.8.8 0 0 1 .1.27c.18.62-.21 1.42-.16 2.08v.05-.1a6.52 6.52 0 0 0 -.55-1.83 2.6 2.6 0 0 0 -.44-.64.1.1 0 0 0 -.12 0l-.01.03c-.19.35-.26.75-.22 1.14.02.21.07.42.13.62l.05.12a5.82 5.82 0 0 0 .94 1.55l.02.03.08.09.05.03.02.01-.01.21c-.02.36-.03.73-.03 1.09v1.05a4.84 4.84 0 0 0 -.69-1.16c-.18-.23-.43-.4-.71-.47-.03 0-.06.02-.09.05a.18.18 0 0 0 -.01.1c.08.34.2.66.33.98a4 4 0 0 0 .38.67c.2.28.47.5.78.62l.01.29.02.81.02.6.03.58c0 .23.02.47.04.7l.07 1.18h.19l-.03-.53a162.66 162.66 0 0 1 -.08-1.37c0-.2 0-.39-.02-.58l-.03-.73-.02-.85v-.2l.1-.02a1 1 0 0 0 .16-.05h.03l.05-.03a2.78 2.78 0 0 0 .56-.3h.02l.04-.03a5.76 5.76 0 0 0 .79-.93.13.13 0 0 0 -.02-.18l-.02-.01a.46.46 0 0 0 -.13-.05.64.64 0 0 0 -.2-.03 1.56 1.56 0 0 0 -.86.37 2.24 2.24 0 0 0 -.48.53l-.06.08v-1.22c0-.25.01-.5.03-.74 0-.15 0-.31.02-.47l.03-.02.25-.14c.36-.19.68-.45.93-.78.16-.22.5-.68.1-.83-.32-.12-.71.16-.97.4l-.23.23-.05.05c0-.06 0-.13.02-.2.01-.25.04-.5.07-.75l.15-1.17c.13-.04.26-.04.38-.08a1.56 1.56 0 0 0 .6-.38 6.21 6.21 0 0 0 .75-.87c.1-.17.12-.34-.03-.46-.31-.23-.8.13-1.07.36-.17.14-.33.3-.47.46.17-.88.39-1.76.65-2.62.36.14.89-.11 1.19-.37.47-.46.78-1.06.88-1.72a.1.1 0 0 0 -.06-.12h-.06c-.6.23-1.12.6-1.55 1.06l.26-.64.28-.63z" fill="#68cbe3"/><path d="m163.52 115.71h-6.15l-1.52-8.56h8.88z" fill="#f7a91b"/><path d="m163.92 116.52h-6.95l-.81-2.36h8.57l-.8 2.36z" fill="#f19020"/><path d="m131.3 118.68c-.16.83-.7 1.64-1.5 1.88-1.16.32-2.28-.6-3.08-1.5a27.56 27.56 0 0 1 -4.2-6.4c-.06-.12-.97-1.67-.97-1.71-.65 1.6-2.1 13.53-2.28 16.13-.38 5.28 1.35 7.95.94 13.24l-19.6-1.77c.05 0-.4-13.79-.48-14.99a271.1 271.1 0 0 0 -.64-7.55c-.11-1.13-.16-2.2-.27-3.27-3.46 3.81-9.31 9.2-10.62 9.04-1.2-.14-1.94-1.47-1.87-2.66a7.1 7.1 0 0 1 .7-2.4c.27-.62.57-1.23.82-1.8.74-1.73 1.67-3.4 2.53-5.08 1.34-2.58 2.67-5.64 4.6-7.94a5.55 5.55 0 0 1 2.26-2.59c2.11-1.38 4.62-2.02 7.12-2.42 3.9-.6 7.8-.67 11.56.47a19.15 19.15 0 0 1 10.1 7.07c2.55 3.41 3.77 7.63 4.67 11.74.23.82.3 1.67.21 2.51z" fill="#4675b9"/><path d="m114.71 124.8h4.78l.1-.96h-4.88v.97zm11.43-6.42h5.18c.03-.33.02-.65-.01-.97h-5.93zm-11.43 0h5.56l.13-.97h-5.69zm0-6.44h6.57c.07-.33.15-.65.26-.97h-6.82v.97zm7.39 0h7.9l-.3-.97h-8.14c.03.08.3.54.54.97zm-7.39-6.44h12.43c-.2-.32-.42-.64-.66-.96h-11.77v.97zm0-6.43h5.64c-.64-.36-1.3-.68-1.99-.96h-3.65zm0 22.53h5.15c.03-.33.07-.65.12-.97h-5.27v.96zm0-6.45h6.02l.15-.96h-6.16v.96zm9-.23.15.23h7l-.24-.96h-7.32zm-9-6.2h14.14l-.45-.96h-13.7v.96zm0-6.43h9.85c-.33-.34-.68-.66-1.03-.96h-8.82zm0 21.55h-.11v.97h.11zm0-6.44h-.11v.97h.11v-.96zm0-6.43h-.11v.97h.11zm0-6.43h-.11v.96h.11zm0-6.44h-.11v.97h.11v-.96zm0 22.53h-.11v.96h.11zm0-6.43h-.11v.95h.11v-.96z" fill="#fff"/><path d="m114.71 107.75h-.11v.97h.11zm0-6.43h-.11v.97h.11zm0 36.36h5.53c-.01-.33-.04-.66-.06-.97h-5.46v.97zm0-6.44h4.67l-.1-.96h-4.57zm5.49 9.08.03-.4h-4.4zm-5.49-5.86h5.16a69 69 0 0 0 -.16-.96h-5zm0-6.44h4.5l.06-.94v-.02h-4.56zm0 8.69h-.11v.97h.11zm0-6.43h-.11v.96h.11v-.97zm0 3.22h-.11v.96h.11zm0-6.44h-.11v.96h.11zm-.22-3.22h-14.35l.04.97h14.3v-.97zm.11 0h-.11v.97h.1v-.97zm-27.76-5.46h6.68l1.06-.97h-7.44c-.13.31-.22.64-.3.97zm27.65-.98h-14.87l.09.97h14.78v-.96z" fill="#fff"/><path d="m114.6 117.4h-.11v.97h.1v-.96zm-.11-6.43h-24.3l-.5.97h24.8zm.11 0h-.11v.97h.1v-.97zm-.11-6.43h-20.94c-.19.31-.38.64-.55.96h21.48v-.96zm.11 0h-.11v.96h.1v-.96zm-.11-6.44h-14.49c-.68.27-1.34.6-1.97.97h16.44v-.96zm.11 0h-.11v.97h.1v-.96zm-26.6 23.5h1.29c.53-.29 1.03-.6 1.5-.97h-3.72c.2.4.53.75.94.96zm26.49-.97h-14.6l.08.96h14.52zm.11 0h-.11v.96h.1v-.96zm-26.36-5.7-.1.22h8.77l.95-.96h-9.28l-.33.74zm26.25-.73h-15.16l.08.95h15.08v-.96zm.11 0h-.11v.95h.1v-.96zm-.11-6.45h-22.66l-.48.97h23.14zm.11 0h-.11v.97h.1v-.97zm-.11-6.43h-18.85c-.1.18-.2.38-.27.58l-.3.39h19.42z" fill="#fff"/><path d="m114.6 101.32h-.11v.97h.1v-.97zm-.11 35.39h-13.92l.02.97h13.9zm.11 0h-.11v.97h.1v-.97zm-.11-6.43h-14.12l.03.96h14.08v-.97zm.11 0h-.11v.96h.1v-.97zm-.11 3.22h-14.02l.03.96h13.98v-.96zm.11 0h-.11v.96h.1v-.96zm-.11-6.44h-14.22l.03.96h14.19zm.11 0h-.11v.96h.1v-.96z" fill="#fff"/><path d="m104.27 79.77c-1.74 1.52-2.16 3.46-2.53 5.6-.42 2.47-1.45 4.36-.56 6.92.27.77.66 1.5.82 2.3.22 1.09 0 2.22.12 3.33.32 3.03 3.4 5.4 6.45 5.23 1.47-.08 2.96-.67 4.4-.29.95.26 1.75.93 2.66 1.33 1.1.5 2.38.51 3.5.02a3.12 3.12 0 0 0 1.77-2.89c-.1-1.53-1.5-2.99-.94-4.41.45-1.15 1.91-1.54 2.58-2.57.78-1.18.23-2.81-.7-3.88-.94-1.07-2.19-1.82-3.13-2.88-1.5-1.7-.46-3.18-1.16-4.95-1.3-3.3-5.17-5.31-8.63-4.9a8.6 8.6 0 0 0 -4.66 2.04z" fill="#f7a91b"/><path d="m103.51 149.98-12.01 34.92 1.94.67 12.02-34.91-1.94-.67zm11.06-.01-1.94.67 12.02 34.9 1.94-.66-12.02-34.9z" fill="#005384"/><path d="m123.6 137.25c-1.35 3.78 1.37 7.37.4 11.22-.79 3.1-3.59 5.36-6.61 6.38-1.96.6-3.99.93-6.03.96a42 42 0 0 1 -1.63.03h-.21c-.55 0-1.09-.01-1.63-.03a21.2 21.2 0 0 1 -6.03-.96c-3.03-1.02-5.83-3.29-6.6-6.38-.98-3.85 1.73-7.44.38-11.22-.92-2.56-3.14-4.58-3.63-7.26-.53-2.9 1.21-5.84 3.6-7.6 4.02-2.96 9.1-3.69 14-3.68h.03c4.88-.1 10.49 1.1 14 3.68 2.39 1.75 4.13 4.7 3.6 7.6-.5 2.68-2.72 4.7-3.64 7.26zm-7.05 22.05-20.65 14.6.6.83 20.63-14.59-.6-.83z" fill="#005384"/><path d="m101.04 159.3-.6.83 20.64 14.59.6-.84-20.64-14.59zm-23.52-65.96h-40.55v.24h40.55zm0-8.15h-40.55v.23h40.55zm0-8.16h-40.55v.24h40.55zm0-8.16h-40.55v.24h40.55zm0-8.15h-40.55v.24h40.55zm0-8.16h-40.55v.24h40.55z" fill="#005384"/><path d="m45.23 52.68h-.23v40.8h.23zm8.14 0h-.24v40.8h.24zm-16.27 0h-.24v40.8h.23v-40.8zm40.54 0h-.24v40.8h.24zm-8.14 0h-.24v40.8h.24zm-8.14 0h-.24v40.8h.24z" fill="#005384"/><path d="m70.66 53.52h-10.55v12.68h10.55z" fill="#68cbe3"/><path d="m63.4 63.28v-5h-.83v-.68c.25-.03.48-.12.68-.27.2-.13.36-.32.46-.54h.68v6.5h-.98zm3.31-6.58c.4 0 .8.16 1.07.47.27.3.42.68.41 1.08v3.54c.01.41-.14.8-.42 1.1-.56.59-1.49.6-2.07.05l-.06-.06a1.5 1.5 0 0 1 -.4-1.09v-.13h1v.16c0 .14.05.28.14.4a.49.49 0 0 0 .72 0 .61.61 0 0 0 .13-.4v-1.3c-.2.19-.47.3-.74.3-.38.02-.74-.15-.97-.45-.2-.33-.3-.71-.28-1.1v-1.12c.01-.29.1-.57.26-.81.27-.41.73-.65 1.21-.65zm.51 1.57a.62.62 0 0 0 -.12-.4.48.48 0 0 0 -.68-.05l-.05.04a.62.62 0 0 0 -.13.4v1.2c0 .19.08.36.21.48.08.06.18.1.28.09.23.01.44-.16.46-.4a.65.65 0 0 0 .03-.18z" fill="#005384"/><path d="m71.77 75.62h-7.09v9.07h7.09z" fill="#f19020"/><path d="m69.64 74.79h-.49a.27.27 0 0 1 -.27-.27v-.42c0-.3-.25-.56-.56-.57a.6.6 0 0 0 -.6.59v.4c0 .15-.12.27-.27.27h-.5a.48.48 0 0 0 -.47.48v.52h3.64v-.52a.48.48 0 0 0 -.48-.48zm-1.34-.46a.25.25 0 0 1 -.25-.26.25.25 0 0 1 .5 0c0 .14-.1.26-.25.26z" fill="#a7a8ab"/><path d="m70.12 75.62h-3.64v.5h3.64z" fill="#929497"/><path d="m70.12 75.62h-3.64v.17h3.64z" fill="#d1d3d4"/><path d="m56.06 84.42h-7.36v7.64h7.35v-7.64z" fill="#68cbe3"/><g fill="#005384"><path d="m52.7 87.34c.06-.03.14-.04.18-.1v-.05h-.05c-.04.03-.08.1-.12.1-.05-.01-.09-.03-.11.01l-.04.04-.01.03h.03c.04 0 .08-.02.11-.03zm.93-.81h.02a.24.24 0 0 0 .05-.04l.07-.07c-.05-.06-.01-.1.02-.13l-.02-.03h-.04l-.02.01a.8.8 0 0 1 -.08.24zm.27-.43v-.04h-.03a.26.26 0 0 0 -.04.07v.05l.05-.02.02-.07zm.32.15a.3.3 0 0 0 -.03.08v.03h.02l.03-.02a.16.16 0 0 0 .05-.05.1.1 0 0 0 -.03-.05h-.04zm-.99 1.7v.03h.02l.04-.04v-.01l.03-.05c-.02 0-.03.02-.05.03a.13.13 0 0 0 -.03.03h-.01zm.14-.03h.03l.01-.05-.04-.02zm1.1-1.54.01.02h.02l-.02-.02zm-.47-.32h-.03v.03l.02-.01v-.02zm-.9 2.06-.02.03h.02zm.08-.06.02-.01v-.02h-.02v.02zm.54-.54h.02v-.02h-.02zm-.19.23.03.01v-.02h-.03zm-.51-.91v.02l.01.02.01-.03zm.24 1.26h.02v-.04h-.02v.03zm.97-1.94h-.02v.02-.02zm-.77.79v.04l.02-.03z"/><path d="m54.53 86.48.03.03c0 .05 0 .1.03.16.02.03-.01.03-.03 0-.04-.03-.07 0-.06.02.05.07 0 .09-.03.13l-.02.04v.08c-.1-.04-.05.07-.1.1h-.05a.24.24 0 0 0 -.23.02c-.02 0-.01.06-.03.07h-.09c-.05 0-.04.06-.02.08.05.07 0 .11-.03.12-.11.01-.13.1-.17.16-.04-.02-.08-.03-.1 0l-.03.04c.1.14-.07.11-.09.18l-.03.03-.02-.03c.03-.03.02-.05 0-.08a.18.18 0 0 0 -.06-.03v.15c-.05-.01-.06.04-.1.05a.22.22 0 0 0 -.16.16c-.02.04-.02.1-.1.11-.02 0-.03.05-.03.07l-.02.15c0 .02.02.05-.04.03-.08-.04-.18-.06-.18.07 0 .02-.05.03-.07.04l-.07.04c-.04.01-.03.02.01.07l.05.06c.01.01.02.03.01.04s-.02.02-.04.01c-.02 0-.04-.06-.05 0l-.04.07a.09.09 0 0 1 -.06.01l-.02-.04c0-.02-.02-.02-.02-.03l-.01-.02h-.03c0 .06-.05.06.05.1 0 .01.04.07-.03.06-.02 0-.06-.01-.07 0-.04.04-.05.11-.1.12-.08.02-.07.07-.1.12 0 .03 0 .06-.06.06-.05 0-.1.04-.1.09l-.02.02a.67.67 0 0 1 -.13.12.53.53 0 0 0 -.1.15c-.02.04-.1.02-.1.1 0 .06-.1.06-.13.11-.04.06-.05.12-.12.15-.07.02-.06.13-.14.14-.06 0-.13.02-.13.05 0 .05-.03.09-.06.11a.1.1 0 0 0 -.04 0c-.01 0-.02.02 0 .03.04.06.04.06-.03.05-.02 0-.06-.01-.07 0v.1c-.05 0-.08.02-.08.07l-.02.03c-.05-.07-.1-.04-.16-.05-.07-.01-.09-.2-.17-.2 0-.03 0-.06-.04-.06-.06-.02-.08-.05-.05-.09.02-.02.05-.03 0-.07a.26.26 0 0 1 -.07-.25c.01-.1.08-.09.1-.18a.33.33 0 0 1 .09-.17c.04-.04.12-.06.1-.16l.04-.02c.05-.04.16 0 .17-.1 0 0 .02-.08.06-.07l.03.01v.03l-.09.09v.05c.02 0 .06.02.07 0 .04-.02.08-.04.09-.08 0-.05 0-.09.06-.07.02 0 .03-.02.03-.03-.02-.16.1-.2.13-.31.09.02.14.03.12-.09l.06-.04c.04-.02.09-.02.05-.09l.04-.05c0-.04-.04-.12.06-.1l.01-.06c0-.07.08-.08.12-.1.02-.02.02.02 0 .04v.03h.03l.06-.06h.03v.05a.4.4 0 0 0 0 .12c0 .02.06-.06.05-.14 0-.03-.02-.08 0-.1.02-.03 0-.09.07-.09.05 0 .09-.06.11-.1l.03-.05.03.05a.27.27 0 0 1 .04-.03h-.02a.32.32 0 0 1 .1-.08c.04-.02.1-.09.09-.1-.07 0-.05-.02-.02-.05a.39.39 0 0 1 .21-.13c.05-.02.08-.02.03-.08l.02-.02.05.05.04-.04.06-.02.02-.03h.02v.03c-.04.04-.08.1-.13.11-.04.01-.02.04-.02.06l.01.02c.02 0 .05.03.07-.03 0-.05.05-.1.09-.1.08 0 .08-.04.06-.1 0-.04.03-.02.04-.02.06-.04.12-.08.1-.17 0-.02.05-.04.07-.07a.22.22 0 0 1 .1-.04c.06-.01 0-.03 0-.05l-.04-.04-.17.16h-.04a.08.08 0 0 1 -.02-.04c.04-.02-.01-.12.08-.1l.09-.13.06.1h.04c.05-.03-.04-.11.06-.13.02 0 .03-.07.05-.12h.03-.02c-.04-.05-.02-.06.03-.06l.06.02c0-.06.05-.1.08-.15.04-.05.1-.03.12-.09l.02-.01.02.02c-.02.04.01.11-.06.13-.05 0-.08.05-.12.08 0 0 0 .03.02.04l.03.02c.03 0 .05-.11.08 0 .02 0 .04 0 .04-.02.04-.12.15-.18.23-.27l.09-.09a.36.36 0 0 0 .03-.05l-.06.03-.03.03-.05.02s0-.03.02-.04c.02-.03.05-.04.05-.1 0-.05.04-.03.07 0 .03.04.08.05.08 0s.03-.03.05-.04 0-.05.02-.07c0-.02.03-.02.04-.02v.04c.01.07-.03.15.06.2 0 0-.02.01-.02.03s-.1.04.02.06l-.01.04v.04l.14-.1.06-.09h.07l-.01.05-.06.06v.05c.07.04.05.1.06.16l.02.03.04-.03s.02-.03 0-.04c-.07-.08.04-.07.05-.12zm-3.96 3.36.06.03c0-.03 0-.06-.02-.08h-.05v.05zm.24-.08h-.03l-.01.19c0 .02.04.06-.02.06-.04 0-.07.01-.04.05.04.06.06.02.08 0l.02-.02.06-.06v-.03c-.14-.02.03-.07-.03-.1l.02-.06-.04-.03zm-.11-.16h-.1v.04h.1zm.44-.38.04-.03c.08.06.05 0 .07-.03v-.01a.09.09 0 0 0 -.06-.08h-.02c0 .03 0 .06-.05.05h-.03c0 .02-.04.03-.01.06.02.03.04.06.06.04zm-.45.26s.06-.02.01-.06c0-.02-.03-.02-.09 0 0 .02-.02.03.02.06zm.37.25h-.04c.01.08-.06.05.07.13.05 0 .03-.05.02-.09a.11.11 0 0 0 -.05-.04zm0-.41c-.05-.04-.06.03-.1.05l-.02.02a.24.24 0 0 0 -.05.05c-.03.03-.08.04-.06.1v.05h.04c.03-.02.08-.05.08-.08-.02-.08.08-.04.07-.07-.02-.07.06-.1.04-.12zm.22.16v-.1a.1.1 0 0 0 -.05.01v.04c.02 0 .04.06.06.05zm.11-.27a.32.32 0 0 0 -.07-.03c-.01.04-.03.08-.02.1.04.06.05.14.03.2 0 .01.01.04.03.05l.04-.01c-.01-.07.05-.08.06-.13 0-.04-.04-.1-.06-.15v-.03zm-.12-.25.02-.02.05-.05-.01-.03-.09.09.03.02zm.16 0c-.06-.05-.06.01-.08.03l.03.07.08-.05s-.01-.04-.03-.05zm.33.04h-.02l-.02.02a.08.08 0 0 0 0 .11c.05.05.06 0 .08-.02l.03-.03-.08-.08zm-.2-.22a.14.14 0 0 0 -.09-.05v.07c-.02.03-.08.03-.05.08a.98.98 0 0 0 .11-.05l.02-.04v-.01zm-.08-.11.1-.1-.03-.04h-.04l-.03.03zm.55.27-.05.01c-.03.02-.04.04 0 .07h.07l-.01-.08zm-.17-.29c-.05-.04-.06-.02-.09.04l-.02.03a.38.38 0 0 0 -.03-.08.67.67 0 0 0 -.05.2l.02-.01h.03l.05.03-.02-.05c-.05-.04-.03-.07 0-.1.01 0 .03.02.04.01h.04a.16.16 0 0 0 .03-.07zm.16-.16-.03-.02c-.07-.01-.08 0-.03.07.03.04.04.1.01.1h-.02v.05c0 .02.02.04.03.05 0-.03.03-.05.06-.05l-.01-.2zm-.05-.17c-.04-.04-.06.02-.08.04-.01.02-.09.03-.02.09.04.04.05-.03.08-.04.01-.02.08-.03.02-.09zm.6-.16c.04 0 .06-.04.05-.07l-.04-.05h-.07v.02l-.02.02c0 .01 0 .03.02.04a.1.1 0 0 0 .07.05zm.06-.28c-.05-.03-.08 0-.12.03l-.04.03h-.02c0 .01 0 .03.02.05h.1v-.03h.05v-.07h.01zm-.17-.05v.04l-.01.02.01.01c.03-.03.07-.05.07-.09v-.03c-.04 0-.06.03-.06.06zm-.07.02.05-.01a.23.23 0 0 0 .03-.06l-.06.01zm-.2-.02c.03.05.1.03.11.02l.02-.03h-.03c-.02 0-.04-.02-.05 0a.07.07 0 0 1 -.05.01zm.3.38.05-.02v-.05l-.03.02zm-.43-.22.03.03.06-.07-.04-.03zm.3.2-.1-.04-.08.07c-.06.05-.04.12-.02.17.01.03.05.08.1.03.01-.01.03-.02.05-.01.07.03.06-.07.11-.05l-.01-.1c-.03-.03-.05 0-.07.02l-.03.02c-.02.02-.04.07-.08.02-.03-.04 0-.05.03-.07a.7.7 0 0 1 .1-.06zm.02 0-.08-.08c-.01.01-.02.03.07.08zm.28.04s-.03 0-.04.02a.13.13 0 0 1 -.04.01l.08.05v-.07zm.08-.33.03-.03c.02-.02.04-.05.03-.08 0-.03.06-.03.03-.07a.32.32 0 0 0 -.07.06l-.03.04.02.03c-.01.02-.04.04-.06.04v.05h.06l.02-.02v-.03h-.02zm.2-.07a.07.07 0 0 0 -.06.08v.01l-.01.05.06-.02.02-.11h-.01zm.12-.21-.05-.04-.06.01c-.07.05-.07.08-.03.14l.04.01c-.02-.07.06-.05.08-.08zm.2-.8.06-.04c.03-.02.04-.06.1-.05v-.03c-.03-.05-.07-.06-.11 0l-.03.05-.01.08v-.01zm-.15.3h.02c.01 0 .03-.01.05-.04l.01-.05-.05.03a.13.13 0 0 0 -.03.04v.03zm.1.34-.05.01a.23.23 0 0 0 -.03.06l.05-.01.02-.06zm.37 0h-.07v.04h.06v-.03h.01zm-.13-.41s-.03.02-.05.01c-.07 0-.1.06-.14.1-.03.02-.13.02-.05.11v.04a.36.36 0 0 1 -.16.05c-.04 0-.07 0-.04-.01v-.06c0 .02 0 .04-.05.1-.02.03-.01.05.03.07.08.06.1.06.11-.02.02-.04.03-.06.07-.07a.2.2 0 0 0 .15-.14v-.04c.1.02.08-.08.12-.11v-.04zm.06-.16a.15.15 0 0 0 .07-.06v-.03l-.04.02c-.04 0-.04 0-.02-.03v-.03h-.03a.73.73 0 0 0 -.08.08l-.04.08c.05 0 .09 0 .13-.02zm.29.08h-.03a.4.4 0 0 0 -.06.06l-.03.05c.05.02.05-.03.07-.04a.24.24 0 0 0 .05-.05v-.01zm-.04-.37v.04l-.02.03c0 .02-.06.04-.02.06.03 0 .07.07.1.02 0 0 .02-.02-.06-.15zm.02 0 .08.1.02-.04a.11.11 0 0 0 -.1-.06zm.14-.15h.12l-.03-.09h-.03v.01l-.04.03zm.02.17.04-.06-.04-.01-.04.07zm.47 0h-.03l-.09.08-.09.09v.03h.03l.06-.02c.07.01.08-.01.08-.07l.03-.09v-.02z"/><path d="m52.02 89.36a.85.85 0 0 0 .04-.11l-.02-.04-.07.08.05.06zm-.16.07.08.01-.02-.07h-.05zm-.82-.48v-.07a.24.24 0 0 0 -.05-.01l-.02.07c.03 0 .06.02.08.01zm.26-.34-.06.01-.01.07.04-.01a.33.33 0 0 0 .03-.07zm-.08 1.41v.01h-.01c-.02 0-.03.03-.01.04l.08-.04c-.01-.03-.05.01-.06 0zm.5-.46v.01s-.02.03-.01.04c0-.01.04-.02.04-.04s-.03-.01-.04 0zm.51-.56v.04l.07-.05c-.03-.03-.04 0-.06 0zm-1.18 1.17h.02l.02-.01h-.01zm1.66-1.71c-.03 0-.05.06-.01.08.03-.01.09-.03.1-.05a.11.11 0 0 0 -.08-.05m.12-.08s-.02.04 0 .06c.04 0 .07-.02.05-.06 0-.02-.03-.02-.04-.03-.02-.03 0-.05-.03-.08-.1.03.01.09 0 .14h.01m.44.1c.03.06.04.15.1.19.02 0 .03 0 .04-.02.01 0 .02-.02.01-.04-.03-.04-.1-.08-.1-.12s.03-.08-.02-.11l-.03-.04-.03-.01v.04c0 .04.01.07.03.1zm.81.92v.03a1.36 1.36 0 0 0 .11.11c.06-.05.1 0 .13.02l.03-.01v-.05l-.01-.02a.8.8 0 0 1 -.25-.08zm.44.27h.03v-.03a.25.25 0 0 0 -.07-.03h-.05l.02.05zm-.16.33a.29.29 0 0 0 -.08-.03h-.03v.02l.02.03.05.05.05-.02v-.06zm-1.7-.99h-.03v.03l.03.03.02.01.05.02-.03-.05a.13.13 0 0 0 -.04-.03zm.03.14v.03l.05.01.02-.04zm1.54 1.1h-.02v.02h.02zm.32-.47v-.03h-.03l.01.03zm-2.07-.91h-.02l.02.02zm.07.09v.03h.03v-.03zm.53.54v.02h.03v-.02zm-.23-.19v.03h.01l.02-.03h-.02zm.92-.51h-.03v.02h.02v-.02zm-1.25.24v.02h.02v-.02zm1.93.97v-.02h-.02.02zm-.79-.77h-.03v.01h.02v-.01z"/><path d="m54.12 90.31-.02.03c-.06.02-.1 0-.16.03-.03.02-.03 0-.01-.03.03-.04 0-.07-.02-.06-.06.06-.09 0-.12-.03a.09.09 0 0 0 -.05 0h-.07c.03-.11-.08-.06-.1-.1v-.06a.24.24 0 0 0 -.03-.24c0-.01-.05 0-.06-.02v-.1c0-.04-.06-.03-.08-.02-.08.05-.12 0-.12-.03-.02-.1-.1-.13-.17-.17.02-.04.03-.08 0-.1l-.04-.03c-.13.1-.11-.06-.17-.08-.02 0-.02-.03-.03-.04l.03-.01c.02.03.04.01.07-.01l.03-.05h-.15c.01-.05-.04-.06-.05-.1a.22.22 0 0 0 -.15-.17c-.05-.01-.12-.02-.12-.1l-.07-.03-.15-.02c-.02 0-.05.02-.03-.03.04-.08.07-.19-.07-.19-.02 0-.03-.04-.04-.06l-.04-.07c-.02-.05-.02-.04-.07 0l-.06.05c0 .01-.03.02-.04.01s-.02-.02-.01-.04c0-.02.06-.04 0-.05a.13.13 0 0 1 -.06-.04.08.08 0 0 1 -.02-.06l.04-.02c.02 0 .02-.02.03-.02l.03-.01-.02-.03c-.05 0-.05-.05-.08.05-.02 0-.08.04-.07-.03 0-.02.01-.06 0-.07-.04-.04-.11-.05-.12-.1-.02-.08-.07-.07-.12-.1-.03 0-.06 0-.06-.06a.1.1 0 0 0 -.09-.1l-.02-.02a.68.68 0 0 1 -.12-.13.53.53 0 0 0 -.15-.09c-.04-.02-.02-.12-.1-.12-.06 0-.06-.09-.11-.12-.06-.03-.13-.05-.15-.12s-.13-.05-.14-.14c0-.05-.02-.12-.06-.12s-.08-.03-.1-.07v-.04h-.03c-.06.04-.06.04-.05-.03v-.06l-.1-.01c0-.05-.02-.08-.07-.08l-.03-.02c.07-.04.04-.1.05-.15.01-.07.2-.1.2-.17.03 0 .05 0 .06-.05.02-.05.05-.07.09-.04.01.01.03.05.07 0 .07-.07.16-.1.25-.07.1 0 .09.08.18.09a.3.3 0 0 1 .17.1c.04.03.06.12.16.1l.02.04c.03.05-.01.16.1.16 0 0 .07.03.07.06l-.02.04-.03-.01-.08-.08-.05-.01c0 .02-.03.06-.01.07.02.04.05.09.09.1.05 0 .08 0 .07.06 0 .01.01.03.03.03.15-.03.2.08.31.13-.02.08-.03.13.09.11v.01a.1.1 0 0 1 .04.06c.01.03.02.08.08.05l.06.03c.04.01.12-.03.1.06l.06.02c.07 0 .07.07.1.11.02.03-.02.02-.04.01h-.03v.02l.06.06v.03h-.05a.3.3 0 0 0 -.12 0c-.02 0 .06.05.14.05.03 0 .08-.02.1 0 .03.02.09 0 .09.07 0 .04.06.09.1.11l.05.03-.05.03.03.04.01-.02c.03.03.06.06.07.1.02.04.1.1.1.08 0-.06.02-.04.06-.02.06.06.1.13.12.22.02.05.02.07.08.02l.02.03a.64.64 0 0 1 -.05.05c.02 0 .03.02.05.03l.02.06.02.03v.02h-.03c-.03-.04-.09-.08-.1-.13-.02-.05-.05-.02-.07-.03l-.02.02c0 .02-.02.05.03.06.04.01.1.05.1.1 0 .07.05.07.1.06.04 0 .02.03.03.04.04.06.08.12.17.1l.06.06.05.1c0 .06.03 0 .05 0l.04-.04a5.75 5.75 0 0 1 -.16-.16v-.05a.08.08 0 0 1 .04-.02c.02.04.12 0 .1.08l.13.1-.11.05v.05c.03.04.12-.04.13.05 0 .03.08.04.13.06l-.02.02h.02v-.02c.05-.04.06-.01.05.03l-.01.06c.06 0 .1.05.14.09.05.03.03.1.1.11v.02s0 .02-.02.02c-.03-.02-.1.01-.12-.06-.01-.05-.05-.08-.09-.12 0 0-.03 0-.04.02l-.01.03c0 .03.1.05-.01.09l.02.03c.12.04.19.15.27.23l.1.1.05.02-.03-.06-.04-.03-.02-.05c.01 0 .03 0 .04.02.03.02.05.05.1.05s.04.04 0 .07-.04.08 0 .08c.06 0 .03.03.05.04 0 .02.05.02.07.03l.02.04h-.04c-.07 0-.15-.03-.2.06l-.03-.02c-.02 0-.05-.1-.06.01h-.08l.1.13.08.07v.06l-.05-.01-.06-.05h-.04c-.05.06-.11.04-.17.05a.1.1 0 0 0 -.03.02l.03.04c.01 0 .03.02.04 0 .08-.06.07.05.12.05v.01zm-3.36-3.95-.03.06c.03 0 .05 0 .08-.02v-.04zm.08.25v-.03l-.19-.02c-.02 0-.06.04-.06-.02 0-.04-.01-.06-.05-.04-.06.04-.02.06 0 .09l.02.02.06.06h.03c.02-.14.07.03.1-.04l.06.02zm.16-.12v-.1h-.04v.1zm.38.44.03.04c-.06.08 0 .06.03.07h.01c.04 0 .07-.02.08-.06v-.02c-.03 0-.06 0-.05-.04v-.03c-.02-.01-.03-.05-.06-.02-.03.02-.06.04-.04.05zm-.27-.45s.03.06.07.02c.02-.02.02-.04 0-.1-.02 0-.03-.02-.06.02a.06.06 0 0 0 0 .06zm-.25.37v-.04c-.07.02-.05-.06-.13.08.01.04.05.03.1 0a.1.1 0 0 0 .03-.04zm.42.01c.04-.05-.03-.06-.06-.1 0-.01 0-.02-.02-.03a.24.24 0 0 0 -.04-.04c-.04-.03-.05-.09-.11-.07l-.05.01v.04c.03.03.05.08.09.07.07-.01.03.1.07.08.07-.03.1.06.12.04zm-.17.22h.1a.1.1 0 0 0 -.01-.05h-.03c0 .02-.06.04-.06.05zm.27.11.03-.08c-.04 0-.08-.03-.1-.01a.22.22 0 0 1 -.2.02l-.05.03.01.04c.07 0 .08.06.13.07.05 0 .1-.04.15-.06zm.25-.13.02.03.04.04h.03l-.08-.1zm0 .17c.04-.06-.02-.06-.03-.08l-.07.03c0 .03.03.05.05.08l.04-.03zm-.05.33v-.02l-.02-.02a.08.08 0 0 0 -.11 0c-.05.05 0 .06.02.08l.03.03.08-.08zm.22-.2a.14.14 0 0 0 .05-.09h-.07c-.03-.02-.03-.08-.09-.05a.6.6 0 0 0 .06.11l.04.02zm.1-.08.1.1.04-.03v-.04l-.03-.03zm-.27.55-.02-.05c-.01-.03-.04-.04-.06 0-.01.01 0 .04 0 .07l.08-.01zm.28-.17c.04-.05.03-.06-.04-.09l-.02-.02.07-.03a.68.68 0 0 0 -.2-.05s0 .02.02.02v.03l-.03.05c.02 0 .04-.01.05-.03.04-.05.07-.03.1 0l-.02.05.01.03zm.16.16.02-.03c.01-.07 0-.08-.07-.03-.04.03-.1.03-.1.01v-.02h-.05a.08.08 0 0 0 -.05.03c.03 0 .05.03.05.06l.2-.01zm.17-.05c.03-.04-.02-.06-.04-.08-.02-.01-.04-.09-.1-.03-.03.05.03.05.04.08.03.02.04.09.1.03zm.15.6c0 .04.04.05.07.05l.06-.04v-.07h-.03a.04.04 0 0 1 -.02-.03.11.11 0 0 0 -.04.03.13.13 0 0 0 -.05.07zm.27.06c.03-.05 0-.08-.02-.12l-.03-.05c-.01-.01-.03 0-.05.01.02.02 0 .06 0 .1l.02.01v.04h.08zm.05-.17h-.03l-.02-.01h-.02.01c.03.03.04.07.08.07h.04c0-.03-.03-.05-.06-.06zm-.03-.07.02.04c.01.02.03.02.05.03l-.01-.05zm.02-.2c-.04.02-.03.1-.02.11l.03.02.01-.03v-.05a.07.07 0 0 1 -.02-.05zm-.38.3.02.05h.05l-.02-.03a.24.24 0 0 0 -.05-.02zm.21-.43-.02.03.07.06.03-.05zm-.2.3a.3.3 0 0 1 .04-.11l-.07-.07c-.04-.06-.11-.05-.17-.03-.03.02-.08.06-.02.1v.06c-.02.06.08.05.05.1l.1-.01c.04-.03 0-.05-.02-.07l-.02-.02c-.01-.02-.06-.04-.01-.08.03-.04.05 0 .06.02a.2.2 0 0 1 .06.1h.01-.01zm0 .01.08-.07c0-.01-.03-.02-.08.07zm-.04.28s0-.03-.02-.04a.13.13 0 0 1 -.01-.04l-.04.08zm.33.09.02.02c.02.02.05.04.09.03.02 0 .02.07.07.04a.31.31 0 0 0 -.06-.08l-.04-.02-.03.01a.06.06 0 0 1 -.04-.06h-.05v.07l.02.02h.03v-.02zm.07.2a.07.07 0 0 0 -.08-.07h-.01l-.05-.01.02.06.11.02zm.21.11.04-.05-.01-.06c-.05-.06-.08-.06-.15-.02v.03c.06-.01.04.06.08.08 0 .01.03.03.04.02zm.8.21.03.05c.02.03.06.05.06.1h.03c.05-.03.05-.06 0-.11l-.06-.03h-.07zm-.32-.15v.01l.05.05.05.02-.03-.05a.13.13 0 0 0 -.04-.04h-.03zm-.33.09s0-.04-.02-.04a.23.23 0 0 0 -.05-.03l.01.05zm-.01.37v-.07l-.04.01v.05l.03.01zm.42-.13-.02-.04c.01-.07-.05-.1-.09-.14-.03-.04-.03-.14-.12-.05l-.03-.01a.36.36 0 0 1 -.05-.15c.01-.05 0-.07.02-.05h.05s-.04 0-.1-.04c-.02-.02-.05-.02-.07.02-.05.09-.06.1.02.12.04.01.06.02.07.06a.2.2 0 0 0 .14.15l.04.02c-.02.09.08.06.11.1l.04.01zm.15.07c.01.03.03.05.06.07h.03l-.02-.04c0-.04.01-.04.03-.02h.03v-.03l-.08-.08-.07-.04.01.13zm-.09.29s.02-.02.01-.03a.39.39 0 0 0 -.06-.06l-.05-.03c-.02.05.03.05.04.07l.05.05zm.38-.04h-.05c0-.01-.01-.02-.03-.02s-.03-.06-.05-.02c0 .03-.07.07-.02.1 0 .01.01.02.15-.06zm-.01.02-.1.08.03.02a.1.1 0 0 0 .06-.1zm.15.14-.02.04v.04l.02.04c.03 0 .05-.02.08-.03v-.03l-.04-.04-.04-.03zm-.18.02.05.04.02-.04-.07-.04zm0 .47v-.03l-.08-.09-.1-.09h-.02v.03l.02.06c-.02.07 0 .08.07.08l.09.03h.03z"/><path d="m51.25 87.82.1.03c.02 0 .03 0 .05-.02l-.09-.06-.06.04zm-.07-.17-.02.09.08-.02-.01-.05-.05-.01zm.48-.81h.06l.02-.05-.08-.02c0 .03-.02.06 0 .08zm.34.25-.02-.05-.06-.02v.04l.07.03zm-1.42-.08h-.01c0-.02-.02-.03-.04-.01l.04.07c.03-.01-.01-.05.01-.05zm.46.49h-.04s.02.05.03.04c.02 0 .02-.02.01-.04zm.57.53h-.04c0 .02.02.04.04.06.03-.02 0-.04 0-.06zm-1.18-1.18v.01c0 .01 0 .02.02.03v-.01zm1.72 1.65c0-.03-.06-.04-.09 0 .02.02.03.08.06.1a.11.11 0 0 0 .04-.09m.09.13s-.04-.03-.06-.01c0 .05.02.08.06.05l.03-.04c.03-.02.05 0 .08-.03-.04-.1-.09.01-.14 0"/></g><path d="m70.26 77.6c.15-.18.32.24.33.33.15.4.16.84.06 1.26-.13.45-.35.87-.64 1.24-.2.27-.45.53-.7.75a1.8 1.8 0 0 1 -.5.33l-.65.3c-.2.1-.4.22-.64.36l-.46.24-.26.12c-.18.03-.22.1-.11.21-.01.09.24.33.02.39-.21.06-.22-.29-.24-.36-.13-.28-.4-.5-.56-.85a2.5 2.5 0 0 1 .3-2.49 3.04 3.04 0 0 1 2.2-1.25c.6-.06 1.29 0 1.86-.58.16-.14-.56.5 0 0zm-.52.57c-.15.05-.31.05-.36.16a2.1 2.1 0 0 0 -.01.5c.12-.07.33-.14.39-.27a.8.8 0 0 0 -.02-.4c-.12.05.01.13 0 0zm-.54.13c-.21.03-.27.03-.3.26l-.05.55c.1-.05.29-.09.34-.18.08-.13.01-.47 0-.63 0 .19-.08.01 0 0zm-.74.1c-.03.23-.23.62-.13.97.08-.05.23-.08.3-.15.06-.08.04-.14.06-.26.03-.21.03-.43.06-.6l-.3.03c-.02.22.1-.02 0 0zm-.18.02c-.3.05-.38.3-.5.65-.04.16-.2.46-.06.67.1-.07.38-.15.41-.26.02-.05-.03-.27-.02-.35.03-.26.13-.49.17-.71-.08 0-.02.13 0 0zm-.88.28c.07.17-.18.55-.22.73-.06.28-.08.58-.05.86.08-.1.36-.26.4-.4 0-.06-.07-.27-.07-.37.02-.34.13-.68.3-.97-.12.04-.25.09-.36.15 0 .02.12-.06 0 0zm-.25.13c-.38.22-.63.63-.64 1.07-.04.4 0 .81.12 1.2.07-.17.22-.35.28-.52.03-.18.03-.35 0-.53 0-.42.08-.83.24-1.22-.16.11-.2.55 0 0zm-1.05 1.22c.1.56.13 1.14.36 1.6.04-.13.06-.26.05-.39-.02-.09-.14-.31-.16-.45-.08-.4-.08-.8-.01-1.2-.1.14-.18.29-.24.44 0 0 .06-.15 0 0zm-.17.59c-.09.6.08 1.2.48 1.66-.03-.5-.38-1-.48-1.66.1.47-.06.58 0 0zm.7 1.8c.48-.2.94-.44 1.36-.73a6.5 6.5 0 0 0 -1 .13c-.41.1-.39.3-.35.6.6-.2-.01-.17 0 0zm1.71-.91.4-.21c-.3-.02-.7-.08-1.18-.1-.19-.02-.62-.07-.76.03-.11.08-.12.37-.14.5.32-.08.64-.13.97-.15l.46-.04c.08-.01.15-.07.25-.04.15-.07-.02 0 0 0zm1.04-.71c-.4 0-.82-.05-1.22-.15a4.7 4.7 0 0 0 -.77-.04c-.32.01-.38.2-.5.43a5 5 0 0 1 1.34.06c.4.04.65.13.85-.03.09-.08.2-.17.3-.28zm.23-.24c.14-.15.27-.31.39-.49-.44.2-.92.23-1.38.11a5.94 5.94 0 0 0 -.72-.14c-.28-.01-.45.2-.61.4.43 0 .86.04 1.29.12.2.04.39.06.59.06.1 0 .31-.12.44-.06.13-.14-.01 0 0 0zm.59-.82.11-.25c-.39.25-.85.36-1.3.3-.2 0-.38-.07-.57-.1a.67.67 0 0 0 -.51.17c.37.08.75.15 1.13.18.22.02.43 0 .64-.07.08-.02.39-.28.5-.23.04-.08-.03-.02 0 0zm.25-.67.03-.16c-.64.53-1.42.32-1.95.6.32.13.68.16 1.02.09.35-.08.67-.26.9-.53.02-.05-.4.45 0 0zm.07-.5c0-.16-.02-.32-.06-.48-.3.45-.71.81-1.2 1.05.24-.01.49-.07.71-.17.15-.06.38-.34.55-.4 0-.17-.02 0 0 0zm-.16-.76c-.1.08-.22.16-.33.22-.12.12-.09.13-.08.35.17-.17.3-.36.41-.57-.11.21 0-.01 0 0z" fill="#fff"/></svg>