<svg fill="none" height="192" viewBox="0 0 193 192" width="193" xmlns="http://www.w3.org/2000/svg" xmlns:xlink="http://www.w3.org/1999/xlink"><linearGradient id="a" gradientUnits="userSpaceOnUse" x1="95.4815" x2="95.4815" y1="128.534" y2="56.3575"><stop offset="0" stop-color="#fff"/><stop offset="1" stop-color="#52c8eb"/></linearGradient><path d="m123.57 92.7916c4.457.1668 9.622 2.2353 13.089 4.6585 3.467 2.4233 5.596 5.3969 2.526 8.4049-2.378 2.541-2.703 4.723 2.292 5.957 3.81.572 6.721 6.358 5.572 9.779-1.15 3.42-4.825 3.597-5.356 6.258-.354 1.682 4.776 12.113-.941 14.331-5.717 2.217-8.25-9.296-9.53-10.343-2.042-1.696-4.953.632-7.953-1.206s-4.309-8.239-1.744-11.237c3.085-4.303 1.497-5.751-1.889-6.102-4.203-.245-4.39-3.977-3.233-8.16 1.156-4.184 3.849-9.2252 7.167-12.351z" fill="#68cce5"/><path d="m123.771 92.7427-.407.1426 17.177 49.3897.408-.143z" fill="#fff"/><path d="m117.394 112.636-.361-.235 8.653-13.5316 14.939 4.5626-.124.412-14.628-4.4637z" fill="#fff"/><path d="m121.745 128.992-.333-.277 10.277-12.549 15.625 2.987-.078.426-15.374-2.941z" fill="#fff"/><path d="m135.021 139.182-.385-.196 2.947-5.911 5.872 2.452-.166.397-5.501-2.295z" fill="#fff"/><path d="m123.323 115.46-.344-.266 5.774-7.462 9.028 1.827-.089.426-8.762-1.777z" fill="#fff"/><path d="m129.117 131.301-.34-.266 5.586-7.195 8.706 1.763-.085.423-8.444-1.707z" fill="#fff"/><g fill="#68cce5"><path d="m56.8548 84.6315c.375.0745.7464.1561 1.1143.2483 4.1216.9831 7.8032 3.3058 10.4713 6.6064l.0566.0709v.0887c-.697 4.1955-2.7609 8.041-5.8689 10.9352-3.0933 2.891-6.8506 4.971-10.9382 6.056-3.3536.933-7.8039 1.16-12.5266.646-3.863-.422-12.1551-2.129-15.8837-5.61l-.0955-.088.0389-.124c1.5318-4.8789 7.8853-10.4847 11.0337-12.7731 3.8489-2.7923 7.8287-4.8004 11.2035-5.6555 3.7222-.975 7.6134-1.1119 11.3946-.4009zm11.207 7.0427c-4.9278-6.1202-13.5347-8.5151-22.4848-6.2409-3.3289.8444-7.2591 2.8384-11.0691 5.5916-3.0777 2.2353-9.272 7.685-10.8392 12.4361 3.6933 3.338 11.7696 4.999 15.5654 5.414 4.6731.511 9.0703.284 12.3815-.635 8.89-2.452 15.1798-8.7957 16.4462-16.5658z"/><path d="m68.2231 91.4372-44.8486 11.9008.105.398 44.8486-11.9009z"/><path d="m32.5058 92.0928.3892.1348-3.2971 9.6614 7.0257 6.649-.2795.298-7.2167-6.83z"/><path d="m41.8627 86.3806.3962.0958-3.205 12.8934 9.6894 9.5442-.2865.291-9.8557-9.7075z"/><path d="m50.2008 84.4043.3997.0958-3.0105 12.606 9.1942 9.2709-.2901.291-9.3569-9.4377z"/><path d="m58.8286 85.3232.3927.1207-2.8619 9.3205 7.7933 5.8866-.2441.326-8.0268-6.0565z"/><path d="m64.6549 97.2303c.3538-.1668.7075-.3229 1.0436-.4684 3.8889-1.6831 8.224-2.0275 12.3285-.9792l.0884.0213.0425.0816c1.9451 3.7744 2.5907 8.0884 1.836 12.2684-.7581 4.172-2.531 8.091-5.1613 11.411-2.1226 2.757-5.5647 5.609-9.6612 8.025-3.3465 1.98-11.016 5.571-16.0748 5.024h-.1273l-.0425-.12c-1.6803-4.833.0708-13.128 1.2347-16.85 1.415-4.548 3.4173-8.543 5.6106-11.25 2.3971-3.017 5.4307-5.4632 8.8828-7.1637zm13.1811-1.0644c-7.5988-1.9479-15.9192 1.295-21.7455 8.4801-2.1651 2.671-4.132 6.617-5.5399 11.119-1.1391 3.637-2.8513 11.708-1.2806 16.466 4.9526.461 12.4169-3.048 15.6962-4.967 4.0506-2.395 7.429-5.209 9.5515-7.926 5.6637-7.327 6.9337-16.193 3.3218-23.1828z"/><path d="m77.8176 95.8535-28.8606 36.4285.3213.256 28.8606-36.4285z"/><path d="m49.5815 117.809.3927-.125 3.1166 9.722 9.5904 1.117-.046.408-9.8557-1.149z"/><path d="m53.6743 107.622.3785-.159 5.1154 12.254 13.4534 1.842-.0531.408-13.6869-1.874z"/><path d="m59.186 101.037.375-.163 5.1012 11.911 12.898 1.923-.0636.404-13.1209-1.955z"/><path d="m66.6504 96.6024.3856-.1349 3.2616 9.1855 9.7567.046-.0035.408-10.0432-.046z"/></g><path clip-rule="evenodd" d="m85.8062 125.008c-.0922-.55-.3264-1.067-.6793-1.498-.344-.424-.7794-.765-1.2735-.997 1.0523-2.21 1.5387-4.649 1.4151-7.096.5446-.025 1.0765-.173 1.5565-.433.4901-.264.9023-.653 1.1957-1.128.3326-.552.5371-1.173.5984-1.815.0612-.642-.0224-1.29-.2446-1.896-.2107-.647-.5665-1.237-1.0401-1.724-.4128-.446-.9276-.785-1.4999-.987-.5188-.187-1.0755-.244-1.6214-.166-.5459.079-1.0642.291-1.5094.617-1.3817-2.017-3.2465-3.655-5.4231-4.761.2616-.491.4008-1.037.4058-1.594.0049-.556-.1246-1.105-.3775-1.5996-.2966-.5305-.6988-.9943-1.1816-1.3624-.5476-.3989-1.1751-.6736-1.839-.8053-.664-.1318-1.3485-.1172-2.0063.0425-.5868.1564-1.1348.433-1.6096.8125-.4191.3603-.745.817-.9501 1.331-.2051.5143-.2833 1.0703-.2279 1.6213-2.4321.192-4.7772.994-6.8205 2.331-.2893-.471-.6891-.864-1.1646-1.144-.4754-.28-1.012-.439-1.5629-.464-.6097-.03-1.2174.092-1.7688.355-.6234.269-1.1767.678-1.6166 1.196-.4348.475-.7575 1.042-.9442 1.659-.1868.618-.2329 1.269-.1348 1.907.0916.551.3258 1.068.6792 1.5.3442.424.7797.763 1.2736.994-1.0461 2.212-1.5264 4.651-1.3974 7.096-.5446.025-1.0766.173-1.5565.433-.4901.264-.9023.653-1.1957 1.128-.3319.553-.536 1.173-.5972 1.815s.022 1.29.2434 1.896c.2185.647.5815 1.236 1.0613 1.721.4117.448.9267.788 1.4999.99.5191.186 1.0755.242 1.621.163.5456-.078 1.0638-.289 1.5098-.614 1.3828 2.017 3.2472 3.654 5.4231 4.761-.2622.491-.4017 1.037-.4067 1.594-.0049.556.1249 1.105.3784 1.6.2974.531.6994.995 1.1816 1.366.5487.396 1.1762.67 1.8397.801.6636.132 1.3476.119 2.0056-.039.5862-.157 1.1339-.434 1.6096-.812.4183-.361.7438-.818.9489-1.332.205-.513.2836-1.069.2291-1.62 2.4324-.194 4.7774-.997 6.8205-2.335.2896.471.6894.864 1.1647 1.145s1.0118.441 1.5628.466c.6096.028 1.2168-.094 1.7687-.355.6237-.269 1.1769-.68 1.6167-1.199.4284-.478.7442-1.047.9242-1.664s.2196-1.267.1159-1.901zm-16.8106-.515c-1.6325-.326-3.132-1.13-4.3089-2.311s-1.9784-2.685-2.3033-4.322c-.3249-1.638-.1586-3.335.478-4.877.6365-1.543 1.7147-2.862 3.0983-3.79s3.0104-1.424 4.675-1.426c1.6646-.001 3.2922.493 4.6772 1.419 1.3849.926 2.465 2.244 3.1038 3.785.6388 1.542.8076 3.239.4851 4.877-.2144 1.089-.6409 2.125-1.255 3.048-.614.924-1.4037 1.717-2.3237 2.334-.92.618-1.9523 1.047-3.0379 1.263-1.0856.217-2.2031.217-3.2886 0z" fill="#f4b61a" fill-rule="evenodd"/><path d="m66.3709 127.562c-2.9137-1.105-5.2887-3.297-6.6286-6.118-1.3399-2.82-1.541-6.051-.5612-9.017.9797-2.966 3.0645-5.437 5.8185-6.897s5.9642-1.796 8.9594-.938c2.9953.859 5.5439 2.845 7.1131 5.544s2.0376 5.902 1.3073 8.939c-.7304 3.037-2.603 5.674-5.2263 7.358-2.6234 1.685-5.7946 2.288-8.8506 1.682-.6583-.129-1.3045-.314-1.9316-.553zm8.4902-22.537c-2.2891-.864-4.7877-1.003-7.1581-.398-2.3703.606-4.4981 1.927-6.0955 3.785-1.5975 1.858-2.5877 4.163-2.8367 6.603-.2489 2.441.2553 4.899 1.4446 7.043 1.1892 2.144 3.0061 3.87 5.2051 4.944 2.1989 1.075 4.6738 1.446 7.0901 1.065 2.4163-.382 4.6574-1.499 6.4203-3.2 1.7629-1.7 2.9627-3.903 3.437-6.31.5642-2.786.1171-5.683-1.2606-8.167-1.3778-2.485-3.5956-4.394-6.2532-5.383z" fill="#e9e8e9"/><path d="m70.648 128.364c-.7898 0-1.5777-.078-2.3525-.231-.66-.132-1.3083-.317-1.9386-.553-2.8288-1.072-5.1557-3.166-6.5237-5.871-1.368-2.704-1.6781-5.824-.8695-8.747.8086-2.922 2.6776-5.435 5.2397-7.046s5.6321-2.203 8.607-1.659c2.9749.543 5.6396 2.183 7.4707 4.597 1.831 2.413 2.696 5.426 2.4251 8.447-.271 3.02-1.6583 5.83-3.8895 7.877-2.2311 2.047-5.1449 3.183-8.1687 3.186zm-.0213-24.219c-2.8255-.013-5.5653.972-7.7391 2.783-2.1738 1.81-3.6427 4.33-4.1491 7.118s-.018 5.666 1.3796 8.129c1.3975 2.463 3.615 4.354 6.2635 5.341.6268.235 1.2716.419 1.928.55 1.6401.307 3.3261.269 4.9507-.112 1.6247-.382 3.1524-1.098 4.4861-2.104 1.3337-1.005 2.4443-2.278 3.261-3.737.8168-1.459 1.3219-3.073 1.4832-4.739.1613-1.665-.0246-3.346-.546-4.936s-1.3669-3.053-2.4827-4.297-2.4775-2.242-3.9986-2.93c-1.521-.688-3.1681-1.051-4.8366-1.066zm.0213 24.091c-.7814-.001-1.5609-.077-2.3278-.227-3.0911-.645-5.8036-2.487-7.5477-5.127s-2.3789-5.863-1.7664-8.969c.6124-3.107 2.4227-5.845 5.0372-7.62 2.6146-1.776 5.8221-2.444 8.9253-1.86.6465.13 1.2817.312 1.8997.542 2.6237.993 4.8171 2.877 6.1983 5.325 1.3813 2.448 1.8628 5.303 1.3607 8.07-.502 2.767-1.9558 5.27-4.1081 7.073-2.1524 1.803-4.8671 2.791-7.6712 2.793zm0-23.959c-2.9545.005-5.8015 1.112-7.988 3.105-2.1865 1.992-3.5566 4.729-3.844 7.678-.2875 2.949.5281 5.9 2.2884 8.28s4.3396 4.019 7.2371 4.598c.7621.15 1.5369.226 2.3135.227 2.7869-.003 5.4843-.987 7.6228-2.779s3.5827-4.28 4.0813-7.03.0199-5.588-1.3526-8.021c-1.3726-2.432-3.5522-4.305-6.1594-5.292-.6126-.232-1.2433-.412-1.8856-.539-.7643-.152-1.5414-.23-2.3206-.231z" fill="#e9e8e9"/><path clip-rule="evenodd" d="m107.471 19.2953c-.141-.4011-.385-.7574-.708-1.0324-.305-.2727-.668-.4728-1.061-.5854.249-.889.39-1.8053.417-2.7284.027-.9239-.061-1.8476-.262-2.7497.404-.0903.783-.2684 1.111-.5216.331-.2609.59-.6031.75-.9934.183-.4574.26-.95041.226-1.44198-.035-.49157-.179-.96898-.424-1.3964-.239-.45639-.579-.85198-.994-1.15665-.365-.28267-.794-.47146-1.249-.54993-.411-.0736-.833-.04549-1.231.08188s-.758.35015-1.05.649c-1.287-1.32348-2.88-2.30608-4.6383-2.85967.1323-.39813.167-.82236.1011-1.23678-.0659-.41441-.2304-.8068-.4796-1.14392-.2902-.35999-.6516-.655925-1.0613-.869249-.4594-.229585-.9632-.356122-1.4764-.370826-.5131-.014704-1.0233.082777-1.4951.285675-.4178.191723-.7922.46699-1.1002.80894-.2675.32272-.4537.70519-.543 1.11518-.0892.41-.079.83551.03 1.24068-1.7937.45293-3.4463 1.3481-4.8075 2.60421-.2745-.3162-.6223-.55989-1.0128-.70961s-.8117-.20089-1.2265-.149c-.4567.05239-.8938.21558-1.2735.47543-.4317.28199-.7945.65793-1.0613 1.09988-.2638.41108-.4326.8762-.4938 1.36122-.0612.48501-.0134.97763.14 1.44168.1413.40054.3853.75664.7075 1.03244.3057.2723.6684.4723 1.0613.5854-.5039 1.7849-.5574 3.6674-.1556 5.4781-.4039.0903-.783.2684-1.1108.5216-.3311.2609-.5894.6031-.75.9934-.1828.4574-.2599.9504-.2256 1.442.0344.4916.1792.969.4237 1.3964.2381.4572.5783.853.9941 1.1566.3643.2822.7917.4709 1.2452.55.4115.0739.8347.0459 1.2329-.0815.3983-.1273.7595-.3503 1.0524-.6494 1.2881 1.3319 2.8869 2.3208 4.6519 2.8774-.1332.398-.1683.8224-.1024 1.237s.2309.807.4809 1.1437c.29.3603.6514.6563 1.0613.8692.4666.2094.9681.3297 1.4787.3548.511.0007 1.0175-.0956 1.4928-.2838.4194-.1908.7952-.4661 1.1038-.8089.2676-.3226.4537-.7052.5424-1.1154.0887-.4101.0774-.8357-.033-1.2405 1.7944-.4514 3.4477-1.3467 4.8077-2.6042.275.3159.622.5595 1.013.7092.39.1497.811.201 1.226.1494.458-.0518.896-.215 1.277-.4754.433-.2808.796-.657 1.061-1.0999.263-.4126.429-.8791.487-1.3649.058-.4857.007-.9784-.15-1.4416zm-12.6261 1.7315c-1.2576-.0391-2.4756-.4509-3.5001-1.1836s-1.8095-1.7533-2.2561-2.9331-.5347-2.4659-.2531-3.6959c.2816-1.2299.9202-2.3487 1.8352-3.2149.9151-.86625 2.0654-1.4412 3.306-1.65226 1.2405-.21106 2.5156-.04878 3.6643.46637 1.1487.51514 2.1194 1.36009 2.7899 2.42809.67 1.068 1.01 2.3112.976 3.5727-.022.8407-.21 1.6686-.552 2.4362-.343.7677-.833 1.46-1.4423 2.0372-.6097.5772-1.3271 1.028-2.111 1.3264-.7838.2985-1.6187.4388-2.4568.4128z" fill="#4687c7" fill-rule="evenodd"/><path d="m93.2565 23.6452c-2.3231-.4541-4.3813-1.7913-5.7443-3.7319-1.363-1.9407-1.9254-4.3346-1.5695-6.6814s1.6025-4.46482 3.4791-5.91129c1.8767-1.44647 4.2382-2.10944 6.5909-1.85033 2.3526.25912 4.5143 1.42026 6.0333 3.24072 1.519 1.8204 2.278 4.1593 2.117 6.5276-.16 2.3684-1.227 4.5829-2.978 6.1806-1.75 1.5978-4.0484 2.4551-6.4144 2.3928-.5084-.0142-1.0148-.07-1.5141-.1668zm3.5164-17.92439c-.489-.09422-.9846-.1488-1.4823-.1632-2.3327-.06271-4.5992.78148-6.3256 2.35604-1.7264 1.57455-2.7791 3.75755-2.9378 6.09245-.1587 2.335.5888 4.6411 2.0861 6.4361 1.4974 1.795 3.6287 2.9399 5.9483 3.1953 2.3195.2554 4.6477-.3985 6.4974-1.8249 1.85-1.4265 3.079-3.515 3.429-5.8288.35-2.3139-.205-4.6739-1.55-6.58665-1.345-1.91272-3.3745-3.22998-5.6651-3.67634z" fill="#4687c7"/><path d="m96.5569 23.7161c-1.2744.2366-2.5842.2003-3.8436-.1064-1.2595-.3066-2.4401-.8768-3.4644-1.673-1.0244-.7963-1.8694-1.8007-2.4797-2.9474-.6103-1.1466-.9721-2.4097-1.0617-3.7065-.0895-1.2967.0952-2.5977.542-3.8179.4468-1.2201 1.1457-2.33173 2.0509-3.26203.9051-.9303 1.996-1.65825 3.2013-2.13614 1.2052-.47788 2.4976-.69492 3.7923-.63687 2.2562.10115 4.3965 1.03134 6.013 2.61329 1.616 1.58196 2.596 3.70505 2.752 5.96485.156 2.2597-.522 4.498-1.906 6.2884-1.383 1.7903-3.3753 3.0076-5.5961 3.4197zm-3.0529-18.09465c-2.1041.35943-4.0162 1.44683-5.404 3.07326-1.3878 1.62639-2.1636 3.68909-2.1927 5.82959-.029 2.1405.6906 4.2236 2.0338 5.8872 1.3433 1.6637 3.2252 2.8028 5.3188 3.2195.4982.0966 1.0033.1523 1.5105.1667 1.273.0355 2.5393-.1967 3.7175-.6815s2.2421-1.2116 3.1231-2.1335c.882-.9219 1.561-2.0186 1.995-3.2196.433-1.201.611-2.4796.522-3.7537-.089-1.2742-.442-2.5156-1.038-3.6444-.596-1.12884-1.42-2.12013-2.421-2.91015-1.0008-.79002-2.1552-1.36127-3.3891-1.67702-1.234-.31576-2.5202-.36903-3.7759-.15638zm3.0352 17.98475c-.5843.0977-1.1767.1381-1.7688.1206-2.3277-.07-4.5394-1.0353-6.177-2.696-1.6376-1.6606-2.5756-3.8893-2.6197-6.2245-.0442-2.3352.809-4.598 2.3826-6.3197 1.5737-1.72168 3.7473-2.77034 6.0708-2.9288 2.3234-.15846 4.6185.58543 6.4099 2.0776 1.792 1.49217 2.942 3.6183 3.214 5.938.271 2.3197-.357 4.6553-1.756 6.5229-1.398 1.8677-3.4589 3.1244-5.7558 3.5099zm-3.0069-17.91379c-2.2213.37605-4.2221 1.57174-5.6091 3.35209-1.387 1.7804-2.0599 4.0166-1.8865 6.2693.1734 2.2526 1.1806 4.3588 2.8236 5.9045 1.6431 1.5457 3.8031 2.4192 6.0557 2.4489 2.2525.0296 4.4346-.7868 6.118-2.2888 1.682-1.502 2.744-3.5809 2.977-5.8282.232-2.2473-.382-4.5005-1.722-6.31674-1.34-1.81622-3.3091-3.06413-5.5198-3.49848-1.0674-.21187-2.1644-.2263-3.2369-.04257z" fill="#4687c7"/><path clip-rule="evenodd" d="m65.5819 65.9796c.5526-.5637.9468-1.2638 1.1427-2.0294.1953-.7514.2195-1.5371.0707-2.2991 3.4038-.6495 6.5921-2.141 9.2756-4.3392.4866.6024 1.102 1.0874 1.8006 1.4192.7125.3409 1.5016.4889 2.2888.4293.9092-.081 1.7887-.3656 2.5737-.8329.7849-.4673 1.4552-1.1054 1.9615-1.8671.5621-.7838.9361-1.6872 1.0931-2.6397.1656-.8469.1219-1.7215-.1273-2.5475-.2204-.7528-.6213-1.4401-1.1677-2.0017s-1.2216-.9804-1.9666-1.2198c1.1435-3.2767 1.4512-6.7882.895-10.2147.7755-.1109 1.513-.4078 2.1498-.8655.6367-.4576 1.154-1.0626 1.508-1.7635.3537-.7813.5473-1.6259.5696-2.4836-.0356-.96-.2466-1.9052-.6226-2.7887-.4312-.857-1.0178-1.6258-1.7299-2.2672-.669-.5423-1.4421-.9409-2.2711-1.1708-.7626-.1788-1.5568-.1706-2.3155.024s-1.4594.5697-2.0428 1.0936c-2.2588-2.6308-5.1388-4.6521-8.377-5.879.296-.7265.4105-1.5146.3334-2.2956s-.3434-1.5313-.7756-2.1855c-.4732-.7226-1.1141-1.3192-1.8679-1.7385-.8294-.4904-1.7602-.783-2.7204-.8551-.9067-.1011-1.8246.0037-2.6855.3064-.861.3028-1.643.7959-2.2883 1.4428-.5519.5655-.9459 1.2666-1.1426 2.033-.1954.7501-.2196 1.5347-.0708 2.2955-3.4002.652-6.5853 2.1419-9.2685 4.3356-.4858-.6032-1.1014-1.0883-1.8006-1.4191-.7128-.3399-1.5019-.4867-2.2888-.4258-.9092.0796-1.7889.3632-2.5739.83-.7851.4668-1.4554 1.1047-1.9613 1.8665-.5621.7838-.9361 1.6871-1.0931 2.6397-.1674.8479-.1237 1.7241.1274 2.551.2211.752.6223 1.4384 1.1686 1.9993.5464.5609 1.2212.9793 1.9656 1.2187-1.1449 3.2725-1.4563 6.7801-.9056 10.204-.775.1127-1.5115.4107-2.1476.8689-.636.4582-1.1528 1.0631-1.5067 1.7637-.3543.781-.548 1.6257-.5695 2.4836.0044.9631.217 1.9139.6232 2.7867.4061.8729.9961 1.647 1.7292 2.2691.67.5401 1.4428.9373 2.2712 1.1673.7623.1783 1.5561.1702 2.3147-.0237.7585-.1939 1.4594-.5678 2.0436-1.0904 2.2596 2.6299 5.1394 4.6509 8.377 5.879-.2958.726-.4101 1.5135-.333 2.2939s.3432 1.53.7752 2.1837c.4711.7243 1.1125 1.3213 1.8678 1.7385.8294.4904 1.7602.783 2.7204.8551.9057.1029 1.8229.0004 2.6838-.2999s1.6435-.7907 2.29-1.4351zm-13.4746-19.7268c-.9978-2.1473-1.3383-4.5431-.9784-6.8845.3599-2.3413 1.4039-4.5231 3.0002-6.2694 1.5962-1.7462 3.6729-2.9785 5.9674-3.5411 2.2945-.5625 4.7038-.43 6.9233.3808 2.2194.8108 4.1493 2.2634 5.5456 4.1743 1.3962 1.9108 2.1962 4.194 2.2986 6.5608.1025 2.3668-.4972 4.7109-1.7231 6.7359-1.2259 2.0251-3.023 3.64-5.164 4.6406-2.871 1.3418-6.1558 1.4849-9.132.3976-2.9761-1.0872-5.3997-3.3156-6.7376-6.195z" fill="#4687c7" fill-rule="evenodd"/><path d="m46.4121 45.7809c-1.0752-3.9161-.7333-8.0876.9651-11.7751 1.6985-3.6874 4.6438-6.6527 8.3139-8.3703 3.1749-1.4763 6.7251-1.9397 10.171-1.3276s6.6214 2.2702 9.0977 4.7503c2.4762 2.48 4.1338 5.6626 4.7488 9.1178.6151 3.4552.1579 7.0164-1.3097 10.2027-1.4676 3.1862-3.8749 5.8439-6.8968 7.6141-3.0218 1.7701-6.5126 2.5674-10.0006 2.2841-3.4881-.2832-6.8055-1.6334-9.504-3.8682-2.6985-2.2347-4.6481-5.2462-5.5854-8.6278zm32.8429-9.1254c-.9276-3.3544-2.8598-6.3424-5.5355-8.5596-2.6758-2.2173-5.9658-3.5571-9.4254-3.8381s-6.9217.5103-9.9183 2.2668c-2.9966 1.7566-5.3831 4.3937-6.8368 7.5548-1.4537 3.161-1.9044 6.6936-1.2913 10.1199.6131 3.4264 2.2606 6.5812 4.7196 9.038 2.4589 2.4568 5.6108 4.097 9.0294 4.6988 3.4187.6018 6.9391.1362 10.0853-1.3338 3.6529-1.6774 6.5862-4.6111 8.2688-8.27s2.0034-7.8012.9042-11.6768z" fill="#fff"/><path d="m49.0581 51.3798c-1.2282-1.6835-2.1438-3.5753-2.7028-5.5846-1.1439-4.1468-.7005-8.5727 1.2433-12.4083s5.2474-6.8036 9.2618-8.3209 8.4495-1.4742 12.4338.1208 7.23 4.6267 9.0993 8.4993c1.8693 3.8727 2.2272 8.3064 1.0033 12.4302s-3.941 7.6396-7.6176 9.8566c-3.6767 2.2171-8.047 2.9751-12.2525 2.1252s-7.9421-3.2463-10.4757-6.7183zm27.6426-20.3016c-2.504-3.4351-6.1936-5.8123-10.3497-6.6684-4.1561-.856-8.4811-.1296-12.1323 2.0378-3.6513 2.1673-6.3673 5.6204-7.6189 9.6863-1.2515 4.066-.949 8.4537.8486 12.3081.468 1.0133 1.0357 1.9773 1.6946 2.8774 2.6928 3.6207 6.7026 6.028 11.1565 6.698 4.4539.6701 8.9914-.4513 12.6249-3.1202 3.6336-2.6688 6.069-6.669 6.7762-11.13.7073-4.4609-.3709-9.0214-2.9999-12.689zm-27.4905 20.2022c-1.3716-1.9203-2.3298-4.1057-2.8139-6.4174-.484-2.3117-.4833-4.6992.0022-7.0106s1.4451-4.4963 2.8178-6.4157c1.3728-1.9194 3.1286-3.5314 5.156-4.7336s4.282-1.9682 6.6204-2.2494c2.3385-.2812 4.7098-.0715 6.963.616 2.2533.6874 4.3394 1.8374 6.1256 3.377 1.7863 1.5395 3.2337 3.4349 4.2502 5.5657.3939.8509.7181 1.7325.9693 2.6362 1.0882 3.8501.7898 7.9617-.8429 11.6132s-4.4955 6.6097-8.0859 8.3555c-3.5904 1.7459-7.6791 2.1679-11.5488 1.192-3.8696-.9759-7.273-3.2874-9.613-6.5289zm27.3526-20.0709c-2.489-3.4163-6.1619-5.7754-10.297-6.6136s-8.4333-.0948-12.0497 2.0839c-3.6164 2.1788-6.2895 5.6354-7.4938 9.6904-1.2044 4.055-.8529 8.4152.9853 12.2235 1.8382 3.8084 5.0302 6.7894 8.9486 8.3572s8.2798 1.609 12.227.1155c3.9471-1.4935 7.1945-4.4138 9.1039-8.1867s2.3427-8.1257 1.2147-12.2028c-.2485-.8983-.5716-1.7741-.9658-2.6184-.4639-1.0043-1.0243-1.9608-1.6732-2.8561z" fill="#fff"/><g fill="#68cce5"><path d="m137.795 85.6532c-.383 0-.761-.0426-1.136-.0781-4.216-.3583-8.196-2.1046-11.32-4.9671l-.068-.0639v-.0887c.059-4.2473 1.518-8.3558 4.15-11.6835 2.627-3.3182 6.029-5.9358 9.905-7.6211 3.184-1.4191 7.546-2.3132 12.293-2.5084 3.892-.1561 12.336.3051 16.539 3.1932l.106.0745-.022.1277c-.788 5.0524-6.24 11.5452-9.013 14.27-3.396 3.3387-7.033 5.918-10.259 7.2663-3.527 1.5095-7.343 2.2194-11.175 2.0791zm-12.127-5.2794c5.784 5.322 14.649 6.3864 23.164 2.8135 3.162-1.3269 6.757-3.8779 10.114-7.1775 2.713-2.6716 8.03-8.9835 8.876-13.9152-4.15-2.7497-12.382-3.1932-16.181-3.0335-4.698.1916-9.011 1.0644-12.145 2.4836-8.437 3.7324-13.726 10.9455-13.828 18.8291z"/><path d="m167.966 61.7895-42.583 18.4637.163.3777 42.582-18.4636z"/><path d="m160.768 74.6438-.403-.0745 1.825-10.0479-7.931-5.5242.233-.337 8.147 5.6767z"/><path d="m152.366 81.69-.407-.039 1.256-13.2268-10.998-7.9901.24-.3335 11.186 8.1284z"/><path d="m144.41 84.8868-.407-.0355 1.107-12.9147-10.467-7.7949.244-.3299 10.651 7.9332z"/><path d="m135.743 85.263-.407-.0603 1.45-9.6434-8.582-4.6549.195-.3619 8.833 4.7933z"/><path d="m129.506 99.4443c-.241-.3016-.467-.6032-.69-.9119-2.511-3.422-3.823-7.581-3.732-11.8289v-.0887l.067-.0603c3.226-2.7529 7.27-4.3562 11.501-4.5592 4.225-.197 8.433.6562 12.251 2.4836 3.159 1.4618 6.721 4.1724 9.976 7.6281 2.674 2.8384 7.895 9.509 8.49 14.575v.128l-.106.071c-4.316 2.728-12.778 2.888-16.648 2.59-4.737-.355-9.071-1.419-12.194-2.945-3.455-1.675-6.498-4.093-8.915-7.0817zm-4.015-12.6379c-.181 7.8658 4.846 15.2566 13.138 19.3366 3.082 1.511 7.362 2.544 12.049 2.906 3.793.291 12.028.145 16.273-2.463-.672-4.942-5.759-11.4419-8.38-14.2129-3.237-3.4167-6.722-6.0954-9.852-7.5359-8.36-3.8992-17.253-3.1399-23.228 1.9692z"/><path d="m125.39 86.5344-.177.3716 41.894 19.987.176-.372z"/><path d="m152.897 109.531-.209-.351 8.738-5.241-1.076-9.6216.407-.0462 1.104 9.8848z"/><path d="m142.075 107.828-.241-.333 10.755-7.7598-1.246-13.564.407-.0355 1.267 13.7946z"/><path d="m134.437 103.929-.244-.33 10.422-7.6674-1.044-13.0353.411-.0355 1.058 13.2659z"/><path d="m128.445 97.6348-.219-.3441 8.189-5.2582-2.154-9.544.396-.0923 2.222 9.8244z"/><path d="m65.7272 94.108c-2.3136-2.1784-4.521-7.0001-4.6342-9.3666-.1203-2.5191.8455-4.6621 3.0918-4.7579 2.0094-.0851 3.053 1.955 3.4952 3.9986.4422 2.0437-.4281 8.4548-1.9528 10.1259z"/><path d="m65.7269 94.1081c-3.5376-.8125-8.0409.259-9.7637 1.0644-1.5318.7273-2.9079 2.8384-1.9422 4.8605.8809 1.852 3.3006 2.161 5.2604.972 1.3089-.794 6.0139-4.4133 6.4455-6.9076z"/><path d="m56.2782 86.3662c-2.0659-2.8383-4.0116-7.4685-3.0741-10.3175.9374-2.849 2.1756-2.9342 3.2652-2.81 1.0895.1242 1.9527 2.0259 2.1013 3.6189.1486 1.5931-.651 6.5496-2.2924 9.5086z"/><path d="m44.3458 92.295c-.7783-1.3873.658-3.768 2.9043-4.8182 2.2464-1.0502 6.3677-1.7456 9.028-1.1105-1.4151 2.3026-4.2204 4.9672-6.4491 5.9961-2.2286 1.0289-4.6908 1.3163-5.4832-.0674z"/><path d="m35.9406 87.5018c-.7818-1.4937.2583-3.8105 2.0872-4.6975s7.3652-2.5581 10.0326-2.1288c-.9799 1.5362-5.6318 6.5318-7.4502 7.401-1.8183.8693-3.8913.9296-4.6696-.5676z"/><path d="m37.6141 78.1458c-2.6072-1.955-5.6035-5.5526-5.5399-8.3449.0637-2.7922 1.1356-3.1932 2.1438-3.3918 1.0082-.1987 2.2818 1.2666 2.8513 2.6538.5696 1.3873 1.2028 6.0032.5448 9.0829z"/><path d="m37.6141 78.1456c-3.2511-.1987-7.8534.6067-9.601 2.7781-1.7476 2.1713-1.1957 3.1932-.5483 3.9773.6473.7841 2.5576.5109 3.8913-.1739s4.7863-3.807 6.2615-6.5815z"/><path d="m27.96 75.4067c-3.244-.1951-6.2757-.2377-7.8534 1.3376-1.5778 1.5753-1.5743 2.7922-.9234 3.5834.651.7912 2.5577.5074 3.8914-.1809s4.0045-2.7461 4.8854-4.7401z"/><path d="m27.9598 75.4067c-2.5824-1.9868-4.9031-3.9489-5.0658-6.177s.6439-3.1329 1.6521-3.3138 2.264 1.3057 2.8123 2.6894c.5484 1.3837 1.217 4.7081.6014 6.8014z"/><path d="m20.2549 71.0958c-2.1225.337-5.5292-.5606-7.4466-2.2353-1.9173-1.6746-2.1544-3.6473-1.1355-4.6372 1.0188-.9899 3.2616-.2377 4.4149.7096 1.1532.9473 3.6932 3.6864 4.1672 6.1771z"/><path d="m72.2396 95.0943c-.013.0181-.03.0329-.0496.0434-.0197.0104-.0414.0162-.0636.0169h-.2512c-1.7688.0781-3.7923.1632-6.2084-.9189-2.9893-1.3447-5.5753-3.9028-8.0799-6.3864s-5.1083-5.0629-8.1364-6.4502c-3.6508-1.6746-7.8216-2.4091-11.5007-3.0548-2.4233-.4258-4.7121-.8267-6.495-1.444-4.0257-1.3104-7.8304-3.2243-11.2849-5.6768-.0161-.0113-.0299-.0257-.0404-.0424-.0106-.0167-.0177-.0354-.021-.0548-.0033-.0195-.0027-.0395.0018-.0587s.0127-.0374.0242-.0534c.0244-.0306.0592-.0511.0977-.0576.0384-.0065.078.0013.111.0221 3.4305 2.4417 7.2103 4.3473 11.2106 5.6519 1.7688.6067 4.0364 1.0076 6.4491 1.4192 3.6967.6493 7.8888 1.3873 11.5714 3.0761 3.0777 1.4192 5.6919 4.0021 8.2249 6.5106 2.5329 2.5084 5.0481 5.0061 7.9914 6.326 2.3525 1.0644 4.3264.9686 6.074.8941h.2476c.0195-.001.039.0019.0574.0086.0184.0066.0353.0168.0498.03s.0262.0291.0345.0468.0131.0369.014.0565c.0008.0341-.0091.0676-.0283.0958z"/><path d="m46.3551 66.7426c-1.4716.1206-2.5541 2.4836-2.1898 4.7649.3644 2.2814 2.0129 7.433 3.8914 9.1609 1.0436-2.2955 1.5848-7.4508 1.224-9.7215-.3609-2.2707-1.4434-4.3214-2.9256-4.2043z"/></g><path clip-rule="evenodd" d="m81.7592 120.643h26.5318c2.887 0 3.251-3.143 3.251-3.143 0-7.398 3.325-14.334 8.886-19.1983 5.834-5.0993 9.976-11.8642 11.871-19.3893s1.452-15.4511-1.268-22.717c-2.72-7.266-7.589-13.5252-13.954-17.9396s-13.922-6.7735-21.6608-6.7614c-7.7385.0122-15.2887 2.3949-21.6399 6.8292-6.3511 4.4344-11.2001 10.7088-13.8978 17.9832-2.6977 7.2745-3.1153 15.2019-1.197 22.721 1.9183 7.519 6.0809 14.271 11.9308 19.3519 2.7477 2.3673 4.9555 5.2993 6.4736 8.5983 1.518 3.298 2.3107 6.885 2.3243 10.518 0 0 .0212 3.147 2.349 3.147z" fill="#fff" fill-rule="evenodd"/><path d="m81.8936 122.13h27.1754v19.056c0 1.663-.658 3.257-1.831 4.433-1.172 1.176-2.762 1.836-4.42 1.836h-14.6735c-1.6579 0-3.2478-.66-4.4201-1.836s-1.8308-2.77-1.8308-4.433z" fill="#ededee"/><path d="m81.7592 120.643h26.5318c2.887 0 3.251-3.143 3.251-3.143 0-7.398 3.325-14.334 8.886-19.1983 5.834-5.0993 9.976-11.8642 11.871-19.3893s1.452-15.4511-1.268-22.717c-2.72-7.266-7.589-13.5252-13.954-17.9396s-13.922-6.7735-21.6608-6.7614c-7.7385.0122-15.2887 2.3949-21.6399 6.8292-6.3511 4.4344-11.2001 10.7088-13.8978 17.9832-2.6977 7.2745-3.1153 15.2019-1.197 22.721 1.9183 7.519 6.0809 14.271 11.9308 19.3519 2.7477 2.3673 4.9555 5.2993 6.4736 8.5983 1.518 3.298 2.3107 6.885 2.3243 10.518 0 0 .0212 3.147 2.349 3.147z" style="fill-rule:evenodd;clip-rule:evenodd;stroke:#fff;stroke-width:.17;stroke-miterlimit:10;opacity:.6;fill:url(#a)"/><path d="m81.8936 122.13h27.1754v19.056c0 1.663-.658 3.257-1.831 4.433-1.172 1.176-2.762 1.836-4.42 1.836h-14.6735c-1.6579 0-3.2478-.66-4.4201-1.836s-1.8308-2.77-1.8308-4.433z" fill="#ededee"/><path clip-rule="evenodd" d="m100.176 129.407h-7.9172v-11.432h6.2933z" fill="#e79074" fill-rule="evenodd"/><path clip-rule="evenodd" d="m115.193 174.197s-1.192-6.468-2.448-14.508l-15.056 8.717 10.613 7.036z" fill="#171749" fill-rule="evenodd"/><path clip-rule="evenodd" d="m96.4863 105.419c-3.8312.035-6.8912 3.147-7.16 6.982-.2058 2.565.26 5.14 1.3513 7.469.4599.987.997 1.936 1.6061 2.838.3613.531.8312.978 1.3785 1.313.5472.334 1.1591.548 1.7951.626.6359.079 1.2813.02 1.893-.171.6118-.191 1.1759-.511 1.6548-.938 1.5209-1.348 2.3769-3.665 3.0349-5.421 1.168-3.14 1.079-12.755-5.5537-12.698z" fill="#fff" fill-rule="evenodd"/><path clip-rule="evenodd" d="m101.467 115.307-1.071-6.734 3.017-1.54-.807 8.512-.474.717z" fill="#004d77" fill-rule="evenodd"/><path clip-rule="evenodd" d="m104.506 102.304c-1.362-.976-3.042 2.207-7.4573.752-2.2782-.749-7.0999-.585-8.2921 2.363l-1.0613-.972 1.5919 10.86h1.0188l.5236-6.145s6.6011 1.096 9.8314-.334c3.229-1.429 6.12-4.892 3.845-6.524z" fill="#004d77" fill-rule="evenodd"/><path clip-rule="evenodd" d="m99.037 121.548c-.3786-1.419-1.5176-3.381-3.0388-3.335s-2.6178 2.906-2.6178 2.906 6.0386 1.859 5.6566.429z" fill="#004d77" fill-rule="evenodd"/><path clip-rule="evenodd" d="m117.146 134.743c-.492-10.598-15.647-8.98-15.647-8.98-.167.869-.242 1.752-.226 2.636-.439-.263-.917-.454-1.4154-.567h-7.3121c.0929-.636.1367-1.278.1308-1.92 0 0-13.6727 1.551-19.3894 16.104-1.6662 4.237-2.1226 6.944-2.2959 10.094-.0844 1.294.1399 2.59.6542 3.779.5143 1.19 1.3038 2.239 2.3032 3.062.9339.756 2.0129 1.252 3.1201 1.008l6.0493-1.327c-.6777 4.043-1.6532 8.03-2.9185 11.928l32.8637 6.858s-1.853-10.289-3.137-18.772c2.886-.291 5.423-2.69 5.957-6.096.594-3.803 1.479-13.145 1.263-17.807zm-36.5399 15.654s1.415-1.792 3.3041-4.513v4.2.533z" fill="#ededee" fill-rule="evenodd"/><path clip-rule="evenodd" d="m110.895 164.816c-.354-2.051-.672-4.158-.977-6.167 2.887-.29 5.424-2.689 5.958-6.095.601-3.803 1.485-13.128 1.27-17.807-.354-7.568-8.183-8.906-12.629-9.051v30.09h-15.2439v-27.514c-.0009-.5-.0387-1-.1132-1.494-4.4468 1.479-11.9924 5.361-15.8731 15.256-1.6662 4.237-2.1226 6.944-2.2959 10.094-.0815 1.291.1441 2.583.6583 3.769.5142 1.187 1.3022 2.233 2.2991 3.054.9339.756 2.0129 1.252 3.1201 1.008l6.0493-1.327c-.4068 2.458-.9198 4.75-1.415 6.652zm-30.289-14.416s1.415-1.791 3.3041-4.513v4.201.532z" fill="#68cce5" fill-rule="evenodd"/><path clip-rule="evenodd" d="m90.6777 128.271s.559 5.443 5.5222 6.408c4.9631.965 6.1381-6.408 6.1381-6.408h-.627v.628c-.438-.263-.916-.454-1.415-.567h-7.3188c0-.021 0-.039 0-.061z" fill="#fff" fill-rule="evenodd"/><path d="m113.18 144.206h-34.8201v23.359h34.8201z" fill="#ededee"/><path clip-rule="evenodd" d="m68.0299 159.795c-9.7284 2.438-7.3759 14.902 4.8995 16.154l55.9186 5.656 1.21-3.662s-55.1121-19.868-62.0281-18.148z" fill="#4687c7" fill-rule="evenodd"/><path clip-rule="evenodd" d="m123.121 155.811c9.933 1.394 8.908 14.05-3.184 16.58l-54.8324 12.712-1.4894-3.903s52.4558-26.382 59.5058-25.389z" fill="#4687c7" fill-rule="evenodd"/><path clip-rule="evenodd" d="m63.6471 181.215s-17.5464 3.636-22.1276 7.61c2.6609 1.442 5.6361 2.201 8.6604 2.21 3.0244.01 6.0041-.731 8.6738-2.157 3.4951-1.862 6.2898-3.775 6.2898-3.775z" fill="#004d77" fill-rule="evenodd"/><path clip-rule="evenodd" d="m63.647 181.215 1.4893 3.888 3.0706-.713-1.9032-4.499z" fill="#fff" fill-rule="evenodd"/><path clip-rule="evenodd" d="m90.3061 115.307 1.415 2.92c.261.538.6674.991 1.1727 1.309.5054.317 1.0894.486 1.6857.486h3.1095c.6276-.001 1.2408-.188 1.7625-.538.5218-.35.9285-.846 1.1705-1.427l.849-2.75 1.139.238s4.146 9.711.806 13.234c-3.339 3.523-11.419 5.616-14.0368-.387s-.0884-13.085-.0884-13.085z" fill="#004d77" fill-rule="evenodd"/><path clip-rule="evenodd" d="m100.434 113.48s1.659-3.782 2.027-1.572c.368 2.211-.318 5.876-1.578 4.4-1.2589-1.476-.449-2.839-.449-2.839z" fill="#fff" fill-rule="evenodd"/><path clip-rule="evenodd" d="m91.7071 113.093s-1.6591-3.782-2.027-1.575.3184 5.879 1.5777 4.403c1.2594-1.476.4493-2.838.4493-2.838z" fill="#fff" fill-rule="evenodd"/><path clip-rule="evenodd" d="m130.058 177.943s18.254 6.284 23.228 9.75c0 0-1.192 1.795-6.538 3.133-5.345 1.338-17.9-9.225-17.9-9.225z" fill="#004d77" fill-rule="evenodd"/><path clip-rule="evenodd" d="m128.848 181.605 1.214-3.665-2.862-1.022-1.992 4.318z" fill="#fff" fill-rule="evenodd"/><path clip-rule="evenodd" d="m97.4839 152.909h-3.428l-1.7121 2.976 1.7121 2.977h3.428l1.7121-2.977z" fill="#68cce5" fill-rule="evenodd"/><path d="m191.888 12.9622-47.524 10.1756c.233.1561 6.665 3.5479 13.994 7.4081l2.332 14.2416 10.708-7.3833 8.518 4.4704z" fill="#fff"/><path d="m188.078 14.0408-28.478 14.4651 1.09 16.2817 2.901-14.0075z" fill="#68cce5"/><path d="m162.848 43.2974 2.922-10.8816 5.628 4.9849z" fill="#004d77"/><path d="m165.77 32.4159 5.628 4.9849 8.518 4.474 11.972-28.9231-47.524 10.1862 13.665 6.1877 2.661 15.4621z" stroke="#36444d" stroke-linecap="round" stroke-linejoin="round" stroke-width=".71"/><path d="m54.5624 67.4628c-49.77374-7.362-73.2987 90.9132-35.7826 99.4462 37.516 8.533 18.3247-72.407 73.1855-94.6387 20.9887-8.5151 43.9577-14.1209 60.0927-28.178" stroke="#36444d" stroke-dasharray="6 3" stroke-miterlimit="10" stroke-width=".5"/></svg>