<svg fill="none" viewBox="0 0 257 144" xmlns="http://www.w3.org/2000/svg" xmlns:xlink="http://www.w3.org/1999/xlink"><defs><path id="a" d="m210.23 105.9a.66.66 0 0 0 -.17.92l.02.03.8-.54a.24.24 0 0 1 .05-.04l.24-.16-.02-.04a.66.66 0 0 0 -.92-.17z" fill="#fff" opacity=".7"/><path id="b" d="m210.88 106.31.05-.04a.19.19 0 0 0 -.05.04z" fill="#fff"/><path id="c" d="m208.16 107.32c-.3.2-.38.62-.17.92l.02.03.8-.55a.22.22 0 0 1 .05-.03l.24-.17-.02-.03a.66.66 0 0 0 -.92-.17z" fill="#fff" opacity=".7"/><path id="d" d="m208.8 107.72.06-.03a.24.24 0 0 0 -.06.03z" fill="#fff"/><path id="e" d="m206.08 108.74a.66.66 0 0 0 -.15.95l.8-.55a.22.22 0 0 1 .05-.03l.24-.17s0-.02-.02-.03a.66.66 0 0 0 -.92-.17z" fill="#fff" opacity=".7"/><path id="f" d="m206.73 109.14.05-.04a.2.2 0 0 0 -.05.04z" fill="#fff"/><path id="g" d="m204.01 110.15a.66.66 0 0 0 -.15.95l.8-.54.05-.04.24-.16-.02-.04a.66.66 0 0 0 -.92-.17z" fill="#fff" opacity=".7"/><path id="h" d="m204.66 110.56.05-.04a.2.2 0 0 0 -.05.04z" fill="#fff"/><path id="i" d="m201.94 111.57c-.3.2-.38.62-.18.92l.03.03.8-.55a.2.2 0 0 1 .05-.03l.24-.17-.02-.03a.66.66 0 0 0 -.92-.17z" fill="#fff" opacity=".7"/><path id="j" d="m202.59 111.97.05-.03a.17.17 0 0 0 -.05.03z" fill="#fff"/><path id="k" d="m199.86 112.98a.66.66 0 0 0 -.17.92l.02.03.8-.54.05-.04.24-.16-.02-.04a.66.66 0 0 0 -.92-.17z" fill="#fff" opacity=".7"/><path id="l" d="m200.51 113.39.06-.04a.22.22 0 0 0 -.06.04z" fill="#fff"/><path id="m" d="m197.79 114.4a.66.66 0 0 0 -.15.95l.8-.54a.24.24 0 0 1 .05-.04l.24-.17-.02-.03a.66.66 0 0 0 -.92-.17z" fill="#fff" opacity=".7"/><path id="n" d="m190.86 107.53a.66.66 0 0 0 -1.04-.07l.73 1.06a.66.66 0 0 0 .31-1zm-.36.44c.01-.14.1-.26.2-.25.09 0 .16.13.14.28-.01.14-.1.26-.19.25-.1 0-.16-.13-.15-.28z" fill="#fff" opacity=".3"/><path id="o" d="m191.82 108.94a.66.66 0 0 0 -1.04-.07l.72 1.06.14-.07c.3-.2.38-.62.18-.92zm-.36.45c.01-.15.1-.27.2-.26.09 0 .16.13.14.28 0 .15-.1.26-.19.26-.09-.01-.16-.14-.15-.28z" fill="#fff" opacity=".3"/><path id="p" d="m192.78 110.35a.66.66 0 0 0 -1.03-.07l.72 1.06a.66.66 0 0 0 .32-.99zm-.35.44c0-.14.1-.26.19-.25.1 0 .16.13.15.28-.01.14-.1.26-.2.25-.09 0-.15-.13-.14-.28z" fill="#fff" opacity=".3"/><path id="q" d="m193.75 111.76a.66.66 0 0 0 -1.04-.07l.73 1.06.13-.08c.3-.2.39-.61.18-.92zm-.36.44c.01-.15.1-.26.2-.26.09.01.16.14.14.28-.01.15-.1.27-.19.26-.1 0-.16-.13-.15-.28z" fill="#fff" opacity=".3"/><path id="r" d="m194.71 113.17a.66.66 0 0 0 -1.04-.07l.72 1.06a.66.66 0 0 0 .31-1h.01zm-.36.44c.01-.14.1-.26.2-.25.09 0 .16.13.14.28 0 .14-.1.26-.19.25-.09 0-.16-.13-.15-.28z" fill="#fff" opacity=".3"/><path id="s" d="m195.67 114.58a.66.66 0 0 0 -1.04-.07l.73 1.06a.66.66 0 0 0 .31-1zm-.35.44c0-.15.1-.26.19-.26.1.01.16.14.15.28-.01.15-.1.27-.2.26-.09 0-.15-.13-.14-.28z" fill="#fff" opacity=".3"/><path id="t" d="m196.36 116.22a.2.2 0 0 1 .06-.04l.24-.16-.02-.03a.66.66 0 0 0 -1.04-.07l.39.56.38-.26z" fill="#fff" opacity=".3"/><linearGradient id="u" gradientUnits="userSpaceOnUse" x1="142.5" x2="142.5" y1="30.37" y2="127.37"><stop offset="0" stop-color="#fffffa"/><stop offset="1" stop-color="#e0eef2"/></linearGradient><clipPath id="v"><path d="m0 0h257v144h-257z"/></clipPath></defs><g clip-path="url(#v)"><path d="m257 0h-257v133.16h257z" fill="#69cbe4" opacity=".15"/><path d="m83 30.37h119v97h-119z" fill="url(#u)" fill-opacity=".5"/><g fill="#6acbdf" opacity=".27"><path d="m112.22 30.37h4.8l-.3 58.97h-4.81zm64.83 0h-4.8v97.98h4.8zm-31.26 0h-2.31v59.83h2.3v-59.83z"/><path d="m176 78.36h-62.25v3h62.25z"/></g><path d="m238.2 141.1c0 1.27-75.71 2.29-92.3 2.29-36.15 0-85.37-1.02-85.37-2.3 0-1.26 68.78-2.28 85.37-2.28s92.3 1.03 92.3 2.29z" fill="#293756" opacity=".1"/><path d="m79.76 90.09h66.63a6.73 6.73 0 0 1 6.73 6.73v22.03a6.74 6.74 0 0 1 -6.73 6.73h-66.63a6.74 6.74 0 0 1 -6.74-6.73v-22.03a6.74 6.74 0 0 1 6.74-6.73z" fill="#68cbe3" opacity=".63"/><path d="m65.12 112.6v11.65c0 1.98 1.6 3.59 3.59 3.59h88.72a3.6 3.6 0 0 0 3.6-3.6v-11.64h-95.9z" fill="#68cbe3" stroke="#68cbe3" stroke-miterlimit="10" stroke-width="2.11"/><path d="m71.3 140.52h-2.26v-12.69h4.43l-2.16 12.7zm82.56 0h2.27v-12.69h-4.44l2.17 12.7z" fill="#fff"/><path d="m154.4 98.86a6.63 6.63 0 0 1 6.62 6.62v10.05a6.63 6.63 0 0 1 -13.25 0v-10.05a6.63 6.63 0 0 1 6.63-6.62zm-82.65 0a6.63 6.63 0 0 1 6.63 6.62v10.05a6.63 6.63 0 0 1 -13.26 0v-10.05a6.63 6.63 0 0 1 6.63-6.62z" fill="#68cbe3" stroke="#68cbe3" stroke-miterlimit="10" stroke-width="2.11"/><path d="m98.84 60.23c1.75-.44 4.18-.08 4.68 2.86.35 2.06.77 5.64-.53 6.1-.57.2-2.78 0-2.78 0l.46 2.45h-4.04l.66-3.52s-4.24-6.42 1.55-7.89z" fill="#f7a91b"/><path d="m102.23 60.62-2.65 3.9c-.47-.88-1.18-.65-1.56.06-.46.88.58 1.63.48 1.93s-.98 1.58-1.21 1.61-4.63-1.96-2.6-7c.93-2.3 4.93-3.12 7.54-.5z" fill="#005384"/><path d="m99.37 56.72c.32 1.4-.34 2.46-1.61 2.76s-2.06-.48-2.38-1.87c-.33-1.4.1-2.6 1.36-2.9 1.27-.29 2.3.61 2.63 2.01zm1.93 44.68s-7.01 16.51-8.56 18.94a125.64 125.64 0 0 0 -6.57 12.85l-2.31-1.4c.05-2.59 1.06-5.41 2.46-8.42 2.94-6.36 4.4-8.48 5.47-13.8 1.07-5.3-.2-11.23 1.2-14.12 1.41-2.9 8.32 5.94 8.32 5.94zm-13.44 40.44-7.44-3.7 1.55-2.48 3.55.84 3.03 4.07z" fill="#005384"/><path d="m82.22 135.73 2.73.64.73-2.06-2.37-1.05z" fill="#fff"/><path d="m85.68 134.31-2.37-1.05.55-1.47 2.31 1.4-.48 1.13z" fill="#f7a91b"/><path d="m91.58 97.55s9.48 17.65 10.1 19.2c.6 1.56.4 4.95 2.83 10.23 1.21 2.64 2.67 5.4 3.81 7.5l2.64-.6c-1.2-4.86-3.33-13.38-3.85-15.34-.73-2.8-3.27-20.08-3.27-20.08s-11.74-5.21-12.26-.9z" fill="#4584c5"/><path d="m118.18 138.95-7.94 2.48-.6-2.86 3.15-1.85 5 .84.4 1.39z" fill="#005384"/><path d="m109.86 138.45 2.42-1.44-.9-1.98-2.43.88.9 2.54z" fill="#fff"/><path d="m111.39 135.03-2.44.88-.62-1.44 2.64-.59z" fill="#f7a91b"/><path d="m101.47 71-12.48-3.06s-2.54 7.9 3.74 8.27 8.74-5.21 8.74-5.21z" fill="#fff"/><path d="m98.06 70.6c-1.8.11-3.45 1.99-4.6 5.37-.9 6.12-4.08 28.94-4.08 28.94l16.76-1.49s-.86-29.73-4.08-32.2a8.8 8.8 0 0 0 -4-.62z" fill="#fff"/><path d="m98.08 106.19-2.48-20.16 12.06 8.75-9.6 11.4zm-2.48-20.16 21.68-2.66-9.6 11.41-12.07-8.75zm12.07 8.75 12.08 8.75-21.67 2.66 9.6-11.41z" fill="#68cbe3" stroke="#68cbe3" stroke-miterlimit="10" stroke-width="2.11"/><path d="m117.28 83.37 2.47 20.16-12.07-8.75z" fill="#68cbe3" stroke="#68cbe3" stroke-miterlimit="10" stroke-width="2.11"/><path d="m104.1 94.09 3.83 3 3-3.84 6.75 5.27-1.68-13.68-18.84 2.3 1.67 13.67 5.27-6.73z" fill="#f3f4f5"/><path d="m107.93 97.08 6.07 4.74-.96 1.22 5.12-.62-.47-3.9-6.76-5.27z" fill="#4584c5" stroke="#4584c5" stroke-linejoin="round" stroke-width="1.38"/><path d="m104.42 104.1 8.62-1.06 2.16-.26-7.27-5.7-3.83-3-5.27 6.74.48 3.9 5.1-.62z" fill="#4584c5" stroke="#4584c5" stroke-linejoin="round" stroke-width="1.38"/><path d="m118.6 90.24c-.3-.08-.85.08-1.16.13-.38.07-1.2.3-1.1.51s1.45.34 1.45.34-1.87.16-1.72.6c.13.36 1.78.26 1.78.26s-1.9.53-1.66.81 2.03.1 2.45-.19c.7-.5.55-2.3-.03-2.46z" fill="#f7a91b"/><path d="m97.45 74.26c2.37.68 1.24 4.54-3.49 14.59l8.2 10.24-2.82 2.51s-7.84-7.78-9-11.88c-.8-2.81 2.75-16.72 7.11-15.47z" fill="#fff"/><path d="m101.62 99.57 1.12 1.84-1.17.93-1.5-1.38 1.55-1.4z" fill="#f7a91b"/><path d="m103.56 103.56c-.07-1.5-.9-2.7-1.83-2.65a1.2 1.2 0 0 0 -.75.33c-.22.2-.02 1.4.1 1.9a3.5 3.5 0 0 1 -.32 2.5c.33.47.77.76 1.24.74.94-.05 1.64-1.31 1.56-2.82z" fill="#f7a91b"/><path d="m192.28 51.23s5.84.71 9.7 5.92c3.87 5.21 3.36 7.64 3.36 7.64s-1.25-1.27-3.56-1.37c-1.68-.08-1.04-2.2-1.66-2.76-.62-.57-2-.45-2.54-1.36-.53-.9.06-.83-.76-1.92-.72-.97-1.73-.15-2.26-1.66-.3-.81-.53-3.08-2.29-4.49zm22.44 3.42a10.26 10.26 0 0 0 -6.42 3.92c-2.55 3.44-2.57 5.53-2.57 5.53s1.5-1.2 2.7-1.4c1.1-.16.7-1.44 1.1-1.82.41-.37 1.33-.3 1.68-.9.34-.6-.04-.54.5-1.27.48-.63 1.14-.1 1.5-1.1.19-.53.35-2.03 1.5-2.96z" fill="#55a6b9"/><path d="m205.35 64.1s2.9-14.08-7.29-21.21c0 0 .06 3.52-.05 4.6a4.55 4.55 0 0 0 .98 2.97c.54.58 1.37 1.4 1.5 2.06.14.65-.66 2.01-.35 2.92.3.9 1.13 1.13 1.44 1.92.3.8.05 1.96.62 2.57.58.62 1.62.97 2.08 1.74.42.78.77 1.6 1.07 2.43z" fill="#68cbe3" stroke="#68cbe3" stroke-miterlimit="10" stroke-width="2.11"/><path d="m210.67 63.73h-11.07v1.94h11.07z" fill="#005384"/><path d="m209.7 67.75a4.57 4.57 0 0 1 -9.13 0v-3.05h9.14v3.05z" fill="#005384"/><path d="m200.56 65.67h3.78l-3.78 1.2z" fill="#3d5363" opacity=".1"/><path d="m204.28 51-5.97-1.73-.08-.24 5.95 1.72zm.34.98-4.69-.47-.19-.23 4.8.48zm1.1 6.78-4.02-.9-.04-.23 4.06.92zm.01.7-3.88-.32-.03-.21 3.91.32zm-4.73-13.97-2.92-.79v-.22l2.65.72.26.29z" fill="#80c241"/><path d="m213.6 71.52h-18.34v8.17h18.34z" fill="#f7a91b"/><path d="m200.64 73.93a1.26 1.26 0 0 1 2.5 0h-1.14v1.4c0 .14.1.24.24.24s.25-.1.25-.24h.19a.43.43 0 0 1 -.87 0v-1.4h-1.16zm-1.68-.18v-.95h1.38v.95a.7.7 0 0 1 -.6.69v1.14h.45v.19h-1.08v-.2h.45v-1.13a.69.69 0 0 1 -.6-.68zm-.67 1.83h-1.83v.19h1.83v-.2zm-.45-2.78.4.4h-.3v2.1h-.2v-2.1h-.3zm-1.34.4.4-.4.4.4h-.3v2.1h-.2v-2.1h-.31z" fill="#005384"/><path d="m214.88 117.7h-24.32v22.83h24.32z" fill="#f7a91b"/><path d="m204.04 117.7h-24.33v22.83h24.33z" fill="#fcbf5b"/><path d="m208.68 117.7v5.24l.26.26.31-.28.32.28.3-.28.32.28.31-.28.31.28.32-.28v-5.22h-2.46z" fill="#f7991c"/><path d="m186.3 120.83c0-.78.7-1.41 1.58-1.41.87 0 1.57.63 1.57 1.42h-1.45v1.76c.01.17.15.3.32.3a.3.3 0 0 0 .3-.3h.23a.54.54 0 1 1 -1.09 0v-1.76h-1.46.01zm-2.1-.22v-1.2h1.73v1.2c0 .44-.32.8-.75.86v1.44h.56v.23h-1.36v-.23h.56v-1.44a.87.87 0 0 1 -.75-.86zm-.86 2.29h-2.3v.24h2.3v-.23zm-.56-3.49.51.52h-.39v2.62h-.24v-2.62h-.39zm-1.69.51.5-.5.52.5h-.4v2.63h-.23v-2.63h-.4z" fill="#005384"/><path d="m217.48 79.7h-20.4v18.27h20.4v-18.28z" fill="#f7a91b"/><path d="m209.25 79.7h-20.39v18.27h20.4v-18.28z" fill="#fcbf5b"/><path d="m212.26 79.7v5.23l.27.26.3-.28.32.28.31-.28.31.28.32-.28.3.28.32-.28v-5.21h-2.46z" fill="#f7991c"/><path d="m197.3 93.62h-6.2v2.84h6.2z" fill="#fff"/><path d="m194.82 94h-3.39v.39h3.4v-.4zm2.19.68h-5.58v.4h5.58zm0 .69h-5.58v.4h5.58z" fill="#005384"/><path d="m202.72 97.97h-23v7.74h23z" fill="#fcbf5b"/><path d="m215.55 97.97h-23.01v7.74h23v-7.74z" fill="#f7a91b"/><path d="m198.45 100.75a1.27 1.27 0 0 1 2.54 0h-1.18v1.42c0 .13.12.24.26.24.13 0 .23-.11.24-.24h.19c0 .24-.2.44-.44.44a.44.44 0 0 1 -.44-.44v-1.42zm-1.69-.18v-.96h1.4v.96a.7.7 0 0 1 -.6.69v1.15h.44v.2h-1.08v-.2h.45v-1.15a.7.7 0 0 1 -.6-.69zm-.68 1.84h-1.85v.2h1.85zm-.45-2.81.41.42h-.32v2.1h-.19v-2.1h-.32l.42-.41zm-1.37.42.42-.41.41.4h-.31v2.12h-.2v-2.11h-.31z" fill="#005384"/><path d="m214.05 99.48h-6.2v2.84h6.2z" fill="#fff"/><path d="m211.57 99.85h-3.39v.4h3.4v-.4zm2.19.69h-5.58v.4h5.58zm0 .69h-5.58v.4h5.58z" fill="#005384"/><path d="m212.14 105.71h-29.81v12h29.81z" fill="#f7a91b"/><path d="m194.16 112.7h-10.38v2.83h10.38v-2.84z" fill="#fff"/><path d="m191.67 113.07h-7.56v.39h7.56v-.4zm2.2.69h-9.76v.39h9.75v-.4zm-9.76 1.08h9.75v-.4h-9.75z" fill="#005384"/><path d="m212.14 105.71h-29.81v1.48h29.81zm1.46-27.49h-18.34v1.47h18.34z" fill="#373737" opacity=".1"/><g fill="#fff"><path d="m209.43 106.83c-.1 0-.16-.13-.15-.28s.1-.27.19-.26c.1 0 .16.13.15.28s-.1.27-.19.26z"/><path d="m206.43 107.03c-.3.2-.72.13-.92-.17a.66.66 0 1 1 .92.17z" opacity=".7"/><path d="m206.4 106.84c-.1-.01-.17-.14-.16-.28.02-.15.1-.27.2-.26.09 0 .16.13.15.28s-.1.26-.2.26z"/><path d="m207.39 108.44a.66.66 0 1 1 -.75-1.1.66.66 0 0 1 .75 1.1z" opacity=".7"/><path d="m207.36 108.25c-.1-.01-.17-.14-.15-.28 0-.15.1-.27.19-.26.09 0 .16.13.15.28s-.1.26-.2.26z"/><path d="m203.39 107.03a.66.66 0 1 1 -.75-1.1.66.66 0 1 1 .75 1.1z" opacity=".7"/><path d="m203.36 106.84c-.1 0-.17-.13-.16-.28s.1-.26.2-.26c.09.01.16.14.14.28 0 .15-.1.27-.18.26z"/><path d="m204.35 108.45a.66.66 0 1 1 -.74-1.1.66.66 0 0 1 .74 1.1z" opacity=".7"/><path d="m204.32 108.25c-.1 0-.16-.13-.15-.28s.1-.26.19-.26c.1 0 .16.14.15.28-.01.15-.1.27-.19.26z"/><path d="m205.31 109.86c-.3.2-.71.12-.91-.18a.66.66 0 0 1 .17-.92c.3-.2.71-.13.92.17.2.3.13.72-.18.92z" opacity=".7"/><path d="m205.28 109.66c-.1 0-.16-.13-.15-.28.02-.15.1-.27.2-.26.09 0 .15.13.14.28 0 .15-.1.27-.19.26z"/><path d="m200.35 107.05a.66.66 0 1 1 -.74-1.1.66.66 0 0 1 .74 1.1z" opacity=".7"/><path d="m200.32 106.85c-.1 0-.16-.13-.15-.28s.1-.27.2-.26c.09 0 .15.13.14.28s-.1.27-.19.26z"/><path d="m201.32 108.45c-.3.2-.72.13-.92-.17a.66.66 0 1 1 .92.17z" opacity=".7"/><path d="m201.28 108.26c-.09 0-.16-.14-.15-.28.01-.15.1-.27.2-.26.09 0 .15.13.14.28 0 .15-.1.26-.19.26z"/><path d="m202.28 109.86a.66.66 0 1 1 -.75-1.1c.3-.2.72-.12.92.18s.13.72-.17.92z" opacity=".7"/><path d="m202.25 109.67c-.1 0-.16-.13-.15-.28s.1-.27.19-.26c.1 0 .16.13.15.28s-.1.27-.2.26z"/><path d="m203.24 111.27a.66.66 0 1 1 -.75-1.1c.3-.2.72-.12.93.18.2.3.12.72-.18.92z" opacity=".7"/><path d="m203.21 111.08c-.1 0-.16-.14-.15-.28.01-.15.1-.27.19-.26.1 0 .16.13.15.28s-.1.26-.19.26z"/><path d="m197.32 107.05c-.3.2-.72.13-.92-.18a.66.66 0 0 1 .17-.92c.3-.2.72-.13.92.18.2.3.13.71-.17.92z" opacity=".7"/><path d="m197.28 106.86c-.09-.01-.16-.14-.15-.28.02-.15.1-.27.2-.26.09 0 .16.13.14.28 0 .15-.1.26-.19.26z"/><path d="m198.28 108.46a.66.66 0 1 1 -.75-1.1.66.66 0 1 1 .75 1.1z" opacity=".7"/><path d="m198.25 108.26c-.1 0-.16-.13-.15-.28 0-.15.1-.26.19-.26.1.01.16.14.15.29-.01.14-.1.26-.2.25z"/><path d="m199.24 109.87a.66.66 0 0 1 -.75-1.1.66.66 0 0 1 .75 1.1z" opacity=".7"/><path d="m199.21 109.67c-.1 0-.16-.13-.15-.28s.1-.26.19-.26c.1.01.16.14.15.28 0 .15-.1.27-.19.26z"/><path d="m200.2 111.28a.66.66 0 1 1 -.74-1.1.66.66 0 0 1 .75 1.1z" opacity=".7"/><path d="m200.18 111.08c-.1 0-.17-.13-.16-.28.02-.14.1-.26.2-.25.09 0 .16.13.14.28 0 .14-.1.26-.19.25z"/><path d="m201.17 112.69c-.3.2-.72.13-.92-.18a.66.66 0 1 1 .92.18z" opacity=".7"/><path d="m201.14 112.5c-.1-.01-.17-.14-.15-.29 0-.15.09-.26.18-.26.1.01.17.14.16.28-.02.15-.1.27-.2.26z"/><path d="m194.28 107.05a.66.66 0 1 1 -.75-1.09c.3-.2.72-.13.92.17s.13.72-.17.92z" opacity=".7"/><path d="m194.25 106.86c-.1 0-.16-.13-.15-.28s.1-.27.19-.26c.1 0 .16.13.15.28s-.1.27-.2.26z"/><path d="m195.24 108.47a.66.66 0 1 1 -.74-1.1.66.66 0 0 1 .74 1.1z" opacity=".7"/><path d="m195.21 108.27c-.1 0-.16-.13-.15-.28 0-.15.1-.27.19-.26.1 0 .16.13.15.28s-.1.27-.19.26z"/><path d="m196.2 109.87a.66.66 0 1 1 -.74-1.09.66.66 0 1 1 .75 1.1z" opacity=".7"/><path d="m196.18 109.68c-.1 0-.17-.13-.16-.28.02-.15.1-.27.2-.26.09 0 .16.13.15.28s-.1.27-.2.26z"/><path d="m197.17 111.28a.66.66 0 1 1 -.75-1.1c.3-.2.72-.12.92.18s.13.72-.17.92z" opacity=".7"/><path d="m197.14 111.09c-.1 0-.17-.13-.15-.28 0-.15.09-.27.18-.26.1 0 .17.13.16.28-.02.15-.1.27-.2.26z"/><path d="m198.13 112.7c-.3.2-.71.12-.92-.18a.66.66 0 0 1 .17-.92c.3-.2.72-.13.93.17.2.3.13.72-.18.92z" opacity=".7"/><path d="m198.1 112.5c-.1 0-.16-.13-.15-.28 0-.15.1-.27.19-.26.1 0 .16.13.15.28s-.1.27-.19.26z"/><path d="m199.1 114.1c-.3.2-.72.13-.93-.17a.66.66 0 1 1 .92.17z" opacity=".7"/><path d="m199.06 113.91c-.09 0-.16-.13-.15-.28.02-.15.1-.27.2-.26.09 0 .16.13.14.28 0 .15-.09.27-.19.26z"/><path d="m191.24 107.06a.66.66 0 1 1 -.74-1.1c.3-.2.71-.12.92.18.2.3.13.72-.18.92z" opacity=".7"/><path d="m191.21 106.86c-.1 0-.16-.13-.15-.28 0-.14.1-.26.19-.25.09 0 .16.13.15.28 0 .14-.1.26-.19.25z"/><path d="m192.2 108.47c-.3.21-.7.13-.91-.17a.66.66 0 0 1 .17-.92c.3-.2.72-.13.92.17s.13.72-.17.92z" opacity=".7"/><path d="m192.18 108.28c-.1-.01-.17-.14-.16-.28.01-.15.1-.27.2-.26.09 0 .16.13.15.28-.02.15-.1.26-.2.26z"/><path d="m193.17 109.88a.66.66 0 1 1 -.75-1.1.66.66 0 1 1 .75 1.1z" opacity=".7"/><path d="m193.14 109.69c-.1-.01-.16-.14-.15-.29 0-.14.09-.26.19-.25.09 0 .16.13.15.28-.01.14-.1.26-.19.25z"/><path d="m194.13 111.3c-.3.2-.72.12-.92-.18a.66.66 0 0 1 .17-.92.66.66 0 1 1 .75 1.1z" opacity=".7"/><path d="m194.1 111.1c-.1-.01-.16-.14-.15-.28.01-.15.1-.27.19-.26.1 0 .16.13.15.28s-.1.26-.19.26z"/><path d="m195.1 112.7a.66.66 0 1 1 -.75-1.1.66.66 0 0 1 .74 1.1z" opacity=".7"/><path d="m195.06 112.5c-.1 0-.16-.13-.15-.28.01-.14.1-.26.19-.25.1 0 .16.13.15.28-.01.14-.1.26-.19.25z"/><path d="m196.06 114.1a.65.65 0 0 1 -.92-.16.66.66 0 0 1 .17-.92.66.66 0 1 1 .75 1.1z" opacity=".7"/><path d="m196.03 113.91c-.1 0-.17-.13-.15-.28 0-.14.09-.26.19-.26.09.01.16.14.15.28-.02.15-.1.27-.2.26z"/><path d="m197.02 115.52c-.3.2-.72.13-.92-.17a.66.66 0 1 1 .92.17z" opacity=".7"/><path d="m197 115.33c-.1-.01-.17-.14-.16-.29 0-.14.1-.26.19-.25.1 0 .16.13.15.28-.02.15-.1.26-.19.26z"/><path d="m207.94 107a.66.66 0 1 1 -.75-1.1.66.66 0 0 1 .75 1.1z" opacity=".7"/><path d="m207.91 106.81c-.1 0-.16-.13-.15-.28s.1-.26.19-.26c.1 0 .16.14.15.28-.01.15-.1.27-.19.26z"/><path d="m204.9 107.01a.65.65 0 0 1 -.91-.17.66.66 0 1 1 .91.17z" opacity=".7"/><path d="m204.87 106.82c-.1 0-.16-.13-.15-.28s.1-.27.2-.26c.09 0 .16.13.14.28-.01.15-.1.26-.19.26z"/><path d="m205.87 108.42a.66.66 0 1 1 -.75-1.1.66.66 0 0 1 .75 1.1z" opacity=".7"/><path d="m205.84 108.23c-.1-.01-.17-.14-.15-.28.01-.15.1-.27.19-.26.1 0 .16.13.15.28 0 .15-.1.26-.19.26z"/><path d="m201.87 107.02a.66.66 0 1 1 -.75-1.1.66.66 0 0 1 .75 1.1z" opacity=".7"/><path d="m201.84 106.82c-.1 0-.16-.13-.16-.28.01-.15.1-.26.2-.26.09.01.15.14.15.29-.02.14-.1.26-.2.25z"/><path d="m202.83 108.43c-.3.2-.71.13-.92-.18a.66.66 0 0 1 .18-.92c.3-.2.71-.13.91.18.21.3.13.71-.17.92z" opacity=".7"/><path d="m202.8 108.23c-.1 0-.16-.13-.15-.28s.1-.26.19-.26c.1.01.16.14.15.28-.01.15-.1.27-.19.26z"/><path d="m203.8 109.84a.67.67 0 0 1 -.93-.18.66.66 0 0 1 .18-.92.66.66 0 1 1 .74 1.1z" opacity=".7"/><path d="m203.76 109.64c-.09 0-.16-.13-.15-.28.02-.15.1-.26.2-.26.09 0 .15.13.14.28 0 .15-.1.27-.19.26z"/><path d="m198.83 107.02a.66.66 0 1 1 -.75-1.09.66.66 0 0 1 .75 1.1z" opacity=".7"/><path d="m198.8 106.83c-.1 0-.16-.13-.15-.28s.1-.27.19-.26c.1 0 .16.13.15.28s-.1.27-.19.26z"/><path d="m199.8 108.43a.66.66 0 1 1 -.75-1.1.66.66 0 1 1 .75 1.1z" opacity=".7"/><path d="m199.76 108.24c-.09 0-.16-.13-.15-.28.02-.15.1-.27.2-.26.09 0 .16.13.15.28s-.1.27-.2.26z"/><path d="m200.76 109.84a.66.66 0 1 1 -.75-1.1c.3-.2.72-.12.92.18s.13.72-.17.92z" opacity=".7"/><path d="m200.73 109.65c-.1 0-.17-.14-.16-.28.02-.15.1-.27.2-.26.09 0 .16.13.15.28s-.1.26-.2.26z"/><path d="m201.72 111.25a.66.66 0 1 1 -.74-1.1.66.66 0 0 1 .74 1.1z" opacity=".7"/><path d="m201.7 111.06c-.1-.01-.17-.14-.16-.28.01-.15.1-.27.19-.26.1 0 .16.13.15.28-.01.14-.1.27-.19.26z"/><path d="m195.8 107.03a.66.66 0 1 1 -.75-1.1.66.66 0 0 1 .74 1.1z" opacity=".7"/><path d="m195.76 106.83c-.1 0-.16-.13-.15-.28.01-.14.1-.26.19-.25.1 0 .16.13.15.28-.01.14-.1.26-.19.25z"/><path d="m196.76 108.44a.66.66 0 1 1 -.75-1.1.66.66 0 1 1 .75 1.1z" opacity=".7"/><path d="m196.73 108.25c-.1-.01-.17-.14-.16-.28.01-.15.1-.27.2-.26.09 0 .16.13.15.28s-.1.26-.2.26z"/><path d="m197.72 109.85a.66.66 0 1 1 -.75-1.1c.3-.2.72-.12.93.18.2.3.13.71-.18.92z" opacity=".7"/><path d="m197.7 109.65c-.1 0-.17-.13-.16-.28s.1-.26.19-.26c.1.01.16.14.15.28 0 .15-.1.27-.19.26z"/><path d="m198.68 111.26a.66.66 0 1 1 -.74-1.1.66.66 0 0 1 .74 1.1z" opacity=".7"/><path d="m198.65 111.06c-.1 0-.16-.13-.15-.28.01-.14.1-.26.19-.25.1 0 .16.13.15.28 0 .14-.1.26-.19.25z"/><path d="m199.65 112.67a.66.66 0 1 1 -.75-1.1c.3-.2.72-.12.92.18s.13.71-.17.92z" opacity=".7"/><path d="m199.62 112.47c-.1 0-.17-.13-.15-.28 0-.14.09-.26.19-.25.09 0 .16.13.15.28-.02.14-.1.26-.2.25z"/><path d="m192.76 107.03a.66.66 0 1 1 -.75-1.09.66.66 0 1 1 .75 1.1z" opacity=".7"/><path d="m192.73 106.84c-.1 0-.17-.13-.15-.28 0-.15.09-.27.18-.26.1 0 .17.13.16.28-.02.15-.1.27-.2.26z"/><path d="m193.72 108.45c-.3.2-.72.13-.92-.18a.66.66 0 0 1 .17-.92c.3-.2.72-.13.92.18.2.3.13.71-.17.92z" opacity=".7"/><path d="m193.7 108.25c-.1 0-.17-.13-.16-.28s.1-.26.19-.26c.1 0 .16.14.15.28-.01.15-.1.27-.19.26z"/><path d="m194.68 109.86a.66.66 0 1 1 -.74-1.1.66.66 0 0 1 .74 1.1z" opacity=".7"/><path d="m194.65 109.66c-.1 0-.16-.13-.15-.28 0-.15.1-.27.19-.26.1 0 .16.13.15.28s-.1.27-.19.26z"/><path d="m195.65 111.26a.66.66 0 1 1 -.75-1.1c.3-.2.72-.12.92.18s.13.72-.17.92z" opacity=".7"/><path d="m195.62 111.07c-.1 0-.17-.13-.15-.28 0-.15.1-.26.19-.26s.16.14.15.28c-.02.15-.1.27-.2.26z"/><path d="m196.61 112.67a.66.66 0 1 1 -.75-1.09.66.66 0 0 1 .75 1.1z" opacity=".7"/><path d="m196.58 112.48c-.1 0-.17-.13-.15-.28.01-.15.1-.27.19-.26.1 0 .16.13.15.28-.02.15-.1.27-.2.26z"/><path d="m197.57 114.08a.66.66 0 1 1 -.75-1.1.66.66 0 1 1 .75 1.1z" opacity=".7"/><path d="m197.54 113.9c-.1-.02-.16-.14-.15-.29s.1-.26.2-.26c.09 0 .16.14.14.28-.01.15-.1.27-.19.26z"/></g><use opacity=".7" xlink:href="#a"/><use opacity=".3" xlink:href="#a"/><use xlink:href="#b"/><use opacity=".3" xlink:href="#b"/><use opacity=".7" xlink:href="#c"/><use opacity=".3" xlink:href="#c"/><use xlink:href="#d"/><use opacity=".3" xlink:href="#d"/><use opacity=".7" xlink:href="#e"/><use opacity=".3" xlink:href="#e"/><use xlink:href="#f"/><use opacity=".3" xlink:href="#f"/><use opacity=".7" xlink:href="#g"/><use opacity=".3" xlink:href="#g"/><use xlink:href="#h"/><use opacity=".3" xlink:href="#h"/><use opacity=".7" xlink:href="#i"/><use opacity=".3" xlink:href="#i"/><use xlink:href="#j"/><use opacity=".3" xlink:href="#j"/><use opacity=".7" xlink:href="#k"/><use opacity=".3" xlink:href="#k"/><use xlink:href="#l"/><use opacity=".3" xlink:href="#l"/><use opacity=".7" xlink:href="#m"/><use opacity=".3" xlink:href="#m"/><path d="m198.44 114.8.05-.03a.2.2 0 0 0 -.05.04z" fill="#fff"/><path d="m198.44 114.8.05-.03a.2.2 0 0 0 -.05.04zm-8.54-8.68a.66.66 0 0 0 -1.04-.07l.72 1.06a.66.66 0 0 0 .32-.99zm-.36.45c0-.15.1-.27.19-.26.1 0 .16.13.15.28s-.1.26-.2.26c-.09-.01-.15-.14-.14-.28z" fill="#fff" opacity=".3"/><path d="m189.9 106.12a.66.66 0 0 0 -1.04-.07l.72 1.06a.66.66 0 0 0 .32-.99zm-.36.45c0-.15.1-.27.19-.26.1 0 .16.13.15.28s-.1.26-.2.26c-.09-.01-.15-.14-.14-.28z" fill="#fff" opacity=".7"/><path d="m189.88 106.59c0-.15-.06-.28-.15-.28-.1 0-.18.1-.2.26 0 .14.07.27.16.28.09 0 .18-.11.19-.26z" fill="#fff"/><use opacity=".3" xlink:href="#n"/><use opacity=".7" xlink:href="#n"/><path d="m190.84 108c.01-.15-.06-.28-.15-.28s-.18.1-.19.26c0 .14.06.27.15.28.1 0 .18-.11.2-.26z" fill="#fff"/><use opacity=".3" xlink:href="#o"/><use opacity=".7" xlink:href="#o"/><path d="m191.8 109.4c.01-.14-.06-.27-.15-.27s-.18.1-.19.26c0 .14.06.27.16.28.09 0 .17-.11.18-.26z" fill="#fff"/><use opacity=".3" xlink:href="#p"/><use opacity=".7" xlink:href="#p"/><path d="m192.77 110.82c0-.15-.06-.28-.15-.28-.1-.01-.18.1-.2.25 0 .15.07.28.16.28.09.01.18-.1.19-.25z" fill="#fff"/><use opacity=".3" xlink:href="#q"/><use opacity=".7" xlink:href="#q"/><path d="m193.73 112.23c0-.15-.06-.28-.15-.28-.1 0-.18.1-.2.25 0 .15.07.28.16.29.1 0 .18-.11.19-.26z" fill="#fff"/><use opacity=".3" xlink:href="#r"/><use opacity=".7" xlink:href="#r"/><path d="m194.7 113.64c0-.15-.07-.28-.16-.28-.09-.01-.17.1-.19.25 0 .15.06.28.16.28.09.01.17-.1.18-.25z" fill="#fff"/><use opacity=".3" xlink:href="#s"/><use opacity=".7" xlink:href="#s"/><path d="m195.66 115.05c0-.15-.06-.28-.15-.28-.1 0-.18.1-.2.26 0 .14.07.27.16.28.1 0 .18-.11.19-.26z" fill="#fff"/><use opacity=".3" xlink:href="#t"/><use opacity=".7" xlink:href="#t"/><path d="m196.36 116.22.06-.04a.22.22 0 0 0 -.06.04z" fill="#fff"/><path d="m188.86 106.05.11-.1a.66.66 0 1 1 .62 1.17l.23.34a.66.66 0 0 1 1.04.07.66.66 0 0 1 -.31 1l.23.34a.66.66 0 1 1 .73 1.06l.23.35a.66.66 0 1 1 .73 1.06l.24.35a.66.66 0 1 1 .72 1.06l.24.35a.66.66 0 1 1 .72 1.06l.24.35a.66.66 0 1 1 .73 1.06l.23.35a.66.66 0 0 1 1.04.07l.02.03.98-.67-.02-.03a.66.66 0 0 1 1.1-.75l.01.03.99-.67-.02-.03a.66.66 0 0 1 1.1-.75v.03l.99-.67-.02-.02a.66.66 0 0 1 .15-.93c.3-.2.72-.14.93.16l.01.02.02.03.98-.67-.02-.03a.66.66 0 0 1 .17-.92c.3-.21.72-.13.92.17l.02.03.99-.67-.03-.03a.66.66 0 1 1 1.11-.72l.99-.66-.03-.03a.66.66 0 1 1 1.11-.72l1-.67-.03-.03a.66.66 0 0 1 1.1-.75l.01.04.53-.36h-23.05l.2.3z" fill="#fff" opacity=".3"/><path d="m222.46 133.05c-1.85-7.25-.83-13.84.34-17.2a17.66 17.66 0 0 1 3.04-5.66l.52.46-.26-.23.26.23c-.01.02-1.69 1.92-2.91 5.46-1.13 3.27-2 10.14.29 16.61z" fill="#55a6b9"/><path d="m218.93 124.2c-.15-4.34-.83-9.55-3.8-11.2-1.95-1.1-3.81.57-3.83.58l-.64-1.42c.1-.05 2.4-1.35 4.7-.07 2.6 1.44 4.04 5.51 4.26 12.08l-.7.02z" fill="#68cbe3" stroke="#68cbe3" stroke-miterlimit="10" stroke-width="2.11"/><path d="m220 116.26-.6-1.16c-2.37-5 3.3-10.11 6.58-5.38.27 2.16 1.57 4.53 2.81 6.89 1.48 2.8 3.15 5.03 5.5 6.4-1.37.44-2.82.61-4.25.5-.33-1.1.34-3.9-.64-3.78-1 .12.1 2.98.42 3.75a11 11 0 0 1 -3.4-.9c-.13-1.3 2.22-4.57.97-4.9-1.36-.35-1.22 4.46-1.2 4.78a8.95 8.95 0 0 1 -2.76-1.82c-.12-2.95 3.49-5.38 2.04-6.1-1.61-.8-2.69 5.49-2.69 5.49a16.3 16.3 0 0 1 -2.57-3.4c1.4-2.6 5.16-4.24 3.85-5.29-1.32-1.06-3.41 3.43-4.06 4.92z" fill="#55a6b9"/><path d="m228.8 116.6c1.47 2.8 3.14 5.04 5.5 6.4l.08-.03c.09-1 .43-2.32.84-4.14-1.26-.55-3.5-1.1-3.1-1.96s2.36.59 3.34 1.38c.16-.7.27-1.41.34-2.13-1.98-1.38-4.77-1.22-4.3-2.22.46-.99 3.22.7 4.35 1.62.08-1.15.14-1.8-.14-2.98-2.45-1.09-6.23.04-6.07-1.5.18-1.56 4.66.13 5.85.6-.17-.6-.4-1.2-.7-1.75-2.59-4.9-8.76-5.5-8.8-.17.26 2.16 1.56 4.53 2.8 6.89zm-.5-8.58c.6-.85 2.46.19 2.12 1.18-.35.99-3.4.61-2.12-1.18zm-21.48 7.46c-1.5 1.7-2.56 3.4-2.88 5.32l.05.06c.7-.2 1.66-.31 2.99-.5.05-.99-.16-2.63.52-2.58s.21 1.73-.07 2.59a12.3 12.3 0 0 0 1.51-.32c.42-1.68-.4-3.5.39-3.45.78.05.36 2.34.03 3.33.8-.25 1.25-.37 1.96-.86.1-1.91-1.62-4.16-.55-4.44 1.1-.3 1.11 3.15 1.1 4.07.36-.27.7-.58 1-.92 2.62-3 1.44-7.28-2.15-5.94-1.37.73-2.63 2.2-3.9 3.64z" fill="#68cbe3" stroke="#68cbe3" stroke-miterlimit="10" stroke-width="2.11"/><path d="m227.54 135.49a5.64 5.64 0 0 1 -3.17 5.07h-4.95a5.64 5.64 0 0 1 -3.17-5.07c0-1.2 1.04-4.82 1.04-4.82h9.2s1.05 3.62 1.05 4.82z" fill="#005384"/><path d="m211.8 124.42c.08-.3.18-.6.28-.9 1.33-3.74 6.8-3.45 6.07.6-.95 1.24-1.5 3.1-2.06 4.93-.66 2.17-.94 4.16-.44 6.04a7.78 7.78 0 0 1 -2.42-1.9c.39-.72 2.15-1.8 1.6-2.24-.58-.45-1.47 1.56-1.7 2.12a7.97 7.97 0 0 1 -1.27-2.19c.6-.72 3.45-1.2 2.97-2-.51-.86-2.87 1.66-3.03 1.83a6.42 6.42 0 0 1 -.48-2.33c1.44-1.55 4.5-.96 4.13-2.07-.41-1.22-4.14 1.43-4.14 1.43 0-1.02.14-2.04.41-3.03 2.03-.6 4.77.46 4.64-.73-.14-1.2-3.48 0-4.56.44z" fill="#68cbe3" stroke="#68cbe3" stroke-miterlimit="10" stroke-width="2.11"/><path d="m216.1 129.05c-.68 2.17-.96 4.16-.46 6.04.03 0 .04.02.06.03.56-.47 1.4-.97 2.53-1.69-.36-.92-1.22-2.33-.58-2.56.63-.23.9 1.5 1 2.4.42-.28.84-.58 1.25-.92-.31-1.7-1.81-3.03-1.07-3.3s1.29 1.98 1.4 3.02c.62-.54.98-.84 1.43-1.58-.69-1.8-3.19-3.14-2.33-3.83.89-.71 2.3 2.42 2.67 3.27.22-.4.4-.82.54-1.25 1.17-3.8-1.67-7.24-4.4-4.55-.95 1.23-1.49 3.1-2.05 4.92z" fill="#68cbe3" stroke="#68cbe3" stroke-miterlimit="10" stroke-width="2.11"/><path d="m181.75 141.55-4.41-35.64h-5.39l-4.41 35.65-1.05-.01 4.54-36.69h7.23l4.55 36.69z" fill="#005384"/><path d="m179.38 115.61h-9.47v1.05h9.47zm-4.21-18.02h-1.05v7.92h1.05v-7.91z" fill="#005384"/><path d="m179.7 85.37h-10.1l-2.13 14.37c0 .3 3.22.55 7.18.55 3.97 0 7.19-.24 7.19-.55l-2.13-14.37z" fill="#fff"/></g></svg>