<svg fill="none" height="149" viewBox="0 0 256 149" width="256" xmlns="http://www.w3.org/2000/svg" xmlns:xlink="http://www.w3.org/1999/xlink"><linearGradient id="a"><stop offset="0" stop-color="#fff"/><stop offset="1" stop-color="#52c8eb"/></linearGradient><linearGradient id="b" gradientUnits="userSpaceOnUse" x1="36.9353" x2="196.212" xlink:href="#a" y1="71.0267" y2="71.0267"/><linearGradient id="c" gradientUnits="userSpaceOnUse" x1="43.75" x2="202.356" xlink:href="#a" y1="80.7252" y2="80.7252"/><linearGradient id="d" gradientUnits="userSpaceOnUse" x1="64.943" x2="157.711" xlink:href="#a" y1="68.9485" y2="68.9485"/><clipPath id="e"><path d="m0 0h256v149h-256z"/></clipPath><g clip-path="url(#e)"><path d="m170.572 106.333c1.372-1.142 2.873-2.336 4.657-2.437 2.86-.158 5.341 2.579 8.189 2.246 1.584-.189 2.887-1.299 4.348-1.938 1.683-.74 3.563-.842 5.397-.938 1.155-.062 2.385-.102 3.384.494.557.392 1.069.845 1.522 1.351 1.56 1.487 3.6 2.36 5.751 2.465.931.04 1.865-.068 2.798 0 4.183.293 7.338 3.928 7.043 8.117-.019.253-.05.503-.09.753-15.074 1.339-30.267.247-45.378.922-.968-3.878-.102-7.984 2.345-11.14" fill="#68cce5"/><path d="m24.6091 115.576c.2897-1.75.94-3.416 1.9108-4.896.9893-1.491 2.5364-2.518 4.2901-2.854 1.4515-.225 2.9524.154 4.3979-.127 1.6457-.321 2.9987-1.447 4.3609-2.425 1.618-1.16 3.4672-2.181 5.4581-2.168 1.8676.012 3.5873.931 5.2947 1.693s3.6336 1.392 5.415.818c1.3653-.441 2.4932-1.558 3.9202-1.725 1.507-.163 2.9987.799 4.4934.531 1.4947-.269 2.4964-1.669 3.5288-2.805 3.384-3.6369 8.4229-5.2381 13.2831-4.2231.3051.0432.5948.1728.829.3733.1572.179.2712.3919.3421.6171.9523 2.4777 1.917 5.0007 2.1081 7.6477.2219 3.048-.5887 6.106-.3329 9.148-.7335.404-1.5625.608-2.3977.592-4.8571.299-9.7297.053-14.596.031-14.1275-.056-28.326 1.814-42.3241-.015" fill="#68cce5"/><path d="m42.6138 120.626c12.6143-27.3652 34.1415-49.4764 55.8444-70.372 12.6918-12.2172 25.7368-24.3295 40.9958-33.1252 5.076-2.9155 10.491-5.4946 16.297-6.2906 3.97-.5337 8.004-.2129 11.977.2777 5.485.6787 10.928 1.6814 16.297 3.0018 2.663.6541 5.439 1.4624 7.353 3.4276 1.56 1.6012 2.355 3.7824 3.042 5.9111 5.369 16.6259 6.802 34.242 7.767 51.6854.453 8.188.801 16.487-.91 24.5084-1.713 8.0218-5.729 15.8448-12.448 20.5378-5.316 3.718-11.846 5.195-18.245 6.229-24.544 3.983-49.597 2.709-74.4249 1.425-17.4498-.901-34.9583-1.811-52.1461-4.961" fill="url(#b)" opacity=".38"/><path d="m91.8906 148.106c-9.2612-1.546-17.5546-15.065-23.8078-24.848-10.6357-16.645-19.4223-34.4057-26.1995-52.9628-1.8614-5.0967-3.5904-10.4062-3.2822-15.8237.6133-10.7641 8.8975-19.3068 16.6701-26.7729 5.1684-4.964 10.5957-10.1007 17.4468-12.1709 5.8618-1.777 12.1982-1.1291 18.1525.2931 13.0825 3.1098 25.0375 9.7953 36.3425 17.0855 28.926 18.6374 55.804 42.936 68.763 74.8367 1.501 3.696 2.786 7.987.984 11.547-1.544 3.061-4.922 4.68-8.124 5.93-30.918 12.217-39.723 27.677-96.9546 22.889" fill="url(#c)" opacity=".38"/><path d="m119.44 146.048c-23.1453-12.023-41.1283-33.644-48.7407-58.5994-4.9033-16.0859-5.5474-33.733-.0431-49.6214 5.5074-15.8885 17.5269-29.78709 33.1888-35.89258 4.121-1.610448 8.741-2.674822 12.957-1.305019 2.521.817559 4.697 2.443429 6.771 4.097069 3.695 2.94322 7.248 6.05613 10.66 9.33873 3.594 3.3906 6.916 7.0557 9.942 10.9646 13.706 18.0666 17.777 42.3991 13.487 64.6769-4.29 22.2751-20.15 65.0531-38.219 56.3441" fill="url(#d)" opacity=".38"/><path d="m65.2351 113.611-1.5903-3.916c-.1572-.262-.1757-.583-.0462-.86.5855.851 1.1495 1.718 1.6888 2.597l-.0431-5.053c0-.66.0986-1.478.7212-1.706-.1449 1.959-.1726 3.927-.0771 5.889.3421-.623.752-1.212 1.2143-1.752.1603-.21.3698-.379.6102-.494.2497-.12.5486-.061.7397.142l-1.051 1.478c-.6009.855-1.2296 1.793-1.1618 2.835.0215.318.0678.728-.2127.877-.2465.126-.5856-.031-.7705.166" fill="#fdca72"/><path d="m73.0878 112.364c.0617-3.273-.7396-6.506-2.3206-9.372l.4345-.929c1.4947 2.295 2.3792 4.936 2.5703 7.67.8506-.867 1.5687-1.855 2.1358-2.928l.8845.216-2.5919 4.516c-.2126.42-.49.803-.8259 1.133" fill="#fdca72"/><g fill="#fbb11e"><path d="m65.5186 101.655c-.3144-.101-.7397.275-1.0139.463-.2836.216-.5116.5-.6657.821-.2281.589-.1726 1.252.1541 1.792.3051.589.906.966 1.5717.984.2281.019.4562-.024.6657-.12.2096-.12.3853-.296.5055-.506.4006-.608.5116-1.364.2989-2.061-.225-.697-.8013-1.225-1.5163-1.385"/><path d="m63.2811 106.909c-.6009-.302-1.2296.213-1.5193.818-.2713.636-.1356 1.373.3482 1.867.3329.367.8167.558 1.3098.518.7551-.142 1.2821-.833 1.2174-1.601-.0986-.753-.6287-1.379-1.353-1.605"/><path d="m69.334 105.716c-.5979-.232-1.2697-.179-1.8245.138-.564.287-.9369.849-.9831 1.478-.0185.219.0246.438.1294.633.1757.249.4253.441.715.543.5055.283 1.0972.37 1.6643.246.4345-.151.7766-.487.943-.916.1603-.429.1695-.898.0278-1.333-.0832-.351-.336-.641-.6719-.771"/><path d="m69.6176 98.8016c-.789.4104-.8475.2623-1.2574.9626-.3822.7308-.3822 1.6038 0 2.3358.1726.385.4653.703.8352.904.4314.185.9184.197 1.356.03.9246-.296 1.5656-1.141 1.6026-2.11-.0062-.219-.0431-.438-.1079-.648-.1448-.518-.4622-.9684-.8999-1.28-.4469-.3085-1.0139-.3795-1.5224-.1913"/><path d="m77.0943 104.691c-1.0294-.28-2.0895.328-2.3669 1.358-.1788.654 0 1.354.4715 1.845.5178.5 1.2636.688 1.957.494.6873-.207 1.2266-.747 1.4362-1.435.0709-.216.0894-.444.0524-.666-.0801-.29-.2281-.556-.4345-.772-.2466-.318-.5517-.583-.8969-.786-.3513-.204-.7705-.244-1.1557-.112"/></g><path d="m62.4829 119.923c-.5979-2.271-1.1649-4.545-1.7012-6.821-.0339-.105-.0339-.219 0-.324.0771-.188.3236-.226.5301-.229 3.5042-.089 7.0083.016 10.5001.318.3976 2.036-.3637 4.14-.1479 6.204.0246.099.0062.201-.0462.287-.0648.065-.1541.099-.2466.096-.4161.046-.6164.521-1.0324.494-2.5889-.17-4.9219.151-7.8528-.025" fill="#4687c7"/><path d="m67.9996 110.751 1.0663 9.243c0 .117.0431.231.1233.321.0709.052.1572.08.2465.083 2.4656.305 4.9465.472 7.4306.494.2249.049.4468-.093.4961-.315.0093-.043.0124-.09.0093-.133.5023-2.934.8876-5.889 1.1495-8.866.074-.189-.0184-.402-.2064-.476-.0617-.024-.1295-.03-.1973-.018-3.4148-.25-6.8388-.38-10.2659-.386" fill="#68cce5"/><path d="m38.8446 54.4774c-2.3053 1.6136-3.1868 3.1099-3.2299 5.8525-.0185 1.2464.3267 2.5329-.0462 3.7238-.4685 1.5117-1.9478 2.4404-3.2915 3.2733-1.7475 1.0829-3.4764 2.2553-4.7955 3.8318s-2.1974 3.625-1.9693 5.6643c.265 2.465 2.0186 4.4796 3.6921 6.3122-2.1604 1.6135-3.2329 4.3501-3.5165 7.0341-.1941 1.3328-.0524 2.6964.4099 3.9613 1.0294 2.4651 3.8278 3.8318 6.4906 3.8195 2.6627-.0124 5.1868-1.1693 7.449-2.5731 1.9847 2.4651 4.4811 4.6339 7.4829 5.6459 4.9033 1.657 10.6912-.201 13.9857-4.1989 3.2915-4.0014 4.0528-9.8231 2.2159-14.6699-.6965-1.8418-1.7228-3.5479-2.2806-5.436-.7735-2.681-.5208-5.5347-.7828-8.3114-.2619-2.7766-1.2297-5.7599-3.6212-7.1914-1.9478-1.1693-4.3733-1.0459-6.6447-.8855-.3113.0556-.6287.0031-.9061-.148-.265-.2623-.4222-.614-.4438-.9842-.4376-2.2151-1.8584-4.1094-3.8585-5.1522-2.0341-1.0058-4.4503-.8484-6.3334.4165" fill="#fdca72"/><path d="m30.9425 60.2686c-.3852-.3825-1.0479-.0833-1.4362.2962-.9307.9101-1.356 2.5545-.453 3.4955.5917.5615 1.4547.7311 2.2159.435.7458-.3085 1.3406-.8916 1.6642-1.6321.339-.6047.3575-1.3389.0463-1.959-.4747-.7497-1.5071-.8546-2.3978-.8793" fill="#fdca72"/><path d="m65.9501 74.3922c-.373-.4442-.9893-.5985-1.5256-.3825-.5239.2252-.94.6448-1.1681 1.1692-.2496.4659-.3205 1.0058-.1972 1.521.3267.8824 1.279 1.3575 2.1789 1.0891.8722-.3116 1.467-1.12 1.5071-2.0455.0462-.4165-.0771-.8361-.3483-1.1569-.2866-.3209-.7643-.3826-1.1218-.1481" fill="#fdca72"/><path d="m40.0835 98.6509c-1.4239-.3857-2.8939.4473-3.2946 1.8661-.3236 1.41.5609 2.817 1.9694 3.138 1.4084.324 2.8138-.562 3.1343-1.971.0185-.087.0339-.173.0462-.263.1295-1.4713-.9184-2.7825-2.3792-2.983" fill="#fdca72"/><path d="m38.7798 74.886c1.9016 1.339 3.7014 2.8137 5.3903 4.4118.4346-1.231-.5517-2.6718-.0185-3.8626.2558-.4721.6256-.87 1.0756-1.157 1.6026-1.2186 3.2792-2.3323 5.0266-3.3319-.7396 2.354-3.7383 3.4029-4.4996 5.7507-.1941.7312-.2681 1.487-.2219 2.2429l.111 11.5261c2.1018-2.7643 4.5212-5.2725 7.2086-7.4722-.3575 3.2023-3.2946 5.3681-5.0605 8.0553-.4068.6016-.7304 1.2556-.9678 1.9436-.4807 1.4778-.4037 3.0605-.3205 4.6061l1.3376 24.7582c-1.4454-.58-3.0049-.821-4.5582-.7.6411-13.115-1.353-26.2949-.0647-39.3605.0647-.3949.0555-.8021-.0216-1.1939-.151-.435-.3945-.833-.7088-1.1693l-3.8987-4.7604" fill="#fbb11e"/><g fill="#004d77"><path d="m18.7566 119.793c-.7797-.817-2.0741-.851-2.8908-.071-.1572.148-.2867.321-.3884.509-.3328.614-.3051 1.364.0771 1.95.1787.247.4099.454.6718.608.7613.472 1.7105.515 2.5087.114.7921-.432 1.202-1.336 1.0109-2.218-.2527-.88-1.1588-1.398-2.0433-1.17"/><path d="m8.6571 109.785c.04623.398.29587 1.7.68111 1.592s-.07397-.068 0 0c.08938.065.20032.092.30819.077 1.2728-.028 2.5426-.148 3.7969-.358v-1.604c-1.5964.031-3.1898.126-4.78003.287"/><path d="m27.537 113.891c-.9585-1.913-1.8739-2.558-2.706-4.529-.0955-.173-.1294-.373-.0894-.568.0586-.138.1511-.259.2713-.351.5824-.531 2.8138-.269 1.8738-1.654-1.3715.247-2.6875.734-3.8894 1.438.4099.703.8198 1.41 1.2297 2.116-3.3901-.034-6.7679.355-10.0625 1.157-.5702.102-1.1157.305-1.6119.605-.4622.348-.8598.771-1.1803 1.252l-6.31798 8.42 11.07338.083c.3544.031.7088-.025 1.0386-.16.2619-.164.4869-.377.6595-.633 2.3669-3.033 4.5489-5.47 6.5306-8.771 2.9155 2.659 5.5506 10.307 6.6878 8.969-.5024-2.314-2.3793-5.125-3.5011-7.371zm-20.00789 6.544c1.51322-2.132 2.93089-4.023 4.44409-6.158.7027 1.012 1.3407 2.067 1.917 3.159.2466.423.9092 1.308 1.168 1.724.4747.741.6781.411.8013 1.281-3.0819-.006-5.5104.166-8.33039-.006zm9.74199-.948-4.2284-6.324c1.1927-1.231 4.8817-1.444 9.7635-1.586-1.8492 2.444-3.3316 5.02-5.5382 7.91z"/><path d="m12.6081 119.386c-.527-1.827-1.1064-2.635-2.67816-3.696-2.75832-1.743-6.37342-1.222-8.52769 1.231-2.006328 2.579-1.842986 6.235.38216 8.626.88143.857 1.95086 1.499 3.12199 1.876 1.11874.428 2.34226.515 3.51031.246 1.98789-.57 3.25759-2.536 3.90789-4.501.4006-1.231.638-2.554.2835-3.779zm-1.3437 2.869c-.2743 1.16-.8722 2.218-1.72279 3.051-.5455.617-1.26975 1.049-2.07105 1.231-.43763.053-.88143.034-1.3129-.055-1.26667-.201-2.45629-.741-3.44559-1.558-.9893-.83-1.59952-2.027-1.69197-3.317-.01233-.719.11095-1.435.3575-2.11.21882-.707.56399-1.364 1.02012-1.947.31743-.494.75507-.901 1.27283-1.185.85677-.617 2.83229-.814 3.84316-.509 1.01087.303 1.6026.877 2.41314 1.552.46845.426.84445.941 1.10645 1.515.4499 1.052.5301 2.227.228 3.332z"/><path d="m36.3482 119.91c-.2188-2.218-1.6211-4.523-3.8154-4.927-2.0495-.413-3.1405-.493-4.7986.225-1.6889.725-2.9463 2.2-3.3963 3.983-.3421 1.79.0617 3.644 1.1188 5.128 1.1403 1.681 3.0079 2.955 5.0358 2.986 1.803-.021 3.4919-.891 4.5551-2.348 1.0417-1.465 1.504-3.261 1.3006-5.047zm-1.2574 1.703c-.0617.592-.2373 1.169-.5147 1.694-.2805.45-.6226.858-1.0201 1.209-.5332.593-1.2112 1.037-1.9694 1.287-.7735.139-1.5687.077-2.3114-.185-1.1496-.315-2.333-.741-3.1066-1.645-.3698-.447-.641-.972-.7951-1.533-.7859-2.746.8013-5.612 3.5442-6.399.4284-.123.8691-.188 1.3129-.197 1.5163-.025 2.9586.645 3.9202 1.814.376.413.6657 1.617.8413 2.147.1696.586.2035 1.203.0956 1.805z"/></g><path d="m79.8896 65.8741c-.1232 17.6686-.1171 35.3399.0185 53.0089l91.5699-.614c.783-17.32.688-34.6646-.28-51.9753-30.163-2.0331-60.455 1.7894-90.6581.435" fill="#fff"/><path d="m80.0067 58.8739h.2928l.0555-.0555z" fill="#fbb11e"/><path d="m90.0199 58.8525h-9.7204c-1.467 1.3945-2.5518 3.1438-3.1559 5.0751 3.4055-.1018 6.808-.1913 10.2135-.2684.3514-1.8449 1.2821-3.5294 2.6597-4.8036z" fill="#fdca72"/><path d="m87.3602 63.665c-3.4056.0803-6.8111.1697-10.2135.2684-.3883 1.2495-.5147 2.5669-.3668 3.8688.0555 1.4007.8383 2.6717 2.068 3.3505 1.1218.7466 2.4286 1.1754 3.7754 1.2309 2.4378.142 4.6136-1.5148 5.1314-3.9027-.5856-1.5364-.7212-3.2054-.3914-4.8159z" fill="#fbb11e"/><path d="m98.637 63.7824c.0246-.1111.0524-.2221.077-.3332-3.6212.0556-7.2456.1234-10.8699.2036-.0278.5153.0061 1.0336.0924 1.5426.1387 1.0952.074 2.2059-.188 3.2795.0555.1388.1141.2746.1757.4103.2558.5986.6256 1.1385 1.0941 1.592.8475.691 1.88 1.1137 2.971 1.2063 1.1064.2005 2.2467.1234 3.3161-.216 1.6458-.6047 2.7583-2.1102 3.2545-3.8194-.228-1.2803-.2003-2.5946.0802-3.8657z" fill="#68cce5"/><path d="m89.6593 58.8278c.1387 0 .2774-.0185.4191-.0277.1172-.1018.2312-.2036.3514-.2962z" fill="#68cce5"/><path d="m90.0784 58.803-.0585.0524c-1.3776 1.2773-2.3115 2.9648-2.6597 4.8098h.4931c3.6212-.0833 7.2456-.1512 10.8699-.2037.4038-1.5487.9431-3.0573 1.6148-4.5074-3.4085-.3332-6.8386-.3825-10.2565-.1511z" fill="#8cd5ea"/><path d="m87.9365 65.1983c-.0894-.509-.1202-1.0273-.0924-1.5425h-.4932c-.3297 1.6135-.191 3.2887.3976 4.8251.2651-1.0736.3267-2.1873.188-3.2826z" fill="#68cce5"/><path d="m109.778 63.3286c-3.655.0278-7.31.0679-10.9654.1234 0 .0463-.0185.0864-.0216.1358-.0277.5522-.0154 1.1075.0463 1.6567.04.8114-.0555 1.6259-.2805 2.4064.0894.4628.225.9194.4038 1.3544.6533 1.6783 2.0954 2.9247 3.8524 3.3258.814.1203 1.64.1018 2.447-.0556.678-.0802 1.338-.2684 1.957-.5553 1.368-.6942 2.216-2.1565 2.555-3.6528.058-.2468.102-.4998.136-.7528-.019-.1882-.034-.3795-.05-.5676-.092-1.1385-.117-2.28-.074-3.4184z" fill="#fbb11e"/><path d="m98.8373 65.2417c-.0586-.5492-.074-1.1045-.0463-1.6567.0062-.0463.0124-.0895.0216-.1358h-.1017c-.0246.1111-.0524.2221-.077.3332-.2805 1.2711-.3082 2.5823-.0771 3.8626.225-.7805.3205-1.5919.2774-2.4033z" fill="#fbb11e"/><path d="m100.554 58.5129-.157.2684c-.022.0524-.047.1049-.068.1573-.6719 1.4531-1.2113 2.9617-1.615 4.5074h.1017c3.6583-.0555 7.3133-.0956 10.9653-.1234.037-1.0891.194-2.1689.466-3.2209.083-.3918.197-.7775.339-1.1538l-10.029-.4381z" fill="#fdca72"/><path d="m110.012 63.3228v.1543c.065 1.2803.028 2.5606-.108 3.8348.142 1.4192.463 2.8692 1.477 3.8287 1.18 1.1045 2.974 1.2309 4.57.9841 1.399-.2128 2.866-.7497 3.628-1.9467.41-.7219.631-1.5364.647-2.3663-.416-1.4716-.607-2.9988-.57-4.529-3.212.0031-6.426.0185-9.641.037z" fill="#68cce5"/><path d="m119.879 58.6085v-.0185l-.223-.0216v.1203c.071-.0309.145-.0586.223-.0802z" fill="#68cce5"/><path d="m110.015 63.4799v-.1542h-.234c-.04 1.1415-.012 2.283.08 3.4183.016.1882.031.3795.05.5677.135-1.2742.169-2.5545.104-3.8318z" fill="#68cce5"/><path d="m119.659 62.3229v-3.6343c-.093.034-.182.071-.275.1111l.225-.2468c-2.937-.3301-5.898-.361-8.842-.0926l-.03.2006c-.198.4627-.361.9379-.494 1.4222-.274 1.0582-.431 2.1411-.468 3.2332h.234c3.215-.0215 6.432-.0339 9.653-.037 0-.3147 0-.6355 0-.9564z" fill="#8cd5ea"/><path d="m130.825 63.3072c-3.338-.0154-6.676-.0277-10.014-.0308h-.557c.049 1.2803.055 2.5606.015 3.841 0 .2283-.019.4597-.031.691.003.0278.012.0587.025.0833.592 1.7832 1.874 3.4492 3.673 3.9799 1.101.256 2.241.29 3.354.0956.675-.0308 1.337-.2098 1.938-.5214.712-.4998 1.221-1.234 1.436-2.0763.235-.7558.376-1.5395.423-2.3293-.096-.6324-.158-1.271-.185-1.9127-.037-.5862-.062-1.2002-.074-1.8172z" fill="#fbb11e"/><path d="m119.657 58.5161-.048.0472h.048z" fill="#fbb11e"/><path d="m130.834 58.9633c-.028-.0802-.071-.1512-.127-.2129l-.018-.0154h-.022l.016-.0185c-.271-.179-.601-.2469-.922-.1882-3.307.1666-6.783-.9842-9.871.0802-.074.0247-.148.0493-.222.0802v4.5999h1.147c3.337 0 6.675.0093 10.013.0309-.043-1.45-.04-2.9031.006-4.3562z" fill="#fdca72"/><path d="m120.254 63.2886h-.589c-.037 1.5302.154 3.0574.57 4.529.015-.2314.025-.4597.031-.6911.043-1.2803.04-2.5607-.016-3.8379z" fill="#fbb11e"/><path d="m119.656 58.6887v-.1203h-.047l-.225.2468c.087-.0463.176-.0895.269-.1265z" fill="#fbb11e"/><path d="m138.283 63.3599-7.2-.0401c0 .3517.019.7034.025 1.0551.019.8886.037 1.7863-.028 2.6718.124 1.0705.527 2.0886 1.168 2.9555.848 1.0181 2.056 1.6722 3.372 1.8264 1.31.145 2.635-.0678 3.834-.617.586-.2283 1.116-.5831 1.556-1.0335.607-.7775.959-1.7246 1.011-2.7088-.237-1.3482-.354-2.718-.345-4.0878l-3.393-.0277z" fill="#68cce5"/><path d="m130.841 58.7289v-.2006l-.177.1882.019.0154.155-.0061z" fill="#68cce5"/><path d="m141.497 58.6272c-3.547-.0987-7.097-.0679-10.651.0926v.2468c-.046 1.45-.046 2.9031 0 4.3562h.262l7.196.0401 3.394.0216c0-1.1014.046-2.2182.107-3.3073-.107-.4874-.2-.9564-.308-1.4469z" fill="#8cd5ea"/><path d="m130.693 58.7325-.019-.0157-.016.0188h.035z" fill="#68cce5"/><path d="m131.108 64.3749c0-.3517-.015-.7034-.025-1.0551h-.262c.019.6078.041 1.2125.074 1.8203.028.6386.09 1.2772.185 1.9127.065-.8885.047-1.7739.028-2.6748z" fill="#68cce5"/><path d="m152.287 63.4491-10.136-.0648c.061 1.2464.03 2.4959-.09 3.7361-.006.1172-.018.2345-.04.3486.034.1851.074.3702.117.5522.151.9225.533 1.7925 1.116 2.5237.496.5306 1.109.9379 1.787 1.1909 2.118.8638 4.821.6417 6.358-1.0552.694-.8268 1.159-1.8233 1.35-2.8877-.114-.8237-.141-1.6567-.212-2.4866-.059-.6263-.142-1.2464-.253-1.8634z" fill="#fbb11e"/><path d="m150.993 59.0006.246-.1481c-2.909-.4535-5.865-.5183-8.789-.1974l-.592.3702c-.019.3486-.043.6972-.062 1.0459-.064 1.1013-.114 2.2182-.108 3.3072h.475l10.136.0648c-.274-1.524-.711-3.0142-1.303-4.4457z" fill="#fdca72"/><path d="m142.151 63.3843h-.475c-.009 1.3698.108 2.7396.345 4.0878.016-.1172.031-.2345.04-.3486.12-1.2433.151-2.4928.09-3.7392z" fill="#fbb11e"/><path d="m152.894 63.4494c.182 1.2927.164 2.6069-.055 3.8934-.028.1512-.056.3024-.09.4535.044.3147.102.6263.176.9348.225 1.1415.891 2.1473 1.849 2.8044.761.3949 1.603.6078 2.463.6232 1.544.1111 3.248.0155 4.388-1.0304 1.196-1.0921 1.387-2.8229 1.372-4.4858-.194-1.0335-.299-2.0886-.45-3.1345l-9.653-.0617z" fill="#68cce5"/><path d="m152.894 63.4492h-.607c.108.617.194 1.231.247 1.8634.071.8269.098 1.6629.212 2.4867.031-.1512.062-.3024.09-.4536.219-1.2895.24-2.6038.058-3.8965z" fill="#68cce5"/><path d="m162.525 63.3444c-.157-1.4254-.616-2.7983-1.35-4.0292l-9.181-.9348-.764.4782-.247.1481c.589 1.4284 1.027 2.9123 1.298 4.4333h.607l9.656.0617c0-.0524-.006-.1049-.016-.1573z" fill="#8cd5ea"/><path d="m174.298 63.5851-11.415-.0709.095 2.2861c0 .2776.019.5614.022.8453.092.5152.216 1.0273.373 1.5271.505 1.558 1.498 3.0512 3.008 3.696 1.42.5924 3.042.3363 4.542 0 .598-.0925 1.169-.3208 1.665-.6664.373-.3301.662-.7435.847-1.2063.709-1.5765.817-3.3504.913-5.075.046-.4381.03-.8824-.047-1.3174v-.0185z" fill="#fbb11e"/><path d="m173.571 62.0919-1.874-2.9247c-.08-.1512-.197-.2838-.336-.3826-.209-.0956-.444-.1234-.669-.0864-3.408.2499-6.835.1821-10.232-.2036l.346.3209c.132.1573.255.3239.369.4936.734 1.231 1.193 2.6039 1.35 4.0292.006.0555.013.1111.025.1666h.333l11.415.071c-.154-.5338-.4-1.0367-.727-1.4871z" fill="#fdca72"/><path d="m162.883 63.5142h-.333c.154 1.0458.246 2.0979.45 3.1345 0-.2839 0-.5677-.022-.8454z" fill="#fbb11e"/><path d="m81.8867 42.6679c19.9343-.2283 39.8833-.1018 59.8203.0216l29.589.1851c.786 0 1.655.0432 2.216.5893.561.546.629 1.3389.684 2.0855.204 2.8661.33 5.7415.373 8.623.025 1.5919-.107 3.4492-1.427 4.3439-.798.5429-1.824.5676-2.792.5738l-88.2938.4967c-1.5009 0-3.2144-.0771-4.1698-1.231-.6072-.7404-.7397-1.7523-.8383-2.7087-.3359-3.5078-.3359-7.0372 0-10.542.077-.7897.2188-1.6659.8475-2.1441.2712-.2715.6441-.4196 1.0263-.4042 1.2297-.1172 1.7228.2468 2.9525.1173" fill="#fff"/><path d="m86.8055 78.0298c-.4931 9.3757-.1973 19.0322.3236 28.4052 14.3859.361 28.7849-.04 43.1319-1.194.129-8.8947.45-17.783.964-26.6651-14.808.0401-29.614-.142-44.4195-.543" fill="#4687c7"/><path d="m142.61 76.7121c8.614 0 17.367.3764 25.971.3825.136 6.158.13 12.3344.13 18.4985v24.5979c-8.137.413-16.279.697-24.428.848-.351.056-.712-.043-.983-.274-.132-.191-.209-.417-.216-.648-1.824-14.368-.332-28.9233-.468-43.408" fill="#4687c7"/><path d="m150.506 47.061c3.938-.4936 7.908-.1728 11.868-.1913.817-.0617 1.637.0401 2.41.3055.749.3239 1.378 1.0859 1.264 1.8942-.154.6541-.604 1.2002-1.218 1.4778-.567.3178-1.192.5152-1.839.58.067 1.3482-.725 2.5823-1.594 3.6066-.046.0617-.105.1141-.175.1542-.087.0339-.179.0463-.269.0339-2.505-.0987-5.017-.1048-7.526-.0154-.172.0154-.345.0062-.511-.0308-.293-.1018-.549-.287-.74-.5307-1.787-2.03-2.506-4.7881-1.935-7.4321" fill="#fbb11e"/><path d="m84.2567 47.7179c-.3729.3487-.1757 1.0305.2466 1.3143.453.2376.9677.3332 1.4762.2777l37.6145-.5831c.068.0061.133-.0062.195-.034.126-.1018.144-.29.043-.4165-.013-.0154-.028-.0308-.043-.0431-.145-.1049-.315-.1636-.494-.1666-9.738-1.0953-19.567-.9842-29.3641-.8917l-9.5232.1019" fill="#68cce5"/><path d="m84.2444 52.2223-.1818 1.5518c10.1179 1.4192 20.3964-.1758 30.6154-.108.447.037.894-.0277 1.313-.1851.426-.1728.681-.6108.623-1.0674-8.888-.8145-17.8198-1.0613-26.7389-.7405-1.803.034-3.6028.1882-5.3842.4597" fill="#68cce5"/><path d="m88.7656 80.3188-.0617 22.7502c5.1345.379 10.2875.32 15.4371.262l24.193-.278c.176.022.355-.028.493-.139.087-.114.133-.253.136-.395.182-1.814-.077-3.6369-.166-5.4602-.275-5.7199 1.168-11.4552.551-17.1503-7.255.3578-14.519-.1019-21.786-.1019-4.811 0-9.6154.1975-14.414.5955-1.3837.1172-2.5518-.1296-4.1451-.1142" fill="#68cce5"/><path d="m145.159 78.6803c0 13.4389-1.477 26.9177-.173 40.2917 7.323-.018 14.645-.154 21.965-.404.132.012.265-.025.376-.099.108-.126.16-.293.142-.459.03-2.12-.167-4.242-.173-6.362 0-2.644.287-5.275.475-7.913.591-8.2715.151-16.5767-.293-24.8573-7.424.0309-14.895-.2283-22.319-.1974" fill="#68cce5"/><path d="m164.738 48.3754c-.151-.2468-.518-.2622-.814-.2314-.237 0-.468.0741-.665.2067-.284.327-.364.7867-.21 1.1909.009.0895.046.1758.102.2468.074.0648.166.1049.262.1172.428.0988.878 0 1.23-.2622.348-.2808.44-.7713.218-1.16-.049-.0895-.145-.145-.246-.1481" fill="#fff"/><path d="m97.9682 101.103c.0061-.043-.0062-.089-.0339-.123-.037-.031-.0832-.043-.1295-.037-1.2142 0-2.4347.04-3.6459.136-.0308.302-.0216.607.0278.91v.046c-.188-.046-.3822.028-.4931.188-.1048.158-.1726.343-.1881.531-.0893.376-.04.771.1387 1.114.1973.33.6287.438.9585.24.0093-.006.0154-.009.0247-.015.0832.336.1664.672.2465 1.012.7274.046 1.4547.102 2.1789.176.4531-.577.7459-1.262.8476-1.987.0955-.725.1233-1.456.077-2.188zm-3.5751 2.552c-.0184.012-.04.018-.0616.015-.0986.006-.1972-.018-.2835-.068-.0493-.046-.0894-.101-.1141-.166-.0893-.167-.1171-.355-.0863-.54.037-.188.2034-.321.3976-.318l.0339-.025c.0617.34.1048.682.1294 1.025.0062.024.0001.052-.0184.074z" fill="#004d77"/><path d="m88.6053 104.997c5.2546.281 10.5186.145 15.7767 0l19.493-.494c1.852-.111 3.707-.031 5.541.247.804.117 1.569.417 2.241.876.675.472 1.072 1.244 1.069 2.067-.136.957-.783 1.765-1.686 2.107-.89.324-1.837.476-2.786.451-10.512.37-21.031.472-31.5556.302-3.1312-.049-6.2656-.126-9.3783-.459-.7027-.016-1.3838-.232-1.9693-.624-.9709-.799-.8229-2.462.0801-3.341.8475-.808 1.9971-1.222 3.1651-1.141" fill="#004d77"/><path d="m213.201 120.441c-.647-.333-1.439-.074-1.772.574-.12.234-.166.496-.135.759 1.143.071 1.969.068 2.638.049.123.022.237-.059.259-.182 0-.012.003-.025.003-.037.058-.194.086-.395.08-.595-.006-.204-.108-.395-.275-.516-.191-.092-.406-.12-.616-.077" fill="#4687c7"/><path d="m209.139 89.0834c-.246 10.7147-.477 21.4326.019 32.1506-.009.287.049.57.172.826.136.263.435.395.719.315.197-6.287.188-12.575-.034-18.869-.173-4.8463-.469-9.7208.126-14.5337l-1.014-.0709" fill="#004d77"/><path d="m184.989 104.33 4.466 9.607c.401.784.715 1.611.934 2.465.41 1.913-.148 3.919.126 5.853h.74c.25-1.873.345-3.764.287-5.652 2.256-.049 4.511.022 6.758.213-.015 1.7-.095 3.4-.246 5.097.185.203.499.215.702.03.025-.021.043-.043.062-.071.157-.259.231-.561.203-.86l.108-5.458c-2.308-.342-4.657-.342-6.965 0-.305.086-.632.049-.909-.102-.148-.139-.259-.314-.318-.509-1.602-3.899-3.451-7.691-5.541-11.353-.237.114-.416.321-.493.574" fill="#004d77"/><path d="m213.562 101.853 3.365 6.803c.062.157.164.296.296.401.17.089.364.126.555.108l7.791-.068-.058-.787h-7.607c-.329.059-.644-.154-.718-.481-.841-1.873-1.753-3.711-2.733-5.516-.099-.228-.259-.423-.463-.568-.215-.136-.502-.074-.641.142" fill="#004d77"/><path d="m200.168 109.125c4.025-.226 8.155-.247 12.186-.315 7.43-.117 14.873.315 22.298-.052.308-.041.622-.004.912.101.296.124.459.441.385.75l-34.265.472c-.345.031-.693-.015-1.02-.139-.327-.132-.527-.469-.493-.82" fill="#004d77"/><path d="m226.836 111.136c-1.923.571-3.535.247-5.215.472-2.157.275-4.093 1.574-5.495 3.233-1.35 1.713-2.391 3.65-3.079 5.72l1.017.494c.909-1.213 1.819-2.431 2.783-3.603.447-.596.983-1.117 1.594-1.546.859-.494 1.827-.775 2.816-.821 1.061-.102 2.127-.102 3.187 0 1.544.148 3.098.515 4.632.284.102.015.194-.055.21-.154.009-.053-.006-.108-.043-.148l-1.436-3.372c-.142-.324.135-.102-.142-.324" fill="#68cce5"/><path d="m228.115 105.487c-2.41.735-4.897 1.197-7.412 1.376-.367.003-.734.071-1.076.201-.342.142-.579.463-.616.833.169.083.354.123.542.117 2.777.127 6.941-.089 9.634-.774.105-.025-1.155.246-1.06.203.552-.247 1.045-.086 1.06-.203.065-.509-.958-1.157-1.186-1.614" fill="#f4f4f4"/><path d="m228.084 105.339c-1.76.534-3.56.926-5.381 1.17-.857.114-1.723.123-2.586.262-.635.028-1.168.493-1.276 1.123 0 .055.028.108.077.136.358.132.74.188 1.122.157.419.012.838.015 1.257.015.931 0 1.862-.034 2.793-.095 1.732-.059 3.451-.3 5.131-.719.08-.025.126-.111.102-.194-.019-.062-.077-.105-.142-.108-.166.021-.333.052-.493.098l-.367.077c-.049.003-.098.013-.145.028-.067.028-.08-.025 0 .031v.265c.219-.098.46-.145.7-.135.102.009.203 0 .302-.025.2-.086.154-.318.086-.494-.231-.567-.863-.857-1.152-1.385-.096-.176-.358-.018-.265.154.299.392.628.759.983 1.102.077.095.108.228.178.317v.065c.059-.046.065-.061.019-.052-.052-.003-.105-.003-.157 0-.296-.013-.586.049-.854.179-.074.046-.095.145-.049.219.012.018.027.037.049.049.136.077.413-.034.549-.062l.416-.086c.052-.006.101-.015.154-.031.018 0 .105-.012.034 0l-.043-.302c-1.622.401-3.283.635-4.953.7-.869.059-1.741.093-2.614.102h-1.192c-.441.052-.891.009-1.313-.123l.077.135c.08-.897 1.325-.854 1.969-.907.777-.064 1.554-.157 2.327-.274 1.593-.247 3.171-.605 4.715-1.071.084-.024.127-.111.102-.194-.025-.08-.108-.127-.188-.105l.025-.009z" fill="#36444d"/><path d="m228.525 98.3174c-.398 1.4191-.127 2.9406.739 4.1336.071.108.161.201.262.278.438.299 1.045-.028 1.563.096.231.055.437.959.561 1.163.061.102.117-.022.225.012s.2.225.28.164c.33-.247.435-1.478.358-1.876-.099-.404-.293-.781-.564-1.095-.9-1.163-2.081-2.0796-3.434-2.6597" fill="#f4f4f4"/><path d="m228.377 98.2864c-.345 1.2371-.207 2.5576.391 3.6956.262.494.576 1.018 1.187 1.043.302.013.601-.077.903-.062.141 0 .188.016.246.127.065.12.12.247.164.379.055.186.12.368.2.543.025.062.068.118.123.155.09.046.173-.013.247.021.154.065.215.232.4.093.13-.124.219-.281.262-.454.13-.419.185-.86.164-1.299-.056-.533-.278-1.036-.632-1.437-.906-1.1695-2.09-2.0889-3.446-2.6812-.178-.0771-.336.1882-.154.2653 1.067.4597 2.031 1.1292 2.832 1.9719.435.407.783.9 1.021 1.446.104.395.114.812.024 1.213-.024.188-.074.373-.148.552-.021.046-.055.142-.101.164.08-.047-.05-.127-.127-.161s-.126 0-.203-.015c-.077-.016.046.065 0 0-.019-.037-.034-.077-.046-.117-.068-.189-.127-.377-.201-.559-.145-.358-.28-.54-.687-.543-.247 0-.512.056-.767.062-.342-.009-.651-.213-.792-.525-.734-1.132-.943-2.5232-.58-3.8221.022-.0802-.024-.1666-.108-.1882-.08-.0216-.166.0247-.188.108l.019.0185z" fill="#36444d"/><path d="m227.529 96.8086c-.323.5399.314 1.3883.709 1.8758.33.4072.703.7774 1.109 1.1044 1.138.9102 2.626 1.4782 3.332 2.7672.521-1.459.635-3.0294.333-4.5504-.022-.2653-.148-.509-.348-.6818-.133-.074-.278-.1172-.429-.1265-1.562-.2036-3.214.1697-4.694-.3795" fill="#4687c7"/><path d="m240.664 111.275c-.218-.416-.909-.336-1.168.056-.222.425-.212.934.025 1.351.348.62.78 1.188 1.282 1.694.505.509.832 1.166.934 1.875.031.513-.145 1.031-.037 1.531.191.885 1.19 1.416 1.374 2.301.093.438-.033.898.031 1.342.068.444.493.907.903.741.185-.719.275-1.457.265-2.197 2.158.213 4.34-.003 6.414-.639.558-.209 1.143-.345 1.738-.404.607-.052 1.199.198 1.584.667.441.626.29 1.567.823 2.119.123.145.305.225.493.225.274-.04.49-.256.53-.533.031-.269 0-.543-.086-.799l-.382-1.478c-.213-.639-.296-1.315-.247-1.987.105-.741.515-1.376.74-2.079.225-.704.172-1.596-.435-2.015-.246.213-.179.602-.166.929.015.444-.108.882-.355 1.252-.07.12-.169.219-.289.287-.148.062-.305.089-.466.077l-9.236.05c-.123-.84-.462-1.629-.983-2.296-.946-1.021-2.611-1.2-3.4-2.345" fill="#004d77"/><path d="m243.848 113.169c.169.695-.015 1.426-.493 1.953-.188.204-.41.374-.586.59-.166.228-.305.475-.41.74-.074.139-.111.296-.104.454.055.222.2.413.4.521.259.213.592.321.928.299.16-.031.311-.095.444-.194.647-.534.952-1.376.801-2.2-.154-.808-.456-1.579-.891-2.28" fill="#4687c7"/><path d="m226.685 110.911c1.149-1.034 2.132-2.237 2.915-3.57l-1.377.284c-.065-.595-.373-1.441-.435-2.036-.015-.071-.009-.142.012-.213.044-.077.111-.142.191-.179 1.446-.873 3.425-1.169 4.833-2.073.545 1.231.373 2.317.179 3.644-.231 1.32-.617 2.61-1.153 3.841-.382.944-.789 1.878-1.23 2.801-.329.821-.819 1.564-1.445 2.184-1.23-1.277-1.276-3.378-2.496-4.68" fill="#4687c7"/><path d="m218.521 121.832c-.059-1.743.286-3.634.228-5.377-.034-.299.003-.602.105-.886.332-.718 1.316-.752 2.105-.697 2.635.191 5.279.235 7.92.13.234.012.465-.044.669-.161.157-.135.274-.311.345-.509 1.347-3.002 2.561-6.059 3.643-9.172.092-.358.262-.694.493-.984.243-.29.644-.395.999-.262l-2.059 4.325c-.737 1.45-1.362 2.956-1.874 4.501-.672 2.234-.854 4.588-.533 6.899.102.441.102.901 0 1.342-.114.453-.549.752-1.014.697.132-1.971.102-3.946-.089-5.911-3.07-.438-6.189-.42-9.252.058-.185.01-.358.084-.494.207-.111.173-.151.38-.114.58l.21 3.502c.068.447.009.907-.166 1.326-.201.417-.703.593-1.119.392-.006 0-.012-.006-.016-.009" fill="#004d77"/><path d="m237.761 85.0578c-2.496-4.3131-6.151-7.8116-9.859-11.1467-2.065-1.8572-4.17-3.696-6.564-5.1028-6.241-3.6744-13.872-4.0971-20.483-1.1384 2.102-.1759 4.216-.0956 6.293.2468 6.543 1.0644 12.562 4.529 17.308 9.1629 4.022 3.9428 7.172 8.6846 9.662 13.7443.555.1357 1.131.1666 1.698.0894 1.363-.1635 2.491-1.1384 2.848-2.4619.247-1.1693-.302-2.357-.903-3.3936z" fill="#fdca72"/><path d="m207.136 67.8857c-2.08-.3393-4.194-.4226-6.293-.2468-3.772 1.6691-7.119 4.2884-9.983 7.2841-3.442 3.6157-6.57 7.5215-9.35 11.671.65 1.0984 1.538 2.5329 2.493 3.3721 1.054.9255 2.506 1.5117 3.871 1.1878.922-.2221 1.751-.8392 2.706-.8577 1.242-.0247 2.333.9842 3.575.9317 1.15-.0493 2.068-.9841 3.199-1.2525 2.216-.506 4.413 1.7431 6.589 1.1106.86-.2468 1.581-.9348 2.463-1.0088 1.26-.1049 2.351 1.0335 3.615 1.0057 1.38-.0308 2.496-1.4438 3.874-1.3081.967.0987 1.704.9441 2.65 1.1693 1.529.3671 2.953-.9564 4.534-1.049 1.84-.1141 3.55 1.4778 5.353 1.0953 1.593-.3363 2.869-2.1565 4.429-1.7246.413.145.801.3548 1.152.617.638.4196 1.344.7281 2.087.9101-2.49-5.0596-5.637-9.8107-9.665-13.7474-4.734-4.6277-10.753-8.0954-17.299-9.1628z" fill="#fbb11e"/><path d="m205.25 106.351c-.111-.108-.262-.17-.419-.17-.031 0-.065-.009-.09-.028-.021-.027-.027-.061-.021-.092l.018-.614c.007-.04-.003-.077-.027-.111-.031-.028-.071-.043-.111-.04-1.144-.071-2.293-.031-3.43.117v.077c-.074.818.003 1.641.231 2.428.117.463.326.898.619 1.274.046.062.105.115.176.152.058.024.123.037.188.04l1.18.105c.056.012.111.012.163 0 .05-.022.093-.053.127-.096.262-.333.456-.719.564-1.129.021-.074.055-.145.098-.21.081-.083.176-.151.281-.204.339-.213.558-.57.592-.968.03-.189-.019-.383-.139-.531zm-.404.697c-.04.219-.215.392-.434.432v-.78l.095-.136c.222.049.367.259.339.484z" fill="#004d77"/><path d="m147.754 97.0311c0-.5769-.081-1.1538-.247-1.7061-.089-.29-.305-.6386-.604-.5676-.247.0586-.327.3609-.358.6139-.181 1.7894-.234 3.5911-.157 5.3897-.009.447.034.895.12 1.333.09.389.361.824.759.79.243-.04.443-.213.52-.451.071-.231.099-.475.081-.719l-.062-5.34" fill="#4687c7"/></g></svg>