<svg width="261" height="145" viewBox="0 0 261 145" fill="none" xmlns="http://www.w3.org/2000/svg">
<g clip-path="url(#clip0_36367_9009)">
<path opacity="0.15" d="M260.274 0H0V142.929H260.274V0Z" fill="#69CBE4"/>
<path d="M261 96.5581V145.004H59.45C63.2157 142.972 67.3281 141.394 69.7488 137.943C75.2969 130.037 68.1901 118.767 71.2331 109.6C74.9112 98.5379 91.1437 95.9521 95.1686 85.0129C97.0741 79.8284 95.0844 74.8708 95.8719 69.615C96.5783 64.8097 98.8468 60.3672 102.33 56.9811C105.156 54.282 108.809 52.2179 110.497 48.6924C112.101 45.3452 111.583 41.4018 112.338 37.7694C113.287 33.2103 116.47 29.2345 120.572 27.0861C124.484 25.0383 131.062 24.2541 135.262 25.6215C140.528 27.3356 145.324 32.2706 149.314 35.9678C152.807 39.2049 156.268 40.0538 161.022 39.0169C171.204 36.7908 178.719 27.8671 188.241 23.9819C190.243 23.1459 192.337 22.5497 194.476 22.1965C199.427 21.4253 204.868 22.5108 208.469 25.9942C211.735 29.1567 213.087 33.7903 215.783 37.4519C221.337 45.0017 232.933 47.001 237.547 55.1244C242.062 63.0696 239.343 73.5034 243.568 81.5166C247.143 88.2986 255.433 91.4708 260.997 96.5581H261Z" fill="white"/>
<path d="M232.443 40.1501C233.613 40.3542 234.935 40.3996 235.856 39.6479C236.685 38.9706 236.964 37.8268 237.022 36.7575C237.327 31.3009 227.012 16.146 221.613 24.088C216.736 31.262 226.325 39.0776 232.44 40.1501H232.443Z" fill="white"/>
<path d="M177.673 49.4785H173.33V56.0498H177.673V49.4785Z" fill="#A8DBE8"/>
<path d="M173.531 43.2148H177.504C179.027 43.2148 180.262 44.4494 180.262 45.9723V46.9898C180.262 48.5127 179.027 49.7473 177.504 49.7473H173.531C172.008 49.7473 170.773 48.5127 170.773 46.9898V45.9723C170.773 44.4494 172.008 43.2148 173.531 43.2148Z" fill="#A8DBE8"/>
<path d="M189.785 56.9303L187.179 60.8555L189.771 62.576L192.377 58.6509L189.785 56.9303Z" fill="#A8DBE8"/>
<path d="M189.486 54.039L189.391 54.1821C188.702 55.2195 188.984 56.6193 190.022 57.3086L191.93 58.5763C192.968 59.2656 194.368 58.9834 195.057 57.9459L195.152 57.8029C195.841 56.7654 195.559 55.3657 194.521 54.6764L192.613 53.4087C191.576 52.7194 190.176 53.0016 189.486 54.039Z" fill="#A8DBE8"/>
<path d="M175.501 55.1973C188.364 55.1973 198.792 65.6245 198.792 78.4853C198.792 91.346 188.364 101.773 175.501 101.773C162.639 101.773 152.211 91.346 152.211 78.4853C152.211 65.6245 162.639 55.1973 175.501 55.1973V55.1973Z" fill="#50B8D4"/>
<path d="M194.803 78.486C194.8 89.1401 186.157 97.7755 175.498 97.7723C164.84 97.769 156.207 89.1272 156.21 78.4698C156.213 67.8157 164.856 59.1804 175.514 59.1836C182.501 59.1836 188.941 62.965 192.35 69.0633C193.96 71.9439 194.803 75.1874 194.803 78.486V78.486Z" fill="white"/>
<path d="M192.35 69.0612L175.501 78.4839L181.059 59.998C185.852 61.4432 189.9 64.6932 192.35 69.0612V69.0612Z" fill="#A8DBE8"/>
<path d="M175.501 35.7402C170.375 35.7402 166.217 39.8975 166.217 45.0237C166.217 50.1498 170.375 54.3071 175.501 54.3071C180.628 54.3071 184.786 50.1498 184.786 45.0237C184.786 39.8975 180.628 35.7402 175.501 35.7402V35.7402ZM175.501 52.107C171.587 52.107 168.414 48.9347 168.414 45.0204C168.414 41.1062 171.587 37.9339 175.501 37.9339C179.416 37.9339 182.589 41.1062 182.589 45.0204C182.589 48.9347 179.416 52.107 175.505 52.107H175.501Z" fill="#50B8D4"/>
<path d="M235.003 91.7453L214.448 75.2198C213.845 74.7338 212.964 74.831 212.477 75.4337C212.277 75.6832 212.17 75.991 212.17 76.3118V83.5603H147.34V102.118H212.17V109.366C212.17 110.14 212.798 110.766 213.57 110.766C213.887 110.766 214.198 110.656 214.448 110.458L235.003 93.9325C235.606 93.4465 235.703 92.5651 235.217 91.9624C235.152 91.8846 235.081 91.8134 235.003 91.7486V91.7453Z" fill="#88D3E1"/>
<path d="M172.403 61.7949H121.554V117.055H172.403V61.7949Z" fill="#52C0DF"/>
<path d="M150.257 61.7949H143.698V73.123H150.257V61.7949Z" fill="#50B9D7"/>
<path d="M132.378 119.084H120.767V126.43H132.378V119.084Z" fill="#212120"/>
<path d="M199.619 130.01H132.524C131.879 130.01 131.357 129.488 131.357 128.843C131.357 128.688 131.39 128.532 131.451 128.386L134.808 120.506H199.009L199.615 130.01H199.619Z" fill="#E6E7E6"/>
<path d="M210.303 123.546V128.947C210.303 129.534 209.827 130.01 209.24 130.01H197.849C198.452 126.028 195.71 122.314 191.728 121.712C187.745 121.109 184.031 123.85 183.428 127.833C183.318 128.555 183.318 129.287 183.428 130.01H147.34C147.943 126.028 145.201 122.314 141.219 121.712C137.236 121.109 133.522 123.85 132.919 127.833C132.809 128.555 132.809 129.287 132.919 130.01H131.684C131.098 130.01 130.622 129.534 130.622 128.947V123.529H117.49V117.049H202.587L203.77 117.882L206.761 122.48H209.237C209.823 122.48 210.3 122.956 210.3 123.542L210.303 123.546Z" fill="#0F3E64"/>
<path d="M122.212 117.049H119.338V128.944C119.338 129.53 119.814 130.007 120.4 130.007H121.149C121.736 130.007 122.212 129.53 122.212 128.944V117.049V117.049Z" fill="#37474F"/>
<path d="M118.641 117.049H116.262C115.987 117.049 115.763 117.272 115.763 117.548V123.821C115.763 124.336 116.181 124.751 116.693 124.751H117.708C118.223 124.751 118.638 124.333 118.638 123.821V117.049H118.641Z" fill="#37474F"/>
<path d="M115.436 118.279C115.005 118.279 114.658 118.626 114.658 119.057V121.672C114.658 122.103 115.005 122.45 115.436 122.45C115.867 122.45 116.214 122.103 116.214 121.672V119.057C116.214 118.626 115.867 118.279 115.436 118.279Z" fill="#F4991E"/>
<path d="M184.818 124.527C184.118 125.454 183.649 126.533 183.454 127.677H147.317C147.123 126.533 146.653 125.451 145.953 124.527H184.818Z" fill="white"/>
<path d="M198.588 122.48L198.539 119.453H117.494V122.48H198.588Z" fill="#E4E5E4"/>
<path d="M198.52 122.479H207.289C207.749 122.479 208.125 122.103 208.125 121.643V111.239C208.125 111.096 208.09 110.953 208.018 110.83L207.163 109.307L197.467 92.0884C197.279 91.7482 196.919 91.5408 196.53 91.5376L183.713 91.4922C183.253 91.4922 182.877 91.8681 182.877 92.3282V117.048H194.534C194.839 117.048 195.121 117.214 195.266 117.479L197.788 122.048C197.933 122.314 198.215 122.479 198.52 122.479V122.479Z" fill="#DEDFDF"/>
<path d="M195.283 92.7239H186.248C185.787 92.7239 185.411 93.0998 185.411 93.5599V106.473C185.411 107.023 185.859 107.467 186.406 107.467L195.872 107.461C195.944 107.461 196.015 107.471 196.086 107.487L202.512 109.172C202.96 109.288 203.417 109.023 203.533 108.575C203.585 108.381 203.562 108.177 203.475 107.995C201.767 104.493 197.762 96.3336 196.012 93.1517C195.866 92.886 195.584 92.7207 195.279 92.7207L195.283 92.7239Z" fill="#0F3E64"/>
<path d="M205.948 114.071V119.547C205.948 119.66 205.993 119.767 206.074 119.848L207.335 121.108C207.416 121.189 207.523 121.235 207.636 121.235H208.359C208.595 121.235 208.786 121.044 208.786 120.807V116.925C208.786 115.007 207.73 113.886 206.46 113.653C206.226 113.607 206.003 113.759 205.957 113.993C205.951 114.019 205.951 114.045 205.951 114.074L205.948 114.071Z" fill="#EEEEEE"/>
<path d="M205.948 114.071V117.068H208.783V116.922C208.783 116.689 208.767 116.456 208.731 116.222C208.637 115.305 208.129 114.482 207.348 113.987C207.072 113.821 206.767 113.708 206.45 113.65C206.217 113.607 205.993 113.76 205.951 113.993C205.948 114.019 205.944 114.045 205.944 114.071H205.948Z" fill="#F4991E"/>
<path d="M190.639 135.126C194.07 135.126 196.851 132.345 196.851 128.915C196.851 125.484 194.07 122.703 190.639 122.703C187.208 122.703 184.426 125.484 184.426 128.915C184.426 132.345 187.208 135.126 190.639 135.126Z" fill="#37474F"/>
<path d="M140.133 135.125C143.562 135.125 146.342 132.345 146.342 128.913C146.342 125.485 143.562 122.705 140.13 122.705C136.701 122.705 133.921 125.485 133.921 128.917C133.924 132.345 136.704 135.122 140.133 135.125Z" fill="#37474F"/>
<path d="M190.639 133.304C193.063 133.304 195.027 131.34 195.027 128.917C195.027 126.493 193.063 124.529 190.639 124.529C188.215 124.529 186.251 126.493 186.251 128.917C186.251 131.34 188.218 133.301 190.639 133.304Z" fill="#EEEEEE"/>
<path d="M190.639 131.63C192.139 131.63 193.354 130.415 193.354 128.915C193.354 127.414 192.139 126.199 190.639 126.199C189.138 126.199 187.923 127.414 187.923 128.915C187.923 130.415 189.138 131.627 190.639 131.63Z" fill="white"/>
<path d="M140.133 133.304C142.557 133.304 144.521 131.34 144.521 128.917C144.521 126.493 142.557 124.529 140.133 124.529C137.709 124.529 135.745 126.493 135.745 128.917C135.745 131.34 137.712 133.301 140.133 133.304Z" fill="#EEEEEE"/>
<path d="M171.927 126.189C171.927 126.72 172.711 127.151 173.683 127.151C174.656 127.151 175.44 126.72 175.44 126.189C175.44 125.658 174.656 125.227 173.683 125.227C172.711 125.227 171.927 125.658 171.927 126.189Z" fill="#F4991E"/>
<path d="M155.37 126.189C155.37 126.72 156.155 127.151 157.127 127.151C158.099 127.151 158.883 126.72 158.883 126.189C158.883 125.658 158.099 125.227 157.127 125.227C156.155 125.227 155.37 125.658 155.37 126.189Z" fill="#F4991E"/>
<path d="M138.885 131.261C140.207 131.967 141.854 131.465 142.557 130.14C143.263 128.818 142.761 127.172 141.436 126.468C140.113 125.762 138.467 126.264 137.764 127.59C137.061 128.912 137.563 130.558 138.885 131.261Z" fill="white"/>
<path d="M197.823 92.7227C197.47 92.7227 197.182 93.0078 197.182 93.3642C197.182 93.4679 197.208 93.5684 197.253 93.6623C199.272 97.5248 204.062 105.95 205.646 108.726C205.948 109.255 206.58 109.498 207.16 109.306L197.823 92.7227V92.7227Z" fill="#0F3E64"/>
<path d="M207.571 119.05C207.571 119.76 207.775 120.336 208.025 120.336C208.274 120.336 208.479 119.76 208.479 119.05C208.479 118.34 208.274 117.764 208.025 117.764C207.775 117.764 207.571 118.34 207.571 119.05Z" fill="white"/>
<path d="M206.252 118.578C206.252 119.025 206.456 119.388 206.706 119.388C206.955 119.388 207.16 119.025 207.16 118.578C207.16 118.13 206.955 117.768 206.706 117.768C206.456 117.768 206.252 118.13 206.252 118.578Z" fill="white"/>
<path d="M206.706 115.522C206.706 116.073 206.955 116.517 207.263 116.517C207.571 116.517 207.821 116.07 207.821 115.522C207.821 114.974 207.571 114.527 207.263 114.527C206.955 114.527 206.706 114.971 206.706 115.522Z" fill="#F4991E"/>
<path d="M197.736 98.8577C197.421 98.2809 196.754 97.9893 196.106 97.8435C195.798 97.7754 195.493 97.9731 195.425 98.2809C195.415 98.3198 195.412 98.3619 195.412 98.4041V104.587C195.412 104.904 195.668 105.16 195.986 105.16H197.755C198.066 105.16 198.319 104.914 198.329 104.603C198.371 103.297 198.4 100.063 197.736 98.8545V98.8577Z" fill="#E6E7E6"/>
<path d="M196.686 106.758L202.966 107.01L202.444 106.077H197.366C197.227 106.077 197.114 105.964 197.114 105.825V104.049H196.235L196.443 106.521C196.452 106.648 196.556 106.748 196.686 106.754V106.758Z" fill="#E6E7E6"/>
<path d="M202.986 126.189C202.986 126.72 203.773 127.151 204.742 127.151C205.711 127.151 206.498 126.72 206.498 126.189C206.498 125.658 205.714 125.227 204.742 125.227C203.77 125.227 202.986 125.658 202.986 126.189Z" fill="#F4991E"/>
<path d="M185.677 112.788C185.292 112.788 184.977 112.477 184.977 112.091V109.71C184.977 109.324 185.288 109.01 185.677 109.01C186.063 109.01 186.377 109.321 186.377 109.706V112.088C186.377 112.474 186.066 112.788 185.677 112.788Z" fill="#37474F"/>
<path d="M121.437 72.6878C121.437 72.6878 125.391 65.2286 122.481 56.0003C119.571 46.7719 114.713 50.9324 118.054 58.3819C120.063 62.8989 121.214 67.7496 121.441 72.6878H121.437Z" fill="#A8DBE8"/>
<path d="M121.437 72.6871C121.437 72.6871 122.844 63.0602 116.068 58.271C109.291 53.4819 101.404 52.2506 106.394 57.6554C111.385 63.0602 112.927 65.3738 110.769 65.5747C108.611 65.7723 106.248 69.0223 112.73 68.9446C119.218 68.8668 121.434 72.6871 121.434 72.6871H121.437Z" fill="#A8DBE8"/>
<path d="M121.437 72.6873C121.437 72.6873 123.771 59.2919 112.74 49.4155C102.93 40.6278 101.426 51.8522 111.839 58.5142C119.781 63.595 121.437 72.6873 121.437 72.6873V72.6873Z" fill="#0F3E64"/>
<path d="M128.833 70.0762L126.665 81.8968H114.156L111.988 70.0762H128.833Z" fill="#B5E1EA"/>
<path d="M128.829 70.0762L126.661 81.8968H122.312L120.144 70.0762H128.829Z" fill="#88D3E1"/>
<path d="M151.747 81.9414H107.924V117.056H151.747V81.9414Z" fill="#A8DBE8"/>
<path d="M132.663 107.145H127.011V117.057H132.663V107.145Z" fill="#50B9D7"/>
<path d="M132.663 81.9414H127.011V93.344H132.663V81.9414Z" fill="#50B9D7"/>
<path d="M178 92.8086H134.993V117.056H178V92.8086Z" fill="#50B8D4"/>
<path d="M150.344 112.163L145.506 110.482L148.027 103.227L155.283 105.748L153.598 110.589L150.344 112.16V112.163Z" fill="#B5E1EA"/>
<path d="M150.344 112.162C150.344 112.162 151.083 109.878 151.291 109.752C151.498 109.625 153.595 110.588 153.595 110.588L150.341 112.162H150.344Z" fill="#88D3E1"/>
<path d="M153.659 106.855L148.607 105.099C148.487 105.056 148.426 104.927 148.468 104.807C148.51 104.687 148.64 104.625 148.76 104.668L153.812 106.424C153.932 106.466 153.993 106.596 153.951 106.715C153.909 106.835 153.779 106.897 153.659 106.855Z" fill="#FFFBE8"/>
<path d="M150.069 107.228L148.105 106.548C147.985 106.506 147.923 106.376 147.966 106.256C148.008 106.136 148.137 106.075 148.257 106.117L150.221 106.797C150.341 106.839 150.403 106.969 150.36 107.089C150.318 107.209 150.189 107.27 150.069 107.228Z" fill="#FFFBE8"/>
<path d="M134.727 44.084H133.794V61.7954H134.727V44.084Z" fill="#455B65"/>
<path d="M136.717 61.3027H131.801V61.7985H136.717V61.3027Z" fill="#455B65"/>
<path d="M138.551 46.359H129.97L130.252 45.3707L130.404 44.836L132.057 39.0586H136.468L138.12 44.836L138.273 45.3707L138.551 46.359V46.359Z" fill="#0F3E64"/>
<path d="M138.269 45.3667H130.252L130.404 44.832H138.117L138.269 45.3667V45.3667Z" fill="#A8DBE8"/>
<path d="M141.838 58.8125C141.838 58.8125 140.629 61.664 140.823 61.7936C141.018 61.9232 142.962 59.2661 142.962 59.2661L141.838 58.8125V58.8125Z" fill="#455B65"/>
<path d="M161.038 58.8125C161.038 58.8125 162.247 61.664 162.053 61.7936C161.858 61.9232 159.914 59.2661 159.914 59.2661L161.038 58.8125V58.8125Z" fill="#455B65"/>
<path d="M162.571 59.9363H140.369C140.369 59.9363 139.861 52.2017 140.369 51.7318C140.878 51.262 162.082 51.2814 162.571 51.7318C163.061 52.1822 162.571 59.9363 162.571 59.9363Z" fill="#88D3E1"/>
<path d="M139.637 54.5801H141.102C141.364 54.5801 141.578 54.7939 141.578 55.0564V59.9363H139.161V55.0564C139.161 54.7939 139.375 54.5801 139.637 54.5801V54.5801Z" fill="#B5E1EA"/>
<path d="M161.839 54.5801H163.304C163.566 54.5801 163.78 54.7939 163.78 55.0564V59.9363H161.362V55.0564C161.362 54.7939 161.576 54.5801 161.839 54.5801V54.5801Z" fill="#B5E1EA"/>
<path d="M162.571 56.5664H140.369V59.9363H162.571V56.5664Z" fill="#B5E1EA"/>
<path d="M162.837 88.2273C163.307 88.9499 163.864 89.6109 164.496 90.2006C165.698 91.2537 165.154 92.0185 165.096 92.1999C165.037 92.3814 164.464 92.5596 164.464 92.7119C164.464 92.8642 165.579 92.8933 165.728 92.6503C165.877 92.4073 166.061 90.6511 165.912 90.2914C165.763 89.9317 165.251 89.2674 165.4 88.2468C165.498 87.5825 162.837 88.2306 162.837 88.2306V88.2273Z" fill="white"/>
<path d="M160.64 88.2461C160.64 88.2461 159.016 89.6297 159.016 89.9019C159.016 90.1741 160.069 91.3471 160.251 91.4669C160.432 91.5868 160.912 91.2563 160.944 91.1073C160.977 90.9582 160.313 90.7152 160.222 90.5661C160.115 90.4171 160.037 90.2486 159.988 90.0736C159.946 89.8824 161.427 88.9719 161.427 88.9719L160.646 88.2493L160.64 88.2461Z" fill="white"/>
<path d="M159.233 86.9499C159.301 87.1573 159.985 88.7839 160.526 89.176C160.883 89.432 163.291 89.2473 164.995 89.0042C165.264 88.9654 165.514 88.9265 165.734 88.8876C166.065 88.852 166.386 88.7677 166.69 88.6349C166.787 88.5344 166.852 88.408 166.875 88.2719C167.001 87.7341 166.878 86.8235 166.509 86.4088C166.029 85.8676 163.411 86.5902 162.746 86.4379L162.72 86.4314C162.429 86.3342 162.153 86.1949 161.9 86.0167L161.758 85.9227C161.184 85.5371 160.64 85.0835 160.64 85.0835L159.165 84.6914C159.165 84.6914 159.1 86.5643 159.224 86.9466L159.233 86.9499Z" fill="white"/>
<path d="M166.635 86.891C166.635 86.891 167.296 84.5839 166.094 84.2048C164.986 83.8549 163.475 85.7472 164.499 86.5605C165.524 87.3738 166.065 86.6804 166.065 86.6804C166.065 86.6804 165.193 86.1393 165.433 85.7764C165.673 85.4134 166.305 86.4698 166.305 86.4698L166.635 86.891V86.891Z" fill="#F4991E"/>
<path d="M160.795 88.0032C160.795 88.0032 161.939 91.493 161.939 91.9434C161.939 92.3938 161.369 92.4133 161.35 92.5947C161.317 92.8929 162.273 92.9739 162.422 92.7924C162.571 92.6109 162.361 88.7161 162.361 88.7161L160.795 88V88.0032Z" fill="white"/>
<path d="M167.316 92.6551C167.163 92.8949 166.246 92.8171 166.246 92.668C166.246 92.519 166.82 92.3375 166.878 92.1561C166.936 91.9746 167.179 91.3136 165.974 90.2605C165.582 89.9008 165.251 89.4763 164.998 89.0033C164.917 88.8575 164.849 88.7214 164.798 88.6047C164.681 88.352 164.623 88.1835 164.623 88.1835C164.623 88.1835 166.897 87.6553 166.885 88.271C166.885 88.2807 166.885 88.2936 166.881 88.3034C166.745 89.2366 167.293 89.9527 167.504 90.3448C167.523 90.3836 167.539 90.416 167.555 90.4484C167.704 90.8081 167.471 92.4153 167.319 92.6551H167.316Z" fill="white"/>
<path d="M161.09 87.3087C161.032 87.6684 161.006 88.0313 161.019 88.3942C161.074 88.7539 161.382 89.12 161.738 89.0585C162.124 88.9904 162.283 88.5044 162.63 88.3197C162.911 88.2063 163.226 88.2192 163.498 88.3521C163.767 88.4849 164.052 88.5789 164.347 88.6308C164.496 88.6372 164.648 88.6308 164.798 88.6081C164.953 88.5854 165.112 88.5854 165.267 88.6146C165.449 88.6599 165.614 88.7539 165.741 88.89C165.935 89.1071 166.1 89.3469 166.236 89.6028C166.479 90.0111 166.855 90.4486 167.329 90.3902C167.387 90.3838 167.445 90.3676 167.5 90.3449C167.29 89.9528 166.742 89.2399 166.878 88.3035C166.878 88.2938 166.878 88.2808 166.881 88.2711C167.008 87.7332 166.885 86.8227 166.515 86.4079C166.036 85.8668 163.417 86.5894 162.753 86.4371L162.727 86.4306C162.435 86.3334 162.16 86.1941 161.907 86.0158L161.764 85.9219C161.567 85.9867 161.362 86.0288 161.155 86.0515L160.659 86.3723C160.974 86.5699 161.142 86.9361 161.087 87.3055L161.09 87.3087Z" fill="#F4991E"/>
<path d="M159.117 83.7321C159.117 83.7321 160.053 81.9953 160.368 82.0666C160.682 82.1379 160.75 83.6965 160.75 83.6965L159.12 83.7321H159.117Z" fill="#F4991E"/>
<path d="M159.658 83.2134L160.5 83.2782C160.5 83.2782 160.5 82.52 160.332 82.4131C160.163 82.3061 159.658 83.2134 159.658 83.2134V83.2134Z" fill="#F9BF2B"/>
<path d="M161.268 84.3571C161.268 84.3571 162.899 83.803 163.074 84.1853C163.249 84.5677 161.755 85.6435 161.755 85.6435L161.268 84.3571Z" fill="#F4991E"/>
<path d="M162.15 85.4689C162.024 85.6828 161.858 85.874 161.661 86.0327C161.291 86.3179 160.734 86.4799 159.917 86.0943C158.598 85.4689 158.611 84.189 158.877 83.7678C159.007 83.5571 159.182 83.3789 159.392 83.2461C159.8 82.9836 160.319 82.9577 160.753 83.178C161.829 83.7321 162.367 85.1222 162.153 85.4689H162.15Z" fill="white"/>
<path d="M161.959 84.3504L162.108 85.0665C162.108 85.0665 162.95 84.4962 162.908 84.3082C162.866 84.1203 161.959 84.3504 161.959 84.3504Z" fill="#F9BF2B"/>
<path d="M160.624 85.1185C160.539 85.3032 160.319 85.3842 160.138 85.2967C159.956 85.2092 159.872 84.9921 159.959 84.8106C160.047 84.6292 160.264 84.5449 160.445 84.6324C160.475 84.6454 160.5 84.6616 160.523 84.681C160.669 84.775 160.714 84.9694 160.627 85.1217L160.624 85.1185Z" fill="#37474F"/>
<path d="M161.479 84.7748C161.541 84.8558 161.528 84.9692 161.447 85.034C161.366 85.0956 161.252 85.0826 161.187 85.0016C161.126 84.9206 161.139 84.8072 161.22 84.7424C161.233 84.7327 161.246 84.7262 161.259 84.7197C161.333 84.6743 161.431 84.7003 161.479 84.7748Z" fill="#37474F"/>
<path d="M160.523 83.7909C160.62 83.8168 160.682 83.9173 160.656 84.0145C160.63 84.1117 160.53 84.1733 160.432 84.1473C160.335 84.1214 160.274 84.021 160.3 83.9237C160.303 83.9075 160.309 83.8946 160.316 83.8816C160.348 83.8006 160.442 83.7617 160.523 83.7909V83.7909Z" fill="#37474F"/>
<path d="M162.15 85.4689C162.024 85.6828 161.858 85.874 161.661 86.0327C161.463 85.9485 161.34 85.7508 161.35 85.537C161.392 85.375 161.469 85.2227 161.576 85.093C161.683 84.9602 161.706 84.7755 161.635 84.62C161.508 84.4255 161.181 84.4482 161.071 84.2441C160.987 84.0886 161.087 83.8909 161.042 83.7224C160.974 83.541 160.792 83.4243 160.601 83.4437C160.361 83.4988 160.115 83.5345 159.869 83.5507C159.668 83.5377 159.486 83.4211 159.389 83.2461C159.797 82.9836 160.316 82.9577 160.75 83.178C161.826 83.7321 162.361 85.1222 162.147 85.4689H162.15Z" fill="#F4991E"/>
<path d="M109.142 108.275H102.003C101.527 108.275 101.144 107.889 101.141 107.413C101.141 106.936 101.527 106.554 102.003 106.551H109.142C109.619 106.551 110.001 106.936 110.004 107.413C110.004 107.889 109.619 108.271 109.142 108.275V108.275Z" fill="#A8DBE8"/>
<path d="M112.017 63.7942H104.878C104.401 63.7942 104.019 63.4086 104.016 62.9322C104.016 62.4559 104.401 62.0736 104.878 62.0703H112.017C112.493 62.0703 112.876 62.4559 112.879 62.9322C112.879 63.4086 112.493 63.7909 112.017 63.7942V63.7942Z" fill="#A8DBE8"/>
<path d="M102.486 57.882H88.2563C87.7799 57.882 87.3975 57.4964 87.3943 57.0201C87.3943 56.5438 87.7799 56.1614 88.2563 56.1582H102.486C102.962 56.1582 103.345 56.5438 103.348 57.0201C103.348 57.4964 102.962 57.8788 102.486 57.882Z" fill="#A8DBE8"/>
<path d="M88.2951 53.0559H74.0654C73.589 53.0559 73.2066 52.6703 73.2034 52.194C73.2034 51.7176 73.589 51.3353 74.0654 51.332H88.2951C88.7715 51.332 89.1539 51.7176 89.1572 52.194C89.1572 52.6703 88.7715 53.0526 88.2951 53.0559Z" fill="#A8DBE8"/>
<path d="M132.686 105.134H125.547C125.07 105.134 124.688 104.748 124.685 104.272C124.685 103.796 125.07 103.413 125.547 103.41H132.686C133.162 103.41 133.545 103.796 133.548 104.272C133.548 104.748 133.162 105.131 132.686 105.134V105.134Z" fill="#50B8D4"/>
<path d="M137.868 98.2942H130.728C130.252 98.2942 129.87 97.9086 129.866 97.4322C129.866 96.9559 130.252 96.5736 130.728 96.5703H137.868C138.344 96.5703 138.726 96.9559 138.73 97.4322C138.73 97.9086 138.344 98.2909 137.868 98.2942V98.2942Z" fill="#50B8D4"/>
<path d="M102.117 102.114H81.9759C81.4995 102.114 81.1171 101.729 81.1139 101.253C81.1139 100.776 81.4995 100.394 81.9759 100.391H102.117C102.593 100.391 102.975 100.776 102.979 101.253C102.979 101.729 102.593 102.111 102.117 102.114Z" fill="#A8DBE8"/>
<path d="M104.46 95.9543H92.3914C91.915 95.9543 91.5326 95.5687 91.5294 95.0924C91.5294 94.6161 91.915 94.2337 92.3914 94.2305H104.46C104.936 94.2305 105.318 94.6161 105.322 95.0924C105.322 95.5687 104.936 95.9511 104.46 95.9543Z" fill="#A8DBE8"/>
<path d="M80.3361 107.591H68.2679C67.7915 107.591 67.4091 107.205 67.4059 106.729C67.4059 106.253 67.7915 105.87 68.2679 105.867H80.3361C80.8125 105.867 81.1949 106.253 81.1982 106.729C81.1982 107.205 80.8125 107.588 80.3361 107.591Z" fill="#A8DBE8"/>
<path d="M216.846 79.9348H204.778C204.301 79.9348 203.919 79.5492 203.916 79.0729C203.916 78.5965 204.301 78.2142 204.778 78.2109H216.846C217.322 78.2109 217.705 78.5965 217.708 79.0729C217.708 79.5492 217.322 79.9315 216.846 79.9348Z" fill="#88D3E1"/>
<path d="M196.277 79.9348H184.209C183.733 79.9348 183.35 79.5492 183.347 79.0729C183.347 78.5965 183.733 78.2142 184.209 78.2109H196.277C196.754 78.2109 197.136 78.5965 197.139 79.0729C197.139 79.5492 196.754 79.9315 196.277 79.9348Z" fill="#88D3E1"/>
<path d="M139.365 71.8629C137.356 71.594 136.102 73.415 135.087 73.7909C133.917 74.2251 133.396 73.091 132.433 72.6957C131.315 72.2388 130.706 72.7054 129.863 73.3632C129.617 73.6094 129.26 73.7066 128.923 73.6192C128.586 73.5122 128.285 73.3113 128.058 73.0392C127.958 72.9225 127.974 72.7994 127.789 72.8026C127.572 72.8058 127.481 73.078 127.494 73.253C127.536 73.7164 127.76 74.1473 128.113 74.4487C128.7 74.8861 129.377 75.181 130.093 75.3138C130.81 75.4467 131.493 75.7254 132.099 76.1304C132.916 76.772 133.496 77.8445 134.53 78.1783C135.781 78.5801 136.659 77.3293 137.894 77.4654C138.474 77.5302 139.073 77.6987 139.631 77.5237C140 77.4427 140.308 77.1802 140.444 76.8271C140.574 76.3475 140.48 76.0494 140.898 75.6411C141.569 74.9866 142.353 74.1571 141.97 73.104C141.633 72.1805 140.191 71.9731 139.362 71.8597L139.365 71.8629Z" fill="#F4991E"/>
<path d="M124.338 81.1471C124.338 81.1471 124.843 79.9968 125.041 79.4751C125.404 78.5128 125.968 74.3717 125.968 74.3717L125.025 74.0703C124.348 76.9185 123.414 79.3423 122.666 80.5055L124.338 81.1504V81.1471Z" fill="#37474F"/>
<path d="M125.968 74.3678C125.968 74.3678 126.441 73.8105 126.396 73.4249C126.35 73.0393 123.1 70.6706 124.15 72.0672C125.048 73.2596 125.022 74.0697 125.022 74.0697L125.965 74.371L125.968 74.3678Z" fill="#37474F"/>
<path d="M143.072 80.4014C143.364 80.3074 143.668 80.2718 143.973 80.3009C144.274 80.3884 144.501 81.5452 144.174 81.5452C143.792 81.4901 143.416 81.3962 143.053 81.2601L143.072 80.4014Z" fill="white"/>
<path d="M138.023 76.6855C138.023 76.6855 139.796 80.1041 140.139 80.3179C140.483 80.5318 143.072 80.4022 143.072 80.4022C143.169 80.6808 143.16 80.9854 143.053 81.2608C143.053 81.2608 139.757 81.6043 139.141 81.4326C138.526 81.2608 136.698 78.7885 136.698 78.7885L138.026 76.6855H138.023Z" fill="#88D3E1"/>
<path d="M139.096 73.5067C138.775 73.5585 138.483 73.9344 138.283 74.0284C138.234 73.8534 138.078 73.7303 137.897 73.7303C137.654 73.7789 137.498 74.0154 137.55 74.2584C137.55 74.2649 137.55 74.2714 137.553 74.2779C137.725 75.2111 137.641 75.4476 136.925 75.749C136.387 75.9758 137.544 76.9025 137.936 76.8183C138.133 76.7761 138.075 76.2836 138.276 76.2512C138.477 76.2188 138.756 76.6044 139.057 76.6271C139.358 76.6498 140.768 74.6829 140.83 74.3006C140.891 73.9182 139.789 73.403 139.099 73.5132L139.096 73.5067Z" fill="white"/>
<path d="M131.568 79.474C130.865 79.2116 130.129 79.0496 129.38 78.9848C128.398 78.9524 124.908 80.6114 124.49 80.0411C123.038 78.0678 118.385 76.0977 118.385 76.0977L117.818 76.7716C119.584 77.8798 123.34 81.8589 123.699 81.9496C124.296 82.1019 132.103 82.089 132.103 82.089L131.568 79.4708V79.474Z" fill="#455B65"/>
<path d="M118.385 76.099C118.385 76.099 117.889 75.25 117.562 75.357C115.847 75.9111 114.7 78.3316 115.488 77.7321C116.275 77.1327 117.818 76.773 117.818 76.773L118.385 76.099Z" fill="#455B65"/>
<path d="M141.598 80.4004C141.863 80.2902 142.152 80.2449 142.44 80.2708C142.742 80.355 143.241 81.5151 142.913 81.5151C142.499 81.4665 142.087 81.3854 141.685 81.272L141.601 80.4004H141.598Z" fill="white"/>
<path d="M140.856 81.9181H144.803L147.677 77.5437L147.421 77.4141L144.718 81.4904L140.859 81.4482V81.9213L140.856 81.9181Z" fill="#E0F2F7"/>
<path d="M138.023 76.6844C138.14 77.1251 137.531 79.9214 137.359 80.2228C137.187 80.5241 136.14 80.2228 135.858 80.5014C134.919 81.4282 133.392 82.2188 132.106 82.0892C130.819 81.9596 130.281 79.2572 130.968 79.2799C131.655 79.3025 133.007 79.4937 133.499 79.1729C133.992 78.8521 136.179 75.5276 137.08 75.7836C137.537 75.884 137.903 76.2307 138.023 76.6844V76.6844Z" fill="#B5E1EA"/>
<path d="M138.001 76.9629L136.306 78.6997C136.306 78.6997 137.142 81.927 137.806 81.927C138.47 81.927 141.682 81.2725 141.682 81.2725C141.805 80.9873 141.773 80.6568 141.594 80.4008C141.594 80.4008 139.157 80.6503 138.772 80.5013C138.386 80.3522 138.001 76.9629 138.001 76.9629V76.9629Z" fill="#B5E1EA"/>
<path d="M144.044 80.347C144.044 80.347 144.702 80.859 144.744 81.0307C144.786 81.2024 144.116 80.9076 144.116 80.9076L144.044 80.3438V80.347Z" fill="white"/>
<path d="M209.972 67.4398C209.872 67.4398 209.775 67.4009 209.703 67.3329L207.302 65.0614L204.901 67.3329C204.742 67.4819 204.496 67.4755 204.347 67.3167C204.198 67.1579 204.204 66.9116 204.363 66.7626L207.302 63.9824L210.241 66.7626C210.4 66.9116 210.407 67.1579 210.258 67.3167C210.183 67.3945 210.079 67.4398 209.972 67.4398V67.4398Z" fill="white"/>
<path d="M209.972 70.3402C209.872 70.3402 209.775 70.3013 209.703 70.2333L207.302 67.9618L204.901 70.2333C204.742 70.3823 204.496 70.3758 204.347 70.2171C204.198 70.0583 204.204 69.812 204.363 69.663L207.302 66.8828L210.241 69.663C210.4 69.812 210.407 70.0583 210.258 70.2171C210.183 70.2948 210.079 70.3402 209.972 70.3402V70.3402Z" fill="white"/>
<path d="M209.972 73.2406C209.872 73.2406 209.775 73.2017 209.703 73.1337L207.302 70.8622L204.901 73.1337C204.742 73.2827 204.496 73.2762 204.347 73.1175C204.198 72.9587 204.204 72.7124 204.363 72.5634L207.302 69.7832L210.241 72.5634C210.4 72.7124 210.407 72.9587 210.258 73.1175C210.183 73.1952 210.079 73.2406 209.972 73.2406V73.2406Z" fill="white"/>
<path d="M207.668 51.8474H198.957C198.666 51.8474 198.429 51.6108 198.429 51.3192C198.429 51.0276 198.666 50.791 198.957 50.791H207.668C207.96 50.791 208.197 51.0276 208.197 51.3192C208.197 51.6108 207.96 51.8474 207.668 51.8474Z" fill="white"/>
<path d="M198.957 48.3281H203.65C203.942 48.3281 204.178 48.5647 204.178 48.8563C204.178 49.1479 203.942 49.3845 203.65 49.3845H198.957C198.666 49.3845 198.429 49.1479 198.429 48.8563C198.429 48.5647 198.666 48.3281 198.957 48.3281Z" fill="white"/>
<path d="M157.694 43.8727C156.897 43.8727 156.485 43.3737 156.151 42.9751C155.811 42.5636 155.578 42.3141 155.111 42.3141C154.645 42.3141 154.411 42.5668 154.071 42.9751C153.74 43.3737 153.329 43.8727 152.528 43.8727C151.728 43.8727 151.32 43.3737 150.986 42.9751C150.646 42.5636 150.412 42.3141 149.946 42.3141C149.479 42.3141 149.246 42.5668 148.905 42.9751C148.575 43.3737 148.163 43.8727 147.363 43.8727C146.562 43.8727 146.154 43.3737 145.82 42.9751C145.48 42.5636 145.247 42.3141 144.78 42.3141C144.602 42.3141 144.456 42.1683 144.456 41.99C144.456 41.8118 144.602 41.666 144.78 41.666C145.577 41.666 145.989 42.165 146.323 42.5636C146.663 42.9751 146.893 43.2246 147.363 43.2246C147.833 43.2246 148.063 42.9719 148.403 42.5636C148.734 42.165 149.145 41.666 149.946 41.666C150.746 41.666 151.154 42.165 151.488 42.5636C151.828 42.9751 152.059 43.2246 152.528 43.2246C152.998 43.2246 153.228 42.9719 153.569 42.5636C153.899 42.165 154.311 41.666 155.111 41.666C155.912 41.666 156.32 42.165 156.654 42.5636C156.994 42.9751 157.227 43.2246 157.694 43.2246C157.872 43.2246 158.018 43.3704 158.018 43.5486C158.018 43.7268 157.872 43.8727 157.694 43.8727Z" fill="white"/>
<path d="M157.694 46.818C156.897 46.818 156.485 46.319 156.151 45.9204C155.811 45.5089 155.578 45.2594 155.111 45.2594C154.645 45.2594 154.411 45.5121 154.071 45.9204C153.74 46.319 153.329 46.818 152.528 46.818C151.728 46.818 151.32 46.319 150.986 45.9204C150.646 45.5089 150.412 45.2594 149.946 45.2594C149.479 45.2594 149.246 45.5121 148.905 45.9204C148.575 46.319 148.163 46.818 147.363 46.818C146.562 46.818 146.154 46.319 145.82 45.9204C145.48 45.5089 145.247 45.2594 144.78 45.2594C144.602 45.2594 144.456 45.1136 144.456 44.9354C144.456 44.7571 144.602 44.6113 144.78 44.6113C145.577 44.6113 145.989 45.1103 146.323 45.5089C146.663 45.9204 146.893 46.1699 147.363 46.1699C147.833 46.1699 148.063 45.9172 148.403 45.5089C148.734 45.1103 149.145 44.6113 149.946 44.6113C150.746 44.6113 151.154 45.1103 151.488 45.5089C151.828 45.9204 152.059 46.1699 152.528 46.1699C152.998 46.1699 153.228 45.9172 153.569 45.5089C153.899 45.1103 154.311 44.6113 155.111 44.6113C155.912 44.6113 156.32 45.1103 156.654 45.5089C156.994 45.9204 157.227 46.1699 157.694 46.1699C157.872 46.1699 158.018 46.3157 158.018 46.4939C158.018 46.6722 157.872 46.818 157.694 46.818Z" fill="white"/>
<path d="M115.52 39.7203L119.321 41.9139C119.655 42.1051 119.769 42.5328 119.577 42.8633C119.516 42.9703 119.428 43.0578 119.321 43.1193L115.52 45.313C115.186 45.5042 114.762 45.3908 114.57 45.057C114.509 44.9501 114.477 44.8302 114.477 44.7103V40.3197C114.477 39.9341 114.788 39.623 115.173 39.623C115.296 39.623 115.416 39.6555 115.52 39.717V39.7203Z" fill="white"/>
<path d="M100.688 84.1531L104.022 83.3236C104.314 83.2491 104.609 83.4273 104.683 83.7189C104.706 83.8129 104.706 83.9101 104.677 84.0041L103.727 87.3092C103.643 87.5976 103.342 87.766 103.053 87.6818C102.962 87.6559 102.878 87.604 102.813 87.536L100.428 85.0636C100.218 84.8465 100.224 84.5031 100.438 84.2925C100.506 84.2244 100.594 84.1758 100.688 84.1531Z" fill="white"/>
<path d="M161.447 70.7123C167.617 68.9625 168.113 77.0535 158.216 76.7522C152.535 68.6612 159.535 64.9737 161.447 70.7123V70.7123Z" fill="#F4991E"/>
</g>
<defs>
<clipPath id="clip0_36367_9009">
<rect width="261" height="145" fill="white"/>
</clipPath>
</defs>
</svg>
