<svg fill="none" viewBox="0 -.07 205.62 180.07" xmlns="http://www.w3.org/2000/svg" xmlns:xlink="http://www.w3.org/1999/xlink"><linearGradient id="a"><stop offset="0" stop-color="#fff"/><stop offset="1" stop-color="#4fc7eb"/></linearGradient><linearGradient id="b" gradientUnits="userSpaceOnUse" x1="16.2632" x2="151.156" xlink:href="#a" y1="72.8023" y2="72.8023"/><linearGradient id="c" gradientUnits="userSpaceOnUse" x1="24.6031" x2="159.496" xlink:href="#a" y1="81.1199" y2="81.1199"/><linearGradient id="d" gradientUnits="userSpaceOnUse" x1="198.404" x2="112.439" xlink:href="#a" y1="157.068" y2="192.12"/><clipPath id="e"><path d="m0 0h249v180h-249z"/></clipPath><g clip-path="url(#e)"><path d="m41.7725 10.9011c.3296-.2986 52.1853-31.6993 96.2785 13.7399 0 0 29.49 29.2845 0 49.0441 0 0-24.287 10.2433-22.118 27.9859 2.168 17.743-13.445 36.404-13.445 36.404s-39.0312 15.96-58.547 1.246-23.8527-33.755-24.7201-35.919c-.8673-2.163-13.87787-59.5034 22.5516-92.5009z" fill="url(#b)" opacity=".38" stroke="#fff" stroke-miterlimit="10" stroke-width=".24"/><path d="m50.1124 19.2187c.3296-.2986 52.1856-31.6993 96.2776 13.74 0 0 29.491 29.2845 0 49.044 0 0-24.286 10.2433-22.118 27.9863 2.169 17.743-13.444 36.403-13.444 36.403s-39.0314 15.96-58.5472 1.247c-19.5158-14.714-23.8527-33.755-24.72-35.919-.8674-2.164-13.8779-59.5038 22.5516-92.5013z" fill="url(#c)" opacity=".38" stroke="#fff" stroke-miterlimit="10" stroke-width=".24"/><path d="m99.3833 62.0743c.8677-.7227 6.3617-10.3861 6.3617-10.3861l8.531 4.3276-3.179 6.0585h-11.7094z" fill="#4686c6"/><path d="m106.179 53.7092-1.592 3.1721 5.781 3.0293 1.883-3.1028z" fill="#fff"/><g opacity=".38"><path d="m192.799 144.164c-19.221 7.335-87.535 30.401-87.535 30.401l1.799 4.409 98.438-4.461" fill="url(#d)"/><path d="m192.799 144.164c-19.221 7.335-87.535 30.401-87.535 30.401l1.799 4.409 98.438-4.461" stroke="#fff" stroke-miterlimit="10" stroke-width=".24"/></g><path d="m122.607 133.695-1.444 5.626 3.326 13.558s1.735 3.172 3.613 3.172l1.734-18.175s.868-4.185-3.179-4.185h-4.046z" fill="#004c76"/><path d="m114.662 130.666 8.24 3.246s2.169 3.029-1.735 5.409l-8.673-3.246z" fill="#fff" stroke="#35434c" stroke-miterlimit="10" stroke-width="1.47"/><path d="m72.5209 83.7683 25.5874 3.462-7.8063 31.5907s14.745 7.357 26.238 11.036l-2.169 8.655s-25.1532-2.38-50.5238-14.065c0 0-8.4568-2.813-4.3368-13.307z" fill="#67cbe5"/><path d="m110.178 162.11-3.47 5.119s-1.301 7.145-6.362 9.019c-5.0612 1.874-1.5917 3.752-1.5917 3.752l10.1177-1.298 5.929-10.096s2.892-2.307-4.628-6.492z" fill="#004c76"/><path d="m147.57 31.0458-13.353 26.7053 33.884-7.6641z" fill="#004c76" opacity=".15"/><path d="m29.7158 95.522 4.6621 9.594 4.467-8.8237z" fill="#004c76" opacity=".15"/><path d="m107.94 159.228 2.385 3.029s1.301 6.708-3.469 4.544l-3.687-5.842z" fill="#fff" stroke="#35434c" stroke-miterlimit="10" stroke-width="1.47"/><path d="m75.4136 84.4651s14.0947 4.3275 30.3574 2.1638c0 0-.65 11.0352-9.1069 21.8541 0 0-2.6021 22.503 14.7449 49.983l-8.673 4.76s-20.6003-17.31-23.2024-39.38z" fill="#4686c6"/><path d="m73.488 66.4711s.1431 9.3778-.5768 12.1171c-.7242 2.7394-2.0253 5.4831 1.3011 6.3486 0 0 5.781 1.8738 11.7095 1.2982 5.9284-.5755 15.3222-.7227 15.3222-.7227l-5.4949-47.4602s-2.6021-3.6048-9.1074-3.462c0 0-1.158 12.5499-6.0716 12.8398 0 0-4.1937 1.8738-6.7958-8.6551 0 0-4.3369 3.3192-6.2147 7.6468-1.8779 4.3275-7.9495 11.3944-7.9495 11.3944s-9.2505 12.26-21.5411 4.9031l-7.8063 4.3276 9.3979 5.193s8.24 4.7603 19.3727 1.7311c0 0 10.5516-4.1848 14.4547-7.4997z" fill="#004c76"/><path d="m72.7681 53.2029s-2.8059 20.6727-29.1045 20.6424c0 0 12.334 6.0629 29.8288-7.3698z" fill="#4686c6"/><path d="m73.4878 33.9453c-.0738.5409 0 7.3568 0 7.3568l3.8294 7.7896h5.6379l5.1088-14.0342s-6.3578.4024-7.3033-4.2497l2.9491-5.5176-2.9491-8.7633-5.395-5.193-10.6253 5.9503.4858 1.3113-1.21-3.4707s-1.4095.7573 0 0 4.5537 13.4154 4.5537 13.4154l4.9136 5.4094z" fill="#fff" stroke="#35434c" stroke-miterlimit="10" stroke-width="1.47"/><path d="m1.22754 37.5329v24.126l18.97366 11.1435 25.6959-14.4973v-1.2983l-18.6485-11.9007.2169-21.8541z" fill="#004c76"/><path d="m3.36523 37.9309v19.5821l22.22637-12.4417v-18.6084z" fill="#e6e7e8"/><path d="m1.17529 60.5165 19.08211 10.927 25.6958-14.4973-18.7048-11.8401z" fill="#4686c6"/><path d="m6.45312 59.0234c.29057-.1428 19.80638-11.9007 19.80638-11.9007l6.7958 4.0376-20.24 12.1171z" fill="#004c76"/><g fill="#fff"><path d="m20.3311 60.6116 9.1811-5.4095 4.7705 2.7048-9.4717 6.0239z"/><path d="m18.2319 58.5691c.2602.2293.6375.2639.9368.0822l6.5226-3.9294c.4814-.29.5161-.9694.0694-1.3069l-.1475-.1126c-.2645-.199-.6245-.2163-.9064-.0389l-6.3751 4.0419c-.4467.2813-.4944.9131-.0998 1.2637z"/><path d="m7.46387 39.9822v9.1398l14.60213-8.4171v-8.5815l-14.60213 7.8632z"/></g><path d="m27.4652 23.252h-1.3877l-26.0775 13.688v24.2343l1.87785.8655-.26888-1.5233-.38164-22.9836z" fill="#004c76"/><path d="m80.3836 24.9051c.5557 0 1.0061-.4495 1.0061-1.004s-.4504-1.004-1.0061-1.004-1.0062.4495-1.0062 1.004.4505 1.004 1.0062 1.004z" fill="#e6e7e8"/><g stroke-miterlimit="10" stroke-width="1.47"><g stroke="#004c76"><path d="m4.39746 68.7344c-.13011.2813-1.47453 51.3466 50.30744 49.8666"/><path d="m135.952 145.951s30.609 7.478 53.148-20.214"/><path d="m136.446 141.446s18.64 3.462 29.56-18.353"/></g><path d="m69.6499 30.4962c.1084.541 6.3968 23.0442 6.3968 23.0442" stroke="#e6e7e8"/></g><path d="m81.4936 33.8371 4.6622-9.0879s2.8709-8.0059-1.4095-10.8188l-2.6542-1.731s-1.1926-.541-1.1926-1.783c0 0 .052-1.40645-.9194-2.48833 0 0-2.5501-2.81291-6.3405-2.76098 0 0-6.5963.05193-7.88 3.51397 0 0-.5768 1.46274-2.5284 1.46274s-3.8511 1.19-3.8511 1.19-2.0037 1.6791-.3253 5.1931l2.7105.9174 1.8996 1.1901s.5985 1.0819 2.6541.8655c2.06-.2163 2.5501-1.6228 2.5501-1.6228s1.301-2.272 3.8771-2.272 3.2266 1.1339 3.2266 1.1339 2.1685 3.0292.2169 8.8195c0 0-.2169 1.6791-2.871 1.2983-2.6542-.3809-4.7185 0-4.879.0519-.1604.0519-.6548 1.6228-.6548 1.6228l.8717 3.1375s1.8995 3.0812 3.7383 3.0293c1.8389-.052 2.5501-.2164 2.7106-.2683.1604-.052 2.9837-1.2464 3.2526-4.2194 0 0 .052-6.4913.8674-7.3049.8153-.8136 1.3531-.9737 1.3531-.9737s1.6827-.3246 1.4658 1.731c-.2168 2.0556-1.4658 3.8429-1.4658 3.8429s-2.047 4.0592.9194 6.3269z" fill="#fbb11f"/><path d="m90.5794 68.7344c5.0754 0 9.1898-4.1055 9.1898-9.17s-4.1144-9.1701-9.1898-9.1701c-5.0753 0-9.1898 4.1056-9.1898 9.1701s4.1145 9.17 9.1898 9.17z" fill="#fbb11f"/><path d="m79.3427 64.6709v21.9623c0 1.4151 1.1493 2.5619 2.5674 2.5619h29.1999c1.418 0 2.567-1.1468 2.567-2.5619v-21.9623h.556c.928 0 1.682-.753 1.682-1.6791s-.754-1.6791-1.682-1.6791h-35.2329c-.9281 0-1.6827.753-1.6827 1.6791 0 .9218.7459 1.6705 1.6653 1.6791h.3557z" fill="#fff"/><path d="m84.8719 81.3666c-.1431-.0346-5.3126-1.8046-9.0336-3.9294-3.721-2.1292-3.4695-4.3622-3.5042-4.5093-.0347-.1472-1.0755-2.7653 2.7452-4.0376.4337-.1429 5.2042-2.8865 5.2042-2.8865l4.5884 8.6205z" fill="#fff" stroke="#35434c" stroke-miterlimit="10" stroke-width="1.47"/><path d="m93.4202 73.4342s-2.7106-1.2983-5.9632-1.2464c0 0-2.8189-.0519-2.9837 2.7047-.1649 2.7567-.7026 5.0849-.7026 5.0849s-.5421 2.2157 1.6263 3.1937c0 0 4.9874 2.9211 11.2758 4.003 0 0 5.0962.2164 6.6132-2.3282 0 0 2.711-4.8122 2.767-13.5236 0 0 .469-19.7423-4.805-26.8827 0 0-5.6507-8.0752-9.1159-8.9191-3.4651-.8439-5.755 5.4051-5.755 5.4051s.4858 19.5822 7.0474 32.5086z" fill="#004c76"/><path d="m80.1665 23.3557s-1.301 16.1201-3.6863 27.5881 5.8547 22.7197 5.8547 22.7197 3.2527 7.7895 4.2285 12.4417c.9757 4.6521 7.481 6.0585 11.4926 5.4094" stroke="#e6e7e8" stroke-miterlimit="10" stroke-width="1.47"/></g></svg>