<svg viewBox="99.969 87.716 280 219" xmlns="http://www.w3.org/2000/svg"><clipPath id="a"><path d="M0 0h280v219H0z"/></clipPath><g clip-path="url(#a)" transform="translate(99.969 87.716)"><path d="M279.958 0 280 219l-280-.288s5.005-5.119 29.84-16.891c13.489-6.954 9.58-36.055 9.58-36.055s-6.167-33.981 20.924-35.777c12.914-1.052 21.341-.283 25.899-.604 2.674-.198 20.668-.188 20.989-26.754.32-26.565 4.025-41.462 23.95-49.722 19.924-8.26 47.358-1.287 58.54 5.115 15.424 5.393 7.072 1.193 37.274 8.764C236.643 1.5 279.958 0 279.958 0z" fill="#074c75"/><path d="M38.376 134.397a1.926 1.926 0 1 1 3.85 0 1.926 1.926 0 0 1-1.925 1.928 1.954 1.954 0 0 1-1.925-1.928zM129.543 116.413a1.926 1.926 0 1 1 3.851 0 1.926 1.926 0 0 1-1.925 1.928 1.954 1.954 0 0 1-1.926-1.928zM209.572 56.676a1.926 1.926 0 1 1 3.851 0 1.927 1.927 0 0 1-1.926 1.928 1.954 1.954 0 0 1-1.925-1.928zM196.422 166.676a1.926 1.926 0 1 1 3.851 0 1.925 1.925 0 0 1-1.926 1.928 1.953 1.953 0 0 1-1.925-1.928zM45.833 145.481a1.926 1.926 0 1 1 3.852 0 1.926 1.926 0 0 1-1.926 1.928 1.853 1.853 0 0 1-1.926-1.777v-.151z" fill="#fff"/><path d="M87.928 152.141c0-.797.645-1.448 1.446-1.448s1.445.646 1.445 1.448c0 .796-.645 1.447-1.445 1.447-.796 0-1.44-.641-1.446-1.433v-.01zM228.734 91.203c0-.797.645-1.447 1.445-1.447s1.445.646 1.445 1.447c0 .802-.645 1.447-1.445 1.447a1.349 1.349 0 0 1-1.445-1.447zM178.861 193.49c0-.796.645-1.447 1.445-1.447s1.445.646 1.445 1.447c0 .802-.645 1.448-1.445 1.448a1.44 1.44 0 0 1-1.445-1.434v-.014z" fill="#f8c233"/><g fill="#fff"><path d="M171.403 113.762c0-.797.645-1.448 1.445-1.448.801 0 1.446.646 1.446 1.448 0 .801-.645 1.447-1.446 1.447a1.44 1.44 0 0 1-1.445-1.433v-.014zM260.085 19.904c0-.796.645-1.447 1.445-1.447s1.445.646 1.445 1.447c0 .802-.645 1.448-1.445 1.448a1.443 1.443 0 0 1-1.445-1.434v-.009zM275.4 32.19c0-.797.645-1.448 1.446-1.448.8 0 1.445.646 1.445 1.448s-.645 1.447-1.445 1.447a1.444 1.444 0 0 1-1.446-1.433v-.01zM133.395 65.59c3.851-.801 4.251-1.447 4.811-7.067.56 5.62.961 6.261 4.812 7.067-3.851.802-4.252 1.447-4.812 6.987-.56-5.54-.96-6.18-4.811-6.987zM240.683 45.838c3.851-.801 4.251-1.447 4.811-6.986.561 5.62.961 6.26 4.812 6.986-3.851.802-4.251 1.447-4.812 7.067-.56-5.62-1.04-6.26-4.811-7.067zM163.225 189.479c3.851-.802 4.251-1.447 4.812-6.987.56 5.62.96 6.261 4.811 6.987-3.851.801-4.251 1.447-4.811 7.067-.561-5.62-.961-6.261-4.812-7.067zM70.447 149.733c1.686-.24 1.846-.401 2.086-2.088.24 1.687.4 1.848 2.086 2.088-1.686.24-1.846.401-2.086 2.088-.24-1.687-.4-1.848-2.086-2.088zM47.919 191.167c1.685-.241 1.846-.401 2.086-2.089.24 1.688.4 1.848 2.085 2.089-1.685.24-1.845.4-2.085 2.088-.24-1.688-.4-1.848-2.086-2.088zM36.69 211.155c1.686-.241 1.846-.401 2.086-2.089.24 1.688.4 1.848 2.086 2.089-1.686.24-1.846.401-2.086 2.088-.24-1.607-.4-1.848-2.086-2.088zM215.184 122.356c1.685-.24 1.845-.401 2.085-2.088.24 1.687.4 1.848 2.086 2.088-1.686.24-1.846.401-2.086 2.088-.24-1.607-.4-1.848-2.085-2.088zM171.563 204.254c1.686-.24 1.846-.4 2.086-2.088.24 1.688.4 1.848 2.085 2.088-1.685.241-1.845.401-2.085 2.089-.16-1.608-.4-1.848-2.086-2.089zM265.702 103.725c3.851-.802 4.251-1.447 4.811-6.987.56 5.62.961 6.261 4.812 6.987-3.851.801-4.252 1.447-4.812 6.987-.56-5.54-1.04-6.181-4.811-6.987zM274.04 118.501c1.685-.241 1.845-.401 2.085-2.089.24 1.688.4 1.848 2.086 2.089-1.686.24-1.846.4-2.086 2.088-.24-1.688-.4-1.848-2.085-2.088zM163.865 52.178c1.686-.24 1.846-.4 2.086-2.088.24 1.688.4 1.848 2.086 2.088-1.686.24-1.846.401-2.086 2.089-.24-1.688-.4-1.848-2.086-2.089zM107.015 182.171a1.555 1.555 0 0 1 .979 1.961l-.014.048a1.611 1.611 0 0 1-2.005.961 1.577 1.577 0 0 1-.942-2.017 1.57 1.57 0 0 1 1.982-.953zM114.228 170.693c.598.198.923.849.72 1.447a1.142 1.142 0 1 1-2.166-.726 1.077 1.077 0 0 1 1.441-.721zM97.632 178.236c.81.273 1.247 1.15.98 1.961a1.612 1.612 0 0 1-2.02 1.009 1.555 1.555 0 0 1-.966-2.008 1.46 1.46 0 0 1 2.006-.962zM134.115 191.968c.598.198.923.848.72 1.447a1.143 1.143 0 1 1-2.166-.726 1.25 1.25 0 0 1 1.446-.721zM113.427 158.648a1.614 1.614 0 0 1 .961 2.008 1.57 1.57 0 0 1-1.992.985 1.573 1.573 0 0 1-.984-1.994c0-.009.01-.024.014-.033a1.65 1.65 0 0 1 2.006-.962zM100.838 195.179a1.614 1.614 0 0 1 .96 2.008 1.577 1.577 0 0 1-2.005.962 1.556 1.556 0 0 1-.98-1.961l.015-.048a1.578 1.578 0 0 1 2.005-.961zM89.294 204.814a.887.887 0 1 1-1.12.562.868.868 0 0 1 1.082-.576c.014 0 .028.01.038.014z"/><path d="m106.555 183.36-.156.454 27.291 9.415.156-.454z"/><path d="m106.263 183.504-6.125 13 .434.205 6.126-12.999z"/><path d="m88.814 205.536 11.384-9.075.32.321-11.384 9.075zM96.992 179.844l.16-.401 9.383 4.017-.16.401z"/><path d="m113.632 171.653-7.372 11.859.407.254 7.372-11.859z"/><path d="m112.707 160.17.48-.08.881 11.644-.4.08zM3.814 70.405l-11.225 4.417-.08-.32 11.144-4.498z"/><path d="M3.894 70.244h-.4l.4-9.717.4.08z"/><path d="M4.134 60.774-8.456 67.6l-.24-.32 12.67-6.907z"/><path d="M3.573 61.495a1.076 1.076 0 0 1-.48-1.447c.264-.533.914-.75 1.446-.481.532.264.748.914.48 1.447a1 1 0 0 1-1.446.485zM3.333 70.89a.767.767 0 0 1-.32-1.042.765.765 0 0 1 1.04-.321.767.767 0 0 1 .32 1.042.708.708 0 0 1-1.044.32z"/><path d="M215.024 108.063c18.601-20.314 53.003-22.804 79.943-17.745a191.643 191.643 0 0 0 39.694 3.37c3.046-7.307 4.572-14.293 3.606-20.474-23.893 2.41-50.437-2.569-32.396-21.596a105.47 105.47 0 0 0-7.858-.962c-3.686-.4-6.977-.801-10.023-1.287a92.678 92.678 0 0 1-19.727 11.885C235.066 75.788 191.926 68 156.563 73.7c-45.226 7.227-86.68 25.533-122.683 48.176-16.921 10.678-31.912 20.875-46.267 30.591 3.126 6.426 6.577 12.766 10.344 18.867 28.545-21.196 58.776-43.518 93.578-58.774 48.832-21.436 111.134-2.89 77.537 41.27-.08.08-.08.16-.16.24l-.16.16c-.08.151-.188.288-.32.401-.08.08-.16.24-.24.321l-.24.24c-13.63 17.023-38.009 28.743-62.062 35.97-24.939 7.468-43.06 18.947-61.902 30.271a121.814 121.814 0 0 0 22.373 12.366c4.01-5.299 10.023-9.476 21.892-11.239 97.905-14.935 82.83-66.482 126.775-114.497z" opacity=".3"/><path d="M279.967 218.919h-89.623a69.13 69.13 0 0 1 .381-25.316 67.934 67.934 0 0 1 28.249-42.585 66.706 66.706 0 0 1 60.998-7.335v75.241z"/></g><path d="M261.191 139.431s-9.35 9.23-9.736 12.181a5.565 5.565 0 0 0 1.271 4.583s5.998 3.738 11.77-3.814c5.772-7.553 8.588-10.966 8.588-10.966l-11.888-1.989zM248.267 139.431s-5.31 20.833-53.389 40.878c-48.084 20.045 12.453-23.807 12.453-23.807l30.871-20.508 10.07 3.442zM189.896 198.243s37.444-29.253 52.783-30.318c15.334-1.07 9.642 9.627 9.642 9.627s-4.906 11.583-37.825 27.649c-32.919 16.071-16.459 20.314-25.645 13.978-3.63-4.568 1.045-20.936 1.045-20.936z" fill="#fcb22a"/><path d="M280.443 146.682s-11.107 9.325-19.798 27.386-15.508 22.19-23.503 27.81c-7.994 5.619-21.789 9.655-21.789 9.655s-12.1 5.077-12.458 8.019c-.357 2.942 52.788 1.155 52.788 1.155s7.311-8.118 27.519-9.636c20.207-1.518-2.759-24.868-2.759-24.868s-3.503-6.072-.627-8.401c2.877-2.329.627-31.124.627-31.124z" fill="#fcb22a"/><path d="M153.927 144.541s-22.053 1.499-24.412 11.932c-2.363 10.428 5.339 12.649 5.339 12.649s9.266.834 22.66-6.322c13.395-7.161-3.583-18.259-3.583-18.259z" fill="#4687c7"/><path d="M151.991 144.928s-16.878 3.946-19.646 12.196c-2.764 8.25 6.275 10.39 6.275 10.39s11.507-.49 15.038-3.493-1.671-19.093-1.671-19.093z" fill="#67cce6"/><path d="M238.154 173.912s10.542 5.436 11.248 11.22c.706 5.785-1.215 14.954-12.472 13.865-4.675-.273-10.372-13.172-10.372-13.172z" fill="#4687c7"/><path d="M227.161 186.621s6.591 9.679 8.63 10.028 13.531-1.712 11.85-12.578c-2.373-4.889-8.352-8.675-8.352-8.675z" fill="#67cce6"/><path d="M180.282 82.567s1.187 27.546 0 34.636c-.866 4.276-10.315 12.889-10.315 12.889s-3.799-.127-4.313 5.775c-2.005-.222-7.947 7.336-7.947 7.336l-8.418 2.423s-8.008 4.818-6.794 10.612c1.215 5.794 8.517 8.585 8.517 8.585h12.966s5.942-1.731 15.951-12.588c.74.151 1.507.151 2.246 0a3.336 3.336 0 0 0 1.422-1.339c3.121-.169 3.324-2.503 3.324-2.503l9.077-7.307s3.833-1.023 4.101.287c1.022 5.799 9.821 13.111 9.821 13.111s-1.69 2.173 2.09 3.87c1.201 2.81 5.052 9.34 5.052 9.34s.113 6.491 2.858 8.212a6.323 6.323 0 0 0 1.572 4.248s2.651 6.425 12.435 9.334c9.778 2.909 6.977-11.112 6.977-11.112s-1.276-3.026-1.78-3.314c-.499-.287-1.229-9.636-1.229-9.636l-6.045-17.679a4.235 4.235 0 0 0-1.196-4.238c-1.977-1.754-7.071-11.715-7.071-11.715s.188-6.1 1.408-10.056c1.219-3.955 3.757-13.101 3.954-17.971 1.243 1.546 4.261 2.786 4.261 2.786l10.777 15.18s1.615-7.91 6.398-7.938c1.695-.019 4.205 1.268 7.303 5.482.174-1.306.193-2.626.061-3.936a14.72 14.72 0 0 0-2.213-5.181 54.05 54.05 0 0 0-3.644-4.644c-5.763-9.782-7.867-13.808-7.867-13.808a7.36 7.36 0 0 0-2.392-7.095c-2.095-1.556-3.771-5.96-8.983-7.204-3.814-2.62-5.687-2.96-5.687-2.96s4.576-.948 5.687-8.496c2.199-9.108 2.09-21.478 2.09-21.478s-9.712-9.646-27.669-7.948c-7.632 4.535-8.955 25.679-8.734 27.89.222 2.21 1.102 3.46 3.117 4.898a15.335 15.335 0 0 0-5.701.598 5.792 5.792 0 0 0-3.649-5.04c-1.135-1.079-13.451-26.008-13.451-26.008s-1.187-.792-1.62-.514c-.471 1.494-7.712 8.344-13.898 7.736-2.269 2.8 2.486 7.633 2.486 7.633s6.52 15.74 9.665 17.914c.669 7.873 5.019 10.923 5.019 10.923z" fill="#fff" stroke="#36434c" stroke-width="2"/><path d="M166.464 133.69s7.312 1.551 16.921 16.797c3.178-.043 3.159-2.338 3.159-2.338s-10.216-17.024-16.478-17.637c-2.641-.104-3.597 3.178-3.597 3.178z" fill="#fcb22a"/><path d="M157.547 144.277c-.395.118-10.254 9.42 1.704 19.673 1.869-.089 2.444.038 3.706-.085-8.315-6.784-4.431-19.63-5.41-19.583z" fill="#c2cdd3"/><path d="M200.038 62.526s5.696 10.367 28.879 7.916c7.467-11.904 1.318-26.552-11.04-27.97-21.083-.359-17.839 20.054-17.839 20.054z" fill="#074c75" stroke="#fff" stroke-miterlimit="10" stroke-width=".32"/><path d="M225.857 48.883s-1.926-1.037-1.742.872a40.83 40.83 0 0 0 3.908 4.073l1.073 2.056s1.238 9.178 1.511 7.312c1.168-10.858-4.75-14.308-4.75-14.308z" fill="#fff"/><path d="M195.273 42.127c1.384-.816 4.101-1.405 5.664 1.466.056 3.361-1.53 9.707-2.51 9.815-2.269.59-4.053.057-4.651-1.933-.542-2.682.136-6.095 1.497-9.344zM235.852 51c1.384-.816 3.155-1.678 4.722 1.193.057 3.36-.607 9.523-1.586 9.636-2.27.589-4.03.509-4.628-1.48.155-3.433.136-6.101 1.497-9.35z" fill="#fcb22a"/><path d="M201.036 45.022s22.891-13.285 33.851 7.246c.937-2.706.202-7.958.202-7.958s-9.929-10.079-28.112-8.123c-3.248 1.01-5.941 8.84-5.941 8.84z" fill="#4687c7"/><path d="M191.836 65.218s-9.369 1.423-15.927 8.16a15.222 15.222 0 0 0 2.222 6.049s15.391-5.257 17.166-8.986a5.251 5.251 0 0 0-3.461-5.228zM241.568 85.156a67.998 67.998 0 0 1-11.182 19.357 12.433 12.433 0 0 0 3.103 1.726s8.211-7.685 10.08-14.544c.998-3.88-2.001-6.539-2.001-6.539zM210.466 154.446a47.013 47.013 0 0 0 19.981-10.565c1.714 1.15 1.003 3.814 1.003 3.814a37.18 37.18 0 0 1-19.115 10.343c-3.898-1.598-1.869-3.597-1.869-3.597z" fill="#fcb22a"/><path d="M222.218 180.007s10.216 2.235 16.525-4.667c.358-.552.88 2.348-1.064 4.667-3.38 2.088-10.706 4.054-13.263 2.357-2.556-1.697-2.198-2.357-2.198-2.357zM194.011 85.697s14.228-3.305 27.788 3.305a300.865 300.865 0 0 0-3.932 29.95s-16.068 3.182-27.599-3.47c1.912-4.422 3.739-29.785 3.739-29.785z" fill="#c2cdd3"/><path d="M164.054 45.828c-1.554-.425-3.546-2.612-5.203-5.95a2.066 2.066 0 0 1 0-1.919l-7.09-7.35s-.942-3.347 1.954-2.536c2.834 1.735 6.148 5.587 6.148 5.587l6.545-3.423v-7.892s1.718-4.068 3.804 0c.508 4.682.555 8.265.555 8.265s4.671 6.355 4.708 8.396c.038 2.041-7.264 6.6-11.417 6.817z" fill="#4687c7"/><path d="M159.798 33.197s-.377-3.012 3.036-1.989c2.109 1.928 3.715 4.648 3.842 5.836-.028 1.391-2.867.849-3.959-.273a11.953 11.953 0 0 1-2.919-3.578z" fill="#67cce6"/><path d="M163.056 31.412s-.429-2.833 2.984-1.81a12.886 12.886 0 0 1 3.536 6.425c-.028 1.391-2.161 1.127-3.248 0a17.28 17.28 0 0 0-3.272-4.615z" fill="#67cce6"/><path d="M172.999 31.896s2.886-.42 3.027 2.07c.085 1.57.085 3.14 0 4.709 0 0-1.341 1.17-3.027-.434-1.69-1.603-1.375-2.083-5.235-2.89-2.5-.9-1.192-3.61-.82-3.45 1.13-.066 6.055 0 6.055 0z" fill="#fff" stroke="#36434c" stroke-width="2"/><path d="M250.701 127.386a3.609 3.609 0 0 0 3.607-3.611 3.61 3.61 0 0 0-3.607-3.611 3.609 3.609 0 0 0-3.606 3.611 3.608 3.608 0 0 0 3.606 3.611z" fill="#4687c7"/><path d="M244.699 120.045s4.077-11.39 11.403-2.484c7.325 8.905.565 20.738.565 20.738s-3.004 1.103-2.237-2.545c.768-3.649 1.342-5.889 1.158-5.776-1.012 6.865-1.887 6.228-1.887 6.228s-2.444-.641-.914-3.234 1.342-6.76 1.116-6.657c.57 5.488-2.024 7.058-2.024 7.058s-2.698 1.23-1.837-3.23c2.053-5.76.264-8.151.264-8.151s-2.519 6.219-4.129 6.978a1.494 1.494 0 0 1-2.119-1.603c-.372-2.23.636-7.322.636-7.322z" fill="#67cce6"/><path d="m77.834 138.342-2.933 12.324c-.833 3.46-3.785 3.366-4.487-.099l-2.542-12.319 9.958.094z" fill="#fff"/><path d="m77.288 132.686-2.481 12.305c-.72 3.436-3.225 3.394-3.809-.095l-2.133-12.304z" fill="#004d77" opacity=".105"/><path d="M80.005 125.812a35.097 35.097 0 0 1 4.628 17.307.644.644 0 0 1-1.107.467 45.428 45.428 0 0 0-5.659-5.196l2.138-12.573zM65.975 125.629A35.007 35.007 0 0 0 60.8 142.78c0 .363.292.655.655.655.17 0 .33-.066.452-.179a48.57 48.57 0 0 1 5.97-5.012z" fill="#69cce3"/><path d="M67.161 134.93c.165 1.117.405 2.225.716 3.314l4.976.047 5.052.057c.306-1.094.555-2.202.744-3.324l-11.493-.094zM73.691 97.795a29.238 29.238 0 0 1 3.62 5.322l-8.159-.099a25.018 25.018 0 0 1 3.79-5.237.476.476 0 0 1 .75.018z" fill="#4584c5"/><path d="M77.312 103.117a29.82 29.82 0 0 1 3.441 13.818c-.023 4.162-1.12 12.846-2.137 18.121l-11.422-.089a128.03 128.03 0 0 1-1.71-18.188 29.107 29.107 0 0 1 3.701-13.728l8.127.061z" fill="#ebf0f0"/><path d="M77.312 103.117a29.82 29.82 0 0 1 3.441 13.818c-.023 4.162-1.12 12.846-2.137 18.121l-11.422-.089a128.03 128.03 0 0 1-1.71-18.188 29.107 29.107 0 0 1 3.701-13.728l8.127.061z" fill="#fff"/><path d="M72.872 143.703a.533.533 0 0 0 .555-.51v-.061s1.22-6.303 1.21-8.368a75.213 75.213 0 0 0-1.05-8.273.524.524 0 0 0-.494-.557h-.075a.532.532 0 0 0-.556.509v.062a78.29 78.29 0 0 0-1.276 8.287c-.033 2.098 1.074 8.387 1.074 8.387a.597.597 0 0 0 .612.524z" fill="#69cce3"/><path d="M72.27 143.099s-1.102-6.289-1.074-8.387a78.27 78.27 0 0 1 1.276-8.288.537.537 0 0 1 .504-.57h.051s-1.831 6.717-.16 17.843a.59.59 0 0 1-.602-.584v-.014z" fill="#4584c5"/><path d="m71.055 110.155 5.127 5.28c.051-.108.131-.169.183-.278l-4.986-5.19a.774.774 0 0 1-.324.188z" fill="#fff" opacity=".4"/><path d="M73.013 117.227c2.093 0 3.79-1.699 3.79-3.795s-1.697-3.795-3.79-3.795-3.79 1.699-3.79 3.795 1.697 3.795 3.79 3.795z" fill="#4584c5"/><path d="m71.76 109.869 4.794 4.941c.117-.344.197-.698.24-1.061l-3.89-4.04c-.385-.052-.78 0-1.143.16z" fill="#fff" opacity=".4"/><path d="M63.997 159.161c8.691-4.172 19.115-.5 23.286 8.203 4.167 8.702.5 19.14-8.192 23.317-8.69 4.172-19.114.5-23.286-8.203v-.009c-4.124-8.703-.466-19.112 8.197-23.308z" fill="#69cce4"/><path d="M40.15 191.124c.617 1.273 2.256 1.805 4.671 1.805 3.936 0 9.878-1.475 16.474-3.898a155.469 155.469 0 0 0 14.383-6.03 143.623 143.623 0 0 0 13.234-7.138c9.916-5.992 16.964-12.101 15.325-15.467-1.925-4.022-13.521-.618-20.654 1.885.452.453.9.901 1.309 1.396 11.883-4.102 17.128-3.819 17.745-2.546.696 1.476-3.564 6.36-13.73 12.639a147.614 147.614 0 0 1-14.015 7.59 154.017 154.017 0 0 1-15.203 6.36c-10.984 3.819-17.25 4.021-17.947 2.583-.617-1.23 2.335-5.416 12.702-11.941a15.615 15.615 0 0 1-.287-1.928c-6.27 3.936-15.899 10.749-14.016 14.685z" fill="#004d77" opacity=".15"/><path d="M212.23 102.819a6.138 6.138 0 0 0-6.128-6.128 6.134 6.134 0 0 0-6.128 6.128 6.13 6.13 0 0 0 6.128 6.127 6.133 6.133 0 0 0 6.128-6.127Zm-7.488 3.29-2.09-5.607c.337-.012.717-.049.717-.049.306-.037.27-.692-.037-.68 0 0-.888.067-1.452.067-.11 0-.226 0-.355-.005a5.433 5.433 0 0 1 4.577-2.464c1.428 0 2.727.533 3.708 1.434-.418-.067-1.012.239-1.012.968 0 .453.276.833.552 1.287.214.374.336.833.336 1.508 0 .912-.857 3.063-.857 3.063l-1.857-5.129c.331-.012.503-.104.503-.104.306-.031.269-.766-.037-.748 0 0-.882.074-1.458.074-.534 0-1.428-.074-1.428-.074-.306-.018-.343.736-.037.748l.563.049.773 2.09-1.109 3.572Zm5.901-3.29c.147-.392.453-1.146.263-2.605a5.38 5.38 0 0 1 .643 2.605c0 2.015-1.06 3.823-2.695 4.767.594-1.587 1.188-3.187 1.789-4.767Zm-6.931 4.957c-1.826-.882-3.057-2.794-3.057-4.957 0-.797.141-1.52.44-2.201.871 2.385 1.741 4.774 2.617 7.158Zm2.47-4.063 1.581 4.277a5.158 5.158 0 0 1-1.661.276c-.484 0-.962-.067-1.403-.202.496-1.459.992-2.904 1.483-4.351Z" style="fill:#074b75" transform="rotate(8 206.102 102.818)"/></g></svg>