<svg xmlns="http://www.w3.org/2000/svg" fill="none" viewBox="0 0 224 186"><path d="M224 0H0v162.77h224V0Z" fill="#69CBE4" opacity=".15"/><path d="M31 22.34h179v136H31z" fill="url(#a)" fill-opacity=".5"/><g fill="#6ACBDF" opacity=".27"><path d="M72.506 22.335h6.757l-.445 81.607h-6.756l.444-81.607Zm91.201 0h-6.756v136.412h6.756V22.335Zm-43.977 0h-3.251v82.808h3.25V22.335Z"/><path d="M162.238 88.517H74.653v4.226h87.585v-4.226Z"/></g><path d="M179.155 101.136s8.814 1.07 14.64 8.917c5.825 7.844 5.067 11.508 5.067 11.508 0 .01-1.884-1.91-5.377-2.07-2.527-.104-1.57-3.295-2.506-4.144-.935-.851-3.018-.677-3.818-2.041-.8-1.366.084-1.256-1.152-2.905-1.1-1.458-2.61-.22-3.42-2.497-.44-1.226-.8-4.636-3.44-6.758Zm33.834 5.152a15.47 15.47 0 0 0-9.674 5.891c-3.848 5.186-3.869 8.326-3.869 8.326s2.273-1.813 4.077-2.092c1.651-.254 1.037-2.185 1.655-2.747.618-.562 1.994-.448 2.523-1.35.529-.9-.055-.827.758-1.917.72-.964 1.723-.148 2.26-1.648.29-.808.53-3.064 2.274-4.467l-.004.004Z" fill="#55A6B9"/><path d="M206.893 119.959h-16.7v2.916h16.7v-2.916Z" fill="#005384"/><path d="M205.432 126.003c0 3.799-3.086 6.876-6.888 6.876-3.806 0-6.888-3.08-6.888-6.876v-4.586h13.78v4.586h-.004Z" fill="#005384"/><path d="M191.652 122.88h5.682l-5.682 1.804v-1.804Z" fill="#3D5363" opacity=".1"/><path d="M211.317 131.683h-27.67v12.306h27.67v-12.306Z" fill="#F7A91B"/><path d="M191.767 135.313c0-.938.846-1.699 1.888-1.699 1.04 0 1.888.76 1.888 1.699h-1.749v2.113a.369.369 0 0 0 .737 0h.284a.652.652 0 0 1-1.304.025v-2.138h-1.749.005Zm-2.532-.262v-1.433h2.079v1.433c0 .52-.386.955-.898 1.027v1.716h.67v.283h-1.627v-.283h.669v-1.716a1.039 1.039 0 0 1-.897-1.027h.004Zm-1.016 2.743h-2.77v.283h2.76v-.283Zm-.684-4.18.615.613h-.474v3.14h-.284v-3.14h-.474l.614-.613h.003Zm-2.03.617.613-.612.614.612h-.474v3.14h-.285v-3.14h-.474.003Z" fill="#005384"/><path d="M217.163 143.994h-30.752v27.524h30.752v-27.524Z" fill="#F7A91B"/><path d="M204.755 143.994h-30.752v27.524h30.752v-27.524Z" fill="#FCBF5B"/><path d="M209.289 143.994v7.881l.402.402.48-.419.47.419.47-.419.478.419.474-.419.475.419.47-.414v-7.869H209.3Z" fill="#F7991C"/><path d="M186.737 164.964h-9.364v4.272h9.364v-4.272Z" fill="#fff"/><path d="M182.995 165.53h-5.114v.592h5.114v-.592Z" fill="#005384"/><path d="M211.317 141.775h-27.67v2.214h27.67v-2.214Z" fill="#373737" opacity=".1"/><path d="M141.719 111.207v1.111a3.703 3.703 0 0 0 3.713 3.69 3.698 3.698 0 0 0 3.695-3.69v-1.111h-7.408Z" fill="#469BD5"/><path d="M139.746 115.201c1.279.693 3.34 1.145 5.677 1.145 2.337 0 4.403-.452 5.681-1.145h-11.358Zm7.332-.047-.025-.4c0-.001 2.007-.141 2.612-.99a.998.998 0 0 0 .089-1.112c-.428-.727-1.825-.465-2.104-.405l-.085-.393c.453-.098 1.98-.347 2.536.596.275.49.233 1.098-.11 1.546-.71 1.006-2.82 1.154-2.91 1.158Z" fill="#469BD5"/><path d="M145.923 102.911c.372.194.668.516.83.904.084.216.114.444.084.672a1.08 1.08 0 0 1-.3.643 1.622 1.622 0 0 1-.551.338c-.182.068-.36.144-.533.228a.982.982 0 0 0-.394.35.696.696 0 0 0-.068.487c.045.156.117.3.214.427.105.135.22.266.342.384.314.262.585.567.805.91.113.206.177.438.19.675.003.224-.039.448-.119.659-.157.377-.394.71-.69.99l-.05-.03c.12-.355.212-.714.281-1.082.02-.157.02-.32-.005-.478a1.37 1.37 0 0 0-.165-.405 9.376 9.376 0 0 0-.67-.846 2.35 2.35 0 0 1-.343-.532 1.28 1.28 0 0 1-.11-.664 1.22 1.22 0 0 1 .234-.604c.131-.156.288-.292.46-.4.31-.192.58-.437.797-.728a1.2 1.2 0 0 0 .157-.404 1.322 1.322 0 0 0-.004-.46 3.685 3.685 0 0 0-.415-.998l.042-.047h-.008Z" fill="#CFCBC7"/><path d="M114.46 178.597c.376-.245 1.007-.215 1.244.165.093.178.127.38.102.58-.072 1.364-.347 2.547-1.147 3.655a4.305 4.305 0 0 1-1.33 1.306c-.544.287-1.42.33-1.86-.085a1.431 1.431 0 0 1-.4-1.082c.028-.397.12-.786.273-1.15.199-.604.504-1.17.902-1.664.368-.42.855-.719 1.397-.854.483-.135.398-.604.809-.875v.004Z" fill="#005384"/><path d="M110.582 180.427c-.072.558-.377 1.048-.6 1.564-.226.52-.361 1.13-.1 1.62.183.32.475.55.818.68a4.15 4.15 0 0 0 1.054.215c.339.055.682.059 1.021.017a1.3 1.3 0 0 0 .868-.5c.304-.438.194-1.03.118-1.558a9.826 9.826 0 0 1 .03-3.009l-3.21.98Z" fill="#005384"/><path d="M113.723 182.071c-.969.854-2.544.6-3.763-.017-.208.499-.326 1.082-.077 1.555.182.313.474.55.817.672.343.119.695.191 1.055.216a3.62 3.62 0 0 0 1.024.017 1.3 1.3 0 0 0 .868-.5c.305-.438.195-1.03.118-1.558-.021-.127-.03-.258-.042-.385Z" fill="#005384"/><path d="M113.236 146.398c-.698 2.185-.872 4.552-1.033 6.855l-1.922 27.521 3.764.122c.089 0 5.042-15.789 5.643-17.255 2.134-5.202 3.107-10.56 4.267-16.059a44.393 44.393 0 0 0-10.719-1.184Z" fill="#4675B9"/><path d="M104.519 178.597c-.376-.245-1.007-.215-1.244.165a.984.984 0 0 0-.102.58c.072 1.364.347 2.547 1.148 3.655.342.528.795.972 1.33 1.306.532.287 1.41.33 1.85-.085.28-.292.43-.68.4-1.082a3.586 3.586 0 0 0-.27-1.15 5.3 5.3 0 0 0-.899-1.664 2.746 2.746 0 0 0-1.397-.854c-.483-.135-.394-.604-.81-.875l.005.004Z" fill="#005384"/><path d="M108.393 180.427c.072.558.377 1.048.6 1.564.226.52.361 1.13.1 1.62a1.54 1.54 0 0 1-.818.68 4.066 4.066 0 0 1-1.055.215c-.338.055-.68.059-1.02.017a1.3 1.3 0 0 1-.868-.5c-.304-.438-.194-1.03-.118-1.558a9.826 9.826 0 0 0-.03-3.009l3.21.98Z" fill="#005384"/><path d="M105.256 182.071c.97.854 2.544.6 3.764-.017.207.499.326 1.082.076 1.555a1.54 1.54 0 0 1-.817.672 4.058 4.058 0 0 1-1.065.216 3.602 3.602 0 0 1-1.02.017 1.298 1.298 0 0 1-.867-.5c-.304-.438-.194-1.03-.12-1.558.019-.127.027-.258.044-.385h-.004Z" fill="#005384"/><path d="M105.743 146.398c.699 2.185.872 4.552 1.037 6.855.639 9.175 1.279 18.346 1.922 27.521l-3.763.122c-.089 0-5.042-15.789-5.644-17.255-2.133-5.202-3.107-10.56-4.267-16.059a44.396 44.396 0 0 1 10.719-1.184h-.004Z" fill="#4675B9"/><path d="M70.504 114.436c-.25 2.307-2.65 3.613-4.94 3.998a5.31 5.31 0 0 1-4.695-1.517c-5.212.515-9.15.19-14.386.097-1.71-.034-3.827-.119-4.995-1.42-.885-1.002-.894-2.553-.55-3.863a7.2 7.2 0 0 1 2.146-3.339c3.103-2.91 5.634-3.457 9.813-3.085 2.54.271 4.94 1.306 6.888 2.963a2.1 2.1 0 0 0 2.396.308 5.321 5.321 0 0 1 2.476-.612c3.116 0 6.194 3.296 5.847 6.47Z" fill="#68CBE3"/><path d="M44.29 107.551c.97-.528 1.998-.93 3.07-1.196a13.507 13.507 0 0 1 6.108-.042c1.72.368 3.413.913 4.856 1.94.754.537 1.406 1.234 2.358 1.4.987.164 1.859-.263 2.714-.7a5.904 5.904 0 0 1 2.443-.692c.16-.008.321 0 .482.01a4.909 4.909 0 0 0-1.66-.305c-.863 0-1.714.207-2.476.612a2.1 2.1 0 0 1-2.396-.308 12.718 12.718 0 0 0-6.888-2.963c-4.022-.355-6.52.144-9.466 2.773.28-.186.563-.368.86-.529h-.005Z" fill="#005384"/><path d="M63.777 109.61a10.737 10.737 0 0 0-2.235-2.498 5.469 5.469 0 0 0 .427 4.374l1.808-1.876Zm3.564.08a9.378 9.378 0 0 1 2.278-2.063 3.819 3.819 0 0 1-.334 3.703l-1.944-1.64Z" fill="#68CBE3"/><path d="M66.546 114.491c-.022 0-.043 0-.064-.004a.573.573 0 0 1-.237-.127 1.687 1.687 0 0 1-.449-.448.082.082 0 0 1 .03-.11c.038-.021.09-.01.11.029.11.161.25.296.406.406a.482.482 0 0 0 .17.097.378.378 0 0 0 .27-.097c.14-.1.267-.224.373-.359a.086.086 0 0 1 .114-.017c.034.025.043.08.017.114a1.99 1.99 0 0 1-.406.393.582.582 0 0 1-.33.131l-.004-.008Z" fill="#3A3942"/><path d="M66.55 115.087h-.013c-.047-.005-.076-.047-.072-.093a1.547 1.547 0 0 0-.017-.54.084.084 0 0 1 .064-.098.077.077 0 0 1 .093.063c.038.194.042.397.017.596a.08.08 0 0 1-.08.072h.008Zm2.23-1.864a.635.635 0 0 1-.558-.342c-.021-.038-.004-.089.034-.11a.083.083 0 0 1 .11.034c.08.152.241.249.415.253a.467.467 0 0 0 .415-.253.081.081 0 0 1 .144.076.636.636 0 0 1-.56.338v.004Zm-4.516 0a.635.635 0 0 1-.56-.342c-.02-.038-.003-.089.035-.11a.083.083 0 0 1 .11.034.48.48 0 0 0 .415.253.467.467 0 0 0 .415-.253c.016-.043.067-.06.11-.043.042.017.059.068.042.11v.01a.636.636 0 0 1-.559.337h-.008Z" fill="#3A3942"/><path d="M53.71 114.795c-.652-.325-1.423-.254-2.147-.177.39-.043.741-1.019.817-1.319a3.29 3.29 0 0 0-.097-1.657c-.28-1.09-1.291-1.817-2.37-2.087a3.893 3.893 0 0 0-2.926.439c-.445.279-.838.63-1.164 1.044a5.415 5.415 0 0 1 2.091-.955c.923-.216 1.981-.22 2.714.372.66.59.944 1.5.736 2.362a3.94 3.94 0 0 1-1.41 2.134 3.983 3.983 0 0 1 3.409.457c.334.224.66.646.448.99a.859.859 0 0 1-.63.303c-1.27.216-2.557.347-3.844.385a9.014 9.014 0 0 0 3.86.118 1.748 1.748 0 0 0 1.186-.61c.41-.6-.017-1.478-.673-1.803v.004Z" fill="#005384"/><path d="M118.337 118.341h-15.388l2.426-13.368h10.537l2.425 13.368Z" fill="#BBBDBE"/><path d="M115.912 104.973h-10.537l-.872 4.797h12.277l-.872-4.797h.004Z" fill="#919396"/><path d="M86.015 73.594h48.532a2.995 2.995 0 0 1 2.997 2.992v28.032a3.61 3.61 0 0 1-3.615 3.61H86.637a3.61 3.61 0 0 1-3.615-3.61V76.586a2.995 2.995 0 0 1 2.997-2.992h-.004Z" fill="#D0D2D3"/><path d="M137.083 76.274v28.657a2.843 2.843 0 0 1-2.845 2.84H86.32a2.839 2.839 0 0 1-2.84-2.836V76.274a2.22 2.22 0 0 1 2.222-2.22h49.163a2.22 2.22 0 0 1 2.222 2.22h-.004Z" fill="#005384"/><path d="M83.018 101.719h54.522v2.9a3.61 3.61 0 0 1-3.615 3.609H86.633a3.61 3.61 0 0 1-3.615-3.61v-2.9Z" fill="#D0D2D3"/><path d="M171.773 119.574 153.63 179.15l1.928.585 18.143-59.576-1.928-.59Z" fill="#005384"/><path d="m174.277 119.611-1.928.585 18.144 59.576 1.928-.586-18.144-59.575Zm-121.79-.035-18.143 59.576 1.928.585 18.143-59.575-1.928-.586Z" fill="#005384"/><path d="m54.985 119.603-1.928.585L71.2 179.764l1.928-.586-18.143-59.575Z" fill="#005384"/><path d="M186.513 116.24H40.946v7.151h145.567v-7.15Z" fill="#F7A91B"/><path d="M187.448 163.354H159.19v2.007h28.258v-2.007Zm-119.374 0h-28.17v2.007h28.17v-2.007Z" fill="#005384"/><path d="m173.558 67.813-9.494 4.506.26.542 9.492-4.506-.258-.542Z" fill="#4675B9"/><path d="m165.849 73.86-1.452.774a6.633 6.633 0 0 1-3.437 6.973l-2.007 1.116-5.237-9.839-1.016-1.901 2.003-1.116a6.68 6.68 0 0 1 8.069 1.411l1.325-.705a1.87 1.87 0 0 1 2.667 2.184 1.854 1.854 0 0 1-.91 1.1l-.005.004Z" fill="#A6A7AA"/><path d="M161.222 70.708a8.032 8.032 0 0 0-5.435.76l-1.825 1.006-.47-.883 1.55-.854a6.67 6.67 0 0 1 6.18-.033v.004Z" fill="#DCDCDB"/><path d="m173.897 115.678-.533-.27 12.603-24.68-14.665-21.516.495-.338 14.767 21.663a.304.304 0 0 1 .021.304l-12.684 24.842-.004-.005Z" fill="#4675B9"/><path d="M187.11 90.685c0 .553-.45 1.001-1.004 1.001a1.002 1.002 0 1 1 0-2.003c.555 0 1.004.448 1.004 1.002Zm-14.436-21.596c0 .554-.45 1.002-1.004 1.002a1.002 1.002 0 1 1 0-2.003c.555 0 1.004.448 1.004 1.001Zm8.467 44.819h-14.276v2.43h14.276v-2.43Z" fill="#4675B9"/><path d="M43.206 133.327a6.156 6.156 0 0 1-3.323-.993 8.043 8.043 0 0 1-3.264-4.704c-.41-1.51-.508-3.204-.304-5.334.55-5.743 4.525-11.017 6.21-13.02a1.302 1.302 0 0 1 1.998 1.673c-4.585 5.448-5.453 9.923-5.61 11.593-.173 1.804-.1 3.203.225 4.4a5.443 5.443 0 0 0 2.16 3.202c1.024.664 2.378.753 3.293.22.88-.51 1.338-1.728.96-2.548-.3-.655-.012-1.43.644-1.724a1.3 1.3 0 0 1 1.728.642c.94 2.05.033 4.687-2.016 5.883a5.344 5.344 0 0 1-2.7.705v.005Z" fill="#68CBE3"/><path d="M162.789 101.161a.123.123 0 0 0-.05-.08c-.018-.017-.04-.025-.06-.034a.99.99 0 0 0-.157-.025h-.017a1.38 1.38 0 0 0-.804.216c-.474.29-.872.693-1.156 1.17a20.542 20.542 0 0 0-.12-.883 18.234 18.234 0 0 0-.193-1.128c-.038-.2-.08-.398-.123-.596.068-.051.13-.102.195-.157.46-.334.82-.786 1.04-1.314.04-.106.073-.211.098-.317.077-.317.077-.676-.334-.65-.457.029-.796.52-1.03.874l-.016.02a4.616 4.616 0 0 0-.224.403c-.106-.398-.22-.79-.343-1.18a17.985 17.985 0 0 0-.305-.92c-.008-.04-.025-.068-.038-.106.01-.01.017-.017.026-.022.122-.1.262-.177.376-.291.098-.093.178-.2.246-.317.038-.06.072-.118.1-.182.145-.33.24-.68.277-1.04.033-.228.038-.46.008-.688-.042-.241-.17-.436-.423-.41-.496.059-.69.81-.822 1.204-.076.25-.135.503-.182.757-.39-.9-.872-1.758-1.435-2.566.436-.258.635-.968.563-1.48a1.879 1.879 0 0 0-.182-.603 2.762 2.762 0 0 0-.372-.541 3.642 3.642 0 0 0-1.088-.803.124.124 0 0 0-.17.042.12.12 0 0 0-.017.085c.106.765.263 1.52.458 2.27a9.731 9.731 0 0 0-1.076-1.053 3.428 3.428 0 0 0-1.143-1.526 2.41 2.41 0 0 0-1.943-.401.116.116 0 0 0-.08.137c0 .005 0 .013.004.017a1.842 1.842 0 0 0 .5.66c.063.063.13.122.203.177.283.21.588.405.868.574.16.102.33.19.503.266.17.09.352.157.53.24.165.086.33.149.495.229.165.085.317.195.453.322.27.266.525.549.762.845-.2-.123-.42-.216-.644-.28a2.002 2.002 0 0 0-.673-.088 1.578 1.578 0 0 0-1.164.574.108.108 0 0 0-.013.152c.009.008.017.017.026.02.436.2.89.344 1.36.437.54.097 1.112.126 1.569-.2l.026.035s.012.012.02.017a14.9 14.9 0 0 1 1.516 2.756 4.478 4.478 0 0 0-1.46-.866 2.664 2.664 0 0 0-1-.123.14.14 0 0 0-.13.148v.008c.042.288.194.546.427.723.034.03.068.06.106.086.212.148.44.274.682.367a2 2 0 0 0 .32.097c.437.103.933.124 1.28.424.55.486.432 1.48.74 2.113.005.013.013.02.018.038-.01-.012-.017-.03-.026-.042a3.792 3.792 0 0 0-1.752-1.635 1.936 1.936 0 0 0-.576-.153.143.143 0 0 0-.153.103c-.084.646.28 1.17.788 1.618.055.052.114.099.173.145.195.152.398.296.606.427l.237.148a16.095 16.095 0 0 0 .737.41c.042.02.084.042.122.063.013.004.026.009.038.009h.038a.035.035 0 0 0 .022.008 40.142 40.142 0 0 1 .14.702c.07.35.13.7.18 1.052a10.85 10.85 0 0 1 .1.723c-.017-.026-.03-.043-.042-.068-.038-.051-.072-.101-.11-.156a3.113 3.113 0 0 0-.788-.757 2.024 2.024 0 0 0-.664-.304 1.532 1.532 0 0 0-.496-.047.118.118 0 0 0-.102.11.114.114 0 0 0 .008.064c.084.132.169.263.266.402.344.537.8.993 1.335 1.336a1.365 1.365 0 0 0 .249.118c.05.025.106.046.165.063h.01l.114.038a.95.95 0 0 0 .153.038c.046.153.067.313.055.474.008.15.012.316.017.464.009.228.009.422.009.47v.303c.007.185.01.366.01.55v.666c0 .1-.003.207-.01.308v.08a14.28 14.28 0 0 1-.022.584c-.026.459-.08.919-.17 1.377a4.835 4.835 0 0 1-.06.257.186.186 0 0 1-.016.072 2.75 2.75 0 0 0-.046.195h.155c.089 0 .178.004.27 0 .02-.643.077-1.277.115-1.915l.013-.228c.01-.118.013-.237.017-.355l.013-.368v-.118c0-.068-.004-.31-.017-.63a5.03 5.03 0 0 0-.01-.266v-.05a10.401 10.401 0 0 0-.016-.425c0-.03 0-.064-.004-.097a23.573 23.573 0 0 0-.022-.564c-.004-.19-.013-.362-.017-.506-.013-.24-.02-.4-.025-.4.063-.014.123-.027.182-.043.21-.054.416-.14.606-.245.11-.06.22-.126.322-.202.042-.03.085-.064.127-.093a1.88 1.88 0 0 0 .233-.212c.029-.034.059-.063.089-.1.224-.293.42-.6.592-.922a.137.137 0 0 0 .016-.123l.026.008Z" fill="#4675B9"/><path d="M172.797 96.542c-.381-.498-1.194-.617-1.901-.634-.402 0-.8.06-1.186.174-.36.088-.677.236-1.05.296a9.815 9.815 0 0 0-1.096.253c.749-.486 1.592-1.065 1.516-1.783-.01-.064-.102-.098-.187-.072a4.2 4.2 0 0 0-1.536.84c-.445.398-.678.876-.517 1.252l-.038.017s-.017.008-.02.012a7.072 7.072 0 0 0-1.373.748 7.17 7.17 0 0 0-1.178 1.027c.107-.22.19-.46.263-.608.288-.592.517-1.209.694-1.843.017-.065-.06-.095-.152-.065a1.983 1.983 0 0 0-.945.684 2.5 2.5 0 0 0-.445.942c-.123.529.1 1.007-.04 1.52a2.832 2.832 0 0 1-.562.945c-.203.24-.376.503-.525.782-.025.055-.05.114-.072.169a1.3 1.3 0 0 0 .055-.17 8.16 8.16 0 0 0 .304-1.326c.085-.453.093-.914.03-1.366a.087.087 0 0 0-.102-.065c-.012 0-.025.01-.034.017a2.425 2.425 0 0 0-1.01 1.785c-.052.384-.048.777.01 1.162.036.237.087.473.15.7 0 .014.005.027.009.039.008.038.02.076.03.115a.1.1 0 0 0 .038.05c0 .005 0 .014.004.018-.072.148-.144.296-.207.444a18.836 18.836 0 0 0-.695 1.754l-.02.05v-.038a5.602 5.602 0 0 0-.062-.655 4.402 4.402 0 0 0-.072-.388l-.038-.144-.037-.13a1.629 1.629 0 0 0-.24-.495.907.907 0 0 0-.245-.245c-.013-.008-.026-.012-.038-.008-.012 0-.02.008-.033.013a.168.168 0 0 0-.08.116 4.084 4.084 0 0 0-.05.466c-.01.084-.01.165-.014.245 0 .129 0 .265.004.396v.013c.01.16.03.32.055.477.037.233.109.457.21.668a.208.208 0 0 0 .039.067c.004.017.013.029.02.042l.03.05c.064.098.14.187.225.263a.409.409 0 0 0 .085.072c-.021.07-.043.142-.06.21-.02.089-.05.177-.07.266-.04.144-.072.283-.106.43l-.077.351c-.004.025-.008.055-.016.084a9.225 9.225 0 0 0-.111.584 20 20 0 0 0-.11.7c-.03.206-.05.413-.07.62-.016.19-.033.385-.046.575h.195c.042-.638.118-1.276.228-1.91l.102-.54c0-.014.008-.03.008-.043.026-.123.05-.245.085-.372 0-.017.008-.034.008-.05.077-.32.157-.635.25-.95.195.032.394.027.584-.008a2.983 2.983 0 0 0 .722-.21c.28-.137.517-.33.796-.5a.12.12 0 0 0 .043-.165.123.123 0 0 0-.024-.025.961.961 0 0 0-.9-.216 1.934 1.934 0 0 0-.302.08 2.45 2.45 0 0 0-.31.136 2.114 2.114 0 0 0-.414.283c.047-.144.098-.288.148-.427.11-.317.237-.63.37-.934.117-.292.248-.58.39-.862.013-.03.03-.064.042-.097.017 0 .03 0 .043-.005a4.28 4.28 0 0 0 1.062-.187c.136-.046.267-.1.394-.169a1.43 1.43 0 0 0 .49-.367.25.25 0 0 0-.038-.334c-.237-.262-.703-.173-1.037-.068-.085.026-.17.055-.258.09l-.13.054c.027-.047.056-.089.08-.135a14.28 14.28 0 0 1 1.141-1.686c.13.023.247.095.378.121.157.03.318.033.48.016a7.45 7.45 0 0 0 .812-.136c.159-.03.316-.068.473-.123.152-.063.262-.156.21-.342a.568.568 0 0 0-.413-.355 1.85 1.85 0 0 0-.61-.055c-.224.008-.445.05-.656.118a6.779 6.779 0 0 1 2.3-1.55.9.9 0 0 0 .41.447 2.4 2.4 0 0 0 .594.258 3.43 3.43 0 0 0 1.888-.195.09.09 0 0 0 .072-.11.082.082 0 0 0-.038-.06 3.663 3.663 0 0 0-1.748-.72 11.7 11.7 0 0 1 1.4-.247c1.08.317 2.173.612 3.328.21a.084.084 0 0 0 .055-.11c0-.008-.008-.016-.012-.02l-.004.008Z" fill="#68CBE3"/><path d="M161.421 102.091a.908.908 0 0 0-.859.461 2.919 2.919 0 0 0-.457.997s-.005.026-.01.038c-.05-.17-.1-.338-.155-.511-.009-.02-.013-.042-.022-.068a25.79 25.79 0 0 0-.57-1.61 2.96 2.96 0 0 0-.103-.262c.038-.051.072-.106.11-.156.242-.32.398-.693.466-1.086.008-.06.017-.123.017-.182 0-.021.004-.047.004-.068.017-.245-.008-.74-.237-.87 0 0 0-.005-.004-.005a.256.256 0 0 0-.123-.033c-.025 0-.055 0-.08.008-.263.055-.394.372-.479.672-.021.089-.042.178-.063.258a3.38 3.38 0 0 0-.043.215c-.012.057-.02.125-.033.196a12.63 12.63 0 0 0-.703-1.25 8.649 8.649 0 0 0-.483-.68c.051-.122.144-.22.195-.351.055-.16.08-.33.072-.497 0-.06-.009-.123-.017-.182a3.496 3.496 0 0 0-.216-.778c-.013-.033-.025-.072-.042-.11a2.291 2.291 0 0 0-.275-.486c-.157-.194-.356-.333-.551-.245a.316.316 0 0 0-.178.27.927.927 0 0 0 0 .26c.034.224.081.448.14.667.055.212.114.448.191.677a6.878 6.878 0 0 0-2.38-1.598.725.725 0 0 0-.038-.621 1.65 1.65 0 0 0-.478-.59 2.348 2.348 0 0 0-1.194-.44 3.747 3.747 0 0 0-1.283.099c-.11.025-.127.123-.05.165.58.355 1.189.74 1.803 1.052a7.856 7.856 0 0 0-1.477-.073 4.543 4.543 0 0 0-1.762-.274 3.433 3.433 0 0 0-1.723.536.083.083 0 0 0-.033.114c.004.009.012.017.016.026.51.39 1.347.3 2.037.226.39-.06.775-.144 1.156-.25a3.494 3.494 0 0 1 1.062-.177 7.13 7.13 0 0 1 1.1.145 2.218 2.218 0 0 0-1.19.4 1.09 1.09 0 0 0-.48.9c.002.061.053.104.112.1h.017a8.514 8.514 0 0 0 1.245-.401c.423-.177.855-.391 1.003-.773l.04.017s.016 0 .025.004a6.858 6.858 0 0 1 2.49 1.729 3.064 3.064 0 0 0-.594-.236 2.112 2.112 0 0 0-1.672.072.103.103 0 0 0-.038.135c0 .007.008.012.013.016.161.194.372.338.614.414.25.085.507.14.77.17.444.058.94-.115 1.4.139.305.21.542.502.682.849.148.347.322.685.525 1.006a3.533 3.533 0 0 0-1.109-1.002 1.968 1.968 0 0 0-1.189-.296c-.05.005-.089.047-.08.098v.012c.182.533.55.98 1.04 1.26.441.287.903.545 1.377.773.063.03.123.056.182.085.008.01.02.013.034.017l.106.05c.02.01.042.014.063.005.005 0 .014.005.018.01.225.555.423 1.125.61 1.696l.202.634a3.65 3.65 0 0 0-.34-.393 1.727 1.727 0 0 0-.206-.195c-.038-.038-.076-.067-.114-.097a2.031 2.031 0 0 0-.796-.415.955.955 0 0 0-.19-.021.657.657 0 0 0-.208.017c-.06.013-.078.119-.036.178.025.038.055.072.085.11a8.419 8.419 0 0 0 .664.8c.162.168.341.324.531.464.245.19.533.313.842.356l.093.35c.014.043.022.085.035.123.055.227.114.455.165.684.02.084.038.164.055.245.02.1.047.203.068.304.03.139.063.283.09.423a.149.149 0 0 1 .007.042c.025.099.042.206.064.307a27.927 27.927 0 0 1 .3 1.878l.037.267h.194c-.01-.08-.017-.156-.03-.236-.017-.131-.03-.258-.05-.39-.059-.435-.13-.866-.207-1.297-.034-.195-.072-.39-.11-.584-.025-.144-.055-.28-.085-.418a.13.13 0 0 0-.008-.042c-.03-.131-.055-.262-.085-.388l-.075-.326-.102-.415a1.088 1.088 0 0 0-.033-.121.12.12 0 0 0-.013-.05c0-.027-.01-.048-.016-.073-.038-.148-.076-.3-.12-.448a.915.915 0 0 0 .166-.086 1.14 1.14 0 0 0 .216-.152 1.98 1.98 0 0 0 .292-.287 1.778 1.778 0 0 0 .343-.558 3.88 3.88 0 0 0 .117-.35l.127-.507a.167.167 0 0 0-.115-.203l-.02-.02Z" fill="#68CBE3"/><path d="M160.752 104.648a.158.158 0 0 0-.063.013 1.018 1.018 0 0 0-.23.076.166.166 0 0 0-.05.017 1.7 1.7 0 0 0-.306.203 1.44 1.44 0 0 0-.19.177c-.212.21-.386.452-.517.723a13.756 13.756 0 0 0-.588-1.255 4.443 4.443 0 0 0 .46-.575c.107-.161.187-.343.234-.528.012-.055.024-.11.03-.165a.58.58 0 0 0 .003-.144c-.004-.127-.055-.228-.208-.194a.06.06 0 0 0-.025.008.234.234 0 0 0-.068.025 1.16 1.16 0 0 0-.499.518c-.043.08-.08.157-.11.225a3.56 3.56 0 0 0-.123.289 12.027 12.027 0 0 0-.677-1.005c.07-.097.17-.186.24-.287a1.178 1.178 0 0 0 .164-.313.757.757 0 0 0 .026-.06c.068-.214.098-.443.09-.667v-.118c-.018-.194-.085-.477-.28-.465a.246.246 0 0 0-.119.038c-.313.178-.355.693-.41.955a4.64 4.64 0 0 0-.06.486 4.72 4.72 0 0 0-1.144-1.027c.204-.338.22-.756.043-1.107a1.27 1.27 0 0 0-1.32-.566.107.107 0 0 0-.074.13c0 .01.004.015.008.023.212.427.453.833.724 1.226a4.766 4.766 0 0 0-.762-.215c-.482-.55-1.18-.896-1.83-.503a.126.126 0 0 0-.028.13 1.2 1.2 0 0 0 .995.71c.206.03.42.02.625-.02a1.44 1.44 0 0 1 .584-.032c.187.055.37.119.55.195a1.25 1.25 0 0 0-.724.32c-.23.226-.38.51-.436.83-.013.066.008.11.042.104.246-.068.474-.178.682-.322.317-.185.584-.442.787-.747l.021.01h.013c.453.29.855.662 1.181 1.089a1.784 1.784 0 0 0-.394-.076 1.655 1.655 0 0 0-1.202.306.154.154 0 0 0-.068.126c.043.27.39.258.784.224.33-.034.783-.25 1.1-.17.424.11.432.702.72.943a1.912 1.912 0 0 0-1.757-.32c-.042.013-.093.059-.093.094-.005.372.28.532.664.625.424.08.851.123 1.283.119h.124s.038-.005.055-.013h.017c.207.384.394.777.56 1.18a1.809 1.809 0 0 0-1.63-.17c-.056.02-.08.089-.048.11.534.38 1.186.549 1.838.473.038.098.072.196.1.293a13.116 13.116 0 0 1 .572 2.404h.199a3.186 3.186 0 0 0-.036-.27l-.05-.31a9.668 9.668 0 0 0-.122-.594 9.902 9.902 0 0 0-.183-.703 9.927 9.927 0 0 0-.173-.558 11.109 11.109 0 0 0-.136-.39c.143-.062.279-.142.405-.235a2.938 2.938 0 0 0 .407-.344l.063-.07a.51.51 0 0 0 .06-.072c.034-.043.063-.09.093-.136a1.99 1.99 0 0 0 .123-.224c.004-.012.012-.025.017-.038.05-.11.093-.22.143-.333.03-.064-.02-.106-.093-.098l-.017.013Zm10.698-4.46c-.338-.455-.94-.472-1.439-.413-.284.047-.559.14-.813.279a4.29 4.29 0 0 1-.703.355c-.254.076-.508.165-.757.258.478-.448.97-1.078.79-1.78a.101.101 0 0 0-.126-.063c-.008 0-.013.005-.017.009-.38.207-.71.499-.96.853a1.203 1.203 0 0 0-.191 1.188l-.03.013s-.013.004-.017.008c-.677.3-1.312.693-1.884 1.158.077-.152.14-.304.191-.465.224-.48.36-.993.402-1.521a.097.097 0 0 0-.089-.097c-.013 0-.02 0-.034.004-.27.055-.508.21-.669.435a1.735 1.735 0 0 0-.317.714c-.093.415.11.892-.01 1.28-.1.25-.27.466-.49.618a2.035 2.035 0 0 0-.533.609 4.37 4.37 0 0 0 .368-2.164c0-.026 0-.055-.008-.08a.097.097 0 0 0-.11-.077h-.009a1.209 1.209 0 0 0-.364.191c-.102.084-.19.177-.262.287-.05.068-.094.139-.132.215a2 2 0 0 0-.165.53c-.046.265-.051.54-.017.81.026.245.072.49.15.727-.001.013.003.021.007.03.008.03.017.063.03.097a.12.12 0 0 0 .038.046c0 .01 0 .013.004.017-.33.478-.635.972-.91 1.484 0-.275-.026-.554-.085-.82a.762.762 0 0 0-.038-.144 1.682 1.682 0 0 0-.34-.68 1.057 1.057 0 0 0-.124-.119.102.102 0 0 0-.136.03l-.012.025c-.017.064-.03.131-.038.2-.05.3-.059.6-.025.9a1.716 1.716 0 0 0 .534 1.127c-.047.093-.098.191-.14.284a34.931 34.931 0 0 0-.827 1.846c-.05.12-.097.24-.148.36-.038.088-.068.177-.106.266h.211l.096-.237a34.1 34.1 0 0 1 .711-1.644c.09-.19.177-.38.27-.57.043-.093.09-.186.136-.279.318.122.656.182 1 .182a4.21 4.21 0 0 0 1.015-.19c.072-.018.076-.085.03-.136-.373-.444-1.262-.503-1.82-.27.283-.529.596-1.036.935-1.526.44.118.902.152 1.355.106.211-.043.647-.089.39-.419a1.19 1.19 0 0 0-.923-.338 1.95 1.95 0 0 0-.35.017c.164-.203.338-.4.51-.596.187-.186.357-.384.56-.553.112.054.21.143.32.202.127.064.262.11.402.144.224.047.453.08.681.093.195 0 .661.093.547-.27-.096-.35-.574-.516-.862-.579a1.863 1.863 0 0 0-.538-.05 9.62 9.62 0 0 1 .817-.57c.287-.17.58-.323.884-.462.182.342.495.604.864.727.465.126.965.03 1.35-.258a.102.102 0 0 0 .013-.148l-.017-.017a3.005 3.005 0 0 0-1.389-.63c.322-.11.644-.21.974-.296.832.237 1.64.398 2.386-.126a.104.104 0 0 0 .009-.136h.004Z" fill="#68CBE3"/><path d="M162.217 92.468c.83-.735 1.605-1.479 1.909-2.595a.091.091 0 0 0-.063-.11h-.017c-.618.005-1.18.613-1.549 1.197a4 4 0 0 0-.458 1.073 9.125 9.125 0 0 1-.29 1.019c-.14.333-.27.667-.39 1.005a4.447 4.447 0 0 0-.09-1.28 1.201 1.201 0 0 0-.61-.87c-.06-.03-.133.029-.154.113a4.11 4.11 0 0 0-.098 1.619c.08.54.313.989.707 1.111l-.012.038v.022c-.296.95-.533 1.914-.71 2.894-.034-.236-.097-.469-.135-.62a5.235 5.235 0 0 0-.446-1.269 2.806 2.806 0 0 0-.259-.41c-.045-.055-.12-.03-.159.038a1.7 1.7 0 0 0-.207.977c0 .042.004.084.008.126.034.254.102.503.203.736.03.063.064.127.098.186.17.275.414.494.57.782.047.084.085.173.11.266.17.621-.22 1.42-.169 2.08 0 .016 0 .037.004.054 0-.034-.008-.063-.013-.097a6.518 6.518 0 0 0-.173-.854 5.063 5.063 0 0 0-.364-.976 2.597 2.597 0 0 0-.439-.642c-.034-.034-.089-.034-.119 0a.093.093 0 0 0-.017.025c-.186.35-.262.752-.216 1.145.023.223.071.43.133.628a4.365 4.365 0 0 0 .547 1.09c.131.202.28.397.436.583l.024.03c.024.03.05.06.075.083.013.017.03.025.051.03.004.003.008.011.017.015.001.072-.009.144-.009.212a35.43 35.43 0 0 0-.028 1.082v.056c-.004.333-.004.667-.004 1.001a4.839 4.839 0 0 0-.364-.729 2.631 2.631 0 0 0-.318-.44 1.34 1.34 0 0 0-.712-.464c-.03-.004-.06.017-.08.05a.184.184 0 0 0-.018.106c.085.331.195.656.335.97v.007c.1.236.231.46.38.667.19.283.46.5.78.62 0 .1 0 .192.007.285.004.274.013.55.02.82.005.2.014.397.022.595l.026.575c.006.237.02.473.036.71.025.393.046.782.072 1.171h.196l-.03-.53c-.017-.229-.03-.448-.038-.677a162.66 162.66 0 0 1-.038-.697c-.01-.194-.017-.385-.026-.575-.008-.24-.02-.482-.03-.727a34.22 34.22 0 0 1-.02-.853c0-.072-.005-.136-.005-.207a1.133 1.133 0 0 0 .263-.06c.008 0 .017-.004.03-.008a1.81 1.81 0 0 0 .284-.12 2.78 2.78 0 0 0 .33-.2c.008 0 .012-.008.02-.013a.108.108 0 0 1 .033-.02 1.59 1.59 0 0 0 .263-.24c.19-.22.368-.456.53-.697a.133.133 0 0 0-.022-.182l-.024-.012a.46.46 0 0 0-.123-.047.635.635 0 0 0-.2-.03.87.87 0 0 0-.209.024 1.555 1.555 0 0 0-.414.173c-.08.05-.16.106-.237.17-.077.06-.15.126-.216.194-.1.1-.194.215-.27.334-.019.03-.042.06-.059.088v-.976c0-.084 0-.165.005-.249 0-.245.008-.49.021-.736.005-.156.014-.316.021-.477.014-.01.026-.013.04-.02.086-.049.166-.09.242-.137.364-.186.686-.453.932-.778.165-.223.495-.679.1-.832-.32-.122-.71.157-.964.393a2.562 2.562 0 0 0-.237.24c-.017.018-.03.035-.047.052a6.94 6.94 0 0 1 .017-.203 29.081 29.081 0 0 1 .225-1.918c.127-.043.258-.043.381-.085a1.796 1.796 0 0 0 .602-.381 6.21 6.21 0 0 0 .43-.445c.127-.127.232-.27.32-.427.09-.165.12-.338-.037-.456-.305-.229-.804.13-1.067.355-.17.14-.326.3-.47.47.17-.889.39-1.768.657-2.63.355.143.88-.11 1.18-.364.47-.465.78-1.065.886-1.72a.095.095 0 0 0-.06-.119c-.02-.008-.042-.004-.063 0a4.026 4.026 0 0 0-1.545 1.061c.082-.216.171-.43.256-.642l.28-.634.016.03Z" fill="#68CBE3"/><path d="M163.521 115.712h-6.147l-1.52-8.558h8.878l-1.215 8.558h.004Z" fill="#F7A91B"/><path d="M163.923 116.524h-6.955l-.809-2.363h8.573l-.809 2.363Z" fill="#F19020"/><path d="M131.296 118.679c-.152.832-.69 1.644-1.503 1.876-1.156.32-2.273-.6-3.07-1.492a27.561 27.561 0 0 1-3.01-4.145 25.85 25.85 0 0 1-1.197-2.261c-.055-.115-.965-1.67-.965-1.708-.652 1.61-2.096 13.528-2.282 16.131-.377 5.283 1.35 7.954.94 13.245-6.537-.59-13.07-1.183-19.605-1.779.055.008-.394-13.78-.475-14.986-.177-2.52-.385-5.042-.635-7.552-.114-1.124-.169-2.198-.27-3.27-3.468 3.815-9.318 9.195-10.627 9.043-1.19-.143-1.934-1.474-1.87-2.662a7.1 7.1 0 0 1 .698-2.396c.28-.625.58-1.234.825-1.796.741-1.733 1.673-3.415 2.532-5.084 1.334-2.582 2.667-5.638 4.593-7.945.377-1.065 1.3-1.949 2.265-2.582 2.113-1.387 4.619-2.029 7.117-2.422 3.911-.609 7.798-.672 11.565.465a19.154 19.154 0 0 1 10.089 7.07c2.561 3.405 3.784 7.623 4.682 11.735.228.815.296 1.669.207 2.51l-.004-.004Z" fill="#4675B9"/><path d="M114.714 124.807h4.771c.034-.304.068-.63.106-.964h-4.877v.964Zm11.426-6.432h5.177a4.85 4.85 0 0 0-.008-.964h-5.927c.245.325.499.65.758.964Zm-11.426 0h5.554c.042-.326.089-.647.131-.964h-5.685v.964Zm0-6.437h6.57a6.84 6.84 0 0 1 .258-.963h-6.824v.963h-.004Zm7.391 0h7.9a23.04 23.04 0 0 0-.313-.963h-8.137c.034.076.3.536.546.963h.004Zm-7.391-6.432h12.43c-.213-.325-.43-.65-.661-.964h-11.774v.964h.005Zm0-6.436h5.639c-.644-.36-1.309-.68-1.99-.964h-3.65v.964Zm0 22.521h5.143c.038-.317.077-.638.119-.964h-5.262v.964Zm0-6.437h6.01c.052-.334.103-.655.154-.963h-6.16v.963h-.004Zm8.996-.236c.046.08.101.156.148.236h6.998c-.076-.32-.153-.642-.233-.963h-7.32c.136.245.267.49.407.727Zm-8.996-6.196h14.131a23.48 23.48 0 0 0-.45-.964h-13.681v.964Zm0-6.432h9.842c-.33-.338-.677-.655-1.024-.964h-8.818v.964Zm0 21.553h-.115v.964h.115v-.964Zm0-6.436h-.115v.963h.115v-.963Zm0-6.432h-.115v.963h.115v-.963Z" fill="#fff"/><path d="M114.714 104.538h-.115v.964h.115v-.964Zm0-6.432h-.115v.964h.115v-.964Zm0 22.521h-.115v.964h.115v-.964Zm0-6.436h-.115v.963h.115v-.963Zm0-6.437h-.115v.964h.115v-.964Zm0-6.432h-.115v.964h.115v-.964Zm0 36.353h5.529c-.017-.33-.04-.65-.068-.963h-5.457v.963h-.004Zm0-6.432h4.665a30.742 30.742 0 0 1-.097-.963h-4.568v.963Zm5.49 9.082c.01-.135.013-.262.022-.397h-4.403c1.46.131 2.921.266 4.377.397h.004Zm-5.49-5.866h5.16a71.57 71.57 0 0 0-.161-.963h-4.999v.963Zm0-6.436h4.504c.01-.304.021-.62.047-.943v-.021h-4.551v.964Zm0 8.689h-.115v.963h.115v-.963Zm0-6.437h-.115v.964h.115v-.964Zm0 3.22h-.115v.964h.115v-.963Zm0-6.436h-.115v.963h.115v-.964Zm-.225-3.217h-14.35l.04.964h14.3v-.964Zm.11 0h-.11v.964h.11v-.964Zm-27.763-5.468h6.68c.352-.313.704-.634 1.063-.964h-7.453a7.02 7.02 0 0 0-.295.964h-.005Zm27.653-.968H99.617l.09.963h14.782v-.963Zm.11 0h-.11v.963h.11v-.963Zm-.11-6.432h-24.3c-.17.32-.34.642-.5.963h24.8v-.963h-.01Zm.11 0h-.11v.964h.11v-.963Zm-.11-6.436H93.546c-.186.317-.372.638-.55.964h21.49v-.964h.003Zm.11 0h-.11v.964h.11v-.964Zm-.11-6.432h-14.478c-.682.266-1.338.592-1.969.964h16.443v-.964h.004Zm.11 0h-.11v.964h.11v-.964Zm-26.59 23.485h1.279c.529-.28 1.033-.6 1.507-.964h-3.726c.208.41.534.748.94.964Zm26.48-.964H99.897l.076.964h14.516v-.964Zm.11 0h-.11v.964h.11v-.964Zm-26.357-5.7c-.03.07-.072.155-.106.227h8.772c.322-.325.64-.646.948-.963h-9.275c-.104.245-.218.49-.324.735h-.005Zm26.247-.736H99.334c.02.317.055.642.08.963h15.07v-.963h.005Zm.11 0h-.11v.963h.11v-.963Zm-.11-6.437H91.828a96.12 96.12 0 0 1-.483.964h23.144v-.964Zm.11 0h-.11v.964h.11v-.964Zm-.11-6.432H95.642a3.56 3.56 0 0 0-.27.575c-.107.127-.2.262-.302.389h19.42v-.964Zm.11 0h-.11v.964h.11v-.964Zm-.11 35.39h-13.924c.01.368.017.697.026.963h13.898v-.963Zm.11 0h-.11v.963h.11v-.963Zm-.11-6.437h-14.118c.012.322.021.643.03.964h14.084v-.964h.004Zm.11 0h-.11v.964h.11v-.964Zm-.11 3.22h-14.017c.01.33.022.65.03.964h13.983v-.963h.004Zm.11 0h-.11v.964h.11v-.963Zm-.11-6.436h-14.224c.013.308.021.633.034.963h14.19v-.964Zm.11-.001h-.11v.964h.11v-.964Z" fill="#fff"/><path d="M104.265 79.773c-1.73 1.517-2.16 3.457-2.527 5.6-.419 2.463-1.448 4.352-.559 6.913.267.77.657 1.5.822 2.3.224 1.09.008 2.222.122 3.33.322 3.034 3.39 5.413 6.448 5.236 1.473-.085 2.963-.668 4.39-.287.96.257 1.757.925 2.671 1.322a4.222 4.222 0 0 0 3.489.022 3.118 3.118 0 0 0 1.778-2.887c-.106-1.534-1.503-2.988-.94-4.416.45-1.141 1.913-1.534 2.582-2.561.775-1.188.225-2.82-.707-3.888-.93-1.07-2.184-1.813-3.124-2.874-1.503-1.695-.457-3.178-1.156-4.949-1.304-3.305-5.177-5.317-8.632-4.898a8.53 8.53 0 0 0-4.657 2.037Z" fill="#F7A91B"/><path d="M103.511 149.981 91.49 184.892l1.937.665 12.02-34.911-1.936-.665Zm11.057-.007-1.938.665 12.021 34.91 1.938-.665-12.021-34.91Z" fill="#005384"/><path d="M123.608 137.253c-1.355 3.782 1.359 7.366.385 11.216-.779 3.098-3.58 5.36-6.608 6.382-1.952.608-3.984.93-6.028.955-.542.02-1.084.033-1.626.033h-.212a42.04 42.04 0 0 1-1.63-.033 21.205 21.205 0 0 1-6.038-.955c-3.027-1.023-5.83-3.288-6.61-6.382-.972-3.854 1.74-7.434.387-11.216-.92-2.56-3.142-4.586-3.628-7.26-.53-2.904 1.215-5.845 3.594-7.604 4.022-2.958 9.11-3.689 14.004-3.68h.03c4.877-.106 10.49 1.102 14.004 3.68 2.387 1.739 4.122 4.685 3.589 7.592-.487 2.676-2.714 4.7-3.628 7.26h.004Zm-7.063 22.052-20.634 14.59.592.835 20.634-14.59-.592-.835Z" fill="#005384"/><path d="m101.041 159.294-.592.835 20.635 14.58.592-.834-20.635-14.59Zm-23.522-65.95H36.975v.236h40.544v-.237Zm0-8.157H36.975v.236h40.544v-.236Zm0-8.157H36.975v.237h40.544v-.237Zm0-8.156H36.975v.236h40.544v-.236Zm0-8.153H36.975v.237h40.544v-.237Zm0-8.156H36.975v.237h40.544v-.237Z" fill="#005384"/><path d="M45.234 52.683h-.237v40.804h.237V52.683Zm8.137 0h-.237v40.804h.237V52.683Zm-16.278 0h-.237v40.804h.237V52.683Zm40.544 0H77.4v40.804h.237V52.683Zm-8.14 0h-.238v40.804h.237V52.683Zm-8.142 0h-.237v40.804h.237V52.683Z" fill="#005384"/><path d="M70.665 53.516h-10.55v12.682h10.55V53.516Z" fill="#68CBE3"/><path d="M63.409 63.282v-5h-.834v-.684c.24-.03.474-.122.673-.266.203-.135.36-.325.461-.545h.686v6.495h-.986Zm3.302-6.58c.406-.008.8.16 1.07.465.28.296.42.685.42 1.086v3.542c.01.405-.143.803-.422 1.099a1.462 1.462 0 0 1-2.07.042c-.018-.017-.04-.034-.056-.055a1.542 1.542 0 0 1-.41-1.086v-.14h1.015v.16a.612.612 0 0 0 .127.398.488.488 0 0 0 .724 0 .612.612 0 0 0 .127-.397v-1.302c-.199.195-.466.3-.74.305a1.11 1.11 0 0 1-.966-.453 1.824 1.824 0 0 1-.285-1.098v-1.116h.005c.008-.288.097-.57.258-.812.268-.41.729-.655 1.216-.646l-.003.008Zm.512 1.564a.623.623 0 0 0-.127-.401.482.482 0 0 0-.677-.047c-.017.013-.03.03-.047.047a.623.623 0 0 0-.127.4v1.2c0 .183.072.356.207.475a.38.38 0 0 0 .276.088c.237.013.44-.16.465-.393a.652.652 0 0 0 .026-.181v-1.188h.004Z" fill="#005384"/><path d="M71.765 75.619h-7.082v9.069h7.082v-9.07Z" fill="#F19020"/><path d="M69.644 74.79h-.49a.274.274 0 0 1-.276-.274V74.1a.577.577 0 0 0-.554-.574.599.599 0 0 0-.602.591v.402a.274.274 0 0 1-.275.275h-.49a.48.48 0 0 0-.48.477v.52h3.646v-.52a.48.48 0 0 0-.479-.478v-.004Zm-1.342-.465a.255.255 0 0 1-.254-.253.255.255 0 0 1 .508 0c0 .14-.114.253-.254.253Z" fill="#A7A8AB"/><path d="M70.123 75.619h-3.645v.498h3.645v-.498Z" fill="#929497"/><path d="M70.123 75.619h-3.645v.169h3.645v-.17Z" fill="#D1D3D4"/><path d="M56.06 84.422h-7.346v7.636h7.345v-7.636Z" fill="#68CBE3"/><path d="M52.694 87.338c.067-.03.148-.038.19-.102 0-.017 0-.03-.013-.042-.012-.008-.03-.013-.042-.008-.042.033-.08.1-.123.097-.042-.004-.084-.021-.11.02l-.038.04a.218.218 0 0 0-.013.028h.04a.397.397 0 0 0 .104-.029l.005-.004Zm.93-.807s.022.01.03.01a.238.238 0 0 0 .047-.043c.026-.02.047-.046.068-.067-.05-.064-.008-.093.017-.131a.091.091 0 0 0-.013-.03c-.013-.008-.03-.008-.046-.008-.013 0-.022.012-.022.02a.8.8 0 0 1-.076.243v.017h-.004Zm.273-.43v-.034c-.01 0-.026 0-.03.005a.258.258 0 0 0-.039.064v.05l.051-.01c0-.026.01-.047.01-.073Zm.325.156a.29.29 0 0 0-.03.085v.025h.017l.034-.022a.16.16 0 0 0 .043-.05.1.1 0 0 0-.02-.044.083.083 0 0 0-.044.003Zm-.995 1.698v.03c.01 0 .017.004.025 0a.129.129 0 0 0 .034-.034l.013-.013c.008-.017.012-.034.02-.05-.016.008-.033.02-.05.03a.129.129 0 0 0-.04.033l-.01.004Zm.144-.028a.16.16 0 0 1 .037.009.118.118 0 0 0 .013-.055c0-.01-.03-.018-.043-.022l.008.073-.004-.004Zm1.112-1.54.008.027h.017s-.004-.017-.013-.026h-.018.005Zm-.479-.318h-.026v.026s.017 0 .026-.008v-.02ZM53.1 88.13l-.009.026h.018a.06.06 0 0 1 .008-.026H53.1Zm.084-.067s.018-.002.026-.01v-.018h-.026v.026Zm.546-.535h.018V87.5h-.022s0 .017.01.025h-.005Zm-.19.228.026.01v-.018s-.018-.01-.027-.013v.02Zm-.512-.913v.026l.012.012s.01-.017.01-.025a.112.112 0 0 1-.022-.013Zm.241 1.252h.018v-.026h-.022s0 .017.008.026h-.005Zm.966-1.932h-.017a.061.061 0 0 1-.01.026h.018v-.026h.01Zm-.77.79v.025l.011.012s.01-.017.01-.025l-.02-.013Z" fill="#005384"/><path d="M54.527 86.484s.025.017.03.026c.012.05-.005.1.029.156.021.03-.008.03-.03.008-.038-.033-.067 0-.059.017.055.068 0 .09-.03.127a.085.085 0 0 0-.012.047v.072c-.102-.034-.05.076-.098.097a.082.082 0 0 1-.055.004.238.238 0 0 0-.237.02c-.017.009-.008.06-.025.069-.017.008-.06-.01-.089 0-.05.004-.042.059-.025.08.055.072.008.114-.03.118-.106.017-.127.102-.165.17-.043-.026-.08-.034-.11 0-.009.012-.03.033-.026.037.102.136-.063.11-.08.174-.004.012-.025.02-.034.03a.259.259 0 0 0-.017-.03c.03-.026.017-.047-.012-.072a.176.176 0 0 0-.047-.03c0 .009-.004.017-.004.03v.017c0 .034 0 .072.004.105-.05-.016-.068.034-.102.043a.221.221 0 0 0-.165.156c-.017.042-.02.114-.097.118-.017 0-.03.043-.034.068a1.77 1.77 0 0 0-.017.15c0 .03.017.05-.038.03-.08-.025-.182-.055-.186.08 0 .017-.043.029-.064.043a.329.329 0 0 0-.068.033c-.042.016-.038.025.01.076.016.017.037.034.05.055.01.013.017.034.01.043-.015.012-.027.017-.044.012-.02-.004-.042-.063-.05 0a.13.13 0 0 1-.043.064.085.085 0 0 1-.055.018c-.005 0-.017-.03-.022-.047-.004-.02-.017-.015-.02-.032 0-.008-.01-.016-.013-.02-.009-.002-.026.006-.026.01.004.05-.05.055.051.085-.008.02.034.076-.034.063-.02-.004-.055-.008-.068 0-.038.042-.055.118-.1.127-.077.013-.073.063-.094.114-.013.03-.009.063-.064.067a.097.097 0 0 0-.106.086.032.032 0 0 1-.017.026.668.668 0 0 1-.13.115.531.531 0 0 0-.09.148c-.025.047-.118.026-.118.102 0 .056-.09.056-.123.11-.034.056-.047.124-.119.145-.067.02-.055.135-.143.14-.051 0-.123.02-.123.058 0 .047-.03.085-.068.11a.098.098 0 0 0-.038-.013c-.009 0-.013.026.008.034-.004.003 0 .009 0 .009.03.058.03.058-.038.04-.02-.004-.06-.008-.063-.001-.009.035.008.107-.009.107-.046.004-.076.02-.076.067 0 .015-.013.019-.02.03-.048-.066-.094-.036-.158-.05-.058-.011-.079-.206-.16-.206 0-.025 0-.046-.047-.055-.055-.011-.072-.045-.042-.083.018-.017.051-.03.005-.077a.263.263 0 0 1-.075-.25c.01-.087.08-.083.093-.176a.335.335 0 0 1 .093-.17c.042-.042.126-.06.101-.16.002-.012.027-.016.044-.024.052-.034.162.008.166-.093 0-.008.026-.08.064-.076.013-.004.025.004.034.008 0 .013 0 .026-.009.03-.025.03-.055.05-.08.085-.009.012-.009.033-.013.055.026.004.064.02.076.008.038-.025.085-.05.09-.093.003-.05 0-.084.066-.068.012 0 .03-.016.03-.03-.03-.156.087-.206.126-.312.084.02.135.03.118-.084h.01s.035-.034.056-.043c.038-.016.084-.02.05-.084.014-.017.031-.034.035-.055.01-.042-.034-.118.064-.106.004-.001.012-.035.012-.056 0-.072.077-.076.115-.101.023-.017.02.02.006.038a.077.077 0 0 0-.008.03c.008 0 .025.004.03 0 .02-.017.038-.038.063-.055.008-.004.021-.004.03-.004v.05a.401.401 0 0 0-.005.124c.01.02.06-.055.055-.136 0-.033-.02-.08 0-.105.017-.026-.004-.085.068-.085.047 0 .09-.063.114-.11l.026-.042s.016.034.03.05a.269.269 0 0 1 .037-.033c-.005 0-.009-.004-.013-.008.03-.03.06-.055.097-.072.042-.017.097-.09.084-.093-.068-.01-.047-.026-.02-.06a.39.39 0 0 1 .216-.126c.05-.017.076-.021.025-.076.008-.01.013-.017.021-.022a.64.64 0 0 1 .055.05.187.187 0 0 1 .034-.044.245.245 0 0 1 .061-.021c.008-.005.016-.017.025-.022h.017c.004.01.012.026.008.026-.042.038-.084.093-.135.11-.048.012-.018.042-.027.063 0 0 .013.017.017.017.021-.004.051.025.064-.025.012-.051.05-.106.09-.106.08-.003.08-.045.065-.101-.008-.037.026-.016.038-.024.061-.04.121-.077.104-.17 0-.011.042-.041.064-.062a.221.221 0 0 1 .097-.042c.063-.013.008-.034 0-.051l-.038-.042c-.055.055-.11.11-.165.16a.039.039 0 0 1-.043 0 .081.081 0 0 1-.02-.042c.037-.021-.01-.118.08-.093l.09-.13.058.106s.034 0 .046-.01c.05-.024-.036-.113.057-.125.026 0 .034-.076.055-.127l.026.012s.008-.012.008-.016h-.03c-.036-.047-.01-.055.031-.051a.314.314 0 0 1 .06.017c.008-.064.055-.102.09-.148.031-.048.1-.031.112-.091 0-.004.013-.013.017-.013a.063.063 0 0 1 .025.023c-.025.037.013.109-.063.125-.047.009-.08.05-.115.085-.004.005.005.03.013.043a.046.046 0 0 0 .03.012c.03 0 .05-.11.09.008.01-.008.031-.012.036-.02.038-.123.144-.187.224-.271.03-.034.064-.064.093-.093a.355.355 0 0 0 .033-.051c-.02.008-.042.02-.063.03-.009.008-.018.025-.03.033-.014.009-.03.013-.044.02 0-.011.004-.03.012-.041.021-.03.055-.046.055-.097 0-.05.042-.038.072 0 .03.038.071.042.071-.008 0-.052.03-.027.05-.04.021-.013.013-.051.025-.072.004-.014.025-.014.042-.023a.124.124 0 0 0-.009.043c.017.067-.025.148.068.203-.007.008-.018.012-.018.025 0 .019-.103.045.011.062 0 .013-.008.026-.008.043 0 .012 0 .025.008.034l.132-.095a.89.89 0 0 1 .067-.088c.013-.013.047 0 .068 0 0 .017-.008.034-.013.05-.017.022-.042.038-.055.06-.008.008-.008.038 0 .042.064.043.043.107.055.162a.092.092 0 0 0 .021.03.17.17 0 0 0 .04-.03c.006-.011.015-.032.006-.04-.076-.085.034-.076.038-.12h-.008Zm-3.959 3.356s.03.013.064.025a.142.142 0 0 0-.021-.072c-.004-.008-.03-.008-.047-.012v.059h.005Zm.246-.085s-.025 0-.03.009c-.008.063-.008.122-.017.181 0 .022.039.068-.02.064-.04-.004-.064.013-.04.05.039.06.065.022.086 0l.02-.02.06-.06c.004-.004 0-.02 0-.03-.14-.016.03-.067-.034-.092a.176.176 0 0 0 .016-.064c0-.008-.025-.03-.038-.038h-.004ZM50.7 89.6h-.102c-.004 0 0 .021 0 .042.038 0 .072 0 .102-.008.004 0 0-.021 0-.03V89.6Zm.436-.376s.042-.034.046-.03c.076.06.051-.008.064-.034 0 0 .004-.008.008-.012-.008-.034-.03-.064-.063-.072.002 0-.006 0-.01-.004-.01.025-.01.055-.048.05l-.018-.008-.013.013c-.01.017-.044.02-.019.05.027.03.044.06.061.047Zm-.445.262s.06-.025.013-.068c-.013-.012-.034-.012-.089.004-.013.017-.03.026.013.055a.06.06 0 0 0 .059.009h.004Zm.369.245h-.043c.017.076-.055.05.076.131.043-.008.03-.047.013-.089a.113.113 0 0 0-.046-.042Zm.004-.414c-.055-.038-.064.034-.102.055-.008.004-.017.013-.025.02a.244.244 0 0 0-.047.048c-.025.034-.084.043-.063.11 0 .013.004.026.008.043h.034c.03-.026.085-.047.076-.08-.012-.077.09-.039.077-.073-.026-.07.06-.1.038-.118l.004-.004Zm.22.165s-.008-.093-.004-.102a.098.098 0 0 0-.047.013c-.004.004 0 .021 0 .034.017 0 .038.063.055.059l-.004-.004Zm.11-.27a.324.324 0 0 0-.076-.026c-.009.034-.03.072-.017.097a.21.21 0 0 1 .03.203.11.11 0 0 0 .03.046c.018.01.047-.004.047-.012-.013-.068.055-.08.064-.127.004-.038-.038-.097-.06-.148-.007-.008 0-.03-.007-.034Zm-.127-.25.025-.021c.017-.013.03-.03.047-.047l-.013-.03-.084.085s.025.021.03.017l-.005-.004Zm.165-.004c-.06-.043-.06.017-.08.03.008.025.017.05.03.071.029-.013.054-.034.08-.05 0 0-.013-.039-.03-.047v-.004Zm.326.046h-.017s-.017.009-.021.017a.079.079 0 0 0 .004.11c.047.05.06-.009.08-.021.01-.009.022-.017.03-.03-.025-.02-.05-.05-.08-.076h.004Zm-.2-.224a.137.137 0 0 0-.085-.05.19.19 0 0 1-.012.067c-.01.034-.072.03-.043.089a.977.977 0 0 0 .114-.06.173.173 0 0 0 .02-.037l.005-.01Zm-.076-.114c.025-.034.068-.068.089-.093.004-.004-.004-.034-.017-.042a.038.038 0 0 0-.042 0c-.013.01-.034.02-.034.04a.48.48 0 0 1 0 .113l.004-.01Zm.55.275-.055.012c-.025.017-.038.043 0 .068.013.008.038 0 .072 0a1.404 1.404 0 0 0-.012-.076l-.005-.004Zm-.17-.288c-.054-.038-.058-.025-.092.043a.05.05 0 0 1-.021.02.377.377 0 0 0-.034-.07.672.672 0 0 0-.047.202h.003s.017-.009.022-.02c.012 0 .02 0 .03.007l.046.021c-.01-.017-.013-.034-.021-.046-.051-.043-.034-.068 0-.093.012 0 .03.012.042.008.013-.004.02-.008.034-.008a.158.158 0 0 0 .038-.064Zm.162-.165s-.021-.016-.034-.02c-.068-.01-.076.008-.03.071.03.038.034.097.013.097-.008 0-.017 0-.025.005v.05a.084.084 0 0 0 .034.06c0-.03.03-.046.059-.046l-.013-.207h-.004Zm-.055-.168c-.043-.039-.06.016-.076.037-.017.022-.09.038-.026.09.047.041.05-.026.08-.034.013-.026.085-.034.026-.09l-.004-.004Zm.61-.157a.054.054 0 0 0 .038-.068c-.01-.02-.022-.037-.034-.059-.017-.004-.03-.008-.047-.004a.06.06 0 0 0-.03.01v.016a.043.043 0 0 1-.02.026c.003.013.012.03.025.042a.108.108 0 0 0 .08.042l-.004-.004Zm.05-.279c-.046-.03-.076 0-.123.026-.008.004-.033.03-.042.03 0-.002-.008-.002-.013-.006-.004.017 0 .034.022.055 0 0 .05-.009.097 0 0 0 0-.017.008-.026.009-.008.026 0 .043 0v-.076l.008-.004Zm-.17-.05s0 .025-.003.033a.032.032 0 0 0-.01.021v.005c.005 0 .01.004.014.008l.008-.008c.02-.026.06-.043.06-.08 0-.013 0-.026-.005-.034-.03.004-.05.03-.055.059l-.008-.005Zm-.067.02s.034-.008.042-.016a.23.23 0 0 0 .03-.055l-.05.012-.022.06Zm-.203-.02c.025.046.093.03.114.02.009 0 .009-.016.013-.029a3.005 3.005 0 0 1-.026-.013c-.016.001-.042-.007-.05.001a.07.07 0 0 1-.051.021Zm.3.38.05-.021v-.05s-.024.012-.033.02c-.008.017-.012.034-.017.05Zm-.427-.22.03.025.055-.071-.043-.03-.042.076Zm.3.203c-.025-.008-.063-.025-.11-.042-.02.025-.046.046-.072.067-.06.048-.042.115-.02.174.013.03.05.08.098.026.017-.013.033-.017.055-.013.063.03.055-.067.11-.046-.005-.033 0-.071-.017-.097-.03-.038-.047.005-.068.017-.008.005-.017.017-.025.022-.022.016-.038.067-.08.016-.035-.038.004-.05.025-.067a.692.692 0 0 1 .093-.06l.013-.008v.013Zm.013-.008a.575.575 0 0 0-.076-.08c-.013.01-.021.02.072.08l.004-.009Zm.28.04s-.026.001-.038.01a.125.125 0 0 1-.043.016l.08.043v-.073Zm.089-.34.02-.02c.026-.023.043-.053.035-.087 0-.025.063-.025.033-.072a.317.317 0 0 0-.072.06c-.007.016-.02.03-.028.042.008.008.017.017.017.03a.057.057 0 0 1-.064.037.062.062 0 0 0 0 .055c.02 0 .047-.005.068 0 .008-.009.017-.013.02-.02.005-.01 0-.023 0-.03-.007 0-.02-.006-.024 0l-.01.007v-.004Zm.198-.069a.072.072 0 0 0-.063.08v.012a.112.112 0 0 1-.013.05l.06-.024a.73.73 0 0 0 .02-.11l-.008-.005.004-.005Zm.119-.212s-.034-.029-.055-.033c-.021.001-.042.001-.06.011-.063.05-.063.08-.025.138.005.01.02.004.034.01-.013-.069.064-.052.085-.086a.117.117 0 0 0 .02-.038Zm.207-.798s.034-.019.05-.033c.03-.019.044-.062.094-.054 0 0 .009-.02.005-.03-.03-.05-.064-.054-.11-.008a16.75 16.75 0 0 1-.026.063l-.013.07v-.01Zm-.156.311h.017a.23.23 0 0 0 .036-.048l.017-.05s-.034.02-.05.033a.13.13 0 0 0-.035.034c-.005.01-.001.021.004.03Zm.089.33s-.034.007-.043.015a.23.23 0 0 0-.03.055l.052-.014.02-.059Zm.38.011-.075-.013.012.047s.034 0 .05-.003c.005 0 .005-.013.009-.026l.005-.005Zm-.135-.423s-.03.021-.042.017c-.076-.007-.102.056-.144.09-.034.03-.136.025-.05.118.008.01 0 .038-.01.043a.36.36 0 0 1-.148.045c-.046-.01-.072.008-.046-.013v-.06.01c0 .016 0 .033-.042.096-.023.021-.015.045.025.071.085.05.093.055.114-.02.013-.045.026-.066.068-.078a.202.202 0 0 0 .144-.136c.004-.012.008-.042.013-.042.093.017.067-.08.11-.11.004 0 .004-.02.008-.038v.004Zm.06-.152a.15.15 0 0 0 .072-.063c.004-.004 0-.02 0-.03-.013.009-.03.013-.043.017-.038.01-.038-.003-.021-.03a.214.214 0 0 0 .013-.03c-.013 0-.03-.006-.034 0a.726.726 0 0 0-.08.08l-.043.078c.047 0 .089 0 .13-.012l.006-.01Zm.292.08s-.022-.012-.026-.008a.39.39 0 0 0-.06.06l-.033.05c.047.025.047-.025.072-.038a.241.241 0 0 0 .047-.046v-.017Zm-.038-.376s-.005.03-.01.043c-.003.01-.007.016-.012.029-.004.02-.063.037-.017.054.03.009.068.07.106.02 0-.004.013-.012-.068-.143Zm.02 0 .08.106c0-.004.022-.03.018-.042a.113.113 0 0 0-.103-.06l.005-.004Zm.136-.152.047.013c.012 0 .025.004.034 0 .017 0 .046-.013.042-.017-.01-.026-.017-.056-.03-.08-.012 0-.025.003-.034-.005v.012c-.012.013-.025.021-.033.034-.013.017-.017.03-.026.042Zm.026.17s.025-.034.033-.051l-.033-.016-.04.072s.03.004.035 0l.005-.005Zm.465 0h-.03c-.03.025-.054.054-.084.08-.03.025-.064.063-.093.093-.004.004 0 .02 0 .03h.03s.043-.018.064-.018c.063.013.08-.012.076-.072a.316.316 0 0 1 .03-.088c0-.01.004-.018.004-.027h.004Z" fill="#005384"/><path d="M52.02 89.359a.853.853 0 0 0 .035-.11c0-.013-.008-.026-.017-.043a1.462 1.462 0 0 0-.064.085c0 .004.017.025.043.064l.004.004Zm-.16.066.084.017-.02-.076s-.043 0-.05.009c-.01.008-.01.033-.014.05Zm-.818-.477v-.064a.238.238 0 0 0-.05-.016l-.02.071c.024.009.058.021.075.013l-.005-.004Zm.251-.338-.05.013-.014.064c.013 0 .03 0 .038-.009a.33.33 0 0 0 .03-.068h-.004Zm-.077 1.411v.013s-.008 0-.008-.004c-.013.008-.026.025-.009.042a.317.317 0 0 0 .076-.038c-.008-.034-.042.008-.055-.013h-.004Zm.5-.46v.013s-.017.026-.009.034c.01-.008.048-.02.044-.039-.005-.017-.026-.013-.04-.008h.005Zm.516-.566v.042c.026-.008.043-.025.065-.042-.026-.035-.039-.005-.06 0h-.005Zm-1.18 1.174h.016a.05.05 0 0 0 .02-.02s-.008 0-.008-.007c-.008.01-.016.013-.029.021v-.004Zm1.66-1.72c-.035.003-.048.06-.014.084.03-.017.09-.03.107-.055a.111.111 0 0 0-.086-.043m.123-.083s-.02.04-.008.057c.05 0 .08-.017.055-.056-.008-.018-.03-.018-.038-.035-.017-.03 0-.05-.03-.076-.094.033.013.084 0 .135h.01m.44.1c.03.068.04.148.1.19.02.001.03.001.05-.01a.054.054 0 0 0 .01-.044c-.034-.042-.102-.08-.1-.122.007-.042.024-.085-.02-.11l-.037-.038-.031-.013v.04a.437.437 0 0 0 .028.105l.003.004Zm.81.926s-.002.02 0 .03a1.359 1.359 0 0 0 .116.11c.065-.052.094-.01.13.016a.088.088 0 0 0 .03-.013c.008-.009.008-.028.008-.044 0-.013-.013-.02-.022-.02a.804.804 0 0 1-.24-.077h-.018Zm.44.27h.04c0-.008 0-.025-.004-.03a.253.253 0 0 0-.064-.037h-.051c0 .02.009.031.014.051a.45.45 0 0 0 .072.019Zm-.15.33a.288.288 0 0 0-.085-.03h-.025V90c.008.013.017.026.02.034.014.017.035.03.052.043a.101.101 0 0 0 .043-.02.075.075 0 0 0-.005-.044Zm-1.702-.993h-.03c0 .008-.004.017 0 .025a4.262 4.262 0 0 0 .046.046c.017.007.034.01.05.02l-.03-.052a.13.13 0 0 0-.031-.032l-.005-.008Zm.03.143s-.005.017-.01.026a.116.116 0 0 0 .056.012c.008 0 .017-.03.02-.042h-.07l.003.004Zm1.54 1.095-.023.01v.016s.017-.005.026-.01v-.017Zm.32-.473v-.026h-.025s0 .018.008.026h.018Zm-2.065-.904s-.02-.005-.027-.01v.018a.06.06 0 0 1 .026.01v-.018Zm.066.088s-.001.018.008.026h.017v-.026h-.026Zm.532.545v.018h.026v-.022s-.017.001-.026.011v-.006Zm-.228-.19-.01.025h.017l.013-.025h-.023Zm.914-.51h-.026l-.012.011s.017.01.025.01l.014-.023Zm-1.253.235v.018h.026v-.022s-.018 0-.027.01v-.006Zm1.935.97V90a.061.061 0 0 1-.026-.008v.017h.026v.009Zm-.793-.77h-.025l-.012.011s.017.011.025.011l.013-.022Z" fill="#005384"/><path d="M54.12 90.313s-.017.025-.025.03c-.05.016-.102-.005-.157.03-.03.02-.03-.01-.008-.03.034-.038 0-.068-.017-.06-.068.055-.089 0-.127-.03a.085.085 0 0 0-.047-.012h-.083c.035-.101-.075-.05-.096-.097a.082.082 0 0 1-.004-.055.237.237 0 0 0-.022-.237c-.01-.017-.06-.008-.068-.025-.009-.017.008-.06 0-.089-.004-.05-.06-.042-.08-.03-.072.055-.115.01-.12-.029-.016-.106-.1-.127-.168-.165.024-.042.032-.08 0-.11-.014-.008-.035-.03-.039-.025-.132.1-.11-.063-.174-.08-.013-.005-.02-.026-.03-.034a.717.717 0 0 0 .03-.017c.025.03.047.017.072-.013.013-.012.021-.03.03-.046-.01 0-.018-.004-.03-.004h-.124c.016-.047-.035-.06-.043-.098a.221.221 0 0 0-.157-.165c-.042-.016-.114-.02-.118-.097 0-.017-.043-.03-.068-.034a1.776 1.776 0 0 0-.148-.016c-.026 0-.05.016-.03-.038.034-.08.063-.182-.072-.186-.017 0-.03-.04-.042-.06-.013-.02-.02-.04-.034-.061-.02-.047-.026-.043-.076.004-.017.017-.034.038-.055.05-.013.01-.034.017-.043.01-.012-.014-.017-.026-.012-.043.004-.02.063-.041 0-.05a.13.13 0 0 1-.064-.042.085.085 0 0 1-.017-.055c0-.003.03-.016.047-.02.018-.005.013-.017.031-.021.011 0 .018-.01.022-.013 0-.01-.008-.025-.012-.025-.05.005-.055-.05-.085.05-.02-.007-.076.035-.063-.033.006-.02.011-.055.001-.067-.04-.04-.116-.056-.124-.103-.013-.076-.064-.072-.115-.093-.03-.011-.063-.007-.067-.062a.096.096 0 0 0-.085-.106.046.046 0 0 1-.026-.018.677.677 0 0 1-.112-.13.528.528 0 0 0-.15-.09c-.045-.024-.024-.117-.1-.117-.06 0-.06-.088-.115-.122-.055-.034-.123-.047-.144-.118-.02-.068-.135-.056-.14-.144 0-.05-.02-.123-.06-.123-.045 0-.083-.03-.11-.066.01-.014.018-.031.014-.04-.004-.008-.026-.012-.034.01-.004-.005-.008-.001-.008-.001-.06.03-.06.03-.043-.038.005-.021.009-.06 0-.063-.034-.01-.106.008-.106-.01-.004-.045-.02-.075-.067-.075-.013 0-.017-.013-.03-.021.068-.047.038-.093.05-.156.014-.068.208-.09.208-.17.026 0 .047 0 .055-.046.013-.055.047-.072.085-.042.017.017.03.05.076.004a.264.264 0 0 1 .25-.076c.089.008.085.08.178.093a.308.308 0 0 1 .166.093c.042.042.06.127.16.1.01 0 .013.029.022.046.034.05-.01.16.093.164.007 0 .079.026.075.064 0 .013-.008.025-.013.034-.012 0-.025 0-.03-.01-.03-.024-.05-.054-.084-.08-.012-.008-.034-.008-.055-.012 0 .026-.021.064-.008.076.025.039.05.086.093.09.05.004.084 0 .068.068 0 .012.017.03.03.03.156-.03.207.084.313.126-.022.083-.03.134.084.117v.009a.108.108 0 0 1 .043.055c.016.038.02.084.084.05.017.013.034.03.055.034.042.009.119-.034.106.064 0 .005.034.013.055.013.072 0 .076.076.102.114.017.026-.021.022-.038.009a.078.078 0 0 0-.03-.01c0 .01-.004.027 0 .03.017.022.038.039.055.06.004.008.004.019.008.029h-.05a.305.305 0 0 0-.123-.004c-.021.008.055.059.135.054.034 0 .08-.017.106 0 .026.017.085-.004.085.068 0 .047.063.089.11.114l.042.026s-.036.017-.052.03c.012.013.025.025.033.038 0-.004.005-.008.009-.013.03.03.055.06.072.099.017.042.09.097.093.084.008-.067.025-.046.06-.02.063.053.11.129.126.214.018.05.021.076.077.025.01.006.017.01.022.018a.637.637 0 0 1-.05.056.19.19 0 0 1 .044.034.246.246 0 0 1 .021.058c.005.008.017.017.022.025v.017c-.01.005-.026.014-.026.01-.037-.043-.092-.085-.11-.136-.01-.046-.04-.016-.061-.025 0 0-.017.013-.017.017.004.02-.026.05.025.063.047.008.106.049.106.089-.001.08.04.08.096.067.038-.01.017.025.03.038.038.059.076.118.17.1.012 0 .042.045.063.066a.22.22 0 0 1 .039.097c.014.063.035.008.05 0l.047-.038a5.747 5.747 0 0 1-.16-.166.038.038 0 0 1 0-.042.081.081 0 0 1 .042-.02c.02.038.118-.01.093.08l.13.089-.106.059s0 .034.01.046c.02.047.113-.038.126.055 0 .025.079.037.13.054h.004-.008s-.01.013-.013.02c0 0 .013.01.017.01v-.03c.046-.036.055-.011.05.03a.17.17 0 0 1-.014.06c.063.009.1.056.148.09.046.034.025.1.09.114.003 0 .01.013.01.017a.07.07 0 0 1-.02.025c-.04-.025-.11.013-.127-.063-.008-.046-.05-.075-.084-.114-.004-.004-.03.005-.042.013a.046.046 0 0 0-.01.029c0 .03.11.05-.01.089.009.012.013.038.02.038.124.038.188.143.27.224.034.03.064.063.093.093.017.01.034.024.05.032-.007-.02-.02-.042-.03-.063-.007-.012-.024-.02-.032-.033-.01-.013-.013-.025-.022-.042a.08.08 0 0 1 .043.013c.03.02.046.054.097.054.05 0 .038.043 0 .072-.038.03-.038.072.01.072.045 0 .024.034.037.047.012.012.05.012.072.025.01.004.01.025.02.042-.014 0-.03-.008-.043-.008-.068.016-.15-.027-.204.066-.008-.008-.012-.02-.025-.02-.022 0-.048-.102-.065.012-.014 0-.027-.008-.044-.008-.013-.001-.025-.001-.034.007l.092.127c.03.02.06.042.09.067.012.015 0 .049 0 .07-.018 0-.035-.008-.052-.013-.02-.016-.038-.042-.059-.055-.008-.007-.038-.007-.042 0-.045.065-.108.044-.163.056a.093.093 0 0 0-.034.022.195.195 0 0 0 .03.037c.012.008.033.016.042.008.08-.072.072.038.114.042l.004.013Zm-3.36-3.951s-.014.03-.026.063c.025 0 .05-.009.072-.02.008-.005.008-.03.012-.048h-.059v.005Zm.084.245s0-.026-.009-.03c-.063-.008-.123-.008-.182-.017-.021 0-.068.038-.063-.02.004-.039-.013-.064-.051-.039-.06.038-.021.063 0 .084l.02.022.052.06c.004.003.02 0 .029 0 .017-.14.068.03.093-.035.02.008.041.017.063.017.008 0 .03-.025.038-.038v-.004Zm.156-.114v-.102s-.02.011-.042.011c0 .037 0 .07.008.1 0 .005.022.002.03.002H51Zm.377.435s.034.042.03.046c-.06.076.008.051.034.064a.03.03 0 0 1 .023.008c.033-.008.063-.03.071-.063 0-.009 0-.017.005-.021-.026-.009-.056-.009-.05-.047 0-.004 0-.008.006-.017 0-.004-.008-.008-.013-.013-.016-.008-.02-.042-.05-.016-.03.025-.06.042-.047.055v.004Zm-.262-.444s.025.06.067.013c.013-.013.013-.034-.004-.089-.017-.013-.025-.03-.055.013a.06.06 0 0 0-.008.06v.003Zm-.25.368v-.043c-.076.017-.051-.055-.131.076.008.043.046.03.088.013a.092.092 0 0 0 .043-.046Zm.415.008c.038-.055-.034-.063-.055-.101a.113.113 0 0 0-.022-.026.241.241 0 0 0-.046-.046c-.034-.025-.042-.085-.11-.063-.013 0-.025.004-.042.008v.034c.025.03.046.084.08.076.076-.013.038.089.072.076.072-.025.102.06.12.038l.003.004Zm-.17.22s.093-.008.102-.004a.097.097 0 0 0-.013-.047c-.015-.008-.032 0-.045 0 0 .017-.059.038-.059.055l.003-.004Zm.271.11c.009-.026.022-.05.026-.076-.038-.009-.072-.03-.098-.017a.218.218 0 0 1-.203.025.096.096 0 0 0-.046.03c-.009.012.004.042.012.042.068-.013.08.055.127.063.04.01.09-.038.14-.059.01-.008.032 0 .032-.008Zm.246-.127.021.025c.013.017.03.03.047.047l.03-.013-.085-.089s-.017.026-.013.03Zm0 .165c.042-.06-.017-.06-.03-.08 0-.005-.034.012-.072.03.013.03.034.054.051.08 0 0 .038-.017.047-.03h.004Zm-.05.33v-.017s-.01-.017-.018-.022c-.034-.03-.08-.03-.11 0-.05.047.01.06.021.08.01.01.017.022.03.03.025-.025.05-.05.076-.08v.008Zm.22-.2a.136.136 0 0 0 .05-.084.19.19 0 0 1-.068-.012c-.034-.009-.025-.072-.089-.043a.62.62 0 0 0 .064.115c.013.008.025.016.038.02l.004.005Zm.11-.075c.033.025.067.067.092.088.005.005.034-.004.043-.016a.038.038 0 0 0 0-.043c-.005-.012-.021-.033-.034-.033a.483.483 0 0 1-.11 0l.008.004Zm-.28.55-.013-.056c-.017-.025-.042-.038-.068 0-.008.013 0 .038 0 .072l.08-.013v-.004Zm.283-.17c.04-.055.026-.059-.042-.093a.05.05 0 0 1-.021-.02.372.372 0 0 0 .072-.035.68.68 0 0 0-.21-.046h-.008s.017.025.03.025c0 .013 0 .021-.009.03-.009.017-.013.03-.02.046.015-.008.032-.012.045-.025.042-.05.068-.034.093 0 0 .013-.013.03-.009.042.004.013.008.021.008.034a.15.15 0 0 0 .06.038v.004Zm.161.16s.017-.02.022-.033c.008-.068-.009-.076-.072-.03-.038.03-.098.034-.094.013 0-.008 0-.017-.004-.025h-.05a.084.084 0 0 0-.05.033c.03 0 .045.03.045.06.068 0 .14-.009.208-.013l-.005-.004Zm.166-.054c.038-.043-.018-.06-.039-.076-.02-.017-.038-.089-.089-.03-.042.047.026.05.034.08.026.013.034.085.09.026h.004Zm.152.608c.008.03.038.047.068.038.02-.008.038-.02.059-.033.004-.017.008-.03.004-.047a.06.06 0 0 0-.008-.03h-.017a.043.043 0 0 1-.026-.02.113.113 0 0 0-.042.025.127.127 0 0 0-.042.072l.004-.005Zm.275.051c.03-.046 0-.076-.025-.123-.005-.008-.03-.033-.03-.042 0-.004 0-.008.004-.012-.017-.005-.034 0-.055.02.021.022.009.056 0 .102.009 0 .017 0 .026.009.008.008 0 .025 0 .042h.076l.004.004Zm.047-.169s-.026 0-.034-.004c-.009-.004-.013-.009-.021-.009h-.005c.01.005 0 .009 0 .013h.01c.026.025.043.063.08.063.018 0 .026-.004.035-.004-.004-.03-.03-.05-.06-.055l.006-.004Zm-.03-.068s.009.034.017.043a.234.234 0 0 0 .055.03l-.013-.05-.06-.023v.001Zm.021-.203c-.046.026-.03.094-.021.115 0 .008.017.008.03.012l.012-.025c0-.017.009-.042 0-.05a.07.07 0 0 1-.02-.052Zm-.385.3.021.051h.05s-.012-.025-.02-.034a.24.24 0 0 0-.051-.016Zm.216-.426-.026.03.072.054.03-.042-.076-.042Zm-.203.296c.008-.026.025-.064.042-.11-.026-.021-.047-.047-.068-.072-.046-.06-.114-.042-.173-.021-.03.012-.08.05-.026.097.013.017.017.034.013.055-.03.063.068.055.046.11.034-.004.072 0 .098-.017.038-.03-.004-.047-.017-.068-.004-.008-.017-.017-.021-.025-.017-.021-.068-.038-.017-.08.038-.034.05.004.068.02.02.03.042.06.059.094l.008.02-.012.007Zm.008.012a1.28 1.28 0 0 1 .076-.072c-.012-.012-.03-.02-.08.072h.004Zm-.05.28s-.005-.026-.013-.039a.128.128 0 0 1-.017-.042l-.043.08h.072Zm.334.088.02.021c.022.025.052.042.086.034.025 0 .025.063.072.034a.312.312 0 0 0-.06-.072c-.017-.009-.03-.021-.042-.03-.008.009-.017.017-.03.017a.057.057 0 0 1-.038-.063.063.063 0 0 0-.055 0c0 .02.004.046 0 .067.01.009.013.017.021.02.01.006.022 0 .03.006 0-.01.004-.021 0-.026l-.008-.008h.004Zm.067.199a.072.072 0 0 0-.08-.064h-.013a.112.112 0 0 1-.05-.013l.025.06a.73.73 0 0 0 .11.02l.008-.008v.005Zm.212.118s.03-.034.034-.055c0-.021 0-.042-.009-.06-.05-.063-.08-.063-.143-.025-.009.005-.005.022-.009.034.068-.023.05.053.085.074.008.009.034.026.038.02h.004Zm.796.207s.021.034.034.05c.021.03.063.043.055.094 0 0 .025.008.03.004.05-.03.055-.063.008-.11l-.063-.025a.642.642 0 0 0-.057-.013h.003Zm-.313-.156v.016a.232.232 0 0 0 .046.047l.051.017s-.02-.034-.034-.05a.128.128 0 0 0-.034-.035c-.008-.004-.02 0-.03.005Zm-.335.093a.132.132 0 0 0-.017-.054.23.23 0 0 0-.055-.03l.013.053.06.02Zm-.012.365.012-.075-.046.012s0 .034.004.05c0 .005.017.005.025.01l.005.004Zm.423-.13s-.02-.03-.017-.043c.01-.076-.055-.1-.093-.143-.03-.034-.026-.136-.119-.05-.008.007-.038-.001-.042-.011a.358.358 0 0 1-.047-.147c.009-.047-.008-.072.013-.047h.06-.01s-.033 0-.096-.046c-.023-.022-.047-.013-.072.026-.05.084-.055.092.02.113.043.013.064.025.077.068a.202.202 0 0 0 .135.144c.013.003.043.01.043.015-.017.093.08.068.11.11.004.009.025.005.038.009Zm.148.063a.15.15 0 0 0 .064.072c.004.004.02 0 .03 0-.005-.013-.014-.03-.018-.042-.008-.038.01-.038.03-.021a.21.21 0 0 0 .03.013c0-.012.008-.03 0-.034-.026-.03-.05-.054-.08-.084l-.077-.042c0 .046.004.088.013.135l.008.004Zm-.085.292s.013-.021.01-.026a.386.386 0 0 0-.06-.06l-.05-.033c-.027.047.024.05.037.072.013.017.03.034.047.047h.016Zm.373-.038s-.03-.005-.042-.01c-.013-.003-.017-.007-.03-.012-.02-.004-.038-.063-.05-.016-.01.03-.073.067-.022.105.004.004.013.013.144-.067Zm-.008.02a5.178 5.178 0 0 1-.106.08c.004 0 .03.022.042.018a.103.103 0 0 0 .06-.097h.004Zm.148.136-.013.046v.034c0 .017.013.047.017.043.025-.01.055-.018.08-.03 0-.014-.004-.026.005-.035h-.013s-.02-.03-.034-.038l-.042-.025v.004Zm-.174.025s.034.026.05.034l.018-.034-.072-.038s-.004.03 0 .034l.004.004Zm0 .465v-.03c-.025-.03-.055-.053-.08-.083-.026-.03-.064-.063-.093-.093-.005-.004-.022 0-.03 0v.03s.017.042.017.063c-.013.064.012.08.072.076.03.006.06.018.09.03.007 0 .02.005.03.009h-.006Z" fill="#005384"/><path d="M51.246 87.816a.857.857 0 0 0 .11.034c.014 0 .026-.009.043-.017-.025-.022-.055-.043-.085-.064-.004 0-.026.017-.064.042l-.004.005Zm-.068-.161c-.004.025-.008.05-.017.084l.087-.017s0-.042-.009-.05c-.009-.009-.034-.009-.05-.013v-.004Zm.478-.816h.064a.24.24 0 0 0 .017-.05l-.072-.018c-.004.026-.02.06-.013.076l.004-.008Zm.34.25s-.01-.03-.014-.051l-.063-.013s0 .03.008.038a.327.327 0 0 0 .068.03v-.005Zm-1.415-.077h-.012s0-.008.005-.008c-.009-.013-.026-.026-.043-.009a.32.32 0 0 0 .038.076c.034-.013-.008-.046.013-.055v-.004Zm.464.495h-.013s-.026-.017-.035-.009c.01.01.022.048.04.043.016-.004.012-.025.008-.038v.004Zm.567.52h-.043c.008.025.025.042.043.064.034-.026.004-.043 0-.06Zm-1.178-1.18h-.008v.018a.051.051 0 0 0 .02.02s0-.008.005-.008a.12.12 0 0 1-.02-.03h.003Zm1.715 1.657c-.004-.034-.06-.047-.085-.012.017.03.03.089.055.106a.111.111 0 0 0 .043-.085m.084.123s-.038-.022-.055-.009c0 .051.017.081.055.051.017-.008.017-.03.035-.038.03-.017.05 0 .076-.03-.034-.094-.085.013-.136 0v.009" fill="#005384"/><path d="M70.263 77.596c.143-.177.321.245.33.334.144.406.16.841.055 1.26a3.464 3.464 0 0 1-.635 1.242 5.78 5.78 0 0 1-.707.752 1.942 1.942 0 0 1-.496.33l-.647.304c-.195.098-.407.216-.648.355-.136.076-.284.16-.453.241l-.267.12c-.173.024-.21.1-.11.21-.008.084.242.33.03.385-.216.06-.22-.288-.246-.36-.14-.275-.4-.507-.57-.85a2.497 2.497 0 0 1 .294-2.49c.296-.41.69-.74 1.147-.96a3.198 3.198 0 0 1 1.067-.29c.598-.07 1.283-.01 1.851-.59.165-.14-.555.5 0 0h-.004Zm-.526.57c-.143.056-.308.056-.355.166a1.97 1.97 0 0 0-.013.499c.119-.06.33-.14.39-.27a.806.806 0 0 0-.022-.39c-.118.048.013.12 0 0Zm-.54.136c-.209.03-.264.026-.294.262-.025.178-.042.36-.05.541.093-.046.283-.08.334-.173.08-.135.013-.47.01-.63-.01.186-.09.013 0 0Zm-.738.089c-.03.24-.224.63-.127.976.08-.042.233-.076.292-.148.064-.091.043-.15.064-.273.03-.21.034-.421.063-.6l-.292.031c-.034.228.097-.013 0 0v.004Zm-.178.03c-.296.05-.377.29-.495.65-.05.157-.199.46-.064.668.09-.068.373-.148.411-.262.017-.046-.03-.266-.02-.347.024-.257.13-.486.164-.714-.08.013-.02.136 0 0l.004.005Zm-.88.274c.067.174-.178.558-.216.736a2.686 2.686 0 0 0-.06.862c.085-.106.37-.267.398-.398.013-.063-.063-.278-.063-.371a2.15 2.15 0 0 1 .305-.977c-.127.043-.25.093-.369.148.01.021.123-.059 0 0h.005Zm-.25.14a1.27 1.27 0 0 0-.64 1.065c-.046.405-.008.81.115 1.2.076-.173.23-.347.288-.524a1.84 1.84 0 0 0 0-.524c0-.42.076-.833.237-1.217-.165.105-.195.545 0 0Zm-1.054 1.213c.11.562.131 1.145.364 1.593.038-.123.055-.25.05-.376-.016-.093-.139-.317-.164-.453a3.155 3.155 0 0 1-.009-1.195 2.677 2.677 0 0 0-.24.43c0 .01.062-.151 0 0Zm-.165.59c-.09.597.08 1.206.474 1.666-.02-.502-.373-1.001-.474-1.665.09.47-.06.584 0 0Zm.707 1.793a7.646 7.646 0 0 0 1.35-.718 6.185 6.185 0 0 0-1.007.122c-.407.102-.377.296-.34.6.602-.19-.016-.164 0 0l-.003-.004Zm1.706-.904.393-.207c-.3-.017-.698-.08-1.18-.106-.187-.017-.62-.063-.754.034-.115.084-.127.372-.144.498a5.03 5.03 0 0 1 .974-.143c.16-.013.32-.02.453-.042.08-.002.156-.057.254-.028.148-.07-.017-.005 0 0l.004.004Zm1.037-.71c-.41 0-.826-.047-1.224-.144a4.693 4.693 0 0 0-.77-.042c-.322.013-.38.203-.495.43a5.488 5.488 0 0 1 1.342.056c.402.046.647.13.846-.03a7.16 7.16 0 0 0 .3-.275v.005Zm.228-.233a4.37 4.37 0 0 0 .386-.49c-.436.19-.919.228-1.376.106a5.945 5.945 0 0 0-.724-.144c-.28-.008-.45.21-.61.406.432-.005.868.034 1.292.122.194.038.39.055.588.05.106 0 .318-.113.449-.05.127-.148-.017-.012 0 0h-.004Zm.59-.824c.041-.08.08-.165.113-.25-.39.25-.85.356-1.308.3-.19-.008-.377-.07-.567-.096a.674.674 0 0 0-.508.165c.372.084.753.147 1.134.185a1.62 1.62 0 0 0 .635-.076c.08-.02.39-.278.5-.228.042-.084-.03-.02 0 0Zm.253-.672.03-.16c-.644.528-1.427.325-1.956.608.326.123.681.152 1.02.08.351-.07.67-.257.906-.523.013-.05-.41.443 0 0v-.005Zm.063-.49c0-.165-.012-.33-.055-.49-.3.452-.715.815-1.202 1.052a2.01 2.01 0 0 0 .716-.169c.148-.063.372-.338.541-.397 0-.17-.012 0 0 0v.004Zm-.156-.77a2.846 2.846 0 0 1-.33.225c-.123.118-.09.122-.077.346.166-.164.305-.359.407-.57-.11.21 0-.01 0-.01Z" fill="#fff"/><defs><linearGradient id="a" x1="120.5" x2="120.5" y1="22.34" y2="158.34" gradientUnits="userSpaceOnUse"><stop stop-color="#FFFFFA"/><stop offset="1" stop-color="#E0EEF2"/></linearGradient></defs></svg>