<svg fill="none" height="189" viewBox="0 0 268 189" width="268" xmlns="http://www.w3.org/2000/svg" xmlns:xlink="http://www.w3.org/1999/xlink"><linearGradient id="a" gradientUnits="userSpaceOnUse" x1="130.682" x2="132.197" y1="174.645" y2="129.707"><stop offset="0" stop-color="#fff" stop-opacity="0"/><stop offset="1" stop-color="#51c7ea"/></linearGradient><linearGradient id="b"><stop offset="0" stop-color="#fff"/><stop offset="1" stop-color="#51c7ea"/></linearGradient><linearGradient id="c" gradientUnits="userSpaceOnUse" x1="183.05" x2="58.3934" xlink:href="#b" y1="119.123" y2="119.123"/><linearGradient id="d" gradientUnits="userSpaceOnUse" x1="63.9743" x2="185.566" xlink:href="#b" y1="61.1763" y2="88.679"/><linearGradient id="e" gradientUnits="userSpaceOnUse" x1="217.271" x2="120.297" xlink:href="#b" y1="130.524" y2="23.9292"/><path d="m-20.7668 196.823c-1.149 0 2.2638-.916 3.3712-1.589 2.4113-1.472 4.8036-3.13 7.196-4.742 7.57017-5.093 12.87646-9.278 20.6054-13.134 21.9961-10.966 44.2606-18.878 66.6385-25.409 67.7457-19.771 139.2787-2.554 203.8237 45.048" fill="url(#a)"/><path d="m97.1545 186.144h-.6576v-82.039h.6576zm-4.0515 0h-.6576v-84.836h.6576zm-4.0515-.162h-.6577v-87.5155h.6577zm12.1505-.042h-.657v-79.686h.657zm-16.2021-.284h-.6576v-89.8648h.6576zm20.2541-.121h-.658v-78.267h.658zm-24.3018-.367h-.6576v-91.772h.6576zm28.3528-.284h-.657v-77.578h.657zm-32.4043-.367h-.6577v-93.2741h.6577zm36.4523-.484h-.658v-77.174h.658zm-40.5039-.284h-.6576v-94.3678h.6576zm44.5559-.81h-.658v-76.768h.658zm-48.6074-.121h-.6576v-94.693h.6576zm-4.0515-1.014h-.6576v-94.1255h.6576zm56.7059-.242h-.657v-76.281h.657zm-60.7575-.973h-.6576v-92.9484h.6576zm64.8055-.688h-.658v-75.592h.658zm-68.857-.609h-.6576v-91.2049h.6576zm72.909-1.34h-.658v-74.657h.658zm-76.9605-.121h-.6576v-88.8509h.6576zm-4.0515-1.661h-.6577v-85.892h.6577zm85.059-.526h-.657v-73.28h.657zm-89.1106-1.298h-.6576v-82.3652h.6576zm93.1626-1.34h-.658v-71.577h.658zm-97.2103-.73h-.6576v-78.1875h.6576zm-4.0515-2.27h-.6577v-73.3596h.6577zm105.3128-.121h-.657v-69.186h.657zm-109.3644-2.433h-.6576v-67.7255h.6576zm113.4124-1.177h-.657v-66.06h.657zm-117.4639-1.786h-.6576v-61.115h.6576zm121.5119-2.475h-.658v-62.007h.658zm-125.5634-.893h-.6577v-53.248h.6577zm129.6144-4.219h-.657v-56.532h.657zm-133.666 0h-.6576v-43.474h.6576zm-4.0515-5.517h-.6576v-30.495h.6576zm141.7655-.931h-.657v-48.907h.657zm4.052-8.676h-.658v-37.348h.658zm-149.869-1.787h-.6576v-5.675h.6576zm153.916-16.463h-.657v-8.639h.657z" fill="#69cce5" opacity=".6"/><path d="m69.3575 119.013s-17.8842-4.359-7.967-24.7429c9.9172-20.3879 25.6698-5.4678 25.6698-5.4678s11.3571 10.6405 15.2917 9.8496c3.934-.7908 10.522-2.8493 15.427-14.2957 0 0 8.693-26.6579 36.638-15.9872 37.726 14.4055 19.604 25.8633 19.604 25.8633s-13.886 6.6367-15.458 18.6737c-.76 5.797 10.031 12.351 10.031 12.351s25.469 25.689 8.79 34.861c-16.674 9.173-9.335-1.82-25.73-2.24-11.999-.306-15.817 9.267-16.455 9.99-.639.719-5.749 7.515-13.232 2.997-7.487-4.518-8.496-10.762-8.496-10.762s-1.387-7.348-15.8662-.303c-14.4789 7.046-12.7517 9.404-19.532 4.015-6.7802-5.388 9.7093-29.586 9.7093-29.586s8.7683-13.857-18.4284-15.204z" fill="url(#c)" opacity=".38"/><path d="m174.659 86.4258s16.479 8.2036 2.313 25.8932c-14.169 17.69-26.24-.344-26.24-.344s-8.73-12.8881-12.744-12.9865c-4.01-.0984-10.892.4541-18.202 10.5345 0 0-14.358 24.077-39.2604 7.492-33.6178-22.3931-13.4169-29.5562-13.4169-29.5562s15.0081-3.4055 19.1956-14.7952c2.0183-5.4867-7.0599-14.2654-7.0599-14.2654s-19.1729-30.6878-.8882-35.9437c18.2886-5.2559 8.704 3.8369 24.5998 7.8706 11.637 2.9515 17.473-5.5435 18.251-6.1035.779-.56 7.264-6.0581 13.568 0 6.304 6.0619 5.915 12.3773 5.915 12.3773s-.268 7.4732 15.409 3.8066c15.677-3.6704 14.509-6.3494 19.936.4049s-15.994 26.7108-15.994 26.7108-11.611 11.5789 14.618 18.9046z" fill="url(#d)" opacity=".38"/><g opacity=".65"><path d="m213.602 115.063s11.678 16.94-11.724 26.563c-23.406 9.622-25.466-14.542-25.466-14.542s-1.576-17.327-5.442-19.593c-3.866-2.267-10.892-5.453-23.481.443 0 0-27.038 15.767-42.424-13.9329-20.7719-40.0871 2.846-36.1556 2.846-36.1556s16.508 4.7942 26.754-4.0715c4.936-4.2721.801-17.7657.801-17.7657s-2.169-40.37842 18.546-35.618219c20.715 4.760199 6.436 8.464679 19.796 21.012219 9.782 9.1874 20.073 4.0413 21.139 3.9126 1.066-.1248 10.37-1.9903 13.262 7.3484 2.887 9.3388-.904 15.2985-.904 15.2985s-4.297 7.163 13.009 12.0595c17.306 4.9002 17.612 1.646 19.271 11.1853 1.66 9.5393-30.061 17.4515-30.061 17.4515s-17.601 5.0327 4.082 26.3929z" fill="url(#e)" opacity=".38"/><path d="m174.514 28.6602c-27.272-.3633-23.36 39.1487 3.13 35.1528 19.437-2.9325 19.732-33.9457-3.13-35.1528z" fill="#68cbe3"/><path d="m156.06 44.8933c-1.799-.4844-26.554-8.6917-17.661-12.7443 11.3-5.15 47.73 9.5885 59.057 14.0762 2.721 1.0784 17.861 6.9171 16.376 11.3405-1.829 5.4489-23.168-.4995-23.398-1.7822-.046-.2536.038-1.0709.344-1.1239.347-.0605.763.106 1.096.1817 4.206.927 10.064 2.7395 14.316 1.3395.454-.1476.93-.42.658-.9536-.673-1.3168-2.669-2.2363-3.882-2.906-1.194-.6585-2.422-1.2563-3.673-1.7974-12.813-5.5321-26.245-10.754-39.884-13.7168-1.697-.3671-12.646-2.5996-13.066.4578-.537 3.9051 7.381 3.4661 9.982 4.2305" fill="#004c76" opacity=".15"/></g><path d="m182.199 69.7272c.057-.0151-1.67 1.7293-1.719 1.506-.11-.4692.423-1.3395.313-1.82-.132-.5714-1.568-.4163-1.678-.8968-.03-.1211 1.622-.5638 1.705-.5828.378-.087.325-1.733.68-1.8162.363-.0833.631 1.54 1.104 1.5854.495.0454 1.523-.8438 1.825-.6546.219.1362-1.009 1.3963-.971 1.5628.037.1665 1.168 1.6611 1.122 1.6725-.423.0984-1.848-.4806-2.237-.7228" fill="#f8af1c"/><path d="m133.021 14.4816c.057-.0151-1.67 1.7293-1.719 1.506-.11-.4692.423-1.3395.313-1.82-.132-.5714-1.568-.4163-1.678-.8968-.03-.1211 1.622-.5638 1.705-.5828.378-.087.325-1.733.68-1.8163.363-.0832.631 1.5401 1.104 1.5855.495.0454 1.523-.8438 1.825-.6546.219.1362-1.009 1.3963-.971 1.5628s1.168 1.6611 1.122 1.6725c-.423.0984-1.848-.4806-2.237-.7228" fill="#f8af1c"/><path d="m80.1584 70.1359c-.325.1779-.6916.3141-1.0053.4881-.0605.0341-.7937.5487-.8315.3784-.102-.4427.8391-1.1314.7408-1.5552-.1134-.4881-1.1943-.7908-1.3039-1.26-.0189-.0795 1.2397-.1968 1.4173-.2384.4838-.1135.4989-1.4985 1.0053-1.6158.1474-.034.5102 1.5931.548 1.7596.0605.2649 1.7688-.299 1.8255-.0568.0756.3217-1.3304.8098-1.2056 1.3395.0188.0795 1.0733 1.4531 1.028 1.4644-.4611.106-1.6252-.4351-2.2186-.7038z" fill="#f8af1c"/><g fill="#004c76"><path d="m156.579 174.94c-.401-.201 2.812-.299 3.197-.242 1.947.295 7.782.828 8.285 3.386.019.095.022.193 0 .288-.484 1.843-11.509.624-11.909-1.934" opacity=".15"/><path d="m167.821 158.06c-.071-.034.968-.098 1.074-.102 1.58-.042 3.167.068 4.743.174 3.715.253 7.408.707 11.093 1.241 11.788 1.703 23.821 4.026 34.732 8.987 2.374 1.078 9.914 4.238 8.912 8.026-1.156 4.385-13.681 3.409-16.799 3.099-13.368-1.325-26.868-5.328-39.227-10.554-1.417-.598-17.926-7.935-7.377-9.229" opacity=".15"/><path d="m111.463 180.124c.715-1.43 10.163-3.068 9.974-.768-.306 3.708-14.093 5.226-10.567 1.972" opacity=".15"/><path d="m71.1333 167.981c0-1.631 5.6653-3.606 6.6668-4.037 3.2881-1.416 26.5769-8.972 28.2059-4.897 1.497 3.746-21.5465 9.04-24.9253 9.748-1.4702.306-11.24 2.618-10.2536.703" opacity=".15"/><path d="m79.1229 178.496c-.1625-.162.1776-.378.2872-.461.7635-.594 5.3252-2.974 5.8695-1.415.5858 1.676-7.6571 5.721-6.8786 3.693" opacity=".15"/></g><path d="m86.973 34.9906c-2.5852-.2157-5.3026 1.0179-6.6291 3.2504-1.3266 2.2287-1.0356 5.377.8503 7.1592.7862.7417 1.7801 1.226 2.8006 1.5855 1.1716.4124 2.4755.6697 3.6396.2459.7861-.2838 1.4361-.8551 1.9804-1.4908 1.1413-1.3396 1.8746-3.0499 1.9086-4.8094.034-1.7596-.669-3.5494-1.988-4.711-.6879-.6055-1.7007-1.105-2.5624-1.226z" fill="#68cbe3"/><path d="m170.955 70.8621c-1.466-.5298-3.209 1.0557-2.823 2.5693.385 1.5136 2.676 2.0698 3.708.9006.703-.7947.143-3.2088-.885-3.4699z" fill="#68cbe3"/><path d="m101.997 39.38c-1.191-.8816-2.3324-.2156-3.1714 1.0066-.4989.7265-.6841 1.7633-.1512 2.4633.6728.8741 2.1356.7038 2.9366-.053.801-.7567 1.342-2.2665.382-3.4131z" fill="#68cbe3"/><path d="m42.0429 82.6833c-1.1905-.8817-2.3319-.2157-3.1709 1.0065-.4989.7265-.6841 1.7633-.1512 2.4633.6728.8741 2.1354.7039 2.9366-.0529s1.3417-2.2666.3817-3.4131z" fill="#68cbe3"/><path d="m96.7166 50.8188c-.8542-1.2676-2.2828-1.3244-2.9933-.0189-.5594 1.0254.3137 2.505 1.4815 2.5125 1.1678.0076 2.0598-1.4606 1.5118-2.4936z" fill="#68cbe3"/><path d="m177.739 141.43c0 .753-.004 1.509-.008 2.262 0 .572.008 1.181.31 1.665.238.375.624.629 1.002.863 12.453 7.697 27.718 9.025 42.348 9.384.552.015 1.266-.094 1.308-.647.121-1.691.14-1.634.06-3.398" fill="#f0b11d"/><path d="m218.262 71.3473c-.582-5.3391-1.399-11.0529-3.719-15.7715-6.013-3.2807-12.264-4.5823-18.134-1.873-.227.5259-.434 1.0557-.631 1.5779-10.219 27.1573-17.453 57.1373-18.035 86.1533 2.384 1.237 4.784 2.357 7.207 3.363.404-8.873 1.191-17.724 2.362-26.529.571-4.291 1.247-8.623 2.91-12.619s4.422-7.6854 8.27-9.6607c.638-.3292 1.322-.613 2.037-.613 1.005-.0037 1.825.5071 2.487 1.2601.744.8514 1.281 2.0093 1.629 3.0953 2.165 6.7283 2.313 13.9213 2.309 20.9893-.004 9.861-.235 20.066-.745 29.943 5.39.779 10.896 1.074 16.546.904.53-26.794-1.591-53.5732-4.497-80.2121z" fill="#4684c5"/><path d="m196.689 101.104c.737-1.7106 3.5-3.9923 6.327-4.4728-.658-.753-1.482-1.2639-2.487-1.2601-.714 0-1.402.2876-2.037.613-3.848 1.979-6.607 5.6649-8.27 9.6609-1.662 3.999-2.339 8.328-2.91 12.619-1.171 8.801-1.957 17.656-2.362 26.529 1.376.572 2.763 1.109 4.154 1.608.623-15.325 1.538-31.274 7.589-45.297z" fill="#66cae3"/><path d="m204.645 99.7271c-.348-1.0822-.885-2.2439-1.629-3.0953-2.827.4806-5.586 2.7623-6.327 4.4722-6.051 14.028-6.965 29.977-7.589 45.298 5.582 2.002 11.274 3.413 17.113 4.253.507-9.876.741-20.085.745-29.942 0-7.069-.144-14.262-2.309-20.9897z" fill="#004d76"/><path d="m222.843 139.807c5.892 11.628 4.241 24.671 2.457 37.586.665.03 1.326.064 1.991.094 5.927-12.392 4.32-27.082.586-40.303-1.13-3.999-2.071-6.709-5.068-9.584" fill="#66cae3"/><path d="m178.098 134.183c-3.723 8.597-6.697 18.413-6.474 27.782.011.5-.004 1.079-.393 1.389-.197.159-1.524.215-1.773.208-1.519-.045-1.07-1.968-1.202-3.485-1.013-11.511 2.332-24.967 10.326-33.303" fill="#66cae3"/><path d="m214.543 55.5752c-1.187-2.4141-2.766-4.571-4.913-6.2813-2.049-1.6347-4.747-2.7623-7.279-2.1001-2.96.7757-4.706 3.6023-5.945 6.5084 5.873-2.7093 12.124-1.4077 18.133 1.873z" fill="#68cbe3"/><g fill="#66cae3"><path d="m203.768 60.4077c-.967.333-.944 1.1163-.967 1.8314-.015.4314.132.9195.521 1.1125.56.2763 1.705-.034 1.86-.6395.136-.5221 0-2.3044-1.414-2.3044z"/><path d="m204.456 77.2423c-.673-.8703-2.056-.9006-2.997-.3254-.937.5752-1.512 1.5893-1.946 2.6034-.76 1.7671-1.059 4.1623.476 5.3126 1.572 1.1806 4.04-.0492 4.694-1.9033.654-1.8542.748-3.9807-.227-5.6873z"/><path d="m190.068 146.746c-3.137 12.461-6.078 25.655-8.304 38.313.635.571 1.436-.5 1.618-1.336 2.649-12.325 5.215-24.252 7.865-36.58"/><path d="m201.984 150.042c-2.049 11.926-3.564 23.619-4.653 35.675-.083.9.261 2.209 1.146 2.009 2.418-12.786 4.074-24.513 5.158-37.48"/><path d="m200.915 160.921c-3.852-.25-8.75-1.147-12.31-2.642l.533-1.884c3.949 1.612 7.536 2.524 11.777 2.993z"/><path d="m199.471 169.922c-4.46.11-8.636-.662-12.699-2.508l.28-1.979c4.32 1.786 8.114 2.19 12.778 1.884l-.359 2.6z"/><path d="m198.688 179.148c-4.678-.144-9.52-.689-13.953-2.195l.435-1.979c4.338 1.317 9.1 1.93 13.632 1.756l-.114 2.414z"/></g><path d="m40.1045 155.206 5.6351-4.677 6.6933-5.369 2.4604-1.154 1.028-.314 9.0064-.799 12.6723-.9.4195 11.764.7333 8.117.7747 5.327-.5253 1.363-9.8869 11.052-.8353.231-19.8608-.231h-6.2814l-1.1527-.734-.3779-1.404-.5027-17.387z" fill="#f0b11d"/><path d="m128.04 118.763c-1.519-4.155-3.042-8.31-4.562-12.464-.317-.874-.642-1.775-.597-2.702.087-1.748 1.429-3.133 2.597-4.4348 1.595-1.7785 3.008-3.7234 4.21-5.7857.986-1.6952 1.867-3.5153 3.352-4.7942 1.754-1.5098 4.184-2.0736 6.486-1.8844 2.301.193 3.288.9043 5.314 2.0168l-1.754 2.3877c-1.55-.6773-2.483-1.7444-4.154-1.9828-1.67-.2384-3.488.0265-4.811 1.0822-1.357 1.086-1.988 2.8115-2.763 4.3705-1.243 2.5125-3 4.7715-5.124 6.5987-.658.564-1.41 1.2-1.452 2.066-.019.424.14.837.299 1.23 1.572 3.924 3.141 7.844 4.713 11.768l-1.761 2.524z" fill="#67cbe4"/><path d="m132.394 106.799-5.677 12.48s2.094 3.095 2.362 2.736c.269-.36 7.17-8.087 6.709-8.874-.457-.787-3.394-6.342-3.394-6.342z" fill="#004c76"/><path d="m128.467 115.562-2.752 3.115s-6.243 4.994-8.772 15.17c0 0-1.931 4.862-8.394 9.633l-8.515 7.973 1.916 3.326 14.581-8.865 9.638-7.292c.359-.273.673-.606.922-.984l4.358-6.573-.741 10.225-10.734 13.565 2.158 2.758 15.454-13.054c1.028-.87 1.58-2.918 1.947-4.692l2.978-8.862-1.191-10.103-12.857-5.34z" fill="#004c76"/><path d="m149.738 118.071-1.395-6.054 6.716-13.0055c.514-.9952.492-2.1833-.06-3.1558l-1.032-1.8238-9.959-4.1813-10.884 21.2884 4.531 9.365 2.472 1.514 4.017-11.083 2.533 7.795 3.057-.651z" fill="#004c76"/><path d="m142.76 116.72c-1.579-.272-3.125-.715-4.607-1.324l1.762 10.273 2.849-8.949z" fill="#4585c5"/><path d="m154.764 94.3232c1.901.4048 4.354-.4617 6.327-1.8126 1.784-1.226 3.28-2.8871 4.577-4.6202 2.955-3.9504 2.581-9.8496-.367-13.8-2.952-3.9542-8.065-5.9748-12.99-5.7819-1.806.0719-3.639.4276-5.193 1.3547-1.625.9725-2.834 2.5125-3.824 4.1321-1.066 1.7481-1.928 3.659-2.208 5.6872-.457 3.3488.05 6.0997 2.518 8.4042" fill="#004c76" opacity=".15"/><path d="m141.245 118.922c-.695 1.374-1.115 2.872-1.81 4.246-.148.288.287.541.434.254.696-1.374 1.115-2.872 1.811-4.246.147-.288-.287-.541-.435-.254z" fill="#181b3b"/><path d="m150.104 143.265 3.099-19.321 14.543 1.725c-1.545 3.826-3.208 7.602-4.977 11.329-.219.462-1.652 1.737-2.098 1.892-3.995 1.374-6.572 3.001-10.567 4.375-.125.026-.249-.027-.363-.076-5.291-2.233-10.582-4.465-15.877-6.701-.28-.118-.586-.265-.688-.549-.083-.235 0-.496.083-.73.96-2.729 1.92-5.461 2.88-8.189l4.169-8.658c2.604-.015 5.204-.249 7.77-.7 1.111-.196 2.249-.431 3.356-.223.828.155 1.588.549 2.332.939 4.63 2.418 9.26 4.835 13.89 7.25" fill="#fab01d"/><path d="m97.5401 153.386c-.805-.105-1.644.538-1.9577 1.291-.4044.972.3363 2.391.6349 3.402.4006 1.35.5064 2.766.5934 4.169.0529.799.1058 1.624.4648 2.339.3591.715 1.1074 1.298 1.9011 1.207.9374-.11 1.5534-1.109 1.5984-2.051.046-.942-.325-1.846-.623-2.743-.7071-2.115-1.686-2.668-.5484-4.586" fill="#67cbe4"/><path d="m116.985 156.596c-.681.329-1.27.942-1.368 1.695-.053.39.034.787.139 1.169.299 1.056.771 2.059 1.028 3.126.254 1.036.299 2.111.507 3.155.208 1.045.601 2.104 1.402 2.808s2.079.942 2.937.314c.627-.458.914-1.271.918-2.047s-.847-1.305-1.296-1.937c-1.191-1.673-.749-1.888-.998-4.431" fill="#67cbe4"/><path d="m96.829 151.794c.6085 1.861 2.1694 3.874 3.228 5.52.812-.529 1.629-1.059 2.441-1.593.132-.087.276-.185.31-.34.03-.133-.026-.265-.083-.39-.423-.931-.847-1.862-1.27-2.793-.197-.435-.586-.741-.786-1.176-.7749-1.673-2.1015-.193-3.0766.299-.2683.136-.5404.272-.7672.469" fill="#4585c5"/><path d="m118.849 153.114c-.737.477-1.391 1.083-1.92 1.783-.182.238-.356.514-.329.813.023.258.185.473.344.678.971 1.248 1.946 2.501 2.917 3.749.106.137.223.28.394.311.181.034.359-.076.514-.182 1.043-.715 2.086-1.434 3.129-2.149-1.519-1.854-3.126-3.633-4.819-5.328" fill="#4585c5"/><path d="m146.657 98.7427c-.321-.1628-.756.1324-.752.4919.004.3594.404.647.752.5638.348-.0833.726-.0454.499-.8363z" fill="#67cbe4"/><path d="m143.683 103.514c-.22-.166-.567-.125-.741.091s-.14.564.068.746c.465.227 1.077-.337.888-.822z" fill="#67cbe4"/><path d="m150.255 90.9516c.174-.5828.352-1.1844.73-1.6612s1.005-.806 1.595-.6546c.491.1286.858.5562 1.345.7076.616.193 1.3-.1097 1.754-.5714.457-.4578.74-1.0557 1.062-1.6157.563-.9839 1.33-2.5731 2.135-3.3753l-1.357-5.0024-6.599-1.0935-4.044 11.6583 3.375 1.612" fill="#f3f3f3"/><path d="m150.497 91.0198c.25-.8363.598-1.9866 1.603-2.1531.503-.0833.865.2422 1.262.4843.318.193.658.3179 1.032.299 1.655-.0833 2.396-2.0547 3.073-3.2921.4-.7303.801-1.4871 1.338-2.1265.238-.2876.351-.3746.257-.7152-.227-.8438-.458-1.6839-.685-2.5277-.204-.7568-.411-1.5173-.616-2.2741-.022-.0795-.09-.1627-.173-.1741-2.2-.3632-4.4-.7303-6.599-1.0936-.14-.0227-.261.0341-.31.1741-1.183 3.4056-2.362 6.8149-3.545 10.2204-.167.4806-.333.9574-.499 1.4379-.034.0984.019.2384.117.2838 1.126.5374 2.253 1.0747 3.375 1.612.291.14.544-.2951.253-.4352-1.126-.5373-2.252-1.0746-3.375-1.6119l.117.2838c1.183-3.4056 2.363-6.8149 3.545-10.2204.167-.4806.333-.9574.499-1.438l-.31.1741c2.2.3633 4.4.7303 6.599 1.0936l-.174-.1741c.454 1.6687.904 3.3337 1.357 5.0024l.064-.246c-.733.753-1.232 1.7104-1.734 2.6261-.537.98-1.081 2.4785-2.238 2.8531-.676.2157-1.096-.2006-1.644-.5033-.415-.227-.865-.2951-1.319-.1438-1.069.3633-1.462 1.4606-1.753 2.4482-.091.3103.393.4428.483.1325z" fill="#35444c"/><path d="m150.089 84.3147c-.204-.5033-.408-1.0482-.283-1.5779.124-.5298.744-.9687 1.217-.7039.102.0568.192.1438.306.1703.185.0417.359-.0832.51-.1967.888-.6698 1.912-1.2109 3.02-1.3206 1.107-.1098 2.305.2686 2.974 1.1578.439.579.571 1.752 1.04 2.3083.468.5562 1.496.3859 1.931-.1968.181-.2422.215-.56.223-.859.041-1.7254-.567-3.4055-1.349-4.9456-.428-.84-.93-1.6763-1.697-2.2212-.628-.4427-1.384-.6584-2.14-.8059-2.173-.4238-4.678-.2309-6.228 1.3508-.892.912-1.353 2.1682-1.58 3.4245-.321 1.7709-.623 3.432-.132 5.1575" fill="#fab01d"/><path d="m136.196 122.991c-.537 1.483.525 4.465 1.818 5.365 1.734 1.211 4.104 1.699 6.001.757.446-.223.907-.62.851-1.116-.068-.587-.775-.825-1.346-.969-1.164-.295-2.294-.73-3.356-1.294-.147-.079-.31-.182-.336-.344-.053-.329.457-.439.752-.288.295.152.57.435.899.379.412-.069.544-.659.322-1.015-.223-.355-.639-.529-1.028-.677-.779-.299-.666-.197-1.444-.496" fill="#67cbe4"/><path d="m144.28 88.7233.427-.1476-.624 7.2992c-2.026 3.2769-2.558 3.7877-4.762 7.0041-.162.238-2.774 3.515-2.849 3.795-.08.277-.193.288-.129.564 1.164 4.923 2.2 9.123 3.36 14.046l-4.052 1.968c-2.022-6.142-3.885-11.14-5.276-17.285-.196-.867-.037-1.775.439-2.528 2.351-3.7234 4.527-8.4041 6.92-11.9043.88-1.2865 2.09-1.1919 3.515-1.8163 1.285-.5638 2.143-.6584 3.458-1.1427" fill="#004c76"/><path d="m135.383 123.948c1.13-.156 2.256-.307 3.386-.462.2-.026.416-.061.571-.189.189-.159.246-.428.28-.674.124-.897.132-1.812.022-2.713-1.349.87-3.326 1.794-4.841 2.32.136.56.453 1.161.586 1.721" fill="#4585c5"/><path d="m144.442 86.7588c-.948.9611-.926.9119-1.882 1.5855 3.076 3.5379 7.389 5.9748 12.003 6.7846.05-.8552.337-1.6952.824-2.4028-3.87-1.5401-7.551-3.5494-10.945-5.9673z" fill="#4585c5"/><path d="m142.334 96.124c-.378.3822-5.862 10.55-5.862 10.55l1.243 5.812-.317-5.941 4.932-10.4172z" fill="#4585c5" opacity=".3"/><path d="m144.144 110.927 4.282-8.752-3.878 9.997z" fill="#4585c5" opacity=".3"/><path d="m134.472 118.987c-.102-.409-2.26-6.172-2.286-6.266-.027-.095-2.804-1.347-2.804-1.347l-1.856 4.673z" fill="#4585c5"/><path d="m52.2101 178.425c-.3402-3.867-.7937-7.727-1.3644-11.568 0 0-.0378.008-.0983.019 0 0 0-.003.0038-.007l-14.7208.753c-.7899.041-1.5949.083-2.3394.352-.9978.359-1.8066 1.093-2.6154 1.782-1.867 1.589-3.8626 3.023-5.9677 4.28l.7483 9.013c.5216 2.671 1.0431 5.347 1.5647 8.018.0454.231.1021.481.2835.632.2192.182.5366.155.8201.117 5.3554-.715 10.7146-1.434 16.0701-2.149.1171-.015.2418-.034.3288-.113 2.5851-3.024 3.9003-5.574 6.4854-8.598.2873-.336.5821-.685.7257-1.108.1549-.454.1171-.95.0718-1.427z" fill="#f0b11d"/><path d="m69.1154 179.337c-.0944-2.69-5.7636-27.271-5.0228-27.733.737-.461 13.5076-9.895 13.5076-9.895l1.9275 25.209-10.4123 12.415z" fill="#f0b11d" opacity=".35"/><path d="m44.9235 189.557c-.0945-2.69-4.3576-15.639-3.6206-16.101.7369-.461 9.4447-6.58 9.4447-6.58l1.4626 11.549z" fill="#f0b11d" opacity=".35"/><path d="m150.104 143.264c-.094-2.69 3.016-17.557 3.757-18.019.737-.462 13.885.424 13.885.424l-5.631 12.892z" fill="#f0b11d" opacity=".35"/><path d="m143.063 88.8588c-2.219.42-4.396 1.0746-6.478 1.9487-.083.034-.174.0794-.208.1627-.026.0681-.011.14.008.2119.257 1.0708.548 2.1304.876 3.1785 2.589-1.2487 5.174-2.4974 7.763-3.7461.133-.0643.284-.2157.186-.3216-.617-.6547-1.342-1.2109-2.136-1.6347" fill="#67cbe4"/><path d="m154.16 94.417c.756 1.0935 1.511 2.1871 2.264 3.2769.037.0529.075.1135.087.1778.015.0946-.031.1816-.08.2649-.291.507-.703.946-1.19 1.2714-1.002-1.4757-1.799-3.0915-2.362-4.7829-.016-.0454-.031-.1022-.008-.1438s.072-.0605.117-.0757c.299-.1021.593-.2043.892-.3065" fill="#67cbe4"/><path d="m144.299 86.6831c-.949.9611-.926.9119-1.882 1.5855 3.076 3.538 7.388 5.9748 12.003 6.7846.049-.8552.336-1.6952.824-2.4028-3.87-1.5401-7.551-3.5494-10.945-5.9673z" fill="#4585c5"/></svg>