<svg fill="none" height="145" viewBox="0 0 261 145" width="261" xmlns="http://www.w3.org/2000/svg" xmlns:xlink="http://www.w3.org/1999/xlink"><clipPath id="a"><path d="m0 0h261v145h-261z"/></clipPath><g clip-path="url(#a)"><path d="m260.274 0h-260.274v142.929h260.274z" fill="#69cbe4" opacity=".15"/><path d="m261 96.5581v48.4459h-201.55c3.7657-2.032 7.8781-3.61 10.2988-7.061 5.5481-7.906-1.5587-19.176 1.4843-28.343 3.6781-11.0621 19.9106-13.6479 23.9355-24.5871 1.9055-5.1845-.0842-10.1421.7033-15.3979.7064-4.8053 2.9749-9.2478 6.4581-12.6339 2.826-2.6991 6.479-4.7632 8.167-8.2887 1.604-3.3472 1.086-7.2906 1.841-10.923.949-4.5591 4.132-8.5349 8.234-10.6833 3.912-2.0478 10.49-2.832 14.69-1.4646 5.266 1.7141 10.062 6.6491 14.052 10.3463 3.493 3.2371 6.954 4.086 11.708 3.0491 10.182-2.2261 17.697-11.1498 27.219-15.035 2.002-.836 4.096-1.4322 6.235-1.7854 4.951-.7712 10.392.3143 13.993 3.7977 3.266 3.1625 4.618 7.7961 7.314 11.4577 5.554 7.5498 17.15 9.5491 21.764 17.6725 4.515 7.9452 1.796 18.379 6.021 26.3922 3.575 6.782 11.865 9.9542 17.429 15.0415z" fill="#fff"/><path d="m232.443 40.1501c1.17.2041 2.492.2495 3.413-.5022.829-.6773 1.108-1.8211 1.166-2.8904.305-5.4566-10.01-20.6115-15.409-12.6695-4.877 7.174 4.712 14.9896 10.827 16.0621z" fill="#fff"/><path d="m177.673 49.4785h-4.343v6.5713h4.343z" fill="#a8dbe8"/><path d="m173.531 43.2148h3.973c1.523 0 2.758 1.2346 2.758 2.7575v1.0175c0 1.5229-1.235 2.7575-2.758 2.7575h-3.973c-1.523 0-2.758-1.2346-2.758-2.7575v-1.0175c0-1.5229 1.235-2.7575 2.758-2.7575z" fill="#a8dbe8"/><path d="m189.785 56.9303-2.606 3.9252 2.592 1.7205 2.606-3.9251z" fill="#a8dbe8"/><path d="m189.486 54.039-.095.1431c-.689 1.0374-.407 2.4372.631 3.1265l1.908 1.2677c1.038.6893 2.438.4071 3.127-.6304l.095-.143c.689-1.0375.407-2.4372-.631-3.1265l-1.908-1.2677c-1.037-.6893-2.437-.4071-3.127.6303z" fill="#a8dbe8"/><path d="m175.501 55.1973c12.863 0 23.291 10.4272 23.291 23.288 0 12.8607-10.428 23.2877-23.291 23.2877-12.862 0-23.29-10.427-23.29-23.2877 0-12.8608 10.428-23.288 23.29-23.288z" fill="#50b8d4"/><path d="m194.803 78.486c-.003 10.6541-8.646 19.2895-19.305 19.2863-10.658-.0033-19.291-8.6451-19.288-19.3025.003-10.6541 8.646-19.2894 19.304-19.2862 6.987 0 13.427 3.7814 16.836 9.8797 1.61 2.8806 2.453 6.1241 2.453 9.4227z" fill="#fff"/><path d="m192.35 69.0612-16.849 9.4227 5.558-18.4859c4.793 1.4452 8.841 4.6952 11.291 9.0632z" fill="#a8dbe8"/><path d="m175.501 35.7402c-5.126 0-9.284 4.1573-9.284 9.2835 0 5.1261 4.158 9.2834 9.284 9.2834 5.127 0 9.285-4.1573 9.285-9.2834 0-5.1262-4.158-9.2835-9.285-9.2835zm0 16.3668c-3.914 0-7.087-3.1723-7.087-7.0866 0-3.9142 3.173-7.0865 7.087-7.0865 3.915 0 7.088 3.1723 7.088 7.0865 0 3.9143-3.173 7.0866-7.084 7.0866z" fill="#50b8d4"/><path d="m235.003 91.7453-20.555-16.5255c-.603-.486-1.484-.3888-1.971.2139-.2.2495-.307.5573-.307.8781v7.2485h-64.83v18.5577h64.83v7.248c0 .774.628 1.4 1.4 1.4.317 0 .628-.11.878-.308l20.555-16.5255c.603-.486.7-1.3674.214-1.9701-.065-.0778-.136-.149-.214-.2138z" fill="#88d3e1"/><path d="m172.403 61.7949h-50.849v55.2601h50.849z" fill="#52c0df"/><path d="m150.257 61.7949h-6.559v11.3281h6.559z" fill="#50b9d7"/><path d="m132.378 119.084h-11.611v7.346h11.611z" fill="#212120"/><path d="m199.619 130.01h-67.095c-.645 0-1.167-.522-1.167-1.167 0-.155.033-.311.094-.457l3.357-7.88h64.201l.606 9.504z" fill="#e6e7e6"/><path d="m210.303 123.546v5.401c0 .587-.476 1.063-1.063 1.063h-11.391c.603-3.982-2.139-7.696-6.121-8.298-3.983-.603-7.697 2.138-8.3 6.121-.11.722-.11 1.454 0 2.177h-36.088c.603-3.982-2.139-7.696-6.121-8.298-3.983-.603-7.697 2.138-8.3 6.121-.11.722-.11 1.454 0 2.177h-1.235c-.586 0-1.062-.476-1.062-1.063v-5.418h-13.132v-6.48h85.097l1.183.833 2.991 4.598h2.476c.586 0 1.063.476 1.063 1.062z" fill="#0f3e64"/><path d="m122.212 117.049h-2.874v11.895c0 .586.476 1.063 1.062 1.063h.749c.587 0 1.063-.477 1.063-1.063z" fill="#37474f"/><path d="m118.641 117.049h-2.379c-.275 0-.499.223-.499.499v6.273c0 .515.418.93.93.93h1.015c.515 0 .93-.418.93-.93v-6.772z" fill="#37474f"/><path d="m115.436 118.279c-.431 0-.778.347-.778.778v2.615c0 .431.347.778.778.778s.778-.347.778-.778v-2.615c0-.431-.347-.778-.778-.778z" fill="#f4991e"/><path d="m184.818 124.527c-.7.927-1.169 2.006-1.364 3.15h-36.137c-.194-1.144-.664-2.226-1.364-3.15z" fill="#fff"/><path d="m198.588 122.48-.049-3.027h-81.045v3.027z" fill="#e4e5e4"/><path d="m198.52 122.479h8.769c.46 0 .836-.376.836-.836v-10.404c0-.143-.035-.286-.107-.409l-.855-1.523-9.696-17.2186c-.188-.3402-.548-.5476-.937-.5508l-12.817-.0454c-.46 0-.836.3759-.836.836v24.7198h11.657c.305 0 .587.166.732.431l2.522 4.569c.145.266.427.431.732.431z" fill="#dedfdf"/><path d="m195.283 92.7239h-9.035c-.461 0-.837.3759-.837.836v12.9131c0 .55.448.994.995.994l9.466-.006c.072 0 .143.01.214.026l6.426 1.685c.448.116.905-.149 1.021-.597.052-.194.029-.398-.058-.58-1.708-3.502-5.713-11.6614-7.463-14.8433-.146-.2657-.428-.431-.733-.431z" fill="#0f3e64"/><path d="m205.948 114.071v5.476c0 .113.045.22.126.301l1.261 1.26c.081.081.188.127.301.127h.723c.236 0 .427-.191.427-.428v-3.882c0-1.918-1.056-3.039-2.326-3.272-.234-.046-.457.106-.503.34-.006.026-.006.052-.006.081z" fill="#eee"/><path d="m205.948 114.071v2.997h2.835v-.146c0-.233-.016-.466-.052-.7-.094-.917-.602-1.74-1.383-2.235-.276-.166-.581-.279-.898-.337-.233-.043-.457.11-.499.343-.003.026-.007.052-.007.078z" fill="#f4991e"/><path d="m190.639 135.126c3.431 0 6.212-2.781 6.212-6.211 0-3.431-2.781-6.212-6.212-6.212s-6.213 2.781-6.213 6.212c0 3.43 2.782 6.211 6.213 6.211z" fill="#37474f"/><path d="m140.133 135.125c3.429 0 6.209-2.78 6.209-6.212 0-3.428-2.78-6.208-6.212-6.208-3.429 0-6.209 2.78-6.209 6.212.003 3.428 2.783 6.205 6.212 6.208z" fill="#37474f"/><path d="m190.639 133.304c2.424 0 4.388-1.964 4.388-4.387 0-2.424-1.964-4.388-4.388-4.388s-4.388 1.964-4.388 4.388c0 2.423 1.967 4.384 4.388 4.387z" fill="#eee"/><path d="m190.639 131.63c1.5 0 2.715-1.215 2.715-2.715 0-1.501-1.215-2.716-2.715-2.716-1.501 0-2.716 1.215-2.716 2.716 0 1.5 1.215 2.712 2.716 2.715z" fill="#fff"/><path d="m140.133 133.304c2.424 0 4.388-1.964 4.388-4.387 0-2.424-1.964-4.388-4.388-4.388s-4.388 1.964-4.388 4.388c0 2.423 1.967 4.384 4.388 4.387z" fill="#eee"/><path d="m171.927 126.189c0 .531.784.962 1.756.962.973 0 1.757-.431 1.757-.962s-.784-.962-1.757-.962c-.972 0-1.756.431-1.756.962z" fill="#f4991e"/><path d="m155.37 126.189c0 .531.785.962 1.757.962s1.756-.431 1.756-.962-.784-.962-1.756-.962-1.757.431-1.757.962z" fill="#f4991e"/><path d="m138.885 131.261c1.322.706 2.969.204 3.672-1.121.706-1.322.204-2.968-1.121-3.672-1.323-.706-2.969-.204-3.672 1.122-.703 1.322-.201 2.968 1.121 3.671z" fill="#fff"/><path d="m197.823 92.7227c-.353 0-.641.2851-.641.6415 0 .1037.026.2042.071.2981 2.019 3.8625 6.809 12.2877 8.393 15.0637.302.529.934.772 1.514.58z" fill="#0f3e64"/><path d="m207.571 119.05c0 .71.204 1.286.454 1.286.249 0 .454-.576.454-1.286s-.205-1.286-.454-1.286c-.25 0-.454.576-.454 1.286z" fill="#fff"/><path d="m206.252 118.578c0 .447.204.81.454.81.249 0 .454-.363.454-.81 0-.448-.205-.81-.454-.81-.25 0-.454.362-.454.81z" fill="#fff"/><path d="m206.706 115.522c0 .551.249.995.557.995s.558-.447.558-.995-.25-.995-.558-.995-.557.444-.557.995z" fill="#f4991e"/><path d="m197.736 98.8577c-.315-.5768-.982-.8684-1.63-1.0142-.308-.0681-.613.1296-.681.4374-.01.0389-.013.081-.013.1232v6.1829c0 .317.256.573.574.573h1.769c.311 0 .564-.246.574-.557.042-1.306.071-4.54-.593-5.7485z" fill="#e6e7e6"/><path d="m196.686 106.758 6.28.252-.522-.933h-5.078c-.139 0-.252-.113-.252-.252v-1.776h-.879l.208 2.472c.009.127.113.227.243.233z" fill="#e6e7e6"/><path d="m202.986 126.189c0 .531.787.962 1.756.962s1.756-.431 1.756-.962-.784-.962-1.756-.962-1.756.431-1.756.962z" fill="#f4991e"/><path d="m185.677 112.788c-.385 0-.7-.311-.7-.697v-2.381c0-.386.311-.7.7-.7.386 0 .7.311.7.696v2.382c0 .386-.311.7-.7.7z" fill="#37474f"/><path d="m121.437 72.6878s3.954-7.4592 1.044-16.6875c-2.91-9.2284-7.768-5.0679-4.427 2.3816 2.009 4.517 3.16 9.3677 3.387 14.3059z" fill="#a8dbe8"/><path d="m121.437 72.6871s1.407-9.6269-5.369-14.4161c-6.777-4.7891-14.664-6.0204-9.674-.6156 4.991 5.4048 6.533 7.7184 4.375 7.9193-2.158.1976-4.521 3.4476 1.961 3.3699 6.488-.0778 8.704 3.7425 8.704 3.7425z" fill="#a8dbe8"/><path d="m121.437 72.6873s2.334-13.3954-8.697-23.2718c-9.81-8.7877-11.314 2.4367-.901 9.0987 7.942 5.0808 9.598 14.1731 9.598 14.1731z" fill="#0f3e64"/><path d="m128.833 70.0762-2.168 11.8206h-12.509l-2.168-11.8206z" fill="#b5e1ea"/><path d="m128.829 70.0762-2.168 11.8206h-4.349l-2.168-11.8206z" fill="#88d3e1"/><path d="m151.747 81.9414h-43.823v35.1146h43.823z" fill="#a8dbe8"/><path d="m132.663 107.145h-5.652v9.912h5.652z" fill="#50b9d7"/><path d="m132.663 81.9414h-5.652v11.4026h5.652z" fill="#50b9d7"/><path d="m178 92.8086h-43.007v24.2474h43.007z" fill="#50b8d4"/><path d="m150.344 112.163-4.838-1.681 2.521-7.255 7.256 2.521-1.685 4.841-3.254 1.571z" fill="#b5e1ea"/><path d="m150.344 112.162s.739-2.284.947-2.41c.207-.127 2.304.836 2.304.836l-3.254 1.574z" fill="#88d3e1"/><path d="m153.659 106.855-5.052-1.756c-.12-.043-.181-.172-.139-.292s.172-.182.292-.139l5.052 1.756c.12.042.181.172.139.291-.042.12-.172.182-.292.14z" fill="#fffbe8"/><path d="m150.069 107.228-1.964-.68c-.12-.042-.182-.172-.139-.292.042-.12.171-.181.291-.139l1.964.68c.12.042.182.172.139.292-.042.12-.171.181-.291.139z" fill="#fffbe8"/><path d="m134.727 44.084h-.933v17.7114h.933z" fill="#455b65"/><path d="m136.717 61.3027h-4.916v.4958h4.916z" fill="#455b65"/><path d="m138.551 46.359h-8.581l.282-.9883.152-.5347 1.653-5.7774h4.411l1.652 5.7774.153.5347z" fill="#0f3e64"/><path d="m138.269 45.3667h-8.017l.152-.5347h7.713z" fill="#a8dbe8"/><path d="m141.838 58.8125s-1.209 2.8515-1.015 2.9811c.195.1296 2.139-2.5275 2.139-2.5275z" fill="#455b65"/><path d="m161.038 58.8125s1.209 2.8515 1.015 2.9811c-.195.1296-2.139-2.5275-2.139-2.5275z" fill="#455b65"/><path d="m162.571 59.9363h-22.202s-.508-7.7346 0-8.2045c.509-.4698 21.713-.4504 22.202 0 .49.4504 0 8.2045 0 8.2045z" fill="#88d3e1"/><path d="m139.637 54.5801h1.465c.262 0 .476.2138.476.4763v4.8799h-2.417v-4.8799c0-.2625.214-.4763.476-.4763z" fill="#b5e1ea"/><path d="m161.839 54.5801h1.465c.262 0 .476.2138.476.4763v4.8799h-2.418v-4.8799c0-.2625.214-.4763.477-.4763z" fill="#b5e1ea"/><path d="m162.571 56.5664h-22.202v3.3699h22.202z" fill="#b5e1ea"/><path d="m162.837 88.2273c.47.7226 1.027 1.3836 1.659 1.9733 1.202 1.0531.658 1.8179.6 1.9993-.059.1815-.632.3597-.632.512s1.115.1814 1.264-.0616.333-1.9992.184-2.3589-.661-1.024-.512-2.0446c.098-.6643-2.563-.0162-2.563-.0162z" fill="#fff"/><path d="m160.64 88.2461s-1.624 1.3836-1.624 1.6558 1.053 1.4452 1.235 1.565c.181.1199.661-.2106.693-.3596.033-.1491-.631-.3921-.722-.5412-.107-.149-.185-.3175-.234-.4925-.042-.1912 1.439-1.1017 1.439-1.1017l-.781-.7226z" fill="#fff"/><path d="m159.233 86.9499c.068.2074.752 1.834 1.293 2.2261.357.256 2.765.0713 4.469-.1718.269-.0388.519-.0777.739-.1166.331-.0356.652-.1199.956-.2527.097-.1005.162-.2269.185-.363.126-.5378.003-1.4484-.366-1.8631-.48-.5412-3.098.1814-3.763.0291l-.026-.0065c-.291-.0972-.567-.2365-.82-.4147l-.142-.094c-.574-.3856-1.118-.8392-1.118-.8392l-1.475-.3921s-.065 1.8729.059 2.2552z" fill="#fff"/><path d="m166.635 86.891s.661-2.3071-.541-2.6862c-1.108-.3499-2.619 1.5424-1.595 2.3557 1.025.8133 1.566.1199 1.566.1199s-.872-.5411-.632-.904c.24-.363.872.6934.872.6934z" fill="#f4991e"/><path d="m160.795 88.0032s1.144 3.4898 1.144 3.9402-.57.4699-.589.6513c-.033.2982.923.3792 1.072.1977s-.061-4.0763-.061-4.0763l-1.566-.7161z" fill="#fff"/><path d="m167.316 92.6551c-.153.2398-1.07.162-1.07.0129 0-.149.574-.3305.632-.5119.058-.1815.301-.8425-.904-1.8956-.392-.3597-.723-.7842-.976-1.2572-.081-.1458-.149-.2819-.2-.3986-.117-.2527-.175-.4212-.175-.4212s2.274-.5282 2.262.0875c0 .0097 0 .0226-.004.0324-.136.9332.412 1.6493.623 2.0414.019.0388.035.0712.051.1036.149.3597-.084 1.9669-.236 2.2067z" fill="#fff"/><path d="m161.09 87.3087c-.058.3597-.084.7226-.071 1.0855.055.3597.363.7258.719.6643.386-.0681.545-.5541.892-.7388.281-.1134.596-.1005.868.0324.269.1328.554.2268.849.2787.149.0064.301 0 .451-.0227.155-.0227.314-.0227.469.0065.182.0453.347.1393.474.2754.194.2171.359.4569.495.7128.243.4083.619.8458 1.093.7874.058-.0064.116-.0226.171-.0453-.21-.3921-.758-1.105-.622-2.0414 0-.0097 0-.0227.003-.0324.127-.5379.004-1.4484-.366-1.8632-.479-.5411-3.098.1815-3.762.0292l-.026-.0065c-.292-.0972-.567-.2365-.82-.4148l-.143-.0939c-.197.0648-.402.1069-.609.1296l-.496.3208c.315.1976.483.5638.428.9332z" fill="#f4991e"/><path d="m159.117 83.7321s.936-1.7368 1.251-1.6655c.314.0713.382 1.6299.382 1.6299l-1.63.0356z" fill="#f4991e"/><path d="m159.658 83.2134.842.0648s0-.7582-.168-.8651c-.169-.107-.674.8003-.674.8003z" fill="#f9bf2b"/><path d="m161.268 84.3571s1.631-.5541 1.806-.1718c.175.3824-1.319 1.4582-1.319 1.4582z" fill="#f4991e"/><path d="m162.15 85.4689c-.126.2139-.292.4051-.489.5638-.37.2852-.927.4472-1.744.0616-1.319-.6254-1.306-1.9053-1.04-2.3265.13-.2107.305-.3889.515-.5217.408-.2625.927-.2884 1.361-.0681 1.076.5541 1.614 1.9442 1.4 2.2909z" fill="#fff"/><path d="m161.959 84.3504.149.7161s.842-.5703.8-.7583c-.042-.1879-.949.0422-.949.0422z" fill="#f9bf2b"/><path d="m160.624 85.1185c-.085.1847-.305.2657-.486.1782-.182-.0875-.266-.3046-.179-.4861.088-.1814.305-.2657.486-.1782.03.013.055.0292.078.0486.146.094.191.2884.104.4407z" fill="#37474f"/><path d="m161.479 84.7748c.062.081.049.1944-.032.2592-.081.0616-.195.0486-.26-.0324-.061-.081-.048-.1944.033-.2592.013-.0097.026-.0162.039-.0227.074-.0454.172-.0194.22.0551z" fill="#37474f"/><path d="m160.523 83.7909c.097.0259.159.1264.133.2236s-.126.1588-.224.1328c-.097-.0259-.158-.1263-.132-.2236.003-.0162.009-.0291.016-.0421.032-.081.126-.1199.207-.0907z" fill="#37474f"/><path d="m162.15 85.4689c-.126.2139-.292.4051-.489.5638-.198-.0842-.321-.2819-.311-.4957.042-.162.119-.3143.226-.444.107-.1328.13-.3175.059-.473-.127-.1945-.454-.1718-.564-.3759-.084-.1555.016-.3532-.029-.5217-.068-.1814-.25-.2981-.441-.2787-.24.0551-.486.0908-.732.107-.201-.013-.383-.1296-.48-.3046.408-.2625.927-.2884 1.361-.0681 1.076.5541 1.611 1.9442 1.397 2.2909z" fill="#f4991e"/><path d="m109.142 108.275h-7.139c-.476 0-.859-.386-.862-.862 0-.477.386-.859.862-.862h7.139c.477 0 .859.385.862.862 0 .476-.385.858-.862.862z" fill="#a8dbe8"/><path d="m112.017 63.7942h-7.139c-.477 0-.859-.3856-.862-.862 0-.4763.385-.8586.862-.8619h7.139c.476 0 .859.3856.862.8619 0 .4764-.386.8587-.862.862z" fill="#a8dbe8"/><path d="m102.486 57.882h-14.2297c-.4764 0-.8588-.3856-.862-.8619 0-.4763.3856-.8587.862-.8619h14.2297c.476 0 .859.3856.862.8619 0 .4763-.386.8587-.862.8619z" fill="#a8dbe8"/><path d="m88.2951 53.0559h-14.2297c-.4764 0-.8588-.3856-.862-.8619 0-.4764.3856-.8587.862-.862h14.2297c.4764 0 .8588.3856.8621.862 0 .4763-.3857.8586-.8621.8619z" fill="#a8dbe8"/><path d="m132.686 105.134h-7.139c-.477 0-.859-.386-.862-.862 0-.476.385-.859.862-.862h7.139c.476 0 .859.386.862.862 0 .476-.386.859-.862.862z" fill="#50b8d4"/><path d="m137.868 98.2942h-7.14c-.476 0-.858-.3856-.862-.862 0-.4763.386-.8586.862-.8619h7.14c.476 0 .858.3856.862.8619 0 .4764-.386.8587-.862.862z" fill="#50b8d4"/><path d="m102.117 102.114h-20.1411c-.4764 0-.8588-.385-.862-.861 0-.477.3856-.859.862-.862h20.1411c.476 0 .858.385.862.862 0 .476-.386.858-.862.861z" fill="#a8dbe8"/><path d="m104.46 95.9543h-12.0686c-.4764 0-.8588-.3856-.862-.8619 0-.4763.3856-.8587.862-.8619h12.0686c.476 0 .858.3856.862.8619 0 .4763-.386.8587-.862.8619z" fill="#a8dbe8"/><path d="m80.3361 107.591h-12.0682c-.4764 0-.8588-.386-.862-.862 0-.476.3856-.859.862-.862h12.0682c.4764 0 .8588.386.8621.862 0 .476-.3857.859-.8621.862z" fill="#a8dbe8"/><path d="m216.846 79.9348h-12.068c-.477 0-.859-.3856-.862-.8619 0-.4764.385-.8587.862-.862h12.068c.476 0 .859.3856.862.862 0 .4763-.386.8586-.862.8619z" fill="#88d3e1"/><path d="m196.277 79.9348h-12.068c-.476 0-.859-.3856-.862-.8619 0-.4764.386-.8587.862-.862h12.068c.477 0 .859.3856.862.862 0 .4763-.385.8586-.862.8619z" fill="#88d3e1"/><path d="m139.365 71.8629c-2.009-.2689-3.263 1.5521-4.278 1.928-1.17.4342-1.691-.6999-2.654-1.0952-1.118-.4569-1.727.0097-2.57.6675-.246.2462-.603.3434-.94.256-.337-.107-.638-.3079-.865-.58-.1-.1167-.084-.2398-.269-.2366-.217.0032-.308.2754-.295.4504.042.4634.266.8943.619 1.1957.587.4374 1.264.7323 1.98.8651.717.1329 1.4.4116 2.006.8166.817.6416 1.397 1.7141 2.431 2.0479 1.251.4018 2.129-.849 3.364-.7129.58.0648 1.179.2333 1.737.0583.369-.081.677-.3435.813-.6966.13-.4796.036-.7777.454-1.186.671-.6545 1.455-1.484 1.072-2.5371-.337-.9235-1.779-1.1309-2.608-1.2443z" fill="#f4991e"/><path d="m124.338 81.1471s.505-1.1503.703-1.672c.363-.9623.927-5.1034.927-5.1034l-.943-.3014c-.677 2.8482-1.611 5.272-2.359 6.4352l1.672.6449z" fill="#37474f"/><path d="m125.968 74.3678s.473-.5573.428-.9429c-.046-.3856-3.296-2.7543-2.246-1.3577.898 1.1924.872 2.0025.872 2.0025l.943.3013z" fill="#37474f"/><path d="m143.072 80.4014c.292-.094.596-.1296.901-.1005.301.0875.528 1.2443.201 1.2443-.382-.0551-.758-.149-1.121-.2851z" fill="#fff"/><path d="m138.023 76.6855s1.773 3.4186 2.116 3.6324c.344.2139 2.933.0843 2.933.0843.097.2786.088.5832-.019.8586 0 0-3.296.3435-3.912.1718-.615-.1718-2.443-2.6441-2.443-2.6441l1.328-2.103z" fill="#88d3e1"/><path d="m139.096 73.5067c-.321.0518-.613.4277-.813.5217-.049-.175-.205-.2981-.386-.2981-.243.0486-.399.2851-.347.5281 0 .0065 0 .013.003.0195.172.9332.088 1.1697-.628 1.4711-.538.2268.619 1.1535 1.011 1.0693.197-.0422.139-.5347.34-.5671s.48.3532.781.3759 1.711-1.9442 1.773-2.3265c.061-.3824-1.041-.8976-1.731-.7874z" fill="#fff"/><path d="m131.568 79.474c-.703-.2624-1.439-.4244-2.188-.4892-.982-.0324-4.472 1.6266-4.89 1.0563-1.452-1.9733-6.105-3.9434-6.105-3.9434l-.567.6739c1.766 1.1082 5.522 5.0873 5.881 5.178.597.1523 8.404.1394 8.404.1394l-.535-2.6182z" fill="#455b65"/><path d="m118.385 76.099s-.496-.849-.823-.742c-1.715.5541-2.862 2.9746-2.074 2.3751.787-.5994 2.33-.9591 2.33-.9591z" fill="#455b65"/><path d="m141.598 80.4004c.265-.1102.554-.1555.842-.1296.302.0842.801 1.2443.473 1.2443-.414-.0486-.826-.1297-1.228-.2431l-.084-.8716z" fill="#fff"/><path d="m140.856 81.9181h3.947l2.874-4.3744-.256-.1296-2.703 4.0763-3.859-.0422v.4731z" fill="#e0f2f7"/><path d="m138.023 76.6844c.117.4407-.492 3.237-.664 3.5384-.172.3013-1.219 0-1.501.2786-.939.9268-2.466 1.7174-3.752 1.5878-1.287-.1296-1.825-2.832-1.138-2.8093.687.0226 2.039.2138 2.531-.107.493-.3208 2.68-3.6453 3.581-3.3893.457.1004.823.4471.943.9008z" fill="#b5e1ea"/><path d="m138.001 76.9629-1.695 1.7368s.836 3.2273 1.5 3.2273 3.876-.6545 3.876-.6545c.123-.2852.091-.6157-.088-.8717 0 0-2.437.2495-2.822.1005-.386-.1491-.771-3.5384-.771-3.5384z" fill="#b5e1ea"/><g fill="#fff"><path d="m144.044 80.347s.658.512.7.6837-.628-.1231-.628-.1231l-.072-.5638z"/><path d="m209.972 67.4398c-.1 0-.197-.0389-.269-.1069l-2.401-2.2715-2.401 2.2715c-.159.149-.405.1426-.554-.0162s-.143-.4051.016-.5541l2.939-2.7802 2.939 2.7802c.159.149.166.3953.017.5541-.075.0778-.179.1231-.286.1231z"/><path d="m209.972 70.3402c-.1 0-.197-.0389-.269-.1069l-2.401-2.2715-2.401 2.2715c-.159.149-.405.1425-.554-.0162-.149-.1588-.143-.4051.016-.5541l2.939-2.7802 2.939 2.7802c.159.149.166.3953.017.5541-.075.0777-.179.1231-.286.1231z"/><path d="m209.972 73.2406c-.1 0-.197-.0389-.269-.1069l-2.401-2.2715-2.401 2.2715c-.159.149-.405.1425-.554-.0162-.149-.1588-.143-.4051.016-.5541l2.939-2.7802 2.939 2.7802c.159.149.166.3953.017.5541-.075.0777-.179.1231-.286.1231z"/><path d="m207.668 51.8474h-8.711c-.291 0-.528-.2366-.528-.5282s.237-.5282.528-.5282h8.711c.292 0 .529.2366.529.5282s-.237.5282-.529.5282z"/><path d="m198.957 48.3281h4.693c.292 0 .528.2366.528.5282s-.236.5282-.528.5282h-4.693c-.291 0-.528-.2366-.528-.5282s.237-.5282.528-.5282z"/><path d="m157.694 43.8727c-.797 0-1.209-.499-1.543-.8976-.34-.4115-.573-.661-1.04-.661-.466 0-.7.2527-1.04.661-.331.3986-.742.8976-1.543.8976-.8 0-1.208-.499-1.542-.8976-.34-.4115-.574-.661-1.04-.661-.467 0-.7.2527-1.041.661-.33.3986-.742.8976-1.542.8976-.801 0-1.209-.499-1.543-.8976-.34-.4115-.573-.661-1.04-.661-.178 0-.324-.1458-.324-.3241 0-.1782.146-.324.324-.324.797 0 1.209.499 1.543.8976.34.4115.57.661 1.04.661s.7-.2527 1.04-.661c.331-.3986.742-.8976 1.543-.8976.8 0 1.208.499 1.542.8976.34.4115.571.661 1.04.661.47 0 .7-.2527 1.041-.661.33-.3986.742-.8976 1.542-.8976.801 0 1.209.499 1.543.8976.34.4115.573.661 1.04.661.178 0 .324.1458.324.324s-.146.3241-.324.3241z"/><path d="m157.694 46.818c-.797 0-1.209-.499-1.543-.8976-.34-.4115-.573-.661-1.04-.661-.466 0-.7.2527-1.04.661-.331.3986-.742.8976-1.543.8976-.8 0-1.208-.499-1.542-.8976-.34-.4115-.574-.661-1.04-.661-.467 0-.7.2527-1.041.661-.33.3986-.742.8976-1.542.8976-.801 0-1.209-.499-1.543-.8976-.34-.4115-.573-.661-1.04-.661-.178 0-.324-.1458-.324-.324 0-.1783.146-.3241.324-.3241.797 0 1.209.499 1.543.8976.34.4115.57.661 1.04.661s.7-.2527 1.04-.661c.331-.3986.742-.8976 1.543-.8976.8 0 1.208.499 1.542.8976.34.4115.571.661 1.04.661.47 0 .7-.2527 1.041-.661.33-.3986.742-.8976 1.542-.8976.801 0 1.209.499 1.543.8976.34.4115.573.661 1.04.661.178 0 .324.1458.324.324 0 .1783-.146.3241-.324.3241z"/><path d="m115.52 39.7203 3.801 2.1936c.334.1912.448.6189.256.9494-.061.107-.149.1945-.256.256l-3.801 2.1937c-.334.1912-.758.0778-.95-.256-.061-.1069-.093-.2268-.093-.3467v-4.3906c0-.3856.311-.6967.696-.6967.123 0 .243.0325.347.094z"/><path d="m100.688 84.1531 3.334-.8295c.292-.0745.587.1037.661.3953.023.094.023.1912-.006.2852l-.95 3.3051c-.084.2884-.385.4568-.674.3726-.091-.0259-.175-.0778-.24-.1458l-2.385-2.4724c-.21-.2171-.204-.5605.01-.7711.068-.0681.156-.1167.25-.1394z"/></g><path d="m161.447 70.7123c6.17-1.7498 6.666 6.3412-3.231 6.0399-5.681-8.091 1.319-11.7785 3.231-6.0399z" fill="#f4991e"/></g></svg>