<svg fill="none" height="186" viewBox="0 0 249 186" width="249" xmlns="http://www.w3.org/2000/svg" xmlns:xlink="http://www.w3.org/1999/xlink"><clipPath id="a"><path d="m0 0h249v186h-249z"/></clipPath><g clip-path="url(#a)"><path d="m249 158.679c0 15.09-55.741 27.321-124.502 27.321-68.7609 0-124.498-12.231-124.498-27.321s55.7411-27.322 124.502-27.322c68.761 0 124.502 12.232 124.502 27.322z" fill="#f4f8fd"/><path d="m180.121 164.359c0 3.139-13.982 5.681-31.232 5.681s-31.232-2.546-31.232-5.681 13.982-5.68 31.232-5.68 31.232 2.545 31.232 5.68z" fill="#dce2ea"/><path d="m140.051 171.646c0 3.14-11.895 5.681-26.567 5.681-14.6723 0-26.5675-2.545-26.5675-5.681 0-3.135 11.8952-5.68 26.5675-5.68 14.672 0 26.567 2.545 26.567 5.68z" fill="#dce2ea"/><path d="m90.3877 170.735c0 3.139-11.8953 5.681-26.5674 5.681s-26.5674-2.546-26.5674-5.681 11.8953-5.68 26.5674-5.68 26.5674 2.545 26.5674 5.68z" fill="#dce2ea"/><path d="m242.845 160.354c0 4.067-16.982 7.364-37.935 7.364-20.952 0-37.934-3.297-37.934-7.364 0-4.066 16.982-7.364 37.934-7.364 20.953 0 37.935 3.298 37.935 7.364z" fill="#dce2ea"/><path d="m33.81 23.0763h181.384c2.022 0 3.666 1.6428 3.666 3.6719v109.2858c0 2.025-1.64 3.672-3.666 3.672h-181.384c-2.0217 0-3.666-1.643-3.666-3.672v-109.2899c0-2.025 1.6402-3.6718 3.666-3.6718z" fill="#84c0fc"/><path d="m215.028 41.8994h-181.0514v93.4396h181.0514z" fill="#f0f0f2"/><path d="m214.95 41.8262h-181.0506v93.4388h181.0506z" fill="#f4f8fd"/><path d="m154.037 95.6149c0 1.8461-1.494 3.3425-3.337 3.3425h-21.326c-1.843 0-3.337-1.4964-3.337-3.3425 0-1.846 1.494-3.3424 3.337-3.3424h21.326c1.843 0 3.337 1.4964 3.337 3.3424z" fill="#2cc9e1" opacity=".4"/><path d="m215.028 32.3428h-181.1286v7.1038h181.1286z" fill="#f4f8fd"/><path d="m210.412 95.6143h-98.499v25.9227h98.499z" fill="#2cc9e1"/><path d="m210.412 52.874h-46.863v36.0924h46.863z" fill="#2c76d6"/><path d="m53.3822 27.8541c0 1.1467-.9256 2.0738-2.0705 2.0738s-2.0705-.9271-2.0705-2.0738.9256-2.0738 2.0705-2.0738 2.0705.9271 2.0705 2.0738z" fill="#f4f8fd"/><path d="m45.9408 27.8541c0 1.1467-.9256 2.0738-2.0705 2.0738s-2.0705-.9271-2.0705-2.0738.9256-2.0738 2.0705-2.0738 2.0705.9271 2.0705 2.0738z" fill="#f4f8fd"/><path d="m205.995 56.0742h-28.244c-1.121 0-2.03.9103-2.03 2.0332v3.3059c0 1.1228.909 2.0331 2.03 2.0331h28.244c1.121 0 2.03-.9103 2.03-2.0331v-3.3059c0-1.1229-.909-2.0332-2.03-2.0332z" fill="#fff" opacity=".5"/><path d="m196.795 66.0205h-28.244c-1.121 0-2.03.9103-2.03 2.0332v3.3018c0 1.1228.909 2.0331 2.03 2.0331h28.244c1.121 0 2.03-.9103 2.03-2.0331v-3.3018c0-1.1229-.909-2.0332-2.03-2.0332z" fill="#fff" opacity=".5"/><path d="m38.5033 27.8541c0 1.1467-.9256 2.0738-2.0705 2.0738s-2.0705-.9271-2.0705-2.0738.9256-2.0738 2.0705-2.0738 2.0705.9271 2.0705 2.0738z" fill="#f4f8fd"/><path d="m90.2495.894583c0 .496087-.4019.894587-.8931.894587h-26.5633c-.4953 0-.8932-.40257-.8932-.894587 0-.496087.4019-.894583.8932-.894583h26.5633c.4953 0 .8931.402562.8931.894583z" fill="#fff"/><path d="m90.2495 5.04595c0 .49609-.4019.89458-.8931.89458h-26.5633c-.4953 0-.8932-.40256-.8932-.89458 0-.49609.4019-.89458.8932-.89458h26.5633c.4953 0 .8931.40256.8931.89458z" fill="#fff"/><path d="m80.6034 9.19829c0 .49609-.4019.89461-.8931.89461h-16.9172c-.4953 0-.8932-.40259-.8932-.89461 0-.49608.4019-.89458.8932-.89458h16.9172c.4953 0 .8931.40256.8931.89458z" fill="#fff"/><path d="m68.4401 45.2823c0 .4961-.4019.8946-.8931.8946h-28.0655c-.4953 0-.8931-.4026-.8931-.8946 0-.4961.4019-.8946.8931-.8946h28.0614c.4953 0 .8932.4026.8932.8946z" fill="#949fb1"/><path d="m57.2958 49.4297c0 .4961-.4019.8946-.8932.8946h-16.9172c-.4953 0-.8931-.4025-.8931-.8946 0-.496.4019-.8945.8931-.8945h16.9172c.4953 0 .8932.4025.8932.8945z" fill="#949fb1"/><path d="m101.069 62.0027c-2.8134 0-5.1641 2.0006-5.704 4.6599l-57.0281-13.7847v68.7161h68.5541v-53.7603c0-3.2205-2.607-5.831-5.822-5.831z" fill="#c3cbd8"/><path d="m137.953 114.678 17.729 49.108c.365 1.013 1.482 1.537 2.497 1.171l16.86-6.107c1.011-.366 1.535-1.489 1.169-2.501l-17.729-49.109c-.365-1.012-1.482-1.541-2.497-1.171l-16.864 6.108c-1.011.366-1.539 1.484-1.169 2.501zm9.479-2.257c-.231-.643.098-1.35.739-1.582.642-.232 1.352.102 1.583.744.232.643-.101 1.35-.742 1.582-.642.232-1.348-.098-1.58-.74z" fill="#fff"/><path d="m158.974 111.066-18.924 6.835 4.002 11.116 18.924-6.835z" fill="#2c76d6"/><path d="m162.976 122.183-18.924 6.835 4.002 11.116 18.924-6.835z" fill="#2c76d6" opacity=".7"/><path d="m166.975 133.302-18.924 6.835 4.002 11.116 18.924-6.835z" fill="#2c76d6" opacity=".4"/><path d="m170.976 144.417-18.923 6.835 4.002 11.116 18.923-6.835z" fill="#2c76d6" opacity=".2"/><path d="m137.697 110.86.044 52.219c0 1.078.877 1.952 1.949 1.952l17.932-.016c1.076 0 1.949-.875 1.949-1.956l-.045-52.219c0-1.078-.873-1.952-1.948-1.952l-17.933.016c-1.075 0-1.948.874-1.944 1.956zm9.682 1.098c0-.683.553-1.236 1.235-1.236s1.234.553 1.238 1.236c0 .683-.552 1.236-1.234 1.236s-1.235-.553-1.235-1.236z" fill="#fff"/><path d="m158.69 114.604h-20.116v11.817h20.116z" fill="#f4bf33"/><path d="m158.69 126.421h-20.116v11.817h20.116z" fill="#fad64a"/><path d="m158.69 138.237h-20.116v11.817h20.116z" fill="#fad64a" opacity=".5"/><path d="m158.69 150.05h-20.116v11.816h20.116z" fill="#fad64a" opacity=".2"/><path d="m138.703 107.248-17.591 49.158c-.361 1.016.167 2.13 1.178 2.496l16.88 6.059c1.015.362 2.132-.162 2.493-1.179l17.591-49.157c.362-1.017-.162-2.135-1.177-2.497l-16.881-6.059c-1.015-.366-2.131.163-2.493 1.179zm8.741 4.311c.232-.643.938-.98 1.579-.749.642.232.975.94.747 1.582-.231.643-.937.976-1.579.744-.641-.227-.978-.939-.747-1.577z" fill="#fff"/><path d="m138.271 111.082-3.991 11.12 18.931 6.815 3.99-11.12z" fill="#2cc9e1"/><path d="m134.283 122.195-3.991 11.12 18.931 6.816 3.991-11.121z" fill="#2cc9e1" opacity=".7"/><path d="m130.289 133.32-3.99 11.12 18.93 6.816 3.991-11.121z" fill="#2cc9e1" opacity=".4"/><path d="m126.289 144.414-3.988 11.121 18.932 6.812 3.988-11.121z" fill="#2cc9e1" opacity=".2"/><path d="m147.952 111.494c0 .874 1.364.874 1.364 0v-4.428c0-.878-1.364-.878-1.364 0z" fill="#817c89"/><path d="m66.9054 172.325-4.0761 1.098c-1.9649.439-2.3993-2.618-.4141-3.184 0 0 6.1141-.841 6.3618.944.0771.549-.9176.866-1.8716 1.138z" fill="#141424"/><path d="m70.0723 172.012-4.2222 1.216c-2.038.492-2.5374-2.664-.4791-3.286 0 0 6.3455-.992 6.6338.854.0893.565-.9419.915-1.9285 1.216z" fill="#141424"/><path d="m81.6019 94.9111c-.3086.553-1.0799.6424-1.5955.2805s-.8161-1.0979-.4547-1.6143l.4871-.431c.2842-.4066.7105-.7075 1.2139-.5408.4669.1504.7917 1.5208.3492 2.3096z" fill="#ccedff"/><path d="m66.8123 117.345c-2.3141 2.126-5.972-1.745-3.6579-3.867l10.0561-8.023c.7754-.716 3.0855 1.37 2.31 2.082l-8.7123 9.808z" fill="#1a4884"/><path d="m75.9022 106.96c-.3816.829-1.2626 1.24-1.969.915s-1.1327-1.452-.751-2.281l6.1425-10.3409c.3816-.8336 2.0339-.1545 1.6523.6791z" fill="#1a4884"/><path d="m65.9961 155.206c0 1.428-6.2358 1.428-6.2358 0l-1.4981-16.927c0-1.428 2.172-2.587 4.8474-2.587 2.6795 0 4.8474 1.159 4.8474 2.587z" fill="#2cc9e1"/><path d="m64.6767 171.304c0 .862-3.6823.81-3.6823-.053l-1.2341-15.724c0-1.35 6.2358-1.35 6.2358 0l-1.3235 15.773z" fill="#2cc9e1"/><path d="m68.9801 155.206c0 1.428-5.9355 1.428-5.9355 0l-1.425-16.927c0-1.428 2.0624-2.587 4.612-2.587 2.5455 0 4.6119 1.159 4.6119 2.587z" fill="#96e5f0"/><path d="m67.7217 171.304c0 .862-3.4996.81-3.4996-.053l-1.1733-15.724c0-1.35 5.9355-1.35 5.9355 0l-1.2586 15.773z" fill="#96e5f0"/><path d="m64.6117 112.271c-5.8258 0-6.3495 11.824-6.3495 26.414 0 0 1.6726.98 6.3495.98s6.3496-.98 6.3496-.98c0-14.59-.4019-26.414-6.3496-26.414z" fill="#2c76d6"/><path d="m80.3112 73.2871v60.8519c0 .285.2314.512.5115.512.2802 0 .5116-.231.5116-.512v-60.8519h-1.0272z" fill="#03243b"/><path d="m68.5214 104.377c-1.0515-3.371-3.6701-5.5501-5.8462-4.867-2.176.679-3.0895 3.969-2.038 7.336.6902 2.212 2.0583 3.903 3.528 4.619l-.138.98c-.0731.512 1.7822.777 1.8553.26l.1258-.894c.1624-.021.3208-.049.4791-.098 2.176-.683 3.0895-3.969 2.038-7.336z" fill="#ccedff"/><path d="m67.0641 102.922s.5886-.574.4912-1.631c-.0934-1.057-1.4534-2.6391-3.459-2.6269-1.7294.0122-4.6687 1.4559-4.9813 5.2049-.3005 3.574 2.4967 8.116 5.5578 6.75 3.5118-1.57 1.3925-6.075 2.1883-5.119.7957.955 1.5021 1.065 1.0555-.248-.4466-1.314-.7835-1.887-.8485-2.326z" fill="#293c68"/><path d="m69.8247 119.012-1.6077-3.005c-1.7579-2.818-5.7162-.13-3.9543 2.688l6.5282 9.316c-.1543-3.452-.4385-6.514-.9662-8.999z" fill="#3063dc"/><path d="m63.8203 118.76c-2.2979-2.139 1.7376-6.734 4.0314-4.591l8.2657 9.715c.7714.719-1.1651 3.094-1.9365 2.374l-10.3647-7.502z" fill="#408ffc"/><path d="m81.7078 111.123c-.3086-.162-.7389-.089-1.1043.074-.0081-.066-.0284-.127-.0731-.179-.1218-.135-.3288-.147-.4628-.029l-.3572.317s-.0325.041-.0447.061c-.0771.073-.138.171-.1583.289l-.1178.708c-.0081.044 0 .085 0 .126-.0933.394.0163.829.3289 1.138.475.464 1.2748.508 1.6726 0 .5684-.72.7673-2.269.3126-2.505z" fill="#ccedff"/><path d="m76.3728 125.355c-.3491.846-1.2098 1.293-1.9284.996-.7186-.296-1.1935-1.402-.8485-2.248l5.7041-10.589c.3491-.846 2.0258-.236 1.6767.61l-4.6039 11.235z" fill="#408ffc"/><path d="m81.4561 94.0863c.0366-.0976.0569-.1993.0569-.2725v-.8905c0-.2033-.1584-.366-.3532-.366-.0528 0-.0975.0163-.1421.0448-.0041-.0122-.0082-.0285-.0122-.0407-.1056-.1789-.3329-.2399-.5116-.1383 0 0-1.092.4392-1.092 1.5615 0 .2928.0609.366.3044.4514.2436.0853.5806-.0651.5928-.3579.0081-.2318-.0163-.5733.203-.797l.2314-.1342c-.0934.5449.0487 1.2646.4263 1.2646 0 0 .1705.0488.1705.2359 0 .187.0081.4148.0081.4148l.2273-.8377-.1096-.1423z" fill="#ccedff"/><path d="m84.4967 69.737h-7.3767c-1.0637 0-1.0637-3.5417 0-3.5417h7.3767c1.0636 0 1.0636 3.5417 0 3.5417z" fill="#03243b"/><path d="m84.9759 67.9312c0 .7726-.1908 1.4029-.4303 1.4029-.2396 0-.4304-.6263-.4304-1.4029 0-.7767.1908-1.4029.4304-1.4029.2395 0 .4303.6262.4303 1.4029z" fill="#949fb1"/><path d="m80.8104 72.7788c-.1137 0-.203-.0935-.1989-.2073.0121-.8743.0324-2.1999 1.7782-2.1999h2.9149c.5765 0 .8769-.5815.8769-1.1548 0-.2969-.0771-.5693-.2233-.7645-.1542-.2074-.3654-.3172-.6333-.3172h-.7795v-.4066c.1137 0 .2071.0895.2071.2033 0 .0407-.0122.0814-.0325.1139l.6049-.3172c.3979 0 .7308.1667.9622.4839.1948.2643.3004.6221.3004 1.0044 0 .7766-.4385 1.5614-1.2829 1.5614h-2.9149c-1.2464 0-1.356.7442-1.3723 1.7973 0 .1098-.0933.1993-.2029.1993z" fill="#1a4884"/><path d="m81.5207 74.5227c0 .7442-1.425.7442-1.425 0v-2.0046c0-.7442 1.425-.7442 1.425 0z" fill="#949fb1"/><path d="m39.4894 133.695h-28.715v26.557h28.715z" fill="#f4bf33"/><path d="m10.7745 133.695h9.707l-4.7013-5.286h-9.70696z" fill="#f4bf33"/><path d="m49.1963 133.695h-9.707l4.6972-5.286h9.711z" fill="#f4bf33"/><path d="m49.1964 133.695h-28.715v26.557h28.715z" fill="#fad64a"/><g fill="#2cc9e1"><path d="m30.3712 153.022h-1.3316v4.526h1.3316z"/><path d="m27.7974 153.145 1.9081-1.497 1.9081 1.497z"/><path d="m31.6136 157.179h-3.8162v.736h3.8162z"/><path d="m25.8526 153.022h-1.3316v4.526h1.3316z"/><path d="m23.2788 153.145 1.9081-1.497 1.9081 1.497z"/><path d="m27.095 157.179h-3.8162v.736h3.8162z"/></g><path d="m44.8526 147.639h-4.003v12.613h4.003z" fill="#f4bf33"/><path d="m44.8488 160.252-5.2372 3.79-.95-1.895 2.5212-1.895z" fill="#dce2ea"/><path d="m40.3788 162.944c-.268.886-1.2017 1.606-2.0868 1.606h-29.07627c-.88504 0-1.38845-.72-1.12457-1.606l4.40084-14.684c.2679-.886 1.2017-1.606 2.0867-1.606h29.0763c.8851 0 1.3885.72 1.1246 1.606z" fill="#fff"/><path d="m131.172 148.139c.711 0 3.167.016 2.566.463-.702.521-1.34.606-2.241.476-.897-.13-.442-.939-.325-.939z" fill="#fad64a"/><path d="m109.404 140.043 9.431 6.352c4.177.085 12.289 1.509 12.289 1.509.641.016.58 1.374-.061 1.358l-12.683-.318c-.036 0-.069-.008-.101-.016-.151-.012-.297-.049-.435-.11-.04-.016-.077-.036-.113-.057-.025-.016-.053-.024-.078-.04l-10.421-5.652c-1.681-1.082.499-4.111 2.176-3.03z" fill="#0f5f88"/><path d="m123.707 172.243c-.106-.012-.207-.016-.309-.024l-.227-1.248-1.998.654.224 1.228v.004c-.057.484.889.993 2.111 1.135s2.257-.134 2.314-.618-.889-.992-2.111-1.135z" fill="#fad64a"/><path d="m123.84 172.26s.556.154.5.496c-.073.435-1.235.398-2.022.28-.901-.134-.979-.459-.979-.459s-.215.59.52.992c.735.407 4.953 1.098 5.063-.097.089-.98-2.98-1.196-3.082-1.212z" fill="#152a5a"/><path d="m100.89 171.646-.394-1.822-.9902.151h-.0041c0-.053-.004-.106-.0284-.155-.1989-.443-1.2707-.394-2.3912.114s-1.8675 1.277-1.6646 1.72c.199.443 1.2708.394 2.3913-.114.3126-.142.5886-.305.8322-.472l2.253.578z" fill="#fad64a"/><path d="m97.6791 171.593s-.5603.155-.6861-.167c-.1584-.406.8525-.976 1.5914-1.28.8404-.346 1.0758-.11 1.0758-.11s-.1136-.614-.954-.586c-.8404.029-4.8149 1.606-4.2953 2.688.4263.886 3.1667-.508 3.2641-.545z" fill="#152a5a"/><path d="m106.436 139.32c1.608 1.345 4.474.561 6.402-1.749 1.929-2.31 2.189-5.274.577-6.62-1.608-1.346-4.474-.561-6.403 1.749-1.928 2.309-2.184 5.274-.576 6.62z" fill="#293c68"/><path d="m110.752 164.209 7.214-11.016c1.409-1.634 3.378-2.765 1.746-4.176s-4.101-1.232-5.51.407l-13.705 15.903s5.034 4.945 10.255-1.114z" fill="#152a5a"/><path d="m120.641 171.943c.223.797 3.09.28 3.033-.48l-3.13-20.864c-.191-1.411-1.49-2.399-2.895-2.208-1.409.191-2.395 1.492-2.204 2.899l5.196 20.649z" fill="#152a5a"/><path d="m106.245 168.182c5.936 0 13.195-1.692 13.195-1.692 2.155 0 4.124-.057 4.124-2.22 0-2.159-1.749-3.912-3.905-3.912h-20.9772s-.4303 7.824 7.5592 7.824z" fill="#293c68"/><path d="m120.873 162.229c1.246-.086 2.346.716 2.683 1.87 0 .057.008.114.008.171 0 2.159-1.969 2.22-4.125 2.22 0 0-7.254 1.692-13.194 1.692-2.801 0-4.567-.964-5.68-2.212z" fill="#152a5a"/><path d="m100.034 168.906c-.7839.297 0 3.151.759 3.025l20.745-5.087c1.405-.325 2.282-1.728 1.957-3.131-.325-1.407-1.721-2.285-3.126-1.96l-20.335 7.157z" fill="#293c68"/><path d="m99.8674 161.216c-.7227.081-1.3398-.521-1.2748-1.249.3207-3.497 1.356-12.601 3.6414-16.651 3.382-5.998 8.518-4.998 7.446-.525-1.998 8.32-1.397 17.481-1.397 17.481z" fill="#218bbf"/><path d="m107.085 167.388c-.235.671-1.084 2.981-1.299 2.261-.251-.838-.117-1.468.309-2.273.422-.805 1.031-.102.99.012z" fill="#fad64a"/><path d="m109.347 129.633c-2.042-.199-3.893 1.643-4.137 4.115-.174 1.785.544 3.408 1.721 4.249l-.296 1.379c-.195.069-.325.175-.337.301-.032.28.483.569 1.145.642s1.226-.097 1.254-.378c.017-.142-.113-.289-.328-.407l.203-.943c1.384.089 2.667-.748 3.41-2.082.109.069.247.089.373.028.191-.093.272-.321.183-.512l-.179-.378c.122-.37.212-.765.252-1.179.24-2.473-1.222-4.64-3.264-4.839z" fill="#fad64a"/><path d="m105.295 133.35c.54 1.712 2.786 2.533 5.01 1.83 2.229-.704 3.597-2.664 3.057-4.376s-2.785-2.533-5.009-1.83c-2.229.704-3.597 2.664-3.058 4.376z" fill="#293c68"/><path d="m103.225 160.838-.642-5.005c-.045-.159-.057-.326-.04-.496 0-.021 0-.041 0-.057 0-.122.02-.244.052-.358l1.596-11.5c.422-1.956 3.276-.569 2.85 1.387l-1.884 11.906c.15 1.139.244 2.497.3 3.875l-2.237.252z" fill="#0f5f88"/><path d="m103.407 154.701s-.004-.04-.004-.057c-.008-.122.004-.244.029-.361l.787-11.585c.289-1.981 3.942-1.253 3.654.728l-1.762 12.463c.837 4.099 1.133 11.219 1.133 11.219.126.63-1.214.87-1.34.24l-2.428-12.155c-.052-.154-.081-.317-.077-.492z" fill="#39ace5"/><path d="m104.662 135.2c.321-.919.483-1.842.52-2.732.02.008.044.012.065.02 2.31.805 3.333 3.9 2.285 6.909-1.047 3.013-3.767 4.802-6.073 3.997-1.218-.423-2.0707-1.488-2.4605-2.834 2.3505-.35 4.6325-2.391 5.6635-5.356z" fill="#293c68"/><path d="m160.326 52.9678h-48.413v36.0923h48.413z" fill="#c3cbd8"/><path d="m156.169 85.7291-44.256 3.3302v-36.0923l44.256-3.3303z" fill="#1a4884"/><g fill="#fff"><path d="m138.894 72.6646c0 1.167-.893 2.1795-1.993 2.2649l-8.517.6425c-1.101.0813-1.994-.797-1.994-1.964v-3.3262c0-1.1671.893-2.1796 1.994-2.265l8.517-.6424c1.1-.0814 1.993.797 1.993 1.964z"/><path d="m129.662 78.9636c-.32.366-.84.4026-1.161.0894-.32-.3171-.32-.8701 0-1.232l3.593-4.0826c.321-.366.841-.4025 1.161-.0854.321.3172.321.8702 0 1.2321l-3.593 4.0826z"/><path d="m135.626 78.5116c.321.3172.84.2765 1.161-.0894.321-.366.321-.915 0-1.2321l-3.593-3.5418c-.321-.3171-.84-.2765-1.161.0895s-.321.9149 0 1.2321z"/><path d="m139.86 63.4504c0 2.2528-1.721 4.2127-3.848 4.3713-2.128.1586-3.849-1.5371-3.849-3.7898s1.721-4.2086 3.849-4.3712c2.123-.1586 3.848 1.537 3.848 3.7897z"/><path d="m133.121 63.9583c0 2.2527-1.721 4.2126-3.848 4.3712-2.124.1586-3.849-1.537-3.849-3.7898 0-2.2527 1.721-4.2086 3.849-4.3712 2.123-.1586 3.848 1.537 3.848 3.7898z"/><path d="m142.106 66.805c-.337-.122-.719-.0122-.975.2765l-2.902 3.2937c-.167.1911-.26.4392-.26.6872 0 .2481.093.4839.26.6506l2.902 2.8586c.171.1667.398.2481.63.2277.113-.0081.231-.0406.341-.0975.333-.1708.548-.5327.548-.915v-6.1523c0-.3822-.22-.7116-.548-.8335z"/><path d="m170.199 56.0742c-2.03 0-3.678 1.6509-3.678 3.6841 0 2.0331 1.648 3.684 3.678 3.684s3.678-1.6509 3.678-3.684c0-2.0332-1.648-3.6841-3.678-3.6841zm0 6.2865c-1.254 0-2.302-.8905-2.545-2.0779h5.087c-.244 1.1874-1.287 2.0779-2.546 2.0779z" opacity=".5"/></g><path d="m101.069 62.0027c.154 0 .308.0122.458.0244l-63.1945-9.1492 57.0281 13.7847c.54-2.6593 2.8906-4.6599 5.7044-4.6599z" fill="#dce2ea"/><path d="m97.9754 67.4474c0-2.4641 1.5347-4.5623 3.6986-5.4081-.199-.0204-.402-.0366-.605-.0366-2.8134 0-5.1641 2.0006-5.704 4.6599l-57.0281-13.7847 59.6426 16.3994v-1.8299z" fill="#949fb1"/><path d="m139.917 95.6149c0 1.8461-1.494 3.3425-3.337 3.3425h-21.33c-1.843 0-3.337-1.4964-3.337-3.3425 0-1.846 1.494-3.3424 3.337-3.3424h21.33c1.843 0 3.337 1.4964 3.337 3.3424z" fill="#2cc9e1"/><path d="m38.3368 98.0426-4.4374 1.2524v-4.42h4.4374z" fill="#c3cbd8"/><path d="m33.8994 94.875v4.42l-3.7554 1.057v-5.477z" fill="#2c76d6"/><path d="m54.0644 87.0346c0 1.2524-1.0149 2.269-2.2653 2.269-1.2505 0-2.2654-1.0166-2.2654-2.269s1.0149-2.269 2.2654-2.269c1.2504 0 2.2653 1.0166 2.2653 2.269z" fill="#fff"/><path d="m62.0259 87.0346c0 1.2524-1.015 2.269-2.2654 2.269s-2.2654-1.0166-2.2654-2.269 1.015-2.269 2.2654-2.269 2.2654 1.0166 2.2654 2.269z" fill="#fff"/><path d="m69.9829 87.0346c0 1.2524-1.015 2.269-2.2654 2.269s-2.2654-1.0166-2.2654-2.269 1.015-2.269 2.2654-2.269 2.2654 1.0166 2.2654 2.269z" fill="#fff"/></g></svg>