<svg fill="none" height="405" width="810" xmlns="http://www.w3.org/2000/svg" xmlns:xlink="http://www.w3.org/1999/xlink"><defs><linearGradient id="a"><stop offset="0" stop-color="#fff"/><stop offset="1" stop-color="#51c7ea"/></linearGradient><linearGradient id="b" gradientUnits="userSpaceOnUse" x1="407.048" x2="411.097" xlink:href="#a" y1="340.326" y2="220.045"/><linearGradient id="c" gradientUnits="userSpaceOnUse" x1="200.246" x2="310.5" xlink:href="#a" y1="389.946" y2="390.652"/><linearGradient id="d" gradientUnits="userSpaceOnUse" x1="327.111" x2="437.364" xlink:href="#a" y1="389.946" y2="390.652"/><clipPath id="e"><path d="m0 0h810v405h-810z"/></clipPath><path id="f" d="m.806 399.688c-3.086 0 6.07-2.449 9.038-4.257 6.469-3.935 12.883-8.379 19.305-12.691 20.307-13.637 34.537-24.833 55.268-35.145 59.003-29.357 118.719-50.529 178.748-68.016 181.725-52.922 373.592-6.838 546.725 120.578"/><path id="g" d="m420.87 77.357c0 .109.063.031.126-.024.885-.735 1.613-1.729 2.412-2.558 1.715-1.8 6.273-3.654 8.176-1.51 12.209 13.755 9.555-3.208 17.19-.556 7.292 2.527 4.879-1.643 8.748-6.619 3.376-4.342 8.02-7.222 11.662-11.275 1.871-2.089 6.108-6.369 4.244-9.522-3.493-5.915-10.463-5.719-16.149-7.511-5.356-1.69-13.102-7.3-18.521-6.557-11.129 1.526-13.494 17.479-19.619 24.576-2.592 2.997-8.168 5.391-9.656 9.115-1.018 2.535 9.21 13.935 11.787 13.035"/><path id="h" d="m309.521 379.392c1.136 0-2.271-.102-3.399-.141l-6.547-.196-21.091-.931-61.595-2.785-1.99-.079-1.856-.078c-4.362-.188-8.614.047-12.938.047-.336 0-.477.118-.532.477-.368 2.262 3.133 27.463 3.728 28.003 3.219 2.957 13.721-.391 17.362-.876 16.102-2.129 32.055-4.836 47.891-8.45l26.04-5.822c.807-.203 14.692-1.768 15.154-2.699"/><path id="i" d="m436.385 379.392c1.136 0-2.271-.102-3.399-.141l-6.547-.196-21.09-.931-61.596-2.785-1.989-.079-1.856-.078c-4.363-.188-8.615.047-12.938.047-.337 0-.478.118-.533.477-.368 2.262 3.133 27.463 3.728 28.003 3.219 2.957 13.721-.391 17.363-.876 16.102-2.129 32.054-4.836 47.89-8.45l26.04-5.822c.807-.203 14.692-1.768 15.154-2.699"/></defs><g clip-path="url(#e)"><g opacity=".38"><use fill="url(#b)" xlink:href="#f"/><use stroke="#fff" stroke-miterlimit="10" stroke-width=".46" xlink:href="#f"/></g><path d="m395.802 52.125c-1.59-1.588-1.034-7.456-.995-9.405.204-9.53 4.464-21.423 11.481-28.19 2.648-2.551 6.117-4.194 9.171-6.205 30.575-20.178 65.488-1.792 68.832 34.716 1.59 17.323-9.061 32.603-23.025 42.016-4.049 2.731-9.797 7.448-15.083 6.799-14.097-1.737-25.774-13.637-35.548-22.979-4.91-4.695-13.643-10.085-15.937-16.806" fill="#004c76" opacity=".15"/><path d="m393.491 256.827c0-.203.729.751.768.806a26.82 26.82 0 0 1 1.621 2.981l3.399 7.988c3.023 7.582 6.226 15.156 8.803 22.902 6.179 18.59 9.241 44.065 10.024 63.704.149 3.669.235 7.354.023 11.024-.328 5.531-.078 6.228 5.271 8.059.846.289 3.352 1.682 4.261 1.431 1.683-.461 3.046-7.425 3.351-8.637 2.373-9.194 3.556-18.692 4.355-28.144 2.482-29.293-2.569-67.076-12.03-94.891-2.404-7.065-5.544-13.872-8.661-20.648-.697-1.51-1.88-5.578-3.783-6.196-1.927-.626-5.435 2.496-6.868 3.45-1.817 1.205-3.462 2.598-4.394 4.616-1.66 3.607-1.535 8.13-2.114 11.987a174 174 0 0 1 -3.642 17.995m3.986-181.073c0-3.216-6.524-6.494-8.795-7.503-9.93-4.413-23.518-1.972-31.193 5.618-15.358 15.187-23.174 55.59-22.963 76.317.016 1.901.149 3.81 1.332 5.375 2.271 3.012 16.517 13.019 21.02 12.534 1.503-.164 2.647-1.721 3.461-2.84 14.074-19.435 16.337-43.878 25.727-65.473 2.232-5.133 10.777-17.933 11.035-22.964" fill="#4585c5"/><path d="m426.11 87.826c-.399 0 1.582-.775 1.974-.798 1.731-.086 3.477.376 4.785 1.557 3.219 2.903 3.321 7.902 2.686 11.853-2.584 16.243-12.475 32.275-18.764 47.336-.807 1.925-5.686 13.653-8.176 13.176-1.042-.203-.658-3.576-.643-4.225.102-4.742.416-9.514 1.003-14.217 2.295-18.206 7.706-38.299 17.096-54.236" fill="#67cbe4"/><path d="m352.023 208.38c-1.387-1.385-.243-7.3-.126-8.935.65-9.389 2.091-18.888 3.72-28.151 5.451-31 11.771-61.451 29.643-88.069 6.618-9.858 19.203-23.073 32.658-16.986 8.967 4.061 11.457 16.767 9.703 25.327-2.091 10.187-6.884 20.014-9.609 30.091-4.809 17.761-7.299 36.68-7.425 55.059-.062 9.506-.117 18.958.878 28.425.101 1.001 1.339 9.678.994 10.054-4.229 4.608-15.193 3.982-20.746 4.851-9.609 1.502-19.359 3.192-29.102 1.87-2.216-.298-7.832-.767-9.421-2.707-1.034-1.26-1.097-9.976-1.253-12.018" fill="#004c76"/><path d="m319.412 20.515c-.117 0 .596-1.784.643-1.901 1.018-2.425 2.122-5.023 3.806-7.073.18-.219.571-.829.932-.712 2.208.736.548 7.143 1.832 8.755 1.402 1.753 7.393.853 7.793 3.513.305 2.042-3.814 3.13-4.065 5.313-.164 1.424 1.339 7.441.329 8.231-1.237.97-5.615-4.483-7.393-4.601-2.302-.149-8.239 5.563-9.327 5.015-.65-.321 1.55-6.471 1.629-7.316.289-3.177-7.997-4.765-5.592-5.884 1.793-.829 3.829-1.275 5.678-1.987m-61.674 122.683c-.055.101.76-1.002.901-1.198.391-.524 3.696-5.25 4.197-4.569 1.026 1.385-1.198 3.889-.282 5.297.635.97 4.457 1.213 4.394 2.433-.071 1.307-3.344 1.041-3.767 2.168-.399 1.072.626 5.07-.54 5.625-.337.165-.846-.477-1.026-.665l-1.645-1.776c-2.397-2.77-3.634 1.839-6.148 1.205-.548-.141.885-3.325.838-3.865-.204-2.034-6.735-2.582-1.707-4.46m266.133 34.09c-.062 0 4.746-6.267 5.334-5.203.838 1.526-.776 3.755-.126 5.375.4 1.009 3.36 2.105 3.227 3.13-.149 1.134-2.866.829-3.352 1.799-.72 1.44-.125 4.734-1.425 5.727-.611.47-2.538-3.708-3.658-3.825-2.897-.306-6.03 1.275-6.147.985-.353-.876 1.856-3.004 1.887-4.084.039-1.533-3.336-2.723-2.968-3.975.227-.782 3.344.024 3.845.11" fill="#fab01d"/><path d="m596.338 147.978c-56.145-60.113 39.925-131.383 84.761-64.189 32.901 49.299-35.68 112.753-84.761 64.189z" fill="#67cbe4"/><use fill="#f3f3f3" xlink:href="#g"/><use stroke="#35444c" stroke-miterlimit="10" stroke-width="1.75" xlink:href="#g"/><path d="m408.152 62.217c0-.086.423-.376.494-.43 2.843-2.371 4.988-4.499 5.983-8.2 1.394-5.187-.251-10.985 1.653-16.016 1.284-3.403 6.39-5.727 9.108-11.627 2.772-6.017 6.852-14.686 14.606-15.014 10.455-.438 9.304 10.954 16.932 14.764 8.599 4.295 20.706 4.976 24.113 15.914a11.23 11.23 0 0 1 .4 4.781c-.282 2.167-1.59 3.92-3.54 4.898-8.294 4.147-9.093-4.734-14.442-6.119-3.101-.806-6.21 1.87-9.648.689-2.037-.696-2.647-4.131-4.629-4.382-3.751-.469-6.077 4.82-9.539 4.053-2.224-.493 1.629-10.015-4.268-8.372-3.767 1.048-6.923 11.587-4.95 14.67 1.794 2.793 11.583-1.393 6.336 6.471-2.639 3.951-6.97-.321-10.071-.563-1.567-.117-3.047.728-4.511 1.158-2.436.72-13.784 9.569-13.142 3.49" fill="#fab01d"/><path d="m390.382 50.818c2.717 2.715 4.527 6.854 6.774 9.968 3.689 5.117 8.098 9.804 12.734 14.068 4.731 4.35 9.9 7.949 15.421 11.204 6.116 3.607 12.303 6.956 18.717 9.991 1.747.829 6.649-4.436 6.61-4.554-.18-.532-4.017-1.479-4.558-1.737-4.26-2.042-8.497-4.389-12.57-6.784-11.175-6.58-21.176-15.766-30.089-25.1-2.764-2.903-5.309-6.032-7.228-9.569-.071-.125-.611-1.369-.799-1.346-1.151.164-3.093 3.192-4.464 3.881" fill="#4585c5"/><path d="m369.801 226.696c0-5.633-2.6-11.791-3.258-17.44-1.684-14.302-2.506-28.832-2.303-43.236.188-13.598 1.387-26.852 3.298-40.31 1.769-12.448 4.158-31.992 12.444-42.031 7.738-9.373 22.187-6.549 22.986 6.416.791 12.839-7.213 25.655-11.262 37.337-6.242 18.011-10.776 36.89-12.398 55.911-.869 10.179-1.347 20.468-1.613 30.686-.172 6.643 3.383 13.254-4.245 12.589-1.143-.102-2.584.344-3.657-.008" fill="#67cbe4"/><g fill="#004c76"><path d="m280.849 363.423c0-.086.838-.251.893-.266 2.255-.65 4.393-1.534 6.523-2.528 5.107-2.37 9.962-5.187 14.473-8.559 14.121-10.547 24.537-25.022 33.214-40.161 11.145-19.451 19.509-40.31 22.908-62.562 1.284-8.419 1.19-17.15 1.542-25.655.016-.47-.61-4.147-.501-4.585 0-.032 1.034.211 1.097.219 1.409.227 2.944-.031 4.354-.172l10.659-1.103c8.56-.877 17.3-1.487 25.727-3.287 1.746-.375 8.019-2.863 9.625-1.729 1.519 1.08 1.566 7.097 1.699 8.709 1.034 12.276-6.986 25.71-12.201 36.256-15.444 31.234-39.44 59.855-63.695 84.634-9.993 10.21-20.965 20.304-33.66 27.071-2.569 1.37-5.216 2.52-7.887 3.662-.297.125-3.446 1.886-3.72 1.753-1.19-.595-2.185-4.014-3.242-5.102-2.365-2.449-5.568-3.215-8.325-5.046"/><path d="m476.514 341.124c-1.08-.54 7.542-.798 8.584-.642 5.224.79 20.871 2.222 22.218 9.068.047.251.063.517 0 .767-1.3 4.929-30.872 1.675-31.937-5.179m31.287-49.198c-.188-.094 2.592-.266 2.874-.274 4.245-.11 8.49.18 12.719.469 9.969.681 19.869 1.894 29.76 3.318 31.616 4.553 63.898 10.773 93.165 24.059 6.367 2.895 26.588 11.345 23.902 21.477-3.101 11.736-36.699 9.123-45.055 8.301-35.853-3.552-72.075-14.255-105.218-28.245-3.798-1.604-48.086-21.234-19.791-24.7m-143.53 54.651c1.919-3.826 27.262-8.215 26.761-2.057-.815 9.921-37.803 13.989-28.343 5.273m-145.613-35.717c0-4.366 15.193-9.647 17.879-10.805 8.819-3.787 71.292-24.012 75.662-13.106 4.009 10.023-57.79 24.2-66.859 26.086-3.947.822-30.152 7.01-27.504 1.886m22.242 24.082c-.439-.438.469-1.009.767-1.236 2.052-1.588 14.285-7.965 15.749-3.787 1.575 4.483-20.542 15.312-18.451 9.882" opacity=".15"/></g><path d="m346.972 209.874c-.846 0 1.605.517 2.419.752l5.569 1.69c5.286 1.337 10.745 1.674 16.18 1.674 9.664 0 19.446-2.253 28.797-4.46 3.986-.939 8.09-1.87 11.951-3.27.477-.172 2.474-1.393 2.968-1.182.673.29 1.652 9.976 1.511 11.47-.297 3.107-18.49 6.471-21.466 7.081-11.356 2.316-24.239 2.285-35.759.963-2.397-.274-8.717.461-10.581-1.401-.986-.986-1.636-10.821-1.918-13.082" fill="#67cbe4"/><path d="m361.758 206.698c0-.516.235.962.258 1.072l.549 2.464 1.754 7.965c1.55 8.466 1.519 10.211 10.204 10.931.901.078 5.24.68 5.96-.125 1.488-1.659.682-8.513.729-10.641.117-5.305.086-10.923 1.135-16.141.039-.196.204-.65.024-.83-.877-.868-23.237-.07-20.394 5.618" fill="#4585c5"/><path d="m368.68 227.627c0-.18-.885 1.972-1.073 2.394-.759 1.698-2.13 3.067-3.821 3.819-2.467 1.095-18.624-.736-12.304 7.323 5.106 6.51 17.966 6.917 23.056.477 1.888-2.378 6.258-10.891 1.88-13.622-1.997-1.244-5.662-.461-7.949-.688m53.396 152.218c0 .133-2.812-1.768-3.039-1.987-1.441-1.409-5.999-6.893-1.973-8.177 3.986-1.275 9.131 2.246 12.773 3.459 4.824 1.604 9.57 1.322 14.504 1.995 2.107.289 4.566 1.471 4.754 3.881.282 3.607-3.642 4.858-6.485 5.297-7.001 1.072-13.642-.259-19.673-3.85m-135.424-16.399-1.879-1.009c-1.308-.712-2.679-1.26-4.198-1.018-2.624.423-2.06 3.999-1.198 5.673 3.539 6.932 18.592 17.925 26.047 20.452 3.76 1.276 14.09 1.15 11.724-5.774-1.323-3.865-8.278-4.953-11.684-6.001-6.595-2.042-14.708-6.549-18.647-12.456" fill="#67cbe4"/><path d="m281.014 361.388c-.258-.524 2.357 1.628 2.631 1.87l5.819 5.196c6.422 5.797 8.654 6.83 16.243 2.237.713-.43 4.033-1.447 4.182-2.331.439-2.543-5.772-6.815-7.424-8.443-1.637-1.611-6.712-8.567-8.317-9.068-1.034-.328-2.452 1.698-3.11 2.269-2.498 2.183-8.043 4.491-9.515 7.425" fill="#4585c5"/><g fill="#004c76"><path d="m413.219 364.01c-.423-.259 1.018 2.777 1.19 3.356.259.869-.039 5.508.384 5.978 1.261 1.393 15.726 2.285 17.676 1.377 1.527-.72 1.339-2.918 1.535-3.92.204-1.025 1.731-3.842.493-4.749-.845-.618-4.495-.282-5.685-.337-5.005-.234-9.798-.946-14.669-1.596"/><path d="m595.1 73.93c-4.73-3.044-73.264-41.648-64.258-13.606 11.45 35.639 118.234 87.075 151.221 103.263 7.925 3.888 51.673 25.851 58.525 13.575 8.443-15.116-48.117-50.685-51.453-48.596-.658.407-2.319 2.253-1.81 3.044.572.899 1.786 1.486 2.632 2.081 10.604 7.503 26.533 16.908 32.039 29.223.587 1.314.948 2.918-.791 3.396-4.3 1.173-10.4-1.424-14.355-2.778-3.893-1.33-7.714-2.863-11.458-4.561-38.328-17.386-77.235-36.782-111.514-61.216-4.269-3.044-31.46-22.956-25.492-30.076 7.62-9.099 22.704 9.452 29.689 13.708" opacity=".15"/></g><g opacity=".19"><use fill="url(#c)" xlink:href="#h"/><use stroke="#fff" stroke-miterlimit="10" stroke-width=".24" xlink:href="#h"/></g><g opacity=".19"><use fill="url(#d)" xlink:href="#i"/><use stroke="#fff" stroke-miterlimit="10" stroke-width=".24" xlink:href="#i"/></g><path d="m170.847 100.423s57.789-57.656 132.268-71.857m-75.473 49.589c14.253-8.348 25.084-24.419 75.465-40.443" stroke="#004c76" stroke-miterlimit="10" stroke-width="1.47"/></g></svg>