<?xml version="1.0" encoding="UTF-8"?>
<svg xmlns="http://www.w3.org/2000/svg" xmlns:xlink="http://www.w3.org/1999/xlink" width="1400pt" height="475pt" viewBox="0 0 1400 475" version="1.1">
<g id="surface1">
<path style=" stroke:none;fill-rule:nonzero;fill:rgb(19.599915%,21.598816%,23.498535%);fill-opacity:1;" d="M 780.925781 286.328125 L 779.082031 286.328125 C 769.589844 286.328125 768.273438 283.957031 768.273438 271.828125 L 768.273438 214.617188 L 780.925781 214.617188 C 808.34375 214.617188 813.355469 234.652344 813.355469 250.207031 C 813.355469 266.289063 808.34375 286.328125 780.925781 286.328125 M 669.667969 249.679688 L 669.667969 214.617188 L 680.476563 214.617188 C 692.339844 214.617188 697.617188 222.789063 697.617188 232.277344 C 697.617188 241.507813 692.339844 249.679688 680.476563 249.679688 Z M 780.136719 206.707031 L 732.941406 206.707031 L 732.941406 211.714844 C 747.707031 211.714844 750.078125 214.878906 750.078125 233.597656 L 750.078125 267.347656 C 750.078125 286.0625 747.707031 289.492188 732.941406 289.492188 C 721.609375 287.910156 713.960938 281.84375 703.414063 270.246094 L 691.289063 257.0625 C 707.632813 254.164063 716.332031 243.878906 716.332031 232.277344 C 716.332031 217.78125 703.941406 206.707031 680.742188 206.707031 L 634.339844 206.707031 L 634.339844 211.714844 C 649.101563 211.714844 651.476563 214.878906 651.476563 233.597656 L 651.476563 267.347656 C 651.476563 286.0625 649.101563 289.492188 634.339844 289.492188 L 634.339844 294.5 L 686.804688 294.5 L 686.804688 289.492188 C 672.042969 289.492188 669.667969 286.0625 669.667969 267.347656 L 669.667969 257.855469 L 674.148438 257.855469 L 703.414063 294.5 L 780.136719 294.5 C 817.839844 294.5 834.183594 274.464844 834.183594 250.46875 C 834.183594 226.480469 817.839844 206.707031 780.136719 206.707031 "/>
<path style=" stroke:none;fill-rule:nonzero;fill:rgb(19.599915%,21.598816%,23.498535%);fill-opacity:1;" d="M 487.492188 259.4375 L 505.683594 205.648438 C 510.957031 190.09375 508.585938 185.613281 491.710938 185.613281 L 491.710938 180.339844 L 541.277344 180.339844 L 541.277344 185.613281 C 524.667969 185.613281 520.714844 189.566406 514.121094 208.816406 L 484.066406 298.984375 L 480.640625 298.984375 L 453.746094 216.460938 L 426.328125 298.984375 L 422.898438 298.984375 L 393.636719 208.816406 C 387.308594 189.566406 383.089844 185.613281 367.796875 185.613281 L 367.796875 180.339844 L 426.328125 180.339844 L 426.328125 185.613281 C 410.769531 185.613281 406.550781 189.304688 412.089844 205.648438 L 429.753906 259.4375 L 456.382813 180.339844 L 461.394531 180.339844 Z M 487.492188 259.4375 "/>
<path style=" stroke:none;fill-rule:nonzero;fill:rgb(19.599915%,21.598816%,23.498535%);fill-opacity:1;" d="M 577.128906 211.453125 C 552.875 211.453125 544.4375 233.332031 544.4375 250.46875 C 544.4375 267.871094 552.875 289.492188 577.128906 289.492188 C 601.652344 289.492188 610.085938 267.871094 610.085938 250.46875 C 610.085938 233.332031 601.652344 211.453125 577.128906 211.453125 M 577.128906 297.925781 C 548.128906 297.925781 524.398438 276.574219 524.398438 250.46875 C 524.398438 224.632813 548.128906 203.277344 577.128906 203.277344 C 606.132813 203.277344 629.859375 224.632813 629.859375 250.46875 C 629.859375 276.574219 606.132813 297.925781 577.128906 297.925781 "/>
<path style=" stroke:none;fill-rule:nonzero;fill:rgb(19.599915%,21.598816%,23.498535%);fill-opacity:1;" d="M 893.5 189.832031 L 878.472656 189.832031 L 878.472656 235.707031 L 893.5 235.707031 C 908.265625 235.707031 915.117188 225.425781 915.117188 213.035156 C 915.117188 200.378906 908.265625 189.832031 893.5 189.832031 M 899.300781 289.226563 L 899.300781 294.5 L 838.925781 294.5 L 838.925781 289.226563 C 856.589844 289.226563 859.753906 284.746094 859.753906 258.378906 L 859.753906 216.199219 C 859.753906 189.832031 856.589844 185.613281 838.925781 185.613281 L 838.925781 180.339844 L 893.5 180.339844 C 920.65625 180.339844 935.6875 194.3125 935.6875 213.035156 C 935.6875 231.226563 920.65625 245.460938 893.5 245.460938 L 878.472656 245.460938 L 878.472656 258.378906 C 878.472656 284.746094 881.636719 289.226563 899.300781 289.226563 "/>
<path style=" stroke:none;fill-rule:nonzero;fill:rgb(19.599915%,21.598816%,23.498535%);fill-opacity:1;" d="M 977.078125 249.679688 L 977.078125 214.617188 L 987.886719 214.617188 C 999.75 214.617188 1005.027344 222.789063 1005.027344 232.277344 C 1005.027344 241.507813 999.75 249.679688 987.886719 249.679688 Z M 1116.804688 269.71875 L 1115.488281 274.464844 C 1113.117188 283.164063 1110.214844 286.328125 1091.496094 286.328125 L 1087.804688 286.328125 C 1074.097656 286.328125 1071.722656 283.164063 1071.722656 264.445313 L 1071.722656 252.320313 C 1092.289063 252.320313 1093.871094 254.164063 1093.871094 267.871094 L 1098.878906 267.871094 L 1098.878906 228.589844 L 1093.871094 228.589844 C 1093.871094 242.296875 1092.289063 244.140625 1071.722656 244.140625 L 1071.722656 214.617188 L 1086.222656 214.617188 C 1104.941406 214.617188 1107.839844 217.78125 1110.214844 226.480469 L 1111.535156 231.488281 L 1115.75 231.488281 L 1113.90625 206.707031 L 1036.394531 206.707031 L 1036.394531 211.714844 C 1051.15625 211.714844 1053.53125 214.878906 1053.53125 233.597656 L 1053.53125 267.347656 C 1053.53125 284.46875 1051.511719 288.785156 1039.875 289.398438 C 1028.808594 287.710938 1021.214844 281.675781 1010.824219 270.246094 L 998.695313 257.0625 C 1015.042969 254.164063 1023.742188 243.878906 1023.742188 232.277344 C 1023.742188 217.78125 1011.351563 206.707031 988.152344 206.707031 L 941.75 206.707031 L 941.75 211.714844 C 956.511719 211.714844 958.882813 214.878906 958.882813 233.597656 L 958.882813 267.347656 C 958.882813 286.0625 956.511719 289.492188 941.75 289.492188 L 941.75 294.5 L 994.214844 294.5 L 994.214844 289.492188 C 979.453125 289.492188 977.078125 286.0625 977.078125 267.347656 L 977.078125 257.855469 L 981.558594 257.855469 L 1010.824219 294.5 L 1119.179688 294.5 L 1120.761719 269.71875 Z M 1116.804688 269.71875 "/>
<path style=" stroke:none;fill-rule:nonzero;fill:rgb(19.599915%,21.598816%,23.498535%);fill-opacity:1;" d="M 1170.328125 297.925781 C 1159.78125 297.925781 1150.550781 292.390625 1146.597656 288.960938 C 1145.277344 290.28125 1142.90625 294.238281 1142.378906 297.925781 L 1137.371094 297.925781 L 1137.371094 261.546875 L 1142.640625 261.546875 C 1144.753906 278.945313 1156.878906 289.226563 1172.433594 289.226563 C 1180.871094 289.226563 1187.726563 284.480469 1187.726563 276.574219 C 1187.726563 269.71875 1181.660156 264.445313 1170.851563 259.4375 L 1155.824219 252.320313 C 1145.277344 247.304688 1137.371094 238.605469 1137.371094 227.007813 C 1137.371094 214.351563 1149.234375 203.542969 1165.582031 203.542969 C 1174.28125 203.542969 1181.660156 206.707031 1186.144531 210.398438 C 1187.464844 209.339844 1188.78125 206.441406 1189.574219 203.277344 L 1194.582031 203.277344 L 1194.582031 234.390625 L 1189.046875 234.390625 C 1187.199219 221.996094 1180.34375 211.714844 1166.375 211.714844 C 1158.988281 211.714844 1152.132813 215.933594 1152.132813 222.527344 C 1152.132813 229.378906 1157.671875 233.070313 1170.328125 238.871094 L 1184.824219 245.988281 C 1197.484375 252.050781 1202.488281 261.808594 1202.488281 269.71875 C 1202.488281 286.328125 1187.988281 297.925781 1170.328125 297.925781 "/>
<path style=" stroke:none;fill-rule:nonzero;fill:rgb(19.599915%,21.598816%,23.498535%);fill-opacity:1;" d="M 1250.046875 297.925781 C 1239.5 297.925781 1230.269531 292.390625 1226.316406 288.960938 C 1225 290.28125 1222.625 294.238281 1222.101563 297.925781 L 1217.089844 297.925781 L 1217.089844 261.546875 L 1222.363281 261.546875 C 1224.472656 278.945313 1236.597656 289.226563 1252.15625 289.226563 C 1260.589844 289.226563 1267.449219 284.480469 1267.449219 276.574219 C 1267.449219 269.71875 1261.382813 264.445313 1250.574219 259.4375 L 1235.546875 252.320313 C 1225 247.304688 1217.089844 238.605469 1217.089844 227.007813 C 1217.089844 214.351563 1228.953125 203.542969 1245.300781 203.542969 C 1254.003906 203.542969 1261.382813 206.707031 1265.867188 210.398438 C 1267.183594 209.339844 1268.5 206.441406 1269.292969 203.277344 L 1274.300781 203.277344 L 1274.300781 234.390625 L 1268.765625 234.390625 C 1266.917969 221.996094 1260.0625 211.714844 1246.09375 211.714844 C 1238.710938 211.714844 1231.851563 215.933594 1231.851563 222.527344 C 1231.851563 229.378906 1237.390625 233.070313 1250.046875 238.871094 L 1264.546875 245.988281 C 1277.203125 252.050781 1282.210938 261.808594 1282.210938 269.71875 C 1282.210938 286.328125 1267.710938 297.925781 1250.046875 297.925781 "/>
<path style=" stroke:none;fill-rule:nonzero;fill:rgb(19.599915%,21.598816%,23.498535%);fill-opacity:1;" d="M 237.289063 118.644531 C 171.761719 118.644531 118.644531 171.761719 118.644531 237.289063 C 118.644531 302.8125 171.761719 355.933594 237.289063 355.933594 C 302.8125 355.933594 355.933594 302.8125 355.933594 237.289063 C 355.933594 171.761719 302.8125 118.644531 237.289063 118.644531 M 237.289063 125.761719 C 252.347656 125.761719 266.953125 128.710938 280.695313 134.523438 C 287.304688 137.316406 293.675781 140.777344 299.636719 144.804688 C 305.542969 148.796875 311.101563 153.378906 316.148438 158.429688 C 321.195313 163.476563 325.78125 169.03125 329.769531 174.9375 C 333.800781 180.898438 337.257813 187.273438 340.050781 193.878906 C 345.867188 207.625 348.8125 222.230469 348.8125 237.289063 C 348.8125 252.347656 345.867188 266.953125 340.050781 280.695313 C 337.257813 287.304688 333.800781 293.675781 329.769531 299.636719 C 325.78125 305.546875 321.195313 311.101563 316.148438 316.148438 C 311.101563 321.195313 305.542969 325.78125 299.636719 329.769531 C 293.675781 333.800781 287.304688 337.257813 280.695313 340.050781 C 266.953125 345.867188 252.347656 348.8125 237.289063 348.8125 C 222.230469 348.8125 207.625 345.867188 193.878906 340.050781 C 187.273438 337.257813 180.898438 333.800781 174.9375 329.769531 C 169.03125 325.78125 163.476563 321.195313 158.429688 316.148438 C 153.378906 311.101563 148.796875 305.546875 144.804688 299.636719 C 140.777344 293.675781 137.316406 287.304688 134.523438 280.695313 C 128.710938 266.953125 125.761719 252.347656 125.761719 237.289063 C 125.761719 222.230469 128.710938 207.625 134.523438 193.878906 C 137.316406 187.273438 140.777344 180.898438 144.804688 174.9375 C 148.796875 169.03125 153.378906 163.476563 158.429688 158.429688 C 163.476563 153.378906 169.03125 148.796875 174.9375 144.804688 C 180.898438 140.777344 187.273438 137.316406 193.878906 134.523438 C 207.625 128.710938 222.230469 125.761719 237.289063 125.761719 "/>
<path style=" stroke:none;fill-rule:nonzero;fill:rgb(19.599915%,21.598816%,23.498535%);fill-opacity:1;" d="M 324.050781 189.855469 C 324.472656 193.003906 324.714844 196.382813 324.714844 200.019531 C 324.714844 210.050781 322.835938 221.328125 317.195313 235.429688 L 286.996094 322.742188 C 316.390625 305.605469 336.15625 273.757813 336.15625 237.285156 C 336.15625 220.09375 331.765625 203.933594 324.050781 189.855469 M 239.023438 245.933594 L 209.355469 332.128906 C 218.214844 334.734375 227.582031 336.15625 237.289063 336.15625 C 248.800781 336.15625 259.847656 334.171875 270.121094 330.554688 C 269.859375 330.128906 269.613281 329.679688 269.414063 329.191406 Z M 304.035156 232.296875 C 304.035156 220.074219 299.644531 211.617188 295.882813 205.03125 C 290.871094 196.882813 286.171875 189.992188 286.171875 181.84375 C 286.171875 172.757813 293.0625 164.296875 302.773438 164.296875 C 303.210938 164.296875 303.628906 164.347656 304.054688 164.375 C 286.464844 148.257813 263.027344 138.417969 237.289063 138.417969 C 202.746094 138.417969 172.359375 156.140625 154.679688 182.980469 C 157 183.054688 159.1875 183.101563 161.042969 183.101563 C 171.382813 183.101563 187.394531 181.84375 187.394531 181.84375 C 192.71875 181.53125 193.351563 189.359375 188.027344 189.992188 C 188.027344 189.992188 182.667969 190.617188 176.710938 190.929688 L 212.714844 298.023438 L 234.355469 233.132813 L 218.949219 190.929688 C 213.625 190.617188 208.582031 189.992188 208.582031 189.992188 C 203.25 189.675781 203.875 181.53125 209.207031 181.84375 C 209.207031 181.84375 225.53125 183.101563 235.246094 183.101563 C 245.585938 183.101563 261.601563 181.84375 261.601563 181.84375 C 266.929688 181.53125 267.558594 189.359375 262.230469 189.992188 C 262.230469 189.992188 256.867188 190.617188 250.914063 190.929688 L 286.644531 297.207031 L 296.84375 264.890625 C 301.375 250.765625 304.035156 240.757813 304.035156 232.296875 M 138.417969 237.285156 C 138.417969 276.417969 161.160156 310.238281 194.144531 326.261719 L 146.980469 197.046875 C 141.492188 209.34375 138.417969 222.949219 138.417969 237.285156 "/>
</g>
</svg>
