<svg height="475pt" viewBox="0 0 1400 475" width="1400pt" xmlns="http://www.w3.org/2000/svg"><g fill="#32373c"><path d="m780.925781 286.328125h-1.84375c-9.492187 0-10.808593-2.371094-10.808593-14.5v-57.210937h12.652343c27.417969 0 32.429688 20.035156 32.429688 35.589843 0 16.082032-5.011719 36.121094-32.429688 36.121094m-111.257812-36.648437v-35.0625h10.808594c11.863281 0 17.140625 8.171875 17.140625 17.660156 0 9.230469-5.277344 17.402344-17.140625 17.402344zm110.46875-42.972657h-47.195313v5.007813c14.765625 0 17.136719 3.164062 17.136719 21.882812v33.75c0 18.714844-2.371094 22.144532-17.136719 22.144532-11.332031-1.582032-18.980468-7.648438-29.527343-19.246094l-12.125-13.183594c16.34375-2.898437 25.042968-13.183594 25.042968-24.785156 0-14.496094-12.390625-25.570313-35.589843-25.570313h-46.402344v5.007813c14.761719 0 17.136719 3.164062 17.136719 21.882812v33.75c0 18.714844-2.375 22.144532-17.136719 22.144532v5.007812h52.464844v-5.007812c-14.761719 0-17.136719-3.429688-17.136719-22.144532v-9.492187h4.480469l29.265625 36.644531h76.722656c37.703125 0 54.046875-20.035156 54.046875-44.03125 0-23.988281-16.34375-43.761719-54.046875-43.761719"/><path d="m487.492188 259.4375 18.191406-53.789062c5.273437-15.554688 2.902344-20.035157-13.972656-20.035157v-5.273437h49.566406v5.273437c-16.609375 0-20.5625 3.953125-27.15625 23.203125l-30.054688 90.167969h-3.425781l-26.894531-82.523437-27.417969 82.523437h-3.429687l-29.261719-90.167969c-6.328125-19.25-10.546875-23.203125-25.839844-23.203125v-5.273437h58.53125v5.273437c-15.558594 0-19.777344 3.691407-14.238281 20.035157l17.664062 53.789062 26.628907-79.097656h5.011718zm0 0"/><path d="m577.128906 211.453125c-24.253906 0-32.691406 21.878906-32.691406 39.015625 0 17.402344 8.4375 39.023438 32.691406 39.023438 24.523438 0 32.957032-21.621094 32.957032-39.023438 0-17.136719-8.433594-39.015625-32.957032-39.015625m0 86.472656c-29 0-52.730468-21.351562-52.730468-47.457031 0-25.835937 23.730468-47.191406 52.730468-47.191406 29.003907 0 52.730469 21.355469 52.730469 47.191406 0 26.105469-23.726562 47.457031-52.730469 47.457031"/><path d="m893.5 189.832031h-15.027344v45.875h15.027344c14.765625 0 21.617188-10.28125 21.617188-22.671875 0-12.65625-6.851563-23.203125-21.617188-23.203125m5.800781 99.394532v5.273437h-60.375v-5.273437c17.664063 0 20.828125-4.480469 20.828125-30.847657v-42.179687c0-26.367188-3.164062-30.585938-20.828125-30.585938v-5.273437h54.574219c27.15625 0 42.1875 13.972656 42.1875 32.695312 0 18.191407-15.03125 32.425782-42.1875 32.425782h-15.027344v12.917968c0 26.367188 3.164063 30.847657 20.828125 30.847657"/><path d="m977.078125 249.679688v-35.0625h10.808594c11.863281 0 17.140625 8.171875 17.140625 17.660156 0 9.230469-5.277344 17.402344-17.140625 17.402344zm139.726563 20.039062-1.316407 4.746094c-2.371093 8.699219-5.273437 11.863281-23.992187 11.863281h-3.691406c-13.707032 0-16.082032-3.164062-16.082032-21.882812v-12.125c20.566407 0 22.148438 1.84375 22.148438 15.550781h5.007812v-39.28125h-5.007812c0 13.707031-1.582031 15.550781-22.148438 15.550781v-29.523437h14.5c18.71875 0 21.617188 3.164062 23.992188 11.863281l1.320312 5.007812h4.214844l-1.84375-24.78125h-77.511719v5.007813c14.761719 0 17.136719 3.164062 17.136719 21.882812v33.75c0 17.121094-2.019531 21.4375-13.65625 22.050782-11.066406-1.6875-18.660156-7.722657-29.050781-19.152344l-12.128906-13.183594c16.347656-2.898437 25.046875-13.183594 25.046875-24.785156 0-14.496094-12.390625-25.570313-35.589844-25.570313h-46.402344v5.007813c14.761719 0 17.132813 3.164062 17.132813 21.882812v33.75c0 18.714844-2.371094 22.144532-17.132813 22.144532v5.007812h52.464844v-5.007812c-14.761719 0-17.136719-3.429688-17.136719-22.144532v-9.492187h4.480469l29.265625 36.644531h108.355469l1.582031-24.78125zm0 0"/><path d="m1170.328125 297.925781c-10.546875 0-19.777344-5.535156-23.730469-8.964843-1.320312 1.320312-3.691406 5.277343-4.21875 8.964843h-5.007812v-36.378906h5.269531c2.113281 17.398438 14.238281 27.679688 29.792969 27.679688 8.4375 0 15.292969-4.746094 15.292969-12.652344 0-6.855469-6.066407-12.128906-16.875-17.136719l-15.027344-7.117187c-10.546875-5.015625-18.453125-13.714844-18.453125-25.3125 0-12.65625 11.863281-23.464844 28.210937-23.464844 8.699219 0 16.078125 3.164062 20.5625 6.855469 1.320313-1.058594 2.636719-3.957032 3.429688-7.121094h5.007812v31.113281h-5.535156c-1.847656-12.394531-8.703125-22.675781-22.671875-22.675781-7.386719 0-14.242187 4.21875-14.242187 10.8125 0 6.851562 5.539062 10.542969 18.195312 16.34375l14.496094 7.117187c12.660156 6.0625 17.664062 15.820313 17.664062 23.730469 0 16.609375-14.5 28.207031-32.160156 28.207031"/><path d="m1250.046875 297.925781c-10.546875 0-19.777344-5.535156-23.730469-8.964843-1.316406 1.320312-3.691406 5.277343-4.214843 8.964843h-5.011719v-36.378906h5.273437c2.109375 17.398438 14.234375 27.679688 29.792969 27.679688 8.433594 0 15.292969-4.746094 15.292969-12.652344 0-6.855469-6.066406-12.128906-16.875-17.136719l-15.027344-7.117187c-10.546875-5.015625-18.457031-13.714844-18.457031-25.3125 0-12.65625 11.863281-23.464844 28.210937-23.464844 8.703125 0 16.082032 3.164062 20.566407 6.855469 1.316406-1.058594 2.632812-3.957032 3.425781-7.121094h5.007812v31.113281h-5.535156c-1.847656-12.394531-8.703125-22.675781-22.671875-22.675781-7.382812 0-14.242187 4.21875-14.242187 10.8125 0 6.851562 5.539062 10.542969 18.195312 16.34375l14.5 7.117187c12.65625 6.0625 17.664063 15.820313 17.664063 23.730469 0 16.609375-14.5 28.207031-32.164063 28.207031"/><path d="m237.289063 118.644531c-65.527344 0-118.644532 53.117188-118.644532 118.644532 0 65.523437 53.117188 118.644531 118.644532 118.644531 65.523437 0 118.644531-53.121094 118.644531-118.644531 0-65.527344-53.121094-118.644532-118.644531-118.644532m0 7.117188c15.058593 0 29.664062 2.949219 43.40625 8.761719 6.609375 2.792968 12.980468 6.253906 18.941406 10.28125 5.90625 3.992187 11.464844 8.574218 16.511719 13.625 5.046875 5.046875 9.632812 10.601562 13.621093 16.507812 4.03125 5.960938 7.488282 12.335938 10.28125 18.941406 5.816407 13.746094 8.761719 28.351563 8.761719 43.410157 0 15.058593-2.945312 29.664062-8.761719 43.40625-2.792968 6.609375-6.25 12.980468-10.28125 18.941406-3.988281 5.910156-8.574218 11.464844-13.621093 16.511719s-10.605469 9.632812-16.511719 13.621093c-5.960938 4.03125-12.332031 7.488282-18.941406 10.28125-13.742188 5.816407-28.347657 8.761719-43.40625 8.761719-15.058594 0-29.664063-2.945312-43.410157-8.761719-6.605468-2.792968-12.980468-6.25-18.941406-10.28125-5.90625-3.988281-11.460937-8.574218-16.507812-13.621093-5.050782-5.046875-9.632813-10.601563-13.625-16.511719-4.027344-5.960938-7.488282-12.332031-10.28125-18.941406-5.8125-13.742188-8.761719-28.347657-8.761719-43.40625 0-15.058594 2.949219-29.664063 8.761719-43.410157 2.792968-6.605468 6.253906-12.980468 10.28125-18.941406 3.992187-5.90625 8.574218-11.460937 13.625-16.507812 5.046875-5.050782 10.601562-9.632813 16.507812-13.625 5.960938-4.027344 12.335938-7.488282 18.941406-10.28125 13.746094-5.8125 28.351563-8.761719 43.410157-8.761719"/><path d="m324.050781 189.855469c.421875 3.148437.664063 6.527344.664063 10.164062 0 10.03125-1.878906 21.308594-7.519531 35.410157l-30.199219 87.3125c29.394531-17.136719 49.160156-48.984375 49.160156-85.457032 0-17.191406-4.390625-33.351562-12.105469-47.429687m-85.027343 56.078125-29.667969 86.195312c8.859375 2.605469 18.226562 4.027344 27.933594 4.027344 11.511718 0 22.558593-1.984375 32.832031-5.601562-.261719-.425782-.507813-.875-.707031-1.363282zm65.011718-13.636719c0-12.222656-4.390625-20.679687-8.152343-27.265625-5.011719-8.148437-9.710938-15.039062-9.710938-23.1875 0-9.085937 6.890625-17.546875 16.601563-17.546875.4375 0 .855468.050781 1.28125.078125-17.589844-16.117187-41.027344-25.957031-66.765625-25.957031-34.542969 0-64.929688 17.722656-82.609375 44.5625 2.320312.074219 4.507812.121094 6.363281.121094 10.339844 0 26.351562-1.257813 26.351562-1.257813 5.324219-.3125 5.957032 7.515625.632813 8.148438 0 0-5.359375.625-11.316406.9375l36.003906 107.09375 21.640625-64.890625-15.40625-42.203125c-5.324219-.3125-10.367188-.9375-10.367188-.9375-5.332031-.316407-4.707031-8.460938.625-8.148438 0 0 16.324219 1.257813 26.039063 1.257813 10.339844 0 26.355469-1.257813 26.355469-1.257813 5.328125-.3125 5.957031 7.515625.628906 8.148438 0 0-5.363281.625-11.316406.9375l35.730468 106.277343 10.199219-32.316406c4.53125-14.125 7.191406-24.132812 7.191406-32.59375m-165.617187 4.988281c0 39.132813 22.742187 72.953125 55.726562 88.976563l-47.164062-129.214844c-5.488281 12.296875-8.5625 25.902344-8.5625 40.238281"/></g></svg>