<svg viewBox="-124.715 186.736 593.666 149.113" xmlns="http://www.w3.org/2000/svg"><path d="m44.139 209.136h10.08v6.384c0 .524.261.784.783.784.224 0 .43-.092.617-.28.185-.186.392-.392.616-.616 3.956-5.3 10.004-7.952 18.144-7.952 7.316 0 13.065 2.055 17.248 6.16 4.18 4.107 6.272 9.895 6.272 17.36v36.4h-10.08v-34.72c0-5.301-1.344-9.332-4.032-12.096-2.688-2.761-6.571-4.144-11.648-4.144-5.751 0-10.175 1.736-13.272 5.208-3.099 3.472-4.648 8.644-4.648 15.512v30.24h-10.08zm111.438 23.52c0-5.077-1.306-9.052-3.92-11.927-2.614-2.874-6.72-4.313-12.319-4.313-5.228 0-9.503 1.4-12.824 4.201-3.323 2.799-5.359 6.814-6.104 12.039zm-42.223-10.751c2.464-4.629 5.917-8.194 10.36-10.697 4.441-2.5 9.649-3.751 15.624-3.751 5.897 0 10.919 1.231 15.063 3.695 4.144 2.465 7.242 5.732 9.296 9.801 2.054 4.07 3.08 8.531 3.08 13.384v6.719h-46.479c.372 5.824 2.332 10.456 5.88 13.888 3.545 3.436 8.305 5.152 14.28 5.152 4.853 0 8.567-.988 11.143-2.968 2.576-1.977 4.46-4.721 5.656-8.231h10.64c-1.418 5.451-4.312 10.175-8.681 14.168-4.367 3.995-10.621 5.991-18.758 5.991-6.124 0-11.519-1.251-16.186-3.752-4.666-2.502-8.269-6.065-10.806-10.696-2.539-4.628-3.808-10.08-3.808-16.352s1.232-11.721 3.696-16.351m62.048-12.769h10.193l11.2 47.376c.148.524.316.878.504 1.064.185.188.464.28.84.28.372 0 .672-.092.896-.28.224-.186.372-.54.448-1.064l11.088-47.376h18.143l11.089 47.376c.148.524.316.878.504 1.064.184.188.464.28.84.28.372 0 .672-.092.895-.28.224-.186.373-.54.448-1.064l11.201-47.376h10.19v2.24l-13.663 56h-17.919l-11.536-48.832c-.224-.672-.6-1.008-1.12-1.008-.3 0-.524.075-.672.224-.152.151-.3.411-.448.784l-11.537 48.832h-17.92l-13.664-56zm94.078 0h14v-1.68c0-7.017 1.697-12.225 5.096-15.625 3.397-3.395 8.604-5.095 15.624-5.095h10.081v8.96h-19.041c-.523 0-.935.151-1.232.448-.299.299-.447.711-.447 1.232v11.76h15.118v8.96h-15.118v49.28h-10.081v-49.28h-14zm59.977 13.049c-3.696 3.846-5.544 9.202-5.544 16.072s1.848 12.228 5.544 16.07c3.695 3.847 8.568 5.77 14.616 5.77s10.92-1.923 14.616-5.77c3.696-3.842 5.544-9.2 5.544-16.07s-1.848-12.226-5.544-16.072-8.568-5.768-14.616-5.768-10.921 1.922-14.616 5.768m30.016-11.144c4.592 2.39 8.214 5.898 10.864 10.528s3.976 10.192 3.976 16.688-1.326 12.06-3.976 16.686c-2.65 4.632-6.272 8.14-10.864 10.529-4.592 2.39-9.726 3.583-15.4 3.583-5.676 0-10.809-1.193-15.4-3.583-4.592-2.389-8.214-5.897-10.864-10.529-2.652-4.626-3.976-10.19-3.976-16.686s1.324-12.058 3.976-16.688c2.65-4.63 6.272-8.138 10.864-10.528 4.591-2.388 9.724-3.584 15.4-3.584 5.674 0 10.808 1.196 15.4 3.584m37.24 56.335h-10.082v-80.639h10.082zm27.943-13.048c3.694 3.846 8.568 5.768 14.616 5.768s10.92-1.922 14.616-5.768c3.696-3.844 5.544-9.2 5.544-16.072 0-6.868-1.848-12.226-5.544-16.071s-8.568-5.769-14.616-5.769-10.922 1.924-14.616 5.769c-3.696 3.845-5.544 9.203-5.544 16.071 0 6.872 1.848 12.228 5.544 16.072m-11.536-33.095c2.725-4.629 6.253-8.083 10.584-10.361 4.329-2.276 8.96-3.415 13.888-3.415 8.288 0 14.708 2.727 19.262 8.176.375.523.786.783 1.234.783.521 0 .784-.298.784-.895v-28.784h10.079v80.639h-10.079v-6.384c0-.596-.263-.896-.784-.896-.448 0-.859.262-1.234.784-4.554 5.452-10.974 8.176-19.262 8.176-4.928 0-9.559-1.139-13.888-3.416-4.331-2.278-7.859-5.73-10.584-10.359-2.727-4.629-4.087-10.305-4.087-17.025s1.36-12.394 4.087-17.023m-361.676 96.515c1.858 1.933 4.306 2.899 7.348 2.899 3.04 0 5.489-.966 7.346-2.899 1.859-1.933 2.788-4.627 2.788-8.081 0-3.452-.929-6.146-2.788-8.079-1.857-1.932-4.306-2.9-7.346-2.9-3.042 0-5.49.968-7.348 2.9-1.859 1.933-2.788 4.627-2.788 8.079 0 3.454.929 6.148 2.788 8.081m-5.8-16.639c1.37-2.328 3.144-4.062 5.321-5.209 2.176-1.144 4.505-1.716 6.981-1.716 4.167 0 7.395 1.369 9.686 4.109.186.263.394.395.618.395.263 0 .394-.149.394-.451v-14.469h5.068v40.539h-5.068v-3.21c0-.3-.131-.45-.394-.45-.224 0-.432.132-.618.394-2.291 2.74-5.519 4.111-9.686 4.111-2.476 0-4.805-.573-6.981-1.717-2.177-1.146-3.951-2.882-5.321-5.21-1.371-2.326-2.056-5.178-2.056-8.558 0-3.378.685-6.23 2.056-8.558m41.019 23.197h-5.068v-29.278h5.068zm1.124-33.782h-7.319v-6.756h7.319zm11.177 23.732c.882 1.521 2.074 2.685 3.576 3.492 1.5.808 3.152 1.209 4.954 1.209s3.453-.401 4.954-1.209c1.502-.807 2.694-1.971 3.576-3.492.882-1.52 1.323-3.331 1.323-5.432 0-2.103-.441-3.915-1.323-5.433-.882-1.522-2.074-2.684-3.576-3.492-1.501-.807-3.152-1.211-4.954-1.211s-3.454.404-4.954 1.211c-1.502.808-2.694 1.97-3.576 3.492-.882 1.518-1.322 3.33-1.322 5.433 0 2.101.44 3.912 1.322 5.432m-1.041 11.008c.299 1.877 1.172 3.359 2.619 4.449 1.444 1.087 3.405 1.632 5.882 1.632 3.379 0 5.998-.864 7.855-2.59 1.859-1.727 2.787-4.147 2.787-7.263v-2.028c0-.225-.112-.337-.338-.337-.188 0-.357.094-.506.281-2.064 2.704-5.256 4.055-9.572 4.055-2.515 0-4.843-.572-6.983-1.718-2.139-1.144-3.856-2.814-5.151-5.012-1.296-2.194-1.942-4.832-1.942-7.909 0-3.079.646-5.716 1.942-7.912 1.295-2.195 3.012-3.865 5.151-5.012 2.14-1.144 4.468-1.716 6.983-1.716 4.09 0 7.3 1.371 9.628 4.109.337.415.638.62.901.62.149 0 .261-.046.337-.14s.132-.216.17-.366l1.069-3.379h3.379v26.183c0 4.617-1.39 8.21-4.167 10.782-2.779 2.57-6.644 3.856-11.599 3.856-4.242 0-7.573-.966-9.993-2.898-2.423-1.935-3.783-4.498-4.083-7.687zm37.16-.958h-5.068v-29.278h5.068zm1.126-33.782h-7.32v-6.756h7.32zm3.659 4.504h6.756v-7.882h5.068v7.882h7.601v4.505h-7.601v19.424c0 .264.076.471.225.62.15.15.358.226.62.226h7.602v4.504h-3.942c-3.229 0-5.632-.788-7.206-2.364-1.578-1.578-2.367-3.979-2.367-7.208v-15.202h-6.756zm31.194 24.268c1.238.902 2.965 1.351 5.18 1.351 2.89 0 5.161-.788 6.813-2.365 1.651-1.575 2.477-3.884 2.477-6.924v-.226l-10.698.226c-1.914.037-3.332.421-4.251 1.153-.921.732-1.38 1.756-1.38 3.069 0 1.576.619 2.815 1.859 3.716m-4.251-9.825c1.782-1.483 4.456-2.261 8.023-2.337l10.698-.226v-1.182c0-2.214-.638-3.942-1.914-5.18s-3.266-1.858-5.97-1.858c-2.401 0-4.222.526-5.46 1.578-1.239 1.05-1.858 2.401-1.858 4.053h-5.349c.112-1.915.674-3.641 1.689-5.18 1.013-1.539 2.459-2.751 4.334-3.632 1.878-.881 4.091-1.323 6.644-1.323 4.28 0 7.508 1.032 9.686 3.096 2.177 2.066 3.265 4.975 3.265 8.727v18.3h-5.067v-3.04c0-.225-.112-.337-.337-.337-.189 0-.377.112-.564.337-2.027 2.589-5.011 3.885-8.952 3.885-3.604 0-6.429-.882-8.474-2.648-2.047-1.762-3.068-4.07-3.068-6.924 0-2.589.89-4.626 2.674-6.109m36.457 14.835h-5.068v-40.538h5.068zm-323.524-62.956 27.55-27.078 90.6 87.984h-55.638zm-4.459 64.649 33.672-25.656-33.672-32.484zm127.529-64.763-27.549 27.078-90.602-87.984h55.639zm4.458-64.649-33.672 25.656 33.672 32.484z" fill="#fff"/></svg>