<svg width="64" height="50" viewBox="0 0 64 50" fill="none" xmlns="http://www.w3.org/2000/svg">
<g clip-path="url(#clip0_29_59)">
<path d="M56.3935 28.3782L57.793 26.9652C57.6655 26.0285 57.4857 25.0997 57.2546 24.1835L56.4569 24.5909L57.1735 23.8674C56.8765 22.7373 56.6089 22.0078 56.6089 22.0078C56.6089 22.0078 53.7884 24.9063 52.3306 28.3052L53.2339 30.7013L51.998 29.161C51.8571 29.5632 51.7414 29.9739 51.6515 30.3907C50.7596 34.5964 51.3978 38.2997 53.0769 38.6623C54.756 39.0249 56.8403 35.9095 57.7322 31.7038C58.0087 30.4 58.0057 28.9728 57.8701 27.6239L56.3935 28.3782Z" fill="#A4BFCE"/>
<path d="M60.5523 31.3131L62.4742 30.8335C62.8449 29.9651 63.1667 29.0763 63.4382 28.1713L62.5467 28.1041L63.5307 27.8585C63.8554 26.7362 64 25.9722 64 25.9722C64 25.9722 60.1007 26.9822 57.1117 29.1315L56.6575 31.6538L56.3886 29.6906C56.0619 29.9614 55.7525 30.2526 55.462 30.5626C52.5441 33.6976 51.1934 37.2007 52.4451 38.3869C53.6968 39.5731 57.0769 37.9933 59.9948 34.8583C60.8994 33.8864 61.6278 32.6631 62.2027 31.4376L60.5523 31.3131Z" fill="#A4BFCE"/>
<path d="M42.21 13.8911L42.6821 10.1518C41.4201 8.90233 40.0892 7.72567 38.6959 6.62744L37.9716 8.16469L38.2133 6.25016C36.477 4.90943 35.2431 4.13251 35.2431 4.13251C35.2431 4.13251 34.3497 11.7443 36.0627 18.5154L40.1522 21.0392L36.5455 20.18C36.7953 20.9445 37.0924 21.6923 37.4353 22.4191C40.9158 29.735 46.1053 34.5187 49.0262 33.1037C51.9472 31.6888 51.4935 24.6109 48.0129 17.295C46.9339 15.027 45.2965 12.9004 43.5508 11.0453L42.21 13.8911Z" fill="#A4BFCE"/>
<path d="M51.7748 13.4263L54.0945 10.4716C53.6542 8.74369 53.1177 7.04225 52.4875 5.37535L51.08 6.31351L52.2676 4.80069C51.4681 2.74733 50.8098 1.43864 50.8098 1.43864C50.8098 1.43864 46.1458 7.48868 44.1437 14.1785L46.3516 18.4721L43.7042 15.8554C43.5265 16.64 43.3978 17.4352 43.319 18.2362C42.5509 26.3144 44.5428 33.1162 47.7681 33.4285C50.9934 33.7407 54.2307 27.4452 54.9988 19.3669C55.2369 16.8626 54.9245 14.1882 54.3805 11.6895L51.7748 13.4263Z" fill="#A4BFCE"/>
<path d="M9.01279 14.4407L8.77815 10.5172C7.24507 9.48389 5.65547 8.53867 4.0169 7.68604L3.57014 9.40273L3.45001 7.3939C1.4135 6.35989 0 5.80527 0 5.80527C0 5.80527 0.547042 13.7788 3.60301 20.3811L8.27779 22.1669L4.41742 21.9922C4.82019 22.7265 5.26834 23.4345 5.7592 24.1121C10.7308 30.9269 16.9668 34.8129 19.6876 32.7918C22.4084 30.7706 20.5838 23.6077 15.6122 16.793C14.071 14.6803 11.9848 12.8219 9.83985 11.2627L9.01279 14.4407Z" fill="#A4BFCE"/>
<path d="M18.7235 12.0933L20.5324 8.61221C19.7494 6.92803 18.8728 5.28976 17.9068 3.7052L16.645 4.94174L17.5712 3.15943C16.3576 1.21205 15.4316 0 15.4316 0C15.4316 0 11.8155 7.111 11.0495 14.3568L14.1365 18.3239L10.9213 16.1608C10.89 16.9995 10.9109 17.8394 10.984 18.6754C11.7491 27.1023 15.0967 33.6815 18.4612 33.3705C21.8257 33.0595 23.9329 25.976 23.1679 17.5492C22.9307 14.9367 22.0969 12.2577 21.0594 9.80413L18.7235 12.0933Z" fill="#A4BFCE"/>
<path d="M28.844 47.3177C30.1615 47.3177 31.2295 47.0098 31.2295 46.63C31.2295 46.2501 30.1615 45.9422 28.844 45.9422C27.5265 45.9422 26.4585 46.2501 26.4585 46.63C26.4585 47.0098 27.5265 47.3177 28.844 47.3177Z" fill="#A4BFCE"/>
<path d="M54.8118 50C56.1293 50 57.1973 49.6921 57.1973 49.3122C57.1973 48.9324 56.1293 48.6245 54.8118 48.6245C53.4943 48.6245 52.4263 48.9324 52.4263 49.3122C52.4263 49.6921 53.4943 50 54.8118 50Z" fill="#A4BFCE"/>
<path d="M59.7874 44.3604C61.1048 44.3604 62.1729 44.0525 62.1729 43.6726C62.1729 43.2928 61.1048 42.9849 59.7874 42.9849C58.4699 42.9849 57.4019 43.2928 57.4019 43.6726C57.4019 44.0525 58.4699 44.3604 59.7874 44.3604Z" fill="#A4BFCE"/>
<path d="M50.0069 42.3659C51.0044 42.3659 51.813 42.1328 51.813 41.8452C51.813 41.5576 51.0044 41.3244 50.0069 41.3244C49.0093 41.3244 48.2007 41.5576 48.2007 41.8452C48.2007 42.1328 49.0093 42.3659 50.0069 42.3659Z" fill="#A4BFCE"/>
<path d="M10.8842 41.8746C11.5429 41.8746 12.0769 41.7075 12.0769 41.5013C12.0769 41.2951 11.5429 41.1279 10.8842 41.1279C10.2254 41.1279 9.69141 41.2951 9.69141 41.5013C9.69141 41.7075 10.2254 41.8746 10.8842 41.8746Z" fill="#A4BFCE"/>
<path d="M6.18153 46.0699C6.84027 46.0699 7.37428 45.9028 7.37428 45.6966C7.37428 45.4904 6.84027 45.3232 6.18153 45.3232C5.52278 45.3232 4.98877 45.4904 4.98877 45.6966C4.98877 45.9028 5.52278 46.0699 6.18153 46.0699Z" fill="#A4BFCE"/>
<path d="M6.18153 39.4675C6.84027 39.4675 7.37428 39.3003 7.37428 39.0941C7.37428 38.8879 6.84027 38.7208 6.18153 38.7208C5.52278 38.7208 4.98877 38.8879 4.98877 39.0941C4.98877 39.3003 5.52278 39.4675 6.18153 39.4675Z" fill="#A4BFCE"/>
<path d="M57.2568 40.2995L45.7 39.8868L39.6054 40.4735L29.193 41.4755L25.2746 41.8524L16.2001 44.9061C16.1637 44.9183 16.1246 44.9199 16.0873 44.9106C16.05 44.9014 16.0161 44.8816 15.9895 44.8537C15.9629 44.8258 15.9446 44.7908 15.9369 44.7528C15.9292 44.7149 15.9323 44.6755 15.9459 44.6392L15.9466 44.6385L17.5203 40.4384L17.3547 40.3153L13.024 37.1042L13.0008 37.087L7.38532 36.2231C7.30626 36.2109 7.2316 36.1785 7.16837 36.1291C7.10513 36.0797 7.05542 36.0148 7.02392 35.9406C6.99241 35.8665 6.98015 35.7854 6.98828 35.7051C6.99642 35.6248 7.02469 35.5479 7.07043 35.4817L15.6228 23.098L20.1171 16.5918L20.6045 15.8854L39.3001 15.6248L57.5533 39.7204C57.5944 39.7747 57.6194 39.8396 57.6253 39.9076C57.6313 39.9757 57.6179 40.044 57.5869 40.1047C57.5558 40.1654 57.5083 40.2159 57.4498 40.2504C57.3914 40.2849 57.3245 40.3019 57.2568 40.2995Z" fill="#135DC0"/>
<path opacity="0.2" d="M24.984 16.8904L17.3547 40.3153L13.0244 37.1042L15.6231 23.0981L20.1043 16.5763L20.1171 16.5915L24.984 16.8904Z" fill="black"/>
<path d="M18.1735 25.8641C17.3078 27.9641 17.0013 29.7181 15.9745 29.4014C14.5687 28.9678 16.0448 27.4339 16.9104 25.334C17.7761 23.234 18.3878 21.6231 19.1094 21.7967C20.4548 22.1203 19.0392 23.7642 18.1735 25.8641Z" fill="#16345B"/>
<path d="M20.135 21.6607C20.1348 21.5217 20.1074 21.3841 20.0545 21.2558C20.0016 21.1275 19.9242 21.011 19.8266 20.9129C19.7291 20.8147 19.6133 20.737 19.486 20.684C19.3587 20.631 19.2223 20.6039 19.0845 20.6041C19.0609 20.6041 19.0375 20.6052 19.0142 20.6068L18.0245 20.4836C17.9109 20.4428 17.7912 20.4221 17.6706 20.4223C17.6373 20.4224 17.6045 20.4242 17.572 20.4273L17.5338 20.4226L17.5328 20.4319C17.3006 20.4634 17.0854 20.5725 16.9217 20.7417C16.7581 20.9109 16.6553 21.1306 16.6298 21.3657C16.6043 21.6008 16.6575 21.8377 16.781 22.0387C16.9045 22.2396 17.0912 22.3931 17.3112 22.4745L17.3091 22.4935L17.4065 22.5045C17.4938 22.5276 17.5837 22.5391 17.674 22.5389C17.684 22.5389 17.6939 22.5384 17.7039 22.5381L18.7156 22.6525C18.8346 22.6979 18.9607 22.721 19.0879 22.7207C19.1353 22.7205 19.1827 22.7172 19.2296 22.7106L19.3159 22.7203L19.3164 22.6948C19.549 22.642 19.7568 22.5108 19.9056 22.3228C20.0544 22.1348 20.1353 21.9013 20.135 21.6607Z" fill="#135DC0"/>
<path opacity="0.2" d="M20.135 21.6607C20.1348 21.5217 20.1074 21.3841 20.0545 21.2558C20.0016 21.1275 19.9242 21.011 19.8266 20.9129C19.7291 20.8147 19.6133 20.737 19.486 20.684C19.3587 20.631 19.2223 20.6039 19.0845 20.6041C19.0609 20.6041 19.0375 20.6052 19.0142 20.6068L18.0245 20.4836C17.9109 20.4428 17.7912 20.4221 17.6706 20.4223C17.6373 20.4224 17.6045 20.4242 17.572 20.4273L17.5338 20.4226L17.5328 20.4319C17.3006 20.4634 17.0854 20.5725 16.9217 20.7417C16.7581 20.9109 16.6553 21.1306 16.6298 21.3657C16.6043 21.6008 16.6575 21.8377 16.781 22.0387C16.9045 22.2396 17.0912 22.3931 17.3112 22.4745L17.3091 22.4935L17.4065 22.5045C17.4938 22.5276 17.5837 22.5391 17.674 22.5389C17.684 22.5389 17.6939 22.5384 17.7039 22.5381L18.7156 22.6525C18.8346 22.6979 18.9607 22.721 19.0879 22.7207C19.1353 22.7205 19.1827 22.7172 19.2296 22.7106L19.3159 22.7203L19.3164 22.6948C19.549 22.642 19.7568 22.5108 19.9056 22.3228C20.0544 22.1348 20.1353 21.9013 20.135 21.6607Z" fill="white"/>
<path d="M6.12846 36.1178L6.00732 36.0536C9.11017 30.086 17.8861 17.3355 17.9744 17.2074L18.0867 17.2862C17.9985 17.4143 9.22735 30.1578 6.12846 36.1178Z" fill="#16345B"/>
<path d="M15.6329 45.061L15.501 45.0248C15.5649 44.7876 21.9204 21.2634 24.1271 17.2951L24.2464 17.3626C22.0479 21.3162 15.6969 44.824 15.6329 45.061Z" fill="#16345B"/>
<path d="M58.091 40.5003C54.7028 34.8681 41.9072 17.4248 41.7783 17.2493L41.8883 17.1671C42.0172 17.3427 54.8165 34.7911 58.2079 40.4287L58.091 40.5003Z" fill="#16345B"/>
<path d="M15.3865 45.6872C15.651 45.6868 15.8649 45.4083 15.8643 45.0652C15.8638 44.7222 15.649 44.4444 15.3846 44.4448C15.1201 44.4453 14.9062 44.7237 14.9068 45.0668C14.9073 45.4099 15.1221 45.6876 15.3865 45.6872Z" fill="#16345B"/>
<path d="M6.15949 36.3847C6.42392 36.3842 6.63784 36.1058 6.63729 35.7627C6.63675 35.4196 6.42194 35.1419 6.15751 35.1423C5.89308 35.1427 5.67915 35.4212 5.6797 35.7643C5.68025 36.1073 5.89506 36.3851 6.15949 36.3847Z" fill="#16345B"/>
<path d="M58.2181 40.8103C58.4825 40.8098 58.6964 40.5314 58.6959 40.1883C58.6953 39.8453 58.4805 39.5675 58.2161 39.5679C57.9517 39.5683 57.7377 39.8468 57.7383 40.1899C57.7388 40.5329 57.9537 40.8107 58.2181 40.8103Z" fill="#16345B"/>
<path d="M17.4424 17.8926L43.2482 18.1716C43.2303 16.0449 42.3802 14.0115 40.8832 12.5143C39.3861 11.0172 37.3634 10.1778 35.2557 10.1788L25.4072 10.1948C21.2878 10.2015 17.7998 13.4522 17.4664 17.5953L17.4424 17.8926Z" fill="#16345B"/>
<path opacity="0.2" d="M40.1167 26.5003H30.6851C30.5703 26.5002 30.4566 26.5231 30.3506 26.5677C30.2446 26.6123 30.1484 26.6777 30.0677 26.7602C29.987 26.8426 29.9233 26.9403 29.8803 27.0478C29.8374 27.1553 29.816 27.2703 29.8175 27.3861L29.8256 28.0821L29.9095 35.5333L29.9108 35.6771L29.9136 35.9143L29.9163 36.1461L29.932 37.5429C29.9345 37.7702 30.0246 37.9876 30.183 38.1492C30.3415 38.3108 30.556 38.4039 30.7812 38.4088C30.8044 38.4088 30.8282 38.4081 30.8521 38.4068L33.0917 38.2692L36.3319 38.0698L37.4756 37.9996L37.7305 37.9838L39.5129 37.8744H39.5135L40.1692 37.8339C40.3898 37.8201 40.5968 37.722 40.7482 37.5596C40.8997 37.3972 40.9841 37.1827 40.9844 36.9597V27.3758C40.9841 27.1437 40.8926 26.9211 40.73 26.757C40.5673 26.5929 40.3468 26.5006 40.1167 26.5003Z" fill="black"/>
<path d="M42.0587 25.2833C42.0245 25.2861 41.9915 25.2964 41.9618 25.3136C41.9321 25.3307 41.9065 25.3543 41.887 25.3826L40.8477 25.3843V25.1062C40.8475 24.8741 40.756 24.6515 40.5933 24.4874C40.4307 24.3233 40.2101 24.2309 39.9801 24.2307H30.5485C30.4336 24.2306 30.3199 24.2535 30.2139 24.2981C30.108 24.3427 30.0118 24.4081 29.9311 24.4905C29.8504 24.573 29.7867 24.6707 29.7437 24.7782C29.7007 24.8857 29.6794 25.0007 29.6808 25.1165L29.6842 25.4024L29.014 25.4035C28.9772 25.3641 28.9268 25.3405 28.8732 25.3377C28.6383 25.3381 28.4487 25.8558 28.4497 26.4939C28.4507 27.1321 28.642 27.6492 28.8769 27.6488C28.9178 27.6443 28.9571 27.6299 28.9913 27.6069C29.0256 27.5838 29.0539 27.5528 29.0738 27.5164L41.8903 27.4956C41.91 27.5239 41.9356 27.5474 41.9654 27.5644C41.9951 27.5815 42.0282 27.5917 42.0623 27.5944C42.2973 27.594 42.4869 27.0763 42.4858 26.4381C42.4848 25.8 42.2936 25.2829 42.0587 25.2833Z" fill="#135DC0"/>
<path opacity="0.2" d="M42.0587 25.2833C42.0246 25.2861 41.9915 25.2964 41.9618 25.3136C41.9321 25.3307 41.9065 25.3543 41.887 25.3826L40.8477 25.3843V25.1062C40.8475 24.8741 40.756 24.6515 40.5934 24.4874C40.4307 24.3233 40.2101 24.2309 39.9801 24.2307H30.5485C30.4336 24.2306 30.3199 24.2535 30.2139 24.2981C30.108 24.3427 30.0118 24.4081 29.9311 24.4905C29.8504 24.573 29.7867 24.6707 29.7437 24.7782C29.7008 24.8857 29.6794 25.0007 29.6808 25.1165L29.6842 25.4024L29.014 25.4035C28.9772 25.3641 28.9268 25.3405 28.8732 25.3377C28.6383 25.3381 28.4487 25.8558 28.4497 26.4939C28.4507 27.1321 28.642 27.6492 28.8769 27.6488C28.9178 27.6443 28.9571 27.6299 28.9913 27.6069C29.0256 27.5838 29.0539 27.5528 29.0738 27.5164L41.8903 27.4956C41.91 27.5239 41.9356 27.5474 41.9654 27.5644C41.9951 27.5815 42.0282 27.5917 42.0623 27.5944C42.2973 27.594 42.4869 27.0763 42.4858 26.4381C42.4848 25.8 42.2936 25.2829 42.0587 25.2833Z" fill="white"/>
<path d="M41.0028 39.894C40.9403 39.9529 40.8652 39.9965 40.7833 40.0213C40.7014 40.046 40.615 40.0514 40.5307 40.0368C40.4464 40.0223 40.3666 39.9883 40.2975 39.9375C40.2284 39.8866 40.1719 39.8204 40.1324 39.7438L39.6196 38.7504L39.8236 38.3044L40.9229 39.0143C40.994 39.0602 41.0538 39.122 41.0977 39.1948C41.1416 39.2676 41.1684 39.3495 41.1761 39.4344C41.1838 39.5193 41.1722 39.6048 41.1422 39.6844C41.1121 39.7641 41.0644 39.8357 41.0028 39.894Z" fill="#FFB8B8"/>
<path d="M43.218 45.6901C43.2058 45.5754 43.1516 45.4693 43.066 45.3927C42.9804 45.3162 42.8695 45.2746 42.7551 45.2762C42.6509 45.2755 42.5495 45.3101 42.4672 45.3746C42.3848 45.439 42.3263 45.5295 42.301 45.6315L41.8469 47.8567C41.8319 47.9217 41.8241 47.9883 41.8237 48.055C41.8237 48.5568 42.2399 48.9055 42.7551 48.9055C43.2704 48.9055 43.6868 48.5568 43.6868 48.055C43.6865 47.9747 43.6757 47.8946 43.6546 47.8171L43.218 45.6901Z" fill="#16345B"/>
<path d="M46.653 46.6854C46.6068 46.6445 46.5572 46.6079 46.5046 46.5759L44.7697 45.3525C44.6008 45.2455 44.4204 45.2485 44.2894 45.3777C44.2323 45.4326 44.1959 45.506 44.1868 45.5851C44.1777 45.6642 44.1964 45.744 44.2395 45.8107L45.5494 47.548C45.5794 47.5901 45.6128 47.6296 45.6493 47.666C45.8763 47.9221 46.3798 47.9362 46.6565 47.666C46.9295 47.3914 46.9262 46.9019 46.653 46.6854Z" fill="#16345B"/>
<path d="M47.9567 44.8731H46.1996C46.1433 44.871 46.0884 44.8914 46.0469 44.9298C46.0054 44.9683 45.9807 45.0218 45.9781 45.0786C45.9772 45.131 45.9937 45.1822 46.025 45.224C46.0563 45.2658 46.1005 45.2958 46.1507 45.3092L47.8082 45.8266C48.049 45.8833 48.3734 45.6667 48.3734 45.3963C48.3734 45.0524 48.1837 44.8731 47.9567 44.8731Z" fill="#16345B"/>
<path d="M39.5961 45.0776C39.5943 45.0484 39.5867 45.0198 39.5738 44.9936C39.5609 44.9674 39.5429 44.944 39.5209 44.9249C39.499 44.9058 39.4735 44.8912 39.4459 44.8822C39.4183 44.8731 39.3892 44.8697 39.3603 44.8721H37.6033C37.3819 44.8721 37.1953 45.1133 37.1953 45.3837C37.1953 45.6541 37.5102 45.8832 37.7517 45.8266L39.4342 45.3092C39.4846 45.2974 39.529 45.2672 39.5589 45.2245C39.5887 45.1818 39.602 45.1295 39.5961 45.0776Z" fill="#16345B"/>
<path d="M40.8021 45.3545L39.0668 46.5726C39.0129 46.6032 38.9626 46.64 38.9171 46.6821C38.7895 46.8019 38.7143 46.9678 38.708 47.1435C38.7016 47.3192 38.7648 47.4903 38.8834 47.619C38.8942 47.6307 38.9054 47.642 38.9171 47.653C39.0532 47.7827 39.2333 47.855 39.4206 47.855C39.6078 47.855 39.788 47.7827 39.9241 47.653C39.9612 47.6171 39.9946 47.5777 40.0239 47.5351L41.3348 45.8077C41.3787 45.7419 41.3978 45.6624 41.3887 45.5836C41.3795 45.5048 41.3427 45.432 41.2849 45.3782C41.2202 45.3173 41.1362 45.2815 41.0478 45.2772C40.9594 45.2728 40.8724 45.3002 40.8021 45.3545Z" fill="#16345B"/>
<path d="M43.5013 42.9741C43.5214 42.9442 43.5326 42.9091 43.5335 42.8729C43.5335 42.6597 43.1171 42.5115 42.6018 42.5115C42.0866 42.5115 41.6704 42.6597 41.6704 42.8729C41.6712 42.9025 41.6791 42.9315 41.6936 42.9573L42.1477 43.9029C42.1997 43.9921 42.3874 44.0545 42.6018 44.0539C42.8436 44.0539 43.0445 43.9768 43.0647 43.878L43.5013 42.9741Z" fill="#16345B"/>
<path d="M46.5032 43.0383C46.2265 42.9234 45.723 42.9294 45.4959 43.0383C45.4616 43.0527 45.4282 43.0694 45.3961 43.0884L44.0862 43.8267C43.9971 43.8852 44.0181 43.9626 44.1361 44.0108C44.2912 44.065 44.4592 44.0687 44.6164 44.0215L46.3513 43.5016C46.4015 43.4887 46.4511 43.4731 46.4997 43.455C46.7729 43.363 46.7762 43.155 46.5032 43.0383Z" fill="#16345B"/>
<path d="M48.22 44.0028C48.22 43.8879 47.8956 43.7959 47.6549 43.82L45.9974 44.0399C45.8983 44.0539 45.8247 44.0864 45.8247 44.1379C45.8247 44.1893 45.9327 44.2252 46.0463 44.2252H47.8033C48.0304 44.2252 48.22 44.149 48.22 44.0028Z" fill="#16345B"/>
<path d="M39.2808 44.0399L37.5984 43.82C37.3569 43.7959 37.042 43.8933 37.042 44.0082C37.042 44.1231 37.2286 44.2256 37.4499 44.2256H39.207C39.3292 44.2256 39.4428 44.1918 39.4428 44.1383C39.4428 44.0848 39.3904 44.0539 39.2808 44.0399Z" fill="#16345B"/>
<path d="M41.1311 44.0106C41.2539 43.9617 41.2683 43.8877 41.181 43.828L39.8701 43.0939C39.8382 43.0745 39.8048 43.0578 39.7703 43.0438C39.4442 42.9293 39.0893 42.9293 38.7633 43.0438C38.7516 43.0484 38.7404 43.0533 38.7296 43.0582C38.4825 43.1722 38.4976 43.3504 38.7633 43.4564C38.8121 43.4753 38.8621 43.4909 38.913 43.5029L40.6483 44.0206C40.8064 44.068 40.9751 44.0645 41.1311 44.0106Z" fill="#16345B"/>
<path d="M46.1752 42.821C46.1752 45.5557 44.6648 45.6063 42.8015 45.6063C40.9383 45.6063 37.8793 45.0653 39.4279 42.821C41.0612 40.4539 43.8632 35.942 42.8015 35.703C42.8015 35.703 46.1752 40.0863 46.1752 42.821Z" fill="#F4C53C"/>
<path opacity="0.5" d="M43.9898 44.5037C43.9898 45.5862 43.3919 45.6063 42.6544 45.6063C41.9169 45.6063 40.706 45.3921 41.319 44.5037C41.9655 43.5668 43.0747 41.7808 42.6544 41.6862C42.6544 41.6862 43.9898 43.4213 43.9898 44.5037Z" fill="#FF6584"/>
<path d="M40.9841 36.4707V36.9597C40.9838 37.1827 40.8994 37.3972 40.748 37.5596C40.5965 37.722 40.3895 37.8201 40.1689 37.8339L30.8518 38.4068C30.7345 38.414 30.6169 38.3971 30.5063 38.3571C30.3956 38.3171 30.2942 38.2548 30.2081 38.174C30.122 38.0932 30.0532 37.9956 30.0056 37.8871C29.9581 37.7787 29.933 37.6616 29.9317 37.543L29.9092 35.5333L35.5451 35.4412L40.9841 36.4707Z" fill="#16345B"/>
<path d="M39.4647 38.8929L35.2613 36.6899C35.2419 36.6798 35.2249 36.6656 35.2114 36.6482C35.1979 36.6309 35.1882 36.6109 35.1829 36.5895L34.2711 32.8813C34.2182 32.6661 34.2467 32.4388 34.3512 32.2437C34.4556 32.0487 34.6285 31.9 34.8358 31.8268L35.0555 31.7492C35.1045 31.7319 35.1564 31.725 35.2082 31.7287C35.2599 31.7325 35.3103 31.747 35.3563 31.7712C35.4023 31.7955 35.4429 31.829 35.4755 31.8697C35.5081 31.9104 35.5321 31.9574 35.546 32.0079L36.4447 35.2726C36.4531 35.3032 36.4706 35.3304 36.4948 35.3506L39.9196 38.214C39.9491 38.2387 39.9684 38.2737 39.9738 38.312C39.9791 38.3504 39.97 38.3893 39.9484 38.4213L39.6626 38.8427C39.6414 38.8741 39.6095 38.8964 39.5731 38.9057C39.5366 38.9149 39.498 38.9104 39.4647 38.8929Z" fill="#A4BFCE"/>
<path d="M36.6958 33.1238C34.6572 32.0408 32.5232 31.4969 30.2358 31.8201C30.9253 30.641 31.4374 29.5508 31.4032 28.7347C31.3885 28.4724 31.4377 28.2105 31.5466 27.972C31.6555 27.7334 31.8207 27.5254 32.0277 27.3662C32.3609 27.1169 32.7647 26.9824 33.1795 26.9826C33.5499 26.816 33.9695 26.7991 34.3518 26.9356C34.5141 26.9972 34.6616 27.0927 34.7849 27.2158C34.9081 27.3389 35.0041 27.4869 35.0668 27.65C35.145 27.8412 35.3134 28.0087 35.5576 28.1562C35.7838 28.2883 35.9681 28.4825 36.0889 28.7164C36.2498 29.0394 36.2608 29.3646 36.05 29.693C36.8394 30.5298 36.8416 31.7873 36.6958 33.1238Z" fill="#2F2E41"/>
<path d="M33.8059 30.4135C34.5946 30.4135 35.2339 29.7683 35.2339 28.9725C35.2339 28.1767 34.5946 27.5315 33.8059 27.5315C33.0173 27.5315 32.3779 28.1767 32.3779 28.9725C32.3779 29.7683 33.0173 30.4135 33.8059 30.4135Z" fill="#FFB8B8"/>
<path d="M34.4858 32.0946L32.8198 32.2661C32.9092 31.2832 32.9444 30.3762 32.8198 29.693H34.4858C34.1694 30.7808 34.1972 31.5561 34.4858 32.0946Z" fill="#FFB8B8"/>
<path d="M35.3782 32.0574C35.3769 32.208 35.3737 32.357 35.3687 32.5044C35.3339 33.5595 35.2024 34.5092 34.8439 35.2087C34.7711 35.3535 34.6841 35.4906 34.5842 35.6179C34.5835 35.6192 34.5826 35.6204 34.5815 35.6214C34.5746 35.631 34.5671 35.6402 34.559 35.6489C34.4857 35.7407 34.4042 35.8257 34.3157 35.9026L33.6334 36.6248L33.6021 36.6578L33.403 36.7919L32.3779 37.4811L29.9161 36.1461L29.9134 35.9143L29.9106 35.6771C30.4579 34.8944 30.7994 33.8765 31.0162 32.7176C31.0755 32.4006 31.1259 32.0725 31.1688 31.7355C31.1981 31.5024 31.224 31.2644 31.2465 31.023C31.25 30.9489 31.2749 30.8774 31.3181 30.8174C31.3181 30.8173 31.3181 30.8172 31.3181 30.8171C31.3182 30.817 31.3182 30.8169 31.3183 30.8169C31.3184 30.8168 31.3184 30.8168 31.3185 30.8167C31.3186 30.8167 31.3187 30.8167 31.3188 30.8167C31.4237 30.6819 31.6323 30.6846 31.8845 30.6709C32.2382 30.6516 32.5865 30.4666 32.8994 30.6413C32.9071 30.6449 32.9146 30.649 32.9218 30.6537L33.8399 31.6826L34.2618 31.2238L34.2816 31.2025L35.1506 31.578C35.2395 31.6168 35.3115 31.6866 35.3533 31.7747C35.3951 31.8628 35.404 31.9632 35.3782 32.0574Z" fill="#A4BFCE"/>
<path d="M33.4402 37.1145C33.4403 37.2899 33.4074 37.4637 33.3434 37.6268L33.0913 38.2692L30.8516 38.4068C30.8278 38.4081 30.8039 38.4088 30.7807 38.4088C30.5555 38.4039 30.341 38.3108 30.1826 38.1492C30.0241 37.9876 29.9341 37.7702 29.9315 37.5429L29.9158 36.1461L29.9131 35.9143L30.7282 36.263L31.523 35.8325C31.5663 35.8138 31.6107 35.7977 31.6559 35.7843C31.7147 35.7655 31.7749 35.7511 31.8358 35.741H31.8365C31.8658 35.7362 31.8951 35.7321 31.9244 35.7293C32.2613 35.6953 32.5988 35.7876 32.8725 35.9886C33.0325 36.1055 33.1653 36.2562 33.2617 36.4301C33.269 36.4421 33.2756 36.4545 33.2814 36.4673C33.3356 36.5697 33.3764 36.6789 33.4027 36.7919C33.4275 36.8976 33.4401 37.0059 33.4402 37.1145Z" fill="#2F2E41"/>
<path opacity="0.2" d="M32.8027 33.0037L33.1007 34.383L34.9107 35.9543L33.3128 34.3075L32.8027 33.0037Z" fill="black"/>
<path opacity="0.2" d="M31.1367 33.6556L31.6807 35.8856L33.2787 36.4689L31.7827 35.7141L31.1367 33.6556Z" fill="black"/>
<path d="M35.5226 29.0583C34.4702 28.5697 33.2803 28.4303 32.2246 28.9553L32.3606 27.7202L34.6726 27.3428L35.5226 29.0583Z" fill="#2F2E41"/>
<path d="M43.9832 39.9116L36.2441 38.57L36.339 38.0982L43.9832 39.9116Z" fill="#16345B"/>
<path d="M37.535 38.8647C37.4726 38.9236 37.3974 38.9672 37.3155 38.992C37.2336 39.0168 37.1472 39.0221 37.0629 39.0076C36.9786 38.9931 36.8988 38.959 36.8297 38.9082C36.7606 38.8574 36.7041 38.7911 36.6646 38.7146L36.1519 37.7212L36.3559 37.2751L37.4551 37.985C37.5262 38.031 37.586 38.0927 37.6299 38.1655C37.6738 38.2383 37.7006 38.3203 37.7083 38.4052C37.716 38.49 37.7044 38.5755 37.6744 38.6552C37.6443 38.7348 37.5967 38.8065 37.535 38.8647Z" fill="#FFB8B8"/>
<path d="M35.9969 37.8636L31.7935 35.6607C31.7742 35.6505 31.7571 35.6363 31.7436 35.619C31.7301 35.6017 31.7204 35.5817 31.7151 35.5603L30.8033 31.852C30.7504 31.6369 30.779 31.4095 30.8834 31.2145C30.9879 31.0195 31.1607 30.8708 31.3681 30.7975L31.5877 30.72C31.6367 30.7027 31.6887 30.6957 31.7404 30.6995C31.7921 30.7033 31.8426 30.7177 31.8885 30.742C31.9345 30.7662 31.9751 30.7998 32.0077 30.8405C32.0403 30.8812 32.0643 30.9282 32.0782 30.9786L32.9769 34.2434C32.9854 34.2739 33.0028 34.3012 33.027 34.3214L36.4518 37.1848C36.4813 37.2095 36.5007 37.2444 36.506 37.2828C36.5113 37.3211 36.5023 37.3601 36.4806 37.392L36.1948 37.8135C36.1736 37.8448 36.1417 37.8672 36.1053 37.8764C36.0688 37.8857 36.0303 37.8811 35.9969 37.8636Z" fill="#A4BFCE"/>
<path d="M43.1488 40.1558C43.186 40.1631 43.2245 40.1553 43.256 40.1341C43.2875 40.113 43.3094 40.0801 43.317 40.0426L43.3945 39.651C43.4019 39.6135 43.3943 39.5746 43.3733 39.5427C43.3523 39.5109 43.3196 39.4888 43.2824 39.4813L42.1591 39.2547C42.1219 39.2473 42.0834 39.2551 42.0519 39.2763C42.0204 39.2975 41.9985 39.3304 41.991 39.3679L41.9134 39.7595C41.9097 39.7781 41.9097 39.7972 41.9134 39.8158C41.917 39.8344 41.9242 39.852 41.9346 39.8678C41.945 39.8835 41.9584 39.8971 41.974 39.9076C41.9896 39.9181 42.0071 39.9255 42.0255 39.9292L43.1488 40.1558Z" fill="#A4BFCE"/>
</g>
<defs>
<clipPath id="clip0_29_59">
<rect width="64" height="50" fill="white"/>
</clipPath>
</defs>
</svg>
