<svg viewBox="286.707 87.344 58.03 58.13" xmlns="http://www.w3.org/2000/svg"><path d="m326.732 110.796c.835-7.745-1.459-12.42-3.574-13.135-2.084-.715-3.336 1.489-3.336 1.489-4.052-2.503-7.655-2.263-7.655-2.263s-2.234-5.629-6.643-5.451c-5.778.238-8.637 12.211-9.322 15.608-1.345.457-2.444 1.449-3.037 2.74-1.729 3.396-2.623 9.59 10.276 19.271 12.895 9.709 18.585 12.331 21.385 12.331 3.573 0 3.813-1.34 7.923-1.906 2.114-.298 3.693-3.931 1.43-7.028-2.292-3.1-7.745-6.852-7.745-6.852s3.634-.059 5.897-.358l.03.12c.117.302.247.599.388.893.239.535.328 1.191.507 1.789.059.296.147.535.298.743.088.208.296.358.536.418.595.059 1.131-.299 1.488-.776.386-.506.685-1.191.893-1.876.241-.898.4-1.815.478-2.74v-.119c1.399-.923 2.471-2.561 2.293-5.54-.239-3.516-4.111-5.361-7.745-4.2-1.786-2.89-4.765-3.158-4.765-3.158zm-4.08 6.911c1.192-.387 2.085 1.192.535 1.846-.209.596.12 1.191 1.073 1.43-2.979.596-3.098-2.74-1.608-3.276zm11.824 2.233c.775-.177 1.073-.714.893-1.19-1.279-.566-.536-1.849.419-1.551 1.22.449 1.102 3.247-1.312 2.741zm-29.904-21.981s4.081 1.936 6.79 10.425c0 0-6.433-1.042-9.262-.833 0 0 2.591-4.827 2.472-9.592zm1.399 7.15c0 1.37.805 2.501 1.788 2.501 1.012 0 1.847-1.131 1.847-2.501 0-1.371-.835-2.473-1.816-2.473-1.014 0-1.789 1.102-1.789 2.473zm12.987 3.989s1.668-5.451 4.825-6.969c0 0 .179 4.378.894 7.863 0 0-2.324-.536-5.719-.894zm2.264-1.608c0 1.072.595 1.906 1.371 1.906.773 0 1.369-.834 1.369-1.906 0-1.041-.596-1.907-1.369-1.907-.747 0-1.371.866-1.371 1.907zm4.705 18.11s-1.429 5.838-3.604 5.183c-.744-.208-.447-1.877-.744-2.979-.298-1.161-1.132-3.337-1.132-3.337zm10.873-1.787s-.447 5.568-2.741 5.301c-.744-.089-.715-1.787-1.192-2.859-.506-1.072-.415-.982-.415-.982 1.515-.261 2.981-.752 4.348-1.46z" fill="#fff"/></svg>