<svg viewBox="286.707 87.344 58.03 58.13" xmlns="http://www.w3.org/2000/svg">
  <path d="M 326.732 110.796 C 327.567 103.051 325.273 98.376 323.158 97.661 C 321.074 96.946 319.822 99.15 319.822 99.15 C 315.77 96.647 312.167 96.887 312.167 96.887 C 312.167 96.887 309.933 91.258 305.524 91.436 C 299.746 91.674 296.887 103.647 296.202 107.044 C 294.857 107.501 293.758 108.493 293.165 109.784 C 291.436 113.18 290.542 119.374 303.441 129.055 C 316.336 138.764 322.026 141.386 324.826 141.386 C 328.399 141.386 328.639 140.046 332.749 139.48 C 334.863 139.182 336.442 135.549 334.179 132.452 C 331.887 129.352 326.434 125.6 326.434 125.6 C 326.434 125.6 330.068 125.541 332.331 125.242 L 332.361 125.362 C 332.478 125.664 332.608 125.961 332.749 126.255 C 332.988 126.79 333.077 127.446 333.256 128.044 C 333.315 128.34 333.403 128.579 333.554 128.787 C 333.642 128.995 333.85 129.145 334.09 129.205 C 334.685 129.264 335.221 128.906 335.578 128.429 C 335.964 127.923 336.263 127.238 336.471 126.553 C 336.712 125.655 336.871 124.738 336.949 123.813 L 336.949 123.694 C 338.348 122.771 339.42 121.133 339.242 118.154 C 339.003 114.638 335.131 112.793 331.497 113.954 C 329.711 111.064 326.732 110.796 326.732 110.796 Z M 322.652 117.707 C 323.844 117.32 324.737 118.899 323.187 119.553 C 322.978 120.149 323.307 120.744 324.26 120.983 C 321.281 121.579 321.162 118.243 322.652 117.707 Z M 334.476 119.94 C 335.251 119.763 335.549 119.226 335.369 118.75 C 334.09 118.184 334.833 116.901 335.788 117.199 C 337.008 117.648 336.89 120.446 334.476 119.94 Z M 304.572 97.959 C 304.572 97.959 308.653 99.895 311.362 108.384 C 311.362 108.384 304.929 107.342 302.1 107.551 C 302.1 107.551 304.691 102.724 304.572 97.959 Z M 305.971 105.109 C 305.971 106.479 306.776 107.61 307.759 107.61 C 308.771 107.61 309.606 106.479 309.606 105.109 C 309.606 103.738 308.771 102.636 307.79 102.636 C 306.776 102.636 306.001 103.738 306.001 105.109 L 305.971 105.109 Z M 318.958 109.098 C 318.958 109.098 320.626 103.647 323.783 102.129 C 323.783 102.129 323.962 106.507 324.677 109.992 C 324.677 109.992 322.353 109.456 318.958 109.098 Z M 321.222 107.49 C 321.222 108.562 321.817 109.396 322.593 109.396 C 323.366 109.396 323.962 108.562 323.962 107.49 C 323.962 106.449 323.366 105.583 322.593 105.583 C 321.846 105.583 321.222 106.449 321.222 107.49 Z M 325.927 125.6 C 325.927 125.6 324.498 131.438 322.323 130.783 C 321.579 130.575 321.876 128.906 321.579 127.804 C 321.281 126.643 320.447 124.467 320.447 124.467 L 325.927 125.6 Z M 336.8 123.813 C 336.8 123.813 336.353 129.381 334.059 129.114 C 333.315 129.025 333.344 127.327 332.867 126.255 C 332.361 125.183 332.452 125.273 332.452 125.273 C 333.967 125.012 335.433 124.521 336.8 123.813 Z" style="fill: rgb(255, 255, 255);"/>
</svg>