<svg xmlns="http://www.w3.org/2000/svg" viewBox="0 0 219 39">
  <g fill="none" fill-rule="evenodd">
    <path fill="#1F2044" fill-rule="nonzero" d="M88.4000204 26.1972414c.2681633 1.6720689 1.7877551 2.2951724 3.445898 2.2951724 1.6581428 0 2.9274489-.7037931 2.963204-1.5555172.0581021-1.2910345-.9519795-2.0575863-2.3821836-2.3355173-.9877347-.1882759-3.9509388-.7755172-3.9509388-.7755172-3.6023265-.6589655-5.6537755-1.7034483-5.6537755-4.774138 0-3.9986207 3.4458979-6.6031034 8.3666939-6.6031034 4.8403469 0 8.0448979 2.2144827 8.8270406 5.5944827l-5.6537753 1.1251725c-.1921837-1.2058621-1.3408164-2.2906897-3.2537143-2.2906897-1.6626123 0-2.4983878.6993104-2.650347 1.5151724-.1027959.5334483.1519592.9772414 1.9173674 1.3448276 1.1396939.2465517 4.5677143.9324138 4.5677143.9324138 3.6783061.7755172 5.3632649 2.99 5.3632649 5.8634483 0 4.3124138-3.7185302 6.5672414-8.8315098 6.5672414-4.5677143 0-8.4918368-1.672069-9.139898-5.6706897l6.0649592-1.2327586Zm56.4841226-8.8668966c.101377.7894202.153621 1.5844083.156428 2.3803449 0 7.9210344-5.640367 13.6186206-13.497551 13.6186206-7.857183 0-14.042816-5.9844827-14.042816-13.6589655 0-7.6744827 6.105184-13.65448273 13.926612-13.65448273 5.810204 0 10.891898 2.73 12.719878 7.84482763l-6.185633 1.7931034c-1.519592-2.9675862-4.022449-3.7475862-6.534245-3.7475862-4.241449 0-7.468347 3.3575862-7.468347 7.7641379 0 4.4065518 3.302878 7.8044828 7.660531 7.8044828 3.423551 0 5.913-1.7931035 6.887327-4.68h-7.977858v-5.4644828h14.355674ZM58.8707755 32.2982759h-6.3778163V21.9655172h-10.972347v10.3327587h-6.4180408V6.15482759h6.4180408V16.3396552h10.972347V6.15482759h6.3778163zm23.1067347-9.7948276c0 6.2041379-4.9163265 10.3417241-10.6997143 10.3417241-5.913 0-10.8159183-4.1375862-10.8159183-10.3417241 0-6.204138 4.9163265-10.3103449 10.8159183-10.3103449 5.7967959.0134483 10.6997143 4.1465518 10.6997143 10.3103449Zm-5.9979184 0c0-3.0437931-2.2927959-5.07-4.7062653-5.07-1.3146914.0148236-2.5677027.5615195-3.4748219 1.5160846-.9071192.954565-1.3914655 2.2360972-1.3431781 3.5539154 0 3.0841379 2.2927959 5.0744827 4.8224694 5.0744827 2.4134694 0 4.7017959-1.9903448 4.7017959-5.0744827Zm41.7217352 8.9386207c-1.618066.9434322-3.455908 1.4413815-5.327511 1.4434482-4.862694 0-7.790143-2.6537931-7.790143-7.7820689v-7.4368966h-3.530816v-4.9310345h3.530816V7.49965517l6.225858-1.34482758v6.55827581h5.756571v4.9310345h-5.725286v6.8137931c0 2.0262069.969857 2.8465518 2.605653 2.8465518.993657-.0348856 1.96547-.3019744 2.838062-.78l1.416796 4.9175862ZM164.728224 19.89v12.4082759h-5.988979v-1.4434483c-1.629601 1.3753898-3.708301 2.0985661-5.837021 2.0306896-4.353183 0-7.271693-2.5372413-7.271693-6.4013793 0-3.8641379 2.91851-6.3117241 8.116408-6.3117241h4.978898v-.39c.04061-.7413256-.235604-1.4648926-.759452-1.9894516-.523847-.5245589-1.245705-.8004192-1.984752-.7584794-1.868204 0-2.958735.7396551-3.267123 2.4565517l-5.872775-1.2103448c.853653-3.7834483 4.277204-6.1637931 8.938775-6.1637931 5.488408.0089655 8.947714 2.7793103 8.947714 7.7731034Zm-5.988979 4.6844828v-.4482759h-4.281674c-1.555347 0-2.525204.8203448-2.525204 2.0306897 0 1.2103448 1.086062 2.0262068 2.721857 2.0262068 2.140837.0179311 4.085021-1.4255172 4.085021-3.6086206Zm23.571551 6.8675862c-1.617083.9418819-3.453068 1.4397457-5.323041 1.4434482-4.862694 0-7.776735-2.6537931-7.776735-7.8044827v-7.4144828h-3.539755v-4.9310345h3.539755V7.49965517l6.221388-1.34482758v6.55827581h5.756572v4.9310345h-5.765511v6.8137931c0 2.0262069.974327 2.8465518 2.605653 2.8465518.995154-.0343567 1.968538-.3014566 2.842531-.78l1.439143 4.9175862Z"/>
    <path fill="#1F2044" fill-rule="nonzero" d="M202.847633 22.5034483c0 6.2041379-4.916327 10.3417241-10.695245 10.3417241-5.913 0-10.815919-4.1375862-10.815919-10.3417241 0-6.204138 4.916327-10.3103449 10.815919-10.3103449 5.796796.0134483 10.695245 4.1465518 10.695245 10.3103449Zm-5.98898 0c0-3.0437931-2.297265-5.07-4.706265-5.07-1.316251.0124216-2.571582.5580659-3.480642 1.5129012-.909059.9548353-1.394616 2.2377418-1.346297 3.5570988 0 3.0841379 2.297265 5.0744827 4.826939 5.0744827 2.409 0 4.706265-1.9903448 4.706265-5.0744827Zm21.9-9.9068966-.272633 6.2310345h-1.130755c-4.353183 0-6.726428 2.2413793-6.726428 7.3382759v6.1324138h-6.225857V14.057931l6.225857-1.3448276v3.7431035c1.398918-2.34 3.539755-4.0344828 6.726428-4.0344828.473553-.0061203.945717.0526998 1.403388.1748276Z"/>
    <path fill="#2E93EE" d="M21.15361222 28.42068934c-1.09053061 1.05793104-2.17659183 2.51034483-3.27606122 3.55931035.52291837 2.75689655-.50057143 3.96724138.7329796 4.95793103.44693877.35413794 3.12857142 1.11172414 4.6705102.23310345.03128571-1.43-.74638776-1.85586207-1.57769388-2.38931034-.84471429-1.79310345-.54079592-4.5724138-.55867347-6.36103448"/>
    <path fill="#2E578B" d="M21.77932651 37.57448245c-.17913457-.8190464-.7568812-1.49285459-1.53746939-1.79310345.61926763.37965941.98521057 1.06571121.95644898 1.79310345.19665306.00896552.38883674.00896552.58102041 0Zm1.30059184-.29586207c-.17436445-.81852128-.74945644-1.49315575-1.52853062-1.79310345.79555103.61413793 1.05030613 1.27310345.93857143 1.99034483.20246587-.04675688.40001605-.11280394.58995919-.19724138Z"/>
    <path fill="#2E93EE" d="M19.87983639 14.14758635c-.56314286.82034482-.81342857 2.54172413 3.66489796 5.06551724 0 0-1.88161225 3.25896551-2.47604082 3.85517241-.59442857.5962069-.95644898 2.1831034-.37542857 2.9810345.30075116.4196597.64536147.8058762 1.02795918 1.1520689 0 0 1.48383674.2779311 2.1184898-.0806896.78507422-.8706481.96211446-2.13317.44693877-3.1872414 0 0 3.77663266-3.96275861 3.53528572-5.1551724-.24134694-1.19241379-6.15881633-7.23068966-7.94210204-4.63068966Z"/>
    <path fill="#2E578B" d="M24.26430578 23.9334484s-1.52853062 1.2641379-1.91289796 1.4793104c.31141261-.0945268.61125203-.2238435.89387755-.3855173 0 0 .67934694.8337931.1832449 1.5375862 0 0 .89387755-.5244827.29944897-1.7303448.2059764-.2603739.39412181-.5344502.56314286-.8203448l-.02681632-.0806897Z"/>
    <path fill="#2E93EE" d="M8.52312257 23.19827634c-.0108688.2933233-.10042258.57827489-.25922449.82482759-.25922449.40793104-.40671428.36310345.23687755.71275862.47925215.24345583.99600922.40409946 1.52853061.47517242.89387756.14793103.69275511.04931034.2949796-.8024138-.17487551-.38349961-.3827437-.75098209-.6212449-1.09827586-.89387755-1.23275862-1.14416327-1.14758621-1.17991837-.12103448m-3.20902041-.41689655c-.33073469.61413793.17430613.71275862.82236735.94137931.24289339.08477592.49492863.14044974.75085714.16586207.72851021.08068965.54079592-.02689656.219-.61862069-.1938059-.36491413-.40870265-.71815967-.64359183-1.05793104-1.28271429-1.84689655-.67040817-.32724138-1.14863266.56931035m-2.7710204-.27344828a2.72915037 2.72915037 0 0 1 0 .42137931c-.04469388.51103448-.10279592.42586207.52738775.48413793.28068337.03172071.56403092.03172071.84471429 0 .80448979-.12103448.5095102-.40344827.08938775-.87413793-.1435302-.16401804-.3021496-.31410666-.4737551-.44827586-1.59110204-1.22827586-.99220408-.36310345-.96985714.42137931M13.2025714 4.482759S8.63932653 6.84069003 8.67955102 7.58931072c.04022449.74862069 1.28718367.64551725 1.78775508 1.64965518 0 0-2.79336732 1.93655172-2.61459181 2.82413793.17877551.8875862 1.97993877.56482758 2.42687751 1.26862069 0 0-.44693874 1.76620688-.0402245 2.41172418.4067143.6455172.3441429.0896551.8938776.8965882.0402245.0178945-.2815714-6.57176066 2.0693265-12.1572779Z"/>
    <path fill="#2E93EE" d="M12.2461224 6.62551762c1.6089796 1.53310345 3.6380817 2.49689655 5.4884082 3.68482759 1.2736331.76370636 2.3962678 1.75597838 3.3118163 2.92724138 1.1084082 1.48827581.4469388 3.24103451.7240409 5.06551721.0849183.6186207.1251428 1.2462069.1519591 1.8737931.0477063 1.1410139.0148487 2.2839836-.0983265 3.4203449-.2815714 2.7165517-.4201224 4.9310344-2.3330204 6.9662069-2.3866531 2.5462069-5.0146531 3.137931-7.9957347.9234482-1.0506898-.688738-2.00770123-1.5114875-2.84699999-2.4475862-.61230613-.7172414-1.37210204-1.1744827-2.02910204-1.8424138-.8342755-.8870157-1.82929715-1.6066091-2.93191837-2.1203448-1.15310204-.4482759-1.94865306.1613793-2.51626531.4213793-.2905102.1344828-.6927551.3944828-1.0190204.1344828-.12569381-.0944701-.17166676-.2623123-.1117347-.4079311.17009762-.408527.42800917-.774357.75532653-1.0713793 1.75646939-1.6137931 4.59453061-1.6496551 6.70408163-.5155172.80002041.4482758 1.67155102.9189655 2.59671425.9772414.6525459.0761631 1.3085206-.1108975 1.8235102-.52.3994888-.3680101.6626342-.8611058.7463878-1.3986207.1490666-.7476863.0950392-1.5218144-.1564286-2.2413793-.3441428-1.04-.9609183-1.9813793-1.3631632-3.0079311-1.34081637-3.49206893-1.78775514-7.47275859.3888367-10.73620687l.3039184-.44827586.4067142.36310345Z"/>
    <path fill="#FFCF00" d="M4.06267347 25.2289659c1.53746939.7710345 3.17326531 2.4968965 4.74202041 4.3572414 2.05144902 2.4431034 7.15102042 6.0427586 11.40140812.3855172 3.9822245-5.3255172 2.1095511-12.7893103 1.8771429-13.6365517l-.0268163-.0896552c-.1340817-.1703448-3.6827755-4.71586205-6.9364898-5.37931032-.8670612.75310344-1.036898 2.08448275.1162041 4.37965512 1.9441836 3.8596552 3.4995306 9.4855173.0446938 12.9417242-.514415.5276667-1.1451218.9268763-1.8413877 1.1655172-2.4536939.8113793-3.75428573-.6813793-5.29175512-2.1248276-1.11905944-1.0794475-2.54806195-1.7788368-4.08502041-1.9993103Z"/>
    <path fill="#ECA93F" d="M20.6843265 29.2903452c-1.4959937-.1702453-2.9159338-.7520215-4.1028979-1.6810345.8478999 1.2402512 2.1512638 2.0929543 3.6246734 2.3713793.1698368-.2241379.3530817-.4572413.4782245-.6903448Zm-6.9096734.3451724c.5836697 1.2410611 1.4283748 2.3406278 2.4760408 3.2231035.3346704-.0788394.6609622-.1899303.9743265-.3317242-1.4052774-.6079044-2.6040444-1.6124612-3.4503673-2.8913793Zm-5.22024494-.3362069.25028572.2958621.11620408.1389655c-.07967318-.3642725-.04050195-.7445844.11173469-1.0848276-.17428587.2052479-.33408202.4224419-.47822449.65Zm1.72518364 1.7258621c.1787755.1434483.3620204.2868965.5542041.4482759-.1296122-.6186207-.1877143-1.264138.022347-1.6227587-.2349029.3689007-.4282696.762805-.5765511 1.1744828Z"/>
    <path fill="#FF9144" d="m6.90967347 27.51069.39777551.4079311c-.00656533-.2880511.02347225-.5757681.08938775-.8562069-.17354967.1367438-.33641282.2866065-.48716326.4482758Z"/>
    <path fill="#ECA93F" d="M17.680898 24.6551728c1.5549961-.4705567 3.2138405-.4705567 4.7688367 0 .0402245-.2241379.0759796-.4482759.1072653-.6634483-3.124102-.7441379-4.876102.6634483-4.876102.6634483Zm4.9699591-4.9041379c-.0223469-.2689656-.0491632-.5244828-.0759795-.7710345-3.3118164-.0806897-5.0191225 1.5331034-5.0191225 1.5331034 1.5705011-.8031555 3.3593021-1.0707046 5.095102-.7620689Zm-1.3050612-4.3482759c-.1296122-.147931-.2726326-.3093103-.4469388-.4796552-3.5174081 0-4.4693877 1.6406897-4.4693877 1.6406897 1.4643403-.9248597 3.1944032-1.3334296 4.9163265-1.1610345Z"/>
    <path fill="#ECA93F" d="M22.6061633 19.2444831c-.0866166-.7969506-.2164208-1.5885815-.3888368-2.3713793l-.2547551-.1568965c-1.1218163-.7351724-6.0649592-3.71620692-7.5130408-4.61275864-.0250673.22043482-.0250673.44301345 0 .66344827 1.5195918 2.13379307 4.9297347 5.74689657 8.1566327 6.47758617Z"/>
    <path fill="#2E93EE" d="M11.39693904 27.86931048c.45418261-.6698073 1.2333508-1.04170495 2.03804082-.97275862 2.2615102.29586207 1.54640816 2.98103448 1.00561224 4.55896552-.3756738 1.13443076-.59227778 2.31573841-.64359183 3.51 0 1.56000002.59442857 2.03068962-.12961225 2.64034482-1.15254813.8098291-2.54699086 1.1990363-3.95093878 1.1027586-1.25589795-.2868965-1.28718367-2.87793101.71510205-3.53689652.55420408-1.21034483.53185714-2.44758621.48716326-3.73862069-.03128571-.89655173-.10726531-2.68965518.47822449-3.5862069"/>
    <path fill="#2E578B" d="M10.90977578 38.6951726c.17877551-.0268966.35755102-.0582759.53185714-.0986207-.1571595-.7617497.07794889-1.5517191.62571428-2.1024138-.82236734.4706896-1.09053061 1.2731034-1.15757142 2.2010345Zm-1.21120409.017931c-.18675919-.83195.03788608-1.703177.60336735-2.34000001-.69526054.43129841-1.12324308 1.18842361-1.13522449 2.00827581.13755975.1645401.32388531.2807531.53185714.3317242Zm1.1620407-14.1251727s-.25922449 1.5017241.75979592 2.0037931c.85812245.4482759 1.91289796.4482759 2.44028571-.1927586.7285102-.8965517 1.7877551-2.6896552-1.11287755-4.45137933-1.7877551-1.08931035-1.8994898 2.60896553-1.8994898 2.60896553l-.18771428.0313793Zm.25028571-7.19931035c.37989796.82931035.72404082 1.47034483.74191837 1.52862069.01787755.05827586 2.35983673-2.9362069 1.92183673-3.42034483-.438-.48413793-2.29279591 1.24172414-2.6637551 1.89172414Z"/>
    <path fill="#2E93EE" d="M13.40816341 13.0941378c2.53414286 2.45206896-2.72632653 5.6975862-2.72632653 5.6975862.57208163.36310345 1.29612245 1.60482759 1.83691836 2.51034483.54079592.90551724.75532654.7575862 1.41679592 1.51068967.66146939.7531034-1.22461224 1.8782758-1.22461224 1.8782758S6.38228586 21.261724 6.4001256 19.06517228c0-.27344828 1.47046638-2.71655173 2.95430311-4.23172414.74638776-.76206897 2.84253062-2.90931035 4.0537347-1.73931035Z"/>
    <path fill="#2E93EE" d="M10.95000014 23.471724s-.44693877 2.3355172.92069388 3.0168966c0 0 1.1307551.0717241 1.70283674-.3406897 0 0 1.42573469-2.1965517.3620204-3.3351724-1.06371428-1.13862071-2.98555102.6589655-2.98555102.6589655Z"/>
    <path fill="#2E578B" d="M10.92318382 23.6375861s1.82797959.9817241 2.14530612 1.0713793c-.31820864.0439266-.64230576-.004289-.93410204-.1389655 0 0-.44693878.8965517.07597959 1.4524138 0 0-.8402449-.1479311-.54079592-1.5555173l-.7642653-.7889655.01787755-.0403448Z"/>
    <path fill="#2E93EE" d="M12.56344859 5.92172414S13.51542818.29137931 15.8439792.19724138c1.533-.06724138 2.30620409 1.89172414 2.30620409 1.89172414.93898119.00416247 1.85713481.27794368 2.64587755.78896551 0 0 .44693876-.77551724 1.15757146-.52448275.7106326.25103448 1.5195918 1.88275862 1.2290816 4.56344827.7031688.1083197 1.3186377.53251411 1.671551 1.15206897-.1883165.27108022-.4759262.45641015-.8000204.51551724-.4826939.04034483-2.5654286-.72172414-3.12857142-.22413793-.57359345.4026296-.86426126 1.10092274-.74638775 1.79310347 0 0-2.3017347-.23310347-3.32522449-1.54655175-1.0234898-1.31344827-1.90395919-3.85965517-4.29061225-2.68517241Z"/>
    <path fill="#F1F1F2" fill-rule="nonzero" d="M20.48767308 6.32965517s.57208163-1.89172414 1.67155102-2.42068965c.0390318.91567761.1390713 1.82771237.299449 2.73-.6504274-.14154814-1.30855067-.24482786-1.97100002-.30931035Zm-4.97889796-3.8775862s1.41679592.68586206 2.36877551 3.63103448c-1.06036972-.18103426-2.13344419-.2769705-3.20902041-.28689655.52721196-1.03716697.81441897-2.1802383.8402449-3.34413793Z"/>
    <path fill="#2E578B" d="M16.08979553 3.76103448c.34414286 0 .62571429.38551724.62571429.86517242 0 .47965517-.28157143.86068965-.62571429.86068965s-.62571429-.38551724-.62571429-.86068965c0-.47517242.27710205-.86517242.62571429-.86517242M21.3815506 6.0562069c.2726327 0 .4916327-.29137931.4916327-.65448276 0-.36310345-.219-.65448276-.4916327-.65448276-.0523584.00292011-.1037959.01505926-.1519592.03586207-.15020044.17436654-.2641644.37706723-.33520403.59620689a.15286493.15286493 0 0 0 0 .04482759c-.00446939.34068966.21453061.63206897.48716323.63206897Z"/>
    <path fill="#FF9144" d="M15.64285676 7.32482759S13.94448941 5.98 13.08189757 6.93931034c-1.02795918 1.15655173 0 2.95413794 0 2.95413794s.12514286-.77103449.50951021-1.02655173c0 0 .15195918 2.43413795 4.10289795 5.14172415 3.95093877 2.7075862 5.67165307 2.4117241 6.53424487 2.1831034.8625919-.2286207 1.7385919-.8472413 1.4078572-1.5420689-.3307347-.6948276-2.5609592-2.582069-2.5609592-2.582069s-.8447143.1031035-2.56542858-.502069c-1.72071429-.6051724-4.02244898-1.79310341-5.50628571-3.85517237.21953377-.11735257.43286032-.24603068.63912245-.38551724"/>
    <path fill="#FF6B17" d="M14.65065267 10.4896552c2.21257362-.53235045 4.54333067.0972331 6.19010204 1.6720689l-.44693877-.2420689s2.02910206-.0986207 2.31067346.1837931c1.204017.8160914 1.9760138 2.1340598 2.1006123 3.5862069.058102.6948276-1.5821633 1.0893103-5.2381225-.7351724-2.27044898-1.1475862-4.91632653-4.4648276-4.91632653-4.4648276Z"/>
    <path fill="#FF9144" d="m19.0932241 10.9513793.08491837.0448276-.08491837-.0448276Z"/>
    <path fill="#EBEEF2" d="M22.9100812 12.0541379s-.4916326 2.0217242-1.2514285 1.7931035c-.2547551-.0762069-.1519592-.65-.2547551-1.0444828-.1027959-.3944827-.39777554-1.1475862-.39777554-1.1475862l1.90395914.3989655Zm3.7587551-.7665517s-.1564285 2.0755172-.9430408 1.9768966c-.2636938-.0313794-.2547551-.614138-.4201224-.9862069-.1653674-.372069-.5720817-1.0713793-.5720817-1.0713793l1.9352449.0806896Z"/>
    <path fill="#FFCF00" d="M27.5046119 9.46758621c-.0983266-1.46137931-2.0201633-2.1024138-3.4324898-1.07586207-1.1531021-.25551724-2.431347-1.02655173-3.57551024.13-.46779557.39220432-.61286783 1.05158718-.35308164 1.60482756 0 0-2.39559183-.38551722-3.22242857-1.60931032-.82683673-1.2237931-1.90842857-2.86448276-3.066-2.98103448-.61677551-.05827587-1.65814285-.14793104-2.2615102 1.03103448-.60336735 1.17896552-.89387755 3.30827586 3.5755102 6.67931032 4.46938776 3.3710345 6.42697955 4.2810345 7.40130615 4.2765682 1.2380204 0 1.314-.4482923 2.7397347-.6634647.7285102-.1031035 1.2827143-1.3448276.4826938-2.4206897-.6684353-.8433977-1.479266-1.5625834-2.3955918-2.1248276-.0446939.0448276 1.7341225 1.4748276 2.0648572 2.1696552.3307346.6948276-.6480613 1.1341379-1.5061837 1.3448276-.8581225.2106896-1.9620612.4482759-5.90853063-2.2413793-3.94646939-2.6896552-4.37106123-5.41068968-4.37106123-5.41068968-.50057143-.07620689-.55867347 1.01310345-.55867347 1.01310345S12.54110165 7.93 13.31430573 7.17689655c.93410205-.89655172 1.8994898.21068966 1.8994898.21068966h-.05810204c-.5854898-.2824138-.66593878.22413793-.66593878.22413793 1.55627035 2.00944728 3.61257576 3.57252386 5.96216327 4.53206896 1.72071432.6051724 2.62353062-.0762069 2.62353062-.0762069.8171426-.0058157 1.6327594-.0717397 2.4402857-.1972414.6167755-.165862 2.1274286-.425862 1.9888776-2.40275859Z"/>
    <path fill="#ECA93F" d="M21.7793261 9.31068966c.4022449-.12551725.7106327.41689655.1832449.65-.0759796.20172414.0446939.42137934.3664898.49758624-.3159519.1522591-.6951439.0187937-.8469489-.2981035-.1518051-.31689717-.0187377-.69722355.2972142-.84948274m4.5319592-.16586207c-.3307347-.10758621-.5854898.34068965-.1474898.53793103.0581021.16586207-.0402245.34517238-.3083877.40793108.8491836.1748275.8938775-.78896556.4469388-.94586211"/>
  </g>
</svg>