<svg fill-rule="evenodd" viewBox="0 0 219 39" xmlns="http://www.w3.org/2000/svg"><path d="m88.4 26.197c.268 1.672 1.788 2.295 3.446 2.295s2.927-.703 2.963-1.555c.058-1.291-.952-2.058-2.382-2.336l-3.951-.775c-3.602-.66-5.654-1.704-5.654-4.774 0-3.999 3.446-6.603 8.367-6.603 4.84 0 8.045 2.214 8.827 5.594l-5.654 1.125c-.192-1.206-1.34-2.29-3.254-2.29-1.662 0-2.498.699-2.65 1.515-.103.533.152.977 1.917 1.345l4.568.932c3.679.776 5.363 2.99 5.363 5.863 0 4.313-3.718 6.568-8.831 6.568-4.568 0-8.492-1.672-9.14-5.671zm56.484-8.867a19.15 19.15 0 0 1 .157 2.38c0 7.922-5.64 13.62-13.498 13.62s-14.043-5.985-14.043-13.66 6.105-13.654 13.927-13.654c5.81 0 10.892 2.73 12.72 7.845l-6.186 1.793c-1.52-2.968-4.022-3.748-6.534-3.748-4.242 0-7.469 3.358-7.469 7.764s3.303 7.805 7.661 7.805c3.424 0 5.913-1.793 6.887-4.68h-7.978v-5.465zm-86.013 14.968h-6.378v-10.332h-10.972v10.332h-6.418v-26.143h6.418v10.185h10.972v-10.185h6.378zm23.107-9.795c0 6.205-4.917 10.342-10.7 10.342-5.913 0-10.816-4.137-10.816-10.342s4.916-10.31 10.816-10.31c5.797.014 10.7 4.147 10.7 10.31zm-5.998 0c0-3.043-2.293-5.07-4.707-5.07a4.87 4.87 0 0 0 -3.473 1.517 4.899 4.899 0 0 0 -1.344 3.553c0 3.085 2.293 5.075 4.823 5.075 2.413 0 4.702-1.99 4.702-5.075zm41.721 8.94a10.6 10.6 0 0 1 -5.327 1.443c-4.863 0-7.79-2.654-7.79-7.783v-7.436h-3.531v-4.931h3.53v-5.236l6.227-1.345v6.558h5.756v4.931h-5.725v6.814c0 2.026.97 2.846 2.605 2.846a6.372 6.372 0 0 0 2.839-.78l1.416 4.918zm47.027-11.553v12.408h-5.989v-1.443a8.623 8.623 0 0 1 -5.837 2.03c-4.353 0-7.271-2.537-7.271-6.4s2.918-6.313 8.116-6.313h4.979v-.39a2.613 2.613 0 0 0 -.76-1.989 2.597 2.597 0 0 0 -1.984-.759c-1.869 0-2.96.74-3.267 2.457l-5.873-1.21c.853-3.784 4.277-6.164 8.939-6.164 5.488.009 8.947 2.78 8.947 7.773zm-5.989 4.684v-.448h-4.281c-1.556 0-2.526.82-2.526 2.03s1.086 2.027 2.722 2.027c2.141.018 4.085-1.425 4.085-3.609zm23.572 6.868a10.617 10.617 0 0 1 -5.323 1.444c-4.863 0-7.777-2.654-7.777-7.805v-7.414h-3.54v-4.931h3.54v-5.236l6.221-1.345v6.558h5.757v4.931h-5.766v6.814c0 2.026.975 2.846 2.606 2.846a6.377 6.377 0 0 0 2.843-.78zm20.537-8.939c0 6.205-4.917 10.342-10.696 10.342-5.913 0-10.816-4.137-10.816-10.342s4.917-10.31 10.816-10.31c5.797.014 10.696 4.147 10.696 10.31zm-5.99 0c0-3.043-2.297-5.07-4.706-5.07a4.87 4.87 0 0 0 -3.48 1.513 4.899 4.899 0 0 0 -1.347 3.557c0 3.085 2.298 5.075 4.827 5.075 2.41 0 4.707-1.99 4.707-5.075zm21.9-9.906-.272 6.23h-1.13c-4.354 0-6.727 2.242-6.727 7.339v6.132h-6.226v-18.24l6.226-1.345v3.743c1.399-2.34 3.54-4.034 6.726-4.034a5.16 5.16 0 0 1 1.404.175z" fill="#1f2044" fill-rule="nonzero"/><path d="m21.154 28.42c-1.09 1.059-2.177 2.511-3.276 3.56.522 2.757-.501 3.967.733 4.958.446.354 3.128 1.112 4.67.233.031-1.43-.746-1.856-1.578-2.39-.844-1.792-.54-4.572-.558-6.36" fill="#2e93ee"/><path d="m21.78 37.574a2.49 2.49 0 0 0 -1.538-1.793c.62.38.985 1.066.956 1.793.197.01.39.01.581 0zm1.3-.295a2.472 2.472 0 0 0 -1.529-1.793c.796.614 1.05 1.273.939 1.99.202-.047.4-.113.59-.197z" fill="#2e578b"/><path d="m19.88 14.148c-.563.82-.814 2.541 3.665 5.065l-2.476 3.855c-.595.596-.957 2.183-.376 2.981.301.42.646.806 1.028 1.152 0 0 1.484.278 2.119-.08.785-.871.962-2.133.447-3.188 0 0 3.776-3.962 3.535-5.155s-6.159-7.23-7.942-4.63z" fill="#2e93ee"/><path d="m24.264 23.933-1.913 1.48a4.32 4.32 0 0 0 .894-.386s.68.834.184 1.538c0 0 .893-.525.299-1.73.206-.26.394-.535.563-.82z" fill="#2e578b"/><g fill="#2e93ee"><path d="m8.523 23.198c-.01.294-.1.579-.26.825-.258.408-.406.363.238.713.479.243.996.404 1.528.475.894.148.693.05.295-.802a7.263 7.263 0 0 0 -.621-1.099c-.894-1.232-1.144-1.147-1.18-.12m-3.209-.418c-.33.615.174.713.822.942.243.085.495.14.751.166.729.08.541-.027.22-.619a10.621 10.621 0 0 0 -.644-1.058c-1.283-1.847-.67-.327-1.149.57m-2.77-.274a2.73 2.73 0 0 1 0 .421c-.046.511-.104.426.526.484a3.73 3.73 0 0 0 .845 0c.805-.12.51-.403.09-.874a3.468 3.468 0 0 0 -.474-.448c-1.591-1.228-.992-.363-.97.421m10.642-18.02s-4.564 2.357-4.523 3.106 1.287.646 1.787 1.65c0 0-2.793 1.937-2.614 2.824s1.98.565 2.427 1.269c0 0-.447 1.766-.04 2.411s.344.09.893.897c.04.018-.281-6.572 2.07-12.157z"/><path d="m12.246 6.626c1.61 1.533 3.638 2.496 5.489 3.684a12.106 12.106 0 0 1 3.311 2.928c1.109 1.488.447 3.24.724 5.065.085.619.126 1.246.152 1.874a24.279 24.279 0 0 1 -.098 3.42c-.282 2.717-.42 4.931-2.333 6.966-2.387 2.547-5.015 3.138-7.996.924a14.502 14.502 0 0 1 -2.847-2.448c-.612-.717-1.372-1.174-2.029-1.842a9.579 9.579 0 0 0 -2.932-2.12c-1.153-.449-1.948.16-2.516.42-.29.135-.693.395-1.019.135a.346.346 0 0 1 -.112-.408 2.99 2.99 0 0 1 .756-1.07c1.756-1.615 4.594-1.65 6.704-.516.8.448 1.671.919 2.596.977a2.47 2.47 0 0 0 1.824-.52c.4-.368.662-.861.746-1.399a4.266 4.266 0 0 0 -.156-2.241c-.344-1.04-.961-1.982-1.363-3.008-1.341-3.492-1.788-7.473.388-10.736l.304-.449.407.364z"/></g><path d="m4.063 25.229c1.537.771 3.173 2.497 4.742 4.357 2.051 2.443 7.15 6.043 11.401.386 3.982-5.326 2.11-12.79 1.877-13.637l-.027-.09c-.134-.17-3.682-4.715-6.936-5.379-.867.753-1.037 2.085.116 4.38 1.944 3.86 3.5 9.485.045 12.942a4.7 4.7 0 0 1 -1.842 1.165c-2.453.811-3.754-.681-5.291-2.125a7.397 7.397 0 0 0 -4.085-1.999z" fill="#ffcf00"/><path d="m20.684 29.29a8.152 8.152 0 0 1 -4.103-1.68 5.666 5.666 0 0 0 3.625 2.37c.17-.223.353-.457.478-.69zm-6.91.346a9.5 9.5 0 0 0 2.477 3.223 5.43 5.43 0 0 0 .974-.332 7.899 7.899 0 0 1 -3.45-2.891zm-5.22-.337.25.296.117.14c-.08-.365-.04-.745.112-1.086a5.795 5.795 0 0 0 -.479.65zm1.726 1.726.554.448c-.13-.618-.188-1.264.022-1.622a5.925 5.925 0 0 0 -.576 1.174z" fill="#eca93f"/><path d="m6.91 27.51.397.409a3.403 3.403 0 0 1 .09-.857 4.331 4.331 0 0 0 -.487.449z" fill="#ff9144"/><g fill="#eca93f"><path d="m17.68 24.655a8.231 8.231 0 0 1 4.77 0l.107-.663c-3.124-.744-4.876.663-4.876.663zm4.97-4.904-.075-.771c-3.312-.08-5.02 1.533-5.02 1.533a8.082 8.082 0 0 1 5.096-.762zm-1.304-4.348a8.205 8.205 0 0 0 -.447-.48c-3.518 0-4.47 1.64-4.47 1.64a7.758 7.758 0 0 1 4.917-1.16z"/><path d="m22.606 19.244a22.152 22.152 0 0 0 -.389-2.37l-.254-.158-7.513-4.613c-.026.22-.026.443 0 .664 1.52 2.134 4.93 5.747 8.156 6.477z"/></g><path d="m11.397 27.87a2.232 2.232 0 0 1 2.038-.973c2.261.295 1.546 2.98 1.006 4.559a12.931 12.931 0 0 0 -.644 3.51c0 1.56.594 2.03-.13 2.64a6.14 6.14 0 0 1 -3.95 1.103c-1.256-.287-1.288-2.878.715-3.537.554-1.21.531-2.448.487-3.739-.032-.896-.108-2.69.478-3.586" fill="#2e93ee"/><path d="m10.91 38.695a6.95 6.95 0 0 0 .532-.098 2.318 2.318 0 0 1 .625-2.103c-.822.47-1.09 1.273-1.157 2.201zm-1.211.018a2.65 2.65 0 0 1 .603-2.34 2.404 2.404 0 0 0 -1.135 2.008 1 1 0 0 0 .532.332zm1.162-14.125s-.26 1.502.76 2.004c.858.448 1.912.448 2.44-.193.728-.897 1.787-2.69-1.113-4.451-1.788-1.09-1.9 2.609-1.9 2.609l-.187.03zm.25-7.2.742 1.53c.018.058 2.36-2.937 1.922-3.421s-2.293 1.242-2.664 1.892z" fill="#2e578b"/><g fill="#2e93ee"><path d="m13.408 13.094c2.534 2.452-2.726 5.698-2.726 5.698.572.363 1.296 1.605 1.837 2.51s.755.758 1.417 1.51-1.225 1.879-1.225 1.879-6.329-3.43-6.31-5.626c0-.273 1.47-2.716 2.953-4.232.747-.762 2.843-2.909 4.054-1.739z"/><path d="m10.95 23.472s-.447 2.335.92 3.017c0 0 1.131.071 1.704-.341 0 0 1.425-2.197.362-3.335s-2.986.659-2.986.659z"/></g><path d="m10.923 23.638 2.145 1.071a1.68 1.68 0 0 1 -.934-.139s-.447.897.076 1.452c0 0-.84-.148-.54-1.555l-.765-.79.018-.04z" fill="#2e578b"/><path d="m12.563 5.922s.952-5.63 3.281-5.725c1.533-.067 2.306 1.893 2.306 1.893a4.906 4.906 0 0 1 2.646.789s.447-.776 1.158-.525 1.52 1.883 1.229 4.564a2.333 2.333 0 0 1 1.671 1.152 1.247 1.247 0 0 1 -.8.515c-.482.04-2.565-.721-3.128-.224a1.818 1.818 0 0 0 -.747 1.793s-2.301-.233-3.325-1.546-1.904-3.86-4.29-2.685z" fill="#2e93ee"/><path d="m20.488 6.33s.572-1.892 1.671-2.421c.04.916.14 1.828.3 2.73a17.026 17.026 0 0 0 -1.971-.31zm-4.98-3.878s1.418.686 2.37 3.631a20.174 20.174 0 0 0 -3.21-.287 7.76 7.76 0 0 0 .84-3.344z" fill="#f1f1f2" fill-rule="nonzero"/><path d="m16.09 3.761c.344 0 .626.386.626.865s-.282.86-.626.86-.626-.385-.626-.86.277-.865.626-.865m5.292 2.295c.272 0 .491-.291.491-.654s-.219-.655-.491-.655a.446.446 0 0 0 -.152.036c-.15.174-.265.377-.336.596a.153.153 0 0 0 0 .045c-.004.34.215.632.488.632z" fill="#2e578b"/><path d="m15.643 7.325s-1.699-1.345-2.561-.386c-1.028 1.157 0 2.954 0 2.954s.125-.77.51-1.026c0 0 .151 2.434 4.102 5.142s5.672 2.411 6.535 2.183 1.738-.848 1.407-1.542-2.56-2.582-2.56-2.582-.845.103-2.566-.502-4.022-1.794-5.506-3.856a7.2 7.2 0 0 0 .639-.385" fill="#ff9144"/><path d="m14.65 10.49a6.69 6.69 0 0 1 6.19 1.672l-.446-.242s2.029-.099 2.31.183a4.83 4.83 0 0 1 2.101 3.587c.058.694-1.582 1.089-5.238-.736-2.27-1.147-4.916-4.464-4.916-4.464z" fill="#ff6b17"/><path d="m19.093 10.951.085.045z" fill="#ff9144"/><path d="m22.91 12.054s-.492 2.022-1.251 1.793c-.255-.076-.152-.65-.255-1.044s-.398-1.148-.398-1.148l1.904.4zm3.759-.766s-.157 2.075-.943 1.976c-.264-.03-.255-.614-.42-.986s-.572-1.071-.572-1.071l1.935.08z" fill="#ebeef2"/><path d="m27.505 9.468c-.099-1.462-2.02-2.103-3.433-1.076-1.153-.256-2.431-1.027-3.575.13a1.348 1.348 0 0 0 -.353 1.605s-2.396-.386-3.223-1.61-1.908-2.864-3.066-2.98c-.617-.06-1.658-.149-2.261 1.03s-.894 3.309 3.575 6.68 6.427 4.28 7.401 4.276c1.238 0 1.314-.448 2.74-.663.729-.103 1.283-1.345.483-2.421a9.189 9.189 0 0 0 -2.396-2.125c-.044.045 1.734 1.475 2.065 2.17s-.648 1.134-1.506 1.345-1.962.448-5.909-2.242-4.37-5.41-4.37-5.41c-.501-.077-.56 1.013-.56 1.013s-.576-1.26.197-2.013c.934-.897 1.9.21 1.9.21h-.058c-.586-.282-.666.225-.666.225a14.454 14.454 0 0 0 5.962 4.532c1.72.605 2.623-.076 2.623-.076a16.662 16.662 0 0 0 2.44-.198c.618-.166 2.128-.426 1.99-2.402z" fill="#ffcf00"/><path d="m21.78 9.31c.402-.125.71.418.183.65-.076.202.044.422.366.498a.637.637 0 0 1 -.55-1.148m4.532-.165c-.33-.108-.585.34-.147.538.058.166-.04.345-.309.408.85.175.894-.79.447-.946" fill="#eca93f"/></svg>