<svg xmlns="http://www.w3.org/2000/svg" width="438.788" height="465.542"><defs><filter id="prefix__a" x="55.808" y="97.487" width="35.417" height="29.049" filterUnits="userSpaceOnUse"><feOffset/><feGaussianBlur stdDeviation=".5" result="b"/><feFlood flood-opacity=".161"/><feComposite operator="in" in2="b"/><feComposite in="SourceGraphic"/></filter></defs><path fill="#cdd8df" opacity=".45" d="M10.455.962h81.848v79.713H10.455z"/><path d="M185.825 229.695c-7.256-12.339-10.556-12.59-17.353-26.8 7.557-4.163-.848-7.153 1.308-8.77 4.348-3.255 8.538-7.357 6.25-15.92-3.864-1.676-20.526-2.887-24.656-3.697 0 0-28.326-1.938-30.403 5.034-1.377 4.63-3.17 23.348 13.26 27.095 4.857 1.108 5.374 4.384 8.36 8.359 0 0 12.068 36.604 19.6 44.678s66.867 10.773 64.567-10.089c-.443-4.013 37.803-19.656 32.404-24.416-6.114-5.395-57.266.726-73.337 4.526z" fill="#2e93ee"/><path d="M0 65.412V17.793l260.491.152v41.678L21.418 50.361z" fill="#4eb0ff"/><path d="M16.593 186.493c-8.527 0-16.444-7.78-16.593-16.306l89.725-71.2 39.809 49.052-12.121 38.454z" fill="#ffd54c"/><path d="M260.491 32.474v153.922H79.884z" fill="#ff9144"/><path d="M21.352 50.362H239.14v115.2H21.352z" fill="#fff"/><path d="M204.343 75.543l-11 9.262v-9.262z" fill="#1f2044"/><path d="M184.082 75.543l-11 9.262v-9.262z" fill="#ffd54c"/><path d="M189.291 75.253l-11 9.841h11z" fill="#3c97ff"/><path d="M209.551 75.253l-11 9.841h11z" fill="#ff9144"/><path d="M57.308 125.036h32.417v14.472H71.78a14.472 14.472 0 01-14.472-14.472zm46.31 0h32.417v14.472H118.09a14.472 14.472 0 01-14.472-14.472zm46.31 0h32.417v14.472H164.4a14.472 14.472 0 01-14.472-14.472zm45.73 0h32.417v14.472H210.13a14.472 14.472 0 01-14.472-14.472zM21.418 50.362h24.313v115.195H21.418z" fill="#ffd54c"/><path fill="#3c97ff" d="M57.308 98.987h32.417v26.049H57.308z"/><g transform="translate(-.002 -.003)" filter="url(#prefix__a)"><path d="M57.31 98.99h32.417L57.31 125.039z" fill="#1f2044"/></g><path fill="#1f2044" d="M57.308 139.508h32.417v26.049H57.308z"/><path d="M57.308 139.508h32.417l-32.417 26.049z" fill="#3c97ff"/><path fill="#1f2044" d="M103.618 98.987h32.417v26.049h-32.417z"/><path d="M103.618 98.987h32.417l-32.417 26.049zm0 40.521h32.417v26.049h-32.417z" fill="#3c97ff"/><path d="M103.618 139.508h32.417l-32.417 26.049z" fill="#1f2044"/><path fill="#3c97ff" d="M149.928 98.987h32.417v26.049h-32.417z"/><path d="M149.928 98.987h32.417l-32.417 26.049zM149.928 139.508h32.417v26.049h-32.417z" fill="#1f2044"/><path d="M149.928 139.508h32.417l-32.417 26.049z" fill="#3c97ff"/><g fill="#1f2044"><path d="M195.658 98.987h32.417v26.049h-32.417z"/><path d="M195.658 98.987h32.417l-32.417 26.049z"/></g><path fill="#3c97ff" d="M195.658 139.508h32.417v26.049h-32.417z"/><path d="M195.658 139.508h32.417l-32.417 26.049zM29.456 63.731h8.336v1.389h-8.336zm0-3.126h8.336v1.389h-8.336zm0-3.126h8.336v1.389h-8.336z" fill="#1f2044"/><g fill="none" stroke-miterlimit="10"><path d="M21.352 35.586V0H239.14v35.586z"/><path d="M232.14 28.586V7H28.352v21.586H232.14m7 7H21.352V0H239.14v35.586z" fill="#1f2044"/></g><path fill="#1f2044" stroke="#1f2044" stroke-miterlimit="10" stroke-width=".81" d="M38.433 15.658h9.964v4.982h-9.964zm19.217 0h17.081v4.982H57.65z"/><path d="M161.595 205.314c8.956-2.957 12.746-6.66 13.855-8.986 1.24-2.593.966-9.886.708-15.026.161-5.832-.55-6.544-3.593-7.429a3.586 3.586 0 00-3.692 1.05c-1.822 2.354-1.974 13.378-5.35 14.29s-17.72-4.863-23.452 7.658c-3.848 8.346 7.327 13.645 21.524 8.443z" fill="#2e93ee"/><g transform="translate(47.383 72.676)"><ellipse cx="163.641" cy="22.767" rx="163.641" ry="22.767" transform="translate(28.125 347.331)" fill="#ebeff3" opacity=".453"/><path d="M195.263 258.158c11.625 11.262 22.195 22.285 33.916 33.452-9.186 31.332 6.64 52.067-9.065 59.007-4.226 1.868-14.717 5.574-24.173 6.1-9.065.509-17.791-.042-25.607-4.49-3.465-14.406 4.456-15.857 19.069-26.357 9.005-19.084 5.765-48.671 5.955-67.712" fill="#3c97ff"/><path d="M187.803 356.772c1.992-8.664 3.153-14.153 11.031-20.219-4.2 4.044-3.47 12.524-3.15 20.219-2.187.095-5.743.095-7.881 0zm-1.839-21.142c-5.717 6.087-5.675 13.473-4.677 20.29-2.227-.5-5.28-.568-7.276-2.029 0 0 1.039-13.188 11.953-18.261z" fill="#24578f"/><path d="M310.997 218.009a15.064 15.064 0 002.452 7.69c2.413 3.845 3.818 3.364-2.229 6.642a46 46 0 01-14.38 4.422c-8.518 1.375-6.522.433-2.762-7.459a66.06 66.06 0 015.814-10.151c8.237-11.439 10.776-10.66 11.115-1.115m30.08-3.913c3.145 5.889-1.676 6.821-7.887 9a31.764 31.764 0 01-7.158 1.606c-7 .763-5.186-.258-2.12-5.948a103.507 103.507 0 016.191-10.13c12.236-17.677 6.393-3.153 10.984 5.472M267.134 41.868s42.844 22.226 42.467 29.257-12.078 6.085-16.8 15.6c0 0 26.227 18.237 24.534 26.595s-18.501 5.329-22.832 11.98c0 0 4.142 16.638.368 22.723s-3.2.839-8.488 8.631c0 0 2.836-62.133-19.249-114.766" fill="#3c97ff"/><path d="M275.463 62.509c-15.15 14.388-34.526 23.443-51.989 34.558-11.948 7.597-22.821 16.098-31.343 27.436-10.494 13.971-4.471 30.429-6.833 47.606-.82 5.834-1.211 11.727-1.455 17.605a224.8 224.8 0 00.976 32.119c2.636 25.542 3.963 46.333 22.07 65.444 22.627 23.9 47.03 25.571 75.26 4.945 10.942-8 18.683-9.084 27.478-19.276 5.769-6.7 12.983-11 19.22-17.274 7.2-7.267 18.01-16.235 27.742-19.926 10.923-4.149 18.459 1.516 23.818 3.945 2.782 1.263 6.579 3.711 9.654 1.273a3.158 3.158 0 001.064-3.886 28.177 28.177 0 00-7.126-10.056c-16.663-15.156-43.526-15.5-63.624-4.858-7.585 4.032-15.852 8.627-24.6 9.2-6.189.408-12.475-.758-17.278-4.858a22.808 22.808 0 01-7.087-13.135 40.332 40.332 0 011.474-21.112c3.27-9.715 9.137-18.605 12.924-28.224 12.926-32.809 17.114-70.184-3.655-100.837l-2.883-4.255z" fill="#3c97ff"/><path d="M308.613 278.575c-20.02 22.183-67.835 56.872-107.8 3.633-37.64-50.142-19.919-120.422-17.727-128.422.078-.273 42.47-48.7 73.227-55 8.2 7.12 9.742 19.646-1.13 41.249-18.37 36.33-36.347 93.821-3.691 126.362 4.855 4.97 10.951 4.216 17.529 6.456 5.381 1.772 2.535 3.542 15.222 2.767s42.915-35.61 68.269-37.816c.001 0-25.832 20.753-43.899 40.771z" fill="#ffcf00"/><path d="M310.771 275.795l-2.5 2.858c-.366.438-.752.876-1.148 1.324.605-3.983.505-7.776-1.095-10.435a56.28 56.28 0 014.743 6.253m-18.025 16.285c-2.051 1.7-4.2 3.354-6.414 4.976 1.527-7.268 2.174-14.763-.226-18.976 3.124 5.485 5.484 9.977 6.64 14" fill="#eca93e"/><path d="M322.092 262.901a28.079 28.079 0 00-.886-7.589 40.474 40.474 0 014.743 3.965 464.104 464.104 0 00-3.857 3.624z" fill="#edb248"/><path d="M261.423 278.099a89.792 89.792 0 01-23.121 30.338 50.354 50.354 0 01-9.114-3.096c8.757-4.07 23.564-12.661 32.254-27.261m-65.457-2.825c9.34-1.201 25.353-4.883 38.894-16.148 0 0-9.6 17.081-34.39 22.767-1.6-2.174-3.1-4.377-4.5-6.62m29.375-37.246c-19.3-6.253-34.761 2.474-42.767 4.973-1.395-2.358-3.432-9.295-3.687-11.416 3.258-.774 23.16-1.417 25.082-.371 19.07 10.372 21.4 6.813 21.4 6.813m-48.379-52.359c.206-2.491.46-4.876.744-7.149 31.432-.748 47.637 14.2 47.637 14.2-18.799-10.027-38.732-8.627-48.381-7.041m12.332-40.688a206.205 206.205 0 014.087-4.443c33.391 0 42.4 15.178 42.4 15.178a75.109 75.109 0 00-46.487-10.735" fill="#eca93e"/><path d="M181.222 158.827a88.1 88.1 0 002.376-1.482c10.625-6.918 63.677-43.798 77.39-51.918.287 2.074 1.573 5.3 1.383 7.385-18.445 19.847-49.802 46.155-83.461 58.071q.966-6.062 2.312-12.056z" fill="#eca93e"/><path d="M232.126 244.359c-8.13-6.11-18.86-10.107-2.3-20.771.3-.191 4.316-1.654 4.607-1.846 18.633-12.363 20.42-26.434 30.399-34.615 19.807-16.238 11.038 20.31 11.056 36.465 2.3 2.77 2.764 3.693 5.989 5.539-14.742 6.001-32.708 14.309-49.751 15.228z" fill="#24578f"/><path d="M281.828 171.043c-5.94 10.083-16.836 28.261-17 29.008 0 0-4.607-47.544 1.843-55.852 4.1-5.283 12.277 18.362 15.154 26.9" fill="#24578f"/><path d="M271.282 184.357c-3.819 2.564-4.609 4.616-11.978 14.771s-16.584 19.387-37.775 28.618 4.607 20.31 4.607 20.31 83.566-29.617 83.382-50.313c0-2.564-7.176-47.545-13.359-68.315-3.298-11.075-20.119-17.257-31.551-6.224-9.91 14.533 6.674 61.153 6.674 61.153z" fill="#3c97ff"/><path d="M238.074 227.176s1.311 12.4-11.141 19.636-21.243 8.678-33.695 4.341c0 0-8.79-2.171-10.987-7.959-.631-1.869-.342-4.5.544-5.446.486-.519 1.979.079 1.979.079a8.572 8.572 0 01-1.485-3.8 9.237 9.237 0 01.444-3.741c.327-.577 2.146-.771 2.67-1.058.285-.156.976-.509.976-.509a5.969 5.969 0 01-.223-2.88 15.5 15.5 0 01.8-3.47 10.626 10.626 0 012.222-.92 3.156 3.156 0 013.064.041 52.328 52.328 0 009.514 4.34 30.518 30.518 0 0012.452-2.894s-5.86-12.3-.732-15.194a4.432 4.432 0 012.766-.727c.183.026.24-.493 1.646-1.425 1.875 2.33 1.646 6.338 2.18 7.217 2.2 3.618 4.069 3.2 5.86 5.065 8.072 8.418 11.146 9.304 11.146 9.304z" fill="#3c97ff"/><g transform="rotate(6.02 159.74 1318.719)"><path d="M139.78 53.88S130.741.987 108.732.014c-14.481-.593-21.77 17.819-21.77 17.819s-11.772-.768-25.045 7.47c0 0-4.044-7.285-10.953-4.941S36.619 38.006 39.357 63.237a22 22 0 00-15.816 10.796s3 4.426 7.572 4.867 24.255-6.809 29.606-2.081 7.689 8.2 7.036 16.778c0 0 21.654-2.081 31.428-14.434s18.028-36.348 40.6-25.279" fill="#3c97ff"/><path d="M48.036 57.99s15.232-3.684 22.148-3.684 21.225-1.845 21.225-1.845 19.38-2.3 23.994-2.3h6.46l-11.536 7.829-65.059 6.448z" fill="#3c97ff"/><path d="M64.84 57.585s-5.409-18.526-15.816-23.656a207.056 207.056 0 01-2.807 26.711 149.047 149.047 0 0118.623-3.035m47.079-37.493s-13.4 6.557-22.229 35c0 0 21.088-3.5 30.356-2.775 0 0-8.556-16.188-8.127-32.226" fill="#f1f1f2"/><path d="M105.26 35.51c-3.264 0-5.915 3.628-5.915 8.122s2.651 8.122 5.915 8.122 5.935-3.638 5.935-8.074-2.65-8.121-5.915-8.121" fill="#24578f"/><ellipse cx="4.492" cy="6.225" rx="4.492" ry="6.225" transform="translate(52.305 44.257)" fill="#24578f"/><path d="M115.057 67.886s9.121-10.524 17.95-1.945c7.319 7.062 1.852 18.909 1.852 18.909s-.526-10.223-5.272-9.522c0 0 2.857 33.668-34.486 59.113s-60.182 26.086-68.29 23.947-11.8-17.406-8.66-23.943 22.229-22.741 22.229-22.741 8.546 6.4 24.791.71 42.762-22.916 56.727-42.369c0 0-.76-4.756-6.3-2.091" fill="#f47924"/><path d="M120.017 96.832a63.514 63.514 0 00-58.471 15.728l4.181-2.276s-19.188-.973-21.848 1.7-19.684 13.816-21.682 36.272c-.585 6.536 14.835 15.306 49.371-1.842 21.488-10.7 54.913-39.607 54.913-39.607" fill="#e05406"/><path d="M41.949 111.519s4.648 19.016 11.8 16.886c2.417-.71 1.423-6.118 2.417-9.814s3.704-10.797 3.704-10.797zM6.38 104.332s1.51 19.512 8.936 18.6c2.5-.311 2.4-5.836 3.976-9.289s5.409-10.06 5.409-10.06z" fill="#fff"/><path d="M.049 88.847c.923-16.119 17.567-21.406 30.888-11.74 10.9-2.412 23.028-9.668 33.932 1.206 7.708 7.694 3.3 15.076 3.3 15.076s22.661-3.648 30.496-15.163 17.96-26.9 29.07-27.993c5.847-.574 15.68-1.42 21.381 9.668s8.546 34.809-33.63 66.5-60.761 40.268-69.979 40.249c-11.694 0-12.444-4.367-25.932-6.254-6.89-.973-12.113-12.645-4.561-22.741s25.337-26 25.337-26-19.1 19.886-22.229 26.426 6.12 10.7 14.247 12.79 18.516 4.407 55.86-21.03 41.329-54.564 41.329-54.564c4.746-.7 5.272 9.522 5.272 9.522s5.467-11.847-1.852-18.909c-8.829-8.53-17.95 1.945-17.95 1.945h.546c5.535-2.665 6.3 2.091 6.3 2.091-13.98 19.456-40.474 36.672-56.732 42.352s-24.791-.71-24.791-.71-17.251-.282-23.086-1.848S-.874 104.966.049 88.847z" fill="#ffcf00"/><path d="M52.63 85.754c-3.801-1.216-6.714 3.89-1.714 6.115.7 1.88-.43 3.893-3.5 4.652 9.745 2 10.1-9.007 5.214-10.767M9.773 84.188c3.128-.973 5.535 3.21 1.413 5.048-.585 1.547.351 3.239 2.924 3.891-8.01 1.644-8.332-7.431-4.3-8.89" fill="#eca93e"/></g><path d="M283.497 252.618a24.225 24.225 0 00-22.081-10.499c-24.507 3.193-14.91 32.174-9.049 49.2a139.063 139.063 0 016.974 37.883c-.061 20.2-5.979 24.838 3.4 31.145 12.884 9.115 20.544 10.491 35.757 9.452 8.665-1.294 15.834-3.482 16.824-9.452 1.443-8.7-.99-13.432-13.126-18.724-3.232-1.409-6.667-5.156-8.237-10.2-5.357-13.865-5.763-26.416-5.279-40.35.339-9.676 1.162-29.029-5.182-38.705" fill="#3c97ff"/><path d="M295.916 369.875c-1.985.5-5.458 0-6.947 0 1.489-8.525 2.481-20.56-.992-25.575 6.45 5.015 9.428 18.053 7.939 25.575zm4.073-23.732c7.537 4.611 12.87 10.842 13.86 17.741-1.491 1.759-3.96 2.464-5.94 3.45 0 0 1.98-9.364-7.92-21.191z" fill="#24578f"/></g><path fill="#e3e8ee" d="M55.87 69.681h108v15h-108z"/></svg>