<svg xmlns="http://www.w3.org/2000/svg" width="769" height="474"><defs><clipPath id="prefix__a"><path class="prefix__a" transform="translate(724 64)" d="M0 0h769v474H0z"/></clipPath><clipPath id="prefix__b"><path class="prefix__a" transform="translate(973.97 278.61)" d="M0 0h625v362H0z"/></clipPath><style>.prefix__a{fill:#fff;stroke:#707070}.prefix__g,.prefix__j{fill:#3c97ff}.prefix__h{fill:#1d5297}.prefix__k{fill:#2e578c}.prefix__j,.prefix__k,.prefix__l,.prefix__m,.prefix__s{fill-rule:evenodd}.prefix__l{fill:#fbce3b}.prefix__m{fill:#eca93e}.prefix__o{fill:#f1f1f2}.prefix__s{fill:#ebeef2}</style></defs><g transform="translate(-724 -64)" clip-path="url(#prefix__a)"><g transform="translate(0 -16)"><ellipse cx="128.141" cy="18.267" rx="128.141" ry="18.267" transform="translate(1232 510.315)" opacity=".6" fill="#cdd8df"/><g clip-path="url(#prefix__b)" transform="rotate(2 7214.771 -7113.432)"><g opacity=".6"><path d="M1498.978 537.87L1194.683-46.161 255.381-79.625 1476.77 557.98z" opacity=".78" fill="#cdd8df"/></g></g><path class="prefix__g" d="M1292.874 375.06s-18.892-.742-28.812-4.452a11.158 11.158 0 00.636-3.078c.342-2.234-.502-2.785-1.63-5.397s-7.368-5.313-13.64-8.96c-3.201 1.266-4.909 12.749-7.764 14.676 0 0 .7.353-.157 4.477-.422 2.03-7.47-3.063-4.643 2.195s8.285 9.037 20.268 10.747c0 0 28.938 18.226 37.96 18.543s48.368-27.273 34.985-38.066c-5.739-4.624-20.632-9.46-37.203 9.314z"/><path class="prefix__h" d="M1270.869 396.876a7.381 7.381 0 01-10.417-.714l-34.565-39.638a7.384 7.384 0 01.712-10.42 7.384 7.384 0 0110.42.715l34.562 39.638a7.383 7.383 0 01-.712 10.419z"/><path class="prefix__h" d="M1209.9 350.604a14.445 14.445 0 001.109 1.467l.65.746a14.58 14.58 0 0020.512 1.399l1.703-1.484a14.585 14.585 0 001.4-20.513l-.65-.746a15.135 15.135 0 00-1.302-1.298z"/><path class="prefix__h" d="M1233.87 333.63l-20.646 18.004a3.814 3.814 0 01-5.382-.367 3.814 3.814 0 01.366-5.38l20.648-18.006a3.816 3.816 0 015.382.367 3.814 3.814 0 01-.368 5.382z"/><path class="prefix__g" d="M1255.434 379.722l-7.67 6.508c-1.306.987-3.71.042-4.699-1.266l-.17-.189c-.987-1.306-.943-3.854.364-4.844l7.885-5.957a3.187 3.187 0 014.36.325l.723.922a3.439 3.439 0 01-.793 4.5z"/><path class="prefix__g" d="M1250.946 374.357l-9.783 8.157a2.799 2.799 0 01-3.995-.705c-2.132-1.976-1.494-4.361-.23-5.358l9.91-7.806a2.777 2.777 0 013.994.548c.948 1.3 1.365 4.167.104 5.164z"/><path class="prefix__g" d="M1247.552 369.31l-10.529 7.895c-1.306.987-3.659-.138-4.647-1.44l-.718-.951c-1.063-1.085-.471-3.738.834-4.725l8.893-6.77c1.307-.987 4.156-.452 5.583 1.4.99 1.306 1.894 3.603.584 4.59z"/><path class="prefix__g" d="M1257.276 368.878c-5.785.143-12.069-9.74-12.069-9.74a21.701 21.701 0 01-5.545.975c-2.634.024-2.648-3.597-2.648-3.597s-.178-2.92 6.39-4.416c1.541-.472 2.978-.128 5.013.698 5.636 2.276 12.175 9.29 12.175 9.29-1.458 3.231.219 6.54-3.316 6.79z"/><path d="M1264.138 370.63c.96-.998.88-2.161.704-3.836a6.146 6.146 0 00-.963-3.037c-.57-.606.292 3.186-2.768 4.69s2.068 3.182 3.027 2.183z" fill="#2e578c"/><g><path class="prefix__j" d="M1322.975 458.692c8.5 8.2 17 19.5 25.5 27.7-4.1 21.4 3.9 30.9-5.7 38.6-3.5 2.8-24.6 8.7-36.5 1.8-.3-11.1 5.8-14.4 12.3-18.6 6.6-14.1 4.2-35.6 4.3-49.5"/><path class="prefix__k" d="M1318.075 529.892c1.5-5.9 4.7-11 12-14.1-5.8 4.3-7.9 9.1-7.5 14.1zM1307.975 527.592a19.405 19.405 0 0111.9-13.9c-6.2 4.7-8.2 9.9-7.3 15.4a23.8 23.8 0 01-4.6-1.5z"/><path class="prefix__j" d="M1421.574 417.992a12.7 12.7 0 002 6.4c2 3.2 3.2 2.8-1.8 5.6a37.7 37.7 0 01-11.9 3.7c-7.1 1.2-5.4.4-2.3-6.2a55.3 55.3 0 014.8-8.5c6.8-9.6 8.9-8.9 9.2-.9M1446.574 414.692c2.6 4.8-1.4 5.5-6.4 7.3a26 26 0 01-5.8 1.3c-5.7.6-4.2-.2-1.7-4.8a84.8 84.8 0 015.1-8.2c10-14.4 5.2-2.6 9 4.4M1468.274 412.592a26.7 26.7 0 00.1 3.3c.4 4 .8 3.3-4.1 3.8a28.7 28.7 0 01-6.6-.1c-6.3-.9-4-3.1-.7-6.8a27.8 27.8 0 013.7-3.4c12.4-9.6 7.7-2.8 7.6 3.3"/><path class="prefix__j" d="M1316.975 394.492a141.321 141.321 0 011.2-14.6c2-14.2-3-27.8 5.7-39.4 7-9.4 16-16.5 25.8-22.8 14-8.9 29.4-16.3 41.7-27.6a170.307 170.307 0 00-6.3-17.7s35.6 18.3 35.2 24.1-9.3 5.1-13.5 12l.5 1.5c4.1 2.9 20.7 15.3 19.5 21.4s-12.3 4.8-17.3 8.3q-.3 3-.8 5.9c.8 4.5 1.4 11.2-.6 14.4s-2.5 2.6-3.6 3.3q-1.6 5-3.5 9.9c-3.1 8-8 15.3-10.6 23.4a33.5 33.5 0 00-1.2 17.5 18.7 18.7 0 005.8 10.9c4 3.4 9.1 4.4 14.2 4 7.2-.5 14-4.3 20.3-7.6 16.6-8.8 38.7-8.6 52.4 4a23.3 23.3 0 015.9 8.3 2.6 2.6 0 01-.9 3.2c-2.5 2-5.7 0-8-1.1-4.4-2-10.6-6.7-19.6-3.3s-16.9 10.5-22.9 16.5-11.1 8.8-15.8 14.3c-7.2 8.5-13.2 12.5-22.2 19.1-23.3 17.1-43.8 12.6-62.4-7.2-14.9-15.8-16-33.1-18.2-54.2a187.4 187.4 0 01-.8-26.5z"/><g><path class="prefix__l" d="M1456.374 433.792c-12 6-24.7 19.4-37 34-16 19-56 47-89 3-31.1-41.4-16.4-99.5-14.6-106.1l.2-.7c1-1.3 28.8-36.7 54.2-41.9 6.8 5.9 8.1 16.2-.9 34.1-15.2 30-27.3 73.8-.3 100.7a36.6 36.6 0 0014.4 9.1c19.2 6.3 29.3-5.3 41.3-16.5a57.9 57.9 0 0131.7-15.7z"/><path class="prefix__m" d="M1326.675 465.392c7.7-1 20.9-4 32-13.1 0 0-7.9 13.9-28.3 18.5a64.523 64.523 0 01-3.7-5.4zM1380.575 468.092a74.3 74.3 0 01-19.3 25.1 41.9 41.9 0 01-7.6-2.6c7.3-3.3 19.6-10.4 26.9-22.5zM1421.374 465.492l-2 2.3-.9 1.1c.5-3.2.4-6.3-.9-8.4a44.8 44.8 0 013.8 5zM1407.974 478.892l-4.3 3.3c1-4.8 1.5-9.8-.2-12.6a46 46 0 014.5 9.3z"/><path d="M1434.174 451.592l-3.1 3.2a27.1 27.1 0 00-.7-6.6 32.5 32.5 0 013.8 3.4z" fill="#edb248" fill-rule="evenodd"/><path class="prefix__m" d="M1350.075 429.292a63.26 63.26 0 00-37.2 0q-.5-2.6-.8-5.2c24.3-5.7 38 5.2 38 5.2zM1311.275 391.192q.3-3.15.6-6c25.8-.6 39.2 11.9 39.2 11.9-15.5-8.4-31.9-7.2-39.8-5.9zM1321.474 357.292l3.4-3.7c27.5 0 34.9 12.8 34.9 12.8a60.7 60.7 0 00-38.3-9.1z"/><path class="prefix__m" d="M1311.678 387.292a162.492 162.492 0 013-18.4l2-1.2c8.8-5.7 47.3-29.1 58.7-35.8a22.8 22.8 0 01.1 5.2c-12 16.3-38.7 44.5-63.8 50.2z"/></g><g><path class="prefix__j" d="M1399.17 454.392c-4-6-11-8.3-15.9-7.6-17.7 2.3-12.1 23.2-7.8 35.5 3.3 9.7 5 21.8 5 27.4 0 12.1-4.6 15.8 1 20.5s18.9 10 30.8 8.6c9.8-2.2 10.1-22.4-5.6-27.5-4.3-9.4-4.1-19-3.8-29.1.2-6.8.8-21.1-3.7-27.8"/><path class="prefix__k" d="M1402.874 538.592l-4.1-.8a18 18 0 00-4.9-16.3c6.4 3.7 8.5 9.9 9 17.1zM1412.374 538.692c1.2-6.1 0-13.1-4.7-18.2 6 3.4 8.2 9 8.9 15.6a8 8 0 01-4.2 2.6z"/></g><g><path class="prefix__k" d="M1403.275 428.792s2 11.7-5.9 15.6-14.9 3.4-19.1-1.5c-5.7-6.8-14.1-20.9 8.7-34.6 14.1-8.5 14.8 20.3 14.8 20.3zM1401.375 372.792c-3 6.4-5.7 11.4-5.8 11.9s-18.4-22.8-15-26.6 17.9 9.7 20.8 14.7z"/><path class="prefix__j" d="M1383.475 339.392c-19.8 19.1 21.3 44.3 21.3 44.3-4.5 2.8-10.1 12.5-14.4 19.5s-5.9 5.9-11.1 11.8 9.6 14.6 9.6 14.6 49.4-26.6 49.2-43.7c0-2.1-11.5-21.1-23.1-32.9-5.7-6-22.1-22.7-31.5-13.6z"/><path class="prefix__j" d="M1402.575 420.092s3.7 18.2-7.2 23.5c0 0-8.8.6-13.3-2.6 0 0-11.1-17.1-2.8-26s23.3 5.1 23.3 5.1z"/><path class="prefix__k" d="M1402.875 421.392s-14.3 7.7-16.8 8.4a13.4 13.4 0 007.3-1.1s3.7 7-.6 11.3c0 0 6.6-1.2 4.2-12.1l6-6.2z"/></g><g><path class="prefix__j" d="M1389.975 283.592s-7.4-43.8-25.6-44.6c-12-.5-18 14.7-18 14.7s-9.7-.6-20.7 6.1c0 0-3.3-6-9-4.1s-11.8 14.6-9.6 35.5a18.1 18.1 0 00-13 8.9s2.5 3.7 6.2 4 20-5.6 24.4-1.7 6.4 6.8 5.8 13.9c0 0 17.9-1.7 25.9-11.9s15-30 33.6-20.8z"/><path class="prefix__o" d="M1328.174 286.692s-4.5-14.7-13.1-18.8a158.8 158.8 0 01-2.3 21.3 128.8 128.8 0 0115.4-2.5zM1367.075 256.592s-11.1 5.3-18.3 28.2c0 0 17.4-2.8 25.1-2.2-.1 0-7.2-13.1-6.8-26z"/><path class="prefix__k" d="M1362.475 266.792c-2.7 0-4.9 3-4.9 6.7s2.2 6.7 4.9 6.7 4.9-3 4.9-6.7-2.2-6.7-4.9-6.7M1321.178 284.592c-2.1 0-3.8-2.3-3.8-5.1s1.7-5.1 3.8-5.1l1.2.3a13.6 13.6 0 012.6 4.5v.4c.1 2.8-1.7 5-3.8 5z"/><path class="prefix__l" d="M1307.975 331.392s-14.2-.2-19.1-1.5-16.6-3.3-15.5-18.7c.8-11.4 15.8-16.4 26.8-8.4 9-2 19-8 28 1 6.4 6.4 2.7 12.5 2.7 12.5s18.7-3 25.2-12.5 14.8-22.3 24-23.2c4.8-.5 12.9-1.2 17.6 8s7.1 25.8-27.8 52-50.2 33.3-57.8 33.3c-9.7 0-10.3-3.6-21.4-5.2-5.7-.8-10-10.5-3.8-18.8s21.1-18.5 21.1-18.5z"/><path d="M1369.575 295.192s7.5-8.7 14.8-1.6 1.6 15.6 1.6 15.6-.4-8.5-4.4-7.9c0 0-3.3 21.1-34.1 42.1s-39.4 19.2-46.1 17.4-14.4-5.2-11.8-10.6 18.4-18.8 18.4-18.8 7.1 5.3 20.5.6 35.3-19 46.8-35.1c0 0-.6-3.9-5.2-1.7" fill="#f68b51" fill-rule="evenodd"/><path d="M1339.075 322.692l-.7.3z" fill="#c56428" fill-rule="evenodd"/><path d="M1309.975 332.392c3 1.3 9.2 2.8 18.5-.5 6.8-2.4 15.9-7.3 24.6-13.6a52.1 52.1 0 0120.1.6c-5.1 7.2-13.1 15.8-25.7 24.4-30.8 21.1-39.4 19.2-46.1 17.4a37.9 37.9 0 01-6.8-2.4c1.8-15.9 11.8-23 15.4-25.9z" fill="#f26a23" fill-rule="evenodd"/><path class="prefix__m" d="M1318.075 309.992c-3.1-1-5.5 3.2-1.4 5.1.6 1.6-.4 3.3-2.9 3.9 8 1.7 8.3-7.5 4.3-8.9M1282.675 308.692c2.6-.8 4.6 2.6 1.2 4.2-.5 1.3.3 2.7 2.4 3.2-6.6 1.4-6.9-6.2-3.5-7.4"/><path class="prefix__s" d="M1319.075 345.192c-5 1.5-8.5-9.6-9.5-13 2.1 1 6.4 2.3 12.6 1.3-.4 1.3-.9 2.6-1.1 3.6-.9 3.1 0 7.6-2 8.1zM1288.975 329.892l3 .5-1.3 2.6c-1.3 2.9-1.2 7.4-3.3 7.7-5.1.6-6.8-10.4-7.2-14.2 3 2.1 6.6 2.8 8.8 3.4z"/></g></g></g></g></svg>