<svg width="21" height="17" viewBox="0 0 21 17" fill="none" xmlns="http://www.w3.org/2000/svg">
<path d="M20.23 1.924C19.494 2.25 18.703 2.471 17.873 2.57C18.72 2.062 19.371 1.258 19.677 0.3C18.884 0.77 18.006 1.112 17.071 1.296C16.324 0.498 15.257 0 14.077 0C11.811 0 9.97398 1.837 9.97398 4.103C9.97398 4.425 10.01 4.738 10.08 5.038C6.66998 4.867 3.64698 3.234 1.62298 0.751C1.26998 1.357 1.06698 2.062 1.06698 2.814C1.06698 4.238 1.79098 5.493 2.89198 6.229C2.21898 6.208 1.58698 6.023 1.03298 5.716C1.03298 5.733 1.03298 5.75 1.03298 5.768C1.03298 7.756 2.44698 9.415 4.32498 9.791C3.98098 9.885 3.61798 9.935 3.24398 9.935C2.97998 9.935 2.72298 9.909 2.47198 9.861C2.99398 11.491 4.50998 12.677 6.30498 12.711C4.90098 13.811 3.13098 14.467 1.20898 14.467C0.877981 14.467 0.55098 14.448 0.22998 14.41C2.04598 15.574 4.20298 16.253 6.51998 16.253C14.067 16.253 18.195 10.001 18.195 4.578C18.195 4.4 18.191 4.223 18.183 4.047C18.985 3.47 19.68 2.747 20.23 1.924Z" fill="black"/>
</svg>
