<svg fill="none" height="16" viewBox="0 0 18 16" width="18" xmlns="http://www.w3.org/2000/svg"><path clip-rule="evenodd" d="m12.2372 2.49024h5.4026c.2021 0 .3602.15618.3602.35575v12.79831c0 .1995-.1581.3557-.3602.3557h-17.279624c-.20205 0-.360176-.1562-.360176-.3557v-12.79831c0-.19957.158126-.35575.360176-.35575h5.402634v-2.134492c0-.199566.15813-.355748.36018-.355748h5.76281c.202 0 .3602.156182.3602.355748h-.0088zm-1.4407-1.06725h-3.60177v1.06725h3.60177zm5.7628 13.15401h-15.1186v-3.2017h4.68229v1.0672c0 .1996.15812.3558.36017.3558h5.03364c.2021 0 .3602-.1562.3602-.3558v-1.0672h4.6823zm-8.99561-4.62472v1.42302h2.88141v-1.42302zm9.00441 0h-4.6823v-1.05857c0-.19957-.1581-.35575-.3602-.35575h-5.04244c-.20205 0-.36017.15618-.36017.35575v1.06724h-4.68229v-6.04772h15.1274z" fill="#000" fill-rule="evenodd"/></svg>