<svg width="16" height="18" viewBox="0 0 16 18" fill="none" xmlns="http://www.w3.org/2000/svg">
<path fill-rule="evenodd" clip-rule="evenodd" d="M14.9 0.95C14.3 0.35 13.4 0.35 12.8 0.95L5.6 8.15C5.24083 8.06021 4.96229 8.13166 4.61959 8.21958C4.58063 8.22958 4.54083 8.23979 4.5 8.25C4 8.45 3 8.95 2.6 10.45C2.24715 11.9496 1.89431 12.5154 1.6101 12.9712L1.61007 12.9713C1.5721 13.0321 1.53535 13.0911 1.5 13.15C1.45 13.2 1.4 13.275 1.35 13.35C1.3 13.425 1.25 13.5 1.2 13.55L0.6 14.65H2C4 14.65 5.4 14.25 6.7 13.25C7.5 12.65 7.9 11.85 8 10.95C8 10.65 8 10.45 7.9 10.25L15 3.15C15.5 2.55 15.5 1.55 14.9 0.95ZM0 17.45H8V15.95H0V17.45ZM3.3 13.15C4.2 12.95 5 12.65 5.7 12.15C6.3 11.75 6.4 11.15 6.4 10.85C6.5 10.55 6.4 10.25 6.2 10.05C5.9 9.85 5.4 9.65 4.9 9.75C4.5 9.85 4.3 10.25 4.1 10.85C3.83183 11.8333 3.56366 12.4969 3.36692 12.9838C3.34357 13.0416 3.32122 13.0969 3.3 13.15Z" fill="white"/>
</svg>
