<svg fill="none" height="18" viewBox="0 0 16 18" width="16" xmlns="http://www.w3.org/2000/svg"><path clip-rule="evenodd" d="m14.9.95c-.6-.6-1.5-.6-2.1 0l-7.2 7.2c-.35917-.08979-.63771-.01834-.98041.06958-.03896.01-.07876.02021-.11959.03042-.5.2-1.5.7-1.9 2.2-.35285 1.4996-.70569 2.0654-.9899 2.5212l-.00003.0001c-.03797.0608-.07472.1198-.11007.1787-.05.05-.1.125-.15.2s-.1.15-.15.2l-.6 1.1h1.4c2 0 3.4-.4 4.7-1.4.8-.6 1.2-1.4 1.3-2.3 0-.3 0-.5-.1-.7l7.1-7.1c.5-.6.5-1.6-.1-2.2zm-14.9 16.5h8v-1.5h-8zm3.3-4.3c.9-.2 1.7-.5 2.4-1 .6-.4.7-1 .7-1.3.1-.3 0-.6-.2-.8-.3-.2-.8-.4-1.3-.3-.4.1-.6.5-.8 1.1-.26817.9833-.53634 1.6469-.73308 2.1338-.02335.0578-.0457.1131-.06692.1662z" fill="#fff" fill-rule="evenodd"/></svg>