<svg fill="none" height="24" viewBox="0 0 22 24" width="22" xmlns="http://www.w3.org/2000/svg"><path clip-rule="evenodd" d="m20.6025 1.15931c-.8284-.829886-2.071-.829886-2.8994 0l-9.94067 9.95859c-.49588-.1242-.88045-.0254-1.3536.0962l-.0002.0001c-.05373.0138-.1086.0279-.16491.042-.69033.2766-2.07098.9682-2.62324 3.0429-.48715 2.0742-.97431 2.8568-1.3667 3.4872l-.00006.0001c-.05242.0842-.10314.1657-.15195.2472-.06903.0691-.13806.1729-.2071.2766-.06903.1037-.13806.2075-.2071.2766l-.828385 1.5215h1.932905c2.7613 0 4.69421-.5533 6.48905-1.9364 1.10456-.8299 1.65676-1.9364 1.79486-3.1812 0-.415 0-.6916-.1381-.9682l9.8026-9.82029c.6904-.82988.6904-2.21302-.138-3.0429zm-20.5717249 22.82179h11.0452249v-2.0747h-11.0452249zm4.5561649-5.9474c1.24258-.2766 2.3471-.6916 3.31355-1.3831.82839-.5533.96646-1.3832.96646-1.7981.13806-.415 0-.8299-.27613-1.1065-.4142-.2767-1.10452-.5533-1.79485-.415-.55225.1383-.82838.6916-1.10451 1.5215-.37025 1.36-.7405 2.2779-1.01213 2.9514-.03224.0799-.06309.1564-.09239.2298z" fill="#fff" fill-rule="evenodd"/></svg>