<svg fill="none" height="20" viewBox="0 0 25 20" width="25" xmlns="http://www.w3.org/2000/svg"><g stroke="#fff" stroke-linecap="round" stroke-linejoin="round"><g stroke-width="1.2"><path d="m6.47089 13.4962h-2.50832c-.09515 0-.1865-.0039-.27785-.0154-1.78514-.1838-2.729086-2.2444-1.85365-3.81866l3.00694-5.39674c.95157-1.70827 2.74812-2.7654 4.69692-2.7654h5.93017c1.9488 0 3.7453 1.05713 4.6969 2.76923l3.0069 5.39675c.8755 1.57422-.0685 3.63482-1.8536 3.81872-.0914.0076-.1865.0153-.2779.0153h-2.5045"/><path d="m18.5 10.5v4.764c0 1.7855-1.3447 3.236-3 3.236-1.6553 0-3-1.9612-3-1.9612s-1.3447 1.9612-3 1.9612c-1.6553 0-3-1.4505-3-3.236v-4.764"/><path clip-rule="evenodd" d="m12.5 10.5183s-2-.3154-2 1.7087c0 .5482 2 1.273 2 1.273s2-.7248 2-1.273c0-2.0279-2-1.7087-2-1.7087z" fill-rule="evenodd"/></g><path clip-rule="evenodd" d="m9.1305 8c0 .27922-.14329.5-.31525.5-.17195 0-.31525-.22727-.31525-.5s.1433-.5.31525-.5c.17196 0 .31525.22727.31525.5z" fill-rule="evenodd" stroke-width="2"/><ellipse cx="16.1847" cy="8" rx=".315251" ry=".5" stroke-width="2"/></g></svg>