<svg fill="none" height="16" viewBox="0 0 24 16" width="24" xmlns="http://www.w3.org/2000/svg"><g fill="#fff"><path clip-rule="evenodd" d="m22.1789 2.97783-1.0293-.03909v-.72707c0-.35572-.2396-.67625-.5814-.78179-2.9307-.899067-6.1089-.36745-8.5682 1.40332-2.45929-1.76686-5.6375-2.298478-8.56821-1.39941-.34572.10554-.58143.42216-.58143.78179v.72707l-1.01357.03909c-.45965 0-.83679.36744-.83679.81697v10.46429c0 .2658.13357.5199.3575.6724.14143.0977.30643.1446.47143.1446.09428 0 .18857-.0156.27893-.0469 2.76964-.9694 6.85535-1.3955 9.73504-.1642l.1571.0665.1571-.0665c2.8797-1.2352 6.9654-.8091 9.7311.1603.2514.0899.5343.0547.7543-.0938.2239-.1525.3575-.4027.3575-.6724v-10.4682c0-.44953-.3732-.81697-.8211-.81697zm-1.8425-.81698s.0354.02737.0354.05082v10.07343c0 .0234-.0157.0391-.0589.0508-2.6911-.7466-5.6022-.2893-7.92 1.2079v-10.04217c2.2707-1.66913 5.225-2.16948 7.9435-1.33687zm-16.6689 0c-.01964.00391-.03536.02737-.03536.05082l.00393.00391v10.07342c0 .0207.01227.0323.02054.0401l.00303.0029c.85643-.2345 1.73643-.3479 2.60857-.3479 1.88965 0 3.75569.5355 5.34289 1.5597v-10.04608c-2.27074-1.66913-5.22503-2.16948-7.9436-1.33687zm-1.82286 12.14905h-.03928s-.02357-.0234-.02357-.0508v-10.4643c0-.03127.02357-.05472.07071-.05472l.99786-.03909v8.58411c0 .258.12178.4964.33393.6528.20821.1524.47142.2033.71892.1329 2.035-.5629 4.2075-.3792 6.10109.473-2.7343-.4769-5.87716-.0391-8.15966.7622zm20.34996-.0039c.0118-.0078.0236-.0234.0236-.0469v-10.46039c0-.03127-.0236-.05472-.055-.05472l-1.0136-.03909v8.5841c0 .258-.1217.4964-.3339.6528-.2082.1524-.4675.2033-.7189.1329-2.035-.5629-4.2075-.3792-6.1011.473 2.7343-.4769 5.8772-.0352 8.1597.7583z" fill-rule="evenodd"/><path d="m21.1496 2.93874h-.1v.09627l.0962.00366zm1.0293.03909-.0038.1h.0038zm-1.6107-1.54795.0295-.09555-.0002-.00006zm-8.5682 1.40332-.0583.08121.0584.04197.0583-.04203zm-8.56821-1.39941.02919.09564.00013-.00004zm-.58143 1.50886.00385.09992.09615-.0037v-.09622zm-1.01357.03909v.10007l.00385-.00015zm-.47929 11.95366.05685-.0823-.00057-.0004zm.75036.0977.0327.0945.00033-.0001zm9.73504-.1642-.0394.092.0004.0001zm.1571.0665-.0389.0921.0389.0164.0389-.0164zm.1571-.0665.039.0921.0005-.0002zm9.7311.1603.0337-.0942-.0006-.0002zm.7543-.0938.056.0828.0003-.0002zm-2.3061-12.77455.0612-.07908-.1612-.12476v.20384zm-.0235 10.17505-.0268.0964.0265.0073.0265-.0072zm-7.92 1.2079h-.1v.1836l.1542-.0996zm0-10.04217-.0593-.08057-.0407.02997v.0506zm7.9435-1.33687-.0293.09562.1293.03959v-.13521zm-16.70426.04691h-.1v.04157l.02947.02932zm.03536-.05082.01962.09858.00966-.00296zm-.03143.05473h.1v-.04157l-.02947-.02932zm.02054 10.11352.06921-.0722-.0006-.0006zm.00303.0029-.0692.0722.04093.0392.05469-.015zm7.95146 1.2118-.0542.084.1542.0995v-.1835zm0-10.04608h.1v-.0506l-.0408-.02997zm-9.80574 10.81218-.07054.0709.02926.0291h.04128zm.03928 0v.1h.1v-.1zm.00786-10.56982v.10007l.00391-.00015zm.99786-.03909h.1v-.104l-.10392.00407zm.33393 9.23691-.05934.0805.00026.0002zm.71892.1329-.02666-.0964-.00068.0002zm6.10109.473-.0172.0985.0582-.1897zm-8.15966.7622-.03312-.0943-.06688.0234v.0709zm20.34996 0v.1h.0302l.0251-.0166zm-.0314-10.56201-.0038.1h.0038zm-1.0136-.03909.0039-.09993-.1039-.004v.10393zm-.3339 9.2369.0591.0807.0002-.0002zm-.7189.1329.0269-.0963-.0003-.0001zm-6.1011.473-.041-.0912.0582.1897zm8.1597.7583-.0329.0945.016.0055h.0169zm-1.0096-11.26733 1.0293.03909.0076-.19986-1.0293-.03909zm-.0962-.827v.72707h.2v-.72707zm-.5109-.68625c.3006.09283.5109.37515.5109.68625h.2c0-.40033-.2689-.75908-.6519-.87734zm-8.4803 1.38893c2.4339-1.75249 5.5797-2.278758 8.4805-1.38887l.0586-.19121c-2.9606-.908236-6.1713-.37126-8.6559 1.41777zm-8.59729-1.38496c2.90081-.889891 6.0466-.36363 8.48059 1.38502l.1166-.16243c-2.48458-1.785057-5.69522-2.322035-8.65584-1.4138zm-.51075.68619c0-.31525.2066-.59334.51062-.68615l-.05839-.19129c-.38741.11827-.65223.47344-.65223.87744zm0 .72707v-.72707h-.2v.72707zm-1.10972.13901 1.01357-.03909-.00771-.19985-1.01357.03909zm-.74064.71705c0-.392.33004-.71697.73679-.71697v-.2c-.51254 0-.93679.40991-.93679.91697zm0 10.46429v-10.46429h-.2v10.46429zm.31378.5897c-.19669-.1339-.31378-.3571-.31378-.5897h-.2c0 .2991.15005.584.40122.755zm.41515.1273c-.14611 0-.29099-.0415-.41458-.1269l-.1137.1645c.15927.1101.34439.1624.52828.1624zm.24622-.0414c-.07976.0276-.16299.0414-.24622.0414v.2c.10534 0 .21068-.0175.31163-.0524zm9.80705-.1616c-1.4581-.6235-3.21571-.8254-4.95236-.7512-1.73741.0742-3.46094.425-4.85502.9129l.06607.1888c1.37557-.4815 3.07972-.8285 4.79748-.9019 1.71853-.0734 3.44363.1274 4.86513.7353zm.1567.0663-.1571-.0665-.0779.1842.1572.0665zm.0793-.0665-.1571.0665.0778.1842.1572-.0665zm9.8031.158c-1.3921-.488-3.1147-.8387-4.8517-.9124-1.7361-.0737-3.4937.1291-4.9519.7546l.0789.1838c1.4215-.6097 3.1465-.8115 4.8646-.7386 1.7172.0729 3.4204.4199 4.7939.9014zm.6652-.0823c-.1934.1306-.4429.1618-.6646.0825l-.0674.1883c.2812.1006.5974.0614.844-.1051zm.3135-.5895c0 .2363-.1169.4557-.3138.5897l.1126.1653c.2509-.1708.4012-.4518.4012-.755zm0-10.4682v10.4682h.2v-10.4682zm-.7211-.71697c.3934 0 .7211.32345.7211.71697h.2c0-.50554-.4188-.91697-.9211-.91697zm-1.7071-.86616c0-.02992-.0108-.05349-.0185-.06705-.0082-.01449-.0177-.02617-.025-.03423-.0076-.00839-.0149-.01518-.0201-.0198-.0027-.00237-.005-.00432-.0068-.00579-.0009-.00074-.0017-.00137-.0023-.00187-.0003-.00025-.0006-.00048-.0008-.00067-.0002-.0001-.0003-.00019-.0004-.00027 0-.00004-.0001-.00008-.0001-.00011-.0001-.00002-.0001-.00004-.0001-.00006 0-.00001 0-.00002 0-.00002-.0001-.00002-.0001-.00003-.0613.07905-.0612.07909-.0612.07907-.0612.07906 0 0 0-.00001 0-.00002-.0001-.00002-.0001-.00003-.0001-.00005 0-.00003-.0001-.00006-.0001-.00008-.0001-.00006-.0001-.00011-.0002-.00015-.0001-.00009-.0002-.00016-.0003-.0002-.0001-.0001-.0001-.00011 0-.00006.0001.00012.0006.00049.0012.00105.0014.00125.003.00276.0042.00415.0016.00171.0009.00127-.0007-.0015-.001-.00184-.0074-.01319-.0074-.03138zm0 10.07343v-10.07343h-.2v10.07343zm-.1327.1473c.0269-.0073.0594-.0192.0859-.0428.032-.0285.0468-.066.0468-.1045h-.2c0-.0055.001-.0141.0051-.0237.0043-.0097.0101-.0167.0151-.0212.0046-.004.0076-.0052.0064-.0047-.0011.0005-.0046.002-.0117.0039zm-7.892 1.1954c2.294-1.4818 5.1756-1.9345 7.839-1.1955l.0535-.1928c-2.7188-.7543-5.6593-.2923-8.001 1.2203zm-.1542-10.12617v10.04217h.2v-10.04217zm8.0728-1.43248c-2.7486-.84181-5.7357-.33606-8.0321 1.35191l.1185.16114c2.2451-1.65029 5.1665-2.14523 7.855-1.32182zm-.1293.0917v.00391h.2v-.00391zm-16.50426.05082c0 .00971-.00291.01756-.00729.02392-.00389.00567-.01527.01885-.03783.02334l-.03904-.19615c-.0422.0084-.07126.03525-.08792.05949-.01715.02493-.02792.05623-.02792.0894zm-.02554-.06698-.00392-.00391-.14107.14178.00393.00391zm.02947 10.14431v-10.07342h-.2v10.07342zm-.01085-.0327c-.00469-.0044-.00102-.0015.00244.004.00205.0032.00429.0076.00596.013.00169.0054.00245.0108.00245.0157h-.2c0 .067.04336.1048.05193.1128zm.00363.0035-.00303-.0029-.13841.1444.00303.0029zm2.53936-.3757c-.88076 0-1.76966.1145-2.63498.3514l.05283.1929c.84754-.2321 1.71864-.3443 2.58215-.3443zm5.39709 1.5756c-1.6037-1.0348-3.48872-1.5756-5.39709-1.5756v.2c1.87093 0 3.71809.5303 5.28869 1.5437zm-.1542-9.96198v10.04608h.2v-10.04608zm-7.81432-1.24125c2.68854-.82341 5.60998-.32847 7.85502 1.32183l.1185-.16115c-2.29634-1.68797-5.28348-2.19372-8.03208-1.35191zm-1.89142 12.15343h.03928v-.2h-.03928zm-.12357-.1508c0 .041.0169.0728.02735.0893.00584.0092.01161.0166.01602.0218.00224.0027.00424.0049.00587.0067.00082.0009.00156.0016.00219.0023.00032.0003.00061.0006.00088.0009.00013.0001.00026.0003.00038.0004.00006 0 .00012.0001.00018.0002h.00008c.00002.0001.00004.0001.00004.0001.00002 0 .00004 0 .07058-.0709.07053-.0709.07055-.0708.07057-.0708h.00004c.00003.0001.00005.0001.00008.0001.00005.0001.0001.0001.00015.0002.0001.0001.00019.0001.00028.0002.00018.0002.00034.0004.00048.0005.00029.0003.00052.0006.0007.0008.00034.0003.0005.0005.00053.0006.00003 0-.00001 0-.00008-.0001s-.00011-.0002-.00011-.0002c.00001 0 .00004.0001.00009.0001.00005.0001.00014.0003.00025.0005.00021.0004.00061.0012.00105.0025.00083.0022.0024.0074.0024.0148zm0-10.4643v10.4643h.2v-10.4643zm.17071-.15472c-.03915 0-.08197.00972-.11687.03865-.03682.03054-.05384.07356-.05384.11607h.2c0 .00484-.00095.01158-.00428.01904-.0034.00763-.00847.01409-.01422.01885-.01132.00939-.01879.00739-.01079.00739zm.99394-.03902-.99785.03909.00782.19985.99786-.03909zm.10392 8.68404v-8.58411h-.2v8.58411zm.29326.5723c-.18716-.138-.29326-.3468-.29326-.5723h-.2c0 .2905.13746.5585.3746.7333zm.63225.1172c-.21679.0616-.44828.0175-.63251-.1174l-.11815.1614c.2322.17.52714.2275.80535.1484zm6.16943.478c-1.91447-.8616-4.1109-1.0474-6.16875-.4782l.05332.1928c2.01216-.5566 4.16073-.375 6.03338.4678zm-8.16753.9478c2.26953-.7968 5.39492-1.2315 8.10933-.7581l.0344-.197c-2.75419-.4804-5.91451-.0395-8.20998.7664zm.06687-.0905v-.0039h-.2v.0039zm20.17356-.0508c0-.0056.0016-.0128.0056-.0199.0037-.0066.009-.0122.0156-.0165l.1105.1667c.0369-.0245.0683-.0701.0683-.1303zm0-10.46039v10.46039h.2v-10.46039zm.045.04528c-.0098 0-.0217-.00397-.0312-.01348-.0096-.00953-.0138-.0216-.0138-.0318h.2c0-.08697-.0688-.15472-.155-.15472zm-1.0174-.03917 1.0136.03909.0077-.19985-1.0136-.03909zm.1038 8.48418v-8.5841h-.2v8.5841zm-.3746.7333c.2372-.1748.3746-.4428.3746-.7333h-.2c0 .2255-.1061.4344-.2932.5723zm-.8052.1487c.2819.0789.5727.0215.805-.1485l-.1182-.1614c-.1841.1349-.4119.1791-.6329.1173zm-6.033.4679c1.8726-.8428 4.0212-1.0244 6.0333-.4678l.0533-.1928c-2.0578-.5692-4.2542-.3834-6.1687.4782zm8.1514.5727c-2.2952-.798-5.4554-1.2428-8.2097-.7624l.0344.197c2.7143-.4734 5.8398-.0348 8.1096.7543zm.0064-.0056h-.0392v.2h.0392z"/></g></svg>