<svg fill="none" height="24" viewBox="0 0 24 24" width="24" xmlns="http://www.w3.org/2000/svg" xmlns:xlink="http://www.w3.org/1999/xlink"><mask id="a" fill="#000" height="25" maskUnits="userSpaceOnUse" width="24" x="0" y="-.5"><path d="m0-.5h24v25h-24z" fill="#fff"/><path clip-rule="evenodd" d="m23 7.72446c0 2.00355-.7247 3.70364-1.6414 4.99524-.9206 1.2955-2.0174 2.1864-2.844 2.6105-.239.1206-.4544.2062-.662.249-.1293.0233-.2664.035-.4153.035-.4309 0-.9715-.0895-1.5865-.2724-.4231-.1244-.8814-.3034-1.3476-.5252 0 .0492.003.0993.006.1489.0029.0486.0058.0967.0058.1429 0 2.451-.999 4.3767-2.2369 5.7422-1.2418 1.3695-2.70296 2.1942-3.72931 2.5093-.2938.0895-.55627.1401-.79131.1401s-.49359-.0506-.79131-.1401c-.29381-.0894-.62287-.2217-.97151-.3968-.6973-.3501-1.47685-.8675-2.21724-1.56-1.47293-1.385-2.77742-3.4936-2.77742-6.2947 0-.9025.1567-1.9646.45833-2.9995.30164-1.0348.74039-2.0463 1.32799-2.84385.05485-.07391.1332-.12449.21938-.14783 1.65313-.41627 3.27493-.62635 4.86147-.62635.57193 0 1.13212.03501 1.69622.08948-.1136-.58745-.17236-1.24882-.17236-1.94131 0-1.38887.23112-2.88667.78737-4.06546.0392-.0817.1058-.14784.1881-.18674 2.652-1.25271 5.3315-1.88684 8.0306-1.88684.4309 0 .8657.015562 1.2966.046685.0862.00778.1724.042794.2351.10115.7325.669145 1.3632 1.571715 1.8607 2.532645.4975.95704.8579 1.96854 1.0381 2.85166.1176.58356.1685 1.14766.1685 1.69232zm-18.01211 6.26354c.12928 0 .25855.035.41524.1284.15278.0895.32515.2412.50535.459.1371.1673.3839.1907.55235.0545.16844-.1362.19195-.3813.05484-.5485-.21937-.2685-.45442-.4824-.70905-.6342-.25463-.1517-.53276-.2373-.81873-.2373s-.5641.0856-.81873.2373c-.25463.1518-.48576.3657-.70905.6342-.1371.1672-.1136.4123.05485.5485.16844.1362.41524.1128.55235-.0545.1802-.2178.35256-.3657.50534-.459.15669-.0934.28989-.1284.41524-.1284zm5.53521-.7781c.286 0 .5642.0856.8188.2373.2546.1518.4857.3657.709.6342.1371.1672.1136.4123-.0548.5485-.1685.1362-.4153.1128-.5524-.0545-.1802-.2178-.3525-.3695-.5053-.459-.1567-.0934-.286-.1284-.4153-.1284-.1292 0-.2585.035-.4152.1284-.15277.0895-.32514.2412-.50534.459-.1371.1673-.3839.1907-.55235.0545-.16844-.1362-.19195-.3813-.05484-.5485.21937-.2685.45442-.4824.70905-.6342.25463-.1517.53278-.2373.81868-.2373zm-.0665 4.8941c.0665.1323.0548.2879-.0353.4046-.4035.5447-.82265.9687-1.26532 1.2605-.44266.2918-.91666.4552-1.3985.4552s-.95976-.1595-1.39851-.4552c-.44266-.2918-.86182-.7158-1.26531-1.2605-.08618-.1167-.10185-.2762-.03526-.4046.0666-.1322.20371-.2139.34865-.2139h4.70085c.1489 0 .2821.0817.3487.2139zm-4.20731.5641h3.01638c-.18412.1868-.36432.3385-.5406.4552-.34473.2257-.66204.3229-.96759.3229-.30947 0-.62286-.0972-.96759-.3229-.17629-.1167-.35649-.2684-.5406-.4552zm7.05521-6.3452c.282.9687.427 1.9724.427 2.7855l-.0039-.0039c0 2.556-1.1752 4.4506-2.5346 5.7306-.6777.638-1.4024 1.1165-2.02918 1.4316-.31339.1596-.6072.2763-.85007.3502-.24288.0739-.44658.105-.56019.105-.1136.0039-.31731-.0311-.56018-.105-.86183-.2646-2.24466-1.031-3.37678-2.2876-1.13604-1.2566-2.03704-2.9839-2.03704-5.2209 0-.8131.14494-1.8168.42699-2.7855.26247-.9181.65029-1.8051 1.12429-2.48207 1.54737-.38126 3.05947-.57189 4.53241-.57189 1.47293 0 2.91065.19063 4.31305.568.474.67696.8618 1.56786 1.1282 2.48596zm8.912-4.59844c0-.49408-.047-1.00372-.1567-1.53671-.1606-.79753-.5014-1.75067-.9636-2.64935-.4388-.852-.9951-1.64953-1.5944-2.22142-.3683-.02334-.7326-.0389-1.1008-.0389-2.5306 0-5.0495.58356-7.5684 1.75457-.4466 1.0115-.6581 2.35757-.6581 3.61028 0 .67304.0588 1.31495.1684 1.85961.0059.02918.0128.05835.0196.08753.0069.02918.0137.05836.0196.08753.7208.10505 1.4338.24899 2.1389.44351.0823.02334.1606.07392.2115.14394.5877.79755 1.0264 1.80905 1.328 2.84385.1724.603.2938 1.2099.3683 1.7935.5758.3112 1.1438.5447 1.6492.6964.5523.1673 1.0381.2373 1.3593.2373.1097 0 .1998-.0078.2625-.0195.0979-.0194.2625-.0778.4583-.175.1959-.0973.4192-.2373.6621-.4124.4818-.3501 1.0263-.8481 1.5317-1.4667 1.0146-1.241 1.8685-2.96446 1.8685-5.03415zm-7.5605-1.52114c.188.10115.2624.33457.1606.5252v.00389c-.192.35791-.4152.64969-.6855.85588-.2664.2062-.5916.32291-.9245.32291-.478-.00389-.9402-.22175-1.3868-.58745-.1684-.13617-.192-.38126-.0548-.54855.1371-.16728.3839-.19063.5523-.05446.3682.29956.6699.40849.8893.40849.1566-.00389.2898-.04669.4465-.1634.1528-.11671.3173-.31512.474-.60301.1019-.18674.3369-.26065.5289-.1595zm5.4295-1.07375c-.192-.10115-.427-.02724-.5289.1595-.1567.28789-.3212.4863-.474.60301-.1528.11672-.2899.15951-.4466.1634-.2193 0-.521-.10893-.8892-.40849-.1685-.13616-.4152-.11282-.5524.05446-.1371.16729-.1136.41239.0549.54855.4466.3657.9088.58356 1.3867.58745.333 0 .6582-.11671.9245-.32679.2703-.20619.4936-.49797.6856-.85589.1018-.19063.0274-.42405-.1606-.5252zm-3.0164 4.33c.4152 0 .8344.10893 1.2535.31513v.00389c.4192.20619.8384.50181 1.2654.89091.1567.1439.1684.389.0235.5485-.145.1556-.3918.1673-.5524.0234-.3878-.3502-.7521-.603-1.0851-.7664s-.6346-.2373-.9049-.2373c-.3682.0038-.6973.1283-1.0342.4123s-.666.7431-.9676 1.3811c-.0901.1945-.3251.2762-.521.1868-.1959-.0895-.2781-.3229-.188-.5175.3329-.7041.7168-1.2566 1.1673-1.6417.4505-.38516.9833-.59913 1.5435-.59913z" fill="#000" fill-rule="evenodd"/></mask><g fill="#000"><path clip-rule="evenodd" d="m23 7.72446c0 2.00355-.7247 3.70364-1.6414 4.99524-.9206 1.2955-2.0174 2.1864-2.844 2.6105-.239.1206-.4544.2062-.662.249-.1293.0233-.2664.035-.4153.035-.4309 0-.9715-.0895-1.5865-.2724-.4231-.1244-.8814-.3034-1.3476-.5252 0 .0492.003.0993.006.1489.0029.0486.0058.0967.0058.1429 0 2.451-.999 4.3767-2.2369 5.7422-1.2418 1.3695-2.70296 2.1942-3.72931 2.5093-.2938.0895-.55627.1401-.79131.1401s-.49359-.0506-.79131-.1401c-.29381-.0894-.62287-.2217-.97151-.3968-.6973-.3501-1.47685-.8675-2.21724-1.56-1.47293-1.385-2.77742-3.4936-2.77742-6.2947 0-.9025.1567-1.9646.45833-2.9995.30164-1.0348.74039-2.0463 1.32799-2.84385.05485-.07391.1332-.12449.21938-.14783 1.65313-.41627 3.27493-.62635 4.86147-.62635.57193 0 1.13212.03501 1.69622.08948-.1136-.58745-.17236-1.24882-.17236-1.94131 0-1.38887.23112-2.88667.78737-4.06546.0392-.0817.1058-.14784.1881-.18674 2.652-1.25271 5.3315-1.88684 8.0306-1.88684.4309 0 .8657.015562 1.2966.046685.0862.00778.1724.042794.2351.10115.7325.669145 1.3632 1.571715 1.8607 2.532645.4975.95704.8579 1.96854 1.0381 2.85166.1176.58356.1685 1.14766.1685 1.69232zm-18.01211 6.26354c.12928 0 .25855.035.41524.1284.15278.0895.32515.2412.50535.459.1371.1673.3839.1907.55235.0545.16844-.1362.19195-.3813.05484-.5485-.21937-.2685-.45442-.4824-.70905-.6342-.25463-.1517-.53276-.2373-.81873-.2373s-.5641.0856-.81873.2373c-.25463.1518-.48576.3657-.70905.6342-.1371.1672-.1136.4123.05485.5485.16844.1362.41524.1128.55235-.0545.1802-.2178.35256-.3657.50534-.459.15669-.0934.28989-.1284.41524-.1284zm5.53521-.7781c.286 0 .5642.0856.8188.2373.2546.1518.4857.3657.709.6342.1371.1672.1136.4123-.0548.5485-.1685.1362-.4153.1128-.5524-.0545-.1802-.2178-.3525-.3695-.5053-.459-.1567-.0934-.286-.1284-.4153-.1284-.1292 0-.2585.035-.4152.1284-.15277.0895-.32514.2412-.50534.459-.1371.1673-.3839.1907-.55235.0545-.16844-.1362-.19195-.3813-.05484-.5485.21937-.2685.45442-.4824.70905-.6342.25463-.1517.53278-.2373.81868-.2373zm-.0665 4.8941c.0665.1323.0548.2879-.0353.4046-.4035.5447-.82265.9687-1.26532 1.2605-.44266.2918-.91666.4552-1.3985.4552s-.95976-.1595-1.39851-.4552c-.44266-.2918-.86182-.7158-1.26531-1.2605-.08618-.1167-.10185-.2762-.03526-.4046.0666-.1322.20371-.2139.34865-.2139h4.70085c.1489 0 .2821.0817.3487.2139zm-4.20731.5641h3.01638c-.18412.1868-.36432.3385-.5406.4552-.34473.2257-.66204.3229-.96759.3229-.30947 0-.62286-.0972-.96759-.3229-.17629-.1167-.35649-.2684-.5406-.4552zm7.05521-6.3452c.282.9687.427 1.9724.427 2.7855l-.0039-.0039c0 2.556-1.1752 4.4506-2.5346 5.7306-.6777.638-1.4024 1.1165-2.02918 1.4316-.31339.1596-.6072.2763-.85007.3502-.24288.0739-.44658.105-.56019.105-.1136.0039-.31731-.0311-.56018-.105-.86183-.2646-2.24466-1.031-3.37678-2.2876-1.13604-1.2566-2.03704-2.9839-2.03704-5.2209 0-.8131.14494-1.8168.42699-2.7855.26247-.9181.65029-1.8051 1.12429-2.48207 1.54737-.38126 3.05947-.57189 4.53241-.57189 1.47293 0 2.91065.19063 4.31305.568.474.67696.8618 1.56786 1.1282 2.48596zm8.912-4.59844c0-.49408-.047-1.00372-.1567-1.53671-.1606-.79753-.5014-1.75067-.9636-2.64935-.4388-.852-.9951-1.64953-1.5944-2.22142-.3683-.02334-.7326-.0389-1.1008-.0389-2.5306 0-5.0495.58356-7.5684 1.75457-.4466 1.0115-.6581 2.35757-.6581 3.61028 0 .67304.0588 1.31495.1684 1.85961.0059.02918.0128.05835.0196.08753.0069.02918.0137.05836.0196.08753.7208.10505 1.4338.24899 2.1389.44351.0823.02334.1606.07392.2115.14394.5877.79755 1.0264 1.80905 1.328 2.84385.1724.603.2938 1.2099.3683 1.7935.5758.3112 1.1438.5447 1.6492.6964.5523.1673 1.0381.2373 1.3593.2373.1097 0 .1998-.0078.2625-.0195.0979-.0194.2625-.0778.4583-.175.1959-.0973.4192-.2373.6621-.4124.4818-.3501 1.0263-.8481 1.5317-1.4667 1.0146-1.241 1.8685-2.96446 1.8685-5.03415zm-7.5605-1.52114c.188.10115.2624.33457.1606.5252v.00389c-.192.35791-.4152.64969-.6855.85588-.2664.2062-.5916.32291-.9245.32291-.478-.00389-.9402-.22175-1.3868-.58745-.1684-.13617-.192-.38126-.0548-.54855.1371-.16728.3839-.19063.5523-.05446.3682.29956.6699.40849.8893.40849.1566-.00389.2898-.04669.4465-.1634.1528-.11671.3173-.31512.474-.60301.1019-.18674.3369-.26065.5289-.1595zm5.4295-1.07375c-.192-.10115-.427-.02724-.5289.1595-.1567.28789-.3212.4863-.474.60301-.1528.11672-.2899.15951-.4466.1634-.2193 0-.521-.10893-.8892-.40849-.1685-.13616-.4152-.11282-.5524.05446-.1371.16729-.1136.41239.0549.54855.4466.3657.9088.58356 1.3867.58745.333 0 .6582-.11671.9245-.32679.2703-.20619.4936-.49797.6856-.85589.1018-.19063.0274-.42405-.1606-.5252zm-3.0164 4.33c.4152 0 .8344.10893 1.2535.31513v.00389c.4192.20619.8384.50181 1.2654.89091.1567.1439.1684.389.0235.5485-.145.1556-.3918.1673-.5524.0234-.3878-.3502-.7521-.603-1.0851-.7664s-.6346-.2373-.9049-.2373c-.3682.0038-.6973.1283-1.0342.4123s-.666.7431-.9676 1.3811c-.0901.1945-.3251.2762-.521.1868-.1959-.0895-.2781-.3229-.188-.5175.3329-.7041.7168-1.2566 1.1673-1.6417.4505-.38516.9833-.59913 1.5435-.59913z" fill-rule="evenodd"/><path d="m21.3586 12.7197.163.1159.0001-.0001zm1.6414-4.99524h.2v-.2h-.2zm-4.4854 7.60574.0901.1785.0012-.0006zm-.662.249.0355.1968.0048-.001zm-2.0018-.2374.057-.1917-.0006-.0001zm-1.3476-.5252.0859-.1806-.2859-.136v.3166zm.006.1489.1996-.0119zm-2.2311 5.8851.1482.1344zm-3.72931 2.5093.05827.1914.00043-.0002zm-1.58262 0-.05827.1914.0007.0002zm-3.18875-1.9568-.137.1457.00038.0003zm-2.31909-9.2942.19201.056zm1.32799-2.84385-.16061-.11917-.0004.00054zm.21938-.14783-.04885-.19398-.00344.00093zm6.55769-.53687-.01922.19907.2664.02572-.05082-.26277zm.61501-6.00677-.18032-.08648-.00053.00113zm.1881-.18674-.0855-.18084v.00004zm9.3272-1.840155.018-.199222-.0036-.000259zm.2351.10115-.1363.146384.0014.001283zm1.8607 2.532645-.1776.09195.0002.0003zm1.0381 2.85166.1961-.03949-.0001-.0005zm.1685 1.69232h-.2v.2h.2zm-17.59297 6.39194-.10238.1718.00131.0008zm.50535.459.15468-.1267-.00057-.0007zm.55235.0545-.12573-.1555zm.05484-.5485-.15486.1265.00018.0002zm-.70905-.6342-.10237.1718zm-1.63746 0 .10238.1718zm-.70905.6342-.15376-.1279-.00092.0011zm.6072.494-.15412-.1274-.00057.0007zm.50534-.459-.10238-.1718-.00191.0011zm6.76925-.6692-.1024.1718zm.709.6342.1547-.1268-.0009-.0011zm-.0548.5485-.1257-.1555zm-.5524-.0545.1547-.1267-.0006-.0007zm-.5053-.459-.1024.1718.0013.0008zm-.8305 0 .1011.1726.0013-.0008zm-.50534.459-.15411-.1274-.00057.0007zm-.60719-.494.15468.1267.00018-.0002zm.70905-.6342.10237.1718zm.71688 5.0614-.1583-.1222-.0024.0032zm.0353-.4046-.1787.09zm-1.30062 1.6651-.11007-.167zm-2.79701 0 .11178-.1658-.00171-.0012zm-1.26531-1.2605-.16089.1188.00019.0003zm-.03526-.4046.17755.0921.00109-.0021zm4.20727.5641.14242.1404.33563-.3404h-.47805zm-3.01638 0v-.2h-.47806l.33564.3404zm2.47578.4552.10954.1673.00087-.0005zm-1.93518 0-.11041.1668.00087.0005zm6.94161-4.0149-.1409.1419.3409.3386v-.4805zm-.427-2.7855-.1921.0557.0001.0002zm.4231 2.7816.1409-.1419-.3409-.3385v.4804zm-2.5346 5.7306.1371.1456zm-2.02918 1.4316-.08984-.1786-.00088.0004zm-.85007.3502.05823.1913zm-.56019.105v-.2001l-.00684.0002zm-.56018-.105-.05869.1912.00046.0001zm-3.37678-2.2876.14858-.1338-.00023-.0003zm-1.61005-8.0064.19203.0559.00027-.0009zm1.12429-2.48207-.04785-.19419-.07291.01797-.04307.06151zm8.84546-.00389.1638-.11472-.0417-.05953-.0701-.01888zm9.8835-3.64919-.196.03949.0001.00083zm.1567 1.53671h-.2v.08325l.0591.05866zm-1.1203-4.18606.1778-.09148v-.00009zm-1.5944-2.22142.138-.1447-.0527-.05029-.0727-.00461zm-8.6692 1.71567-.0843-.18136-.0682.03172-.0304.06886zm-.4897 5.46989-.196.03948zm.0196.08753.1947-.04574zm.0196.08753-.196.03949.0278.13811.1394.02031zm2.1389.44351.0546-.19241-.0014-.00039zm.2115.14394-.1617.11764.0007.001zm1.328 2.84385.1923-.0549-.0002-.001zm.3683 1.7935-.1984.0253.013.1018.0903.0488zm1.6492.6964.058-.1914-.0005-.0002zm1.6218.2178.0366.1967.0024-.0005zm.4583-.175-.0889-.1792zm.6621-.4124.1169.1622.0006-.0004zm1.5317-1.4667-.1549-.1266v.0001zm1.8685-5.03415h.2v-.08325l-.059-.05866zm-7.4038-.99983-.1764-.09425-.0236.04417v.05008zm-.1606-.5252.0947-.17614-.0015-.0008zm.1606.52909.1762.09452.0238-.04428v-.05024zm-.6855.85588-.1213-.15901-.0012.00086zm-.9245.32291-.0017.2h.0017zm-1.3868-.58745.1267-.15474-.001-.0008zm-.0548-.54855-.1547-.12678zm.5523-.05446.1262-.15515-.0005-.00039zm.8893.40849v.20006l.0049-.00012zm.4465-.1634.1195.16041.0019-.00148zm.474-.60301-.1755-.09576-.0001.00015zm5.4295-1.07375-.1756-.09576v.00015zm.5289-.1595.0947-.17614-.0015-.0008zm-1.0029.76251-.1214-.15893zm-.4466.1634v.20006l.005-.00012zm-.8892-.40849.1262-.15515-.0005-.00039zm-.4975.60301.1267-.15474-.001-.0008zm1.3867.58745-.0016.2h.0016zm.9245-.32679-.1213-.15904-.0025.002zm.6856-.85589.1762.09452.0002-.00027zm-1.9235 4.11993h.2v-.12451l-.1117-.05496zm0 .00389h-.2v.1245l.1118.05496zm1.2654.89091.1353-.1473-.0006-.0006zm.0235.5485.1463.1364.0017-.0019zm-.5524.0234-.134.1484.0005.0005zm-1.99-1.0037v-.2001l-.0021.0001zm-1.0342.4123.1289.1529zm-.9676 1.3811-.1808-.0855-.0007.0015zm-.521.1868-.0831.1819zm-.188-.5175-.1808-.0855-.0007.0015zm7.1634 1.1351c.9354-1.318 1.6783-3.05774 1.6783-5.11104h-.4c0 1.9538-.7065 3.61424-1.6045 4.87954zm-2.9158 2.6726c.8582-.4402 1.9787-1.3538 2.9157-2.6725l-.326-.2317c-.9041 1.2723-1.9773 2.1405-2.7723 2.5483zm-.713.2669c.2317-.0477.4648-.1416.7118-.2663l-.1802-.3571c-.2309.1166-.4288.1938-.6123.2317zm-.4556.0392c.1594 0 .3085-.0125.4508-.0382l-.0711-.3937c-.1162.021-.2414.0319-.3797.0319zm-1.6435-.2806c.6268.1863 1.1874.2806 1.6435.2806v-.4c-.4057 0-.9263-.0847-1.5295-.2641zm-1.3765-.5363c.474.2254.9422.4085 1.377.5364l.1129-.3837c-.4113-.1211-.8597-.2959-1.3181-.514zm.2915-.0437c-.003-.0507-.0056-.0948-.0056-.137h-.4c0 .0562.0034.1123.0063.1608zm.0062.1548c0-.0532-.0033-.1074-.0062-.1548l-.3993.0238c.003.0498.0055.0919.0055.131zm-2.2887 5.8766c1.265-1.3955 2.2887-3.3674 2.2887-5.8766h-.4c0 2.3928-.9743 4.2723-2.185 5.6079zm-3.81881 2.5661c1.06203-.326 2.55371-1.1711 3.81881-2.5661l-.2963-.2687c-1.2186 1.3438-2.64923 2.1483-3.63991 2.4525zm-.85001.1489c.2623 0 .54576-.0562.84958-.1487l-.11654-.3827c-.28379.0865-.52526.1314-.73304.1314zm-.84888-.1485c.30672.0922.58631.1485.84888.1485v-.4c-.20752 0-.44502-.0448-.73375-.1316zm-1.00369-.4096c.35731.1794.6969.3161 1.00299.4094l.11654-.3827c-.28152-.0857-.60005-.2135-.94003-.3842zm-2.26411-1.5928c.75486.7061 1.55032 1.2343 2.26411 1.5928l.1795-.3575c-.6808-.3419-1.44445-.8484-2.17037-1.5274zm-2.8408-6.4407c0 2.8684 1.33709 5.0268 2.84042 6.4404l.27401-.2914c-1.44255-1.3564-2.71443-3.4152-2.71443-6.149zm.46632-3.0554c-.306277 1.0507-.46632 2.1317-.46632 3.0554h.4c0-.8814.15335-1.9246.45034-2.9435zm1.35899-2.90658c-.6059.82235-1.05321 1.85748-1.35899 2.90658l.38402.1119c.2975-1.0206.72768-2.0085 1.297-2.78121zm.3281-.22225c-.12662.0343-.24431.10932-.3277.22171l.32123.23834c.0263-.03544.0653-.06157.11104-.07396zm4.91376-.6333c-1.60432 0-3.24253.21244-4.91031.6324l.09767.38789c1.63849-.41258 3.24387-.62029 4.81264-.62029zm1.71544.0904c-.5685-.05489-1.13536-.0904-1.71544-.0904v.4c.56378 0 1.11729.03451 1.677.08855zm-.39158-1.74223c0 .70331.05963 1.37756.176 1.97928l.39272-.07595c-.11084-.57317-.16872-1.22166-.16872-1.90333zm.80652-4.15081c-.57306 1.21435-.80652 2.74413-.80652 4.15081h.4c0-1.37106.22878-2.83689.76827-3.98011zm.28345-.28219c-.1236.05844-.2238.15778-.28292.28107l.36072.17294c.0192-.0401.0522-.07304.0932-.09241zm8.1161-1.90604c-2.7314 0-5.44.641935-8.1161 1.906l.1709.36168c2.628-1.24135 5.2785-1.86768 7.9452-1.86768zm1.311.047204c-.4357-.031471-.8753-.047204-1.311-.047204v.4c.4261 0 .8561.01539 1.2822.046165zm.357.154253c-.099-.092137-.2285-.142684-.3534-.153962l-.036.39838c.0475.004283.0904.023763.1168.048337zm1.902 2.587073c-.5047-.97498-1.1485-1.8988-1.9034-2.588362l-.2698.295334c.7102.648728 1.3278 1.530048 1.818 2.476928zm1.0565 2.90362c-.1843-.90311-.5514-1.93212-1.0566-2.90392l-.3549.1845c.4898.94227.8435 1.93627 1.0196 2.79939zm.1725 1.73231c0-.55725-.0521-1.13461-.1724-1.73181l-.3921.07897c.1147.56993.1645 1.12078.1645 1.65284zm-.1961-.2h-.0039v.4h.0039zm-17.49449 6.42014c-.18201-.1085-.34625-.1566-.51762-.1566v.4c.08718 0 .18148.0219.31287.1002zm.55708.5034c-.18974-.2294-.37925-.3993-.55838-.5042l-.20215.3452c.12643.074.28165.2076.4523.4139zm.27251.0264c-.08447.0682-.20574.055-.27194-.0257l-.30937.2535c.20802.2538.58034.2873.83277.0832zm.02589-.2663c.06766.0826.05512.2008-.02589.2663l.25146.311c.25587-.2068.29034-.5788.08379-.8308zm-.65674-.5891c.23016.1372.44822.334.65656.5889l.30972-.2531c-.2304-.2819-.48244-.5131-.76153-.6794zm-.71636-.2091c.24521 0 .48837.0733.71636.2091l.20475-.3436c-.28127-.1676-.59438-.2655-.92111-.2655zm-.71635.2091c.22798-.1358.47114-.2091.71635-.2091v-.4c-.32672 0-.63983.0979-.92111.2655zm-.65767.5903c.21378-.257.42827-.4536.65767-.5903l-.20476-.3436c-.27986.1668-.52762.3982-.76042.6781zm.02682.2651c-.08102-.0655-.09356-.1837-.02589-.2663l-.30937-.2535c-.20655.252-.17208.624.0838.8308zm.27193-.0257c-.0662.0807-.18747.0939-.27193.0257l-.25146.311c.25243.2041.62475.1706.83276-.0832zm.55574-.503c-.17522.1071-.36379.2709-.55517.5023l.30823.2549c.16902-.2043.32518-.3362.45552-.4159zm.51953-.1577c-.16695 0-.33511.0478-.51762.1566l.20476.3436c.13088-.078.2291-.1002.31286-.1002zm6.45641-.5126c-.2813-.1676-.5944-.2655-.9212-.2655v.4c.2453 0 .4884.0733.7164.2091zm.7604.6781c-.2328-.2799-.4806-.5113-.7604-.6781l-.2048.3436c.2294.1367.4439.3333.6577.5903zm-.0829.8319c.2559-.2068.2904-.5788.0838-.8308l-.3094.2535c.0677.0826.0552.2008-.0258.2663zm-.8328-.0832c.2081.2538.5804.2873.8328.0832l-.2514-.311c-.0845.0682-.2058.055-.272-.0257zm-.4517-.4132c.1264.074.2817.2076.4523.4139l.3082-.2549c-.1897-.2294-.3792-.3993-.5583-.5042zm-.3142-.101c.0872 0 .1815.0219.3129.1002l.2048-.3436c-.182-.1085-.3463-.1566-.5177-.1566zm-.3128.1002c.1314-.0783.2257-.1002.3128-.1002v-.4c-.1713 0-.3356.0481-.5176.1566zm-.45362.4147c.17065-.2063.32592-.3399.45232-.4139l-.2022-.3452c-.1791.1049-.36861.2748-.55835.5042zm-.8322.0825c.25243.2041.62475.1706.83277-.0832l-.30937-.2535c-.0662.0807-.18747.0939-.27194.0257zm-.08379-.8308c-.20655.252-.17208.624.08379.8308l.25146-.311c-.08101-.0655-.09355-.1837-.02589-.2663zm.76135-.6792c-.27909.1663-.53113.3975-.76153.6794l.30972.2531c.20834-.2549.42639-.4517.65656-.5889zm.92106-.2655c-.3267 0-.63979.0979-.92106.2655l.20475.3436c.22801-.1358.47111-.2091.71631-.2091zm.0565 5.6209c.1394-.1805.1551-.419.0556-.6167l-.3573.1799c.0337.0668.0259.1395-.0149.1924zm-1.31355 1.3053c.46794-.3084.90325-.7514 1.31595-1.3084l-.3214-.2381c-.39432.5322-.7973.9374-1.21469 1.2125zm-1.50857.4882c.52831 0 1.03997-.1793 1.50857-.4882l-.22014-.334c-.41672.2747-.85307.4222-1.28843.4222zm-1.51027-.4893c.46697.3147.98319.4893 1.51027.4893v-.4c-.4366 0-.87622-.1444-1.28674-.421zm-1.31425-1.3073c.41266.557.84801 1 1.31595 1.3084l.22013-.334c-.41738-.2751-.82036-.6803-1.21467-1.2125zm-.05209-.6158c-.10334.1992-.07748.4403.0519.6155l.32178-.2376c-.04299-.0582-.04846-.1361-.01861-.1937zm.52618-.3218c-.21879 0-.42595.1227-.52728.324l.35727.1799c.03186-.0633.09892-.1039.17001-.1039zm4.70085 0h-4.70085v.4h4.70085zm.5273.324c-.1008-.2003-.3034-.324-.5273-.324v.4c.0739 0 .1377.0396.17.1039zm-1.36953.454h-3.01638v.4h3.01638zm-.43019.822c.1902-.126.38098-.2872.57261-.4816l-.28484-.2808c-.1766.1791-.34622.3214-.50859.4288zm-1.078.3561c.35145 0 .70622-.1128 1.07712-.3556l-.21906-.3346c-.31856.2085-.5984.2902-.85806.2902zm-1.07713-.3556c.37068.2427.72153.3556 1.07713.3556v-.4c-.26335 0-.53928-.0816-.85806-.2902zm-.57348-.4821c.19163.1944.38241.3556.57261.4816l.22081-.3336c-.16236-.1074-.33198-.2497-.50858-.4288zm7.82463-3.7001c0-.8341-.1483-1.8567-.435-2.8414l-.384.1118c.2774.9527.419 1.9376.419 2.7296zm-.3449.1381.004.0038.2818-.2838-.0039-.0039zm-2.2565 5.7342c1.3895-1.3083 2.5975-3.2526 2.5975-5.8762h-.4c0 2.4885-1.1425 4.3334-2.4717 5.585zm-2.07644 1.4647c.64304-.3233 1.38384-.8127 2.07644-1.4647l-.2742-.2912c-.6628.624-1.3714 1.0916-1.98192 1.3986zm-.88168.3628c.25516-.0776.55981-.1989.88256-.3632l-.18144-.3565c-.30404.1547-.58699.2669-.81759.337zm-.61842.1137c.14032 0 .36477-.0365.61842-.1137l-.11646-.3827c-.23211.0707-.41507.0964-.50196.0964zm-.61841-.1137c.24883.0757.47803.1186.62526.1136l-.01369-.3998c-.07998.0028-.25819-.0243-.49511-.0965zm-3.46714-2.345c1.15582 1.2829 2.56951 2.0695 3.46668 2.3449l.11738-.3824c-.82648-.2537-2.17846-.9999-3.28689-2.2302zm-2.08845-5.3548c0 2.2955.92589 4.0689 2.08868 5.3551l.29671-.2683c-1.10929-1.227-1.98539-2.9083-1.98539-5.0868zm.43497-2.8414c-.28671.9847-.43497 2.0073-.43497 2.8414h.4c0-.792.14163-1.7769.41902-2.7296zm1.15248-2.54088c-.49004.69978-.88599 1.60868-1.15275 2.54178l.38459.11c.25817-.9031.63785-1.7683 1.09582-2.42235zm4.69624-.65718c-1.4903 0-3.01848.19289-4.58026.5777l.0957.38836c1.53295-.37768 3.02899-.56606 4.48456-.56606zm4.36505.57487c-1.4195-.38195-2.87464-.57487-4.36505-.57487v.4c1.45546 0 2.87565.18834 4.26105.56116zm1.2683 2.62339c-.2705-.9324-.6664-1.845-1.1565-2.54498l-.3276.22944c.4578.65394.8376 1.52304 1.0999 2.42694zm8.3673-6.03913c.1069.51913.1526 1.01524.1526 1.49639h.4c0-.50701-.0482-1.03018-.1608-1.57702zm-.9456-2.59819c.4552.88488.789 1.82059.9455 2.59736l.3921-.07897c-.1648-.81829-.5125-1.78888-.9819-2.70135zm-1.5546-2.1682c.579.55248 1.123 1.33012 1.5546 2.16828l.3557-.18313c-.4459-.86583-1.0145-1.68325-1.6342-2.27455zm-.9627.0164c.3627 0 .7225.01533 1.0881.0385l.0253-.3992c-.3708-.02351-.7396-.0393-1.1134-.0393zm-7.4841 1.73593c2.4951-1.15993 4.9853-1.73593 7.4841-1.73593v-.4c-2.5625 0-5.11.59112-7.6527 1.77321zm-.5424 3.42892c0-1.23496.2092-2.55128.6411-3.52951l-.3659-.16155c-.4613 1.04478-.6752 2.42061-.6752 3.69106zm.1645 1.82012c-.1066-.52945-.1645-1.15788-.1645-1.82012h-.4c0 .68384.0596 1.33923.1724 1.89909zm.0182.08128c-.0069-.02971-.013-.05577-.0182-.08128l-.3921.07897c.0066.03285.0142.06515.0209.0938zm.021.09379c-.0066-.03284-.0142-.06515-.021-.09379l-.3894.09149c.007.02971.0131.05576.0183.08127zm1.996.29019c-.7141-.19699-1.4353-.34253-2.1632-.44861l-.0577.39581c.7136.104 1.4183.24635 2.1145.4384zm.3201.21911c-.0802-.11029-.1984-.18459-.3187-.21871l-.1092.3848c.0443.01256.0828.03942.1044.06917zm1.3583 2.90558c-.3058-1.0491-.7531-2.08423-1.359-2.90658l-.3221.23727c.5694.77271.9995 1.76061 1.297 2.78121zm.3746 1.8241c-.0757-.5932-.1991-1.21-.3744-1.8231l-.3846.1099c.1695.5929.289 1.1899.3622 1.7638zm1.5083.5301c-.4914-.1475-1.0469-.3755-1.6116-.6807l-.1902.3518c.587.3173 1.1675.5561 1.6868.712zm1.3018.2289c-.297 0-.7629-.0656-1.3013-.2287l-.116.3828c.5662.1715 1.0719.2459 1.4173.2459zm.2259-.0161c-.047.0088-.1241.0161-.2259.0161v.4c.1177 0 .2207-.0082.2991-.0228zm.406-.1576c-.1881.0934-.3348.1435-.4084.1581l.078.3923c.1223-.0243.3046-.091.5083-.1921zm.634-.3955c-.2376.1713-.4512.3048-.634.3955l.1779.3583c.2089-.1037.4419-.2504.69-.4293zm1.4938-1.4309c-.4946.6054-1.0266 1.0915-1.4944 1.4314l.2351.3236c.4959-.3604 1.0529-.8702 1.569-1.5019zm1.8234-4.90765c0 2.01278-.8304 3.69295-1.8234 4.90755l.3097.2532c1.0362-1.2674 1.9137-3.03415 1.9137-5.16075zm.0552.13802.0039.00389.2819-.28382-.0039-.00389zm-7.0826-1.0436c.1551-.29023.0405-.6435-.2423-.79559l-.1895.35227c.0934.05021.1276.16379.079.25482zm.0236-.09036v-.00389h-.4v.00389zm-.7642 1.0149c.3001-.22897.54-.54664.7404-.92038l-.3525-.18905c-.1834.3421-.3901.60799-.6305.7914zm-1.0458.36389c.3797 0 .7475-.13299 1.0469-.36475l-.2449-.31631c-.2333.18062-.5159.28106-.802.28106zm-1.5135-.63271c.4667.38219.9719.62831 1.5118.6327l.0033-.39999c-.4159-.00338-.8353-.19299-1.2617-.54219zm-.0828-.83007c-.2066.25201-.1721.62403.0838.83087l.2514-.31108c-.081-.06549-.0935-.18367-.0259-.26623zm.8327-.08322c-.2524-.20405-.6247-.17058-.8327.08322l.3093.25356c.0662-.08077.1875-.09398.272-.0257zm.7636.36403c-.156 0-.4141-.07971-.7631-.36364l-.2524.31029c.3874.31519.7326.45335 1.0155.45335zm.3271-.12379c-.1257.09356-.2193.12105-.3321.12385l.0099.39988c.2006-.00498.3733-.06309.5611-.20294zm.4178-.53823c-.1483.27246-.2964.44545-.4198.53969l.2428.31786c.1822-.13918.3632-.36301.5283-.66633zm.7977-.24083c-.2898-.1527-.644-.04096-.7976.24068l.3511.19153c.0501-.09184.1659-.12794.26-.07834zm4.983-.64154c.0501-.09184.1659-.12794.26-.07834l.1865-.35387c-.2898-.1527-.644-.04096-.7977.24068zm-.5282.66618c.1822-.13919.3632-.36302.5283-.66633l-.3513-.19123c-.1483.27247-.2964.44545-.4198.53969zm-.563.2044c.1991-.00495.377-.06225.563-.20441l-.2428-.31786c-.1195.09127-.2159.11956-.3301.12239zm-1.0204-.45328c.3874.31518.7326.45334 1.0154.45334v-.4c-.1559 0-.414-.07971-.763-.36364zm-.2715.02609c.0662-.08077.1875-.09398.272-.0257l.2514-.31108c-.2524-.20405-.6247-.17057-.8327.08323zm.0259.26623c-.081-.06549-.0935-.18366-.0259-.26623l-.3093-.25355c-.2066.25201-.1721.62402.0838.83086zm1.2627.543c-.416-.00339-.8353-.193-1.2617-.5422l-.2534.30948c.4667.38219.9719.62831 1.5118.6327zm.799-.28384c-.2327.18351-.5146.28383-.8007.28383v.4c.38 0 .7483-.13311 1.0484-.36975zm.6331-.79337c-.1834.34209-.3901.60798-.6306.79139l.2426.31803c.3002-.22897.5401-.54664.7405-.92038zm-.0791-.25455c.0934.05021.1276.16379.079.25482l.3528.1885c.1551-.29023.0404-.6435-.2423-.79559zm-1.5798 4.28953c-.4416-.21722-.8908-.33566-1.3418-.33566v.4c.3795 0 .7685.09943 1.1653.29459zm.1117.18336v-.00389h-.4v.00389zm1.2001.74301c-.4377-.3987-.8722-.70622-1.3118-.92248l-.1765.35893c.3987.19615.8025.47995 1.2189.85925zm.0368.8309c.2188-.2407.2017-.6117-.0362-.8303l-.2706.2946c.0754.0693.0819.1885.0108.2667zm-.8339.0378c.2414.2164.6127.1997.8322-.036l-.2927-.2726c-.0703.0755-.1927.0823-.2725.0107zm-1.0397-.7358c.3123.1533.6614.3943 1.0392.7353l.268-.2969c-.3978-.3592-.7773-.6239-1.131-.7975zm-.8168-.2168c.2334 0 .5049.0638.8168.2168l.1762-.3591c-.3541-.1737-.6859-.2577-.993-.2577zm-.9053.3652c.3058-.2577.591-.3619.9074-.3653l-.0042-.3999c-.4201.0044-.793.1492-1.161.4594zm-.9157 1.3137c.2948-.6235.6087-1.0548.9157-1.3137l-.2578-.3058c-.3668.3092-.711.796-1.0195 1.4485zm-.7849.2832c.2915.1331.6472.0142.7856-.2846l-.363-.1681c-.0418.0902-.1561.1347-.2564.0888zm-.2864-.7834c-.1353.2921-.0133.6465.2864.7834l.1662-.3639c-.092-.042-.1346-.1545-.0897-.2514zm1.2189-1.70972c-.479.40952-.8779.98852-1.2182 1.70822l.3616.171c.3256-.6886.6945-1.2144 1.1165-1.5752zm1.6734-.64711c-.6133 0-1.191.2347-1.6734.64711l.2599.30402c.4186-.35788.9064-.55113 1.4135-.55113z" mask="url(#a)"/></g></svg>