<svg width="24" height="24" viewBox="0 0 24 24" fill="none" xmlns="http://www.w3.org/2000/svg">
<mask id="path-1-outside-1_34674_6922" maskUnits="userSpaceOnUse" x="0" y="-0.5" width="24" height="25" fill="white">
<rect fill="white" y="-0.5" width="24" height="25"/>
<path fill-rule="evenodd" clip-rule="evenodd" d="M23 7.72446C23 9.72801 22.2753 11.4281 21.3586 12.7197C20.438 14.0152 19.3412 14.9061 18.5146 15.3302C18.2756 15.4508 18.0602 15.5364 17.8526 15.5792C17.7233 15.6025 17.5862 15.6142 17.4373 15.6142C17.0064 15.6142 16.4658 15.5247 15.8508 15.3418C15.4277 15.2174 14.9694 15.0384 14.5032 14.8166C14.5032 14.8658 14.5062 14.9159 14.5092 14.9655C14.5121 15.0141 14.515 15.0622 14.515 15.1084C14.515 17.5594 13.516 19.4851 12.2781 20.8506C11.0363 22.2201 9.57514 23.0448 8.54879 23.3599C8.25499 23.4494 7.99252 23.5 7.75748 23.5C7.52244 23.5 7.26389 23.4494 6.96617 23.3599C6.67236 23.2705 6.3433 23.1382 5.99466 22.9631C5.29736 22.613 4.51781 22.0956 3.77742 21.4031C2.30449 20.0181 1 17.9095 1 15.1084C1 14.2059 1.1567 13.1438 1.45833 12.1089C1.75997 11.0741 2.19872 10.0626 2.78632 9.26505C2.84117 9.19114 2.91952 9.14056 3.0057 9.11722C4.65883 8.70095 6.28063 8.49087 7.86717 8.49087C8.4391 8.49087 8.99929 8.52588 9.56339 8.58035C9.44979 7.9929 9.39103 7.33153 9.39103 6.63904C9.39103 5.25017 9.62215 3.75237 10.1784 2.57358C10.2176 2.49188 10.2842 2.42574 10.3665 2.38684C13.0185 1.13413 15.698 0.5 18.3971 0.5C18.828 0.5 19.2628 0.515562 19.6937 0.546685C19.7799 0.554465 19.8661 0.589479 19.9288 0.647835C20.6613 1.31698 21.292 2.21955 21.7895 3.18048C22.287 4.13752 22.6474 5.14902 22.8276 6.03214C22.9452 6.6157 22.9961 7.1798 22.9961 7.72446H23ZM4.98789 13.988C5.11717 13.988 5.24644 14.023 5.40313 14.1164C5.55591 14.2059 5.72828 14.3576 5.90848 14.5754C6.04558 14.7427 6.29238 14.7661 6.46083 14.6299C6.62927 14.4937 6.65278 14.2486 6.51567 14.0814C6.2963 13.8129 6.06125 13.599 5.80662 13.4472C5.55199 13.2955 5.27386 13.2099 4.98789 13.2099C4.70192 13.2099 4.42379 13.2955 4.16916 13.4472C3.91453 13.599 3.6834 13.8129 3.46011 14.0814C3.32301 14.2486 3.34651 14.4937 3.51496 14.6299C3.6834 14.7661 3.9302 14.7427 4.06731 14.5754C4.24751 14.3576 4.41987 14.2097 4.57265 14.1164C4.72934 14.023 4.86254 13.988 4.98789 13.988ZM10.5231 13.2099C10.8091 13.2099 11.0873 13.2955 11.3419 13.4472C11.5965 13.599 11.8276 13.8129 12.0509 14.0814C12.188 14.2486 12.1645 14.4937 11.9961 14.6299C11.8276 14.7661 11.5808 14.7427 11.4437 14.5754C11.2635 14.3576 11.0912 14.2059 10.9384 14.1164C10.7817 14.023 10.6524 13.988 10.5231 13.988C10.3939 13.988 10.2646 14.023 10.1079 14.1164C9.95513 14.2059 9.78276 14.3576 9.60256 14.5754C9.46546 14.7427 9.21866 14.7661 9.05021 14.6299C8.88177 14.4937 8.85826 14.2486 8.99537 14.0814C9.21474 13.8129 9.44979 13.599 9.70442 13.4472C9.95905 13.2955 10.2372 13.2099 10.5231 13.2099ZM10.4566 18.104C10.5231 18.2363 10.5114 18.3919 10.4213 18.5086C10.0178 19.0533 9.59865 19.4773 9.15598 19.7691C8.71332 20.0609 8.23932 20.2243 7.75748 20.2243C7.27564 20.2243 6.79772 20.0648 6.35897 19.7691C5.91631 19.4773 5.49715 19.0533 5.09366 18.5086C5.00748 18.3919 4.99181 18.2324 5.0584 18.104C5.125 17.9718 5.26211 17.8901 5.40705 17.8901H10.1079C10.2568 17.8901 10.39 17.9718 10.4566 18.104ZM6.24929 18.6681H9.26567C9.08155 18.8549 8.90135 19.0066 8.72507 19.1233C8.38034 19.349 8.06303 19.4462 7.75748 19.4462C7.44801 19.4462 7.13462 19.349 6.78989 19.1233C6.6136 19.0066 6.4334 18.8549 6.24929 18.6681ZM13.3045 12.3229C13.5865 13.2916 13.7315 14.2953 13.7315 15.1084L13.7276 15.1045C13.7276 17.6605 12.5524 19.5551 11.193 20.8351C10.5153 21.4731 9.7906 21.9516 9.16382 22.2667C8.85043 22.4263 8.55662 22.543 8.31375 22.6169C8.07087 22.6908 7.86717 22.7219 7.75356 22.7219C7.63996 22.7258 7.43625 22.6908 7.19338 22.6169C6.33155 22.3523 4.94872 21.5859 3.8166 20.3293C2.68056 19.0727 1.77956 17.3454 1.77956 15.1084C1.77956 14.2953 1.9245 13.2916 2.20655 12.3229C2.46902 11.4048 2.85684 10.5178 3.33084 9.84083C4.87821 9.45957 6.39031 9.26894 7.86325 9.26894C9.33618 9.26894 10.7739 9.45957 12.1763 9.83694C12.6503 10.5139 13.0381 11.4048 13.3045 12.3229ZM22.2165 7.72446C22.2165 7.23038 22.1695 6.72074 22.0598 6.18775C21.8992 5.39022 21.5584 4.43708 21.0962 3.5384C20.6574 2.6864 20.1011 1.88887 19.5018 1.31698C19.1335 1.29364 18.7692 1.27808 18.401 1.27808C15.8704 1.27808 13.3515 1.86164 10.8326 3.03265C10.386 4.04415 10.1745 5.39022 10.1745 6.64293C10.1745 7.31597 10.2333 7.95788 10.3429 8.50254C10.3488 8.53172 10.3557 8.56089 10.3625 8.59007C10.3694 8.61925 10.3762 8.64843 10.3821 8.6776C11.1029 8.78265 11.8159 8.92659 12.521 9.12111C12.6033 9.14445 12.6816 9.19503 12.7325 9.26505C13.3202 10.0626 13.7589 11.0741 14.0605 12.1089C14.2329 12.7119 14.3543 13.3188 14.4288 13.9024C15.0046 14.2136 15.5726 14.4471 16.078 14.5988C16.6303 14.7661 17.1161 14.8361 17.4373 14.8361C17.547 14.8361 17.6371 14.8283 17.6998 14.8166C17.7977 14.7972 17.9623 14.7388 18.1581 14.6416C18.354 14.5443 18.5773 14.4043 18.8202 14.2292C19.302 13.8791 19.8465 13.3811 20.3519 12.7625C21.3665 11.5215 22.2204 9.79804 22.2204 7.72835L22.2165 7.72446ZM14.656 6.20332C14.844 6.30447 14.9184 6.53789 14.8166 6.72852V6.73241C14.6246 7.09032 14.4014 7.3821 14.1311 7.58829C13.8647 7.79449 13.5395 7.9112 13.2066 7.9112C12.7286 7.90731 12.2664 7.68945 11.8198 7.32375C11.6514 7.18758 11.6278 6.94249 11.765 6.7752C11.9021 6.60792 12.1489 6.58457 12.3173 6.72074C12.6855 7.0203 12.9872 7.12923 13.2066 7.12923C13.3632 7.12534 13.4964 7.08254 13.6531 6.96583C13.8059 6.84912 13.9704 6.65071 14.1271 6.36282C14.229 6.17608 14.464 6.10217 14.656 6.20332ZM20.0855 5.12957C19.8935 5.02842 19.6585 5.10233 19.5566 5.28907C19.3999 5.57696 19.2354 5.77537 19.0826 5.89208C18.9298 6.0088 18.7927 6.05159 18.636 6.05548C18.4167 6.05548 18.115 5.94655 17.7468 5.64699C17.5783 5.51083 17.3316 5.53417 17.1944 5.70145C17.0573 5.86874 17.0808 6.11384 17.2493 6.25C17.6959 6.6157 18.1581 6.83356 18.636 6.83745C18.969 6.83745 19.2942 6.72074 19.5605 6.51066C19.8308 6.30447 20.0541 6.01269 20.2461 5.65477C20.3479 5.46414 20.2735 5.23072 20.0855 5.12957ZM17.0691 9.45957C17.4843 9.45957 17.9035 9.5685 18.3226 9.7747V9.77859C18.7418 9.98478 19.161 10.2804 19.588 10.6695C19.7447 10.8134 19.7564 11.0585 19.6115 11.218C19.4665 11.3736 19.2197 11.3853 19.0591 11.2414C18.6713 10.8912 18.307 10.6384 17.974 10.475C17.641 10.3116 17.3394 10.2377 17.0691 10.2377C16.7009 10.2415 16.3718 10.366 16.0349 10.65C15.698 10.934 15.3689 11.3931 15.0673 12.0311C14.9772 12.2256 14.7422 12.3073 14.5463 12.2179C14.3504 12.1284 14.2682 11.895 14.3583 11.7004C14.6912 10.9963 15.0751 10.4438 15.5256 10.0587C15.9761 9.67354 16.5089 9.45957 17.0691 9.45957Z"/>
</mask>
<path fill-rule="evenodd" clip-rule="evenodd" d="M23 7.72446C23 9.72801 22.2753 11.4281 21.3586 12.7197C20.438 14.0152 19.3412 14.9061 18.5146 15.3302C18.2756 15.4508 18.0602 15.5364 17.8526 15.5792C17.7233 15.6025 17.5862 15.6142 17.4373 15.6142C17.0064 15.6142 16.4658 15.5247 15.8508 15.3418C15.4277 15.2174 14.9694 15.0384 14.5032 14.8166C14.5032 14.8658 14.5062 14.9159 14.5092 14.9655C14.5121 15.0141 14.515 15.0622 14.515 15.1084C14.515 17.5594 13.516 19.4851 12.2781 20.8506C11.0363 22.2201 9.57514 23.0448 8.54879 23.3599C8.25499 23.4494 7.99252 23.5 7.75748 23.5C7.52244 23.5 7.26389 23.4494 6.96617 23.3599C6.67236 23.2705 6.3433 23.1382 5.99466 22.9631C5.29736 22.613 4.51781 22.0956 3.77742 21.4031C2.30449 20.0181 1 17.9095 1 15.1084C1 14.2059 1.1567 13.1438 1.45833 12.1089C1.75997 11.0741 2.19872 10.0626 2.78632 9.26505C2.84117 9.19114 2.91952 9.14056 3.0057 9.11722C4.65883 8.70095 6.28063 8.49087 7.86717 8.49087C8.4391 8.49087 8.99929 8.52588 9.56339 8.58035C9.44979 7.9929 9.39103 7.33153 9.39103 6.63904C9.39103 5.25017 9.62215 3.75237 10.1784 2.57358C10.2176 2.49188 10.2842 2.42574 10.3665 2.38684C13.0185 1.13413 15.698 0.5 18.3971 0.5C18.828 0.5 19.2628 0.515562 19.6937 0.546685C19.7799 0.554465 19.8661 0.589479 19.9288 0.647835C20.6613 1.31698 21.292 2.21955 21.7895 3.18048C22.287 4.13752 22.6474 5.14902 22.8276 6.03214C22.9452 6.6157 22.9961 7.1798 22.9961 7.72446H23ZM4.98789 13.988C5.11717 13.988 5.24644 14.023 5.40313 14.1164C5.55591 14.2059 5.72828 14.3576 5.90848 14.5754C6.04558 14.7427 6.29238 14.7661 6.46083 14.6299C6.62927 14.4937 6.65278 14.2486 6.51567 14.0814C6.2963 13.8129 6.06125 13.599 5.80662 13.4472C5.55199 13.2955 5.27386 13.2099 4.98789 13.2099C4.70192 13.2099 4.42379 13.2955 4.16916 13.4472C3.91453 13.599 3.6834 13.8129 3.46011 14.0814C3.32301 14.2486 3.34651 14.4937 3.51496 14.6299C3.6834 14.7661 3.9302 14.7427 4.06731 14.5754C4.24751 14.3576 4.41987 14.2097 4.57265 14.1164C4.72934 14.023 4.86254 13.988 4.98789 13.988ZM10.5231 13.2099C10.8091 13.2099 11.0873 13.2955 11.3419 13.4472C11.5965 13.599 11.8276 13.8129 12.0509 14.0814C12.188 14.2486 12.1645 14.4937 11.9961 14.6299C11.8276 14.7661 11.5808 14.7427 11.4437 14.5754C11.2635 14.3576 11.0912 14.2059 10.9384 14.1164C10.7817 14.023 10.6524 13.988 10.5231 13.988C10.3939 13.988 10.2646 14.023 10.1079 14.1164C9.95513 14.2059 9.78276 14.3576 9.60256 14.5754C9.46546 14.7427 9.21866 14.7661 9.05021 14.6299C8.88177 14.4937 8.85826 14.2486 8.99537 14.0814C9.21474 13.8129 9.44979 13.599 9.70442 13.4472C9.95905 13.2955 10.2372 13.2099 10.5231 13.2099ZM10.4566 18.104C10.5231 18.2363 10.5114 18.3919 10.4213 18.5086C10.0178 19.0533 9.59865 19.4773 9.15598 19.7691C8.71332 20.0609 8.23932 20.2243 7.75748 20.2243C7.27564 20.2243 6.79772 20.0648 6.35897 19.7691C5.91631 19.4773 5.49715 19.0533 5.09366 18.5086C5.00748 18.3919 4.99181 18.2324 5.0584 18.104C5.125 17.9718 5.26211 17.8901 5.40705 17.8901H10.1079C10.2568 17.8901 10.39 17.9718 10.4566 18.104ZM6.24929 18.6681H9.26567C9.08155 18.8549 8.90135 19.0066 8.72507 19.1233C8.38034 19.349 8.06303 19.4462 7.75748 19.4462C7.44801 19.4462 7.13462 19.349 6.78989 19.1233C6.6136 19.0066 6.4334 18.8549 6.24929 18.6681ZM13.3045 12.3229C13.5865 13.2916 13.7315 14.2953 13.7315 15.1084L13.7276 15.1045C13.7276 17.6605 12.5524 19.5551 11.193 20.8351C10.5153 21.4731 9.7906 21.9516 9.16382 22.2667C8.85043 22.4263 8.55662 22.543 8.31375 22.6169C8.07087 22.6908 7.86717 22.7219 7.75356 22.7219C7.63996 22.7258 7.43625 22.6908 7.19338 22.6169C6.33155 22.3523 4.94872 21.5859 3.8166 20.3293C2.68056 19.0727 1.77956 17.3454 1.77956 15.1084C1.77956 14.2953 1.9245 13.2916 2.20655 12.3229C2.46902 11.4048 2.85684 10.5178 3.33084 9.84083C4.87821 9.45957 6.39031 9.26894 7.86325 9.26894C9.33618 9.26894 10.7739 9.45957 12.1763 9.83694C12.6503 10.5139 13.0381 11.4048 13.3045 12.3229ZM22.2165 7.72446C22.2165 7.23038 22.1695 6.72074 22.0598 6.18775C21.8992 5.39022 21.5584 4.43708 21.0962 3.5384C20.6574 2.6864 20.1011 1.88887 19.5018 1.31698C19.1335 1.29364 18.7692 1.27808 18.401 1.27808C15.8704 1.27808 13.3515 1.86164 10.8326 3.03265C10.386 4.04415 10.1745 5.39022 10.1745 6.64293C10.1745 7.31597 10.2333 7.95788 10.3429 8.50254C10.3488 8.53172 10.3557 8.56089 10.3625 8.59007C10.3694 8.61925 10.3762 8.64843 10.3821 8.6776C11.1029 8.78265 11.8159 8.92659 12.521 9.12111C12.6033 9.14445 12.6816 9.19503 12.7325 9.26505C13.3202 10.0626 13.7589 11.0741 14.0605 12.1089C14.2329 12.7119 14.3543 13.3188 14.4288 13.9024C15.0046 14.2136 15.5726 14.4471 16.078 14.5988C16.6303 14.7661 17.1161 14.8361 17.4373 14.8361C17.547 14.8361 17.6371 14.8283 17.6998 14.8166C17.7977 14.7972 17.9623 14.7388 18.1581 14.6416C18.354 14.5443 18.5773 14.4043 18.8202 14.2292C19.302 13.8791 19.8465 13.3811 20.3519 12.7625C21.3665 11.5215 22.2204 9.79804 22.2204 7.72835L22.2165 7.72446ZM14.656 6.20332C14.844 6.30447 14.9184 6.53789 14.8166 6.72852V6.73241C14.6246 7.09032 14.4014 7.3821 14.1311 7.58829C13.8647 7.79449 13.5395 7.9112 13.2066 7.9112C12.7286 7.90731 12.2664 7.68945 11.8198 7.32375C11.6514 7.18758 11.6278 6.94249 11.765 6.7752C11.9021 6.60792 12.1489 6.58457 12.3173 6.72074C12.6855 7.0203 12.9872 7.12923 13.2066 7.12923C13.3632 7.12534 13.4964 7.08254 13.6531 6.96583C13.8059 6.84912 13.9704 6.65071 14.1271 6.36282C14.229 6.17608 14.464 6.10217 14.656 6.20332ZM20.0855 5.12957C19.8935 5.02842 19.6585 5.10233 19.5566 5.28907C19.3999 5.57696 19.2354 5.77537 19.0826 5.89208C18.9298 6.0088 18.7927 6.05159 18.636 6.05548C18.4167 6.05548 18.115 5.94655 17.7468 5.64699C17.5783 5.51083 17.3316 5.53417 17.1944 5.70145C17.0573 5.86874 17.0808 6.11384 17.2493 6.25C17.6959 6.6157 18.1581 6.83356 18.636 6.83745C18.969 6.83745 19.2942 6.72074 19.5605 6.51066C19.8308 6.30447 20.0541 6.01269 20.2461 5.65477C20.3479 5.46414 20.2735 5.23072 20.0855 5.12957ZM17.0691 9.45957C17.4843 9.45957 17.9035 9.5685 18.3226 9.7747V9.77859C18.7418 9.98478 19.161 10.2804 19.588 10.6695C19.7447 10.8134 19.7564 11.0585 19.6115 11.218C19.4665 11.3736 19.2197 11.3853 19.0591 11.2414C18.6713 10.8912 18.307 10.6384 17.974 10.475C17.641 10.3116 17.3394 10.2377 17.0691 10.2377C16.7009 10.2415 16.3718 10.366 16.0349 10.65C15.698 10.934 15.3689 11.3931 15.0673 12.0311C14.9772 12.2256 14.7422 12.3073 14.5463 12.2179C14.3504 12.1284 14.2682 11.895 14.3583 11.7004C14.6912 10.9963 15.0751 10.4438 15.5256 10.0587C15.9761 9.67354 16.5089 9.45957 17.0691 9.45957Z" fill="white"/>
<path d="M21.3586 12.7197L21.5216 12.8356L21.5217 12.8355L21.3586 12.7197ZM23 7.72446H23.2V7.52446H23V7.72446ZM18.5146 15.3302L18.6047 15.5087L18.6059 15.5081L18.5146 15.3302ZM17.8526 15.5792L17.8881 15.776L17.8929 15.775L17.8526 15.5792ZM15.8508 15.3418L15.9078 15.1501L15.9072 15.15L15.8508 15.3418ZM14.5032 14.8166L14.5891 14.636L14.3032 14.5V14.8166H14.5032ZM14.5092 14.9655L14.7088 14.9536V14.9536L14.5092 14.9655ZM12.2781 20.8506L12.4263 20.985L12.4263 20.985L12.2781 20.8506ZM8.54879 23.3599L8.60706 23.5513L8.60749 23.5511L8.54879 23.3599ZM6.96617 23.3599L6.9079 23.5513L6.9086 23.5515L6.96617 23.3599ZM3.77742 21.4031L3.64042 21.5488L3.6408 21.5491L3.77742 21.4031ZM1.45833 12.1089L1.65034 12.1649L1.45833 12.1089ZM2.78632 9.26505L2.62571 9.14588L2.62531 9.14642L2.78632 9.26505ZM3.0057 9.11722L2.95685 8.92324L2.95341 8.92417L3.0057 9.11722ZM9.56339 8.58035L9.54417 8.77942L9.81057 8.80514L9.75975 8.54237L9.56339 8.58035ZM10.1784 2.57358L9.99808 2.4871L9.99755 2.48823L10.1784 2.57358ZM10.3665 2.38684L10.281 2.206L10.281 2.20604L10.3665 2.38684ZM19.6937 0.546685L19.7117 0.347463L19.7081 0.347204L19.6937 0.546685ZM19.9288 0.647835L19.7925 0.794219L19.7939 0.795502L19.9288 0.647835ZM21.7895 3.18048L21.6119 3.27243L21.6121 3.27273L21.7895 3.18048ZM22.8276 6.03214L23.0237 5.99265L23.0236 5.99215L22.8276 6.03214ZM22.9961 7.72446H22.7961V7.92446H22.9961V7.72446ZM5.40313 14.1164L5.30075 14.2882L5.30206 14.289L5.40313 14.1164ZM5.90848 14.5754L6.06316 14.4487L6.06259 14.448L5.90848 14.5754ZM6.46083 14.6299L6.3351 14.4744L6.46083 14.6299ZM6.51567 14.0814L6.36081 14.2079L6.36099 14.2081L6.51567 14.0814ZM5.80662 13.4472L5.70425 13.619H5.70425L5.80662 13.4472ZM4.16916 13.4472L4.27154 13.619H4.27154L4.16916 13.4472ZM3.46011 14.0814L3.30635 13.9535L3.30543 13.9546L3.46011 14.0814ZM4.06731 14.5754L3.91319 14.448L3.91262 14.4487L4.06731 14.5754ZM4.57265 14.1164L4.47027 13.9446L4.46836 13.9457L4.57265 14.1164ZM11.3419 13.4472L11.2395 13.619H11.2395L11.3419 13.4472ZM12.0509 14.0814L12.2056 13.9546L12.2047 13.9535L12.0509 14.0814ZM11.9961 14.6299L11.8704 14.4744H11.8704L11.9961 14.6299ZM11.4437 14.5754L11.5984 14.4487L11.5978 14.448L11.4437 14.5754ZM10.9384 14.1164L10.836 14.2882L10.8373 14.289L10.9384 14.1164ZM10.1079 14.1164L10.209 14.289L10.2103 14.2882L10.1079 14.1164ZM9.60256 14.5754L9.44845 14.448L9.44788 14.4487L9.60256 14.5754ZM8.99537 14.0814L9.15005 14.2081L9.15023 14.2079L8.99537 14.0814ZM9.70442 13.4472L9.80679 13.619H9.80679L9.70442 13.4472ZM10.4213 18.5086L10.263 18.3864L10.2606 18.3896L10.4213 18.5086ZM10.4566 18.104L10.2779 18.194L10.2779 18.194L10.4566 18.104ZM9.15598 19.7691L9.04591 19.6021L9.04591 19.6021L9.15598 19.7691ZM6.35897 19.7691L6.47075 19.6033L6.46904 19.6021L6.35897 19.7691ZM5.09366 18.5086L4.93277 18.6274L4.93296 18.6277L5.09366 18.5086ZM5.0584 18.104L5.23595 18.1961L5.23704 18.194L5.0584 18.104ZM9.26567 18.6681L9.40809 18.8085L9.74372 18.4681H9.26567V18.6681ZM6.24929 18.6681V18.4681H5.77123L6.10687 18.8085L6.24929 18.6681ZM8.72507 19.1233L8.83461 19.2906L8.83548 19.2901L8.72507 19.1233ZM6.78989 19.1233L6.67948 19.2901L6.68035 19.2906L6.78989 19.1233ZM13.7315 15.1084L13.5906 15.2503L13.9315 15.5889V15.1084H13.7315ZM13.3045 12.3229L13.1124 12.3786L13.1125 12.3788L13.3045 12.3229ZM13.7276 15.1045L13.8685 14.9626L13.5276 14.6241V15.1045H13.7276ZM11.193 20.8351L11.3301 20.9807L11.3301 20.9807L11.193 20.8351ZM9.16382 22.2667L9.07398 22.0881L9.0731 22.0885L9.16382 22.2667ZM8.31375 22.6169L8.37198 22.8082H8.37198L8.31375 22.6169ZM7.75356 22.7219V22.5218L7.74672 22.522L7.75356 22.7219ZM7.19338 22.6169L7.13469 22.8081L7.13515 22.8082L7.19338 22.6169ZM3.8166 20.3293L3.96518 20.1955L3.96495 20.1952L3.8166 20.3293ZM2.20655 12.3229L2.39858 12.3788L2.39885 12.3779L2.20655 12.3229ZM3.33084 9.84083L3.28299 9.64664L3.21008 9.66461L3.16701 9.72612L3.33084 9.84083ZM12.1763 9.83694L12.3401 9.72222L12.2984 9.66269L12.2283 9.64381L12.1763 9.83694ZM22.0598 6.18775L21.8638 6.22724L21.8639 6.22807L22.0598 6.18775ZM22.2165 7.72446H22.0165V7.80771L22.0756 7.86637L22.2165 7.72446ZM21.0962 3.5384L21.274 3.44692L21.274 3.44683L21.0962 3.5384ZM19.5018 1.31698L19.6398 1.17228L19.5871 1.12199L19.5144 1.11738L19.5018 1.31698ZM10.8326 3.03265L10.7483 2.85129L10.6801 2.88301L10.6497 2.95187L10.8326 3.03265ZM10.3429 8.50254L10.1469 8.54202L10.1469 8.54202L10.3429 8.50254ZM10.3625 8.59007L10.5572 8.54433L10.5572 8.54433L10.3625 8.59007ZM10.3821 8.6776L10.1861 8.71709L10.2139 8.8552L10.3533 8.87551L10.3821 8.6776ZM12.521 9.12111L12.5756 8.9287L12.5742 8.92831L12.521 9.12111ZM12.7325 9.26505L12.5708 9.38269L12.5715 9.38369L12.7325 9.26505ZM14.0605 12.1089L14.2528 12.054L14.2526 12.053L14.0605 12.1089ZM14.4288 13.9024L14.2304 13.9277L14.2434 14.0295L14.3337 14.0783L14.4288 13.9024ZM16.078 14.5988L16.136 14.4074L16.1355 14.4072L16.078 14.5988ZM17.6998 14.8166L17.7364 15.0133L17.7388 15.0128L17.6998 14.8166ZM18.1581 14.6416L18.0692 14.4624L18.1581 14.6416ZM18.8202 14.2292L18.9371 14.3914L18.9377 14.391L18.8202 14.2292ZM20.3519 12.7625L20.197 12.6359L20.197 12.636L20.3519 12.7625ZM22.2204 7.72835H22.4204V7.6451L22.3614 7.58644L22.2204 7.72835ZM14.8166 6.72852L14.6402 6.63427L14.6166 6.67844V6.72852H14.8166ZM14.656 6.20332L14.7507 6.02718L14.7492 6.02638L14.656 6.20332ZM14.8166 6.73241L14.9928 6.82693L15.0166 6.78265V6.73241H14.8166ZM14.1311 7.58829L14.0098 7.42928L14.0086 7.43014L14.1311 7.58829ZM13.2066 7.9112L13.2049 8.1112H13.2066V7.9112ZM11.8198 7.32375L11.9465 7.16901L11.9455 7.16821L11.8198 7.32375ZM11.765 6.7752L11.6103 6.64842V6.64842L11.765 6.7752ZM12.3173 6.72074L12.4435 6.56559L12.443 6.5652L12.3173 6.72074ZM13.2066 7.12923V7.32929L13.2115 7.32917L13.2066 7.12923ZM13.6531 6.96583L13.7726 7.12624L13.7745 7.12476L13.6531 6.96583ZM14.1271 6.36282L13.9516 6.26706L13.9515 6.26721L14.1271 6.36282ZM19.5566 5.28907L19.381 5.19331L19.381 5.19346L19.5566 5.28907ZM20.0855 5.12957L20.1802 4.95343L20.1787 4.95263L20.0855 5.12957ZM19.0826 5.89208L18.9612 5.73315V5.73315L19.0826 5.89208ZM18.636 6.05548V6.25554L18.641 6.25542L18.636 6.05548ZM17.7468 5.64699L17.873 5.49184L17.8725 5.49145L17.7468 5.64699ZM17.2493 6.25L17.376 6.09526L17.375 6.09446L17.2493 6.25ZM18.636 6.83745L18.6344 7.03745H18.636V6.83745ZM19.5605 6.51066L19.4392 6.35162L19.4367 6.35362L19.5605 6.51066ZM20.2461 5.65477L20.4223 5.74929L20.4225 5.74902L20.2461 5.65477ZM18.3226 9.7747H18.5226V9.65019L18.4109 9.59523L18.3226 9.7747ZM18.3226 9.77859H18.1226V9.90309L18.2344 9.95805L18.3226 9.77859ZM19.588 10.6695L19.7233 10.5222L19.7227 10.5216L19.588 10.6695ZM19.6115 11.218L19.7578 11.3544L19.7595 11.3525L19.6115 11.218ZM19.0591 11.2414L18.9251 11.3898L18.9256 11.3903L19.0591 11.2414ZM17.0691 10.2377V10.0376L17.067 10.0377L17.0691 10.2377ZM16.0349 10.65L16.1638 10.8029L16.0349 10.65ZM15.0673 12.0311L14.8865 11.9456L14.8858 11.9471L15.0673 12.0311ZM14.5463 12.2179L14.4632 12.3998H14.4632L14.5463 12.2179ZM14.3583 11.7004L14.1775 11.6149L14.1768 11.6164L14.3583 11.7004ZM21.5217 12.8355C22.4571 11.5175 23.2 9.77776 23.2 7.72446H22.8C22.8 9.67826 22.0935 11.3387 21.1955 12.604L21.5217 12.8355ZM18.6059 15.5081C19.4641 15.0679 20.5846 14.1543 21.5216 12.8356L21.1956 12.6039C20.2915 13.8762 19.2183 14.7444 18.4233 15.1522L18.6059 15.5081ZM17.8929 15.775C18.1246 15.7273 18.3577 15.6334 18.6047 15.5087L18.4245 15.1516C18.1936 15.2682 17.9957 15.3454 17.8122 15.3833L17.8929 15.775ZM17.4373 15.8142C17.5967 15.8142 17.7458 15.8017 17.8881 15.776L17.817 15.3823C17.7008 15.4033 17.5756 15.4142 17.4373 15.4142V15.8142ZM15.7938 15.5336C16.4206 15.7199 16.9812 15.8142 17.4373 15.8142V15.4142C17.0316 15.4142 16.511 15.3295 15.9078 15.1501L15.7938 15.5336ZM14.4173 14.9973C14.8913 15.2227 15.3595 15.4058 15.7943 15.5337L15.9072 15.15C15.4959 15.0289 15.0475 14.8541 14.5891 14.636L14.4173 14.9973ZM14.7088 14.9536C14.7058 14.9029 14.7032 14.8588 14.7032 14.8166H14.3032C14.3032 14.8728 14.3066 14.9289 14.3095 14.9774L14.7088 14.9536ZM14.715 15.1084C14.715 15.0552 14.7117 15.001 14.7088 14.9536L14.3095 14.9774C14.3125 15.0272 14.315 15.0693 14.315 15.1084H14.715ZM12.4263 20.985C13.6913 19.5895 14.715 17.6176 14.715 15.1084H14.315C14.315 17.5012 13.3407 19.3807 12.13 20.7163L12.4263 20.985ZM8.60749 23.5511C9.66952 23.2251 11.1612 22.38 12.4263 20.985L12.13 20.7163C10.9114 22.0601 9.48077 22.8646 8.49009 23.1688L8.60749 23.5511ZM7.75748 23.7C8.01978 23.7 8.30324 23.6438 8.60706 23.5513L8.49052 23.1686C8.20673 23.2551 7.96526 23.3 7.75748 23.3V23.7ZM6.9086 23.5515C7.21532 23.6437 7.49491 23.7 7.75748 23.7V23.3C7.54996 23.3 7.31246 23.2552 7.02373 23.1684L6.9086 23.5515ZM5.90491 23.1419C6.26222 23.3213 6.60181 23.458 6.9079 23.5513L7.02444 23.1686C6.74292 23.0829 6.42439 22.9551 6.08441 22.7844L5.90491 23.1419ZM3.6408 21.5491C4.39566 22.2552 5.19112 22.7834 5.90491 23.1419L6.08441 22.7844C5.40361 22.4425 4.63996 21.936 3.91404 21.257L3.6408 21.5491ZM0.8 15.1084C0.8 17.9768 2.13709 20.1352 3.64042 21.5488L3.91443 21.2574C2.47188 19.901 1.2 17.8422 1.2 15.1084H0.8ZM1.26632 12.053C0.960043 13.1037 0.8 14.1847 0.8 15.1084H1.2C1.2 14.227 1.35335 13.1838 1.65034 12.1649L1.26632 12.053ZM2.62531 9.14642C2.01941 9.96877 1.5721 11.0039 1.26632 12.053L1.65034 12.1649C1.94784 11.1443 2.37802 10.1564 2.94734 9.38369L2.62531 9.14642ZM2.95341 8.92417C2.82679 8.95847 2.7091 9.03349 2.62571 9.14588L2.94694 9.38422C2.97324 9.34878 3.01224 9.32265 3.05798 9.31026L2.95341 8.92417ZM7.86717 8.29087C6.26285 8.29087 4.62464 8.50331 2.95686 8.92327L3.05453 9.31116C4.69302 8.89858 6.2984 8.69087 7.86717 8.69087V8.29087ZM9.58261 8.38127C9.01411 8.32638 8.44725 8.29087 7.86717 8.29087V8.69087C8.43095 8.69087 8.98446 8.72538 9.54417 8.77942L9.58261 8.38127ZM9.19103 6.63904C9.19103 7.34235 9.25066 8.0166 9.36703 8.61832L9.75975 8.54237C9.64891 7.9692 9.59103 7.32071 9.59103 6.63904H9.19103ZM9.99755 2.48823C9.42449 3.70258 9.19103 5.23236 9.19103 6.63904H9.59103C9.59103 5.26798 9.81981 3.80215 10.3593 2.65893L9.99755 2.48823ZM10.281 2.20604C10.1574 2.26448 10.0572 2.36382 9.99808 2.48711L10.3588 2.66005C10.378 2.61995 10.411 2.58701 10.452 2.56764L10.281 2.20604ZM18.3971 0.3C15.6657 0.3 12.9571 0.941935 10.281 2.206L10.4519 2.56768C13.0799 1.32633 15.7304 0.7 18.3971 0.7V0.3ZM19.7081 0.347204C19.2724 0.315733 18.8328 0.3 18.3971 0.3V0.7C18.8232 0.7 19.2532 0.71539 19.6793 0.746165L19.7081 0.347204ZM20.0651 0.501457C19.9661 0.40932 19.8366 0.358773 19.7117 0.347495L19.6757 0.745875C19.7232 0.750158 19.7661 0.769638 19.7925 0.794212L20.0651 0.501457ZM21.9671 3.08853C21.4624 2.11355 20.8186 1.18973 20.0637 0.500168L19.7939 0.795502C20.5041 1.44423 21.1217 2.32555 21.6119 3.27243L21.9671 3.08853ZM23.0236 5.99215C22.8393 5.08904 22.4722 4.06003 21.967 3.08823L21.6121 3.27273C22.1019 4.215 22.4556 5.209 22.6317 6.07212L23.0236 5.99215ZM23.1961 7.72446C23.1961 7.16721 23.144 6.58985 23.0237 5.99265L22.6316 6.07162C22.7463 6.64155 22.7961 7.1924 22.7961 7.72446H23.1961ZM23 7.52446H22.9961V7.92446H23V7.52446ZM5.50551 13.9446C5.3235 13.8361 5.15926 13.788 4.98789 13.788V14.188C5.07507 14.188 5.16937 14.2099 5.30076 14.2882L5.50551 13.9446ZM6.06259 14.448C5.87285 14.2186 5.68334 14.0487 5.50421 13.9438L5.30206 14.289C5.42849 14.363 5.58371 14.4966 5.75436 14.7029L6.06259 14.448ZM6.3351 14.4744C6.25063 14.5426 6.12936 14.5294 6.06316 14.4487L5.75379 14.7022C5.96181 14.956 6.33413 14.9895 6.58656 14.7854L6.3351 14.4744ZM6.36099 14.2081C6.42865 14.2907 6.41611 14.4089 6.3351 14.4744L6.58656 14.7854C6.84243 14.5786 6.8769 14.2066 6.67035 13.9546L6.36099 14.2081ZM5.70425 13.619C5.93441 13.7562 6.15247 13.953 6.36081 14.2079L6.67053 13.9548C6.44013 13.6729 6.18809 13.4417 5.909 13.2754L5.70425 13.619ZM4.98789 13.4099C5.2331 13.4099 5.47626 13.4832 5.70425 13.619L5.909 13.2754C5.62773 13.1078 5.31462 13.0099 4.98789 13.0099V13.4099ZM4.27154 13.619C4.49952 13.4832 4.74268 13.4099 4.98789 13.4099V13.0099C4.66117 13.0099 4.34806 13.1078 4.06678 13.2754L4.27154 13.619ZM3.61387 14.2093C3.82765 13.9523 4.04214 13.7557 4.27154 13.619L4.06678 13.2754C3.78692 13.4422 3.53916 13.6736 3.30636 13.9535L3.61387 14.2093ZM3.64069 14.4744C3.55967 14.4089 3.54713 14.2907 3.6148 14.2081L3.30543 13.9546C3.09888 14.2066 3.13335 14.5786 3.38923 14.7854L3.64069 14.4744ZM3.91262 14.4487C3.84642 14.5294 3.72515 14.5426 3.64069 14.4744L3.38923 14.7854C3.64166 14.9895 4.01398 14.956 4.22199 14.7022L3.91262 14.4487ZM4.46836 13.9457C4.29314 14.0528 4.10457 14.2166 3.91319 14.448L4.22142 14.7029C4.39044 14.4986 4.5466 14.3667 4.67694 14.287L4.46836 13.9457ZM4.98789 13.788C4.82094 13.788 4.65278 13.8358 4.47027 13.9446L4.67503 14.2882C4.80591 14.2102 4.90413 14.188 4.98789 14.188V13.788ZM11.4443 13.2754C11.163 13.1078 10.8499 13.0099 10.5231 13.0099V13.4099C10.7684 13.4099 11.0115 13.4832 11.2395 13.619L11.4443 13.2754ZM12.2047 13.9535C11.9719 13.6736 11.7241 13.4422 11.4443 13.2754L11.2395 13.619C11.4689 13.7557 11.6834 13.9523 11.8972 14.2093L12.2047 13.9535ZM12.1218 14.7854C12.3777 14.5786 12.4122 14.2066 12.2056 13.9546L11.8962 14.2081C11.9639 14.2907 11.9514 14.4089 11.8704 14.4744L12.1218 14.7854ZM11.289 14.7022C11.4971 14.956 11.8694 14.9895 12.1218 14.7854L11.8704 14.4744C11.7859 14.5426 11.6646 14.5294 11.5984 14.4487L11.289 14.7022ZM10.8373 14.289C10.9637 14.363 11.119 14.4966 11.2896 14.7029L11.5978 14.448C11.4081 14.2186 11.2186 14.0487 11.0395 13.9438L10.8373 14.289ZM10.5231 14.188C10.6103 14.188 10.7046 14.2099 10.836 14.2882L11.0408 13.9446C10.8588 13.8361 10.6945 13.788 10.5231 13.788V14.188ZM10.2103 14.2882C10.3417 14.2099 10.436 14.188 10.5231 14.188V13.788C10.3518 13.788 10.1875 13.8361 10.0055 13.9446L10.2103 14.2882ZM9.75668 14.7029C9.92733 14.4966 10.0826 14.363 10.209 14.289L10.0068 13.9438C9.8277 14.0487 9.63819 14.2186 9.44845 14.448L9.75668 14.7029ZM8.92448 14.7854C9.17691 14.9895 9.54923 14.956 9.75725 14.7022L9.44788 14.4487C9.38168 14.5294 9.26041 14.5426 9.17594 14.4744L8.92448 14.7854ZM8.84069 13.9546C8.63414 14.2066 8.66861 14.5786 8.92448 14.7854L9.17594 14.4744C9.09493 14.4089 9.08239 14.2907 9.15005 14.2081L8.84069 13.9546ZM9.60204 13.2754C9.32295 13.4417 9.07091 13.6729 8.84051 13.9548L9.15023 14.2079C9.35857 13.953 9.57662 13.7562 9.80679 13.619L9.60204 13.2754ZM10.5231 13.0099C10.1964 13.0099 9.88331 13.1078 9.60204 13.2754L9.80679 13.619C10.0348 13.4832 10.2779 13.4099 10.5231 13.4099V13.0099ZM10.5796 18.6308C10.719 18.4503 10.7347 18.2118 10.6352 18.0141L10.2779 18.194C10.3116 18.2608 10.3038 18.3335 10.263 18.3864L10.5796 18.6308ZM9.26605 19.9361C9.73399 19.6277 10.1693 19.1847 10.582 18.6277L10.2606 18.3896C9.86628 18.9218 9.4633 19.327 9.04591 19.6021L9.26605 19.9361ZM7.75748 20.4243C8.28579 20.4243 8.79745 20.245 9.26605 19.9361L9.04591 19.6021C8.62919 19.8768 8.19284 20.0243 7.75748 20.0243V20.4243ZM6.24721 19.935C6.71418 20.2497 7.2304 20.4243 7.75748 20.4243V20.0243C7.32088 20.0243 6.88126 19.8799 6.47074 19.6033L6.24721 19.935ZM4.93296 18.6277C5.34562 19.1847 5.78097 19.6277 6.24891 19.9361L6.46904 19.6021C6.05166 19.327 5.64868 18.9218 5.25437 18.3896L4.93296 18.6277ZM4.88087 18.0119C4.77753 18.2111 4.80339 18.4522 4.93277 18.6274L5.25455 18.3898C5.21156 18.3316 5.20609 18.2537 5.23594 18.1961L4.88087 18.0119ZM5.40705 17.6901C5.18826 17.6901 4.9811 17.8128 4.87977 18.0141L5.23704 18.194C5.2689 18.1307 5.33596 18.0901 5.40705 18.0901V17.6901ZM10.1079 17.6901H5.40705V18.0901H10.1079V17.6901ZM10.6352 18.0141C10.5344 17.8138 10.3318 17.6901 10.1079 17.6901V18.0901C10.1818 18.0901 10.2456 18.1297 10.2779 18.194L10.6352 18.0141ZM9.26567 18.4681H6.24929V18.8681H9.26567V18.4681ZM8.83548 19.2901C9.02568 19.1641 9.21646 19.0029 9.40809 18.8085L9.12325 18.5277C8.94665 18.7068 8.77703 18.8491 8.61466 18.9565L8.83548 19.2901ZM7.75748 19.6462C8.10893 19.6462 8.4637 19.5334 8.8346 19.2906L8.61554 18.956C8.29698 19.1645 8.01714 19.2462 7.75748 19.2462V19.6462ZM6.68035 19.2906C7.05103 19.5333 7.40188 19.6462 7.75748 19.6462V19.2462C7.49413 19.2462 7.2182 19.1646 6.89942 18.956L6.68035 19.2906ZM6.10687 18.8085C6.2985 19.0029 6.48928 19.1641 6.67948 19.2901L6.90029 18.9565C6.73793 18.8491 6.56831 18.7068 6.39171 18.5277L6.10687 18.8085ZM13.9315 15.1084C13.9315 14.2743 13.7832 13.2517 13.4965 12.267L13.1125 12.3788C13.3899 13.3315 13.5315 14.3164 13.5315 15.1084H13.9315ZM13.5866 15.2465L13.5906 15.2503L13.8724 14.9665L13.8685 14.9626L13.5866 15.2465ZM11.3301 20.9807C12.7196 19.6724 13.9276 17.7281 13.9276 15.1045H13.5276C13.5276 17.593 12.3851 19.4379 11.0559 20.6895L11.3301 20.9807ZM9.25366 22.4454C9.8967 22.1221 10.6375 21.6327 11.3301 20.9807L11.0559 20.6895C10.3931 21.3135 9.6845 21.7811 9.07398 22.0881L9.25366 22.4454ZM8.37198 22.8082C8.62714 22.7306 8.93179 22.6093 9.25454 22.445L9.0731 22.0885C8.76906 22.2432 8.48611 22.3554 8.25551 22.4255L8.37198 22.8082ZM7.75356 22.9219C7.89388 22.9219 8.11833 22.8854 8.37198 22.8082L8.25552 22.4255C8.02341 22.4962 7.84045 22.5219 7.75356 22.5219V22.9219ZM7.13515 22.8082C7.38398 22.8839 7.61318 22.9268 7.76041 22.9218L7.74672 22.522C7.66674 22.5248 7.48853 22.4977 7.25161 22.4255L7.13515 22.8082ZM3.66801 20.4632C4.82383 21.7461 6.23752 22.5327 7.13469 22.8081L7.25207 22.4257C6.42559 22.172 5.07361 21.4258 3.96518 20.1955L3.66801 20.4632ZM1.57956 15.1084C1.57956 17.4039 2.50545 19.1773 3.66824 20.4635L3.96495 20.1952C2.85566 18.9682 1.97956 17.2869 1.97956 15.1084H1.57956ZM2.01453 12.267C1.72782 13.2517 1.57956 14.2743 1.57956 15.1084H1.97956C1.97956 14.3164 2.12119 13.3315 2.39858 12.3788L2.01453 12.267ZM3.16701 9.72612C2.67697 10.4259 2.28102 11.3348 2.01426 12.2679L2.39885 12.3779C2.65702 11.4748 3.0367 10.6096 3.49467 9.95555L3.16701 9.72612ZM7.86325 9.06894C6.37295 9.06894 4.84477 9.26183 3.28299 9.64664L3.37869 10.035C4.91164 9.65732 6.40768 9.46894 7.86325 9.46894V9.06894ZM12.2283 9.64381C10.8088 9.26186 9.35366 9.06894 7.86325 9.06894V9.46894C9.31871 9.46894 10.7389 9.65728 12.1243 10.0301L12.2283 9.64381ZM13.4966 12.2672C13.2261 11.3348 12.8302 10.4222 12.3401 9.72222L12.0125 9.95166C12.4703 10.6056 12.8501 11.4747 13.1124 12.3786L13.4966 12.2672ZM21.8639 6.22807C21.9708 6.7472 22.0165 7.24331 22.0165 7.72446H22.4165C22.4165 7.21745 22.3683 6.69428 22.2557 6.14744L21.8639 6.22807ZM20.9183 3.62988C21.3735 4.51476 21.7073 5.45047 21.8638 6.22724L22.2559 6.14827C22.0911 5.32998 21.7434 4.35939 21.274 3.44692L20.9183 3.62988ZM19.3637 1.46168C19.9427 2.01416 20.4867 2.7918 20.9183 3.62996L21.274 3.44683C20.8281 2.581 20.2595 1.76358 19.6398 1.17228L19.3637 1.46168ZM18.401 1.47808C18.7637 1.47808 19.1235 1.49341 19.4891 1.51658L19.5144 1.11738C19.1436 1.09387 18.7748 1.07808 18.401 1.07808V1.47808ZM10.9169 3.21401C13.412 2.05408 15.9022 1.47808 18.401 1.47808V1.07808C15.8385 1.07808 13.291 1.6692 10.7483 2.85129L10.9169 3.21401ZM10.3745 6.64293C10.3745 5.40797 10.5837 4.09165 11.0156 3.11342L10.6497 2.95187C10.1884 3.99665 9.9745 5.37248 9.9745 6.64293H10.3745ZM10.539 8.46305C10.4324 7.9336 10.3745 7.30517 10.3745 6.64293H9.9745C9.9745 7.32677 10.0341 7.98216 10.1469 8.54202L10.539 8.46305ZM10.5572 8.54433C10.5503 8.51462 10.5442 8.48856 10.539 8.46305L10.1469 8.54202C10.1535 8.57487 10.1611 8.60717 10.1678 8.63582L10.5572 8.54433ZM10.5782 8.63812C10.5716 8.60528 10.564 8.57297 10.5572 8.54433L10.1678 8.63582C10.1748 8.66553 10.1809 8.69158 10.1861 8.71709L10.5782 8.63812ZM12.5742 8.92831C11.8601 8.73132 11.1389 8.58578 10.411 8.4797L10.3533 8.87551C11.0669 8.97951 11.7716 9.12186 12.4678 9.31391L12.5742 8.92831ZM12.8943 9.14742C12.8141 9.03713 12.6959 8.96283 12.5756 8.92871L12.4664 9.31351C12.5107 9.32607 12.5492 9.35293 12.5708 9.38268L12.8943 9.14742ZM14.2526 12.053C13.9468 11.0039 13.4995 9.96877 12.8936 9.14642L12.5715 9.38369C13.1409 10.1564 13.571 11.1443 13.8685 12.1649L14.2526 12.053ZM14.6272 13.8771C14.5515 13.2839 14.4281 12.6671 14.2528 12.054L13.8682 12.1639C14.0377 12.7568 14.1572 13.3538 14.2304 13.9277L14.6272 13.8771ZM16.1355 14.4072C15.6441 14.2597 15.0886 14.0317 14.5239 13.7265L14.3337 14.0783C14.9207 14.3956 15.5012 14.6344 16.0205 14.7903L16.1355 14.4072ZM17.4373 14.6361C17.1403 14.6361 16.6744 14.5705 16.136 14.4074L16.02 14.7902C16.5862 14.9617 17.0919 15.0361 17.4373 15.0361V14.6361ZM17.6632 14.62C17.6162 14.6288 17.5391 14.6361 17.4373 14.6361V15.0361C17.555 15.0361 17.658 15.0279 17.7364 15.0133L17.6632 14.62ZM18.0692 14.4624C17.8811 14.5558 17.7344 14.6059 17.6608 14.6205L17.7388 15.0128C17.8611 14.9885 18.0434 14.9218 18.2471 14.8207L18.0692 14.4624ZM18.7032 14.0669C18.4656 14.2382 18.252 14.3717 18.0692 14.4624L18.2471 14.8207C18.456 14.717 18.689 14.5703 18.9371 14.3914L18.7032 14.0669ZM20.197 12.636C19.7024 13.2414 19.1704 13.7275 18.7026 14.0674L18.9377 14.391C19.4336 14.0306 19.9906 13.5208 20.5067 12.8891L20.197 12.636ZM22.0204 7.72835C22.0204 9.74113 21.19 11.4213 20.197 12.6359L20.5067 12.8891C21.5429 11.6217 22.4204 9.85495 22.4204 7.72835H22.0204ZM22.0756 7.86637L22.0795 7.87026L22.3614 7.58644L22.3575 7.58255L22.0756 7.86637ZM14.993 6.82277C15.1481 6.53254 15.0335 6.17927 14.7507 6.02718L14.5612 6.37945C14.6546 6.42966 14.6888 6.54324 14.6402 6.63427L14.993 6.82277ZM15.0166 6.73241V6.72852H14.6166V6.73241H15.0166ZM14.2524 7.74731C14.5525 7.51834 14.7924 7.20067 14.9928 6.82693L14.6403 6.63788C14.4569 6.97998 14.2502 7.24587 14.0098 7.42928L14.2524 7.74731ZM13.2066 8.1112C13.5863 8.1112 13.9541 7.97821 14.2535 7.74645L14.0086 7.43014C13.7753 7.61076 13.4927 7.7112 13.2066 7.7112V8.1112ZM11.6931 7.47849C12.1598 7.86068 12.665 8.1068 13.2049 8.11119L13.2082 7.7112C12.7923 7.70782 12.3729 7.51821 11.9465 7.16901L11.6931 7.47849ZM11.6103 6.64842C11.4037 6.90043 11.4382 7.27245 11.6941 7.47929L11.9455 7.16821C11.8645 7.10272 11.852 6.98454 11.9196 6.90198L11.6103 6.64842ZM12.443 6.5652C12.1906 6.36115 11.8183 6.39462 11.6103 6.64842L11.9196 6.90198C11.9858 6.82121 12.1071 6.808 12.1916 6.87628L12.443 6.5652ZM13.2066 6.92923C13.0506 6.92923 12.7925 6.84952 12.4435 6.56559L12.1911 6.87588C12.5785 7.19107 12.9237 7.32923 13.2066 7.32923V6.92923ZM13.5337 6.80544C13.408 6.899 13.3144 6.92649 13.2016 6.92929L13.2115 7.32917C13.4121 7.32419 13.5848 7.26608 13.7726 7.12623L13.5337 6.80544ZM13.9515 6.26721C13.8032 6.53967 13.6551 6.71266 13.5317 6.8069L13.7745 7.12476C13.9567 6.98558 14.1377 6.76175 14.3028 6.45843L13.9515 6.26721ZM14.7492 6.02638C14.4594 5.87368 14.1052 5.98542 13.9516 6.26706L14.3027 6.45859C14.3528 6.36675 14.4686 6.33065 14.5627 6.38025L14.7492 6.02638ZM19.7322 5.38484C19.7823 5.293 19.8981 5.2569 19.9922 5.3065L20.1787 4.95263C19.8889 4.79993 19.5347 4.91167 19.381 5.19331L19.7322 5.38484ZM19.204 6.05102C19.3862 5.91183 19.5672 5.688 19.7323 5.38469L19.381 5.19346C19.2327 5.46593 19.0846 5.63891 18.9612 5.73315L19.204 6.05102ZM18.641 6.25542C18.8401 6.25047 19.018 6.19317 19.204 6.05101L18.9612 5.73315C18.8417 5.82442 18.7453 5.85271 18.6311 5.85554L18.641 6.25542ZM17.6206 5.80214C18.008 6.11732 18.3532 6.25548 18.636 6.25548V5.85548C18.4801 5.85548 18.222 5.77577 17.873 5.49184L17.6206 5.80214ZM17.3491 5.82823C17.4153 5.74746 17.5366 5.73425 17.6211 5.80253L17.8725 5.49145C17.6201 5.2874 17.2478 5.32088 17.0398 5.57468L17.3491 5.82823ZM17.375 6.09446C17.294 6.02897 17.2815 5.9108 17.3491 5.82823L17.0398 5.57468C16.8332 5.82669 16.8677 6.1987 17.1236 6.40554L17.375 6.09446ZM18.6377 6.63746C18.2217 6.63407 17.8024 6.44446 17.376 6.09526L17.1226 6.40474C17.5893 6.78693 18.0945 7.03305 18.6344 7.03744L18.6377 6.63746ZM19.4367 6.35362C19.204 6.53713 18.9221 6.63745 18.636 6.63745V7.03745C19.016 7.03745 19.3843 6.90434 19.6844 6.6677L19.4367 6.35362ZM20.0698 5.56025C19.8864 5.90234 19.6797 6.16823 19.4392 6.35164L19.6818 6.66967C19.982 6.4407 20.2219 6.12303 20.4223 5.74929L20.0698 5.56025ZM19.9907 5.3057C20.0841 5.35591 20.1183 5.46949 20.0697 5.56052L20.4225 5.74902C20.5776 5.45879 20.4629 5.10552 20.1802 4.95343L19.9907 5.3057ZM18.4109 9.59523C17.9693 9.37801 17.5201 9.25957 17.0691 9.25957V9.65957C17.4486 9.65957 17.8376 9.759 18.2344 9.95416L18.4109 9.59523ZM18.5226 9.77859V9.7747H18.1226V9.77859H18.5226ZM19.7227 10.5216C19.285 10.1229 18.8505 9.81538 18.4109 9.59912L18.2344 9.95805C18.6331 10.1542 19.0369 10.438 19.4533 10.8173L19.7227 10.5216ZM19.7595 11.3525C19.9783 11.1118 19.9612 10.7408 19.7233 10.5222L19.4527 10.8168C19.5281 10.8861 19.5346 11.0053 19.4635 11.0835L19.7595 11.3525ZM18.9256 11.3903C19.167 11.6067 19.5383 11.59 19.7578 11.3543L19.4651 11.0817C19.3948 11.1572 19.2724 11.164 19.1926 11.0924L18.9256 11.3903ZM17.8859 10.6545C18.1982 10.8078 18.5473 11.0488 18.9251 11.3898L19.1931 11.0929C18.7953 10.7337 18.4158 10.469 18.0621 10.2954L17.8859 10.6545ZM17.0691 10.4377C17.3025 10.4377 17.574 10.5015 17.8859 10.6545L18.0621 10.2954C17.708 10.1217 17.3762 10.0377 17.0691 10.0377V10.4377ZM16.1638 10.8029C16.4696 10.5452 16.7548 10.441 17.0712 10.4376L17.067 10.0377C16.6469 10.0421 16.274 10.1869 15.906 10.4971L16.1638 10.8029ZM15.2481 12.1166C15.5429 11.4931 15.8568 11.0618 16.1638 10.8029L15.906 10.4971C15.5392 10.8063 15.195 11.2931 14.8865 11.9456L15.2481 12.1166ZM14.4632 12.3998C14.7547 12.5329 15.1104 12.414 15.2488 12.1152L14.8858 11.9471C14.844 12.0373 14.7297 12.0818 14.6294 12.0359L14.4632 12.3998ZM14.1768 11.6164C14.0415 11.9085 14.1635 12.2629 14.4632 12.3998L14.6294 12.0359C14.5374 11.9939 14.4948 11.8814 14.5397 11.7845L14.1768 11.6164ZM15.3957 9.90668C14.9167 10.3162 14.5178 10.8952 14.1775 11.6149L14.5391 11.7859C14.8647 11.0973 15.2336 10.5715 15.6556 10.2107L15.3957 9.90668ZM17.0691 9.25957C16.4558 9.25957 15.8781 9.49427 15.3957 9.90668L15.6556 10.2107C16.0742 9.85282 16.562 9.65957 17.0691 9.65957V9.25957Z" fill="white" mask="url(#path-1-outside-1_34674_6922)"/>
</svg>
