<svg fill="none" height="22" viewBox="0 0 14 22" width="14" xmlns="http://www.w3.org/2000/svg"><g fill="#333"><path d="m11.8529 6.26471c-.4551 0-.8235-.25831-.8235-.57739v-4.60994c0-.319077.3684-.57738.8235-.57738s.8236.258303.8236.57738v4.60994c0 .31908-.3685.57739-.8236.57739z"/><path d="m9.70588 6.26471c-.4551 0-.82353-.25831-.82353-.57739v-4.60994c0-.319077.36843-.57738.82353-.57738.45512 0 .82352.258303.82352.57738v4.60994c0 .31908-.3684.57739-.82352.57739z"/><g clip-rule="evenodd" fill-rule="evenodd"><path d="m10.7048 21.9118c-1.03209 0-1.87175-.8685-1.87175-1.9368 0-.4033.32001-3.8929.95282-10.37638-1.38526-.39287-2.3741-1.69523-2.3741-3.23167v-5.86695h6.58823v5.86695c0 1.53644-.9888 2.8388-2.3748 3.23167.6321 6.48418.9528 9.97378.9528 10.37638 0 1.0683-.8397 1.9368-1.8725 1.9368zm0-10.4465c-.6962 7.185-.77695 8.3546-.77695 8.5097 0 .4428.34885.8036.77695.8036s.777-.36.777-.8036c0-.1551-.0808-1.324-.777-8.5097zm-2.19824-5.09835v-4.73382h4.39724v4.73382c0 1.14506-.8289 2.09406-1.9287 2.20738l-.2696.02758-.2703-.02758c-1.09979-.11332-1.92864-1.06232-1.92864-2.20738z"/><path d="m3.29457 21.9118c-1.03169 0-1.87173-.8685-1.87173-1.9368 0-.4041.31988-3.8937.95243-10.37638-1.38542-.39287-2.37387513-1.69523-2.37387513-3.23167-.00360224-.12673-.07132437-3.47171 1.40703513-5.04245.51512-.54718 1.14984-.8245 1.88614-.8245.73629 0 1.37101.27732 1.88541.8245 1.47798 1.57033 1.40995 4.91398 1.40704 5.05725v.00011c0 1.52302-.98846 2.82464-2.37316 3.21676.63183 6.48418.95243 9.97378.95243 10.37638 0 1.0683-.83932 1.9368-1.87172 1.9368zm0-10.4465c-.69596 7.1842-.77665 8.3546-.77665 8.5097 0 .4428.3487.8036.77665.8036.42794 0 .77664-.36.77664-.8036 0-.1551-.08069-1.324-.77664-8.5097zm-1.10085-9.35058c.30547-.32354.66569-.48084 1.10085-.48084.43515 0 .79465.1573 1.10012.48084.95964 1.01833 1.11742 3.40462 1.09724 4.25298 0 1.14506-.82851 2.09406-1.92792 2.20737l-.26944.02759-.26945-.02759c-1.09941-.11331-1.92864-1.06306-1.92864-2.22228-.02018-.83345.1376-3.21974 1.09724-4.23807z"/></g></g></svg>