<svg fill="none" height="14" viewBox="0 0 20 14" width="20" xmlns="http://www.w3.org/2000/svg"><path clip-rule="evenodd" d="m14.2424 4.63636c.3215 0 .6298-.12451.8571-.34614.2273-.22164.355-.52223.355-.83567 0-.31345-.1277-.61404-.355-.83568-.2273-.22163-.5356-.34614-.8571-.34614-.3214 0-.6298.12451-.8571.34614-.2272.22164-.355.52223-.355.83568 0 .31344.1278.61403.355.83567.2273.22163.5357.34614.8571.34614zm0 1.77273c.8037 0 1.5744-.31128 2.1428-.86536.5683-.55409.8875-1.30559.8875-2.08918 0-.7836-.3192-1.5351-.8875-2.08918-.5684-.554089-1.3391-.86537-2.1428-.86537-.8036 0-1.5744.311281-2.1428.86537-.5682.55408-.8875 1.30558-.8875 2.08918 0 .78359.3193 1.53509.8875 2.08918.5684.55408 1.3392.86536 2.1428.86536zm-2.7272 7.09091v-2.3636c0-.862-.3512-1.68864-.9764-2.29813-.62508-.6095-1.47292-.95191-2.35698-.95191h-4.84849c-.88406 0-1.7319.34241-2.357015.95191-.625127.60949-.976315 1.43613-.976315 2.29813v2.3636h1.81818v-2.3636c0-.8155.67879-1.47731 1.51515-1.47731h4.84849c.83636 0 1.51515.66181 1.51515 1.47731v2.3636zm8.4848-2.3636v2.3636h-1.8182v-2.3636c0-.8155-.6788-1.47731-1.5151-1.47731h-3.0303v-1.77273h3.0303c.884 0 1.7318.34241 2.3569.95191.6252.60949.9764 1.43613.9764 2.29813zm-13.0303-7.68185c0 .31344-.12771.61403-.35502.83567-.22732.22163-.53563.34614-.8571.34614-.32148 0-.62979-.12451-.85711-.34614-.22731-.22164-.35502-.52223-.35502-.83567 0-.31345.12771-.61404.35502-.83568.22732-.22163.53563-.34614.85711-.34614.32147 0 .62978.12451.8571.34614.22731.22164.35502.52223.35502.83568zm1.81818 0c0 .78359-.31926 1.53509-.88755 2.08918-.56829.55408-1.33907.86536-2.14275.86536-.80369 0-1.57446-.31128-2.14276-.86536-.56829-.55409-.88755-1.30559-.88755-2.08918 0-.7836.31926-1.5351.88755-2.08918.5683-.554089 1.33907-.86537 2.14276-.86537.80368 0 1.57446.311281 2.14275.86537.56829.55408.88755 1.30558.88755 2.08918z" fill="#000" fill-rule="evenodd"/></svg>