<svg fill="none" height="22" viewBox="0 0 22 22" width="22" xmlns="http://www.w3.org/2000/svg" xmlns:xlink="http://www.w3.org/1999/xlink"><mask id="a" fill="#000" height="14" maskUnits="userSpaceOnUse" width="14" x="4.06522" y="3.1521"><path d="m4.06522 3.1521h14v14h-14z" fill="#fff"/><path clip-rule="evenodd" d="m9.0298 15.8295c0 .6114.49851 1.1052 1.1052 1.1052h2.643c.6114 0 1.1052-.4985 1.1052-1.1052v-2.643c0-.1176.0988-.2164.2164-.2164h2.643c.6114 0 1.1052-.4985 1.1052-1.1052v-2.64302c0-.61139-.4985-1.1052-1.1052-1.1052h-2.643c-.1176 0-.2164-.09876-.2164-.21633v-2.64306c0-.61138-.4985-1.10519-1.1052-1.10519h-2.643c-.61139 0-1.1052.49851-1.1052 1.10519v2.64306c0 .11757-.09876.21633-.21634.21633h-2.64305c-.61138 0-1.10519.49852-1.10519 1.1052v2.64302c0 .6114.49851 1.1052 1.10519 1.1052h2.64305c.11758 0 .21634.0988.21634.2164zm-3.07102-6.60292c0-.11757.09876-.21634.21633-.21634h3.30147c.24455 0 .44208-.19752.44208-.44207v-3.30147c0-.11758.09874-.21634.21634-.21634h2.643c.1176 0 .2164.09876.2164.21634v3.30147c0 .24455.1975.44207.4421.44207h3.3014c.1176 0 .2164.09877.2164.21634v2.64302c0 .1176-.0988.2164-.2164.2164h-3.3014c-.2446 0-.4421.1975-.4421.442v3.3015c0 .1176-.0988.2164-.2164.2164h-2.643c-.1176 0-.21634-.0988-.21634-.2164v-3.3015c0-.2445-.19753-.442-.44208-.442h-3.30147c-.11757 0-.21633-.0988-.21633-.2164z" fill="#000" fill-rule="evenodd"/></mask><path d="m21.5084 9.58071.0002.00113c.0577.46656.0914.94326.0914 1.41576 0 5.8459-4.7554 10.6024-10.6 10.6024-5.84457 0-10.6-4.7565-10.6-10.6024 0-5.84581 4.75543-10.602416 10.6001-10.597596m10.5083 9.180706-10.5084-9.080706m10.5084 9.080706c-.1108-.81894-.3131-1.62382-.612-2.39531l-.0001-.00024c-.1973-.50546-.4333-1.00666-.7083-1.47946l-.0001-.00029c-.099-.16883-.2796-.27381-.4777-.27381-.0912 0-.1912.02246-.2768.07691-.1268.0755-.2134.19179-.2535.32926-.0416.14274-.0175.29473.0521.41654l.0003.00042c.2454.42495.458.87375.6328 1.32738.2645.68973.4487 1.40776.5478 2.14469l.0001.00017c.0566.41543.085.84533.085 1.27063 0 5.239-4.2603 9.5001-9.498 9.5001s-9.49795-4.2611-9.49795-9.5001c0-5.23893 4.26025-9.50012 9.49795-9.50012 1.6673 0 3.3062.43937 4.7419 1.26604l.0003.00016c.0801.0458.1782.07524.2739.07524.1981 0 .3787-.10498.4777-.2738l.0003-.00055c.1513-.26186.0645-.60022-.2036-.7524m5.2179 7.76854-5.2679-7.68198m-5.2404-1.498726-.0001.1m.0001-.1h-.0001v.1m.0001-.1c1.8596.000014 3.6905.486691 5.2904 1.412166m-5.2905-1.312166c1.8423 0 3.6559.482155 5.2405 1.398726m.05-.08656c-.0003-.00016-.0005-.00033-.0008-.00049l-.0492.08705m.05-.08656-.05.08656" fill="#fff" stroke="#000" stroke-width=".2"/><path clip-rule="evenodd" d="m9.0298 15.8295c0 .6114.49851 1.1052 1.1052 1.1052h2.643c.6114 0 1.1052-.4985 1.1052-1.1052v-2.643c0-.1176.0988-.2164.2164-.2164h2.643c.6114 0 1.1052-.4985 1.1052-1.1052v-2.64302c0-.61139-.4985-1.1052-1.1052-1.1052h-2.643c-.1176 0-.2164-.09876-.2164-.21633v-2.64306c0-.61138-.4985-1.10519-1.1052-1.10519h-2.643c-.61139 0-1.1052.49851-1.1052 1.10519v2.64306c0 .11757-.09876.21633-.21634.21633h-2.64305c-.61138 0-1.10519.49852-1.10519 1.1052v2.64302c0 .6114.49851 1.1052 1.10519 1.1052h2.64305c.11758 0 .21634.0988.21634.2164zm-3.07102-6.60292c0-.11757.09876-.21634.21633-.21634h3.30147c.24455 0 .44208-.19752.44208-.44207v-3.30147c0-.11758.09874-.21634.21634-.21634h2.643c.1176 0 .2164.09876.2164.21634v3.30147c0 .24455.1975.44207.4421.44207h3.3014c.1176 0 .2164.09877.2164.21634v2.64302c0 .1176-.0988.2164-.2164.2164h-3.3014c-.2446 0-.4421.1975-.4421.442v3.3015c0 .1176-.0988.2164-.2164.2164h-2.643c-.1176 0-.21634-.0988-.21634-.2164v-3.3015c0-.2445-.19753-.442-.44208-.442h-3.30147c-.11757 0-.21633-.0988-.21633-.2164z" fill="#303030" fill-rule="evenodd"/><path d="m10.135 16.8347c-.55174 0-1.0052-.4493-1.0052-1.0052h-.2c0 .6669.54356 1.2052 1.2052 1.2052zm2.643 0h-2.643v.2h2.643zm1.0052-1.0052c0 .5517-.4493 1.0052-1.0052 1.0052v.2c.6669 0 1.2052-.5436 1.2052-1.2052zm0-2.643v2.643h.2v-2.643zm.3164-.3164c-.1728 0-.3164.1436-.3164.3164h.2c0-.0624.054-.1164.1164-.1164zm2.643 0h-2.643v.2h2.643zm1.0052-1.0052c0 .5518-.4493 1.0052-1.0052 1.0052v.2c.6669 0 1.2052-.5435 1.2052-1.2052zm0-2.64302v2.64302h.2v-2.64302zm-1.0052-1.0052c.5518 0 1.0052.44932 1.0052 1.0052h.2c0-.66689-.5435-1.2052-1.2052-1.2052zm-2.643 0h2.643v-.2h-2.643zm-.3164-.31633c0 .1728.1436.31633.3164.31633v-.2c-.0624 0-.1164-.05399-.1164-.11633zm0-2.64306v2.64306h.2v-2.64306zm-1.0052-1.00519c.5518 0 1.0052.44931 1.0052 1.00519h.2c0-.66689-.5435-1.20519-1.2052-1.20519zm-2.643 0h2.643v-.2h-2.643zm-1.0052 1.00519c0-.55173.44931-1.00519 1.0052-1.00519v-.2c-.6669 0-1.2052.54356-1.2052 1.20519zm0 2.64306v-2.64306h-.2v2.64306zm-.31634.31633c.17281 0 .31634-.14353.31634-.31633h-.2c0 .06234-.05399.11633-.11634.11633zm-2.64305 0h2.64305v-.2h-2.64305zm-1.00519 1.0052c0-.55173.44931-1.0052 1.00519-1.0052v-.2c-.66689 0-1.20519.54357-1.20519 1.2052zm0 2.64302v-2.64302h-.2v2.64302zm1.00519 1.0052c-.55173 0-1.00519-.4493-1.00519-1.0052h-.2c0 .6669.54356 1.2052 1.20519 1.2052zm2.64305 0h-2.64305v.2h2.64305zm.31634.3164c0-.1728-.14353-.3164-.31634-.3164v.2c.06235 0 .11634.054.11634.1164zm0 2.643v-2.643h-.2v2.643zm-2.95469-6.91926c-.1728 0-.31633.14354-.31633.31634h.2c0-.06235.05399-.11634.11633-.11634zm3.30147 0h-3.30147v.2h3.30147zm.34208-.34207c0 .18932-.15276.34207-.34208.34207v.2c.29978 0 .54212-.24229.54212-.54207zm0-3.30147v3.30147h.20004v-3.30147zm.31634-.31634c-.17281 0-.31634.14354-.31634.31634h.20004c0-.06235.0539-.11634.1163-.11634zm2.643 0h-2.643v.2h2.643zm.3164.31634c0-.1728-.1435-.31634-.3164-.31634v.2c.0624 0 .1164.05399.1164.11634zm0 3.30147v-3.30147h-.2v3.30147zm.3421.34207c-.1894 0-.3421-.15275-.3421-.34207h-.2c0 .29978.2423.54207.5421.54207zm3.3014 0h-3.3014v.2h3.3014zm.3164.31634c0-.1728-.1436-.31634-.3164-.31634v.2c.0624 0 .1164.05399.1164.11634zm0 2.64302v-2.64302h-.2v2.64302zm-.3164.3164c.1728 0 .3164-.1436.3164-.3164h-.2c0 .0624-.054.1164-.1164.1164zm-3.3014 0h3.3014v-.2h-3.3014zm-.3421.342c0-.1893.1527-.342.3421-.342v-.2c-.2998 0-.5421.2423-.5421.542zm0 3.3015v-3.3015h-.2v3.3015zm-.3164.3164c.1729 0 .3164-.1436.3164-.3164h-.2c0 .0624-.054.1164-.1164.1164zm-2.643 0h2.643v-.2h-2.643zm-.31634-.3164c0 .1728.14353.3164.31634.3164v-.2c-.0624 0-.1163-.054-.1163-.1164zm0-3.3015v3.3015h.20004v-3.3015zm-.34208-.342c.18932 0 .34208.1527.34208.342h.20004c0-.2997-.24234-.542-.54212-.542zm-3.30147 0h3.30147v-.2h-3.30147zm-.31633-.3164c0 .1728.14353.3164.31633.3164v-.2c-.06234 0-.11633-.054-.11633-.1164zm0-2.64302v2.64302h.2v-2.64302z" fill="#000" mask="url(#a)"/></svg>