<svg fill="none" height="219" viewBox="0 0 280 219" width="280" xmlns="http://www.w3.org/2000/svg" xmlns:xlink="http://www.w3.org/1999/xlink"><clipPath id="a"><path d="m0 0h280v219h-280z"/></clipPath><g clip-path="url(#a)"><path d="m279.958 0 .042 219-280-.288s5.00471-5.119 29.8399-16.891c13.4887-6.954 9.581-36.055 9.581-36.055s-6.1676-33.981 20.9228-35.777c12.9143-1.052 21.3418-.283 25.8992-.604 2.6742-.198 20.6681-.188 20.9891-26.754.32-26.5651 4.025-41.4624 23.95-49.722 19.924-8.2595 47.358-1.287 58.54 5.1151 15.424 5.3932 7.072 1.1927 37.274 8.764 9.647-65.28894 52.962-66.7881 52.962-66.7881z" fill="#074c75"/><path d="m38.3757 134.397c0-1.066.8616-1.928 1.9256-1.928s1.9256.862 1.9256 1.928c0 1.065-.8616 1.928-1.9256 1.928-1.0546-.014-1.9115-.867-1.9256-1.928z" fill="#fff"/><path d="m129.543 116.413c0-1.066.862-1.929 1.926-1.929s1.925.863 1.925 1.929c0 1.065-.861 1.928-1.925 1.928-1.055-.014-1.912-.868-1.926-1.928z" fill="#fff"/><path d="m209.572 56.6762c0-1.0654.861-1.9282 1.925-1.9282s1.926.8628 1.926 1.9282c0 1.0655-.862 1.9282-1.926 1.9282-1.054-.0142-1.911-.8675-1.925-1.9282z" fill="#fff"/><path d="m196.422 166.676c0-1.065.861-1.928 1.925-1.928 1.065 0 1.926.863 1.926 1.928 0 1.066-.861 1.928-1.926 1.928-1.054-.014-1.911-.867-1.925-1.928z" fill="#fff"/><path d="m45.8333 145.481c0-1.066.8616-1.928 1.9256-1.928 1.0641 0 1.9256.862 1.9256 1.928 0 1.065-.8615 1.928-1.9256 1.928-1.0216.042-1.8832-.754-1.9256-1.777 0-.052 0-.099 0-.151z" fill="#fff"/><path d="m87.9284 152.141c0-.797.645-1.448 1.4454-1.448s1.4454.646 1.4454 1.448c0 .796-.645 1.447-1.4454 1.447-.7957 0-1.4407-.641-1.4454-1.433v-.01z" fill="#f8c233"/><path d="m228.734 91.2032c0-.7968.645-1.4473 1.445-1.4473s1.445.6458 1.445 1.4473c0 .8014-.645 1.4473-1.445 1.4473-.739.0565-1.389-.4998-1.445-1.2446-.005-.066-.005-.1367 0-.2027z" fill="#f8c233"/><path d="m178.861 193.49c0-.796.645-1.447 1.445-1.447s1.445.646 1.445 1.447c0 .802-.645 1.448-1.445 1.448-.796 0-1.441-.637-1.445-1.434 0 0 0-.009 0-.014z" fill="#f8c233"/><g fill="#fff"><path d="m171.403 113.762c0-.797.645-1.448 1.445-1.448.801 0 1.446.646 1.446 1.448 0 .801-.645 1.447-1.446 1.447-.795 0-1.44-.636-1.445-1.433 0 0 0-.01 0-.014z"/><path d="m260.085 19.9043c0-.7967.645-1.4473 1.445-1.4473s1.445.6459 1.445 1.4473c0 .8015-.645 1.4473-1.445 1.4473-.796 0-1.441-.6411-1.445-1.4331v-.0095z"/><path d="m275.4 32.1895c0-.7967.645-1.4473 1.446-1.4473.8 0 1.445.6459 1.445 1.4473s-.645 1.4473-1.445 1.4473c-.796 0-1.441-.6412-1.446-1.4332v-.0094z"/><path d="m133.395 65.5902c3.851-.8014 4.251-1.4473 4.811-7.0668.56 5.6195.961 6.2607 4.812 7.0668-3.851.8015-4.252 1.4473-4.812 6.9867-.56-5.5394-.96-6.1805-4.811-6.9867z"/><path d="m240.683 45.8382c3.851-.8014 4.251-1.4473 4.811-6.9866.561 5.6195.961 6.2606 4.812 6.9866-3.851.8015-4.251 1.4473-4.812 7.0668-.56-5.6195-1.04-6.2606-4.811-7.0668z"/><path d="m163.225 189.479c3.851-.802 4.251-1.447 4.812-6.987.56 5.62.96 6.261 4.811 6.987-3.851.801-4.251 1.447-4.811 7.067-.561-5.62-.961-6.261-4.812-7.067z"/><path d="m70.4473 149.733c1.6855-.24 1.8455-.401 2.0856-2.088.2402 1.687.4002 1.848 2.0857 2.088-1.6855.24-1.8455.401-2.0857 2.088-.2401-1.687-.4001-1.848-2.0856-2.088z"/><path d="m47.919 191.167c1.6855-.241 1.8456-.401 2.0857-2.089.2401 1.688.4002 1.848 2.0857 2.089-1.6855.24-1.8456.4-2.0857 2.088-.2401-1.688-.4002-1.848-2.0857-2.088z"/><path d="m36.6902 211.155c1.6855-.241 1.8456-.401 2.0857-2.089.2401 1.688.4002 1.848 2.0857 2.089-1.6855.24-1.8456.401-2.0857 2.088-.2401-1.607-.4002-1.848-2.0857-2.088z"/><path d="m215.184 122.356c1.685-.24 1.845-.401 2.085-2.088.24 1.687.4 1.848 2.086 2.088-1.686.24-1.846.401-2.086 2.088-.24-1.607-.4-1.848-2.085-2.088z"/><path d="m171.563 204.254c1.686-.24 1.846-.4 2.086-2.088.24 1.688.4 1.848 2.085 2.088-1.685.241-1.845.401-2.085 2.089-.16-1.608-.4-1.848-2.086-2.089z"/><path d="m265.702 103.725c3.851-.802 4.251-1.447 4.811-6.9867.56 5.6197.961 6.2607 4.812 6.9867-3.851.801-4.252 1.447-4.812 6.987-.56-5.54-1.04-6.181-4.811-6.987z"/><path d="m274.04 118.501c1.685-.241 1.845-.401 2.085-2.089.24 1.688.4 1.848 2.086 2.089-1.686.24-1.846.4-2.086 2.088-.24-1.688-.4-1.848-2.085-2.088z"/><path d="m163.865 52.1783c1.686-.2404 1.846-.4007 2.086-2.0885.24 1.6878.4 1.8481 2.086 2.0885-1.686.2404-1.846.4007-2.086 2.0884-.24-1.6877-.4-1.848-2.086-2.0884z"/><path d="m107.015 182.171c.81.274 1.248 1.151.979 1.961-.004.015-.009.029-.014.048-.306.806-1.186 1.225-2.005.961-.815-.297-1.239-1.202-.942-2.017.292-.807 1.172-1.226 1.982-.953z"/><path d="m114.228 170.693c.598.198.923.849.72 1.447-.202.599-.847.924-1.445.722-.598-.198-.923-.849-.721-1.448.156-.575.744-.919 1.319-.763.042.009.084.023.122.042z"/><path d="m97.6318 178.236c.8098.273 1.2476 1.15.9793 1.961-.0047.014-.0094.028-.0141.047-.3061.806-1.1865 1.226-2.0057.962-.8098-.273-1.2476-1.15-.9793-1.961.0047-.014.0094-.028.0142-.047.2071-.783 1.0122-1.25 1.7937-1.037.0707.018.1413.042.2119.075z"/><path d="m134.115 191.968c.598.198.923.848.72 1.447-.198.599-.847.924-1.445.722-.598-.199-.923-.849-.721-1.448.241-.561.853-.867 1.446-.721z"/><path d="m113.427 158.648c.806.306 1.225 1.188.961 2.008-.278.825-1.172 1.263-1.992.985-.824-.278-1.261-1.174-.984-1.994 0-.009.01-.024.014-.033.321-.792 1.187-1.207 2.006-.962z"/><path d="m100.838 195.179c.805.306 1.224 1.188.96 2.008-.291.816-1.186 1.249-2.0052.962-.8098-.274-1.2477-1.151-.9793-1.961.0047-.015.0094-.029.0141-.048.2919-.815 1.1864-1.249 2.0054-.961z"/><path d="m89.2937 204.814c.4661.156.7157.66.5603 1.122-.1554.463-.6591.717-1.1205.562-.4661-.156-.7157-.66-.5603-1.122.1413-.458.6262-.717 1.0829-.576.0141 0 .0282.01.0376.014z"/><path d="m106.555 183.36-.156.454 27.291 9.415.156-.454z"/><path d="m106.263 183.504-6.125 13 .434.205 6.126-12.999z"/><path d="m88.8135 205.536 11.3845-9.075.32.321-11.3843 9.075z"/><path d="m96.9915 179.844.1601-.401 9.3834 4.017-.16.401z"/><path d="m113.632 171.653-7.372 11.859.407.254 7.372-11.859z"/><path d="m112.707 160.17.48-.08.881 11.644-.4.08z"/><path d="m3.81354 70.4046-11.2241 4.4174-.08004-.3206 11.14407-4.4975z"/><path d="m3.8936 70.2436h-.40019l.40019-9.7163.40018.0802z"/><path d="m4.13371 60.7738-12.58946 6.8263-.24011-.3205 12.66949-6.9066z"/><path d="m3.57345 61.4948c-.53201-.264-.74858-.9146-.48022-1.4473.26365-.5328.91337-.7496 1.44539-.4809.53201.264.74858.9146.48022 1.4473-.20716.5139-.78625.759-1.29943.5563-.05179-.0189-.09887-.0424-.14596-.0707z"/><path d="m3.33332 70.8895c-.37665-.198-.5226-.6648-.32015-1.0419.19774-.3771.66384-.5233 1.04049-.3206.37664.198.52259.6647.32015 1.0419-.15066.363-.56498.5327-.9275.3819-.04237-.0189-.08004-.0378-.1177-.0613z"/><path d="m215.024 108.063c18.601-20.3144 53.003-22.8036 79.943-17.7451 13.079 2.4986 26.38 3.63 39.694 3.3708 3.046-7.3073 4.572-14.2939 3.606-20.4744-23.893 2.409-50.437-2.5693-32.396-21.5964-2.486-.4007-5.052-.7213-7.858-.9617-3.686-.4008-6.977-.8015-10.023-1.2871-6.055 4.7662-12.684 8.7593-19.727 11.8849-33.197 14.5343-76.337 6.7462-111.7 12.4459-45.226 7.227-86.6807 25.5328-122.6835 48.1761-16.9209 10.678-31.91153 20.875-46.2665 30.591 3.12615 6.426 6.57719 12.766 10.34367 18.867 28.54523-21.196 58.77593-43.518 93.57813-58.774 48.8322-21.4359 111.1342-2.89 77.5372 41.27-.08.08-.08.16-.16.24l-.16.16c-.08.151-.188.288-.32.401-.08.08-.16.24-.24.321l-.24.24c-13.63 17.023-38.009 28.743-62.062 35.97-24.939 7.468-43.0604 18.947-61.9023 30.271 7.0057 4.894 14.501 9.042 22.3729 12.366 4.0113-5.299 10.0236-9.476 21.8927-11.239 97.9047-14.935 82.8297-66.482 126.7747-114.497z" opacity=".3"/><path d="m279.967 218.919h-89.623c-1.432-8.392-1.304-16.972.381-25.316 3.517-17.335 13.654-32.614 28.249-42.585 17.937-12.219 40.682-14.958 60.998-7.335v75.241z"/></g><path d="m261.191 139.431s-9.35 9.23-9.736 12.181c-.283 1.641.183 3.324 1.271 4.583 0 0 5.998 3.738 11.77-3.814 5.772-7.553 8.588-10.966 8.588-10.966l-11.888-1.989z" fill="#fcb22a"/><path d="m248.267 139.431s-5.31 20.833-53.389 40.878c-48.084 20.045 12.453-23.807 12.453-23.807l30.871-20.508 10.07 3.442z" fill="#fcb22a"/><path d="m189.896 198.243s37.444-29.253 52.783-30.318c15.334-1.07 9.642 9.627 9.642 9.627s-4.906 11.583-37.825 27.649c-32.919 16.071-16.459 20.314-25.645 13.978-3.63-4.568 1.045-20.936 1.045-20.936z" fill="#fcb22a"/><path d="m280.443 146.682s-11.107 9.325-19.798 27.386-15.508 22.19-23.503 27.81c-7.994 5.619-21.789 9.655-21.789 9.655s-12.1 5.077-12.458 8.019c-.357 2.942 52.788 1.155 52.788 1.155s7.311-8.118 27.519-9.636c20.207-1.518-2.759-24.868-2.759-24.868s-3.503-6.072-.627-8.401c2.877-2.329.627-31.124.627-31.124z" fill="#fcb22a"/><path d="m153.927 144.541s-22.053 1.499-24.412 11.932c-2.363 10.428 5.339 12.649 5.339 12.649s9.266.834 22.66-6.322c13.395-7.161-3.583-18.259-3.583-18.259z" fill="#4687c7"/><path d="m151.991 144.928s-16.878 3.946-19.646 12.196c-2.764 8.25 6.275 10.39 6.275 10.39s11.507-.49 15.038-3.493-1.671-19.093-1.671-19.093z" fill="#67cce6"/><path d="m238.154 173.912s10.542 5.436 11.248 11.22c.706 5.785-1.215 14.954-12.472 13.865-4.675-.273-10.372-13.172-10.372-13.172z" fill="#4687c7"/><path d="m227.161 186.621s6.591 9.679 8.63 10.028 13.531-1.712 11.85-12.578c-2.373-4.889-8.352-8.675-8.352-8.675z" fill="#67cce6"/><path d="m180.282 82.5667s1.187 27.5463 0 34.6363c-.866 4.276-10.315 12.889-10.315 12.889s-3.799-.127-4.313 5.775c-2.005-.222-7.947 7.336-7.947 7.336l-8.418 2.423s-8.008 4.818-6.794 10.612c1.215 5.794 8.517 8.585 8.517 8.585h12.966s5.942-1.731 15.951-12.588c.74.151 1.507.151 2.246 0 .598-.297 1.092-.759 1.422-1.339 3.121-.169 3.324-2.503 3.324-2.503l9.077-7.307s3.833-1.023 4.101.287c1.022 5.799 9.821 13.111 9.821 13.111s-1.69 2.173 2.09 3.87c1.201 2.81 5.052 9.34 5.052 9.34s.113 6.491 2.858 8.212c-.019 1.56.541 3.074 1.572 4.248 0 0 2.651 6.425 12.435 9.334 9.778 2.909 6.977-11.112 6.977-11.112s-1.276-3.026-1.78-3.314c-.499-.287-1.229-9.636-1.229-9.636l-6.045-17.679c.424-1.527-.037-3.163-1.196-4.238-1.977-1.754-7.071-11.715-7.071-11.715s.188-6.1 1.408-10.056c1.219-3.955 3.757-13.101 3.954-17.971 1.243 1.546 4.261 2.786 4.261 2.786l10.777 15.18s1.615-7.91 6.398-7.938c1.695-.019 4.205 1.268 7.303 5.482.174-1.306.193-2.626.061-3.936-.396-1.853-1.149-3.611-2.213-5.181-1.13-1.613-2.345-3.164-3.644-4.644-5.763-9.7821-7.867-13.8082-7.867-13.8082.555-2.6259-.363-5.346-2.392-7.095-2.095-1.5558-3.771-5.959-8.983-7.2036-3.814-2.6211-5.687-2.9606-5.687-2.9606s4.576-.9476 5.687-8.4952c2.199-9.1081 2.09-21.4785 2.09-21.4785s-9.712-9.6456-27.669-7.9484c-7.632 4.5352-8.955 25.679-8.734 27.89.222 2.211 1.102 3.4603 3.117 4.8982-1.921-.1603-3.856.0424-5.701.5987-.137-2.2487-1.559-4.2146-3.649-5.0396-1.135-1.0796-13.451-26.009-13.451-26.009s-1.187-.792-1.62-.5139c-.471 1.4945-7.712 8.3444-13.898 7.7363-2.269 2.8003 2.486 7.6325 2.486 7.6325s6.52 15.7412 9.665 17.9145c.669 7.8729 5.019 10.9231 5.019 10.9231z" fill="#fff" stroke="#36434c" stroke-width="2"/><path d="m166.464 133.69s7.312 1.551 16.921 16.797c3.178-.043 3.159-2.338 3.159-2.338s-10.216-17.024-16.478-17.637c-2.641-.104-3.597 3.178-3.597 3.178z" fill="#fcb22a"/><path d="m157.547 144.277c-.395.118-10.254 9.42 1.704 19.673 1.869-.089 2.444.038 3.706-.085-8.315-6.784-4.431-19.63-5.41-19.583z" fill="#c2cdd3"/><path d="m200.038 62.5263s5.696 10.3668 28.879 7.9153c7.467-11.9037 1.318-26.5511-11.04-27.9701-21.083-.3583-17.839 20.0548-17.839 20.0548z" fill="#074c75" stroke="#fff" stroke-miterlimit="10" stroke-width=".32"/><path d="m225.857 48.8828s-1.926-1.0372-1.742.8721c1.205 1.4473 2.514 2.8051 3.908 4.0732l1.073 2.0555s1.238 9.1788 1.511 7.3119c1.168-10.8571-4.75-14.308-4.75-14.308z" fill="#fff"/><path d="m195.273 42.1267c1.384-.8156 4.101-1.4048 5.664 1.4662.056 3.3613-1.53 9.7068-2.51 9.8152-2.269.5893-4.053.0566-4.651-1.9328-.542-2.6825.136-6.0957 1.497-9.3439z" fill="#fcb22a"/><path d="m235.852 50.9999c1.384-.8156 3.155-1.6783 4.722 1.1927.057 3.3613-.607 9.523-1.586 9.6361-2.27.5893-4.03.5092-4.628-1.4803.155-3.432.136-6.1004 1.497-9.3485z" fill="#fcb22a"/><path d="m201.036 45.0222s22.891-13.285 33.851 7.2459c.937-2.706.202-7.9578.202-7.9578s-9.929-10.0792-28.112-8.1228c-3.248 1.0089-5.941 8.8394-5.941 8.8394z" fill="#4687c7"/><path d="m191.836 65.2176s-9.369 1.4237-15.927 8.1605c.301 2.1545 1.059 4.2146 2.222 6.0485 0 0 15.391-5.2565 17.166-8.9855.127-2.3195-1.281-4.4409-3.461-5.2282z" fill="#fcb22a"/><path d="m241.568 85.1562c-2.637 7.0291-6.413 13.5679-11.182 19.3568.946.722 1.992 1.301 3.103 1.726 0 0 8.211-7.6846 10.08-14.544.998-3.8799-2.001-6.5388-2.001-6.5388z" fill="#fcb22a"/><path d="m210.466 154.446c7.42-1.844 14.275-5.469 19.981-10.565 1.714 1.15 1.003 3.814 1.003 3.814-5.202 5.275-11.855 8.877-19.115 10.343-3.898-1.598-1.869-3.597-1.869-3.597z" fill="#fcb22a"/><path d="m222.218 180.007s10.216 2.235 16.525-4.667c.358-.552.88 2.348-1.064 4.667-3.38 2.088-10.706 4.054-13.263 2.357-2.556-1.697-2.198-2.357-2.198-2.357z" fill="#c2cdd3"/><path d="m194.011 85.6973s14.228-3.3048 27.788 3.3047c-1.813 9.9096-3.122 19.909-3.932 29.95 0 0-16.068 3.182-27.599-3.47 1.912-4.422 3.739-29.7847 3.739-29.7847z" fill="#c2cdd3"/><path d="m164.054 45.8275c-1.554-.4243-3.546-2.6118-5.203-5.9495-.315-.5988-.315-1.3153 0-1.9188l-7.09-7.3496s-.942-3.3472 1.954-2.5364c2.834 1.7349 6.148 5.5865 6.148 5.5865l6.545-3.4226v-7.8918s1.718-4.0685 3.804 0c.508 4.6814.555 8.2643.555 8.2643s4.671 6.3549 4.708 8.3962c.038 2.0413-7.264 6.6001-11.417 6.8169z" fill="#4687c7"/><path d="m159.798 33.1975s-.377-3.0125 3.036-1.9894c2.109 1.9281 3.715 4.6483 3.842 5.8363-.028 1.3907-2.867.8486-3.959-.2734-1.196-.9947-2.19-2.2063-2.919-3.5782z" fill="#67cce6"/><path d="m163.056 31.4119s-.429-2.8333 2.984-1.8103c1.775 1.7537 3.004 3.9836 3.536 6.4257-.028 1.3907-2.161 1.1267-3.248 0-.829-1.7066-1.935-3.2671-3.272-4.6154z" fill="#67cce6"/><path d="m172.999 31.8958s2.886-.4196 3.027 2.0696c.085 1.5699.085 3.1398 0 4.7096 0 0-1.341 1.1692-3.027-.4337-1.69-1.6029-1.375-2.0837-5.235-2.8899-2.5-.9004-1.192-3.6112-.82-3.4509 1.13-.066 6.055 0 6.055 0z" fill="#fff" stroke="#36434c" stroke-width="2"/><path d="m250.701 127.386c1.992 0 3.607-1.616 3.607-3.611 0-1.994-1.615-3.611-3.607-3.611-1.991 0-3.606 1.617-3.606 3.611 0 1.995 1.615 3.611 3.606 3.611z" fill="#4687c7"/><path d="m244.699 120.045s4.077-11.39 11.403-2.484c7.325 8.905.565 20.738.565 20.738s-3.004 1.103-2.237-2.545c.768-3.649 1.342-5.889 1.158-5.776-1.012 6.865-1.887 6.228-1.887 6.228s-2.444-.641-.914-3.234 1.342-6.76 1.116-6.657c.57 5.488-2.024 7.058-2.024 7.058s-2.698 1.23-1.837-3.23c2.053-5.76.264-8.151.264-8.151s-2.519 6.219-4.129 6.978c-.739.358-1.634.047-1.992-.693-.136-.283-.178-.604-.127-.91-.372-2.23.636-7.322.636-7.322z" fill="#67cce6"/><path d="m211.7 105.921-.396 3.21-3.183-.391.396-3.21zm-4.106-.505-.395 3.211-3.183-.391.395-3.211zm-4.101-.504-.395 3.21-3.183-.391.396-3.21zm8.715-3.14-.395 3.211-3.183-.392.395-3.21zm-4.105-.504-.396 3.21-3.183-.391.396-3.21zm-4.106-.505-.395 3.211-3.183-.391.395-3.211zm8.715-3.1441-.396 3.2101-3.182-.391.395-3.2104zm-4.106-.5044-.395 3.2105-3.183-.3914.396-3.2104zm-4.1-.5045-.396 3.2105-3.183-.3913.396-3.2104z" fill="#074b75"/><path d="m77.8343 138.342-2.9332 12.324c-.8333 3.46-3.7853 3.366-4.4868-.099l-2.5424-12.319 9.9577.094z" fill="#fff"/><path d="m77.2881 132.686-2.4811 12.305c-.7204 3.436-3.2251 3.394-3.8089-.095l-2.1327-12.304z" fill="#004d77" opacity=".105"/><path d="m80.0047 125.812c3.0131 5.271 4.6092 11.235 4.628 17.307.0141.353-.2636.65-.6214.665-.1837.004-.3626-.066-.485-.198-1.7373-1.891-3.6299-3.626-5.6591-5.196l2.1375-12.573z" fill="#69cce3"/><path d="m65.9746 125.629c-3.1827 5.172-4.9671 11.083-5.1742 17.151 0 .363.2919.655.6544.655.1695 0 .3295-.066.452-.179 1.8502-1.829 3.8512-3.503 5.9698-5.012z" fill="#69cce3"/><path d="m67.161 134.93c.1648 1.117.4049 2.225.7156 3.314l4.9765.047 5.0518.057c.306-1.094.5556-2.202.7439-3.324l-11.4925-.094z" fill="#4584c5"/><path d="m73.6911 97.7947c1.3983 1.6359 2.613 3.4183 3.6206 5.3223l-8.1592-.099c1.0311-1.904 2.307-3.6628 3.79-5.2374.1648-.2027.4661-.231.6686-.066.0282.0235.0565.0518.08.0848z" fill="#4584c5"/><path d="m77.3117 103.117c2.2457 4.262 3.4275 8.999 3.4416 13.818-.0236 4.162-1.1205 12.846-2.1375 18.121l-11.4218-.089c-1.0029-6.016-1.5725-12.092-1.7091-18.188.0801-4.813 1.3512-9.528 3.7006-13.728l8.1262.061z" fill="#ebf0f0"/><path d="m77.3117 103.117c2.2457 4.262 3.4275 8.999 3.4416 13.818-.0236 4.162-1.1205 12.846-2.1375 18.121l-11.4218-.089c-1.0029-6.016-1.5725-12.092-1.7091-18.188.0801-4.813 1.3512-9.528 3.7006-13.728l8.1262.061z" fill="#fff"/><path d="m72.8719 143.703c.2919.014.5414-.213.5556-.51 0-.018 0-.042 0-.061 0 0 1.2193-6.303 1.2099-8.368-.1977-2.777-.5461-5.534-1.0499-8.273.0189-.293-.2071-.543-.4943-.557-.0236 0-.0471 0-.0754 0-.2919-.014-.5414.212-.5555.509v.062c-.5744 2.739-.9981 5.506-1.2759 8.287-.033 2.098 1.0734 8.387 1.0734 8.387.0377.307.3014.533.6121.524z" fill="#69cce3"/><path d="m72.2693 143.099s-1.1017-6.289-1.0735-8.387c.2778-2.782.7015-5.549 1.2759-8.288-.0188-.297.2072-.552.5038-.57h.0518s-1.8315 6.717-.1601 17.843c-.3295.005-.5979-.254-.6026-.584 0 0 0-.01 0-.014z" fill="#4584c5"/><path d="m71.0546 110.155 5.1271 5.28c.0518-.108.1318-.169.1836-.278l-4.9859-5.19c-.0894.089-.2024.151-.3248.188z" fill="#fff" opacity=".4"/><path d="m73.0132 117.227c2.0931 0 3.79-1.699 3.79-3.795s-1.6969-3.795-3.79-3.795c-2.0932 0-3.7901 1.699-3.7901 3.795s1.6969 3.795 3.7901 3.795z" fill="#4584c5"/><path d="m71.7608 109.869 4.7929 4.941c.1177-.344.1977-.698.2401-1.061l-3.8889-4.04c-.3861-.052-.7816 0-1.1441.16z" fill="#fff" opacity=".4"/><path d="m63.9972 159.161c8.6911-4.172 19.1148-.5 23.2862 8.203 4.1667 8.702.4991 19.14-8.1921 23.317-8.6911 4.172-19.1148.5-23.2862-8.203 0 0 0-.005 0-.009-4.1243-8.703-.4661-19.112 8.1968-23.308z" fill="#69cce4"/><path d="m40.1507 191.124c.6167 1.273 2.2551 1.805 4.6704 1.805 3.936 0 9.8776-1.475 16.4736-3.898 4.8917-1.768 9.694-3.781 14.3833-6.03 4.5339-2.145 8.9501-4.531 13.2344-7.138 9.9153-5.992 16.9636-12.101 15.3246-15.467-1.925-4.022-13.5214-.618-20.6541 1.885.4519.453.8992.901 1.3088 1.396 11.8833-4.102 17.1283-3.819 17.7453-2.546.696 1.476-3.5645 6.36-13.7293 12.639-4.5339 2.782-9.209 5.313-14.016 7.59-4.9529 2.391-10.0235 4.512-15.2024 6.36-10.984 3.819-17.2505 4.021-17.9473 2.583-.6168-1.23 2.3352-5.416 12.7024-11.941-.1365-.636-.2307-1.278-.2872-1.928-6.2711 3.936-15.8992 10.749-14.016 14.685z" fill="#004d77" opacity=".15"/></g></svg>