<svg fill="none" height="13" viewBox="0 0 17 13" width="17" xmlns="http://www.w3.org/2000/svg"><path clip-rule="evenodd" d="m3.04194 8.05075-1.97944-.41643h-.53125c-.140896 0-.276022-.05568-.37565-.15479-.0996291-.0991-.1556-.23352-.1556-.37368v-3.17081c0-.14016.0559709-.27458.1556-.37368.099628-.09911.234754-.15478.37565-.15478h.53125l13.8125-2.90658h2.125v10.0409h-2.125l-4.0949-.86141.0276.00846c-.2897.94945-.92701 1.75635-1.78585 2.26095-.85883.5048-1.87675.6707-2.85259.465s-1.83863-.768-2.41786-1.5759c-.57923-.8078-.83278-1.80243-.71053-2.78725zm1.56931.33083c-.03415.56889.13812 1.13108.48548 1.58428.34735.45324.8467.76734 1.40721.88524.56052.1179 1.14494.0317 1.64699-.2429.50203-.2745.88831-.71923 1.08857-1.25319zm-3.0175-3.46676 13.44805-2.82942h.3644v6.87009h-.3644l-13.44805-2.82942z" fill="#000" fill-rule="evenodd"/></svg>