<svg fill="none" height="33" viewBox="0 0 30 33" width="30" xmlns="http://www.w3.org/2000/svg"><path clip-rule="evenodd" d="m.315918 3.13607v-2.668297h29.026082v2.668297zm-.000007 4.44742h16.327189v2.66831h-16.327189zm16.327189 7.11511h-14.51306c-1.08848 0-1.814129.7116-1.814129 1.7789v14.7645c0 .5337.362827 1.2452 1.088479 1.4231.18141.1779.36283.1779.54424.1779.36283 0 .90707-.1779 1.08848-.5336l3.26544-3.202h10.34055c1.0885 0 1.8141-.7115 1.8141-1.7789v-10.851c0-1.0673-.7256-1.7789-1.8141-1.7789zm-11.42904 11.7406h10.52194v-9.0722h-12.6989v11.2068z" fill="#fff" fill-rule="evenodd"/></svg>