<svg width="60" height="60" viewBox="0 0 60 60" fill="none" xmlns="http://www.w3.org/2000/svg">
<rect width="60" height="60" rx="30" fill="#9CA2A7" fill-opacity="0.25"/>
<g clip-path="url(#clip0_1223_7319)">
<path d="M30 35C27.24 35 25 32.76 25 30C25 27.24 27.24 25 30 25C32.76 25 35 27.24 35 30C35 32.76 32.76 35 30 35ZM31 22V19C31 18.45 30.55 18 30 18C29.45 18 29 18.45 29 19V22C29 22.55 29.45 23 30 23C30.55 23 31 22.55 31 22ZM31 41V38C31 37.45 30.55 37 30 37C29.45 37 29 37.45 29 38V41C29 41.55 29.45 42 30 42C30.55 42 31 41.55 31 41ZM23 30C23 29.45 22.55 29 22 29H19C18.45 29 18 29.45 18 30C18 30.55 18.45 31 19 31H22C22.55 31 23 30.55 23 30ZM42 30C42 29.45 41.55 29 41 29H38C37.45 29 37 29.45 37 30C37 30.55 37.45 31 38 31H41C41.55 31 42 30.55 42 30ZM24.71 24.71C25.1 24.32 25.1 23.69 24.71 23.3L22.71 21.3C22.32 20.91 21.69 20.91 21.3 21.3C20.91 21.69 20.91 22.32 21.3 22.71L23.3 24.71C23.5 24.91 23.75 25 24.01 25C24.27 25 24.52 24.9 24.72 24.71H24.71ZM38.71 38.71C39.1 38.32 39.1 37.69 38.71 37.3L36.71 35.3C36.32 34.91 35.69 34.91 35.3 35.3C34.91 35.69 34.91 36.32 35.3 36.71L37.3 38.71C37.5 38.91 37.75 39 38.01 39C38.27 39 38.52 38.9 38.72 38.71H38.71ZM22.71 38.71L24.71 36.71C25.1 36.32 25.1 35.69 24.71 35.3C24.32 34.91 23.69 34.91 23.3 35.3L21.3 37.3C20.91 37.69 20.91 38.32 21.3 38.71C21.5 38.91 21.75 39 22.01 39C22.27 39 22.52 38.9 22.72 38.71H22.71ZM36.71 24.71L38.71 22.71C39.1 22.32 39.1 21.69 38.71 21.3C38.32 20.91 37.69 20.91 37.3 21.3L35.3 23.3C34.91 23.69 34.91 24.32 35.3 24.71C35.5 24.91 35.75 25 36.01 25C36.27 25 36.52 24.9 36.72 24.71H36.71Z" fill="white"/>
</g>
<defs>
<clipPath id="clip0_1223_7319">
<rect width="24" height="24" fill="white" transform="translate(18 18)"/>
</clipPath>
</defs>
</svg>
