<?xml version="1.0" standalone="no"?>
<!DOCTYPE svg PUBLIC "-//W3C//DTD SVG 20010904//EN"
 "http://www.w3.org/TR/2001/REC-SVG-20010904/DTD/svg10.dtd">
<svg version="1.0" xmlns="http://www.w3.org/2000/svg"
 width="346.000000pt" height="196.000000pt" viewBox="0 0 346.000000 196.000000"
 preserveAspectRatio="xMidYMid meet">

<g transform="translate(0.000000,196.000000) scale(0.100000,-0.100000)"
fill="#000000" stroke="none">
<path d="M20 1785 l0 -155 165 0 165 0 0 155 0 155 -165 0 -165 0 0 -155z
m215 80 c44 -43 31 -112 -24 -135 -60 -24 -121 14 -121 75 0 76 92 114 145 60z"/>
<path d="M133 1868 c-8 -9 -7 -24 3 -53 7 -22 14 -42 14 -45 1 -3 5 5 11 18 6
15 5 30 -1 43 -9 16 -7 19 9 19 13 0 21 -9 26 -30 11 -50 26 -46 23 7 -3 47
-4 48 -39 51 -21 2 -40 -2 -46 -10z"/>
<path d="M100 1799 c0 -15 7 -33 16 -40 15 -12 16 -11 9 11 -14 46 -24 58 -25
29z"/>
<path d="M233 1789 c-7 -18 -11 -34 -9 -37 7 -7 27 39 24 55 -2 9 -8 2 -15
-18z"/>
<path d="M167 1768 c-10 -34 -9 -38 8 -38 16 0 20 27 6 48 -6 10 -10 8 -14
-10z"/>
<path d="M487 1893 c-11 -11 -8 -161 3 -168 6 -4 48 -7 93 -7 l82 -1 3 91 3
92 -89 0 c-49 0 -92 -3 -95 -7z m109 -83 c0 -9 -7 -16 -16 -16 -9 0 -16 7 -16
16 0 9 7 16 16 16 9 0 16 -7 16 -16z"/>
<path d="M101 1488 c-1 -28 21 -39 34 -18 3 5 0 7 -9 4 -9 -4 -16 2 -19 18 -4
21 -4 20 -6 -4z"/>
<path d="M152 1490 c0 -14 2 -19 5 -12 2 6 2 18 0 25 -3 6 -5 1 -5 -13z"/>
<path d="M1041 1492 c-1 -20 2 -21 19 -12 17 9 20 30 4 30 -3 0 -2 -4 1 -10 3
-5 2 -10 -4 -10 -5 0 -12 6 -14 13 -3 6 -6 2 -6 -11z"/>
<path d="M1132 1490 c0 -14 2 -19 5 -12 2 6 2 18 0 25 -3 6 -5 1 -5 -13z"/>
<path d="M1162 1485 c0 -16 2 -22 5 -12 2 9 2 23 0 30 -3 6 -5 -1 -5 -18z"/>
<path d="M215 1490 c-8 -13 3 -30 18 -30 7 0 6 4 -3 10 -13 9 -13 11 0 20 9 6
10 10 3 10 -6 0 -15 -4 -18 -10z"/>
<path d="M260 1486 c0 -9 5 -16 10 -16 6 0 10 4 10 9 0 6 -4 13 -10 16 -5 3
-10 -1 -10 -9z"/>
<path d="M1100 1491 c0 -5 5 -13 10 -16 6 -3 10 -2 10 4 0 5 -4 13 -10 16 -5
3 -10 2 -10 -4z"/>
<path d="M1185 1490 c-8 -13 3 -30 18 -30 7 0 6 4 -3 10 -13 8 -12 10 3 10 10
0 15 5 12 10 -3 6 -10 10 -15 10 -5 0 -12 -4 -15 -10z"/>
<path d="M1300 1488 c0 -4 5 -8 11 -8 5 0 7 -6 3 -12 -4 -7 -3 -9 1 -5 15 13
14 34 -1 34 -8 0 -14 -4 -14 -9z"/>
<path d="M176 1468 c3 -5 10 -6 15 -3 13 9 11 12 -6 12 -8 0 -12 -4 -9 -9z"/>
<path d="M20 1361 c0 -14 907 -15 915 -1 4 7 -142 10 -454 10 -282 0 -461 -4
-461 -9z"/>
<path d="M2450 1192 c0 -41 5 -73 13 -81 9 -10 9 -12 0 -7 -9 5 -12 -9 -10
-56 l2 -63 230 0 230 0 0 135 0 135 -232 3 -233 2 0 -68z m173 -29 c-7 -2 -14
-23 -15 -46 l-1 -42 -7 45 -7 45 -2 -45 c-2 -25 -5 -38 -8 -30 -3 8 -12 19
-19 23 -17 10 -18 44 -1 50 6 3 26 5 42 5 17 0 24 -2 18 -5z m-128 -82 c3 -5
2 -12 -3 -15 -5 -3 -9 1 -9 9 0 17 3 19 12 6z"/>
<path d="M350 901 c0 -10 7 -24 15 -31 13 -11 15 -8 15 14 0 40 18 31 23 -11
l4 -38 1 43 c2 40 1 42 -28 42 -23 0 -30 -5 -30 -19z"/>
<path d="M947 914 c-4 -4 -7 -19 -7 -34 0 -23 4 -26 35 -26 34 0 36 2 33 31
-2 24 -8 31 -28 33 -14 2 -29 0 -33 -4z"/>
<path d="M1515 880 c-3 -5 -1 -10 4 -10 6 0 11 5 11 10 0 6 -2 10 -4 10 -3 0
-8 -4 -11 -10z"/>
<path d="M1538 833 c12 -2 32 -2 45 0 12 2 2 4 -23 4 -25 0 -35 -2 -22 -4z"/>
<path d="M842 670 c0 -14 2 -19 5 -12 2 6 2 18 0 25 -3 6 -5 1 -5 -13z"/>
<path d="M951 664 c0 -11 3 -14 6 -6 3 7 2 16 -1 19 -3 4 -6 -2 -5 -13z"/>
<path d="M1011 664 c0 -11 3 -14 6 -6 3 7 2 16 -1 19 -3 4 -6 -2 -5 -13z"/>
<path d="M1560 676 c0 -2 8 -10 18 -17 15 -13 16 -12 3 4 -13 16 -21 21 -21
13z"/>
<path d="M340 371 c0 -13 6 -21 16 -21 12 0 15 -6 11 -21 -4 -15 -3 -19 4 -12
16 16 7 67 -13 71 -13 2 -18 -3 -18 -17z"/>
<path d="M395 380 c-8 -14 3 -30 21 -30 8 0 14 9 14 20 0 21 -24 28 -35 10z"/>
<path d="M920 383 c0 -4 22 -6 49 -5 49 4 50 4 54 -30 l5 -33 -2 35 c-1 35 -1
35 -53 38 -29 2 -53 -1 -53 -5z"/>
<path d="M1513 364 c-3 -8 -2 -19 3 -24 5 -5 9 1 9 16 0 28 -3 30 -12 8z"/>
<path d="M1590 365 c10 -12 10 -18 -1 -32 -13 -16 -12 -17 4 -4 21 17 22 37 1
45 -14 5 -15 4 -4 -9z"/>
<path d="M958 333 c6 -2 18 -2 25 0 6 3 1 5 -13 5 -14 0 -19 -2 -12 -5z"/>
<path d="M1592 145 c0 -16 2 -22 5 -12 2 9 2 23 0 30 -3 6 -5 -1 -5 -18z"/>
</g>
</svg>
