<?xml version="1.0" standalone="no"?>
<!DOCTYPE svg PUBLIC "-//W3C//DTD SVG 20010904//EN"
 "http://www.w3.org/TR/2001/REC-SVG-20010904/DTD/svg10.dtd">
<svg version="1.0" xmlns="http://www.w3.org/2000/svg"
 width="348.000000pt" height="197.000000pt" viewBox="0 0 348.000000 197.000000"
 preserveAspectRatio="xMidYMid meet">

<g transform="translate(0.000000,197.000000) scale(0.100000,-0.100000)"
fill="#000000" stroke="none">
<path d="M20 1030 l0 -920 525 0 525 0 0 920 0 920 -525 0 -525 0 0 -920z"/>
<path d="M1385 1940 c-3 -5 -1 -10 4 -10 6 0 11 5 11 10 0 6 -2 10 -4 10 -3 0
-8 -4 -11 -10z"/>
<path d="M1440 1940 c0 -5 5 -10 11 -10 5 0 7 5 4 10 -3 6 -8 10 -11 10 -2 0
-4 -4 -4 -10z"/>
<path d="M1500 1940 c0 -5 5 -10 11 -10 5 0 7 5 4 10 -3 6 -8 10 -11 10 -2 0
-4 -4 -4 -10z"/>
<path d="M1570 1940 c0 -5 5 -10 11 -10 5 0 7 5 4 10 -3 6 -8 10 -11 10 -2 0
-4 -4 -4 -10z"/>
<path d="M1735 1940 c-3 -5 -1 -10 4 -10 6 0 11 5 11 10 0 6 -2 10 -4 10 -3 0
-8 -4 -11 -10z"/>
<path d="M1890 1940 c0 -5 5 -10 11 -10 5 0 7 5 4 10 -3 6 -8 10 -11 10 -2 0
-4 -4 -4 -10z"/>
<path d="M1925 1940 c-3 -5 -1 -10 4 -10 6 0 11 5 11 10 0 6 -2 10 -4 10 -3 0
-8 -4 -11 -10z"/>
<path d="M2095 1940 c-3 -5 -1 -10 4 -10 6 0 11 5 11 10 0 6 -2 10 -4 10 -3 0
-8 -4 -11 -10z"/>
<path d="M2190 1940 c0 -5 5 -10 11 -10 5 0 7 5 4 10 -3 6 -8 10 -11 10 -2 0
-4 -4 -4 -10z"/>
<path d="M2280 1931 c0 -25 6 -27 13 -6 4 8 2 17 -3 20 -6 4 -10 -3 -10 -14z"/>
<path d="M2450 1939 c0 -5 5 -7 10 -4 6 3 10 8 10 11 0 2 -4 4 -10 4 -5 0 -10
-5 -10 -11z"/>
<path d="M2545 1940 c-3 -5 -1 -10 4 -10 6 0 11 5 11 10 0 6 -2 10 -4 10 -3 0
-8 -4 -11 -10z"/>
<path d="M2580 1940 c0 -5 5 -10 11 -10 5 0 7 5 4 10 -3 6 -8 10 -11 10 -2 0
-4 -4 -4 -10z"/>
<path d="M2695 1940 c-3 -5 -1 -10 4 -10 6 0 11 5 11 10 0 6 -2 10 -4 10 -3 0
-8 -4 -11 -10z"/>
<path d="M2730 1940 c0 -5 5 -10 11 -10 5 0 7 5 4 10 -3 6 -8 10 -11 10 -2 0
-4 -4 -4 -10z"/>
<path d="M2322 1810 c0 -25 2 -40 4 -33 3 7 13 9 22 6 14 -6 15 -4 5 9 -7 8
-9 19 -5 23 4 5 2 5 -5 1 -7 -4 -13 2 -16 16 -2 13 -5 3 -5 -22z"/>
<path d="M1690 1812 c0 -17 3 -33 8 -35 9 -6 8 50 -1 60 -4 3 -7 -8 -7 -25z"/>
<path d="M2110 1811 c0 -30 26 -49 43 -32 15 15 4 43 -20 52 -21 7 -23 5 -23
-20z m40 -11 c0 -11 -4 -20 -9 -20 -14 0 -23 18 -16 30 10 17 25 11 25 -10z"/>
<path d="M2182 1810 c0 -19 2 -27 5 -17 2 9 2 25 0 35 -3 9 -5 1 -5 -18z"/>
<path d="M2592 1829 c-17 -6 -22 -15 -20 -31 2 -12 8 -23 13 -25 19 -6 37 14
33 39 -3 22 -6 24 -26 17z m13 -29 c0 -7 -6 -15 -12 -17 -8 -3 -13 4 -13 17 0
13 5 20 13 18 6 -3 12 -11 12 -18z"/>
<path d="M1300 1814 c-11 -12 -10 -18 3 -32 12 -12 20 -13 28 -5 8 8 6 11 -7
10 -11 -1 -19 4 -19 13 0 8 8 14 17 14 10 -1 15 2 12 7 -8 13 -20 11 -34 -7z"/>
<path d="M1357 1824 c-12 -12 -8 -42 6 -47 21 -8 39 8 35 29 -3 19 -29 30 -41
18z m31 -21 c-4 -22 -22 -20 -26 1 -2 10 3 16 13 16 10 0 15 -7 13 -17z"/>
<path d="M1447 1823 c-11 -10 -8 -41 4 -49 6 -3 16 -1 22 5 9 9 8 11 -5 6 -14
-6 -18 -2 -18 15 0 16 4 20 16 16 8 -3 12 -2 9 4 -7 12 -19 13 -28 3z"/>
<path d="M1500 1805 c0 -14 2 -25 4 -25 2 0 6 11 8 25 3 14 1 25 -3 25 -5 0
-9 -11 -9 -25z"/>
<path d="M1570 1815 c-11 -13 -11 -19 3 -33 20 -19 41 -5 35 24 -4 24 -22 28
-38 9z m30 -15 c0 -21 -15 -27 -25 -10 -7 12 2 30 16 30 5 0 9 -9 9 -20z"/>
<path d="M1630 1800 c0 -30 21 -42 35 -20 3 6 -1 7 -9 4 -12 -4 -16 0 -16 16
0 16 4 20 16 16 8 -3 12 -2 9 4 -14 22 -35 10 -35 -20z"/>
<path d="M1757 1823 c-11 -10 -8 -41 4 -49 6 -3 18 1 27 9 13 13 13 19 2 31
-14 17 -23 20 -33 9z m28 -23 c0 -7 -6 -15 -12 -17 -8 -3 -13 4 -13 17 0 13 5
20 13 18 6 -3 12 -11 12 -18z"/>
<path d="M1811 1803 c2 -25 2 -26 6 -5 3 15 10 22 19 18 8 -3 14 -1 14 4 0 6
-9 10 -20 10 -15 0 -20 -6 -19 -27z"/>
<path d="M1875 1819 c-4 -6 1 -17 11 -25 18 -15 18 -15 -1 -9 -16 5 -18 4 -7
-6 10 -11 14 -11 25 0 10 10 8 14 -7 23 -15 8 -16 12 -5 19 9 6 10 9 2 9 -6 0
-15 -5 -18 -11z"/>
<path d="M1950 1819 c0 -5 5 -7 10 -4 6 3 10 8 10 11 0 2 -4 4 -10 4 -5 0 -10
-5 -10 -11z"/>
<path d="M1995 1821 c-3 -7 0 -8 9 -5 12 4 16 0 16 -16 0 -17 -4 -21 -17 -15
-15 5 -16 4 -5 -6 15 -16 35 1 30 27 -4 21 -23 30 -33 15z"/>
<path d="M2050 1810 c0 -11 2 -20 4 -20 2 0 6 9 9 20 3 11 1 20 -4 20 -5 0 -9
-9 -9 -20z"/>
<path d="M2207 1823 c-11 -10 -8 -41 4 -49 6 -3 18 1 27 9 13 13 13 19 2 31
-14 17 -23 20 -33 9z m28 -23 c0 -7 -6 -15 -12 -17 -8 -3 -13 4 -13 17 0 13 5
20 13 18 6 -3 12 -11 12 -18z"/>
<path d="M2267 1823 c-11 -10 -8 -41 4 -49 6 -3 16 -1 22 5 9 9 8 11 -5 6 -14
-5 -18 -2 -18 13 0 11 8 23 18 25 14 4 14 5 1 6 -9 0 -19 -2 -22 -6z"/>
<path d="M2375 1821 c-3 -5 0 -13 6 -17 7 -4 9 -3 5 4 -3 5 0 13 6 15 9 4 10
6 1 6 -6 1 -14 -3 -18 -8z"/>
<path d="M2468 1823 c6 -2 12 -13 12 -24 0 -20 -15 -26 -23 -9 -3 6 -4 5 -3
-2 5 -24 31 -13 34 15 3 21 -1 27 -15 26 -10 0 -13 -3 -5 -6z"/>
<path d="M2511 1803 c2 -25 2 -26 6 -5 3 15 10 22 19 18 8 -3 14 -1 14 4 0 6
-9 10 -20 10 -15 0 -20 -6 -19 -27z"/>
<path d="M2728 1823 c15 -6 16 -43 1 -43 -5 0 -7 5 -4 10 3 6 1 10 -5 10 -7 0
-10 -6 -7 -12 7 -24 32 -13 35 15 3 21 -1 27 -15 26 -10 0 -13 -3 -5 -6z"/>
<path d="M2771 1803 c1 -22 2 -23 6 -8 3 11 10 23 17 27 7 5 5 8 -6 8 -13 0
-18 -7 -17 -27z"/>
<path d="M2836 1814 c-9 -23 19 -53 35 -37 15 15 7 47 -12 51 -9 2 -19 -5 -23
-14z m34 -14 c0 -11 -4 -20 -9 -20 -14 0 -23 18 -16 30 10 17 25 11 25 -10z"/>
<path d="M2955 1821 c-3 -5 0 -13 6 -17 7 -4 9 -3 5 4 -3 5 0 13 6 15 9 4 10
6 1 6 -6 1 -14 -3 -18 -8z"/>
<path d="M2812 1800 c0 -14 2 -19 5 -12 2 6 2 18 0 25 -3 6 -5 1 -5 -13z"/>
<path d="M2932 1800 c0 -14 2 -19 5 -12 2 6 2 18 0 25 -3 6 -5 1 -5 -13z"/>
<path d="M2392 1784 c-7 -8 -8 -14 -3 -14 10 0 25 19 20 25 -2 1 -10 -3 -17
-11z"/>
<path d="M2670 1790 c0 -5 5 -10 11 -10 5 0 7 5 4 10 -3 6 -8 10 -11 10 -2 0
-4 -4 -4 -10z"/>
<path d="M2972 1784 c-7 -8 -8 -14 -3 -14 10 0 25 19 20 25 -2 1 -10 -3 -17
-11z"/>
<path d="M2900 1780 c0 -5 5 -10 11 -10 5 0 7 5 4 10 -3 6 -8 10 -11 10 -2 0
-4 -4 -4 -10z"/>
<path d="M1329 1678 c-1 -7 -1 -21 0 -30 3 -21 -10 -23 -28 -5 -10 10 -11 9
-6 -5 4 -10 16 -18 26 -18 15 0 19 7 19 35 0 33 -9 50 -11 23z"/>
<path d="M1803 1655 c0 -22 2 -30 4 -17 2 12 2 30 0 40 -3 9 -5 -1 -4 -23z"/>
<path d="M1942 1655 c0 -22 2 -32 5 -22 2 9 13 17 23 17 10 0 21 -8 23 -17 3
-10 5 0 5 22 0 22 -2 32 -5 23 -2 -10 -13 -18 -23 -18 -10 0 -21 8 -23 18 -3
9 -5 -1 -5 -23z"/>
<path d="M2750 1655 c0 -19 4 -35 8 -35 4 0 6 16 4 35 -2 19 -6 35 -8 35 -2 0
-4 -16 -4 -35z"/>
<path d="M2853 1655 c0 -22 2 -30 4 -17 2 12 2 30 0 40 -3 9 -5 -1 -4 -23z"/>
<path d="M1650 1650 c0 -16 4 -30 8 -30 5 0 7 14 4 30 -2 17 -6 30 -8 30 -2 0
-4 -13 -4 -30z"/>
<path d="M2810 1656 c0 -35 15 -40 16 -5 1 16 -3 29 -7 29 -5 0 -9 -11 -9 -24z"/>
<path d="M1360 1648 c0 -23 4 -28 23 -27 17 1 18 2 4 6 -9 2 -15 8 -13 12 3 4
1 13 -5 21 -6 11 -9 8 -9 -12z"/>
<path d="M1391 1654 c0 -11 3 -14 6 -6 3 7 2 16 -1 19 -3 4 -6 -2 -5 -13z"/>
<path d="M1420 1660 c0 -6 8 -14 17 -17 15 -6 15 -7 -3 -14 -16 -6 -16 -8 -2
-8 26 -1 29 14 7 32 -10 9 -19 12 -19 7z"/>
<path d="M1472 1645 c0 -16 2 -22 5 -12 2 9 2 23 0 30 -3 6 -5 -1 -5 -18z"/>
<path d="M1494 1658 c-4 -6 2 -19 15 -29 14 -12 17 -19 9 -22 -8 -2 -7 -4 2
-3 17 1 28 66 12 66 -6 0 -8 -10 -5 -21 4 -16 2 -20 -8 -17 -8 3 -13 13 -13
22 2 19 -2 20 -12 4z"/>
<path d="M1562 1645 c0 -16 2 -22 5 -12 2 9 2 23 0 30 -3 6 -5 -1 -5 -18z"/>
<path d="M1592 1645 c0 -16 2 -22 5 -12 2 9 2 23 0 30 -3 6 -5 -1 -5 -18z"/>
<path d="M1682 1648 c2 -13 11 -24 21 -26 20 -4 34 25 19 40 -8 8 -9 5 -5 -11
4 -15 1 -21 -12 -21 -12 0 -16 6 -12 20 3 11 1 20 -5 20 -5 0 -8 -10 -6 -22z"/>
<path d="M1742 1648 c2 -13 11 -24 21 -26 20 -4 34 25 19 40 -8 8 -9 5 -5 -11
4 -15 1 -21 -12 -21 -12 0 -16 6 -12 20 3 11 1 20 -5 20 -5 0 -8 -10 -6 -22z"/>
<path d="M1830 1660 c0 -6 8 -14 17 -17 15 -6 15 -7 -3 -14 -16 -6 -16 -8 -2
-8 26 -1 29 14 7 32 -10 9 -19 12 -19 7z"/>
<path d="M2017 1663 c-10 -9 -9 -23 1 -23 5 0 9 7 9 15 0 17 -1 18 -10 8z"/>
<path d="M2070 1645 c0 -14 2 -25 4 -25 2 0 6 11 8 25 3 14 1 25 -3 25 -5 0
-9 -11 -9 -25z"/>
<path d="M2112 1648 c2 -14 11 -24 23 -25 16 -2 17 -1 4 5 -9 4 -15 15 -13 25
1 9 -2 17 -8 17 -5 0 -8 -10 -6 -22z"/>
<path d="M2141 1654 c0 -11 3 -14 6 -6 3 7 2 16 -1 19 -3 4 -6 -2 -5 -13z"/>
<path d="M2204 1637 c1 -32 3 -35 14 -20 14 20 16 37 3 28 -5 -3 -11 3 -14 12
-2 10 -4 1 -3 -20z"/>
<path d="M2252 1648 c4 -28 33 -35 42 -11 6 14 5 16 -5 6 -19 -19 -32 -16 -26
7 3 11 1 20 -5 20 -5 0 -8 -10 -6 -22z"/>
<path d="M2314 1645 c1 -21 46 -36 46 -15 0 7 -8 9 -19 5 -14 -4 -21 0 -24 12
-3 15 -4 14 -3 -2z"/>
<path d="M2468 1650 c-20 -18 -14 -30 14 -30 11 0 18 7 18 19 0 27 -12 31 -32
11z"/>
<path d="M2510 1645 c0 -14 2 -25 4 -25 2 0 6 11 8 25 3 14 1 25 -3 25 -5 0
-9 -11 -9 -25z"/>
<path d="M2548 1643 c5 -21 7 -23 10 -9 2 10 0 22 -6 28 -6 6 -7 0 -4 -19z"/>
<path d="M2602 1648 c2 -14 11 -24 23 -25 16 -2 17 -1 4 5 -9 4 -15 15 -13 25
1 9 -2 17 -8 17 -5 0 -8 -10 -6 -22z"/>
<path d="M2631 1654 c0 -11 3 -14 6 -6 3 7 2 16 -1 19 -3 4 -6 -2 -5 -13z"/>
<path d="M2722 1645 c0 -16 2 -22 5 -12 2 9 2 23 0 30 -3 6 -5 -1 -5 -18z"/>
<path d="M2878 1645 c2 -14 6 -25 8 -25 2 0 4 11 4 25 0 14 -4 25 -9 25 -4 0
-6 -11 -3 -25z"/>
<path d="M2911 1648 c-1 -23 3 -28 22 -27 15 1 17 3 5 6 -9 2 -19 14 -21 26
-4 18 -5 17 -6 -5z"/>
<path d="M2936 1655 c4 -8 8 -15 10 -15 2 0 4 7 4 15 0 8 -4 15 -10 15 -5 0
-7 -7 -4 -15z"/>
<path d="M2400 1629 c0 -5 9 -9 20 -9 11 0 20 2 20 4 0 2 -9 6 -20 9 -11 3
-20 1 -20 -4z"/>
<path d="M2660 1628 c0 -4 9 -8 20 -8 11 0 20 4 20 8 0 4 -9 8 -20 8 -11 0
-20 -4 -20 -8z"/>
<path d="M2028 1623 c7 -3 16 -2 19 1 4 3 -2 6 -13 5 -11 0 -14 -3 -6 -6z"/>
<path d="M1762 1505 c0 -23 3 -30 5 -17 3 15 10 22 19 18 8 -3 14 -1 14 4 0 6
-6 10 -14 10 -8 0 -17 6 -19 13 -3 6 -5 -6 -5 -28z"/>
<path d="M2182 1505 c0 -23 3 -30 5 -17 5 27 29 24 25 -4 -2 -15 -1 -16 7 -5
11 17 3 41 -14 41 -7 0 -16 6 -18 13 -3 6 -5 -6 -5 -28z"/>
<path d="M2303 1505 c0 -22 2 -30 4 -17 2 12 2 30 0 40 -3 9 -5 -1 -4 -23z"/>
<path d="M1725 1520 c-3 -5 -1 -10 4 -10 6 0 11 5 11 10 0 6 -2 10 -4 10 -3 0
-8 -4 -11 -10z"/>
<path d="M1852 1500 c0 -19 2 -27 5 -17 2 9 2 25 0 35 -3 9 -5 1 -5 -18z"/>
<path d="M1880 1514 c0 -11 6 -13 19 -9 14 4 21 0 24 -15 4 -19 5 -19 3 1 -1
26 -46 48 -46 23z"/>
<path d="M1296 1504 c-6 -15 -4 -15 11 -3 10 7 20 15 22 16 2 2 -3 3 -11 3 -9
0 -19 -7 -22 -16z"/>
<path d="M1353 1504 c-3 -8 -1 -20 5 -26 8 -8 9 -5 5 11 -4 15 -1 21 12 21 13
0 16 -6 12 -21 -4 -16 -3 -19 5 -11 14 14 3 42 -17 42 -9 0 -18 -7 -22 -16z"/>
<path d="M1447 1513 c-10 -10 -8 -43 2 -43 5 0 7 10 3 22 -4 17 -2 20 11 15
10 -4 17 -2 17 3 0 11 -23 13 -33 3z"/>
<path d="M1500 1495 c0 -14 2 -25 4 -25 2 0 6 11 8 25 3 14 1 25 -3 25 -5 0
-9 -11 -9 -25z"/>
<path d="M1540 1509 c0 -15 28 -41 34 -31 3 5 -4 16 -15 25 -10 9 -19 12 -19
6z"/>
<path d="M1640 1505 c0 -8 5 -15 10 -15 6 0 10 7 10 15 0 8 -4 15 -10 15 -5 0
-10 -7 -10 -15z"/>
<path d="M1702 1495 c0 -16 2 -22 5 -12 2 9 2 23 0 30 -3 6 -5 -1 -5 -18z"/>
<path d="M1944 1505 c-4 -9 -1 -22 6 -28 10 -9 11 -9 6 1 -5 8 0 12 14 12 13
0 20 5 18 13 -7 19 -37 20 -44 2z m33 -1 c-3 -3 -12 -4 -19 -1 -8 3 -5 6 6 6
11 1 17 -2 13 -5z"/>
<path d="M2002 1495 c0 -16 2 -22 5 -12 2 9 2 23 0 30 -3 6 -5 -1 -5 -18z"/>
<path d="M2030 1495 c0 -14 2 -25 4 -25 2 0 6 11 8 25 3 14 1 25 -3 25 -5 0
-9 -11 -9 -25z"/>
<path d="M2138 1511 c11 -7 11 -9 -2 -14 -9 -4 -16 -12 -15 -19 0 -10 2 -10 6
0 2 6 9 12 14 12 6 0 7 -4 4 -10 -3 -5 -1 -10 4 -10 6 0 11 11 11 25 0 17 -5
25 -17 25 -14 0 -15 -2 -5 -9z"/>
<path d="M2247 1513 c-11 -10 -8 -43 4 -43 5 0 7 5 4 10 -3 6 1 10 9 10 9 0
16 7 16 15 0 15 -21 21 -33 8z"/>
<path d="M2326 1512 c-3 -5 4 -16 15 -25 10 -9 19 -12 19 -7 0 6 -8 14 -17 17
-15 6 -15 7 3 14 16 6 16 8 2 8 -9 1 -19 -3 -22 -7z"/>
<path d="M1620 1498 c0 -9 5 -20 10 -23 13 -8 13 5 0 25 -8 13 -10 13 -10 -2z"/>
<path d="M1666 1494 c-4 -9 -4 -19 -1 -22 2 -3 7 3 11 12 4 9 4 19 1 22 -2 3
-7 -3 -11 -12z"/>
<path d="M1327 1293 c-4 -3 -7 -57 -7 -120 l0 -113 475 0 476 0 -3 118 -3 117
-466 3 c-256 1 -469 -1 -472 -5z m399 -85 c5 -8 2 -9 -9 -5 -9 3 -19 2 -22 -2
-2 -5 4 -11 15 -14 24 -6 27 -35 4 -44 -8 -3 -21 0 -27 7 -10 10 -8 12 5 7 10
-3 20 -2 23 3 3 5 -4 11 -15 15 -30 9 -25 45 6 45 7 0 16 -5 20 -12z m94 -23
c0 -19 -4 -35 -10 -35 -5 0 -10 5 -10 12 0 6 -6 4 -13 -6 -16 -21 -47 -12 -47
15 0 25 26 35 45 19 12 -10 15 -9 15 9 0 11 5 21 10 21 6 0 10 -16 10 -35z
m80 -6 c0 -36 -2 -40 -22 -37 -31 4 -38 47 -9 55 12 3 21 9 21 14 0 5 2 9 5 9
3 0 5 -18 5 -41z m-63 -26 c-3 -10 -5 -2 -5 17 0 19 2 27 5 18 2 -10 2 -26 0
-35z"/>
<path d="M1755 1180 c-8 -13 4 -32 16 -25 12 8 12 35 0 35 -6 0 -13 -4 -16
-10z"/>
<path d="M1865 1180 c-4 -6 -3 -16 3 -22 6 -6 12 -6 17 2 4 6 3 16 -3 22 -6 6
-12 6 -17 -2z"/>
<path d="M1309 748 c5 -30 6 -31 9 -8 2 14 9 28 16 32 7 5 3 8 -10 8 -18 0
-20 -5 -15 -32z"/>
<path d="M1352 750 c0 -19 2 -27 5 -17 2 9 11 17 18 17 7 0 16 -8 18 -17 3
-10 5 -2 5 17 0 19 -2 29 -5 23 -2 -7 -11 -13 -18 -13 -7 0 -16 6 -18 13 -3 6
-5 -4 -5 -23z"/>
<path d="M1420 750 c0 -25 4 -30 23 -29 16 1 18 2 5 6 -21 5 -24 23 -5 23 9 0
8 3 -2 9 -11 7 -11 9 0 14 10 4 9 6 -3 6 -13 1 -18 -7 -18 -29z"/>
<path d="M1471 748 c0 -28 2 -30 9 -13 12 28 12 45 0 45 -5 0 -10 -15 -9 -32z"/>
<path d="M1515 761 c-3 -12 -11 -19 -16 -16 -5 4 -9 2 -9 -4 0 -5 4 -12 8 -15
10 -6 38 41 30 50 -4 3 -9 -4 -13 -15z"/>
<path d="M1550 750 c0 -25 4 -30 23 -29 16 1 18 2 5 6 -21 5 -24 23 -5 23 8 0
8 3 -2 9 -11 7 -10 10 5 14 16 4 16 5 -3 6 -19 1 -23 -4 -23 -29z"/>
<path d="M1334 572 c-53 -42 -59 -114 -15 -164 26 -29 35 -33 81 -33 46 0 55
4 81 33 41 46 40 99 -2 147 -27 31 -37 35 -78 35 -28 0 -54 -7 -67 -18z"/>
<path d="M1972 574 c-25 -17 -52 -64 -52 -89 0 -35 32 -84 67 -100 47 -23 95
-13 127 26 60 72 14 179 -78 179 -23 0 -52 -7 -64 -16z"/>
<path d="M2758 343 c7 -3 16 -2 19 1 4 3 -2 6 -13 5 -11 0 -14 -3 -6 -6z"/>
<path d="M3060 200 c-9 -6 -10 -10 -3 -10 6 0 15 5 18 10 8 12 4 12 -15 0z"/>
</g>
</svg>
