<svg height="197pt" preserveAspectRatio="xMidYMid meet" viewBox="0 0 348 197" width="348pt" xmlns="http://www.w3.org/2000/svg"><g transform="matrix(.1 0 0 -.1 0 197)"><path d="m20 1030v-920h525 525v920 920h-525-525z"/><path d="m1385 1940c-3-5-1-10 4-10 6 0 11 5 11 10 0 6-2 10-4 10-3 0-8-4-11-10z"/><path d="m1440 1940c0-5 5-10 11-10 5 0 7 5 4 10-3 6-8 10-11 10-2 0-4-4-4-10z"/><path d="m1500 1940c0-5 5-10 11-10 5 0 7 5 4 10-3 6-8 10-11 10-2 0-4-4-4-10z"/><path d="m1570 1940c0-5 5-10 11-10 5 0 7 5 4 10-3 6-8 10-11 10-2 0-4-4-4-10z"/><path d="m1735 1940c-3-5-1-10 4-10 6 0 11 5 11 10 0 6-2 10-4 10-3 0-8-4-11-10z"/><path d="m1890 1940c0-5 5-10 11-10 5 0 7 5 4 10-3 6-8 10-11 10-2 0-4-4-4-10z"/><path d="m1925 1940c-3-5-1-10 4-10 6 0 11 5 11 10 0 6-2 10-4 10-3 0-8-4-11-10z"/><path d="m2095 1940c-3-5-1-10 4-10 6 0 11 5 11 10 0 6-2 10-4 10-3 0-8-4-11-10z"/><path d="m2190 1940c0-5 5-10 11-10 5 0 7 5 4 10-3 6-8 10-11 10-2 0-4-4-4-10z"/><path d="m2280 1931c0-25 6-27 13-6 4 8 2 17-3 20-6 4-10-3-10-14z"/><path d="m2450 1939c0-5 5-7 10-4 6 3 10 8 10 11 0 2-4 4-10 4-5 0-10-5-10-11z"/><path d="m2545 1940c-3-5-1-10 4-10 6 0 11 5 11 10 0 6-2 10-4 10-3 0-8-4-11-10z"/><path d="m2580 1940c0-5 5-10 11-10 5 0 7 5 4 10-3 6-8 10-11 10-2 0-4-4-4-10z"/><path d="m2695 1940c-3-5-1-10 4-10 6 0 11 5 11 10 0 6-2 10-4 10-3 0-8-4-11-10z"/><path d="m2730 1940c0-5 5-10 11-10 5 0 7 5 4 10-3 6-8 10-11 10-2 0-4-4-4-10z"/><path d="m2322 1810c0-25 2-40 4-33 3 7 13 9 22 6 14-6 15-4 5 9-7 8-9 19-5 23 4 5 2 5-5 1s-13 2-16 16c-2 13-5 3-5-22z"/><path d="m1690 1812c0-17 3-33 8-35 9-6 8 50-1 60-4 3-7-8-7-25z"/><path d="m2110 1811c0-30 26-49 43-32 15 15 4 43-20 52-21 7-23 5-23-20zm40-11c0-11-4-20-9-20-14 0-23 18-16 30 10 17 25 11 25-10z"/><path d="m2182 1810c0-19 2-27 5-17 2 9 2 25 0 35-3 9-5 1-5-18z"/><path d="m2592 1829c-17-6-22-15-20-31 2-12 8-23 13-25 19-6 37 14 33 39-3 22-6 24-26 17zm13-29c0-7-6-15-12-17-8-3-13 4-13 17s5 20 13 18c6-3 12-11 12-18z"/><path d="m1300 1814c-11-12-10-18 3-32 12-12 20-13 28-5s6 11-7 10c-11-1-19 4-19 13 0 8 8 14 17 14 10-1 15 2 12 7-8 13-20 11-34-7z"/><path d="m1357 1824c-12-12-8-42 6-47 21-8 39 8 35 29-3 19-29 30-41 18zm31-21c-4-22-22-20-26 1-2 10 3 16 13 16s15-7 13-17z"/><path d="m1447 1823c-11-10-8-41 4-49 6-3 16-1 22 5 9 9 8 11-5 6-14-6-18-2-18 15 0 16 4 20 16 16 8-3 12-2 9 4-7 12-19 13-28 3z"/><path d="m1500 1805c0-14 2-25 4-25s6 11 8 25c3 14 1 25-3 25-5 0-9-11-9-25z"/><path d="m1570 1815c-11-13-11-19 3-33 20-19 41-5 35 24-4 24-22 28-38 9zm30-15c0-21-15-27-25-10-7 12 2 30 16 30 5 0 9-9 9-20z"/><path d="m1630 1800c0-30 21-42 35-20 3 6-1 7-9 4-12-4-16 0-16 16s4 20 16 16c8-3 12-2 9 4-14 22-35 10-35-20z"/><path d="m1757 1823c-11-10-8-41 4-49 6-3 18 1 27 9 13 13 13 19 2 31-14 17-23 20-33 9zm28-23c0-7-6-15-12-17-8-3-13 4-13 17s5 20 13 18c6-3 12-11 12-18z"/><path d="m1811 1803c2-25 2-26 6-5 3 15 10 22 19 18 8-3 14-1 14 4 0 6-9 10-20 10-15 0-20-6-19-27z"/><path d="m1875 1819c-4-6 1-17 11-25 18-15 18-15-1-9-16 5-18 4-7-6 10-11 14-11 25 0 10 10 8 14-7 23-15 8-16 12-5 19 9 6 10 9 2 9-6 0-15-5-18-11z"/><path d="m1950 1819c0-5 5-7 10-4 6 3 10 8 10 11 0 2-4 4-10 4-5 0-10-5-10-11z"/><path d="m1995 1821c-3-7 0-8 9-5 12 4 16 0 16-16 0-17-4-21-17-15-15 5-16 4-5-6 15-16 35 1 30 27-4 21-23 30-33 15z"/><path d="m2050 1810c0-11 2-20 4-20s6 9 9 20 1 20-4 20-9-9-9-20z"/><path d="m2207 1823c-11-10-8-41 4-49 6-3 18 1 27 9 13 13 13 19 2 31-14 17-23 20-33 9zm28-23c0-7-6-15-12-17-8-3-13 4-13 17s5 20 13 18c6-3 12-11 12-18z"/><path d="m2267 1823c-11-10-8-41 4-49 6-3 16-1 22 5 9 9 8 11-5 6-14-5-18-2-18 13 0 11 8 23 18 25 14 4 14 5 1 6-9 0-19-2-22-6z"/><path d="m2375 1821c-3-5 0-13 6-17 7-4 9-3 5 4-3 5 0 13 6 15 9 4 10 6 1 6-6 1-14-3-18-8z"/><path d="m2468 1823c6-2 12-13 12-24 0-20-15-26-23-9-3 6-4 5-3-2 5-24 31-13 34 15 3 21-1 27-15 26-10 0-13-3-5-6z"/><path d="m2511 1803c2-25 2-26 6-5 3 15 10 22 19 18 8-3 14-1 14 4 0 6-9 10-20 10-15 0-20-6-19-27z"/><path d="m2728 1823c15-6 16-43 1-43-5 0-7 5-4 10 3 6 1 10-5 10-7 0-10-6-7-12 7-24 32-13 35 15 3 21-1 27-15 26-10 0-13-3-5-6z"/><path d="m2771 1803c1-22 2-23 6-8 3 11 10 23 17 27 7 5 5 8-6 8-13 0-18-7-17-27z"/><path d="m2836 1814c-9-23 19-53 35-37 15 15 7 47-12 51-9 2-19-5-23-14zm34-14c0-11-4-20-9-20-14 0-23 18-16 30 10 17 25 11 25-10z"/><path d="m2955 1821c-3-5 0-13 6-17 7-4 9-3 5 4-3 5 0 13 6 15 9 4 10 6 1 6-6 1-14-3-18-8z"/><path d="m2812 1800c0-14 2-19 5-12 2 6 2 18 0 25-3 6-5 1-5-13z"/><path d="m2932 1800c0-14 2-19 5-12 2 6 2 18 0 25-3 6-5 1-5-13z"/><path d="m2392 1784c-7-8-8-14-3-14 10 0 25 19 20 25-2 1-10-3-17-11z"/><path d="m2670 1790c0-5 5-10 11-10 5 0 7 5 4 10-3 6-8 10-11 10-2 0-4-4-4-10z"/><path d="m2972 1784c-7-8-8-14-3-14 10 0 25 19 20 25-2 1-10-3-17-11z"/><path d="m2900 1780c0-5 5-10 11-10 5 0 7 5 4 10-3 6-8 10-11 10-2 0-4-4-4-10z"/><path d="m1329 1678c-1-7-1-21 0-30 3-21-10-23-28-5-10 10-11 9-6-5 4-10 16-18 26-18 15 0 19 7 19 35 0 33-9 50-11 23z"/><path d="m1803 1655c0-22 2-30 4-17 2 12 2 30 0 40-3 9-5-1-4-23z"/><path d="m1942 1655c0-22 2-32 5-22 2 9 13 17 23 17s21-8 23-17c3-10 5 0 5 22s-2 32-5 23c-2-10-13-18-23-18s-21 8-23 18c-3 9-5-1-5-23z"/><path d="m2750 1655c0-19 4-35 8-35s6 16 4 35-6 35-8 35-4-16-4-35z"/><path d="m2853 1655c0-22 2-30 4-17 2 12 2 30 0 40-3 9-5-1-4-23z"/><path d="m1650 1650c0-16 4-30 8-30 5 0 7 14 4 30-2 17-6 30-8 30s-4-13-4-30z"/><path d="m2810 1656c0-35 15-40 16-5 1 16-3 29-7 29-5 0-9-11-9-24z"/><path d="m1360 1648c0-23 4-28 23-27 17 1 18 2 4 6-9 2-15 8-13 12 3 4 1 13-5 21-6 11-9 8-9-12z"/><path d="m1391 1654c0-11 3-14 6-6 3 7 2 16-1 19-3 4-6-2-5-13z"/><path d="m1420 1660c0-6 8-14 17-17 15-6 15-7-3-14-16-6-16-8-2-8 26-1 29 14 7 32-10 9-19 12-19 7z"/><path d="m1472 1645c0-16 2-22 5-12 2 9 2 23 0 30-3 6-5-1-5-18z"/><path d="m1494 1658c-4-6 2-19 15-29 14-12 17-19 9-22-8-2-7-4 2-3 17 1 28 66 12 66-6 0-8-10-5-21 4-16 2-20-8-17-8 3-13 13-13 22 2 19-2 20-12 4z"/><path d="m1562 1645c0-16 2-22 5-12 2 9 2 23 0 30-3 6-5-1-5-18z"/><path d="m1592 1645c0-16 2-22 5-12 2 9 2 23 0 30-3 6-5-1-5-18z"/><path d="m1682 1648c2-13 11-24 21-26 20-4 34 25 19 40-8 8-9 5-5-11 4-15 1-21-12-21-12 0-16 6-12 20 3 11 1 20-5 20-5 0-8-10-6-22z"/><path d="m1742 1648c2-13 11-24 21-26 20-4 34 25 19 40-8 8-9 5-5-11 4-15 1-21-12-21-12 0-16 6-12 20 3 11 1 20-5 20-5 0-8-10-6-22z"/><path d="m1830 1660c0-6 8-14 17-17 15-6 15-7-3-14-16-6-16-8-2-8 26-1 29 14 7 32-10 9-19 12-19 7z"/><path d="m2017 1663c-10-9-9-23 1-23 5 0 9 7 9 15 0 17-1 18-10 8z"/><path d="m2070 1645c0-14 2-25 4-25s6 11 8 25c3 14 1 25-3 25-5 0-9-11-9-25z"/><path d="m2112 1648c2-14 11-24 23-25 16-2 17-1 4 5-9 4-15 15-13 25 1 9-2 17-8 17-5 0-8-10-6-22z"/><path d="m2141 1654c0-11 3-14 6-6 3 7 2 16-1 19-3 4-6-2-5-13z"/><path d="m2204 1637c1-32 3-35 14-20 14 20 16 37 3 28-5-3-11 3-14 12-2 10-4 1-3-20z"/><path d="m2252 1648c4-28 33-35 42-11 6 14 5 16-5 6-19-19-32-16-26 7 3 11 1 20-5 20-5 0-8-10-6-22z"/><path d="m2314 1645c1-21 46-36 46-15 0 7-8 9-19 5-14-4-21 0-24 12-3 15-4 14-3-2z"/><path d="m2468 1650c-20-18-14-30 14-30 11 0 18 7 18 19 0 27-12 31-32 11z"/><path d="m2510 1645c0-14 2-25 4-25s6 11 8 25c3 14 1 25-3 25-5 0-9-11-9-25z"/><path d="m2548 1643c5-21 7-23 10-9 2 10 0 22-6 28s-7 0-4-19z"/><path d="m2602 1648c2-14 11-24 23-25 16-2 17-1 4 5-9 4-15 15-13 25 1 9-2 17-8 17-5 0-8-10-6-22z"/><path d="m2631 1654c0-11 3-14 6-6 3 7 2 16-1 19-3 4-6-2-5-13z"/><path d="m2722 1645c0-16 2-22 5-12 2 9 2 23 0 30-3 6-5-1-5-18z"/><path d="m2878 1645c2-14 6-25 8-25s4 11 4 25-4 25-9 25c-4 0-6-11-3-25z"/><path d="m2911 1648c-1-23 3-28 22-27 15 1 17 3 5 6-9 2-19 14-21 26-4 18-5 17-6-5z"/><path d="m2936 1655c4-8 8-15 10-15s4 7 4 15-4 15-10 15c-5 0-7-7-4-15z"/><path d="m2400 1629c0-5 9-9 20-9s20 2 20 4-9 6-20 9-20 1-20-4z"/><path d="m2660 1628c0-4 9-8 20-8s20 4 20 8-9 8-20 8-20-4-20-8z"/><path d="m2028 1623c7-3 16-2 19 1 4 3-2 6-13 5-11 0-14-3-6-6z"/><path d="m1762 1505c0-23 3-30 5-17 3 15 10 22 19 18 8-3 14-1 14 4 0 6-6 10-14 10s-17 6-19 13c-3 6-5-6-5-28z"/><path d="m2182 1505c0-23 3-30 5-17 5 27 29 24 25-4-2-15-1-16 7-5 11 17 3 41-14 41-7 0-16 6-18 13-3 6-5-6-5-28z"/><path d="m2303 1505c0-22 2-30 4-17 2 12 2 30 0 40-3 9-5-1-4-23z"/><path d="m1725 1520c-3-5-1-10 4-10 6 0 11 5 11 10 0 6-2 10-4 10-3 0-8-4-11-10z"/><path d="m1852 1500c0-19 2-27 5-17 2 9 2 25 0 35-3 9-5 1-5-18z"/><path d="m1880 1514c0-11 6-13 19-9 14 4 21 0 24-15 4-19 5-19 3 1-1 26-46 48-46 23z"/><path d="m1296 1504c-6-15-4-15 11-3 10 7 20 15 22 16 2 2-3 3-11 3-9 0-19-7-22-16z"/><path d="m1353 1504c-3-8-1-20 5-26 8-8 9-5 5 11-4 15-1 21 12 21s16-6 12-21c-4-16-3-19 5-11 14 14 3 42-17 42-9 0-18-7-22-16z"/><path d="m1447 1513c-10-10-8-43 2-43 5 0 7 10 3 22-4 17-2 20 11 15 10-4 17-2 17 3 0 11-23 13-33 3z"/><path d="m1500 1495c0-14 2-25 4-25s6 11 8 25c3 14 1 25-3 25-5 0-9-11-9-25z"/><path d="m1540 1509c0-15 28-41 34-31 3 5-4 16-15 25-10 9-19 12-19 6z"/><path d="m1640 1505c0-8 5-15 10-15 6 0 10 7 10 15s-4 15-10 15c-5 0-10-7-10-15z"/><path d="m1702 1495c0-16 2-22 5-12 2 9 2 23 0 30-3 6-5-1-5-18z"/><path d="m1944 1505c-4-9-1-22 6-28 10-9 11-9 6 1-5 8 0 12 14 12 13 0 20 5 18 13-7 19-37 20-44 2zm33-1c-3-3-12-4-19-1-8 3-5 6 6 6 11 1 17-2 13-5z"/><path d="m2002 1495c0-16 2-22 5-12 2 9 2 23 0 30-3 6-5-1-5-18z"/><path d="m2030 1495c0-14 2-25 4-25s6 11 8 25c3 14 1 25-3 25-5 0-9-11-9-25z"/><path d="m2138 1511c11-7 11-9-2-14-9-4-16-12-15-19 0-10 2-10 6 0 2 6 9 12 14 12 6 0 7-4 4-10-3-5-1-10 4-10 6 0 11 11 11 25 0 17-5 25-17 25-14 0-15-2-5-9z"/><path d="m2247 1513c-11-10-8-43 4-43 5 0 7 5 4 10-3 6 1 10 9 10 9 0 16 7 16 15 0 15-21 21-33 8z"/><path d="m2326 1512c-3-5 4-16 15-25 10-9 19-12 19-7 0 6-8 14-17 17-15 6-15 7 3 14 16 6 16 8 2 8-9 1-19-3-22-7z"/><path d="m1620 1498c0-9 5-20 10-23 13-8 13 5 0 25-8 13-10 13-10-2z"/><path d="m1666 1494c-4-9-4-19-1-22 2-3 7 3 11 12s4 19 1 22c-2 3-7-3-11-12z"/><path d="m1327 1293c-4-3-7-57-7-120v-113h475 476l-3 118-3 117-466 3c-256 1-469-1-472-5zm399-85c5-8 2-9-9-5-9 3-19 2-22-2-2-5 4-11 15-14 24-6 27-35 4-44-8-3-21 0-27 7-10 10-8 12 5 7 10-3 20-2 23 3s-4 11-15 15c-30 9-25 45 6 45 7 0 16-5 20-12zm94-23c0-19-4-35-10-35-5 0-10 5-10 12 0 6-6 4-13-6-16-21-47-12-47 15 0 25 26 35 45 19 12-10 15-9 15 9 0 11 5 21 10 21 6 0 10-16 10-35zm80-6c0-36-2-40-22-37-31 4-38 47-9 55 12 3 21 9 21 14s2 9 5 9 5-18 5-41zm-63-26c-3-10-5-2-5 17s2 27 5 18c2-10 2-26 0-35z"/><path d="m1755 1180c-8-13 4-32 16-25 12 8 12 35 0 35-6 0-13-4-16-10z"/><path d="m1865 1180c-4-6-3-16 3-22s12-6 17 2c4 6 3 16-3 22s-12 6-17-2z"/><path d="m1309 748c5-30 6-31 9-8 2 14 9 28 16 32 7 5 3 8-10 8-18 0-20-5-15-32z"/><path d="m1352 750c0-19 2-27 5-17 2 9 11 17 18 17s16-8 18-17c3-10 5-2 5 17s-2 29-5 23c-2-7-11-13-18-13s-16 6-18 13c-3 6-5-4-5-23z"/><path d="m1420 750c0-25 4-30 23-29 16 1 18 2 5 6-21 5-24 23-5 23 9 0 8 3-2 9-11 7-11 9 0 14 10 4 9 6-3 6-13 1-18-7-18-29z"/><path d="m1471 748c0-28 2-30 9-13 12 28 12 45 0 45-5 0-10-15-9-32z"/><path d="m1515 761c-3-12-11-19-16-16-5 4-9 2-9-4 0-5 4-12 8-15 10-6 38 41 30 50-4 3-9-4-13-15z"/><path d="m1550 750c0-25 4-30 23-29 16 1 18 2 5 6-21 5-24 23-5 23 8 0 8 3-2 9-11 7-10 10 5 14 16 4 16 5-3 6s-23-4-23-29z"/><path d="m1334 572c-53-42-59-114-15-164 26-29 35-33 81-33s55 4 81 33c41 46 40 99-2 147-27 31-37 35-78 35-28 0-54-7-67-18z"/><path d="m1972 574c-25-17-52-64-52-89 0-35 32-84 67-100 47-23 95-13 127 26 60 72 14 179-78 179-23 0-52-7-64-16z"/><path d="m2758 343c7-3 16-2 19 1 4 3-2 6-13 5-11 0-14-3-6-6z"/><path d="m3060 200c-9-6-10-10-3-10 6 0 15 5 18 10 8 12 4 12-15 0z"/></g></svg>