<?xml version="1.0" standalone="no"?>
<!DOCTYPE svg PUBLIC "-//W3C//DTD SVG 20010904//EN"
 "http://www.w3.org/TR/2001/REC-SVG-20010904/DTD/svg10.dtd">
<svg version="1.0" xmlns="http://www.w3.org/2000/svg"
 width="358.000000pt" height="203.000000pt" viewBox="0 0 358.000000 203.000000"
 preserveAspectRatio="xMidYMid meet">

<g transform="translate(0.000000,203.000000) scale(0.100000,-0.100000)"
fill="#000000" stroke="none">
<path d="M20 1060 l0 -950 560 0 560 0 0 950 0 950 -560 0 -560 0 0 -950z m80
909 c-13 -6 -20 -13 -15 -17 6 -4 10 -11 10 -17 1 -24 30 -85 42 -85 7 0 10 7
7 15 -4 8 -10 15 -14 15 -4 0 -10 16 -12 35 -3 29 -1 35 15 35 10 0 15 -4 12
-10 -8 -13 26 -71 37 -64 4 3 8 15 7 27 0 21 -1 21 -8 2 -6 -15 -9 -11 -14 22
-4 23 -13 44 -19 46 -8 3 -7 6 4 6 22 1 48 -37 48 -71 0 -58 -78 -90 -120 -48
-37 37 -16 121 29 119 9 0 6 -4 -9 -10z m211 -4 c7 17 8 18 8 3 1 -19 21 -26
21 -8 0 6 5 10 10 10 6 0 10 -9 10 -21 0 -16 -4 -19 -17 -14 -10 4 -28 7 -40
6 -18 0 -23 5 -23 22 1 21 1 21 12 2 11 -19 11 -19 19 0z m150 8 c-11 -5 -11
-7 0 -14 12 -7 12 -10 0 -21 -9 -8 -11 -9 -7 -1 3 6 2 14 -4 18 -13 8 -3 25
13 24 8 0 7 -3 -2 -6z m201 -2 c-11 -6 -10 -10 4 -15 13 -5 15 -9 6 -18 -9 -9
-15 -9 -23 -1 -14 14 -5 43 13 43 10 0 10 -2 0 -9z m79 -6 c5 4 6 -1 3 -9 -3
-9 -10 -16 -14 -16 -5 0 -15 -3 -24 -6 -12 -4 -16 0 -16 16 0 16 4 20 15 16 8
-3 15 0 16 7 0 9 2 9 6 -1 2 -6 9 -10 14 -7z m-331 -4 c0 -11 -31 -24 -39 -16
-3 3 1 10 9 15 19 12 30 12 30 1z m77 -13 c-3 -8 -6 -5 -6 6 -1 11 2 17 5 13
3 -3 4 -12 1 -19z m65 4 c-7 -2 -9 -9 -6 -15 5 -9 4 -9 -6 0 -15 13 -4 37 13
26 8 -5 8 -8 -1 -11z m65 -6 c1 -11 -1 -15 -4 -8 -3 6 -11 12 -19 12 -9 0 -12
-5 -8 -12 4 -7 3 -8 -4 -4 -20 12 -13 34 11 34 16 0 23 -7 24 -22z m186 7 c-3
-6 -12 -9 -20 -6 -12 5 -14 3 -8 -7 5 -9 4 -11 -3 -6 -21 13 -13 34 12 32 14
0 22 -6 19 -13z m47 9 c0 -5 -6 -16 -13 -26 -12 -16 -13 -16 -14 4 -1 11 2 18
8 15 5 -4 9 -1 9 4 0 6 2 11 5 11 3 0 5 -4 5 -8z m-599 -396 c5 3 9 1 9 -5 0
-5 -4 -13 -10 -16 -5 -3 -10 0 -10 7 0 9 -3 9 -10 -2 -11 -18 -13 -9 -3 16 4
11 8 13 11 6 2 -7 8 -10 13 -6z m88 -17 c-8 -5 -18 -8 -24 -8 -5 0 -4 3 3 6 6
2 9 10 6 15 -4 7 -2 8 4 4 7 -4 12 -1 13 6 0 10 2 10 6 -1 3 -7 -1 -17 -8 -22z
m61 11 c-12 -8 -12 -10 -1 -10 8 0 12 -3 8 -6 -9 -9 -28 6 -22 17 4 5 12 9 18
9 7 0 6 -4 -3 -10z m47 -12 c-3 -8 -6 -5 -6 6 -1 11 2 17 5 13 3 -3 4 -12 1
-19z m20 0 c-3 -8 -6 -5 -6 6 -1 11 2 17 5 13 3 -3 4 -12 1 -19z m46 15 c-7
-2 -19 -2 -25 0 -7 3 -2 5 12 5 14 0 19 -2 13 -5z m47 -4 c0 -4 -7 -9 -15 -13
-9 -3 -15 0 -15 8 0 7 7 13 15 13 8 0 15 -4 15 -8z m90 1 c0 -5 -8 -10 -17
-10 -15 0 -16 2 -3 10 19 12 20 12 20 0z m77 -12 c-3 -8 -6 -5 -6 6 -1 11 2
17 5 13 3 -3 4 -12 1 -19z m20 0 c-3 -8 -6 -5 -6 6 -1 11 2 17 5 13 3 -3 4
-12 1 -19z m93 11 c0 -11 -29 -19 -34 -10 -3 5 -3 10 -1 13 8 7 35 5 35 -3z
m-650 -290 c0 -4 -8 -6 -17 -2 -15 5 -14 3 2 -10 18 -15 21 -15 32 0 15 20 43
10 43 -16 0 -26 -17 -36 -35 -21 -12 10 -18 10 -29 0 -11 -8 -20 -9 -33 -1
-16 9 -15 10 7 11 l24 0 -22 16 c-18 12 -20 19 -12 29 12 14 40 10 40 -6z
m147 -31 c-2 -13 -4 -5 -4 17 -1 22 1 32 4 23 2 -10 2 -28 0 -40z m-23 9 c2
-32 -9 -36 -17 -6 -3 12 -10 18 -15 15 -6 -3 -8 -16 -4 -28 3 -14 2 -19 -6
-14 -7 4 -12 19 -12 34 0 24 4 27 27 26 21 0 27 -6 27 -27z m136 -13 c0 -27
-4 -34 -20 -34 -11 0 -20 7 -20 15 0 9 -6 12 -15 9 -9 -4 -15 0 -15 10 0 22
-17 20 -23 -1 -3 -12 -5 -9 -6 8 -1 25 1 27 49 27 l50 0 0 -34z m50 25 c0 -5
-6 -7 -12 -3 -9 5 -8 2 1 -10 19 -22 -2 -48 -21 -27 -11 12 -9 13 7 7 19 -6
19 -5 1 8 -10 8 -15 19 -11 25 8 14 35 14 35 0z m-337 -246 c-7 -2 -13 -12
-13 -20 0 -9 6 -13 15 -9 8 3 15 1 15 -4 0 -13 -27 -13 -35 0 -9 15 2 40 17
39 10 0 10 -2 1 -6z m197 -29 c0 -8 -7 -14 -15 -14 -8 0 -15 5 -15 10 0 6 5
10 11 10 5 0 7 5 3 12 -4 7 -3 8 4 4 7 -4 12 -14 12 -22z m-145 -13 c-6 -5
-25 10 -25 20 0 5 6 4 14 -3 8 -7 12 -15 11 -17z m22 7 c-3 -8 -6 -5 -6 6 -1
11 2 17 5 13 3 -3 4 -12 1 -19z m20 0 c-3 -8 -6 -5 -6 6 -1 11 2 17 5 13 3 -3
4 -12 1 -19z m38 0 c6 -4 2 -8 -7 -8 -10 0 -18 7 -18 17 0 9 3 12 8 7 4 -5 12
-12 17 -16z m-142 -173 c4 -8 2 -17 -3 -20 -6 -4 -10 3 -10 14 0 25 6 27 13 6z
m124 -17 c-3 -7 -5 -2 -5 12 0 14 2 19 5 13 2 -7 2 -19 0 -25z m-20 0 c-3 -8
-6 -5 -6 6 -1 11 2 17 5 13 3 -3 4 -12 1 -19z m60 0 c-3 -8 -6 -5 -6 6 -1 11
2 17 5 13 3 -3 4 -12 1 -19z m94 5 c13 -16 12 -17 -3 -4 -10 7 -18 15 -18 17
0 8 8 3 21 -13z m-196 -184 c11 -16 1 -19 -13 -3 -7 8 -8 14 -3 14 5 0 13 -5
16 -11z m49 3 c-7 -4 -14 -16 -17 -27 -4 -15 -5 -14 -6 8 -1 20 4 27 17 27 11
0 13 -3 6 -8z m40 0 c-6 -4 -14 -14 -17 -22 -4 -10 -6 -8 -6 8 -1 15 5 22 17
22 10 0 13 -3 6 -8z m23 -14 c-3 -8 -6 -5 -6 6 -1 11 2 17 5 13 3 -3 4 -12 1
-19z m38 11 c11 -16 1 -19 -13 -3 -7 8 -8 14 -3 14 5 0 13 -5 16 -11z m43 -11
c-2 -12 -9 -23 -16 -24 -7 -1 -8 0 -2 3 14 7 13 30 -2 36 -8 3 -5 6 5 6 13 1
18 -5 15 -21z m-233 -9 c-4 -5 -12 -9 -18 -8 -9 0 -8 2 1 6 6 2 9 10 6 15 -4
7 -2 8 5 4 6 -4 9 -12 6 -17z m125 -161 c41 0 80 1 85 2 33 7 55 -1 55 -20 0
-16 -7 -20 -35 -20 -26 0 -35 4 -36 18 -1 16 -2 16 -6 -1 -4 -15 -14 -17 -61
-15 -41 2 -60 -1 -69 -12 -9 -10 -12 -11 -13 -2 0 6 -9 12 -20 12 -11 0 -20 5
-20 10 0 7 -6 7 -20 0 -18 -9 -20 -8 -20 16 0 25 2 25 42 19 23 -4 76 -7 118
-7z m180 -187 c0 -5 3 -16 6 -25 4 -12 0 -16 -15 -16 -12 0 -21 5 -21 11 0 5
4 8 9 5 5 -4 7 3 4 14 -3 11 0 20 6 20 6 0 11 -4 11 -9z m68 -12 c3 -12 2 -12
-6 0 -8 11 -11 9 -15 -10 -4 -22 -4 -22 -6 4 -1 30 19 34 27 6z m-382 4 c-3
-4 6 -12 21 -18 l28 -12 -36 1 c-29 1 -35 4 -31 19 2 9 9 17 15 17 6 0 7 -3 3
-7z m221 -25 c-3 -7 -5 -2 -5 12 0 14 2 19 5 13 2 -7 2 -19 0 -25z m-142 -7
c-6 -5 -25 10 -25 20 0 5 6 4 14 -3 8 -7 12 -15 11 -17z m45 14 c0 -8 -7 -15
-15 -15 -13 0 -14 3 -3 15 16 18 18 18 18 0z m40 0 c0 -8 -7 -15 -15 -15 -8 0
-15 5 -15 11 0 5 5 7 10 4 6 -3 10 -1 10 4 0 6 2 11 5 11 3 0 5 -7 5 -15z m37
-7 c-3 -8 -6 -5 -6 6 -1 11 2 17 5 13 3 -3 4 -12 1 -19z m53 1 c0 -5 -4 -9 -8
-9 -5 0 -9 7 -9 15 0 8 4 12 9 9 4 -3 8 -9 8 -15z m147 -1 c-3 -8 -6 -5 -6 6
-1 11 2 17 5 13 3 -3 4 -12 1 -19z m56 5 c-3 -7 -6 -13 -8 -13 -2 0 -5 6 -8
13 -3 8 1 14 8 14 7 0 11 -6 8 -14z m37 2 c0 -8 -7 -15 -16 -15 -14 0 -14 3
-4 15 7 8 14 15 16 15 2 0 4 -7 4 -15z m35 -7 c6 -4 2 -8 -7 -8 -10 0 -18 7
-18 17 0 9 3 12 8 7 4 -5 12 -12 17 -16z m38 5 c-3 -7 -9 -10 -14 -7 -14 8
-11 21 5 21 8 0 12 -6 9 -14z"/>
<path d="M71 1905 c0 -11 4 -27 9 -35 9 -13 10 -13 9 0 0 8 -4 24 -9 35 l-9
20 0 -20z"/>
<path d="M420 1240 c0 -5 5 -10 10 -10 6 0 10 5 10 10 0 6 -4 10 -10 10 -5 0
-10 -4 -10 -10z"/>
<path d="M1341 1913 c-1 -16 3 -21 14 -17 8 4 15 14 15 23 0 13 -2 13 -9 2 -7
-11 -9 -11 -14 0 -3 8 -6 5 -6 -8z"/>
<path d="M1602 1910 c0 -14 2 -19 5 -12 2 6 2 18 0 25 -3 6 -5 1 -5 -13z"/>
<path d="M1386 1913 c5 -5 12 -12 16 -18 4 -6 8 -2 8 8 0 9 -7 17 -17 17 -9 0
-12 -3 -7 -7z"/>
<path d="M1471 1907 c9 -9 16 -11 20 -5 4 7 9 6 12 -1 3 -7 5 -7 3 1 -1 7 -13
15 -25 16 -20 3 -21 2 -10 -11z"/>
<path d="M1521 1903 c0 -11 3 -13 6 -5 2 6 10 9 15 6 7 -4 8 -2 4 4 -11 18
-26 14 -25 -5z"/>
<path d="M1572 1906 c7 -8 15 -12 17 -11 5 6 -10 25 -20 25 -5 0 -4 -6 3 -14z"/>
<path d="M1620 1911 c0 -5 7 -11 14 -14 10 -4 13 -1 9 9 -6 15 -23 19 -23 5z"/>
<path d="M1423 1892 c1 -14 5 -18 11 -12 7 7 6 14 -1 21 -9 9 -12 7 -10 -9z"/>
<path d="M1241 1588 c0 -18 3 -27 6 -20 2 6 11 12 19 12 8 0 14 9 14 20 0 13
-7 20 -20 20 -16 0 -20 -6 -19 -32z m29 12 c0 -5 -4 -10 -10 -10 -5 0 -10 5
-10 10 0 6 5 10 10 10 6 0 10 -4 10 -10z"/>
<path d="M1870 1610 c0 -5 -7 -10 -16 -10 -21 0 -14 -34 9 -38 13 -3 17 3 17
27 0 17 -2 31 -5 31 -3 0 -5 -4 -5 -10z m0 -30 c0 -5 -4 -10 -10 -10 -5 0 -10
5 -10 10 0 6 5 10 10 10 6 0 10 -4 10 -10z"/>
<path d="M1550 1585 c0 -14 4 -25 9 -25 4 0 6 11 3 25 -2 14 -6 25 -8 25 -2 0
-4 -11 -4 -25z"/>
<path d="M1718 1585 c2 -14 6 -25 8 -25 2 0 4 11 4 25 0 14 -4 25 -9 25 -4 0
-6 -11 -3 -25z"/>
<path d="M1752 1590 c0 -14 2 -19 5 -12 2 6 2 18 0 25 -3 6 -5 1 -5 -13z"/>
<path d="M1302 1588 c-18 -18 -15 -28 8 -28 13 0 20 7 20 20 0 23 -10 26 -28
8z"/>
<path d="M1342 1578 c1 -16 5 -28 9 -28 8 0 20 42 14 49 -3 2 -5 -2 -5 -10 0
-12 -2 -11 -10 1 -8 11 -9 9 -8 -12z"/>
<path d="M1381 1578 c1 -17 2 -19 6 -5 2 9 8 17 13 17 5 0 11 -8 13 -17 4 -14
5 -12 6 5 1 16 -5 22 -19 22 -14 0 -20 -6 -19 -22z"/>
<path d="M1432 1580 c0 -14 2 -19 5 -12 2 6 2 18 0 25 -3 6 -5 1 -5 -13z"/>
<path d="M1452 1583 c2 -9 10 -18 18 -20 13 -4 13 -3 0 6 -13 9 -13 11 3 11 9
0 17 5 17 10 0 6 -9 10 -21 10 -14 0 -19 -5 -17 -17z"/>
<path d="M1502 1580 c0 -14 2 -19 5 -12 2 6 2 18 0 25 -3 6 -5 1 -5 -13z"/>
<path d="M1527 1580 c3 -11 7 -20 9 -20 2 0 4 9 4 20 0 11 -4 20 -9 20 -5 0
-7 -9 -4 -20z"/>
<path d="M1601 1584 c0 -11 3 -14 6 -6 3 7 2 16 -1 19 -3 4 -6 -2 -5 -13z"/>
<path d="M1621 1578 c1 -17 2 -19 6 -5 2 9 8 17 13 17 5 0 11 -8 13 -17 4 -14
5 -12 6 5 1 16 -5 22 -19 22 -14 0 -20 -6 -19 -22z"/>
<path d="M1670 1578 c0 -11 7 -18 18 -18 14 0 15 2 2 10 -10 6 -11 10 -2 10 6
0 12 4 12 8 0 5 -7 9 -15 9 -8 0 -15 -9 -15 -19z"/>
<path d="M1772 1580 c0 -14 2 -19 5 -12 2 6 2 18 0 25 -3 6 -5 1 -5 -13z"/>
<path d="M1792 1583 c4 -23 32 -23 34 0 1 12 1 13 -3 2 -2 -8 -9 -15 -15 -15
-5 0 -8 7 -4 15 3 8 1 15 -5 15 -6 0 -9 -8 -7 -17z"/>
<path d="M1890 1588 c0 -4 6 -8 13 -8 8 0 7 -4 -3 -10 -13 -8 -12 -10 3 -10
10 0 17 7 17 18 0 10 -7 19 -15 19 -8 0 -15 -4 -15 -9z"/>
<path d="M2302 1218 c-7 -7 -12 -21 -12 -32 0 -21 4 -21 200 -18 l200 3 0 -35
0 -35 -191 -1 c-105 0 -195 -3 -200 -6 -14 -8 -11 -128 3 -142 17 -17 389 -17
406 0 7 7 12 22 12 35 0 22 -2 23 -100 23 -67 0 -100 4 -100 11 0 8 -4 8 -12
1 -7 -5 -41 -10 -75 -11 l-63 -1 0 35 0 35 173 2 172 3 3 58 c2 35 -2 64 -9
73 -15 19 -388 21 -407 2z"/>
<path d="M1916 1169 c-28 -22 -36 -72 -16 -108 15 -28 61 -44 93 -32 31 12 30
11 17 47 -8 19 -7 37 1 62 9 28 9 36 -2 43 -24 15 -65 10 -93 -12z"/>
<path d="M2350 1135 c0 -8 2 -15 4 -15 2 0 6 7 10 15 3 8 1 15 -4 15 -6 0 -10
-7 -10 -15z"/>
<path d="M2383 1136 c-16 -19 -4 -29 13 -11 8 7 14 16 14 19 0 10 -15 6 -27
-8z"/>
<path d="M2471 1134 c0 -11 3 -14 6 -6 3 7 2 16 -1 19 -3 4 -6 -2 -5 -13z"/>
<path d="M2497 1135 c-4 -8 -3 -16 1 -19 4 -3 9 4 9 15 2 23 -3 25 -10 4z"/>
<path d="M2599 1141 c11 -7 10 -10 -5 -13 -15 -3 -13 -5 8 -10 24 -4 26 -3 17
13 -5 11 -15 19 -22 19 -8 0 -7 -3 2 -9z"/>
<path d="M2640 1144 c0 -5 9 -15 20 -22 18 -11 20 -10 19 10 0 13 -3 17 -6 10
-4 -10 -8 -10 -19 -1 -8 6 -14 7 -14 3z"/>
<path d="M1386 1133 c6 -4 18 -28 26 -53 20 -63 40 -62 67 1 12 28 20 53 17
56 -10 10 -34 -17 -41 -45 l-7 -27 -13 35 c-8 25 -18 36 -36 38 -14 2 -19 -1
-13 -5z"/>
<path d="M1516 1123 c-16 -57 -18 -93 -3 -93 14 0 27 39 27 86 0 28 -16 32
-24 7z"/>
<path d="M1578 1129 c-24 -13 -23 -36 2 -51 27 -17 25 -28 -5 -28 -14 0 -25
-5 -25 -11 0 -17 62 -6 74 14 9 14 7 21 -13 36 -16 12 -20 21 -12 25 6 4 16 4
21 1 6 -3 10 1 10 9 0 18 -26 20 -52 5z"/>
<path d="M1684 1132 c-6 -4 -20 -28 -31 -53 l-20 -45 49 0 49 1 -6 35 c-12 71
-17 78 -41 62z m16 -52 c0 -5 -4 -10 -10 -10 -5 0 -10 5 -10 10 0 6 5 10 10
10 6 0 10 -4 10 -10z"/>
<path d="M2308 1123 c6 -2 18 -2 25 0 6 3 1 5 -13 5 -14 0 -19 -2 -12 -5z"/>
<path d="M2447 1048 c9 -10 17 -18 17 -18 1 0 2 8 2 18 0 10 -8 18 -18 18 -16
0 -16 -2 -1 -18z"/>
<path d="M2480 1050 c0 -14 5 -18 16 -13 12 4 13 8 3 13 -8 6 -6 9 7 13 16 4
16 5 -3 6 -17 1 -23 -5 -23 -19z"/>
<path d="M2548 1063 c7 -3 16 -2 19 1 4 3 -2 6 -13 5 -11 0 -14 -3 -6 -6z"/>
<path d="M2598 1063 c7 -3 16 -2 19 1 4 3 -2 6 -13 5 -11 0 -14 -3 -6 -6z"/>
<path d="M2635 1060 c-3 -6 1 -7 9 -4 18 7 21 14 7 14 -6 0 -13 -4 -16 -10z"/>
<path d="M2688 1063 c7 -3 16 -2 19 1 4 3 -2 6 -13 5 -11 0 -14 -3 -6 -6z"/>
<path d="M2540 1046 c0 -2 7 -6 15 -10 8 -3 15 -1 15 4 0 6 -7 10 -15 10 -8 0
-15 -2 -15 -4z"/>
<path d="M2015 990 c-3 -5 -1 -10 4 -10 6 0 11 5 11 10 0 6 -2 10 -4 10 -3 0
-8 -4 -11 -10z"/>
<path d="M1427 823 c-13 -12 -7 -26 6 -15 6 5 21 12 32 15 16 4 15 5 -6 6 -14
0 -29 -2 -32 -6z"/>
<path d="M1912 811 c-35 -26 -27 -66 13 -66 27 0 30 3 27 30 -6 49 -14 56 -40
36z"/>
<path d="M1991 778 c1 -24 3 -35 6 -25 2 9 13 17 24 17 14 0 19 7 19 25 0 20
-5 25 -25 25 -23 0 -25 -4 -24 -42z m39 17 c0 -8 -7 -15 -15 -15 -8 0 -15 7
-15 15 0 8 7 15 15 15 8 0 15 -7 15 -15z"/>
<path d="M2056 791 c-4 -5 3 -7 16 -3 14 3 19 2 14 -6 -4 -7 -14 -12 -22 -12
-8 0 -14 -7 -14 -15 0 -9 10 -15 26 -15 22 0 25 4 22 27 -3 28 -30 43 -42 24z"/>
<path d="M2110 793 c0 -6 4 -23 9 -37 7 -17 7 -26 -2 -30 -7 -2 -6 -5 4 -5 15
-1 44 67 33 78 -3 3 -8 -5 -11 -18 l-6 -23 -13 23 c-7 13 -13 19 -14 12z"/>
<path d="M1548 783 c7 -3 16 -2 19 1 4 3 -2 6 -13 5 -11 0 -14 -3 -6 -6z"/>
</g>
</svg>
