<svg width="18" height="17" viewBox="0 0 18 17" fill="none" xmlns="http://www.w3.org/2000/svg">
<g clip-path="url(#clip0_35371_6741)">
<path fill-rule="evenodd" clip-rule="evenodd" d="M0.666656 14.543C0.666656 15.3364 1.34443 15.9786 2.18181 15.9786H15.8182C16.6555 15.9786 17.3333 15.3364 17.3333 14.543V3.05859H0.666656V14.543Z" stroke="white" stroke-width="1.5" stroke-linecap="square"/>
<path d="M0.666656 6.45898H17.3333" stroke="white" stroke-width="1.5" stroke-linecap="square"/>
<path d="M10 3.73953V1.01953" stroke="white" stroke-width="1.5" stroke-linecap="square"/>
<path d="M7.33331 3.73953V1.01953" stroke="white" stroke-width="1.5" stroke-linecap="square"/>
<path d="M13.3333 3.73953V1.01953" stroke="white" stroke-width="1.5" stroke-linecap="square"/>
<path d="M4.66666 3.73953V1.01953" stroke="white" stroke-width="1.5" stroke-linecap="square"/>
<path d="M4.66165 10.5391H4.6711" stroke="white" stroke-width="1.5" stroke-linecap="square"/>
<path d="M4.66165 13.2598H4.6711" stroke="white" stroke-width="1.5" stroke-linecap="square"/>
<path d="M7.32831 10.5391H7.33775" stroke="white" stroke-width="1.5" stroke-linecap="square"/>
<path d="M7.32831 13.2598H7.33775" stroke="white" stroke-width="1.5" stroke-linecap="square"/>
<path d="M9.995 10.5391H10.0044" stroke="white" stroke-width="1.5" stroke-linecap="square"/>
<path d="M9.995 13.2598H10.0044" stroke="white" stroke-width="1.5" stroke-linecap="square"/>
<path d="M13.3283 10.5391H13.3378" stroke="white" stroke-width="1.5" stroke-linecap="square"/>
<path d="M13.3283 13.2598H13.3378" stroke="white" stroke-width="1.5" stroke-linecap="square"/>
</g>
<defs>
<clipPath id="clip0_35371_6741">
<rect width="18" height="17" fill="white"/>
</clipPath>
</defs>
</svg>
