<svg width="20" height="17" viewBox="0 0 20 17" fill="none" xmlns="http://www.w3.org/2000/svg">
<path d="M0 1.4875C0 0.6664 0.653333 0 1.45833 0H18.5417C19.3467 0 20 0.6664 20 1.4875V15.5125C20 15.907 19.8464 16.2854 19.5729 16.5643C19.2994 16.8433 18.9284 17 18.5417 17H1.45833C1.07156 17 0.700626 16.8433 0.427136 16.5643C0.153645 16.2854 0 15.907 0 15.5125L0 1.4875ZM18.75 4.25H1.25V15.5125C1.25 15.6298 1.34333 15.725 1.45833 15.725H18.5417C18.5969 15.725 18.6499 15.7026 18.689 15.6628C18.7281 15.6229 18.75 15.5689 18.75 15.5125V4.25ZM10.4167 1.275V2.975H18.75V1.4875C18.75 1.43114 18.7281 1.37709 18.689 1.33724C18.6499 1.29739 18.5969 1.275 18.5417 1.275H10.4167ZM5.83333 1.275V2.975H9.16667V1.275H5.83333ZM1.45833 1.275C1.40308 1.275 1.35009 1.29739 1.31102 1.33724C1.27195 1.37709 1.25 1.43114 1.25 1.4875V2.975H4.58333V1.275H1.45833Z" fill="black"/>
</svg>
